<svg xmlns="http://www.w3.org/2000/svg" viewBox="0 0 280.0861 83.026">
  <title>datalab-logo-inverted-rgb</title>
  <g id="invert-rgb">
    <g id="type">
      <path id="type_PathItem_" data-name="type &lt;PathItem&gt;" d="M211.5435,15.3465l-1.6914-.4092c-.5753-.1409-1.506-.4132-1.7068-1.0561-.4866-1.5293,1.0157-1.869,1.6721-1.8478A8.4738,8.4738,0,0,1,214.43,13.912L216.324,8.79a11.6534,11.6534,0,0,0-6.53-1.9154c-4.4756,0-8.93,2.9018-8.93,8.0629,0,3.41,2.4578,5.2111,5.3771,5.7613l1.5022.2993c.6874.1371,1.7821.307,1.9386,1.2839.2006,1.2936-.5524,1.7029-2.0874,1.6682a8.5294,8.5294,0,0,1-4.875-2.0639l-.3785-.3224L200.1521,27.34a17.5625,17.5625,0,0,0,7.9238,1.9905c4.4522,0,8.9315-2.5658,8.9315-7.7557C217.0074,17.8873,214.7175,16.0841,211.5435,15.3465Z" style="fill: #deb209"/>
      <rect id="type_PathItem_2" data-name="type &lt;PathItem&gt;" x="191.0427" y="7.2296" width="7.4991" height="21.7788" style="fill: #deb209"/>
      <polygon id="type_PathItem_3" data-name="type &lt;PathItem&gt;" points="179.118 20.37 175.784 7.23 167.993 7.23 175.952 29.005 182.283 29.005 190.263 7.23 182.451 7.23 179.118 20.37" style="fill: #deb209"/>
      <path id="type_CompoundPathItem_" data-name="type &lt;CompoundPathItem&gt;" d="M156.629,7.23l-7.1265,21.7752h7.9218l.6044-2.7319h5.6551l.7453,2.7319h7.93L164.935,7.23Zm2.7455,13.8783,1.4944-7.5955c.1331.9325,1.5,7.5955,1.5,7.5955Z" style="fill: #deb209"/>
      <path id="type_CompoundPathItem_2" data-name="type &lt;CompoundPathItem&gt;" d="M137.7266,7.23H130.053V28.9971l9.5293.0077c6.0953,0,10.4356-4.124,10.4356-10.5689C150.0179,10.431,144.693,7.23,137.7266,7.23Zm.3768,15.5272h-.5118V13.64h.4826c2.7534,0,4.406,1.7068,4.406,4.7652A4.0611,4.0611,0,0,1,138.1034,22.7568Z" style="fill: #deb209"/>
      <path id="type_PathItem_4" data-name="type &lt;PathItem&gt;" d="M125.368,24.4636c-1.0272,2.8-4.7989,3.4213-6.7616,3.4213-5.494,0-7.6535-5.4081-7.6535-9.9163,0-6.2866,3.1781-9.8276,7.98-9.8083a10.2332,10.2332,0,0,1,4.8633,1.5,17.5413,17.5413,0,0,1,1.089,2.5235c.31.8224.6218,1.7474.9906,1.9132.5936.2744.1169-1.7627.0193-2.6121l-.4094-3.572a20.1437,20.1437,0,0,0-6.3338-1.2279c-8.5378-.3206-14.0433,3.3884-14.0433,12.349,0,5.1628,3.0584,10.3259,11.9089,10.3259a19.6484,19.6484,0,0,0,8.4527-1.6489c.199-.1043.2338-.89.8882-3.4852.1342-.5482.4316-1.5618.2038-1.8088C126.259,22.0753,125.83,23.2007,125.368,24.4636Z" style="fill: #deb209"/>
      <path id="type_PathItem_5" data-name="type &lt;PathItem&gt;" d="M105.182,7.2162a30.7666,30.7666,0,0,1-7.1537.0519s-.5781.1218-.1022.5446l1.4193.4983c.9574.4131,1.0926.1061,1.027,1.1814l-.0144,11.4748c0,1.2065-.0552,6.6165-6.3156,6.6165-4.5354,0-5.9939-3.5179-5.9939-6.3561L88.0069,9.6431c.0357-1.3321-.138-.8843,1.1613-1.4675l1.6392-.48c.3262-.3593-.1718-.4789-.1718-.4789a56.7792,56.7792,0,0,1-9.732-.0328c-.618-.0348-.2723.4594-.2723.4594l2.05.7743c.68.2375.4636.1815.4636,2.2319V22.3957c0,6.9644,8.0318,6.9644,8.85,6.9644,1.7192,0,10.5535.193,10.5535-8.4838l.0088-11.098c0-1.1952,0-.9152,1.09-1.3979l1.6749-.7164C105.63,7.3049,105.182,7.2162,105.182,7.2162Z" style="fill: #deb209"/>
      <path id="type_CompoundPathItem_3" data-name="type &lt;CompoundPathItem&gt;" d="M83.0628,40.515h7.1646c6.2622,0,10.4163,4.2739,10.4163,10.0538,0,5.8108-4.1541,10.0244-10.4163,10.0244H83.0628Zm7.1646,17.4294a6.9965,6.9965,0,0,0,7.3153-7.3756c0-4.1239-2.5885-7.405-7.3153-7.405H86.0733V57.9444Z" style="fill: #fff"/>
      <path id="type_CompoundPathItem_4" data-name="type &lt;CompoundPathItem&gt;" d="M113.2043,58.9975a6.2315,6.2315,0,0,1-4.7563,1.9575,4.8317,4.8317,0,0,1-5.0578-4.8166c0-3.3121,2.6194-4.7563,5.0578-4.7563a6.0651,6.0651,0,0,1,4.7563,1.9266V50.9c0-1.806-1.4751-2.89-3.5525-2.89a5.9524,5.9524,0,0,0-4.3651,1.9266L104.1131,48.07a8.1707,8.1707,0,0,1,5.96-2.3782c3.1612,0,5.84,1.3854,5.84,5.0872v9.8141h-2.7091Zm0-4.0636a4.6054,4.6054,0,0,0-3.7327-1.656c-1.9568,0-3.3414,1.1751-3.3414,2.89,0,1.7163,1.3846,2.89,3.3414,2.89a4.6085,4.6085,0,0,0,3.7327-1.6546Z" style="fill: #fff"/>
      <path id="type_CompoundPathItem_5" data-name="type &lt;CompoundPathItem&gt;" d="M120.7961,57.3723v-8.94h-2.4083V46.0537h2.4083V42.08h2.71v3.9739h2.95v2.3782h-2.95v8.3389c0,1.0236.4817,1.7752,1.4148,1.7752a2.084,2.084,0,0,0,1.4752-.5722l.6919,2.0473a3.8548,3.8548,0,0,1-2.83.9339C121.9705,60.955,120.7961,59.6608,120.7961,57.3723Z" style="fill: #fff"/>
      <path id="type_CompoundPathItem_6" data-name="type &lt;CompoundPathItem&gt;" d="M138.441,58.9975a6.2315,6.2315,0,0,1-4.7563,1.9575,4.8317,4.8317,0,0,1-5.0578-4.8166c0-3.3121,2.6194-4.7563,5.0578-4.7563a6.0651,6.0651,0,0,1,4.7563,1.9266V50.9c0-1.806-1.4751-2.89-3.5525-2.89a5.9524,5.9524,0,0,0-4.3651,1.9266L129.35,48.07a8.1707,8.1707,0,0,1,5.96-2.3782c3.1613,0,5.84,1.3854,5.84,5.0872v9.8141H138.441Zm0-4.0636a4.6044,4.6044,0,0,0-3.7327-1.656c-1.9568,0-3.3414,1.1751-3.3414,2.89,0,1.7163,1.3846,2.89,3.3414,2.89a4.6075,4.6075,0,0,0,3.7327-1.6546Z" style="fill: #fff"/>
      <path id="type_CompoundPathItem_7" data-name="type &lt;CompoundPathItem&gt;" d="M145.5512,40.515h3.0105V57.9444h9.1214v2.6488H145.5512Z" style="fill: #fff"/>
      <path id="type_CompoundPathItem_8" data-name="type &lt;CompoundPathItem&gt;" d="M169.55,58.9975a6.2315,6.2315,0,0,1-4.7563,1.9575,4.8317,4.8317,0,0,1-5.0578-4.8166c0-3.3121,2.6194-4.7563,5.0578-4.7563a6.065,6.065,0,0,1,4.7563,1.9266V50.9c0-1.806-1.4751-2.89-3.5525-2.89a5.9524,5.9524,0,0,0-4.3651,1.9266L160.4583,48.07a8.1707,8.1707,0,0,1,5.96-2.3782c3.1613,0,5.84,1.3854,5.84,5.0872v9.8141H169.55Zm0-4.0636a4.6044,4.6044,0,0,0-3.7327-1.656c-1.9567,0-3.3414,1.1751-3.3414,2.89,0,1.7163,1.3847,2.89,3.3414,2.89a4.6075,4.6075,0,0,0,3.7327-1.6546Z" style="fill: #fff"/>
      <path id="type_CompoundPathItem_9" data-name="type &lt;CompoundPathItem&gt;" d="M176.5994,40.515h2.71v7.6462a5.8364,5.8364,0,0,1,4.7563-2.4693c3.7929,0,6.4726,2.9812,6.4726,7.6463,0,4.7562-2.71,7.6168-6.4726,7.6168a5.971,5.971,0,0,1-4.7563-2.4385v2.0767h-2.71Zm6.7432,18.031c2.71,0,4.3952-2.1664,4.3952-5.2078s-1.6854-5.2373-4.3952-5.2373a5.0042,5.0042,0,0,0-4.0334,2.1664V56.44A4.9545,4.9545,0,0,0,183.3426,58.546Z" style="fill: #fff"/>
      <path id="type_CompoundPathItem_10" data-name="type &lt;CompoundPathItem&gt;" d="M82.9848,72.1809h3.6415a5.3279,5.3279,0,1,1,0,10.6524H82.9848Zm3.6415,9.4714a4.1448,4.1448,0,0,0,0-8.2889H84.3107v8.2889Z" style="fill: #fff"/>
      <path id="type_CompoundPathItem_11" data-name="type &lt;CompoundPathItem&gt;" d="M98.7751,81.9553A3.3361,3.3361,0,0,1,96.22,83.026a2.57,2.57,0,0,1-2.7-2.5561,2.5269,2.5269,0,0,1,2.7-2.54,3.2245,3.2245,0,0,1,2.5553,1.0545v-1.39c0-1.0368-.83-1.6281-1.9487-1.6281a3.066,3.066,0,0,0-2.3634,1.0693l-.5589-.8295a4.0349,4.0349,0,0,1,3.0819-1.2781c1.63,0,2.987.7339,2.987,2.6032v5.3019H98.7751Zm0-2.2046a2.5848,2.5848,0,0,0-2.1244-.9574,1.6969,1.6969,0,1,0,0,3.3694,2.5849,2.5849,0,0,0,2.1244-.9575Z" style="fill: #fff"/>
      <path id="type_CompoundPathItem_12" data-name="type &lt;CompoundPathItem&gt;" d="M102.4446,81.22v-5.046h-1.2781V75.1194h1.2781V73.0119h1.1979v2.1075h1.5648v1.0545h-1.5648v4.7916c0,.575.2551.99.7824.99a1.1568,1.1568,0,0,0,.814-.3192l.3515.8942a1.9592,1.9592,0,0,1-1.4369.4957A1.5792,1.5792,0,0,1,102.4446,81.22Z" style="fill: #fff"/>
      <path id="type_CompoundPathItem_13" data-name="type &lt;CompoundPathItem&gt;" d="M111.5615,81.9553a3.3362,3.3362,0,0,1-2.5554,1.0707,2.57,2.57,0,0,1-2.6994-2.5561,2.5269,2.5269,0,0,1,2.6994-2.54,3.2246,3.2246,0,0,1,2.5554,1.0545v-1.39c0-1.0368-.83-1.6281-1.9487-1.6281a3.066,3.066,0,0,0-2.3634,1.0693l-.5589-.8295a4.0347,4.0347,0,0,1,3.0819-1.2781c1.6295,0,2.987.7339,2.987,2.6032v5.3019h-1.1979Zm0-2.2046a2.5849,2.5849,0,0,0-2.1244-.9574,1.6969,1.6969,0,1,0,0,3.3694,2.585,2.585,0,0,0,2.1244-.9575Z" style="fill: #fff"/>
      <path id="type_CompoundPathItem_14" data-name="type &lt;CompoundPathItem&gt;" d="M119.1423,80.3257a4.5017,4.5017,0,0,0,3.3532,1.5178c1.9009,0,2.5076-1.0221,2.5076-1.8369,0-1.2781-1.2935-1.63-2.6988-2.0119-1.7089-.4471-3.61-.9266-3.61-3.0194,0-1.756,1.5655-2.9547,3.6576-2.9547a5.0121,5.0121,0,0,1,3.7849,1.4854l-.7986.9751a4.0776,4.0776,0,0,0-3.0819-1.278c-1.278,0-2.1884.6868-2.1884,1.6928,0,1.0706,1.23,1.39,2.5877,1.7575,1.7406.4632,3.7209,1.0059,3.7209,3.2414,0,1.5487-1.0537,3.1312-3.929,3.1312a5.2732,5.2732,0,0,1-4.0886-1.6943Z" style="fill: #fff"/>
      <path id="type_CompoundPathItem_15" data-name="type &lt;CompoundPathItem&gt;" d="M131.5463,74.9282A3.3019,3.3019,0,0,1,134.373,76.27l-.7986.7354a2.2874,2.2874,0,0,0-1.9641-1.0075,2.9972,2.9972,0,0,0,0,5.9579,2.3251,2.3251,0,0,0,1.9641-1.006l.7986.7339a3.2991,3.2991,0,0,1-2.8267,1.3428,4.0541,4.0541,0,0,1,0-8.0978Z" style="fill: #fff"/>
      <path id="type_CompoundPathItem_16" data-name="type &lt;CompoundPathItem&gt;" d="M135.68,73.2193a.8064.8064,0,1,1,1.6127,0,.8064.8064,0,0,1-1.6127,0Zm.2074,1.9h1.1979v7.7139h-1.1979Z" style="fill: #fff"/>
      <path id="type_CompoundPathItem_17" data-name="type &lt;CompoundPathItem&gt;" d="M142.673,74.9282c2.3318,0,3.7054,1.8208,3.7054,4.1357v.3044h-6.2446a2.7173,2.7173,0,0,0,2.7789,2.6664,3.3759,3.3759,0,0,0,2.38-.9736l.5751.7824a4.1937,4.1937,0,0,1-3.0665,1.1825,4.0538,4.0538,0,0,1-.1279-8.0978Zm-2.5392,3.5606h5.0622a2.5,2.5,0,0,0-2.5392-2.5708A2.5728,2.5728,0,0,0,140.1338,78.4888Z" style="fill: #fff"/>
      <path id="type_CompoundPathItem_18" data-name="type &lt;CompoundPathItem&gt;" d="M153.3533,77.7873c0-1.3575-.6868-1.79-1.7244-1.79a2.9763,2.9763,0,0,0-2.284,1.1987v5.6372H148.147V75.1194h1.1979v1.1178a3.8273,3.8273,0,0,1,2.7465-1.309,2.1925,2.1925,0,0,1,2.46,2.4914v5.4137h-1.1979Z" style="fill: #fff"/>
      <path id="type_CompoundPathItem_19" data-name="type &lt;CompoundPathItem&gt;" d="M160.1848,74.9282a3.3021,3.3021,0,0,1,2.8267,1.3413l-.7986.7354a2.2876,2.2876,0,0,0-1.9642-1.0075,2.9972,2.9972,0,0,0,0,5.9579,2.3253,2.3253,0,0,0,1.9642-1.006l.7986.7339a3.2992,3.2992,0,0,1-2.8267,1.3428,4.0541,4.0541,0,0,1,0-8.0978Z" style="fill: #fff"/>
      <path id="type_CompoundPathItem_20" data-name="type &lt;CompoundPathItem&gt;" d="M167.88,74.9282c2.3318,0,3.7055,1.8208,3.7055,4.1357v.3044H165.34a2.7174,2.7174,0,0,0,2.7789,2.6664,3.376,3.376,0,0,0,2.38-.9736l.575.7824a4.1936,4.1936,0,0,1-3.0664,1.1825,4.0538,4.0538,0,0,1-.128-8.0978ZM165.34,78.4888h5.0622a2.5,2.5,0,0,0-2.5392-2.5708A2.573,2.573,0,0,0,165.34,78.4888Z" style="fill: #fff"/>
      <path id="type_CompoundPathItem_21" data-name="type &lt;CompoundPathItem&gt;" d="M182.1359,81.9553a3.3363,3.3363,0,0,1-2.5554,1.0707,2.5692,2.5692,0,0,1-2.6987-2.5561,2.5263,2.5263,0,0,1,2.6987-2.54,3.2248,3.2248,0,0,1,2.5554,1.0545v-1.39c0-1.0368-.83-1.6281-1.9487-1.6281a3.0664,3.0664,0,0,0-2.3635,1.0693l-.5588-.8295a4.0346,4.0346,0,0,1,3.0819-1.2781c1.63,0,2.987.7339,2.987,2.6032v5.3019h-1.1979Zm0-2.2046a2.5851,2.5851,0,0,0-2.1245-.9574,1.6969,1.6969,0,1,0,0,3.3694,2.5852,2.5852,0,0,0,2.1245-.9575Z" style="fill: #fff"/>
      <path id="type_CompoundPathItem_22" data-name="type &lt;CompoundPathItem&gt;" d="M190.7719,77.7873c0-1.3575-.6868-1.79-1.7244-1.79a2.9763,2.9763,0,0,0-2.284,1.1987v5.6372h-1.1979V75.1194h1.1979v1.1178a3.8273,3.8273,0,0,1,2.7465-1.309,2.1925,2.1925,0,0,1,2.46,2.4914v5.4137h-1.1979Z" style="fill: #fff"/>
      <path id="type_CompoundPathItem_23" data-name="type &lt;CompoundPathItem&gt;" d="M199.7911,81.6832a3.2481,3.2481,0,0,1-2.6032,1.3428c-2.0119,0-3.4334-1.534-3.4334-4.0416,0-2.459,1.4053-4.0562,3.4334-4.0562a3.223,3.223,0,0,1,2.6032,1.3575V72.1809h1.1978V82.8333h-1.1978Zm0-4.44a2.896,2.896,0,0,0-2.3157-1.2457c-1.5486,0-2.4752,1.2781-2.4752,2.987s.9266,2.9709,2.4752,2.9709a2.8686,2.8686,0,0,0,2.3157-1.2134Z" style="fill: #fff"/>
      <path id="type_CompoundPathItem_24" data-name="type &lt;CompoundPathItem&gt;" d="M207.2277,72.1809h1.3259V82.8333h-1.3259Z" style="fill: #fff"/>
      <path id="type_CompoundPathItem_25" data-name="type &lt;CompoundPathItem&gt;" d="M216.041,77.7873c0-1.3575-.6869-1.79-1.7245-1.79a2.9763,2.9763,0,0,0-2.284,1.1987v5.6372h-1.1979V75.1194h1.1979v1.1178a3.8274,3.8274,0,0,1,2.7466-1.309,2.1925,2.1925,0,0,1,2.46,2.4914v5.4137H216.041Z" style="fill: #fff"/>
      <path id="type_CompoundPathItem_26" data-name="type &lt;CompoundPathItem&gt;" d="M219.806,76.1739h-1.2781V75.1194h1.2781v-.5912a2.3178,2.3178,0,0,1,3.4017-2.2355l-.3037.8942a1.3244,1.3244,0,0,0-.686-.175c-.7832,0-1.2141.5427-1.2141,1.5163v.5912h1.5648v1.0545h-1.5648v6.6594H219.806Z" style="fill: #fff"/>
      <path id="type_CompoundPathItem_27" data-name="type &lt;CompoundPathItem&gt;" d="M223.3813,78.9683a3.824,3.824,0,1,1,3.8172,4.0577A3.7843,3.7843,0,0,1,223.3813,78.9683Zm6.3726,0c0-1.5649-.91-2.9709-2.5554-2.9709a3.0112,3.0112,0,0,0,0,5.9579C228.8435,81.9553,229.7539,80.5493,229.7539,78.9683Z" style="fill: #fff"/>
      <path id="type_CompoundPathItem_28" data-name="type &lt;CompoundPathItem&gt;" d="M232.8,75.1194h1.1979v1.2457a3.277,3.277,0,0,1,2.5716-1.4045v1.23a2.0876,2.0876,0,0,0-.48-.0485,2.8241,2.8241,0,0,0-2.0921,1.23v5.4622H232.8Z" style="fill: #fff"/>
      <path id="type_CompoundPathItem_29" data-name="type &lt;CompoundPathItem&gt;" d="M247.2193,77.5946c0-.9736-.4309-1.5972-1.4214-1.5972a2.6975,2.6975,0,0,0-2.0443,1.1825v5.6534h-1.1979V77.5946c0-.9736-.4155-1.5972-1.4214-1.5972a2.6914,2.6914,0,0,0-2.0282,1.1987v5.6372h-1.1978V75.1194h1.1978v1.1178a3.3366,3.3366,0,0,1,2.4914-1.309,1.98,1.98,0,0,1,2.0759,1.4369,3.2476,3.2476,0,0,1,2.5878-1.4369c1.4052,0,2.156.7824,2.156,2.3311v5.574h-1.1979Z" style="fill: #fff"/>
      <path id="type_CompoundPathItem_30" data-name="type &lt;CompoundPathItem&gt;" d="M255.4708,81.9553a3.3365,3.3365,0,0,1-2.5554,1.0707,2.57,2.57,0,0,1-2.7-2.5561,2.5269,2.5269,0,0,1,2.7-2.54,3.2248,3.2248,0,0,1,2.5554,1.0545v-1.39c0-1.0368-.83-1.6281-1.9487-1.6281a3.0664,3.0664,0,0,0-2.3635,1.0693l-.5588-.8295a4.0345,4.0345,0,0,1,3.0818-1.2781c1.63,0,2.9871.7339,2.9871,2.6032v5.3019h-1.1979Zm0-2.2046a2.5851,2.5851,0,0,0-2.1245-.9574,1.6969,1.6969,0,1,0,0,3.3694,2.5852,2.5852,0,0,0,2.1245-.9575Z" style="fill: #fff"/>
      <path id="type_CompoundPathItem_31" data-name="type &lt;CompoundPathItem&gt;" d="M259.14,81.22v-5.046h-1.278V75.1194h1.278V73.0119h1.1979v2.1075h1.5648v1.0545h-1.5648v4.7916c0,.575.2552.99.7824.99a1.1571,1.1571,0,0,0,.8141-.3192l.3515.8942a1.96,1.96,0,0,1-1.4369.4957A1.5792,1.5792,0,0,1,259.14,81.22Z" style="fill: #fff"/>
      <path id="type_CompoundPathItem_32" data-name="type &lt;CompoundPathItem&gt;" d="M263.2266,73.2193a.8063.8063,0,1,1,1.6126,0,.8063.8063,0,0,1-1.6126,0Zm.2073,1.9h1.1979v7.7139h-1.1979Z" style="fill: #fff"/>
      <path id="type_CompoundPathItem_33" data-name="type &lt;CompoundPathItem&gt;" d="M270.2676,74.9282a3.3019,3.3019,0,0,1,2.8267,1.3413l-.7986.7354a2.2873,2.2873,0,0,0-1.9641-1.0075,2.9972,2.9972,0,0,0,0,5.9579,2.325,2.325,0,0,0,1.9641-1.006l.7986.7339a3.2991,3.2991,0,0,1-2.8267,1.3428,4.0541,4.0541,0,0,1,0-8.0978Z" style="fill: #fff"/>
      <path id="type_CompoundPathItem_34" data-name="type &lt;CompoundPathItem&gt;" d="M274.5606,80.9493A3.4939,3.4939,0,0,0,277.1,82.0509c1.1817,0,1.8208-.5589,1.8208-1.3251,0-.8472-.942-1.0707-1.98-1.3266-1.31-.303-2.7951-.6545-2.7951-2.2517,0-1.1971,1.0384-2.2193,2.8746-2.2193a3.9009,3.9009,0,0,1,2.859,1.1178l-.5588.8309a3.0065,3.0065,0,0,0-2.3-.9751c-1.0538,0-1.7083.528-1.7083,1.2148,0,.7339.878.9413,1.884,1.181,1.342.3045,2.8907.6868,2.8907,2.3958,0,1.2942-1.0376,2.3326-3.0341,2.3326a4.1016,4.1016,0,0,1-3.1142-1.2148Z" style="fill: #fff"/>
    </g>
    <path id="logoMark" d="M68.2159,14.894a2.79,2.79,0,0,0-5.4038.725L47.4977,17.7007c.0114.0284.0288.0525.0394.0815.007.02.0083.04.0149.059a2.7914,2.7914,0,1,0-3.9126,3.465c.0044,1.8507-.449,9.2772-7.0592,18.3093a6.7949,6.7949,0,0,0-5.2293-1.1768C29.7413,23.56,25.28,13.9962,23.9784,11.4744A7.4988,7.4988,0,1,0,14.6771,14.39C13.05,28.62,7.9946,36.9711,5.0738,40.7238a3.3084,3.3084,0,1,0,1.3773,1.6751,3.2885,3.2885,0,0,0-.4182-.7718c3.0181-3.8,8.1638-12.22,9.8838-26.8166a7.3568,7.3568,0,0,0,7.1952-2.206c1.5318,3.1049,5.5173,12.306,6.9866,26.1851a6.7889,6.7889,0,1,0,7.4481,1.681c6.6061-8.9723,7.3417-16.36,7.3771-18.833a2.7649,2.7649,0,0,0,2.819-2.6735L63.005,16.89a2.79,2.79,0,0,0,5.2109-1.9955Z" style="fill: #fff"/>
  </g>
</svg>
