<svg width="353" height="183" viewBox="0 0 353 183" fill="none" xmlns="http://www.w3.org/2000/svg">
<g clip-path="url(#clip0_1475_22693)">
<path d="M225.529 138.61C225.529 138.61 240.261 119.491 230.754 108.836C221.248 98.1618 209.611 119.664 209.611 119.664L201.422 131.679L212.23 154.874C212.23 154.874 221.876 144.286 225.529 138.61Z" fill="#EFEFEF"/>
<path d="M178.486 62.4268C186.023 57.0626 200.631 48.1357 210.64 48.1357C214.043 48.1357 216.515 49.1681 218.217 51.2733C219.899 53.3583 220.405 55.3825 219.838 57.6699C217.751 66.0097 201.988 75.9284 190.703 81.2319L178.486 62.4268Z" fill="#FFCACA"/>
<path d="M210.641 52.1846C213.741 52.1846 214.632 53.2777 215.058 53.804C216.172 55.1804 216.091 55.9496 215.909 56.6784C214.977 60.4434 206.873 68.7023 192.184 76.0502L184.019 63.5C192.245 58.0751 203.408 52.1846 210.641 52.1846ZM210.641 44.0876C195.101 44.0876 173.018 61.4555 173.018 61.4555L189.206 86.3738C189.206 86.3738 235.723 66.5566 221.359 48.7434C218.684 45.4034 214.916 44.0876 210.641 44.0876Z" fill="black"/>
<path d="M185.642 52.8111C185.642 52.8111 190.809 45.9692 193.909 35.7469C194.983 32.2045 191.153 29.1479 187.972 31.0507C182.624 34.2287 175.654 38.9452 170.731 44.2689C161.674 54.1067 185.642 52.8111 185.642 52.8111Z" fill="#FFC145"/>
<path d="M99.3924 43.2389C121.03 37.0245 143.985 37.0042 165.644 43.1579L165.846 43.2186C185.155 48.7043 200.107 64.0682 204.949 83.5413C209.487 101.82 214.066 160.624 214.066 178.053C214.066 178.053 216.335 214.124 132.7 214.124C49.0657 214.124 51.5577 178.032 51.5577 178.032C51.5577 178.032 51.5577 152.871 52.206 141.961C53.0975 126.88 55.2451 104.553 60.3507 83.7235C63.3492 71.5376 70.2985 60.9307 79.8006 53.3398C85.5141 48.7853 92.1392 45.3036 99.3924 43.2389Z" fill="white"/>
<path d="M180.982 105.319C185.95 105.319 189.978 101.295 189.978 96.3311C189.978 91.3674 185.95 87.3435 180.982 87.3435C176.014 87.3435 171.986 91.3674 171.986 96.3311C171.986 101.295 176.014 105.319 180.982 105.319Z" fill="black"/>
<path d="M108.75 105.319C113.719 105.319 117.746 101.295 117.746 96.3311C117.746 91.3674 113.719 87.3435 108.75 87.3435C103.782 87.3435 99.7549 91.3674 99.7549 96.3311C99.7549 101.295 103.782 105.319 108.75 105.319Z" fill="black"/>
<path d="M174.964 119.874C174.964 109.003 165.564 96.3318 144.817 96.3318C124.07 96.3318 115.034 109.003 115.034 119.874C115.034 130.744 124.091 135.683 144.817 135.683C165.543 135.683 174.964 130.744 174.964 119.874Z" fill="#FFCACA"/>
<path d="M138.862 119.185C140.574 119.185 141.961 117.309 141.961 114.995C141.961 112.68 140.574 110.804 138.862 110.804C137.15 110.804 135.762 112.68 135.762 114.995C135.762 117.309 137.15 119.185 138.862 119.185Z" fill="black"/>
<path d="M156.91 119.185C158.622 119.185 160.01 117.309 160.01 114.995C160.01 112.68 158.622 110.804 156.91 110.804C155.198 110.804 153.811 112.68 153.811 114.995C153.811 117.309 155.198 119.185 156.91 119.185Z" fill="black"/>
<path d="M82.1505 55.7868C82.1505 55.7868 74.6339 45.9692 71.5341 35.7469C70.4603 32.2045 74.2895 29.1479 77.4703 31.0507C82.8191 34.2287 87.1751 36.3339 92.0983 41.6779C101.155 51.4954 82.1505 55.7868 82.1505 55.7868Z" fill="#FFC145"/>
<path d="M70.3816 73.4166C68.4974 73.4166 66.6943 72.8498 65.1545 71.7769C53.2616 63.4978 46.1502 55.4819 45.6032 49.7735C45.4006 47.6278 46.13 45.806 47.8926 44.0045C49.5135 42.3446 51.6003 41.5349 54.2747 41.5349C60.2717 41.5349 69.0445 45.6239 78.9923 53.0325C80.9981 54.5305 82.2745 56.6964 82.5784 59.1862C82.9026 61.676 82.2137 64.1253 80.6537 66.0686L77.5336 69.9754C75.8114 72.1413 73.1978 73.4166 70.3816 73.4166Z" fill="#FFCACA"/>
<path d="M54.2936 45.5635C59.3587 45.5635 67.4831 49.45 76.6002 56.2514C77.7146 57.0814 78.4237 58.2959 78.606 59.6724C78.7884 61.0691 78.4034 62.4253 77.5322 63.5184L74.4121 67.4252C73.4396 68.66 71.9809 69.3482 70.4006 69.3482C69.347 69.3482 68.3543 69.0243 67.4831 68.4373C54.8406 59.6319 49.9781 52.8102 49.654 49.369C49.5932 48.8832 49.5121 48.114 50.7885 46.8185C51.3964 46.191 52.2878 45.5635 54.2936 45.5635ZM54.2936 37.4666C50.7683 37.4666 47.5671 38.5394 45.0143 41.1507C34.2358 52.1625 50.8493 66.7369 62.8435 75.0768C65.1329 76.6759 67.787 77.4451 70.4006 77.4451C74.2906 77.4451 78.14 75.7245 80.7536 72.4655L83.8737 68.5587C88.5336 62.729 87.4395 54.2069 81.4627 49.7536C73.6827 43.9846 63.0055 37.4666 54.2936 37.4666Z" fill="white"/>
<path d="M42.7486 135.726C42.7486 135.726 25.6291 152.738 33.6413 164.557C41.6536 176.375 56.0211 156.598 56.0211 156.598L70.5395 141.042L58.0686 121.342C58.0686 121.342 47.115 130.573 42.7486 135.726Z" fill="white"/>
<path fill-rule="evenodd" clip-rule="evenodd" d="M160.655 212.718C152.705 213.707 143.582 214.272 133.114 214.272C49.4788 214.272 51.9708 178.18 51.9708 178.18C51.9708 178.18 51.9708 153.024 52.6189 142.112L52.6214 142.109C52.6214 142.109 97.0119 136.826 106.17 169.699C110.747 186.132 121.592 188.387 132.652 190.687C143.717 192.987 154.996 195.332 160.427 211.965C160.51 212.22 160.586 212.471 160.655 212.718Z" fill="black"/>
<path fill-rule="evenodd" clip-rule="evenodd" d="M175.429 210.154C164.251 213.044 149.659 214.915 130.612 214.915C121.685 214.915 113.739 214.503 106.666 213.769L106.666 181.877C106.666 169.853 116.513 160.015 128.547 160.015L156.993 160.015C169.027 160.015 178.874 169.853 178.874 181.877L178.874 198.415C178.874 202.727 177.608 206.757 175.429 210.154Z" fill="#FFCACA"/>
<path d="M96.8797 123.355L92.625 123.355C87.6612 123.355 83.5889 119.306 83.5889 114.327C83.5889 109.367 87.6409 105.299 92.625 105.299L96.8797 105.299C101.843 105.299 105.916 109.347 105.916 114.327C105.916 119.306 101.843 123.355 96.8797 123.355Z" fill="#FFD2D2"/>
<path d="M196.906 123.355L192.651 123.355C187.688 123.355 183.615 119.306 183.615 114.327C183.615 109.367 187.667 105.299 192.651 105.299L196.906 105.299C201.87 105.299 205.942 109.347 205.942 114.327C205.942 119.306 201.87 123.355 196.906 123.355Z" fill="#FFD2D2"/>
<path fill-rule="evenodd" clip-rule="evenodd" d="M143.136 38.3787C143.132 38.7233 142.844 69.2857 170.001 69.2857C182.961 69.2857 188.07 77.9005 193.438 86.9541C197.539 93.8693 201.791 101.041 209.81 104.825C208.678 95.6967 207.46 87.9013 206.246 83.0091C201.404 63.536 186.451 48.172 167.143 42.6864L166.941 42.6257C159.134 40.4074 151.158 38.9915 143.136 38.3787Z" fill="black"/>
<rect x="97.8115" y="79" width="25" height="7" transform="rotate(15 97.8115 79)" fill="white"/>
<rect width="20.8702" height="4.06713" transform="matrix(-0.965926 0.258819 0.258819 0.965926 188.159 83)" fill="white"/>
</g>
<path d="M18.282 88.7628L23.1884 84.8735L7.13525 62.8224L0.432826 68.1354L18.282 88.7628ZM22.7609 96.5727C24.3786 98.6134 27.3476 99.1193 29.2751 97.5914C31.2026 96.0635 31.4314 93.0226 29.8138 90.9819C28.1585 88.8937 25.1456 88.4225 23.2182 89.9505C21.2907 91.4784 21.1056 94.4845 22.7609 96.5727Z" fill="#F4C25D"/>
<path d="M28.4127 80.1131L33.319 76.2239L17.2659 54.1728L10.5635 59.4858L28.4127 80.1131ZM32.8915 87.923C34.5092 89.9637 37.4782 90.4696 39.4057 88.9417C41.3332 87.4138 41.5621 84.373 39.9444 82.3322C38.2891 80.244 35.2763 79.7729 33.3488 81.3008C31.4213 82.8287 31.2362 85.8348 32.8915 87.923Z" fill="#F4C25D"/>
<path fill-rule="evenodd" clip-rule="evenodd" d="M246.166 9L343.664 77.6139L229.413 106.901L237.79 57.9504L246.166 9Z" fill="#FFC53D"/>
<circle cx="272" cy="66.0002" r="20.5" transform="rotate(13.9401 272 66.0002)" stroke="#E66560" stroke-width="5"/>
<path d="M288.84 56.2705L256.131 75.9708" stroke="#E66560" stroke-width="5"/>
<path d="M243.298 10.0527L221 134.682" stroke="#42637D" stroke-width="8" stroke-linecap="round"/>
<defs>
<clipPath id="clip0_1475_22693">
<rect width="322" height="183" fill="white" transform="translate(29)"/>
</clipPath>
</defs>
</svg>
