<svg width="83" height="83" viewBox="0 0 83 83" fill="none" xmlns="http://www.w3.org/2000/svg">
<path d="M78.3816 82.2559H3.87779C1.74127 82.2559 0.00415039 80.5236 0.00415039 78.3823V3.87364C0.00415039 1.73712 1.73646 0 3.87779 0H78.3865C80.523 0 82.2601 1.73231 82.2601 3.87364V78.3823C82.2553 80.5188 80.523 82.2559 78.3816 82.2559Z" fill="#173A52"/>
<path d="M17.486 82.2559H3.87779C1.74127 82.2559 0.00415039 80.5236 0.00415039 78.3823V3.87364C0.00415039 1.73712 1.73646 0 3.87779 0H17.486V82.2559Z" fill="#2A546B"/>
<path opacity="0.1" d="M73.0666 29.7084H28.32C27.2469 29.7084 26.3663 28.8278 26.3663 27.7547C26.3663 26.6817 27.2469 25.8011 28.32 25.8011H73.0666C74.1396 25.8011 75.0203 26.6817 75.0203 27.7547C75.0203 28.8278 74.1444 29.7084 73.0666 29.7084Z" fill="white"/>
<path opacity="0.1" d="M73.0666 22.2889H28.32C27.2469 22.2889 26.3663 21.4083 26.3663 20.3352C26.3663 19.2621 27.2469 18.3815 28.32 18.3815H73.0666C74.1396 18.3815 75.0203 19.2621 75.0203 20.3352C75.0203 21.4083 74.1444 22.2889 73.0666 22.2889Z" fill="white"/>
<path opacity="0.25" d="M35.9037 46.7916H28.32C27.2469 46.7916 26.3663 45.911 26.3663 44.8379C26.3663 43.7649 27.2469 42.8843 28.32 42.8843H35.9037C36.9767 42.8843 37.8573 43.7649 37.8573 44.8379C37.8573 45.9158 36.9767 46.7916 35.9037 46.7916Z" fill="white"/>
<path opacity="0.25" d="M69.802 46.7916H50.684C49.6109 46.7916 48.7303 45.911 48.7303 44.8379C48.7303 43.7649 49.6109 42.8843 50.684 42.8843H69.802C70.8751 42.8843 71.7556 43.7649 71.7556 44.8379C71.7556 45.9158 70.8751 46.7916 69.802 46.7916Z" fill="white"/>
<path d="M44.3004 46.7916H42.366C41.2929 46.7916 40.4124 45.911 40.4124 44.8379C40.4124 43.7649 41.2929 42.8843 42.366 42.8843H44.3004C45.3735 42.8843 46.2541 43.7649 46.2541 44.8379C46.2589 45.9158 45.3783 46.7916 44.3004 46.7916Z" fill="#F5C659"/>
<path d="M50.1935 38.2503H48.2591C47.186 38.2503 46.3054 37.3697 46.3054 36.2966C46.3054 35.2235 47.186 34.343 48.2591 34.343H50.1935C51.2666 34.343 52.1472 35.2235 52.1472 36.2966C52.152 37.3697 51.2714 38.2503 50.1935 38.2503Z" fill="#9165F5"/>
<path d="M35.9048 63.8786H34.0088C32.9358 63.8786 32.0552 62.998 32.0552 61.9249C32.0552 60.8518 32.9358 59.9713 34.0088 59.9713H35.9048C36.9778 59.9713 37.8584 60.8518 37.8584 61.9249C37.8584 62.998 36.9778 63.8786 35.9048 63.8786Z" fill="#9165F5"/>
<path opacity="0.25" d="M64.0477 38.2503H56.4207C55.3476 38.2503 54.467 37.3697 54.467 36.2966C54.467 35.2235 55.3476 34.343 56.4207 34.343H64.0477C65.1207 34.343 66.0013 35.2235 66.0013 36.2966C66.0061 37.3697 65.1256 38.2503 64.0477 38.2503Z" fill="white"/>
<path opacity="0.1" d="M73.0648 55.3324H42.4703C41.3972 55.3324 40.5166 54.4518 40.5166 53.3787C40.5166 52.3056 41.3972 51.425 42.4703 51.425H73.0648C74.1379 51.425 75.0185 52.3056 75.0185 53.3787C75.0185 54.4566 74.1427 55.3324 73.0648 55.3324Z" fill="white"/>
<path d="M35.9048 55.3324H34.0088C32.9358 55.3324 32.0552 54.4518 32.0552 53.3787C32.0552 52.3056 32.9358 51.425 34.0088 51.425H35.9048C36.9778 51.425 37.8584 52.3056 37.8584 53.3787C37.8584 54.4566 36.9778 55.3324 35.9048 55.3324Z" fill="#B5CF69"/>
<path opacity="0.1" d="M73.0616 63.8786H42.366C41.2929 63.8786 40.4124 62.998 40.4124 61.9249C40.4124 60.8518 41.2929 59.9713 42.366 59.9713H73.0616C74.1347 59.9713 75.0153 60.8518 75.0153 61.9249C75.0153 62.998 74.1395 63.8786 73.0616 63.8786Z" fill="white"/>
<path d="M41.8084 38.2503H34.1044C33.0313 38.2503 32.1508 37.3697 32.1508 36.2966C32.1508 35.2235 33.0313 34.343 34.1044 34.343H41.8084C42.8815 34.343 43.7621 35.2235 43.7621 36.2966C43.7669 37.3697 42.8863 38.2503 41.8084 38.2503Z" fill="#E66560"/>
<path opacity="0.1" d="M11.3249 29.7084H5.43022C4.35715 29.7084 3.47656 28.8278 3.47656 27.7547C3.47656 26.6817 4.35715 25.8011 5.43022 25.8011H11.3249C12.398 25.8011 13.2786 26.6817 13.2786 27.7547C13.2834 28.8278 12.4028 29.7084 11.3249 29.7084Z" fill="white"/>
<path opacity="0.1" d="M11.3249 22.2889H5.43022C4.35715 22.2889 3.47656 21.4083 3.47656 20.3352C3.47656 19.2621 4.35715 18.3815 5.43022 18.3815H11.3249C12.398 18.3815 13.2786 19.2621 13.2786 20.3352C13.2834 21.4083 12.4028 22.2889 11.3249 22.2889Z" fill="white"/>
<path opacity="0.25" d="M9.35145 51.425H5.4345C4.36143 51.425 3.48083 52.3056 3.48083 53.3787C3.48083 54.4518 4.36143 55.3324 5.4345 55.3324H9.35145C10.4245 55.3324 11.3051 54.4518 11.3051 53.3787C11.3051 52.3056 10.4245 51.425 9.35145 51.425Z" fill="white"/>
<path d="M12.7761 34.343H9.30669C8.23362 34.343 7.35303 35.2235 7.35303 36.2966C7.35303 37.3697 8.23362 38.2503 9.30669 38.2503H12.7761C13.8492 38.2503 14.7298 37.3697 14.7298 36.2966C14.7298 35.2235 13.8492 34.343 12.7761 34.343Z" fill="#9165F5"/>
<path d="M12.7761 42.8843H9.30669C8.23362 42.8843 7.35303 43.7649 7.35303 44.8379C7.35303 45.911 8.23362 46.7916 9.30669 46.7916H12.7761C13.8492 46.7916 14.7298 45.911 14.7298 44.8379C14.7298 43.7649 13.8492 42.8843 12.7761 42.8843Z" fill="#B5CF69"/>
<path d="M13.375 59.9669H9.37627C8.3032 59.9669 7.42261 60.8475 7.42261 61.9206C7.42261 62.9937 8.3032 63.8742 9.37627 63.8742H13.375C14.4481 63.8742 15.3287 62.9937 15.3287 61.9206C15.3287 60.8475 14.4529 59.9669 13.375 59.9669Z" fill="#E66560"/>
</svg>
