<svg width="83" height="83" viewBox="0 0 83 83" fill="none" xmlns="http://www.w3.org/2000/svg">
<path d="M78.3775 82.2512H3.87364C1.73712 82.2512 0 80.5188 0 78.3775V3.87364C0 1.73712 1.73231 0 3.87364 0H78.3823C80.5188 0 82.2559 1.73231 82.2559 3.87364V78.3823C82.2511 80.5189 80.5188 82.2512 78.3775 82.2512Z" fill="#9BE1DA"/>
<path d="M43.1681 68.6662C58.3801 68.6662 70.7118 56.3344 70.7118 41.1224C70.7118 25.9104 58.3801 13.5787 43.1681 13.5787C27.9561 13.5787 15.6243 25.9104 15.6243 41.1224C15.6243 56.3344 27.9561 68.6662 43.1681 68.6662Z" fill="#BEEBE7"/>
<rect x="40.184" y="53.3649" width="4.84746" height="5.22034" rx="2.42373" fill="#564A59"/>
<rect x="38.6924" y="46.094" width="7.64407" height="10.6271" rx="3.82203" fill="#847886"/>
<path fill-rule="evenodd" clip-rule="evenodd" d="M49.3807 43.2047C51.9544 41.1913 53.6086 38.0567 53.6086 34.5357C53.6086 28.4606 48.6838 23.5357 42.6086 23.5357C36.5335 23.5357 31.6086 28.4606 31.6086 34.5357C31.6086 38.0567 33.2629 41.1913 35.8366 43.2047H35.8012C36.3605 43.764 37.4791 45.3114 37.4791 47.0267V47.8657C37.4791 48.5182 37.9266 49.264 38.9707 49.264H42.4198H46.2418C47.2859 49.264 47.7334 48.5182 47.7334 47.8657V47.0267C47.7334 45.3114 48.852 43.764 49.4113 43.2047H49.3807Z" fill="#FFB93E"/>
<rect x="37.7593" y="50.3832" width="9.69492" height="2.05085" rx="1.02542" fill="#C2B8C2"/>
<rect x="37.7593" y="53.3649" width="9.69492" height="2.05085" rx="1.02542" fill="#C2B8C2"/>
<path d="M40.3743 28.3476C39.1139 28.6341 36.4899 30.0663 36.0774 33.5038" stroke="white" stroke-width="2" stroke-linecap="round" stroke-linejoin="round"/>
</svg>
