<svg width="1280" height="491" viewBox="0 0 1280 491" fill="none" xmlns="http://www.w3.org/2000/svg">
<g clip-path="url(#clip0_626_700)">
<rect width="1280" height="491" rx="10" fill="#123041"/>
<path d="M1061 423H219C213.477 423 209 427.477 209 433V504C209 509.523 213.477 514 219 514H1061C1066.52 514 1071 509.523 1071 504V433C1071 427.477 1066.52 423 1061 423Z" fill="white"/>
<g opacity="0.48">
<path opacity="0.5" d="M947.443 522.202H713.805L804.938 0H924.66L947.443 522.202Z" fill="#F6CBCA"/>
<path opacity="0.5" d="M820.273 522.202H586.641L654.991 0H774.706L820.273 522.202Z" fill="#F9E37E"/>
<path opacity="0.5" d="M694.109 522.202H460.477L506.043 0H625.759L694.109 522.202Z" fill="#9EE7E5"/>
<path opacity="0.5" d="M566.638 522.202H333L355.783 0H475.505L566.638 522.202Z" fill="#A7D157"/>
</g>
<rect x="66" width="1148" height="277" fill="url(#paint0_linear_626_700)"/>
<path d="M631.193 381.182C631.193 381.182 638.962 393.004 632.95 398.791C626.937 404.578 621.099 391.546 621.099 391.546L616.838 384.177L624.156 371.11C624.156 371.11 629.313 377.714 631.193 381.182Z" fill="#EEEEEE"/>
<path d="M603.309 412.358H619.286V419.317C619.286 420.323 618.886 421.288 618.175 422C617.463 422.711 616.498 423.111 615.492 423.111H607.109C606.103 423.111 605.138 422.711 604.426 422C603.714 421.288 603.315 420.323 603.315 419.317V412.358H603.309Z" fill="#EEEEEE"/>
<path d="M543.212 412.358H559.273V419.3C559.273 420.312 558.871 421.283 558.155 421.999C557.44 422.714 556.469 423.117 555.457 423.117H547.012C546 423.117 545.029 422.714 544.313 421.999C543.597 421.283 543.195 420.312 543.195 419.3V412.358H543.212Z" fill="black"/>
<path d="M602.165 334.068C602.165 334.068 623.153 317.556 630.471 326.626C638.859 337.046 611.663 348.649 611.663 348.649L602.165 334.068Z" fill="#F6CBCA"/>
<path d="M624.172 328.646C625.99 328.646 626.508 329.288 626.756 329.598C627.403 330.397 627.358 330.853 627.251 331.286C626.688 333.488 621.97 338.323 613.374 342.624L608.606 335.278C613.408 332.091 619.944 328.652 624.172 328.652V328.646ZM624.172 323.912C615.085 323.912 602.165 334.073 602.165 334.073L611.64 348.654C611.64 348.654 638.837 337.051 630.449 326.631C628.872 324.677 626.671 323.912 624.172 323.912Z" fill="black"/>
<path d="M609.554 329.006C611.687 325.956 613.319 322.584 614.389 319.019C614.531 318.562 614.531 318.073 614.389 317.616C614.248 317.158 613.971 316.755 613.597 316.457C613.222 316.16 612.766 315.982 612.289 315.948C611.811 315.914 611.335 316.025 610.922 316.266C607.792 318.135 603.716 320.888 600.839 324.013C595.536 329.761 609.554 329.006 609.554 329.006Z" fill="#F4C25D"/>
<path d="M605.02 420.258C601.616 421.13 598.157 421.771 594.667 422.178C589.329 422.823 583.955 423.132 578.578 423.101C573.904 423.122 569.232 422.897 564.583 422.426C529.96 418.839 531.131 401.99 531.131 401.99C531.131 401.99 531.131 387.263 531.514 380.873C532.032 372.046 533.287 358.98 536.277 346.786C537.659 341.177 540.496 336.033 544.502 331.872C548.509 327.71 553.542 324.679 559.094 323.085C567.153 320.771 575.56 319.913 583.92 320.552C588.625 320.911 593.281 321.741 597.82 323.029L597.938 323.063C603.49 324.637 608.527 327.649 612.542 331.794C616.558 335.938 619.408 341.069 620.806 346.668C621.724 350.886 622.415 355.15 622.877 359.441C624.701 374.078 626.137 394.525 626.137 401.99C626.159 402.001 626.942 414.516 605.02 420.258Z" fill="white"/>
<path d="M594.667 422.188C589.329 422.833 583.955 423.142 578.578 423.111C573.904 423.132 569.232 422.906 564.583 422.435C529.96 418.849 531.131 402 531.131 402C531.131 402 531.131 387.273 531.514 380.883C531.514 380.883 557.472 377.792 562.826 397.035C563.267 398.699 563.93 400.298 564.796 401.786C571.963 413.884 588.824 404.212 594.549 421.771C594.598 421.907 594.638 422.046 594.667 422.188V422.188Z" fill="black"/>
<path d="M622.902 359.452C612.087 354.329 612.999 338.656 599.634 338.656C583.674 338.656 583.922 320.562 583.922 320.562C588.626 320.922 593.283 321.752 597.822 323.04L597.94 323.073C603.491 324.648 608.529 327.66 612.544 331.804C616.559 335.949 619.41 341.08 620.807 346.678C621.733 350.896 622.432 355.16 622.902 359.452V359.452Z" fill="black"/>
<path d="M606.824 404.094V413.766C606.826 416.051 606.207 418.295 605.034 420.257V420.257C598.469 421.946 589.867 423.071 578.574 423.071C573.901 423.092 569.229 422.867 564.579 422.396V404.094C564.575 403.319 564.647 402.546 564.793 401.786C565.34 398.846 566.896 396.189 569.194 394.274C571.491 392.359 574.385 391.306 577.375 391.298H594.011C597.404 391.304 600.657 392.653 603.058 395.051C605.46 397.449 606.813 400.701 606.824 404.094V404.094Z" fill="#F6CBCA"/>
<path d="M606.822 359.75C609.729 359.75 612.086 357.394 612.086 354.487C612.086 351.58 609.729 349.223 606.822 349.223C603.915 349.223 601.558 351.58 601.558 354.487C601.558 357.394 603.915 359.75 606.822 359.75Z" fill="black"/>
<path d="M564.574 359.75C567.481 359.75 569.837 357.394 569.837 354.487C569.837 351.58 567.481 349.223 564.574 349.223C561.667 349.223 559.31 351.58 559.31 354.487C559.31 357.394 561.667 359.75 564.574 359.75Z" fill="black"/>
<path d="M603.307 368.263C603.307 361.907 597.807 354.488 585.681 354.488C573.555 354.488 568.229 361.907 568.229 368.263C568.229 374.619 573.521 377.518 585.681 377.518C597.841 377.518 603.307 374.625 603.307 368.263Z" fill="#F6CBCA"/>
<path d="M582.184 367.868C583.182 367.868 583.991 366.766 583.991 365.408C583.991 364.049 583.182 362.947 582.184 362.947C581.186 362.947 580.377 364.049 580.377 365.408C580.377 366.766 581.186 367.868 582.184 367.868Z" fill="black"/>
<path d="M592.74 367.868C593.738 367.868 594.547 366.766 594.547 365.408C594.547 364.049 593.738 362.947 592.74 362.947C591.742 362.947 590.933 364.049 590.933 365.408C590.933 366.766 591.742 367.868 592.74 367.868Z" fill="black"/>
<path d="M549.027 330.751C549.027 330.751 544.631 325.004 542.835 319.019C542.694 318.562 542.694 318.073 542.835 317.616C542.977 317.158 543.253 316.755 543.628 316.457C544.002 316.16 544.458 315.982 544.936 315.948C545.413 315.914 545.889 316.025 546.303 316.266C549.433 318.135 551.983 319.363 554.86 322.459C560.146 328.235 549.027 330.751 549.027 330.751Z" fill="#F4C25D"/>
<path d="M550.01 338.239C550.656 337.43 551.133 336.5 551.413 335.503C551.693 334.506 551.769 333.463 551.638 332.436C551.506 331.409 551.17 330.418 550.649 329.524C550.128 328.629 549.432 327.848 548.603 327.228C542.236 322.482 532.491 316.875 527.295 322.161C520.99 328.601 530.712 337.142 537.726 342.028C539.339 343.151 541.318 343.617 543.262 343.333C545.206 343.048 546.969 342.034 548.192 340.497L550.01 338.239Z" fill="#F6CBCA"/>
<path d="M532.727 324.774C535.683 324.774 540.434 327.054 545.766 331.028C546.086 331.265 546.354 331.564 546.556 331.907C546.757 332.251 546.887 332.632 546.936 333.027C546.988 333.425 546.959 333.83 546.851 334.217C546.742 334.604 546.557 334.965 546.306 335.278L544.482 337.564C544.008 338.157 543.326 338.549 542.575 338.658C541.823 338.768 541.058 338.588 540.434 338.155C533.037 332.998 530.194 329.013 530.008 326.997C530.008 326.699 529.935 326.254 530.678 325.494C530.946 325.23 531.268 325.028 531.622 324.903C531.976 324.777 532.353 324.731 532.727 324.768V324.774ZM532.727 320.028C531.723 319.994 530.722 320.167 529.787 320.537C528.853 320.907 528.004 321.466 527.295 322.178C520.99 328.619 530.712 337.159 537.726 342.045C539.339 343.167 541.318 343.632 543.262 343.348C545.205 343.064 546.968 342.05 548.192 340.514L550.01 338.234C550.656 337.425 551.133 336.494 551.413 335.497C551.693 334.5 551.769 333.457 551.638 332.43C551.506 331.403 551.17 330.413 550.649 329.518C550.128 328.624 549.432 327.843 548.603 327.222C544.099 323.845 537.822 320.028 532.727 320.028V320.028Z" fill="white"/>
<path d="M525.579 381.447C525.579 381.447 518.171 393.472 524.352 399.102C530.534 404.731 535.983 391.507 535.983 391.507L542.086 380.665L532.324 371.167C532.324 371.167 527.358 377.923 525.579 381.447Z" fill="white"/>
<path d="M590.936 413.744C590.622 413.743 590.32 413.618 590.098 413.395L584.817 408.114C584.593 407.89 584.467 407.586 584.467 407.27C584.467 406.953 584.593 406.649 584.817 406.425C585.041 406.201 585.345 406.075 585.662 406.075C585.978 406.075 586.282 406.201 586.506 406.425L591.787 411.706C591.95 411.872 592.061 412.083 592.106 412.312C592.151 412.542 592.127 412.779 592.037 412.994C591.948 413.21 591.796 413.394 591.603 413.525C591.409 413.655 591.181 413.725 590.948 413.727L590.936 413.744Z" fill="#EF928F"/>
<path d="M585.652 413.744C585.337 413.743 585.036 413.617 584.813 413.395C584.701 413.285 584.612 413.153 584.551 413.008C584.49 412.863 584.458 412.708 584.458 412.55C584.458 412.393 584.49 412.237 584.551 412.092C584.612 411.947 584.701 411.816 584.813 411.706L590.094 406.425C590.318 406.201 590.622 406.075 590.938 406.075C591.255 406.075 591.559 406.201 591.783 406.425C592.007 406.649 592.132 406.953 592.132 407.27C592.132 407.586 592.007 407.89 591.783 408.114L586.502 413.395C586.391 413.506 586.258 413.595 586.112 413.655C585.966 413.715 585.81 413.745 585.652 413.744Z" fill="#EF928F"/>
<path d="M557.644 359.75H555.161C552.245 359.75 549.88 362.113 549.88 365.028C549.88 367.942 552.245 370.305 555.161 370.305H557.644C560.56 370.305 562.924 367.942 562.924 365.028C562.924 362.113 560.56 359.75 557.644 359.75Z" fill="#F7D3D2"/>
<path d="M616.13 359.75H613.647C610.731 359.75 608.367 362.113 608.367 365.028C608.367 367.942 610.731 370.305 613.647 370.305H616.13C619.046 370.305 621.411 367.942 621.411 365.028C621.411 362.113 619.046 359.75 616.13 359.75Z" fill="#F7D3D2"/>
<path d="M772.196 381.182C772.196 381.182 764.433 393.004 770.44 398.791C776.447 404.578 782.296 391.546 782.296 391.546L786.552 384.177L779.233 371.11C779.233 371.11 774.076 377.714 772.196 381.182Z" fill="#EEEEEE"/>
<path d="M861.327 423.118H852.804C851.781 423.118 850.8 422.712 850.077 421.989C849.354 421.266 848.947 420.285 848.947 419.262V412.563H865.183V419.262C865.183 420.285 864.777 421.266 864.054 421.989C863.33 422.712 862.35 423.118 861.327 423.118V423.118Z" fill="white"/>
<path d="M794.709 423.118H786.394C785.395 423.118 784.437 422.722 783.731 422.015C783.025 421.309 782.628 420.351 782.628 419.352V412.557H798.481V419.352C798.481 419.847 798.383 420.337 798.194 420.795C798.004 421.252 797.726 421.668 797.376 422.017C797.025 422.367 796.61 422.644 796.152 422.833C795.694 423.022 795.204 423.119 794.709 423.118V423.118Z" fill="#EEEEEE"/>
<path d="M844.287 323.096C831.631 319.46 818.209 319.442 805.544 323.045L805.431 323.079C799.879 324.651 794.841 327.661 790.826 331.805C786.81 335.949 783.96 341.08 782.564 346.679C779.907 357.375 777.232 391.794 777.232 402.001C777.232 402.001 775.91 423.118 824.82 423.118C873.73 423.118 872.255 402.001 872.255 402.001C872.255 402.001 872.255 387.274 871.878 380.884C871.349 372.057 870.093 358.985 867.109 346.797C865.73 341.186 862.893 336.039 858.885 331.878C854.877 327.716 849.842 324.686 844.287 323.096V323.096Z" fill="#F1F1F1"/>
<path d="M844.287 323.096C831.631 319.46 818.209 319.442 805.544 323.045L805.431 323.079C799.879 324.651 794.841 327.661 790.826 331.805C786.81 335.949 783.96 341.08 782.564 346.679C779.907 357.375 777.232 391.794 777.232 402.001C777.232 402.001 775.91 423.118 824.82 423.118C873.73 423.118 872.255 402.001 872.255 402.001C872.255 402.001 872.255 387.274 871.878 380.884C871.349 372.057 870.093 358.985 867.109 346.797C865.73 341.186 862.893 336.039 858.885 331.878C854.877 327.716 849.842 324.686 844.287 323.096V323.096Z" fill="white"/>
<path d="M843.159 372.694H848.479C851.399 372.694 853.766 370.327 853.766 367.407V367.402C853.766 364.482 851.399 362.116 848.479 362.116H843.159C840.24 362.116 837.873 364.482 837.873 367.402V367.407C837.873 370.327 840.24 372.694 843.159 372.694Z" fill="#F7D3D2"/>
<path d="M787.145 372.694H792.465C795.384 372.694 797.751 370.327 797.751 367.407V367.402C797.751 364.482 795.384 362.116 792.465 362.116H787.145C784.225 362.116 781.858 364.482 781.858 367.402V367.407C781.858 370.327 784.225 372.694 787.145 372.694Z" fill="#F7D3D2"/>
<path d="M796.567 359.75C799.474 359.75 801.831 357.394 801.831 354.487C801.831 351.58 799.474 349.223 796.567 349.223C793.66 349.223 791.303 351.58 791.303 354.487C791.303 357.394 793.66 359.75 796.567 359.75Z" fill="black"/>
<path d="M838.807 359.75C841.714 359.75 844.07 357.394 844.07 354.487C844.07 351.58 841.714 349.223 838.807 349.223C835.899 349.223 833.543 351.58 833.543 354.487C833.543 357.394 835.899 359.75 838.807 359.75Z" fill="black"/>
<path d="M835.211 324.684C834.382 324.478 833.665 323.957 833.214 323.232C832.762 322.507 832.61 321.635 832.79 320.8C834.231 314.258 838.358 299.857 846.616 301.04C856.367 302.436 851.351 318.548 848.868 325.084C848.569 325.829 848.015 326.443 847.304 326.817C846.593 327.19 845.773 327.298 844.989 327.122L835.211 324.684Z" fill="#F7D3D2"/>
<path d="M845.766 330.172C847.043 330.17 848.289 329.783 849.342 329.06C850.394 328.338 851.204 327.315 851.666 326.125C854.514 318.558 857.177 308.301 853.687 302.407C852.986 301.225 852.022 300.222 850.868 299.475C849.714 298.729 848.403 298.26 847.038 298.106C839.354 296.98 833.268 304.861 829.896 320.163C829.536 321.752 829.817 323.42 830.678 324.803C831.539 326.187 832.91 327.176 834.495 327.555V327.555L844.302 329.998C844.781 330.114 845.273 330.173 845.766 330.172ZM845.721 303.938C845.881 303.938 846.041 303.95 846.199 303.972C846.687 303.999 847.16 304.145 847.578 304.398C847.995 304.652 848.344 305.004 848.592 305.424C850.281 308.312 849.358 315.445 846.121 324.042C846.078 324.105 846.02 324.158 845.952 324.194C845.885 324.23 845.809 324.249 845.732 324.25L835.954 321.807C835.873 321.788 835.803 321.739 835.758 321.669C835.713 321.6 835.696 321.516 835.711 321.435C837.49 313.238 841.167 303.938 845.721 303.938V303.938Z" fill="white"/>
<path d="M812.874 325.381C813.704 325.176 814.421 324.656 814.873 323.93C815.325 323.205 815.476 322.332 815.295 321.496C813.859 314.961 809.732 300.554 801.468 301.737C791.723 303.133 796.734 319.245 799.216 325.786C799.5 326.541 800.051 327.166 800.765 327.542C801.479 327.917 802.306 328.018 803.089 327.824L812.874 325.381Z" fill="#F7D3D2"/>
<path d="M802.243 330.883C802.752 330.885 803.259 330.822 803.752 330.697L813.559 328.259C815.145 327.88 816.518 326.891 817.379 325.506C818.24 324.121 818.52 322.452 818.158 320.862C814.781 305.544 808.712 297.707 801.022 298.811C799.655 298.963 798.343 299.431 797.188 300.177C796.033 300.924 795.068 301.928 794.368 303.112C790.883 309 793.546 319.263 796.389 326.829C796.838 328.019 797.639 329.044 798.685 329.767C799.731 330.491 800.972 330.88 802.243 330.883V330.883ZM802.339 304.637C806.893 304.637 810.57 313.937 812.371 322.134C812.386 322.216 812.37 322.301 812.325 322.371C812.28 322.441 812.21 322.491 812.129 322.511V322.511L802.322 324.949C802.243 324.969 802.159 324.959 802.088 324.92C802.016 324.882 801.961 324.818 801.934 324.741C798.702 316.15 797.757 309.017 799.468 306.129C799.715 305.707 800.062 305.352 800.48 305.098C800.898 304.843 801.372 304.697 801.861 304.671C802.019 304.649 802.179 304.637 802.339 304.637V304.637Z" fill="white"/>
<path d="M800.24 418.507H835.132C840.07 418.507 844.072 414.504 844.072 409.567V389.824C844.072 384.887 840.07 380.884 835.132 380.884H800.24C795.302 380.884 791.3 384.887 791.3 389.824V409.567C791.3 414.504 795.302 418.507 800.24 418.507Z" fill="#F3F3F3"/>
<path d="M878.959 384.166C878.959 384.166 889.728 375.035 885.602 367.767C881.475 360.5 872.186 371.376 872.186 371.376L866.027 377.248L869.36 391.845C869.36 391.845 876.172 386.97 878.959 384.166Z" fill="white"/>
<path d="M812.453 413.744C812.768 413.743 813.07 413.618 813.292 413.395L818.573 408.114C818.797 407.89 818.922 407.586 818.922 407.27C818.922 406.953 818.797 406.649 818.573 406.425C818.349 406.201 818.045 406.075 817.728 406.075C817.411 406.075 817.108 406.201 816.884 406.425L811.603 411.706C811.439 411.872 811.328 412.083 811.284 412.312C811.239 412.542 811.263 412.779 811.353 412.994C811.442 413.21 811.593 413.394 811.787 413.525C811.981 413.655 812.208 413.725 812.442 413.727L812.453 413.744Z" fill="#F7D3D2"/>
<path d="M817.733 413.745C817.967 413.743 818.195 413.673 818.389 413.543C818.582 413.412 818.733 413.228 818.823 413.012C818.912 412.797 818.936 412.559 818.892 412.33C818.847 412.101 818.736 411.89 818.572 411.724L813.292 406.443C813.068 406.219 812.764 406.093 812.447 406.093C812.131 406.093 811.827 406.219 811.603 406.443C811.379 406.667 811.253 406.971 811.253 407.287C811.253 407.604 811.379 407.908 811.603 408.132L816.883 413.412C816.996 413.521 817.129 413.606 817.275 413.663C817.421 413.72 817.577 413.748 817.733 413.745Z" fill="#F7D3D2"/>
<path d="M815.623 361.32L821.636 358.257C821.916 358.115 822.128 357.867 822.225 357.568C822.322 357.269 822.296 356.944 822.154 356.664C822.011 356.384 821.763 356.173 821.464 356.075C821.166 355.978 820.84 356.004 820.561 356.146L815.606 358.668L810.202 355.983C809.921 355.844 809.595 355.821 809.297 355.922C809 356.022 808.754 356.236 808.614 356.518C808.475 356.799 808.453 357.125 808.553 357.422C808.653 357.72 808.868 357.966 809.149 358.105L815.623 361.32Z" fill="#F7D3D2"/>
<path d="M819.143 368.229C820.358 368.275 821.548 367.875 822.487 367.103C822.703 366.892 822.831 366.607 822.844 366.305C822.857 366.003 822.754 365.707 822.557 365.478C822.359 365.25 822.082 365.104 821.782 365.073C821.481 365.041 821.18 365.125 820.939 365.308C820.429 365.708 819.791 365.909 819.143 365.871C818.839 365.901 818.531 365.865 818.242 365.766C817.953 365.667 817.688 365.507 817.466 365.296C817.244 365.086 817.069 364.83 816.955 364.547C816.84 364.263 816.788 363.958 816.801 363.652V360.01C816.813 359.848 816.79 359.685 816.736 359.531C816.681 359.378 816.596 359.237 816.485 359.118C816.374 358.999 816.239 358.904 816.09 358.839C815.94 358.774 815.779 358.74 815.616 358.74C815.453 358.74 815.292 358.774 815.143 358.839C814.994 358.904 814.859 358.999 814.748 359.118C814.637 359.237 814.551 359.378 814.497 359.531C814.442 359.685 814.42 359.848 814.431 360.01V363.664C814.449 364.447 814.641 365.216 814.994 365.916C815.392 366.658 815.994 367.271 816.729 367.681C817.465 368.091 818.303 368.282 819.143 368.229V368.229Z" fill="#F7D3D2"/>
<path d="M811.833 368.229C815.419 368.229 816.765 365.505 816.798 363.675C816.801 363.519 816.774 363.364 816.717 363.22C816.66 363.075 816.574 362.942 816.466 362.83C816.358 362.718 816.229 362.629 816.086 362.567C815.943 362.505 815.789 362.472 815.633 362.47C815.322 362.47 815.023 362.59 814.799 362.805C814.574 363.02 814.441 363.314 814.428 363.624C814.428 364.148 814.164 365.876 811.833 365.876C811.182 365.922 810.537 365.721 810.026 365.313C809.789 365.124 809.489 365.032 809.187 365.056C808.885 365.081 808.604 365.22 808.401 365.445C808.198 365.67 808.088 365.965 808.096 366.268C808.103 366.571 808.225 366.86 808.438 367.075C809.383 367.875 810.596 368.288 811.833 368.229V368.229Z" fill="#F7D3D2"/>
<path d="M648.855 381.182C648.855 381.182 641.092 393.004 647.098 398.791C653.105 404.578 658.954 391.546 658.954 391.546L663.21 384.177L655.892 371.11C655.892 371.11 650.741 377.714 648.855 381.182Z" fill="#EAD576"/>
<path d="M718.256 423.118H743.556C744.358 423.118 745.008 422.468 745.008 421.666V418.463C745.008 417.661 744.358 417.01 743.556 417.01H718.256C717.454 417.01 716.804 417.661 716.804 418.463V421.666C716.804 422.468 717.454 423.118 718.256 423.118Z" fill="#F4BD61"/>
<path d="M655.469 423.118H680.143C680.946 423.118 681.596 422.468 681.596 421.666V418.463C681.596 417.661 680.946 417.01 680.143 417.01H655.469C654.667 417.01 654.016 417.661 654.016 418.463V421.666C654.016 422.468 654.667 423.118 655.469 423.118Z" fill="#F4BD61"/>
<path d="M720.942 323.096C708.286 319.46 694.865 319.442 682.199 323.045L682.087 323.079C676.534 324.651 671.495 327.662 667.479 331.805C663.463 335.949 660.612 341.08 659.214 346.679C656.556 357.375 653.882 391.794 653.882 402.001C653.882 402.001 652.565 423.118 701.469 423.118C750.374 423.118 748.91 402.001 748.91 402.001C748.91 402.001 748.91 387.274 748.528 380.884C748.004 372.057 746.749 358.985 743.765 346.797C742.383 341.187 739.545 336.042 735.538 331.88C731.531 327.718 726.496 324.688 720.942 323.096V323.096Z" fill="#F1F1F1"/>
<path d="M720.942 323.096C708.286 319.46 694.865 319.442 682.199 323.045L682.087 323.079C676.534 324.651 671.495 327.662 667.479 331.805C663.463 335.949 660.612 341.08 659.214 346.679C656.556 357.375 653.882 391.794 653.882 402.001C653.882 402.001 652.565 423.118 701.469 423.118C750.374 423.118 748.91 402.001 748.91 402.001C748.91 402.001 748.91 387.274 748.528 380.884C748.004 372.057 746.749 358.985 743.765 346.797C742.383 341.187 739.545 336.042 735.538 331.88C731.531 327.718 726.496 324.688 720.942 323.096V323.096Z" fill="#F9E37E"/>
<path d="M673.225 359.75C676.132 359.75 678.489 357.394 678.489 354.487C678.489 351.58 676.132 349.223 673.225 349.223C670.318 349.223 667.962 351.58 667.962 354.487C667.962 357.394 670.318 359.75 673.225 359.75Z" fill="black"/>
<path d="M715.474 359.75C718.381 359.75 720.738 357.394 720.738 354.487C720.738 351.58 718.381 349.223 715.474 349.223C712.567 349.223 710.21 351.58 710.21 354.487C710.21 357.394 712.567 359.75 715.474 359.75Z" fill="black"/>
<path d="M755.089 383.699C755.089 383.699 762.83 395.521 756.812 401.308C750.794 407.096 744.99 394.04 744.99 394.04L740.751 386.666L748.069 373.611C748.069 373.611 753.192 380.225 755.089 383.699Z" fill="#F9E37E"/>
<path d="M689.117 413.744C689.432 413.743 689.734 413.618 689.956 413.395L695.231 408.114C695.455 407.89 695.581 407.586 695.581 407.27C695.581 406.953 695.455 406.649 695.231 406.425C695.007 406.201 694.703 406.075 694.387 406.075C694.07 406.075 693.766 406.201 693.542 406.425L688.262 411.706C688.098 411.872 687.987 412.083 687.942 412.312C687.898 412.542 687.922 412.779 688.011 412.994C688.101 413.21 688.252 413.394 688.445 413.525C688.639 413.655 688.867 413.725 689.1 413.727L689.117 413.744Z" fill="#F4BD61"/>
<path d="M694.386 413.745C694.695 413.739 694.99 413.611 695.208 413.39C695.321 413.281 695.412 413.15 695.474 413.005C695.536 412.86 695.567 412.704 695.567 412.546C695.567 412.388 695.536 412.232 695.474 412.087C695.412 411.942 695.321 411.811 695.208 411.701L689.933 406.421C689.709 406.197 689.405 406.071 689.088 406.071C688.771 406.071 688.468 406.197 688.244 406.421C688.02 406.645 687.894 406.949 687.894 407.265C687.894 407.582 688.02 407.886 688.244 408.11L693.524 413.39C693.636 413.505 693.771 413.595 693.919 413.656C694.067 413.717 694.226 413.747 694.386 413.745V413.745Z" fill="#F4BD61"/>
<path d="M722.757 377.428C727.262 377.428 730.914 373.776 730.914 369.271C730.914 364.765 727.262 361.113 722.757 361.113C718.252 361.113 714.599 364.765 714.599 369.271C714.599 373.776 718.252 377.428 722.757 377.428Z" fill="#F1A361"/>
<path d="M666.293 377.428C670.799 377.428 674.451 373.776 674.451 369.271C674.451 364.765 670.799 361.113 666.293 361.113C661.788 361.113 658.136 364.765 658.136 369.271C658.136 373.776 661.788 377.428 666.293 377.428Z" fill="#F1A361"/>
<path d="M686.438 369.14H699.477C701.268 369.14 702.987 368.428 704.254 367.161C705.52 365.894 706.232 364.176 706.232 362.384C706.232 358.68 696.662 356.192 692.98 356.192C689.27 356.192 679.722 358.658 679.722 362.384C679.722 364.169 680.429 365.882 681.687 367.147C682.945 368.413 684.654 369.13 686.438 369.14Z" fill="#F4BD61"/>
<path d="M703.092 320.404C703.092 320.404 702.585 313.035 698.025 308.21C697.915 308.098 697.776 308.019 697.623 307.983C697.47 307.946 697.31 307.953 697.161 308.003C697.012 308.053 696.88 308.144 696.78 308.265C696.68 308.386 696.616 308.533 696.596 308.689C696.117 312.14 695.057 315.484 693.46 318.58C692.694 320.066 690.701 321.204 689.046 321.457" fill="#F9E37E"/>
<path d="M694.711 320.703C698.312 318.143 701.32 314.839 703.533 311.015C703.609 310.877 703.723 310.763 703.862 310.687C704 310.612 704.157 310.577 704.315 310.587C704.472 310.597 704.623 310.651 704.751 310.744C704.879 310.837 704.978 310.964 705.036 311.11C705.593 313.018 705.902 314.99 705.953 316.977C706.005 317.923 706.384 318.821 707.025 319.52C707.665 320.218 708.528 320.672 709.466 320.805" fill="#F9E37E"/>
<path d="M475.015 412.358H491.144V419.283C491.144 420.3 490.74 421.275 490.021 421.994C489.302 422.713 488.327 423.117 487.31 423.117H478.866C477.849 423.117 476.874 422.713 476.155 421.994C475.436 421.275 475.032 420.3 475.032 419.283V412.358H475.015Z" fill="#609847"/>
<path d="M505.31 387.494C505.31 387.494 512.425 399.693 506.115 405.177C499.804 410.66 494.67 397.295 494.67 397.295L490.813 389.712L498.813 377.057C498.813 377.057 503.615 383.919 505.31 387.494Z" fill="#609847"/>
<path d="M410.281 377.157C410.281 377.157 396.055 426.821 459.444 423.117C513.309 419.964 498.79 377.145 498.79 377.145C501.347 374.719 503.289 371.718 504.457 368.392C505.624 365.066 505.983 361.51 505.503 358.017C505.024 354.525 503.719 351.197 501.698 348.309C499.677 345.421 496.997 343.055 493.881 341.408V341.375C494.255 340.033 494.444 338.647 494.444 337.254C494.445 333.666 493.218 330.186 490.968 327.392C488.717 324.597 485.579 322.657 482.073 321.893C478.568 321.129 474.906 321.587 471.697 323.191C468.488 324.796 465.925 327.45 464.432 330.712H448.129C446.637 327.451 444.074 324.798 440.866 323.195C437.658 321.591 433.998 321.133 430.493 321.897C426.989 322.661 423.852 324.601 421.603 327.395C419.353 330.188 418.127 333.667 418.129 337.254C418.14 338.187 418.232 339.118 418.404 340.035V340.035C414.793 341.272 411.561 343.419 409.021 346.27C406.482 349.12 404.72 352.577 403.906 356.307C403.092 360.037 403.254 363.914 404.376 367.563C405.497 371.212 407.541 374.511 410.309 377.14L410.281 377.157Z" fill="#66AF49"/>
<path d="M418.041 412.358H433.128V419.531C433.128 420.482 432.75 421.394 432.078 422.066C431.405 422.739 430.493 423.117 429.542 423.117H421.61C420.659 423.117 419.747 422.739 419.074 422.066C418.402 421.394 418.024 420.482 418.024 419.531V412.358H418.041Z" fill="#66AF49"/>
<path d="M484.225 393.686V417.122C478.263 420.274 470.218 422.493 459.455 423.117C447.632 423.816 438.473 422.645 431.447 420.303V393.686C431.458 390.295 432.809 387.047 435.207 384.649C437.604 382.252 440.853 380.9 444.243 380.89H471.434C474.824 380.902 478.071 382.254 480.468 384.651C482.864 387.048 484.214 390.296 484.225 393.686V393.686Z" fill="#A7D157"/>
<path d="M478.889 349.195C481.796 349.195 484.153 346.838 484.153 343.931C484.153 341.024 481.796 338.667 478.889 338.667C475.982 338.667 473.625 341.024 473.625 343.931C473.625 346.838 475.982 349.195 478.889 349.195Z" fill="black"/>
<path d="M436.702 349.195C439.609 349.195 441.966 346.838 441.966 343.931C441.966 341.024 439.609 338.667 436.702 338.667C433.795 338.667 431.438 341.024 431.438 343.931C431.438 346.838 433.795 349.195 436.702 349.195Z" fill="black"/>
<path d="M402.992 390.397C402.992 390.397 390.494 383.816 392.949 375.822C395.403 367.828 406.831 376.442 406.831 376.442L414.116 380.844L414.026 395.813C414.026 395.813 406.313 392.525 402.992 390.397Z" fill="#66AF49"/>
<path d="M452.936 349.212H465.242C465.842 349.209 466.433 349.358 466.96 349.645C467.487 349.932 467.932 350.348 468.255 350.854C468.578 351.36 468.767 351.939 468.805 352.538C468.843 353.137 468.729 353.736 468.473 354.279C467.19 357.009 464.533 359.829 459.089 359.829C453.645 359.829 450.988 357.015 449.704 354.279C449.448 353.736 449.334 353.137 449.372 352.538C449.411 351.939 449.6 351.36 449.922 350.854C450.245 350.348 450.691 349.932 451.218 349.645C451.744 349.358 452.336 349.209 452.936 349.212V349.212Z" fill="white"/>
<path d="M491.731 366.799C496.858 366.799 501.014 362.857 501.014 357.995C501.014 353.132 496.858 349.19 491.731 349.19C486.604 349.19 482.448 353.132 482.448 357.995C482.448 362.857 486.604 366.799 491.731 366.799Z" fill="#A7D157"/>
<path d="M426.454 366.799C431.581 366.799 435.737 362.857 435.737 357.995C435.737 353.132 431.581 349.19 426.454 349.19C421.327 349.19 417.171 353.132 417.171 357.995C417.171 362.857 421.327 366.799 426.454 366.799Z" fill="#A7D157"/>
<path d="M463.077 413.744C462.764 413.742 462.464 413.617 462.244 413.395L456.963 408.114C456.739 407.89 456.613 407.586 456.613 407.27C456.613 406.953 456.739 406.649 456.963 406.425C457.187 406.201 457.491 406.075 457.808 406.075C458.124 406.075 458.428 406.201 458.652 406.425L463.933 411.706C464.046 411.815 464.137 411.946 464.199 412.091C464.26 412.236 464.292 412.393 464.292 412.55C464.292 412.708 464.26 412.864 464.199 413.009C464.137 413.154 464.046 413.285 463.933 413.395C463.82 413.507 463.687 413.596 463.54 413.656C463.393 413.716 463.236 413.746 463.077 413.744V413.744Z" fill="#66AF49"/>
<path d="M457.802 413.745C457.569 413.743 457.341 413.673 457.147 413.543C456.953 413.412 456.802 413.228 456.713 413.012C456.623 412.797 456.599 412.559 456.644 412.33C456.689 412.101 456.8 411.89 456.963 411.724L462.244 406.443C462.468 406.219 462.772 406.093 463.088 406.093C463.405 406.093 463.709 406.219 463.933 406.443C464.157 406.667 464.283 406.971 464.283 407.287C464.283 407.604 464.157 407.908 463.933 408.132L458.635 413.39C458.527 413.501 458.397 413.589 458.254 413.65C458.111 413.711 457.958 413.743 457.802 413.745V413.745Z" fill="#66AF49"/>
<path d="M344.302 333.123L389.198 359.048C385.761 365.001 380.099 369.345 373.458 371.124C366.817 372.903 359.742 371.971 353.788 368.534C347.835 365.096 343.49 359.434 341.712 352.793C339.933 346.152 340.864 339.077 344.302 333.123V333.123ZM344.302 329.745C344.006 329.747 343.711 329.785 343.424 329.858C342.996 329.973 342.594 330.172 342.243 330.442C341.891 330.713 341.596 331.05 341.375 331.434C337.489 338.164 336.436 346.162 338.447 353.669C340.459 361.175 345.369 367.575 352.099 371.461C358.829 375.347 366.827 376.4 374.334 374.389C381.84 372.377 388.24 367.467 392.126 360.737C392.348 360.352 392.492 359.928 392.55 359.488C392.608 359.048 392.578 358.6 392.463 358.172C392.348 357.743 392.15 357.341 391.88 356.989C391.609 356.637 391.272 356.342 390.887 356.12L345.991 330.224C345.477 329.928 344.895 329.773 344.302 329.774V329.745Z" fill="#F4BD61"/>
<path d="M360.442 342.456L405.338 368.352C401.904 374.306 396.245 378.652 389.607 380.433C382.969 382.215 375.895 381.286 369.942 377.852C363.988 374.418 359.642 368.76 357.861 362.122C356.079 355.484 357.008 348.41 360.442 342.456V342.456ZM360.442 339.078C359.848 339.078 359.265 339.234 358.752 339.53C358.238 339.827 357.811 340.253 357.514 340.767C354.945 345.219 353.592 350.267 353.59 355.407C353.589 360.546 354.939 365.596 357.505 370.049C360.072 374.501 363.765 378.201 368.213 380.776C372.661 383.35 377.708 384.71 382.848 384.718C387.992 384.713 393.045 383.358 397.502 380.79C401.959 378.221 405.664 374.529 408.248 370.081C408.47 369.696 408.615 369.272 408.672 368.832C408.73 368.392 408.701 367.945 408.586 367.516C408.471 367.087 408.273 366.685 408.002 366.333C407.732 365.981 407.394 365.686 407.01 365.464L362.114 339.54C361.599 339.246 361.017 339.09 360.425 339.09L360.442 339.078Z" fill="#F4BD61"/>
<path d="M401.786 355.883L356.889 329.961L343.929 352.407L388.827 378.329L401.786 355.883Z" fill="#F4BD61"/>
<path d="M366.376 391.288C380.691 391.288 392.295 379.683 392.295 365.369C392.295 351.054 380.691 339.45 366.376 339.45C352.062 339.45 340.457 351.054 340.457 365.369C340.457 379.683 352.062 391.288 366.376 391.288Z" fill="#F4BD61"/>
<path d="M362.368 385.415L351.013 378.86L344.457 390.214L355.812 396.77L362.368 385.415Z" fill="#F4BD61"/>
<path d="M338.895 386.998L361.4 399.991C362.614 400.692 363.5 401.847 363.863 403.201C364.226 404.555 364.036 405.998 363.335 407.212L360.748 411.693L329.088 393.413L331.666 388.948C332.012 388.344 332.473 387.815 333.024 387.39C333.575 386.965 334.204 386.653 334.876 386.472C335.548 386.291 336.248 386.244 336.938 386.335C337.628 386.425 338.293 386.65 338.895 386.998V386.998Z" fill="#F4BD61"/>
<path d="M937.108 301.67L872.181 319.067C867.694 320.27 865.032 324.881 866.234 329.368L876.381 367.237C877.583 371.724 882.195 374.387 886.682 373.184L951.609 355.787C956.096 354.585 958.758 349.973 957.556 345.486L947.409 307.617C946.207 303.131 941.595 300.468 937.108 301.67Z" fill="#2A546B"/>
<path d="M964.363 353.547L882.774 375.416C881.429 375.777 880.631 377.16 880.992 378.505L881.017 378.598C881.377 379.943 882.76 380.741 884.105 380.38L965.694 358.511C967.039 358.151 967.837 356.768 967.477 355.423L967.452 355.33C967.091 353.985 965.708 353.187 964.363 353.547Z" fill="#2A546B"/>
<path opacity="0.05" d="M913.017 366.101L925.317 362.805C925.492 363.457 925.401 364.151 925.063 364.736C924.726 365.32 924.17 365.747 923.518 365.921L916.139 367.899C915.487 368.073 914.793 367.982 914.208 367.644C913.624 367.307 913.197 366.751 913.023 366.099L913.017 366.101Z" fill="white"/>
<path opacity="0.8" d="M937.626 304.472L873.133 321.753C870.025 322.586 868.18 325.781 869.013 328.889L879.169 366.79C880.002 369.899 883.197 371.743 886.305 370.91L950.797 353.63C953.906 352.797 955.75 349.602 954.918 346.494L944.762 308.592C943.929 305.484 940.734 303.639 937.626 304.472Z" fill="#0C2736"/>
<path opacity="0.1" d="M937.947 318.291L879.36 333.989C878.492 334.222 877.976 335.112 878.208 335.979C878.441 336.845 879.332 337.359 880.2 337.127L938.787 321.428C939.655 321.196 940.171 320.305 939.938 319.438C939.706 318.572 938.814 318.058 937.947 318.291Z" fill="white"/>
<path opacity="0.25" d="M893.564 344.888L883.037 347.709C882.169 347.941 881.653 348.832 881.885 349.699C882.118 350.565 883.009 351.079 883.877 350.847L894.405 348.026C895.273 347.793 895.788 346.902 895.556 346.036C895.324 345.169 894.432 344.655 893.564 344.888Z" fill="white"/>
<path opacity="0.25" d="M941.607 332.018L917.36 338.515C916.492 338.747 915.976 339.638 916.208 340.504C916.441 341.371 917.332 341.885 918.2 341.652L942.448 335.155C943.315 334.923 943.831 334.032 943.599 333.165C943.367 332.299 942.475 331.785 941.607 332.018Z" fill="white"/>
<path d="M907.426 341.174L903.62 342.194C902.752 342.426 902.236 343.317 902.469 344.184C902.701 345.05 903.592 345.564 904.46 345.331L908.267 344.311C909.135 344.079 909.65 343.188 909.418 342.321C909.186 341.455 908.294 340.941 907.426 341.174Z" fill="#F5C659"/>
<path d="M912.598 332.437L908.792 333.457C907.924 333.689 907.409 334.58 907.641 335.447C907.873 336.313 908.765 336.827 909.633 336.594L913.439 335.574C914.307 335.342 914.822 334.451 914.59 333.584C914.358 332.718 913.466 332.204 912.598 332.437Z" fill="#9165F5"/>
<path d="M901.573 358.615L897.794 359.628C896.923 359.862 896.405 360.756 896.639 361.627C896.872 362.497 897.767 363.013 898.639 362.779L902.418 361.766C903.289 361.532 903.807 360.638 903.574 359.768C903.341 358.898 902.445 358.382 901.573 358.615Z" fill="#9165F5"/>
<path opacity="0.25" d="M932.929 326.993L922.347 329.828C921.479 330.061 920.964 330.952 921.196 331.818C921.428 332.685 922.32 333.198 923.188 332.966L933.77 330.131C934.638 329.898 935.153 329.007 934.921 328.141C934.689 327.274 933.797 326.76 932.929 326.993Z" fill="white"/>
<path opacity="0.1" d="M943.463 338.871L905.573 349.024C904.705 349.257 904.189 350.147 904.421 351.014C904.654 351.88 905.545 352.394 906.413 352.162L944.304 342.009C945.172 341.776 945.687 340.885 945.455 340.019C945.223 339.152 944.331 338.639 943.463 338.871Z" fill="white"/>
<path d="M895.402 351.743L891.639 352.751C890.771 352.984 890.256 353.875 890.488 354.741C890.72 355.608 891.612 356.122 892.48 355.889L896.243 354.881C897.111 354.648 897.626 353.757 897.394 352.891C897.162 352.024 896.27 351.511 895.402 351.743Z" fill="#B5CF69"/>
<path opacity="0.1" d="M945.307 345.724L907.297 355.909C906.429 356.142 905.913 357.033 906.145 357.899C906.378 358.766 907.269 359.279 908.137 359.047L946.148 348.862C947.016 348.629 947.531 347.739 947.299 346.872C947.067 346.006 946.175 345.492 945.307 345.724Z" fill="white"/>
<path d="M903.064 336.076L892.35 338.948C891.478 339.182 890.961 340.076 891.194 340.947C891.427 341.817 892.323 342.333 893.194 342.099L903.908 339.227C904.78 338.994 905.297 338.099 905.064 337.229C904.831 336.359 903.935 335.843 903.064 336.076Z" fill="#E66560"/>
<path d="M875.795 330.24C877.035 330.24 878.041 329.235 878.041 327.994C878.041 326.753 877.035 325.748 875.795 325.748C874.554 325.748 873.548 326.753 873.548 327.994C873.548 329.235 874.554 330.24 875.795 330.24Z" fill="#E66560"/>
<path d="M882.286 328.505C883.527 328.505 884.532 327.5 884.532 326.259C884.532 325.018 883.527 324.013 882.286 324.013C881.046 324.013 880.04 325.018 880.04 326.259C880.04 327.5 881.046 328.505 882.286 328.505Z" fill="#F5C659"/>
<path d="M888.769 326.766C890.01 326.766 891.015 325.76 891.015 324.52C891.015 323.279 890.01 322.273 888.769 322.273C887.529 322.273 886.523 323.279 886.523 324.52C886.523 325.76 887.529 326.766 888.769 326.766Z" fill="#B5CF69"/>
</g>
<defs>
<linearGradient id="paint0_linear_626_700" x1="640" y1="0" x2="640" y2="277" gradientUnits="userSpaceOnUse">
<stop stop-color="#123041"/>
<stop offset="1" stop-color="#123041" stop-opacity="0"/>
</linearGradient>
<clipPath id="clip0_626_700">
<rect width="1280" height="491" rx="10" fill="white"/>
</clipPath>
</defs>
</svg>
