<svg width="327" height="276" viewBox="0 0 327 276" fill="none" xmlns="http://www.w3.org/2000/svg">
<g clip-path="url(#clip0_626_2853)">
<rect width="327" height="276" rx="10" fill="#123041"/>
<path d="M353.678 244.424H-26.6782C-32.2011 244.424 -36.6782 248.901 -36.6782 254.424V276.68C-36.6782 282.203 -32.2011 286.68 -26.6782 286.68H353.678C359.201 286.68 363.678 282.203 363.678 276.68V254.424C363.678 248.901 359.201 244.424 353.678 244.424Z" fill="white"/>
<g opacity="0.48">
<path opacity="0.5" d="M306.292 290.489H197.779L240.106 0H295.71L306.292 290.489Z" fill="#F6CBCA"/>
<path opacity="0.5" d="M247.228 290.489H138.717L170.463 0H226.065L247.228 290.489Z" fill="#F9E37E"/>
<path opacity="0.5" d="M188.631 290.489H80.1201L101.284 0H156.886L188.631 290.489Z" fill="#9EE7E5"/>
<path opacity="0.5" d="M129.427 290.489H20.9136L31.4954 0H87.1L129.427 290.489Z" fill="#A7D157"/>
</g>
<rect x="-103.095" width="533.189" height="155.707" fill="url(#paint0_linear_626_2853)"/>
<path d="M159.41 225.005C159.41 225.005 163.018 230.495 160.225 233.182C157.433 235.87 154.721 229.818 154.721 229.818L152.742 226.396L156.141 220.328C156.141 220.328 158.536 223.395 159.41 225.005Z" fill="#EEEEEE"/>
<path d="M146.459 239.482H153.879V242.713C153.879 243.181 153.694 243.629 153.363 243.959C153.033 244.29 152.584 244.475 152.117 244.475H148.224C147.756 244.475 147.308 244.29 146.978 243.959C146.647 243.629 146.461 243.181 146.461 242.713V239.482H146.459Z" fill="#EEEEEE"/>
<path d="M118.547 239.482H126.006V242.705C126.006 243.176 125.82 243.626 125.487 243.959C125.155 244.291 124.704 244.478 124.234 244.478H120.312C119.841 244.478 119.391 244.291 119.058 243.959C118.726 243.626 118.539 243.176 118.539 242.705V239.482H118.547Z" fill="black"/>
<path d="M145.928 203.127C145.928 203.127 155.675 195.46 159.074 199.672C162.97 204.51 150.339 209.898 150.339 209.898L145.928 203.127Z" fill="#F6CBCA"/>
<path d="M156.149 200.61C156.993 200.61 157.234 200.908 157.349 201.051C157.649 201.423 157.629 201.634 157.579 201.836C157.317 202.858 155.126 205.103 151.134 207.101L148.919 203.689C151.149 202.21 154.185 200.612 156.149 200.612V200.61ZM156.149 198.411C151.928 198.411 145.928 203.13 145.928 203.13L150.328 209.9C150.328 209.9 162.96 204.513 159.064 199.674C158.332 198.767 157.31 198.411 156.149 198.411Z" fill="black"/>
<path d="M149.359 200.777C150.35 199.36 151.108 197.795 151.605 196.139C151.671 195.927 151.671 195.7 151.605 195.488C151.539 195.275 151.411 195.088 151.237 194.95C151.063 194.811 150.851 194.729 150.629 194.713C150.408 194.697 150.186 194.749 149.994 194.861C148.541 195.729 146.648 197.007 145.312 198.458C142.849 201.127 149.359 200.777 149.359 200.777Z" fill="#F4C25D"/>
<path d="M147.253 243.15C145.672 243.555 144.066 243.853 142.445 244.042C139.966 244.342 137.47 244.485 134.972 244.471C132.802 244.48 130.632 244.376 128.472 244.157C112.392 242.492 112.936 234.668 112.936 234.668C112.936 234.668 112.936 227.829 113.114 224.862C113.354 220.763 113.937 214.695 115.326 209.033C115.968 206.429 117.285 204.04 119.146 202.107C121.007 200.175 123.344 198.768 125.923 198.027C129.666 196.953 133.571 196.554 137.454 196.851C139.639 197.018 141.801 197.403 143.909 198.001L143.964 198.017C146.543 198.748 148.882 200.147 150.747 202.071C152.612 203.996 153.936 206.378 154.585 208.978C155.011 210.937 155.333 212.917 155.547 214.91C156.394 221.707 157.061 231.201 157.061 234.668C157.072 234.673 157.435 240.484 147.253 243.15Z" fill="white"/>
<path d="M142.445 244.046C139.966 244.346 137.47 244.489 134.972 244.475C132.802 244.485 130.632 244.38 128.472 244.161C112.392 242.496 112.936 234.672 112.936 234.672C112.936 234.672 112.936 227.833 113.114 224.866C113.114 224.866 125.17 223.431 127.656 232.366C127.861 233.139 128.169 233.882 128.572 234.573C131.9 240.191 139.731 235.699 142.39 243.853C142.413 243.916 142.431 243.981 142.445 244.046Z" fill="black"/>
<path d="M155.559 214.915C150.536 212.536 150.96 205.258 144.752 205.258C137.34 205.258 137.455 196.856 137.455 196.856C139.64 197.023 141.802 197.408 143.91 198.006L143.965 198.022C146.544 198.753 148.883 200.152 150.748 202.076C152.613 204.001 153.937 206.383 154.586 208.983C155.016 210.941 155.341 212.922 155.559 214.915Z" fill="black"/>
<path d="M148.091 235.645V240.136C148.092 241.197 147.805 242.239 147.26 243.15C144.211 243.934 140.216 244.457 134.971 244.457C132.8 244.467 130.63 244.362 128.471 244.143V235.645C128.469 235.285 128.502 234.926 128.57 234.573C128.824 233.208 129.547 231.974 130.614 231.085C131.681 230.195 133.025 229.707 134.414 229.703H142.14C143.716 229.705 145.227 230.332 146.343 231.446C147.458 232.559 148.087 234.069 148.091 235.645Z" fill="#F6CBCA"/>
<path d="M148.09 215.053C149.441 215.053 150.535 213.959 150.535 212.609C150.535 211.259 149.441 210.165 148.09 210.165C146.74 210.165 145.646 211.259 145.646 212.609C145.646 213.959 146.74 215.053 148.09 215.053Z" fill="black"/>
<path d="M128.468 215.053C129.818 215.053 130.913 213.959 130.913 212.609C130.913 211.259 129.818 210.165 128.468 210.165C127.118 210.165 126.023 211.259 126.023 212.609C126.023 213.959 127.118 215.053 128.468 215.053Z" fill="black"/>
<path d="M146.458 219.006C146.458 216.055 143.903 212.609 138.271 212.609C132.639 212.609 130.166 216.055 130.166 219.006C130.166 221.958 132.624 223.304 138.271 223.304C143.919 223.304 146.458 221.96 146.458 219.006Z" fill="#F6CBCA"/>
<path d="M136.647 218.823C137.111 218.823 137.487 218.311 137.487 217.68C137.487 217.049 137.111 216.538 136.647 216.538C136.184 216.538 135.808 217.049 135.808 217.68C135.808 218.311 136.184 218.823 136.647 218.823Z" fill="black"/>
<path d="M141.55 218.823C142.013 218.823 142.389 218.311 142.389 217.68C142.389 217.049 142.013 216.538 141.55 216.538C141.086 216.538 140.71 217.049 140.71 217.68C140.71 218.311 141.086 218.823 141.55 218.823Z" fill="black"/>
<path d="M121.248 201.587C121.248 201.587 119.206 198.918 118.371 196.139C118.306 195.927 118.306 195.7 118.372 195.488C118.437 195.275 118.566 195.088 118.74 194.95C118.914 194.811 119.125 194.729 119.347 194.713C119.569 194.697 119.79 194.749 119.982 194.861C121.436 195.729 122.62 196.299 123.956 197.737C126.412 200.419 121.248 201.587 121.248 201.587Z" fill="#F4C25D"/>
<path d="M121.704 205.064C122.004 204.689 122.226 204.256 122.356 203.794C122.486 203.331 122.521 202.846 122.46 202.369C122.399 201.892 122.243 201.433 122.001 201.017C121.759 200.602 121.435 200.239 121.05 199.951C118.093 197.747 113.567 195.144 111.154 197.598C108.226 200.589 112.741 204.555 115.999 206.824C116.748 207.345 117.667 207.562 118.57 207.429C119.473 207.297 120.292 206.827 120.86 206.113L121.704 205.064Z" fill="#F6CBCA"/>
<path d="M113.677 198.811C115.05 198.811 117.257 199.87 119.733 201.716C119.881 201.826 120.006 201.964 120.1 202.124C120.193 202.284 120.253 202.46 120.277 202.644C120.301 202.829 120.287 203.017 120.237 203.196C120.186 203.376 120.1 203.544 119.984 203.689L119.137 204.751C118.916 205.026 118.6 205.208 118.251 205.259C117.902 205.31 117.546 205.226 117.257 205.025C113.821 202.631 112.501 200.78 112.414 199.844C112.414 199.705 112.38 199.499 112.725 199.146C112.85 199.023 112.999 198.93 113.164 198.871C113.328 198.813 113.504 198.792 113.677 198.809V198.811ZM113.677 196.608C113.211 196.592 112.746 196.672 112.312 196.844C111.878 197.016 111.483 197.275 111.154 197.606C108.226 200.597 112.741 204.563 115.999 206.832C116.748 207.352 117.667 207.569 118.57 207.436C119.473 207.304 120.291 206.834 120.86 206.121L121.704 205.062C122.004 204.686 122.226 204.254 122.356 203.791C122.486 203.328 122.521 202.844 122.46 202.367C122.399 201.89 122.243 201.43 122.001 201.015C121.759 200.599 121.435 200.237 121.05 199.949C118.959 198.38 116.043 196.608 113.677 196.608Z" fill="white"/>
<path d="M110.357 225.128C110.357 225.128 106.916 230.712 109.787 233.326C112.658 235.94 115.189 229.8 115.189 229.8L118.024 224.765L113.49 220.355C113.49 220.355 111.184 223.492 110.357 225.128Z" fill="white"/>
<path d="M140.712 240.126C140.566 240.125 140.426 240.067 140.323 239.963L137.87 237.511C137.766 237.407 137.708 237.266 137.708 237.119C137.708 236.972 137.766 236.831 137.87 236.727C137.974 236.623 138.115 236.565 138.262 236.565C138.41 236.565 138.551 236.623 138.655 236.727L141.107 239.179C141.183 239.256 141.235 239.354 141.256 239.461C141.276 239.567 141.265 239.677 141.224 239.778C141.182 239.878 141.112 239.963 141.022 240.024C140.932 240.084 140.826 240.117 140.718 240.118L140.712 240.126Z" fill="#EF928F"/>
<path d="M138.258 240.126C138.112 240.125 137.972 240.067 137.868 239.963C137.816 239.912 137.775 239.851 137.747 239.784C137.718 239.717 137.704 239.644 137.704 239.571C137.704 239.498 137.718 239.426 137.747 239.359C137.775 239.291 137.816 239.23 137.868 239.179L140.321 236.727C140.425 236.623 140.566 236.565 140.713 236.565C140.86 236.565 141.001 236.623 141.105 236.727C141.209 236.831 141.268 236.972 141.268 237.119C141.268 237.266 141.209 237.407 141.105 237.511L138.653 239.963C138.601 240.015 138.54 240.056 138.472 240.084C138.404 240.112 138.331 240.126 138.258 240.126Z" fill="#EF928F"/>
<path d="M125.249 215.053H124.096C122.742 215.053 121.644 216.15 121.644 217.504C121.644 218.857 122.742 219.955 124.096 219.955H125.249C126.604 219.955 127.702 218.857 127.702 217.504C127.702 216.15 126.604 215.053 125.249 215.053Z" fill="#F7D3D2"/>
<path d="M152.414 215.053H151.26C149.906 215.053 148.808 216.15 148.808 217.504C148.808 218.857 149.906 219.955 151.26 219.955H152.414C153.768 219.955 154.866 218.857 154.866 217.504C154.866 216.15 153.768 215.053 152.414 215.053Z" fill="#F7D3D2"/>
<path d="M224.899 225.005C224.899 225.005 221.293 230.495 224.083 233.182C226.873 235.87 229.589 229.818 229.589 229.818L231.566 226.396L228.167 220.328C228.167 220.328 225.772 223.395 224.899 225.005Z" fill="#EEEEEE"/>
<path d="M266.295 244.479H262.337C261.862 244.479 261.406 244.29 261.07 243.954C260.734 243.618 260.546 243.163 260.546 242.688V239.577H268.086V242.688C268.086 243.163 267.898 243.618 267.562 243.954C267.226 244.29 266.77 244.479 266.295 244.479Z" fill="white"/>
<path d="M235.355 244.479H231.493C231.029 244.479 230.584 244.295 230.256 243.967C229.928 243.639 229.744 243.194 229.744 242.73V239.575H237.106V242.73C237.106 242.96 237.061 243.187 236.973 243.4C236.885 243.612 236.756 243.805 236.593 243.967C236.431 244.13 236.237 244.259 236.025 244.346C235.812 244.434 235.585 244.479 235.355 244.479Z" fill="#EEEEEE"/>
<path d="M258.381 198.033C252.503 196.344 246.269 196.336 240.387 198.009L240.335 198.025C237.756 198.755 235.416 200.153 233.551 202.077C231.686 204.001 230.362 206.383 229.714 208.983C228.48 213.95 227.238 229.933 227.238 234.673C227.238 234.673 226.623 244.478 249.34 244.478C272.056 244.478 271.371 234.673 271.371 234.673C271.371 234.673 271.371 227.834 271.196 224.867C270.95 220.768 270.367 214.698 268.981 209.038C268.34 206.433 267.023 204.043 265.161 202.11C263.3 200.178 260.961 198.771 258.381 198.033Z" fill="#F1F1F1"/>
<path d="M258.381 198.033C252.503 196.344 246.269 196.336 240.387 198.009L240.335 198.025C237.756 198.755 235.416 200.153 233.551 202.077C231.686 204.001 230.362 206.383 229.714 208.983C228.48 213.95 227.238 229.933 227.238 234.673C227.238 234.673 226.623 244.478 249.34 244.478C272.056 244.478 271.371 234.673 271.371 234.673C271.371 234.673 271.371 227.834 271.196 224.867C270.95 220.768 270.367 214.698 268.981 209.038C268.34 206.433 267.023 204.043 265.161 202.11C263.3 200.178 260.961 198.771 258.381 198.033Z" fill="white"/>
<path d="M257.857 221.063H260.328C261.684 221.063 262.783 219.964 262.783 218.609V218.606C262.783 217.25 261.684 216.151 260.328 216.151H257.857C256.501 216.151 255.402 217.25 255.402 218.606V218.609C255.402 219.964 256.501 221.063 257.857 221.063Z" fill="#F7D3D2"/>
<path d="M231.841 221.063H234.312C235.668 221.063 236.767 219.964 236.767 218.609V218.606C236.767 217.25 235.668 216.151 234.312 216.151H231.841C230.485 216.151 229.386 217.25 229.386 218.606V218.609C229.386 219.964 230.485 221.063 231.841 221.063Z" fill="#F7D3D2"/>
<path d="M236.218 215.053C237.568 215.053 238.662 213.959 238.662 212.609C238.662 211.259 237.568 210.165 236.218 210.165C234.868 210.165 233.773 211.259 233.773 212.609C233.773 213.959 234.868 215.053 236.218 215.053Z" fill="black"/>
<path d="M255.836 215.053C257.186 215.053 258.281 213.959 258.281 212.609C258.281 211.259 257.186 210.165 255.836 210.165C254.486 210.165 253.391 211.259 253.391 212.609C253.391 213.959 254.486 215.053 255.836 215.053Z" fill="black"/>
<path d="M254.166 198.77C253.781 198.674 253.448 198.432 253.238 198.096C253.028 197.759 252.958 197.354 253.041 196.966C253.711 193.928 255.627 187.241 259.463 187.79C263.992 188.439 261.662 195.92 260.509 198.955C260.37 199.302 260.113 199.587 259.783 199.76C259.452 199.934 259.071 199.984 258.707 199.902L254.166 198.77Z" fill="#F7D3D2"/>
<path d="M259.068 201.318C259.661 201.317 260.24 201.137 260.729 200.802C261.218 200.467 261.594 199.992 261.808 199.439C263.131 195.925 264.368 191.162 262.747 188.425C262.422 187.876 261.974 187.41 261.438 187.064C260.902 186.717 260.293 186.5 259.659 186.428C256.09 185.905 253.264 189.565 251.697 196.67C251.53 197.408 251.66 198.183 252.06 198.825C252.46 199.468 253.097 199.927 253.834 200.103L258.388 201.237C258.611 201.291 258.839 201.319 259.068 201.318ZM259.047 189.136C259.122 189.136 259.196 189.142 259.269 189.152C259.496 189.164 259.716 189.232 259.91 189.35C260.104 189.468 260.265 189.631 260.381 189.827C261.165 191.168 260.736 194.48 259.233 198.472C259.213 198.501 259.186 198.525 259.155 198.542C259.123 198.559 259.088 198.568 259.052 198.568L254.511 197.434C254.473 197.425 254.441 197.402 254.42 197.37C254.399 197.338 254.391 197.299 254.398 197.261C255.225 193.455 256.932 189.136 259.047 189.136Z" fill="white"/>
<path d="M243.791 199.094C244.177 198.998 244.51 198.757 244.72 198.42C244.93 198.083 245 197.678 244.916 197.29C244.249 194.255 242.332 187.565 238.494 188.114C233.968 188.762 236.295 196.244 237.448 199.282C237.58 199.632 237.836 199.922 238.167 200.097C238.499 200.271 238.883 200.318 239.247 200.228L243.791 199.094Z" fill="#F7D3D2"/>
<path d="M238.854 201.648C239.09 201.649 239.326 201.62 239.555 201.562L244.11 200.43C244.846 200.254 245.484 199.795 245.884 199.152C246.284 198.508 246.414 197.733 246.246 196.995C244.677 189.882 241.858 186.243 238.287 186.755C237.652 186.826 237.042 187.043 236.506 187.39C235.97 187.736 235.521 188.203 235.196 188.753C233.578 191.487 234.814 196.253 236.135 199.766C236.344 200.318 236.716 200.794 237.201 201.13C237.687 201.467 238.263 201.647 238.854 201.648ZM238.899 189.461C241.014 189.461 242.721 193.78 243.558 197.586C243.565 197.624 243.557 197.663 243.536 197.696C243.516 197.728 243.483 197.752 243.445 197.761L238.891 198.893C238.854 198.902 238.815 198.897 238.782 198.88C238.748 198.862 238.723 198.832 238.71 198.796C237.209 194.807 236.77 191.495 237.565 190.154C237.68 189.958 237.841 189.793 238.035 189.675C238.229 189.557 238.449 189.489 238.676 189.477C238.75 189.466 238.824 189.461 238.899 189.461Z" fill="white"/>
<path d="M237.923 242.337H254.129C256.422 242.337 258.281 240.479 258.281 238.186V229.018C258.281 226.726 256.422 224.867 254.129 224.867H237.923C235.63 224.867 233.771 226.726 233.771 229.018V238.186C233.771 240.479 235.63 242.337 237.923 242.337Z" fill="#F3F3F3"/>
<path d="M274.485 226.391C274.485 226.391 279.487 222.151 277.57 218.776C275.653 215.401 271.339 220.452 271.339 220.452L268.479 223.178L270.027 229.957C270.027 229.957 273.19 227.693 274.485 226.391Z" fill="white"/>
<path d="M243.596 240.126C243.742 240.125 243.882 240.067 243.986 239.963L246.438 237.511C246.542 237.407 246.601 237.266 246.601 237.119C246.601 236.972 246.542 236.831 246.438 236.727C246.334 236.623 246.193 236.565 246.046 236.565C245.899 236.565 245.758 236.623 245.654 236.727L243.201 239.179C243.125 239.256 243.074 239.354 243.053 239.461C243.032 239.567 243.043 239.677 243.085 239.778C243.126 239.878 243.197 239.963 243.287 240.024C243.377 240.084 243.482 240.117 243.591 240.118L243.596 240.126Z" fill="#F7D3D2"/>
<path d="M246.048 240.126C246.157 240.125 246.263 240.092 246.353 240.032C246.443 239.971 246.513 239.886 246.554 239.786C246.596 239.685 246.607 239.575 246.586 239.469C246.566 239.362 246.514 239.265 246.438 239.187L243.985 236.735C243.881 236.631 243.74 236.573 243.593 236.573C243.446 236.573 243.305 236.631 243.201 236.735C243.097 236.839 243.039 236.98 243.039 237.127C243.039 237.274 243.097 237.415 243.201 237.519L245.654 239.972C245.706 240.022 245.768 240.062 245.836 240.088C245.903 240.115 245.976 240.127 246.048 240.126Z" fill="#F7D3D2"/>
<path d="M245.068 215.782L247.861 214.36C247.991 214.294 248.089 214.179 248.134 214.04C248.18 213.901 248.168 213.75 248.101 213.62C248.035 213.49 247.92 213.392 247.781 213.347C247.643 213.302 247.492 213.313 247.362 213.38L245.061 214.551L242.551 213.304C242.42 213.239 242.269 213.229 242.13 213.275C241.992 213.322 241.878 213.422 241.813 213.552C241.748 213.683 241.738 213.834 241.785 213.972C241.831 214.111 241.931 214.225 242.062 214.289L245.068 215.782Z" fill="#F7D3D2"/>
<path d="M246.703 218.99C247.267 219.012 247.82 218.826 248.256 218.468C248.357 218.37 248.416 218.237 248.422 218.097C248.428 217.957 248.38 217.819 248.289 217.713C248.197 217.607 248.068 217.539 247.929 217.525C247.789 217.51 247.649 217.549 247.537 217.634C247.301 217.82 247.004 217.913 246.703 217.895C246.562 217.909 246.419 217.893 246.285 217.847C246.15 217.801 246.027 217.726 245.924 217.629C245.821 217.531 245.74 217.412 245.687 217.28C245.633 217.149 245.609 217.007 245.616 216.865V215.174C245.621 215.098 245.61 215.023 245.585 214.951C245.56 214.88 245.52 214.815 245.468 214.759C245.417 214.704 245.354 214.66 245.285 214.63C245.216 214.6 245.141 214.584 245.065 214.584C244.989 214.584 244.915 214.6 244.845 214.63C244.776 214.66 244.713 214.704 244.662 214.759C244.61 214.815 244.57 214.88 244.545 214.951C244.52 215.023 244.51 215.098 244.515 215.174V216.87C244.523 217.234 244.612 217.591 244.776 217.916C244.961 218.261 245.24 218.545 245.582 218.736C245.924 218.926 246.313 219.015 246.703 218.99Z" fill="#F7D3D2"/>
<path d="M243.308 218.991C244.973 218.991 245.598 217.725 245.614 216.876C245.615 216.803 245.603 216.731 245.576 216.664C245.55 216.597 245.51 216.535 245.46 216.483C245.409 216.431 245.349 216.39 245.283 216.361C245.217 216.332 245.145 216.317 245.073 216.316C244.928 216.316 244.79 216.372 244.685 216.472C244.581 216.572 244.519 216.708 244.513 216.852C244.513 217.095 244.39 217.898 243.308 217.898C243.005 217.919 242.706 217.826 242.469 217.636C242.359 217.548 242.219 217.506 242.079 217.517C241.939 217.528 241.808 217.593 241.714 217.698C241.619 217.802 241.569 217.939 241.572 218.08C241.575 218.22 241.632 218.354 241.731 218.455C242.17 218.826 242.733 219.018 243.308 218.991Z" fill="#F7D3D2"/>
<path d="M167.613 225.005C167.613 225.005 164.007 230.495 166.797 233.182C169.587 235.87 172.303 229.818 172.303 229.818L174.28 226.396L170.881 220.328C170.881 220.328 168.489 223.395 167.613 225.005Z" fill="#EAD576"/>
<path d="M199.846 244.479H211.597C211.969 244.479 212.271 244.177 212.271 243.804V242.317C212.271 241.944 211.969 241.642 211.597 241.642H199.846C199.474 241.642 199.172 241.944 199.172 242.317V243.804C199.172 244.177 199.474 244.479 199.846 244.479Z" fill="#F4BD61"/>
<path d="M170.684 244.479H182.144C182.517 244.479 182.819 244.177 182.819 243.804V242.317C182.819 241.944 182.517 241.642 182.144 241.642H170.684C170.312 241.642 170.01 241.944 170.01 242.317V243.804C170.01 244.177 170.312 244.479 170.684 244.479Z" fill="#F4BD61"/>
<path d="M201.094 198.033C195.216 196.344 188.982 196.336 183.1 198.009L183.047 198.025C180.468 198.755 178.128 200.153 176.263 202.077C174.397 204.001 173.073 206.383 172.424 208.983C171.19 213.95 169.948 229.933 169.948 234.673C169.948 234.673 169.336 244.478 192.05 244.478C214.763 244.478 214.083 234.673 214.083 234.673C214.083 234.673 214.083 227.834 213.906 224.867C213.663 220.768 213.079 214.698 211.694 209.038C211.052 206.433 209.734 204.044 207.873 202.111C206.012 200.179 203.673 198.772 201.094 198.033Z" fill="#F1F1F1"/>
<path d="M201.094 198.033C195.216 196.344 188.982 196.336 183.1 198.009L183.047 198.025C180.468 198.755 178.128 200.153 176.263 202.077C174.397 204.001 173.073 206.383 172.424 208.983C171.19 213.95 169.948 229.933 169.948 234.673C169.948 234.673 169.336 244.478 192.05 244.478C214.763 244.478 214.083 234.673 214.083 234.673C214.083 234.673 214.083 227.834 213.906 224.867C213.663 220.768 213.079 214.698 211.694 209.038C211.052 206.433 209.734 204.044 207.873 202.111C206.012 200.179 203.673 198.772 201.094 198.033Z" fill="#F9E37E"/>
<path d="M178.932 215.053C180.282 215.053 181.376 213.959 181.376 212.609C181.376 211.259 180.282 210.165 178.932 210.165C177.581 210.165 176.487 211.259 176.487 212.609C176.487 213.959 177.581 215.053 178.932 215.053Z" fill="black"/>
<path d="M198.554 215.053C199.904 215.053 200.998 213.959 200.998 212.609C200.998 211.259 199.904 210.165 198.554 210.165C197.204 210.165 196.109 211.259 196.109 212.609C196.109 213.959 197.204 215.053 198.554 215.053Z" fill="black"/>
<path d="M216.953 226.174C216.953 226.174 220.548 231.664 217.753 234.351C214.958 237.038 212.263 230.976 212.263 230.976L210.294 227.552L213.693 221.489C213.693 221.489 216.072 224.561 216.953 226.174Z" fill="#F9E37E"/>
<path d="M186.313 240.126C186.459 240.125 186.599 240.067 186.702 239.963L189.152 237.511C189.256 237.407 189.315 237.266 189.315 237.119C189.315 236.972 189.256 236.831 189.152 236.727C189.048 236.623 188.907 236.565 188.76 236.565C188.613 236.565 188.472 236.623 188.368 236.727L185.915 239.179C185.839 239.256 185.787 239.354 185.767 239.461C185.746 239.567 185.757 239.677 185.799 239.778C185.84 239.878 185.91 239.963 186 240.024C186.09 240.084 186.196 240.117 186.305 240.118L186.313 240.126Z" fill="#F4BD61"/>
<path d="M188.759 240.126C188.903 240.123 189.04 240.064 189.141 239.962C189.194 239.911 189.236 239.85 189.265 239.783C189.293 239.715 189.308 239.643 189.308 239.569C189.308 239.496 189.293 239.424 189.265 239.356C189.236 239.289 189.194 239.228 189.141 239.177L186.691 236.725C186.587 236.621 186.446 236.563 186.299 236.563C186.152 236.563 186.011 236.621 185.907 236.725C185.803 236.829 185.744 236.97 185.744 237.117C185.744 237.264 185.803 237.405 185.907 237.509L188.359 239.962C188.411 240.015 188.474 240.057 188.543 240.085C188.611 240.113 188.685 240.127 188.759 240.126Z" fill="#F4BD61"/>
<path d="M201.936 223.262C204.029 223.262 205.725 221.566 205.725 219.474C205.725 217.382 204.029 215.686 201.936 215.686C199.844 215.686 198.148 217.382 198.148 219.474C198.148 221.566 199.844 223.262 201.936 223.262Z" fill="#F1A361"/>
<path d="M175.712 223.262C177.804 223.262 179.501 221.566 179.501 219.474C179.501 217.382 177.804 215.686 175.712 215.686C173.62 215.686 171.923 217.382 171.923 219.474C171.923 221.566 173.62 223.262 175.712 223.262Z" fill="#F1A361"/>
<path d="M185.068 219.413H191.124C191.956 219.413 192.754 219.083 193.343 218.495C193.931 217.906 194.262 217.108 194.262 216.276C194.262 214.556 189.817 213.401 188.107 213.401C186.384 213.401 181.949 214.546 181.949 216.276C181.949 217.105 182.277 217.9 182.862 218.488C183.446 219.076 184.239 219.409 185.068 219.413Z" fill="#F4BD61"/>
<path d="M192.803 196.782C192.803 196.782 192.568 193.36 190.45 191.12C190.399 191.068 190.334 191.031 190.263 191.014C190.192 190.997 190.118 191.001 190.048 191.024C189.979 191.047 189.918 191.089 189.871 191.145C189.825 191.202 189.795 191.27 189.786 191.342C189.564 192.945 189.071 194.498 188.329 195.935C187.974 196.626 187.048 197.154 186.28 197.271" fill="#F9E37E"/>
<path d="M188.911 196.921C190.583 195.733 191.98 194.198 193.008 192.422C193.043 192.358 193.096 192.306 193.161 192.27C193.225 192.235 193.298 192.219 193.371 192.224C193.444 192.228 193.514 192.254 193.574 192.297C193.633 192.34 193.679 192.399 193.706 192.467C193.965 193.353 194.108 194.268 194.132 195.191C194.156 195.63 194.332 196.047 194.63 196.372C194.927 196.696 195.328 196.907 195.764 196.968" fill="#F9E37E"/>
<path d="M86.8726 239.482H94.3636V242.698C94.3636 243.17 94.176 243.623 93.8421 243.956C93.5082 244.29 93.0553 244.478 92.583 244.478H88.661C88.1888 244.478 87.7359 244.29 87.4019 243.956C87.068 243.623 86.8804 243.17 86.8804 242.698V239.482H86.8726Z" fill="#609847"/>
<path d="M100.943 227.936C100.943 227.936 104.248 233.601 101.317 236.147C98.3856 238.694 96.001 232.488 96.001 232.488L94.21 228.966L97.9254 223.09C97.9254 223.09 100.156 226.276 100.943 227.936Z" fill="#609847"/>
<path d="M56.8068 223.136C56.8068 223.136 50.1995 246.198 79.6408 244.478C104.658 243.014 97.9148 223.131 97.9148 223.131C99.1024 222.004 100.005 220.611 100.547 219.066C101.089 217.522 101.256 215.87 101.033 214.249C100.81 212.627 100.204 211.082 99.2656 209.74C98.3269 208.399 97.0823 207.301 95.6348 206.536V206.52C95.8086 205.897 95.8966 205.254 95.8962 204.607C95.8966 202.941 95.3269 201.325 94.2817 200.027C93.2366 198.73 91.7789 197.829 90.1508 197.474C88.5226 197.119 86.8221 197.332 85.3317 198.077C83.8412 198.822 82.6505 200.054 81.9574 201.569H74.3852C73.6922 200.055 72.5019 198.823 71.0119 198.078C69.5219 197.334 67.822 197.121 66.1945 197.476C64.567 197.831 63.1098 198.732 62.0652 200.029C61.0205 201.326 60.4511 202.941 60.4516 204.607C60.4568 205.04 60.4997 205.472 60.5797 205.898C58.9023 206.473 57.4013 207.47 56.2218 208.793C55.0422 210.117 54.224 211.722 53.846 213.454C53.4681 215.186 53.5432 216.987 54.0641 218.681C54.585 220.376 55.5341 221.907 56.8198 223.128L56.8068 223.136Z" fill="#66AF49"/>
<path d="M60.4109 239.482H67.4183V242.813C67.4183 243.254 67.2428 243.678 66.9305 243.99C66.6181 244.302 66.1945 244.478 65.7527 244.478H62.0686C61.6269 244.478 61.2033 244.302 60.8909 243.99C60.5786 243.678 60.4031 243.254 60.4031 242.813V239.482H60.4109Z" fill="#66AF49"/>
<path d="M91.1501 230.811V241.694C88.3812 243.158 84.6448 244.188 79.6455 244.478C74.1547 244.802 69.9006 244.259 66.6375 243.171V230.811C66.6423 229.237 67.27 227.728 68.3835 226.615C69.497 225.502 71.0059 224.874 72.5806 224.869H85.2096C86.7838 224.875 88.292 225.503 89.405 226.616C90.518 227.729 91.1453 229.237 91.1501 230.811Z" fill="#A7D157"/>
<path d="M88.6718 210.152C90.022 210.152 91.1165 209.057 91.1165 207.707C91.1165 206.358 90.022 205.263 88.6718 205.263C87.3216 205.263 86.2271 206.358 86.2271 207.707C86.2271 209.057 87.3216 210.152 88.6718 210.152Z" fill="black"/>
<path d="M69.078 210.152C70.4282 210.152 71.5227 209.057 71.5227 207.707C71.5227 206.358 70.4282 205.263 69.078 205.263C67.7278 205.263 66.6333 206.358 66.6333 207.707C66.6333 209.057 67.7278 210.152 69.078 210.152Z" fill="black"/>
<path d="M53.4213 229.284C53.4213 229.284 47.6167 226.229 48.7567 222.516C49.8967 218.804 55.2045 222.804 55.2045 222.804L58.5879 224.848L58.5461 231.799C58.5461 231.799 54.964 230.273 53.4213 229.284Z" fill="#66AF49"/>
<path d="M76.6178 210.16H82.3334C82.6121 210.158 82.8867 210.227 83.1314 210.361C83.3761 210.494 83.583 210.687 83.7329 210.922C83.8828 211.157 83.9706 211.426 83.9884 211.704C84.0061 211.982 83.9531 212.26 83.8343 212.512C83.2381 213.78 82.004 215.09 79.4756 215.09C76.9472 215.09 75.7131 213.783 75.1169 212.512C74.9981 212.26 74.9451 211.982 74.9628 211.704C74.9805 211.426 75.0684 211.157 75.2183 210.922C75.3682 210.687 75.5751 210.494 75.8198 210.361C76.0645 210.227 76.3391 210.158 76.6178 210.16Z" fill="white"/>
<path d="M94.6363 218.327C97.0176 218.327 98.9479 216.496 98.9479 214.238C98.9479 211.98 97.0176 210.149 94.6363 210.149C92.2551 210.149 90.3247 211.98 90.3247 214.238C90.3247 216.496 92.2551 218.327 94.6363 218.327Z" fill="#A7D157"/>
<path d="M64.3184 218.327C66.6997 218.327 68.63 216.496 68.63 214.238C68.63 211.98 66.6997 210.149 64.3184 210.149C61.9372 210.149 60.0068 211.98 60.0068 214.238C60.0068 216.496 61.9372 218.327 64.3184 218.327Z" fill="#A7D157"/>
<path d="M81.3279 240.126C81.1826 240.125 81.0434 240.067 80.9409 239.964L78.4884 237.511C78.3844 237.407 78.3259 237.266 78.3259 237.119C78.3259 236.972 78.3844 236.831 78.4884 236.727C78.5924 236.623 78.7335 236.565 78.8806 236.565C79.0277 236.565 79.1688 236.623 79.2728 236.727L81.7254 239.179C81.7782 239.23 81.8202 239.291 81.8489 239.358C81.8776 239.426 81.8924 239.498 81.8924 239.571C81.8924 239.645 81.8776 239.717 81.8489 239.784C81.8202 239.852 81.7782 239.913 81.7254 239.964C81.6733 240.016 81.6113 240.057 81.5431 240.085C81.4748 240.113 81.4016 240.126 81.3279 240.126Z" fill="#66AF49"/>
<path d="M78.8782 240.126C78.7697 240.125 78.6639 240.092 78.5739 240.032C78.4839 239.971 78.4138 239.886 78.3722 239.786C78.3307 239.685 78.3195 239.575 78.3402 239.469C78.3609 239.362 78.4125 239.265 78.4886 239.187L80.9411 236.735C81.0451 236.631 81.1862 236.573 81.3333 236.573C81.4804 236.573 81.6215 236.631 81.7255 236.735C81.8295 236.839 81.888 236.98 81.888 237.127C81.888 237.274 81.8295 237.415 81.7255 237.519L79.2651 239.961C79.2146 240.013 79.1544 240.054 79.088 240.082C79.0216 240.11 78.9503 240.125 78.8782 240.126Z" fill="#66AF49"/>
<path d="M26.1629 202.689L47.015 214.727C45.4183 217.491 42.7886 219.509 39.7043 220.335C36.62 221.161 33.3338 220.728 30.5686 219.132C27.8035 217.535 25.7859 214.906 24.9596 211.822C24.1334 208.739 24.5662 205.453 26.1629 202.689ZM26.1629 201.12C26.0253 201.121 25.8883 201.138 25.755 201.172C25.5561 201.226 25.3696 201.318 25.2063 201.444C25.043 201.569 24.9061 201.726 24.8033 201.904C22.9985 205.029 22.5094 208.743 23.4436 212.229C24.3777 215.715 26.6585 218.687 29.7842 220.491C32.91 222.295 36.6246 222.784 40.111 221.85C43.5974 220.917 46.5699 218.636 48.3746 215.511C48.4777 215.333 48.5447 215.136 48.5716 214.931C48.5985 214.727 48.5848 214.519 48.5314 214.32C48.478 214.121 48.3858 213.934 48.2602 213.771C48.1346 213.607 47.978 213.47 47.7994 213.367L26.9473 201.342C26.7087 201.205 26.4382 201.133 26.1629 201.133V201.12Z" fill="#F4BD61"/>
<path d="M33.6589 207.022L54.511 219.048C52.916 221.812 50.2879 223.83 47.2049 224.657C44.1218 225.485 40.8363 225.054 38.0712 223.459C35.306 221.864 33.2877 219.237 32.4602 216.154C31.6328 213.072 32.0639 209.787 33.6589 207.022ZM33.6589 205.454C33.3833 205.454 33.1126 205.526 32.8739 205.664C32.6352 205.801 32.437 206 32.2993 206.238C31.1059 208.305 30.4774 210.65 30.4767 213.036C30.476 215.423 31.1031 217.767 32.2952 219.835C33.4872 221.903 35.2023 223.621 37.2682 224.816C39.3341 226.012 41.6783 226.643 44.0653 226.647C46.4546 226.645 48.8014 226.016 50.8715 224.823C52.9416 223.63 54.6627 221.916 55.8628 219.85C55.9659 219.672 56.0328 219.475 56.0597 219.27C56.0866 219.066 56.073 218.858 56.0196 218.659C55.9661 218.46 55.874 218.273 55.7484 218.11C55.6228 217.946 55.4662 217.809 55.2875 217.706L34.4354 205.668C34.1966 205.531 33.9263 205.459 33.651 205.459L33.6589 205.454Z" fill="#F4BD61"/>
<path d="M52.8613 213.257L32.0087 201.22L25.9897 211.643L46.8423 223.68L52.8613 213.257Z" fill="#F4BD61"/>
<path d="M36.4151 229.698C43.0635 229.698 48.4531 224.309 48.4531 217.662C48.4531 211.015 43.0635 205.626 36.4151 205.626C29.7667 205.626 24.3771 211.015 24.3771 217.662C24.3771 224.309 29.7667 229.698 36.4151 229.698Z" fill="#F4BD61"/>
<path d="M34.5534 226.971L29.2797 223.927L26.2349 229.199L31.5086 232.243L34.5534 226.971Z" fill="#F4BD61"/>
<path d="M23.6518 227.706L34.1041 233.739C34.6681 234.065 35.0795 234.601 35.2481 235.23C35.4166 235.859 35.3284 236.529 35.0028 237.093L33.8014 239.173L19.0965 230.685L20.294 228.611C20.4547 228.331 20.669 228.085 20.9249 227.888C21.1807 227.691 21.473 227.546 21.7849 227.462C22.0969 227.378 22.4224 227.356 22.7427 227.398C23.0631 227.44 23.372 227.544 23.6518 227.706Z" fill="#F4BD61"/>
<path d="M301.492 188.083L271.337 196.162C269.253 196.72 268.016 198.862 268.575 200.945L273.287 218.53C273.846 220.613 275.988 221.85 278.072 221.291L308.227 213.213C310.311 212.655 311.548 210.513 310.989 208.43L306.276 190.845C305.718 188.761 303.576 187.525 301.492 188.083Z" fill="#2A546B"/>
<path d="M314.151 212.173L276.257 222.328C275.632 222.495 275.261 223.137 275.429 223.762L275.44 223.805C275.608 224.43 276.25 224.8 276.875 224.633L314.769 214.478C315.394 214.31 315.764 213.668 315.597 213.044L315.585 213.001C315.418 212.376 314.776 212.005 314.151 212.173Z" fill="#2A546B"/>
<path opacity="0.05" d="M290.303 218.002L296.016 216.472C296.097 216.774 296.055 217.097 295.898 217.368C295.741 217.64 295.483 217.838 295.18 217.919L291.753 218.837C291.45 218.918 291.128 218.876 290.856 218.719C290.585 218.562 290.387 218.304 290.306 218.002L290.303 218.002Z" fill="white"/>
<path opacity="0.8" d="M301.733 189.384L271.779 197.409C270.335 197.795 269.479 199.279 269.865 200.722L274.582 218.322C274.969 219.766 276.453 220.622 277.897 220.235L307.85 212.211C309.294 211.824 310.151 210.341 309.764 208.897L305.047 191.297C304.66 189.854 303.176 188.997 301.733 189.384Z" fill="#0C2736"/>
<path opacity="0.1" d="M301.882 195.801L274.671 203.091C274.268 203.199 274.028 203.612 274.136 204.015C274.244 204.417 274.658 204.656 275.061 204.548L302.272 197.258C302.675 197.15 302.914 196.736 302.807 196.334C302.699 195.932 302.285 195.693 301.882 195.801Z" fill="white"/>
<path opacity="0.25" d="M281.268 208.152L276.378 209.462C275.975 209.57 275.736 209.983 275.844 210.386C275.952 210.788 276.366 211.027 276.769 210.919L281.658 209.609C282.061 209.501 282.301 209.087 282.193 208.685C282.085 208.282 281.671 208.044 281.268 208.152Z" fill="white"/>
<path opacity="0.25" d="M303.581 202.175L292.32 205.192C291.917 205.3 291.677 205.714 291.785 206.116C291.893 206.519 292.307 206.757 292.71 206.649L303.972 203.632C304.375 203.524 304.614 203.111 304.506 202.708C304.399 202.306 303.984 202.067 303.581 202.175Z" fill="white"/>
<path d="M287.706 206.427L285.938 206.901C285.535 207.009 285.296 207.422 285.404 207.825C285.512 208.227 285.926 208.466 286.329 208.358L288.097 207.884C288.5 207.776 288.739 207.362 288.631 206.96C288.524 206.558 288.109 206.319 287.706 206.427Z" fill="#F5C659"/>
<path d="M290.109 202.37L288.341 202.844C287.938 202.952 287.698 203.365 287.806 203.768C287.914 204.17 288.328 204.408 288.731 204.301L290.499 203.827C290.902 203.719 291.142 203.305 291.034 202.903C290.926 202.501 290.512 202.262 290.109 202.37Z" fill="#9165F5"/>
<path d="M284.988 214.526L283.233 214.996C282.828 215.105 282.588 215.52 282.696 215.924C282.804 216.328 283.22 216.568 283.625 216.46L285.38 215.989C285.785 215.881 286.025 215.465 285.917 215.061C285.809 214.657 285.393 214.418 284.988 214.526Z" fill="#9165F5"/>
<path opacity="0.25" d="M299.551 199.842L294.636 201.159C294.233 201.267 293.994 201.68 294.101 202.083C294.209 202.485 294.624 202.724 295.027 202.616L299.941 201.299C300.345 201.191 300.584 200.777 300.476 200.375C300.368 199.973 299.954 199.734 299.551 199.842Z" fill="white"/>
<path opacity="0.1" d="M304.444 205.358L286.845 210.072C286.442 210.18 286.203 210.594 286.311 210.996C286.419 211.399 286.833 211.637 287.236 211.529L304.834 206.815C305.237 206.707 305.477 206.293 305.369 205.891C305.261 205.488 304.847 205.25 304.444 205.358Z" fill="white"/>
<path d="M282.122 211.335L280.374 211.803C279.971 211.911 279.731 212.325 279.839 212.727C279.947 213.13 280.361 213.368 280.764 213.26L282.512 212.792C282.915 212.684 283.155 212.27 283.047 211.868C282.939 211.466 282.525 211.227 282.122 211.335Z" fill="#B5CF69"/>
<path opacity="0.1" d="M305.3 208.54L287.646 213.27C287.243 213.378 287.004 213.791 287.111 214.194C287.219 214.596 287.634 214.835 288.037 214.727L305.69 209.997C306.094 209.889 306.333 209.475 306.225 209.073C306.117 208.671 305.703 208.432 305.3 208.54Z" fill="white"/>
<path d="M285.68 204.06L280.704 205.393C280.299 205.502 280.059 205.917 280.167 206.321C280.276 206.725 280.692 206.965 281.096 206.857L286.072 205.523C286.477 205.415 286.718 204.999 286.609 204.595C286.501 204.191 286.085 203.951 285.68 204.06Z" fill="#E66560"/>
<path d="M273.015 201.35C273.591 201.35 274.058 200.883 274.058 200.307C274.058 199.731 273.591 199.264 273.015 199.264C272.439 199.264 271.972 199.731 271.972 200.307C271.972 200.883 272.439 201.35 273.015 201.35Z" fill="#E66560"/>
<path d="M276.03 200.544C276.606 200.544 277.073 200.077 277.073 199.501C277.073 198.925 276.606 198.458 276.03 198.458C275.454 198.458 274.987 198.925 274.987 199.501C274.987 200.077 275.454 200.544 276.03 200.544Z" fill="#F5C659"/>
<path d="M279.041 199.737C279.617 199.737 280.084 199.27 280.084 198.693C280.084 198.117 279.617 197.65 279.041 197.65C278.465 197.65 277.998 198.117 277.998 198.693C277.998 199.27 278.465 199.737 279.041 199.737Z" fill="#B5CF69"/>
</g>
<defs>
<linearGradient id="paint0_linear_626_2853" x1="163.5" y1="0" x2="163.5" y2="155.707" gradientUnits="userSpaceOnUse">
<stop stop-color="#123041"/>
<stop offset="1" stop-color="#123041" stop-opacity="0"/>
</linearGradient>
<clipPath id="clip0_626_2853">
<rect width="327" height="276" rx="10" fill="white"/>
</clipPath>
</defs>
</svg>
