<svg width="469" height="132" viewBox="0 0 469 132" fill="none" xmlns="http://www.w3.org/2000/svg">
<g clip-path="url(#clip0_626_1322)">
<path d="M299.274 101.544C299.274 101.544 287.223 119.983 296.551 128.945C305.879 137.906 314.949 117.678 314.949 117.678L321.554 106.209L310.203 85.9261C306.263 90.9169 302.614 96.1316 299.274 101.544Z" fill="#EFEFEF"/>
<path d="M344.35 28.2303C344.35 28.2303 311.766 2.52619 300.433 16.6505C287.407 32.8585 329.65 50.9104 329.65 50.9104L344.35 28.2303Z" fill="#FFCACA"/>
<path d="M310.184 19.8405C307.369 19.8405 306.504 20.8362 306.173 21.3156C305.815 21.6414 305.553 22.06 305.417 22.5251C305.281 22.9903 305.275 23.4842 305.401 23.9524C306.247 27.3821 313.606 34.8868 326.945 41.5986L334.305 30.1664C326.853 25.1878 316.697 19.8405 310.129 19.8405H310.184ZM310.129 12.4648C324.241 12.4648 344.295 28.2856 344.295 28.2856L329.576 50.9657C329.576 50.9657 287.26 32.9138 300.359 16.7058C301.543 15.2867 303.041 14.1642 304.734 13.4279C306.427 12.6916 308.268 12.3618 310.111 12.4648H310.129Z" fill="black"/>
<path d="M332.888 20.3567C329.577 15.608 327.043 10.3608 325.381 4.81259C325.157 4.1 325.154 3.336 325.373 2.62177C325.592 1.90754 326.022 1.27675 326.607 0.812945C327.191 0.349143 327.902 0.0742099 328.646 0.0245236C329.39 -0.0251627 330.131 0.152746 330.772 0.53471C336.511 3.81897 341.778 7.8696 346.429 12.5754C354.653 21.5184 332.888 20.3567 332.888 20.3567Z" fill="#FFC145"/>
<path d="M339.916 162.356C345.204 163.711 350.576 164.709 355.996 165.343C364.286 166.349 372.631 166.83 380.982 166.782C388.238 166.813 395.491 166.463 402.71 165.731C456.471 160.199 454.649 133.923 454.649 133.923C454.649 133.923 454.649 111.003 454.06 101.065C453.14 83.2018 450.678 65.4524 446.701 48.0154C444.555 39.2869 440.149 31.2805 433.927 24.8053C427.705 18.33 419.888 13.6152 411.265 11.1372C398.725 7.52259 385.639 6.1862 372.629 7.19125C365.324 7.74917 358.094 9.04022 351.047 11.045H350.863C342.243 13.4941 334.42 18.18 328.185 24.6294C321.95 31.0787 317.524 39.063 315.354 47.7757C313.927 54.3816 312.859 61.0602 312.153 67.7821C309.319 90.5359 307.093 122.38 307.093 133.997C307.093 133.942 305.879 153.395 339.916 162.356Z" fill="white"/>
<path d="M355.996 165.362C364.286 166.368 372.631 166.848 380.982 166.8C388.238 166.832 395.491 166.481 402.71 165.749C456.471 160.217 454.649 133.942 454.649 133.942C454.649 133.942 454.649 111.022 454.06 101.083C454.06 101.083 413.749 96.2705 405.433 126.216C404.752 128.801 403.724 131.282 402.379 133.591C391.248 152.418 365.067 137.371 356.18 164.698C356.101 164.914 356.04 165.136 355.996 165.362Z" fill="black"/>
<path d="M312.153 67.7821C328.951 59.8164 327.534 35.4215 348.287 35.4215C373.07 35.4215 372.684 7.26501 372.684 7.26501C365.38 7.82294 358.15 9.11401 351.102 11.1188H350.918C342.298 13.5679 334.475 18.2538 328.24 24.7031C322.005 31.1525 317.579 39.1368 315.409 47.8495C313.967 54.4301 312.879 61.084 312.153 67.7821Z" fill="black"/>
<path d="M337.138 137.205V152.252C337.134 155.81 338.095 159.302 339.916 162.356C353.363 165.565 367.162 167.052 380.982 166.782C388.238 166.813 395.491 166.463 402.71 165.731V137.205C402.713 135.999 402.602 134.795 402.379 133.61C401.527 129.036 399.109 124.903 395.542 121.924C391.975 118.945 387.483 117.306 382.84 117.291H357.082C351.804 117.286 346.739 119.38 343 123.114C339.261 126.847 337.153 131.915 337.138 137.205Z" fill="#FFCACA"/>
<path d="M337.12 68.1878C332.608 68.1878 328.951 64.5223 328.951 60.0008C328.951 55.4793 332.608 51.8138 337.12 51.8138C341.631 51.8138 345.289 55.4793 345.289 60.0008C345.289 64.5223 341.631 68.1878 337.12 68.1878Z" fill="black"/>
<path d="M402.71 68.1878C398.199 68.1878 394.541 64.5223 394.541 60.0008C394.541 55.4793 398.199 51.8138 402.71 51.8138C407.222 51.8138 410.879 55.4793 410.879 60.0008C410.879 64.5223 407.222 68.1878 402.71 68.1878Z" fill="black"/>
<path d="M342.584 81.4455C342.584 71.5437 351.121 60.0008 369.961 60.0008C388.801 60.0008 397.007 71.5437 397.007 81.4455C397.007 91.3473 388.783 95.8464 369.961 95.8464C351.139 95.8464 342.584 91.3288 342.584 81.4455Z" fill="#FFCACA"/>
<path d="M375.37 80.8185C373.815 80.8185 372.555 79.1096 372.555 77.0016C372.555 74.8936 373.815 73.1848 375.37 73.1848C376.925 73.1848 378.185 74.8936 378.185 77.0016C378.185 79.1096 376.925 80.8185 375.37 80.8185Z" fill="black"/>
<path d="M358.977 80.8185C357.422 80.8185 356.162 79.1096 356.162 77.0016C356.162 74.8936 357.422 73.1848 358.977 73.1848C360.532 73.1848 361.792 74.8936 361.792 77.0016C361.792 79.1096 360.532 80.8185 358.977 80.8185Z" fill="black"/>
<path d="M426.867 23.0673C430.995 17.5132 434.247 11.3565 436.508 4.81259C436.732 4.1 436.735 3.336 436.516 2.62177C436.298 1.90754 435.867 1.27675 435.283 0.812945C434.699 0.349143 433.987 0.0742099 433.243 0.0245236C432.5 -0.0251627 431.758 0.152746 431.118 0.53471C426.26 3.42965 422.305 5.34732 417.834 10.1968C409.61 19.1582 426.867 23.0673 426.867 23.0673Z" fill="#FFC145"/>
<path d="M425.34 34.7208C424.337 33.462 423.597 32.014 423.163 30.4629C422.729 28.9117 422.611 27.289 422.815 25.6911C423.02 24.0933 423.542 22.5528 424.352 21.1613C425.162 19.7698 426.243 18.5556 427.53 17.5909C437.41 10.2152 452.533 1.4751 460.647 9.73582C470.435 19.7482 455.348 33.0428 444.456 40.6397C441.953 42.3905 438.879 43.1209 435.859 42.6825C432.838 42.2441 430.097 40.6699 428.192 38.2795L425.34 34.7208Z" fill="#FFCACA"/>
<path d="M452.184 13.7556C447.584 13.7556 440.206 17.3143 431.945 23.4914C431.447 23.864 431.029 24.3336 430.717 24.872C430.404 25.4104 430.203 26.0065 430.126 26.6246C430.048 27.2428 430.096 27.8701 430.267 28.4692C430.437 29.0683 430.727 29.6267 431.117 30.1111L433.932 33.6698C434.372 34.2233 434.932 34.6688 435.57 34.9724C436.208 35.2759 436.906 35.4296 437.612 35.4215C438.56 35.4274 439.486 35.1374 440.262 34.5917C451.761 26.5707 456.158 20.3752 456.452 17.2221C456.452 16.7612 456.563 16.0789 455.403 14.8988C454.995 14.4837 454.498 14.1655 453.95 13.9677C453.403 13.7699 452.818 13.6974 452.239 13.7556H452.184ZM452.239 6.37993C453.799 6.32563 455.353 6.5958 456.803 7.17339C458.253 7.75099 459.568 8.62349 460.665 9.73586C470.453 19.7483 455.367 33.0429 444.475 40.6398C441.97 42.3862 438.898 43.114 435.878 42.6758C432.858 42.2376 430.118 40.6662 428.211 38.2796L425.396 34.7208C424.393 33.462 423.652 32.0141 423.218 30.4629C422.785 28.9117 422.666 27.289 422.871 25.6912C423.075 24.0933 423.597 22.5529 424.407 21.1614C425.217 19.7699 426.298 18.5557 427.585 17.5909C434.613 12.3173 444.309 6.37993 452.239 6.37993Z" fill="white"/>
<path d="M463.278 101.968C463.278 101.968 474.777 120.665 465.118 129.442C455.459 138.219 447.051 117.604 447.051 117.604L437.539 100.733L452.736 85.9814C456.556 91.1008 460.077 96.4387 463.278 101.968Z" fill="white"/>
<path d="M413.492 68.1877H417.337C421.869 68.1877 425.543 71.8656 425.543 76.4024C425.543 80.9392 421.869 84.617 417.337 84.617H413.492C408.96 84.617 405.286 80.9392 405.286 76.4024C405.286 71.8656 408.96 68.1877 413.492 68.1877Z" fill="#FFD2D2"/>
<path d="M322.658 68.1877H326.504C331.036 68.1877 334.709 71.8656 334.709 76.4024C334.709 80.9392 331.036 84.617 326.504 84.617H322.658C318.127 84.617 314.453 80.9392 314.453 76.4024C314.453 71.8656 318.127 68.1877 322.658 68.1877Z" fill="#FFD2D2"/>
</g>
<rect y="14" width="260" height="84" rx="16" fill="#005271"/>
<path d="M260 40L260 72L276 56L260 40Z" fill="#005271"/>
<path d="M34.7844 47V30.992H32.7924V43.496L23.5764 30.992H21.5364V47H23.5284V34.232L32.8644 47H34.7844ZM44.1926 47.288C46.0646 47.288 47.6246 46.64 48.8006 45.488L47.9366 44.312C47.0006 45.272 45.6806 45.8 44.3366 45.8C41.8406 45.8 40.3286 43.976 40.1846 41.792H49.5446V41.336C49.5446 37.856 47.4806 35.12 43.9766 35.12C40.6646 35.12 38.2646 37.832 38.2646 41.192C38.2646 44.816 40.7366 47.288 44.1926 47.288ZM47.7686 40.448H40.1606C40.2566 38.696 41.4806 36.608 43.9526 36.608C46.5926 36.608 47.7446 38.744 47.7686 40.448ZM58.196 47.288C60.068 47.288 61.628 46.64 62.804 45.488L61.94 44.312C61.004 45.272 59.684 45.8 58.34 45.8C55.844 45.8 54.332 43.976 54.188 41.792H63.548V41.336C63.548 37.856 61.484 35.12 57.98 35.12C54.668 35.12 52.268 37.832 52.268 41.192C52.268 44.816 54.74 47.288 58.196 47.288ZM61.772 40.448H54.164C54.26 38.696 55.484 36.608 57.956 36.608C60.596 36.608 61.748 38.744 61.772 40.448ZM77.1434 47V30.992H75.3434V37.16C74.4074 35.888 72.9914 35.12 71.4314 35.12C68.4074 35.12 66.2714 37.496 66.2714 41.216C66.2714 44.984 68.4074 47.288 71.4314 47.288C73.0634 47.288 74.4794 46.448 75.3434 45.272V47H77.1434ZM71.8874 45.68C69.5354 45.68 68.1434 43.784 68.1434 41.216C68.1434 38.648 69.5354 36.728 71.8874 36.728C73.3034 36.728 74.7194 37.592 75.3434 38.6V43.832C74.7194 44.84 73.3034 45.68 71.8874 45.68ZM97.5671 47V38.816C97.5671 36.296 96.2951 35.12 93.8711 35.12C92.1191 35.12 90.5351 36.104 89.7431 37.088V30.992H87.9431V47H89.7431V38.528C90.4151 37.592 91.7591 36.728 93.1511 36.728C94.7351 36.728 95.7671 37.304 95.7671 39.368V47H97.5671ZM106.897 47.288C108.769 47.288 110.329 46.64 111.505 45.488L110.641 44.312C109.705 45.272 108.385 45.8 107.041 45.8C104.545 45.8 103.033 43.976 102.889 41.792H112.249V41.336C112.249 37.856 110.185 35.12 106.681 35.12C103.369 35.12 100.969 37.832 100.969 41.192C100.969 44.816 103.441 47.288 106.897 47.288ZM110.473 40.448H102.865C102.961 38.696 104.185 36.608 106.657 36.608C109.297 36.608 110.449 38.744 110.473 40.448ZM117.445 47V30.992H115.645V47H117.445ZM127.227 47.288C130.275 47.288 132.387 44.936 132.387 41.192C132.387 37.424 130.275 35.12 127.227 35.12C125.595 35.12 124.155 35.96 123.315 37.136V35.408H121.515V51.416H123.315V45.248C124.275 46.52 125.643 47.288 127.227 47.288ZM126.771 45.68C125.355 45.68 123.939 44.816 123.315 43.808V38.576C123.939 37.568 125.355 36.728 126.771 36.728C129.099 36.728 130.491 38.624 130.491 41.192C130.491 43.76 129.099 45.68 126.771 45.68ZM137.7 42.56L139.164 41.912C138.756 41.624 138.54 41.144 138.54 40.76C138.54 38.408 143.172 38.096 143.172 34.472C143.172 32.408 141.396 30.752 138.468 30.752C136.188 30.752 134.412 31.688 133.26 33.2L134.46 34.496C135.348 33.296 136.476 32.528 138.3 32.528C140.172 32.528 141.108 33.56 141.108 34.76C141.108 37.304 136.788 37.544 136.788 40.592C136.788 41.336 137.052 42.008 137.7 42.56ZM138.204 47.24C138.924 47.24 139.524 46.64 139.524 45.92C139.524 45.2 138.924 44.6 138.204 44.6C137.484 44.6 136.884 45.2 136.884 45.92C136.884 46.64 137.484 47.24 138.204 47.24ZM160.541 47.288C163.373 47.288 165.293 45.944 166.637 44.096L164.957 43.184C164.045 44.528 162.365 45.512 160.541 45.512C157.037 45.512 154.373 42.8 154.373 39.008C154.373 35.168 157.037 32.504 160.541 32.504C162.365 32.504 164.045 33.464 164.957 34.832L166.613 33.896C165.341 32.072 163.373 30.728 160.541 30.728C155.933 30.728 152.309 34.088 152.309 39.008C152.309 43.928 155.933 47.288 160.541 47.288ZM174.648 47.288C178.176 47.288 180.384 44.552 180.384 41.192C180.384 37.832 178.176 35.12 174.648 35.12C171.12 35.12 168.912 37.832 168.912 41.192C168.912 44.552 171.12 47.288 174.648 47.288ZM174.648 45.68C172.176 45.68 170.808 43.568 170.808 41.192C170.808 38.84 172.176 36.728 174.648 36.728C177.12 36.728 178.488 38.84 178.488 41.192C178.488 43.568 177.12 45.68 174.648 45.68ZM193.422 47V38.864C193.422 36.344 192.15 35.12 189.75 35.12C187.998 35.12 186.414 36.104 185.598 37.088V35.408H183.798V47H185.598V38.528C186.294 37.592 187.614 36.728 189.03 36.728C190.59 36.728 191.646 37.352 191.646 39.416V47H193.422ZM200.472 47.288C201.504 47.288 202.152 46.976 202.608 46.544L202.08 45.176C201.84 45.44 201.384 45.68 200.856 45.68C200.088 45.68 199.704 45.056 199.704 44.192V36.992H202.056V35.408H199.704V32.24H197.88V35.408H195.96V36.992H197.88V44.576C197.88 46.304 198.744 47.288 200.472 47.288ZM214.103 47V39.032C214.103 36.224 212.087 35.12 209.615 35.12C207.719 35.12 206.231 35.744 204.983 37.04L205.823 38.288C206.855 37.16 207.983 36.68 209.375 36.68C211.055 36.68 212.303 37.568 212.303 39.104V41.192C211.367 40.136 210.047 39.632 208.463 39.632C206.495 39.632 204.431 40.832 204.431 43.448C204.431 45.968 206.519 47.288 208.463 47.288C210.023 47.288 211.367 46.736 212.303 45.68V47H214.103ZM209.135 45.992C207.431 45.992 206.255 44.936 206.255 43.448C206.255 41.984 207.431 40.928 209.135 40.928C210.383 40.928 211.607 41.408 212.303 42.344V44.552C211.607 45.512 210.383 45.992 209.135 45.992ZM223.327 47.288C225.439 47.288 226.687 46.424 227.575 45.272L226.375 44.168C225.607 45.2 224.623 45.68 223.423 45.68C220.975 45.68 219.415 43.76 219.415 41.192C219.415 38.624 220.975 36.728 223.423 36.728C224.623 36.728 225.607 37.16 226.375 38.216L227.575 37.136C226.687 35.984 225.439 35.12 223.327 35.12C219.871 35.12 217.543 37.76 217.543 41.192C217.543 44.624 219.871 47.288 223.327 47.288ZM233.553 47.288C234.585 47.288 235.233 46.976 235.689 46.544L235.161 45.176C234.921 45.44 234.465 45.68 233.937 45.68C233.169 45.68 232.785 45.056 232.785 44.192V36.992H235.137V35.408H232.785V32.24H230.961V35.408H229.041V36.992H230.961V44.576C230.961 46.304 231.825 47.288 233.553 47.288ZM28.7848 76.288C30.0568 76.288 30.8728 75.952 31.3288 75.544L30.6808 73.24C30.5128 73.408 30.0808 73.576 29.6248 73.576C28.9528 73.576 28.5688 73.024 28.5688 72.304V67.072H30.9208V64.408H28.5688V61.24H25.4968V64.408H23.5768V67.072H25.4968V73.12C25.4968 75.184 26.6488 76.288 28.7848 76.288ZM38.9342 76.288C40.7342 76.288 42.5582 75.736 43.7102 74.68L42.3662 72.712C41.6222 73.432 40.2542 73.864 39.2702 73.864C37.3022 73.864 36.1262 72.64 35.9342 71.176H44.5502V70.504C44.5502 66.712 42.1982 64.12 38.7422 64.12C35.2142 64.12 32.7422 66.832 32.7422 70.192C32.7422 73.912 35.4062 76.288 38.9342 76.288ZM41.5982 69.112H35.8862C36.0302 67.96 36.8462 66.544 38.7422 66.544C40.7582 66.544 41.5262 68.008 41.5982 69.112ZM57.2398 76V68.512C57.2398 65.176 54.8158 64.12 52.1758 64.12C50.3518 64.12 48.5278 64.696 47.1118 65.944L48.2638 67.984C49.2478 67.072 50.3998 66.616 51.6478 66.616C53.1838 66.616 54.1918 67.384 54.1918 68.56V70.12C53.4238 69.208 52.0558 68.704 50.5198 68.704C48.6718 68.704 46.4878 69.736 46.4878 72.448C46.4878 75.04 48.6718 76.288 50.5198 76.288C52.0318 76.288 53.3998 75.736 54.1918 74.8V76H57.2398ZM51.7438 74.224C50.5438 74.224 49.5598 73.6 49.5598 72.52C49.5598 71.392 50.5438 70.768 51.7438 70.768C52.7278 70.768 53.6878 71.104 54.1918 71.776V73.216C53.6878 73.888 52.7278 74.224 51.7438 74.224ZM78.1911 76V67.624C78.1911 65.248 76.9191 64.12 74.7831 64.12C73.0071 64.12 71.4711 65.176 70.7991 66.232C70.3671 64.912 69.2871 64.12 67.5831 64.12C65.8071 64.12 64.2711 65.224 63.7911 65.92V64.408H60.7431V76H63.7911V68.2C64.2471 67.552 65.1351 66.832 66.1911 66.832C67.4391 66.832 67.9191 67.6 67.9191 68.68V76H70.9911V68.176C71.4231 67.552 72.3111 66.832 73.3911 66.832C74.6391 66.832 75.1191 67.6 75.1191 68.68V76H78.1911ZM83.2206 76.264C84.2766 76.264 85.1646 75.376 85.1646 74.32C85.1646 73.264 84.2766 72.376 83.2206 72.376C82.1646 72.376 81.2766 73.264 81.2766 74.32C81.2766 75.376 82.1646 76.264 83.2206 76.264ZM99.1772 76V67.768C99.1772 65.512 97.9532 64.12 95.4092 64.12C93.5132 64.12 92.0732 65.032 91.3292 65.92V59.992H88.2812V76H91.3292V68.2C91.8572 67.504 92.7932 66.832 93.9692 66.832C95.2892 66.832 96.1292 67.336 96.1292 68.944V76H99.1772ZM112.691 76V68.512C112.691 65.176 110.267 64.12 107.627 64.12C105.803 64.12 103.979 64.696 102.563 65.944L103.715 67.984C104.699 67.072 105.851 66.616 107.099 66.616C108.635 66.616 109.643 67.384 109.643 68.56V70.12C108.875 69.208 107.507 68.704 105.971 68.704C104.123 68.704 101.939 69.736 101.939 72.448C101.939 75.04 104.123 76.288 105.971 76.288C107.483 76.288 108.851 75.736 109.643 74.8V76H112.691ZM107.195 74.224C105.995 74.224 105.011 73.6 105.011 72.52C105.011 71.392 105.995 70.768 107.195 70.768C108.179 70.768 109.139 71.104 109.643 71.776V73.216C109.139 73.888 108.179 74.224 107.195 74.224ZM121.594 76.288C123.97 76.288 125.41 75.256 126.178 74.176L124.186 72.328C123.634 73.096 122.794 73.576 121.738 73.576C119.89 73.576 118.594 72.208 118.594 70.192C118.594 68.176 119.89 66.832 121.738 66.832C122.794 66.832 123.634 67.264 124.186 68.08L126.178 66.208C125.41 65.152 123.97 64.12 121.594 64.12C118.018 64.12 115.45 66.64 115.45 70.192C115.45 73.768 118.018 76.288 121.594 76.288ZM139.979 76L135.251 69.664L139.835 64.408H136.091L131.699 69.568V59.992H128.651V76H131.699V73.024L133.091 71.536L136.163 76H139.979ZM152.874 76V59.992H149.802V65.896C148.89 64.72 147.594 64.12 146.226 64.12C143.274 64.12 141.09 66.424 141.09 70.216C141.09 74.08 143.298 76.288 146.226 76.288C147.618 76.288 148.89 75.664 149.802 74.512V76H152.874ZM147.162 73.576C145.434 73.576 144.234 72.208 144.234 70.216C144.234 68.2 145.434 66.832 147.162 66.832C148.194 66.832 149.298 67.384 149.802 68.152V72.256C149.298 73.024 148.194 73.576 147.162 73.576ZM166.385 76V68.512C166.385 65.176 163.961 64.12 161.321 64.12C159.497 64.12 157.673 64.696 156.257 65.944L157.409 67.984C158.393 67.072 159.545 66.616 160.793 66.616C162.329 66.616 163.337 67.384 163.337 68.56V70.12C162.569 69.208 161.201 68.704 159.665 68.704C157.817 68.704 155.633 69.736 155.633 72.448C155.633 75.04 157.817 76.288 159.665 76.288C161.177 76.288 162.545 75.736 163.337 74.8V76H166.385ZM160.889 74.224C159.689 74.224 158.705 73.6 158.705 72.52C158.705 71.392 159.689 70.768 160.889 70.768C161.873 70.768 162.833 71.104 163.337 71.776V73.216C162.833 73.888 161.873 74.224 160.889 74.224ZM176.176 76L180.832 64.408H177.544L174.52 72.472L171.496 64.408H168.232L172.888 76H176.176ZM184.184 63.16C185.192 63.16 186.008 62.344 186.008 61.336C186.008 60.328 185.192 59.536 184.184 59.536C183.2 59.536 182.36 60.328 182.36 61.336C182.36 62.344 183.2 63.16 184.184 63.16ZM185.72 76V64.408H182.672V76H185.72ZM193.399 76.288C196.615 76.288 198.415 74.68 198.415 72.568C198.415 67.888 191.551 69.328 191.551 67.6C191.551 66.952 192.271 66.448 193.375 66.448C194.791 66.448 196.111 67.048 196.807 67.792L198.031 65.704C196.879 64.792 195.319 64.12 193.351 64.12C190.303 64.12 188.599 65.824 188.599 67.768C188.599 72.328 195.487 70.768 195.487 72.688C195.487 73.408 194.863 73.936 193.543 73.936C192.103 73.936 190.375 73.144 189.535 72.352L188.215 74.488C189.439 75.616 191.383 76.288 193.399 76.288ZM202.7 76.264C203.756 76.264 204.644 75.376 204.644 74.32C204.644 73.264 203.756 72.376 202.7 72.376C201.644 72.376 200.756 73.264 200.756 74.32C200.756 75.376 201.644 76.264 202.7 76.264ZM209.273 63.16C210.281 63.16 211.097 62.344 211.097 61.336C211.097 60.328 210.281 59.536 209.273 59.536C208.289 59.536 207.449 60.328 207.449 61.336C207.449 62.344 208.289 63.16 209.273 63.16ZM210.809 76V64.408H207.761V76H210.809ZM219.687 76.288C223.527 76.288 225.831 73.504 225.831 70.192C225.831 66.904 223.527 64.12 219.687 64.12C215.871 64.12 213.567 66.904 213.567 70.192C213.567 73.504 215.871 76.288 219.687 76.288ZM219.687 73.576C217.791 73.576 216.735 72.016 216.735 70.192C216.735 68.392 217.791 66.832 219.687 66.832C221.583 66.832 222.663 68.392 222.663 70.192C222.663 72.016 221.583 73.576 219.687 73.576ZM229.82 76.24C230.54 76.24 231.14 75.64 231.14 74.92C231.14 74.2 230.54 73.6 229.82 73.6C229.1 73.6 228.5 74.2 228.5 74.92C228.5 75.64 229.1 76.24 229.82 76.24Z" fill="white"/>
<defs>
<clipPath id="clip0_626_1322">
<rect width="176" height="132" fill="white" transform="matrix(-1 0 0 1 469 0)"/>
</clipPath>
</defs>
</svg>
