<svg width="469" height="132" viewBox="0 0 469 132" fill="none" xmlns="http://www.w3.org/2000/svg">
<g clip-path="url(#clip0_626_1354)">
<path d="M299.274 101.544C299.274 101.544 287.223 119.983 296.551 128.945C305.879 137.906 314.949 117.678 314.949 117.678L321.554 106.209L310.203 85.9261C306.263 90.9169 302.614 96.1316 299.274 101.544Z" fill="#EFEFEF"/>
<path d="M344.35 28.2303C344.35 28.2303 311.766 2.52619 300.433 16.6505C287.407 32.8585 329.65 50.9104 329.65 50.9104L344.35 28.2303Z" fill="#FFCACA"/>
<path d="M310.184 19.8405C307.369 19.8405 306.505 20.8362 306.173 21.3156C305.815 21.6414 305.553 22.06 305.417 22.5251C305.281 22.9903 305.275 23.4842 305.401 23.9524C306.247 27.3821 313.606 34.8868 326.945 41.5986L334.305 30.1664C326.853 25.1878 316.697 19.8405 310.129 19.8405H310.184ZM310.129 12.4648C324.241 12.4648 344.295 28.2856 344.295 28.2856L329.576 50.9657C329.576 50.9657 287.26 32.9138 300.359 16.7058C301.543 15.2867 303.041 14.1642 304.734 13.4279C306.427 12.6916 308.268 12.3618 310.111 12.4648H310.129Z" fill="black"/>
<path d="M332.888 20.3567C329.577 15.608 327.043 10.3608 325.381 4.81259C325.157 4.1 325.154 3.336 325.373 2.62177C325.592 1.90754 326.022 1.27675 326.607 0.812945C327.191 0.349143 327.902 0.0742099 328.646 0.0245236C329.39 -0.0251627 330.131 0.152746 330.772 0.53471C336.511 3.81897 341.778 7.8696 346.429 12.5754C354.653 21.5184 332.888 20.3567 332.888 20.3567Z" fill="#FFC145"/>
<path d="M339.916 162.356C345.204 163.711 350.576 164.709 355.996 165.343C364.286 166.349 372.631 166.83 380.982 166.782C388.238 166.813 395.491 166.463 402.71 165.731C456.471 160.199 454.649 133.923 454.649 133.923C454.649 133.923 454.649 111.003 454.06 101.065C453.14 83.2018 450.678 65.4524 446.701 48.0154C444.555 39.2869 440.149 31.2805 433.927 24.8053C427.705 18.33 419.888 13.6152 411.265 11.1372C398.725 7.52259 385.639 6.1862 372.629 7.19125C365.324 7.74917 358.094 9.04022 351.047 11.045H350.863C342.243 13.4941 334.42 18.18 328.185 24.6294C321.95 31.0787 317.524 39.063 315.354 47.7757C313.927 54.3816 312.859 61.0602 312.153 67.7821C309.319 90.5359 307.093 122.38 307.093 133.997C307.093 133.942 305.879 153.395 339.916 162.356Z" fill="white"/>
<path d="M355.996 165.362C364.286 166.368 372.631 166.848 380.982 166.8C388.238 166.832 395.491 166.481 402.71 165.749C456.471 160.217 454.649 133.942 454.649 133.942C454.649 133.942 454.649 111.022 454.06 101.083C454.06 101.083 413.749 96.2705 405.433 126.216C404.752 128.801 403.724 131.282 402.379 133.591C391.248 152.418 365.067 137.371 356.18 164.698C356.101 164.914 356.04 165.136 355.996 165.362Z" fill="black"/>
<path d="M312.153 67.7821C328.951 59.8164 327.534 35.4215 348.288 35.4215C373.07 35.4215 372.684 7.26501 372.684 7.26501C365.38 7.82294 358.15 9.11401 351.103 11.1188H350.919C342.298 13.5679 334.475 18.2538 328.24 24.7031C322.005 31.1525 317.579 39.1368 315.409 47.8495C313.967 54.4301 312.88 61.084 312.153 67.7821Z" fill="black"/>
<path d="M337.138 137.205V152.252C337.134 155.81 338.095 159.302 339.916 162.356C353.363 165.565 367.162 167.052 380.982 166.782C388.238 166.813 395.491 166.463 402.71 165.731V137.205C402.713 135.999 402.602 134.795 402.379 133.61C401.527 129.036 399.109 124.903 395.542 121.924C391.975 118.945 387.483 117.306 382.84 117.291H357.082C351.804 117.286 346.739 119.38 343 123.114C339.261 126.847 337.153 131.915 337.138 137.205Z" fill="#FFCACA"/>
<path d="M337.12 68.1878C332.608 68.1878 328.951 64.5223 328.951 60.0008C328.951 55.4793 332.608 51.8138 337.12 51.8138C341.631 51.8138 345.289 55.4793 345.289 60.0008C345.289 64.5223 341.631 68.1878 337.12 68.1878Z" fill="black"/>
<path d="M402.71 68.1878C398.199 68.1878 394.541 64.5223 394.541 60.0008C394.541 55.4793 398.199 51.8138 402.71 51.8138C407.222 51.8138 410.879 55.4793 410.879 60.0008C410.879 64.5223 407.222 68.1878 402.71 68.1878Z" fill="black"/>
<path d="M342.584 81.4455C342.584 71.5437 351.121 60.0008 369.961 60.0008C388.801 60.0008 397.007 71.5437 397.007 81.4455C397.007 91.3473 388.783 95.8464 369.961 95.8464C351.139 95.8464 342.584 91.3288 342.584 81.4455Z" fill="#FFCACA"/>
<path d="M375.37 80.8185C373.815 80.8185 372.555 79.1096 372.555 77.0016C372.555 74.8936 373.815 73.1848 375.37 73.1848C376.925 73.1848 378.185 74.8936 378.185 77.0016C378.185 79.1096 376.925 80.8185 375.37 80.8185Z" fill="black"/>
<path d="M358.977 80.8185C357.422 80.8185 356.162 79.1096 356.162 77.0016C356.162 74.8936 357.422 73.1848 358.977 73.1848C360.532 73.1848 361.792 74.8936 361.792 77.0016C361.792 79.1096 360.532 80.8185 358.977 80.8185Z" fill="black"/>
<path d="M426.868 23.0673C430.995 17.5132 434.247 11.3565 436.508 4.81259C436.732 4.1 436.735 3.336 436.516 2.62177C436.298 1.90754 435.867 1.27675 435.283 0.812945C434.699 0.349143 433.987 0.0742099 433.243 0.0245236C432.5 -0.0251627 431.758 0.152746 431.118 0.53471C426.26 3.42965 422.305 5.34732 417.834 10.1968C409.61 19.1582 426.868 23.0673 426.868 23.0673Z" fill="#FFC145"/>
<path d="M425.34 34.7208C424.337 33.462 423.597 32.014 423.163 30.4629C422.729 28.9117 422.611 27.289 422.815 25.6911C423.02 24.0933 423.542 22.5528 424.352 21.1613C425.162 19.7698 426.243 18.5556 427.53 17.5909C437.41 10.2152 452.533 1.4751 460.647 9.73582C470.435 19.7482 455.348 33.0428 444.456 40.6397C441.953 42.3905 438.879 43.1209 435.859 42.6825C432.838 42.2441 430.097 40.6699 428.192 38.2795L425.34 34.7208Z" fill="#FFCACA"/>
<path d="M452.184 13.7556C447.584 13.7556 440.206 17.3143 431.945 23.4914C431.447 23.864 431.029 24.3336 430.717 24.872C430.404 25.4104 430.203 26.0065 430.126 26.6246C430.048 27.2428 430.096 27.8701 430.267 28.4692C430.437 29.0683 430.727 29.6267 431.117 30.1111L433.932 33.6698C434.372 34.2233 434.932 34.6688 435.57 34.9724C436.208 35.2759 436.906 35.4296 437.612 35.4215C438.56 35.4274 439.486 35.1374 440.262 34.5917C451.761 26.5707 456.158 20.3752 456.452 17.2221C456.452 16.7612 456.563 16.0789 455.403 14.8988C454.995 14.4837 454.498 14.1655 453.95 13.9677C453.403 13.7699 452.818 13.6974 452.239 13.7556H452.184ZM452.239 6.37993C453.799 6.32563 455.353 6.5958 456.803 7.17339C458.253 7.75099 459.568 8.62349 460.665 9.73586C470.453 19.7483 455.367 33.0429 444.475 40.6398C441.97 42.3862 438.898 43.114 435.878 42.6758C432.858 42.2376 430.118 40.6662 428.211 38.2796L425.396 34.7208C424.393 33.462 423.652 32.0141 423.218 30.4629C422.785 28.9117 422.666 27.289 422.871 25.6912C423.075 24.0933 423.597 22.5529 424.407 21.1614C425.217 19.7699 426.298 18.5557 427.585 17.5909C434.613 12.3173 444.309 6.37993 452.239 6.37993Z" fill="white"/>
<path d="M463.278 101.968C463.278 101.968 474.777 120.665 465.118 129.442C455.459 138.219 447.051 117.604 447.051 117.604L437.539 100.733L452.736 85.9814C456.556 91.1008 460.077 96.4387 463.278 101.968Z" fill="white"/>
<path d="M413.492 68.1877H417.337C421.869 68.1877 425.543 71.8656 425.543 76.4024C425.543 80.9392 421.869 84.617 417.337 84.617H413.492C408.96 84.617 405.286 80.9392 405.286 76.4024C405.286 71.8656 408.96 68.1877 413.492 68.1877Z" fill="#FFD2D2"/>
<path d="M322.658 68.1877H326.504C331.036 68.1877 334.709 71.8656 334.709 76.4024C334.709 80.9392 331.036 84.617 326.504 84.617H322.658C318.126 84.617 314.453 80.9392 314.453 76.4024C314.453 71.8656 318.126 68.1877 322.658 68.1877Z" fill="#FFD2D2"/>
</g>
<rect y="14" width="260" height="84" rx="16" fill="#005271"/>
<path d="M260 40L260 72L276 56L260 40Z" fill="#005271"/>
<path d="M42.5846 48V33.326H40.7586V44.92L32.3106 33.326H30.4406V48H32.2666V36.164L40.8246 48H42.5846ZM45.7747 42.676C45.7747 45.998 48.0407 48.264 51.1867 48.264C52.9247 48.264 54.3547 47.692 55.4107 46.636L54.6187 45.558C53.7827 46.416 52.5507 46.9 51.3407 46.9C49.0527 46.9 47.6447 45.228 47.5127 43.226H56.1147V42.808C56.1147 39.618 54.2227 37.11 51.0107 37.11C47.9747 37.11 45.7747 39.596 45.7747 42.676ZM50.9887 38.474C53.4087 38.474 54.4647 40.432 54.4867 42.016H47.5127C47.6007 40.388 48.7227 38.474 50.9887 38.474ZM58.6112 42.676C58.6112 45.998 60.8772 48.264 64.0232 48.264C65.7612 48.264 67.1912 47.692 68.2472 46.636L67.4552 45.558C66.6192 46.416 65.3872 46.9 64.1772 46.9C61.8892 46.9 60.4812 45.228 60.3492 43.226H68.9512V42.808C68.9512 39.618 67.0592 37.11 63.8472 37.11C60.8112 37.11 58.6112 39.596 58.6112 42.676ZM63.8252 38.474C66.2452 38.474 67.3012 40.432 67.3232 42.016H60.3492C60.4372 40.388 61.5592 38.474 63.8252 38.474ZM81.4137 48V33.326H79.7637V38.98C78.9057 37.814 77.6077 37.11 76.1777 37.11C73.3837 37.11 71.4477 39.31 71.4477 42.698C71.4477 46.152 73.4057 48.264 76.1777 48.264C77.6737 48.264 78.9717 47.494 79.7637 46.416V48H81.4137ZM79.7637 45.118C79.1697 46.042 77.8937 46.79 76.5737 46.79C74.4397 46.79 73.1637 45.052 73.1637 42.698C73.1637 40.344 74.4397 38.584 76.5737 38.584C77.8937 38.584 79.1697 39.376 79.7637 40.3V45.118ZM100.114 48V40.498C100.114 38.188 98.9479 37.11 96.7259 37.11C95.1199 37.11 93.6679 38.034 92.9199 38.914V33.326H91.2699V48H92.9199V40.234C93.5579 39.376 94.7899 38.584 96.0659 38.584C97.4959 38.584 98.4639 39.134 98.4639 41.004V48H100.114ZM103.233 42.676C103.233 45.998 105.499 48.264 108.645 48.264C110.383 48.264 111.813 47.692 112.869 46.636L112.077 45.558C111.241 46.416 110.009 46.9 108.799 46.9C106.511 46.9 105.103 45.228 104.971 43.226H113.573V42.808C113.573 39.618 111.681 37.11 108.469 37.11C105.433 37.11 103.233 39.596 103.233 42.676ZM108.447 38.474C110.867 38.474 111.923 40.432 111.945 42.016H104.971C105.059 40.388 106.181 38.474 108.447 38.474ZM118.335 48V33.326H116.685V48H118.335ZM123.716 46.394C124.574 47.582 125.85 48.264 127.302 48.264C130.096 48.264 132.032 46.108 132.032 42.676C132.032 39.222 130.096 37.11 127.302 37.11C125.806 37.11 124.486 37.88 123.716 38.958V37.374H122.066V52.048H123.716V46.394ZM130.294 42.676C130.294 45.03 129.018 46.79 126.884 46.79C125.586 46.79 124.288 45.998 123.716 45.074V40.278C124.288 39.354 125.586 38.584 126.884 38.584C129.018 38.584 130.294 40.322 130.294 42.676ZM136.087 42.148C136.087 42.808 136.351 43.424 136.945 43.93L138.287 43.358C137.913 43.072 137.693 42.632 137.693 42.28C137.693 41.312 138.551 40.74 139.497 40.08C140.663 39.266 141.961 38.364 141.961 36.516C141.961 34.624 140.333 33.106 137.649 33.106C135.559 33.106 133.931 33.986 132.875 35.35L133.975 36.538C134.789 35.46 135.823 34.734 137.473 34.734C139.211 34.734 140.069 35.68 140.069 36.78C140.069 37.902 139.167 38.518 138.199 39.178C137.187 39.904 136.087 40.674 136.087 42.148ZM136.197 47.01C136.197 47.67 136.747 48.22 137.407 48.22C138.067 48.22 138.617 47.67 138.617 47.01C138.617 46.35 138.067 45.8 137.407 45.8C136.747 45.8 136.197 46.35 136.197 47.01ZM157.795 48.264C160.457 48.264 162.217 47.032 163.449 45.36L161.887 44.502C161.051 45.756 159.533 46.636 157.795 46.636C154.649 46.636 152.207 44.15 152.207 40.674C152.207 37.176 154.649 34.712 157.795 34.712C159.533 34.712 161.051 35.614 161.887 36.846L163.427 35.988C162.261 34.338 160.457 33.084 157.795 33.084C153.637 33.084 150.315 36.164 150.315 40.674C150.315 45.184 153.637 48.264 157.795 48.264ZM170.793 48.264C174.027 48.264 176.051 45.756 176.051 42.676C176.051 39.596 174.027 37.11 170.793 37.11C167.559 37.11 165.535 39.596 165.535 42.676C165.535 45.756 167.559 48.264 170.793 48.264ZM170.793 46.79C168.527 46.79 167.251 44.854 167.251 42.676C167.251 40.52 168.527 38.584 170.793 38.584C173.059 38.584 174.313 40.52 174.313 42.676C174.313 44.854 173.059 46.79 170.793 46.79ZM188.003 48V40.542C188.003 38.232 186.837 37.11 184.615 37.11C183.031 37.11 181.579 38.034 180.831 38.914V37.374H179.181V48H180.831V40.234C181.447 39.376 182.679 38.584 183.977 38.584C185.407 38.584 186.353 39.178 186.353 41.048V48H188.003ZM194.422 48.264C195.39 48.264 195.984 47.978 196.402 47.582L195.918 46.35C195.698 46.592 195.258 46.79 194.796 46.79C194.07 46.79 193.718 46.218 193.718 45.426V38.826H195.874V37.374H193.718V34.47H192.068V37.374H190.308V38.826H192.068V45.778C192.068 47.362 192.86 48.264 194.422 48.264ZM206.939 48V40.696C206.939 38.122 205.069 37.11 202.825 37.11C201.087 37.11 199.723 37.682 198.579 38.87L199.349 40.014C200.295 39.002 201.329 38.54 202.605 38.54C204.145 38.54 205.289 39.354 205.289 40.784V42.698C204.431 41.708 203.221 41.246 201.769 41.246C199.965 41.246 198.051 42.368 198.051 44.744C198.051 47.054 199.965 48.264 201.769 48.264C203.199 48.264 204.409 47.758 205.289 46.79V48H206.939ZM205.289 45.756C204.651 46.636 203.529 47.076 202.363 47.076C200.823 47.076 199.745 46.108 199.745 44.766C199.745 43.402 200.823 42.434 202.363 42.434C203.529 42.434 204.651 42.874 205.289 43.754V45.756ZM210.07 42.676C210.07 45.844 212.204 48.264 215.372 48.264C217.308 48.264 218.452 47.472 219.266 46.416L218.166 45.404C217.462 46.35 216.56 46.79 215.46 46.79C213.194 46.79 211.786 45.03 211.786 42.676C211.786 40.322 213.194 38.584 215.46 38.584C216.56 38.584 217.462 39.002 218.166 39.97L219.266 38.958C218.452 37.902 217.308 37.11 215.372 37.11C212.204 37.11 210.07 39.53 210.07 42.676ZM224.703 48.264C225.671 48.264 226.265 47.978 226.683 47.582L226.199 46.35C225.979 46.592 225.539 46.79 225.077 46.79C224.351 46.79 223.999 46.218 223.999 45.426V38.826H226.155V37.374H223.999V34.47H222.349V37.374H220.589V38.826H222.349V45.778C222.349 47.362 223.141 48.264 224.703 48.264ZM31.4346 75.264C32.6006 75.264 33.3486 74.956 33.7666 74.582L33.1726 72.47C33.0186 72.624 32.6226 72.778 32.2046 72.778C31.5886 72.778 31.2366 72.272 31.2366 71.612V66.816H33.3926V64.374H31.2366V61.47H28.4206V64.374H26.6606V66.816H28.4206V72.36C28.4206 74.252 29.4766 75.264 31.4346 75.264ZM35.0622 69.676C35.0622 73.086 37.5042 75.264 40.7382 75.264C42.3882 75.264 44.0382 74.78 45.1162 73.79L43.8842 71.986C43.2022 72.646 42.0362 73.042 41.0462 73.042C39.2422 73.042 38.1642 71.92 37.9882 70.578H45.8862V69.962C45.8862 66.486 43.7302 64.11 40.5622 64.11C37.3282 64.11 35.0622 66.596 35.0622 69.676ZM40.5622 66.332C42.4102 66.332 43.1142 67.674 43.1802 68.686H37.9442C38.0762 67.63 38.8242 66.332 40.5622 66.332ZM57.5184 75V68.136C57.5184 65.078 55.2964 64.11 52.8764 64.11C51.2044 64.11 49.5324 64.638 48.2344 65.782L49.2904 67.652C50.1924 66.816 51.2484 66.398 52.3924 66.398C53.8004 66.398 54.7244 67.102 54.7244 68.18V69.654C54.0204 68.796 52.7664 68.356 51.3584 68.356C49.6644 68.356 47.6624 69.258 47.6624 71.744C47.6624 74.12 49.6644 75.264 51.3584 75.264C52.7444 75.264 53.9984 74.758 54.7244 73.9V75H57.5184ZM54.7244 72.448C54.2624 73.064 53.3824 73.372 52.4804 73.372C51.3804 73.372 50.4784 72.8 50.4784 71.81C50.4784 70.798 51.3804 70.204 52.4804 70.204C53.3824 70.204 54.2624 70.512 54.7244 71.128V72.448ZM76.7237 75V67.322C76.7237 65.144 75.5577 64.11 73.5997 64.11C71.9717 64.11 70.5637 65.078 69.9477 66.046C69.5517 64.836 68.5617 64.11 66.9997 64.11C65.3717 64.11 63.9637 65.122 63.5237 65.76V64.374H60.7297V75H63.5237V67.85C63.9417 67.256 64.7557 66.596 65.7237 66.596C66.8677 66.596 67.3077 67.3 67.3077 68.29V75H70.1237V67.828C70.5197 67.256 71.3337 66.596 72.3237 66.596C73.4677 66.596 73.9077 67.3 73.9077 68.29V75H76.7237ZM79.2881 69.632C79.2881 73.526 82.2581 76.54 86.2621 76.54C87.8901 76.54 89.4741 76.034 90.8381 75.154L90.3761 74.494C89.1881 75.242 87.8461 75.704 86.3501 75.704C82.7641 75.704 80.1461 73.042 80.1461 69.588C80.1461 65.474 83.7541 61.822 87.9341 61.822C91.6301 61.822 94.0061 64.22 94.0061 67.696C94.0061 70.204 92.7961 71.238 91.9381 71.238C91.4761 71.238 91.1241 70.93 91.1241 70.248C91.1241 70.116 91.1681 69.852 91.1901 69.72L92.3121 64.352H89.8261L89.5841 65.518C89.1221 64.682 88.1541 64.044 86.8341 64.044C84.2821 64.044 81.8621 66.486 81.8621 69.434C81.8621 71.568 83.1381 73.13 85.2721 73.13C86.4601 73.13 87.6481 72.448 88.4181 71.37L88.4621 71.502C88.5941 72.338 89.2761 73.13 90.5961 73.13C92.5101 73.13 94.9521 71.392 94.9521 67.696C94.9521 64.044 92.2241 60.964 88.0221 60.964C83.4461 60.964 79.2881 64.946 79.2881 69.632ZM88.6821 69.72C88.1981 70.38 87.4061 71.15 86.2401 71.15C85.1181 71.15 84.4141 70.358 84.4141 69.214C84.4141 67.608 85.6901 66.024 87.4501 66.024C88.4181 66.024 88.9901 66.662 89.2321 67.146L88.6821 69.72ZM107.563 75V67.454C107.563 65.386 106.441 64.11 104.109 64.11C102.371 64.11 101.051 64.946 100.369 65.76V60.326H97.5745V75H100.369V67.85C100.853 67.212 101.711 66.596 102.789 66.596C103.999 66.596 104.769 67.058 104.769 68.532V75H107.563ZM119.95 75V68.136C119.95 65.078 117.728 64.11 115.308 64.11C113.636 64.11 111.964 64.638 110.666 65.782L111.722 67.652C112.624 66.816 113.68 66.398 114.824 66.398C116.232 66.398 117.156 67.102 117.156 68.18V69.654C116.452 68.796 115.198 68.356 113.79 68.356C112.096 68.356 110.094 69.258 110.094 71.744C110.094 74.12 112.096 75.264 113.79 75.264C115.176 75.264 116.43 74.758 117.156 73.9V75H119.95ZM117.156 72.448C116.694 73.064 115.814 73.372 114.912 73.372C113.812 73.372 112.91 72.8 112.91 71.81C112.91 70.798 113.812 70.204 114.912 70.204C115.814 70.204 116.694 70.512 117.156 71.128V72.448ZM122.48 69.676C122.48 72.954 124.834 75.264 128.112 75.264C130.29 75.264 131.61 74.318 132.314 73.328L130.488 71.634C129.982 72.338 129.212 72.778 128.244 72.778C126.55 72.778 125.362 71.524 125.362 69.676C125.362 67.828 126.55 66.596 128.244 66.596C129.212 66.596 129.982 67.014 130.488 67.74L132.314 66.046C131.61 65.056 130.29 64.11 128.112 64.11C124.834 64.11 122.48 66.42 122.48 69.676ZM144.964 75L140.63 69.192L144.832 64.374H141.4L137.374 69.104V60.326H134.58V75H137.374V72.272L138.65 70.908L141.466 75H144.964ZM156.441 75V60.326H153.625V65.738C152.789 64.66 151.601 64.11 150.347 64.11C147.641 64.11 145.639 66.222 145.639 69.698C145.639 73.24 147.663 75.264 150.347 75.264C151.623 75.264 152.789 74.692 153.625 73.658V75H156.441ZM153.625 71.568C153.141 72.272 152.151 72.778 151.205 72.778C149.621 72.778 148.521 71.524 148.521 69.698C148.521 67.85 149.621 66.596 151.205 66.596C152.151 66.596 153.141 67.102 153.625 67.806V71.568ZM168.825 75V68.136C168.825 65.078 166.603 64.11 164.183 64.11C162.511 64.11 160.839 64.638 159.541 65.782L160.597 67.652C161.499 66.816 162.555 66.398 163.699 66.398C165.107 66.398 166.031 67.102 166.031 68.18V69.654C165.327 68.796 164.073 68.356 162.665 68.356C160.971 68.356 158.969 69.258 158.969 71.744C158.969 74.12 160.971 75.264 162.665 75.264C164.051 75.264 165.305 74.758 166.031 73.9V75H168.825ZM166.031 72.448C165.569 73.064 164.689 73.372 163.787 73.372C162.687 73.372 161.785 72.8 161.785 71.81C161.785 70.798 162.687 70.204 163.787 70.204C164.689 70.204 165.569 70.512 166.031 71.128V72.448ZM177.801 75L182.069 64.374H179.055L176.283 71.766L173.511 64.374H170.519L174.787 75H177.801ZM185.142 62.812C186.066 62.812 186.814 62.064 186.814 61.14C186.814 60.216 186.066 59.468 185.142 59.468C184.24 59.468 183.47 60.216 183.47 61.14C183.47 62.064 184.24 62.812 185.142 62.812ZM186.55 75V64.374H183.756V75H186.55ZM188.837 73.614C189.959 74.648 191.741 75.264 193.589 75.264C196.537 75.264 198.187 73.812 198.187 71.854C198.187 69.214 195.745 68.73 193.919 68.378C192.731 68.136 191.895 67.894 191.895 67.234C191.895 66.618 192.555 66.244 193.567 66.244C194.865 66.244 196.075 66.794 196.713 67.476L197.813 65.562C196.779 64.726 195.349 64.11 193.545 64.11C190.751 64.11 189.189 65.672 189.189 67.454C189.189 69.984 191.543 70.424 193.369 70.776C194.579 71.018 195.503 71.282 195.503 72.03C195.503 72.69 194.931 73.108 193.721 73.108C192.401 73.108 190.817 72.382 190.047 71.656L188.837 73.614ZM200.333 73.46C200.333 74.428 201.147 75.242 202.115 75.242C203.083 75.242 203.897 74.428 203.897 73.46C203.897 72.492 203.083 71.678 202.115 71.678C201.147 71.678 200.333 72.492 200.333 73.46ZM208.14 62.812C209.064 62.812 209.812 62.064 209.812 61.14C209.812 60.216 209.064 59.468 208.14 59.468C207.238 59.468 206.468 60.216 206.468 61.14C206.468 62.064 207.238 62.812 208.14 62.812ZM209.548 75V64.374H206.754V75H209.548ZM217.686 75.264C221.206 75.264 223.318 72.712 223.318 69.676C223.318 66.662 221.206 64.11 217.686 64.11C214.188 64.11 212.076 66.662 212.076 69.676C212.076 72.712 214.188 75.264 217.686 75.264ZM217.686 72.778C215.948 72.778 214.98 71.348 214.98 69.676C214.98 68.026 215.948 66.596 217.686 66.596C219.424 66.596 220.414 68.026 220.414 69.676C220.414 71.348 219.424 72.778 217.686 72.778ZM225.765 74.01C225.765 74.67 226.315 75.22 226.975 75.22C227.635 75.22 228.185 74.67 228.185 74.01C228.185 73.35 227.635 72.8 226.975 72.8C226.315 72.8 225.765 73.35 225.765 74.01Z" fill="white"/>
<defs>
<clipPath id="clip0_626_1354">
<rect width="176" height="132" fill="white" transform="matrix(-1 0 0 1 469 0)"/>
</clipPath>
</defs>
</svg>
