<svg width="469" height="132" viewBox="0 0 469 132" fill="none" xmlns="http://www.w3.org/2000/svg">
<g clip-path="url(#clip0_626_1354)">
<path d="M299.274 101.544C299.274 101.544 287.223 119.983 296.551 128.945C305.879 137.906 314.949 117.678 314.949 117.678L321.554 106.209L310.203 85.9261C306.263 90.9169 302.614 96.1316 299.274 101.544Z" fill="#EFEFEF"/>
<path d="M344.35 28.2303C344.35 28.2303 311.766 2.52619 300.433 16.6505C287.407 32.8585 329.65 50.9104 329.65 50.9104L344.35 28.2303Z" fill="#FFCACA"/>
<path d="M310.184 19.8405C307.369 19.8405 306.505 20.8362 306.173 21.3156C305.815 21.6414 305.553 22.06 305.417 22.5251C305.281 22.9903 305.275 23.4842 305.401 23.9524C306.247 27.3821 313.606 34.8868 326.945 41.5986L334.305 30.1664C326.853 25.1878 316.697 19.8405 310.129 19.8405H310.184ZM310.129 12.4648C324.241 12.4648 344.295 28.2856 344.295 28.2856L329.576 50.9657C329.576 50.9657 287.26 32.9138 300.359 16.7058C301.543 15.2867 303.041 14.1642 304.734 13.4279C306.427 12.6916 308.268 12.3618 310.111 12.4648H310.129Z" fill="black"/>
<path d="M332.888 20.3567C329.577 15.608 327.043 10.3608 325.381 4.81259C325.157 4.1 325.154 3.336 325.373 2.62177C325.592 1.90754 326.022 1.27675 326.607 0.812945C327.191 0.349143 327.902 0.0742099 328.646 0.0245236C329.39 -0.0251627 330.131 0.152746 330.772 0.53471C336.511 3.81897 341.778 7.8696 346.429 12.5754C354.653 21.5184 332.888 20.3567 332.888 20.3567Z" fill="#FFC145"/>
<path d="M339.916 162.356C345.204 163.711 350.576 164.709 355.996 165.343C364.286 166.349 372.631 166.83 380.982 166.782C388.238 166.813 395.491 166.463 402.71 165.731C456.471 160.199 454.649 133.923 454.649 133.923C454.649 133.923 454.649 111.003 454.06 101.065C453.14 83.2018 450.678 65.4524 446.701 48.0154C444.555 39.2869 440.149 31.2805 433.927 24.8053C427.705 18.33 419.888 13.6152 411.265 11.1372C398.725 7.52259 385.639 6.1862 372.629 7.19125C365.324 7.74917 358.094 9.04022 351.047 11.045H350.863C342.243 13.4941 334.42 18.18 328.185 24.6294C321.95 31.0787 317.524 39.063 315.354 47.7757C313.927 54.3816 312.859 61.0602 312.153 67.7821C309.319 90.5359 307.093 122.38 307.093 133.997C307.093 133.942 305.879 153.395 339.916 162.356Z" fill="white"/>
<path d="M355.996 165.362C364.286 166.368 372.631 166.848 380.982 166.8C388.238 166.832 395.491 166.481 402.71 165.749C456.471 160.217 454.649 133.942 454.649 133.942C454.649 133.942 454.649 111.022 454.06 101.083C454.06 101.083 413.749 96.2705 405.433 126.216C404.752 128.801 403.724 131.282 402.379 133.591C391.248 152.418 365.067 137.371 356.18 164.698C356.101 164.914 356.04 165.136 355.996 165.362Z" fill="black"/>
<path d="M312.153 67.7821C328.951 59.8164 327.534 35.4215 348.288 35.4215C373.07 35.4215 372.684 7.26501 372.684 7.26501C365.38 7.82294 358.15 9.11401 351.103 11.1188H350.919C342.298 13.5679 334.475 18.2538 328.24 24.7031C322.005 31.1525 317.579 39.1368 315.409 47.8495C313.967 54.4301 312.88 61.084 312.153 67.7821Z" fill="black"/>
<path d="M337.138 137.205V152.252C337.134 155.81 338.095 159.302 339.916 162.356C353.363 165.565 367.162 167.052 380.982 166.782C388.238 166.813 395.491 166.463 402.71 165.731V137.205C402.713 135.999 402.602 134.795 402.379 133.61C401.527 129.036 399.109 124.903 395.542 121.924C391.975 118.945 387.483 117.306 382.84 117.291H357.082C351.804 117.286 346.739 119.38 343 123.114C339.261 126.847 337.153 131.915 337.138 137.205Z" fill="#FFCACA"/>
<path d="M337.12 68.1878C332.608 68.1878 328.951 64.5223 328.951 60.0008C328.951 55.4793 332.608 51.8138 337.12 51.8138C341.631 51.8138 345.289 55.4793 345.289 60.0008C345.289 64.5223 341.631 68.1878 337.12 68.1878Z" fill="black"/>
<path d="M402.71 68.1878C398.199 68.1878 394.541 64.5223 394.541 60.0008C394.541 55.4793 398.199 51.8138 402.71 51.8138C407.222 51.8138 410.879 55.4793 410.879 60.0008C410.879 64.5223 407.222 68.1878 402.71 68.1878Z" fill="black"/>
<path d="M342.584 81.4455C342.584 71.5437 351.121 60.0008 369.961 60.0008C388.801 60.0008 397.007 71.5437 397.007 81.4455C397.007 91.3473 388.783 95.8464 369.961 95.8464C351.139 95.8464 342.584 91.3288 342.584 81.4455Z" fill="#FFCACA"/>
<path d="M375.37 80.8185C373.815 80.8185 372.555 79.1096 372.555 77.0016C372.555 74.8936 373.815 73.1848 375.37 73.1848C376.925 73.1848 378.185 74.8936 378.185 77.0016C378.185 79.1096 376.925 80.8185 375.37 80.8185Z" fill="black"/>
<path d="M358.977 80.8185C357.422 80.8185 356.162 79.1096 356.162 77.0016C356.162 74.8936 357.422 73.1848 358.977 73.1848C360.532 73.1848 361.792 74.8936 361.792 77.0016C361.792 79.1096 360.532 80.8185 358.977 80.8185Z" fill="black"/>
<path d="M426.868 23.0673C430.995 17.5132 434.247 11.3565 436.508 4.81259C436.732 4.1 436.735 3.336 436.516 2.62177C436.298 1.90754 435.867 1.27675 435.283 0.812945C434.699 0.349143 433.987 0.0742099 433.243 0.0245236C432.5 -0.0251627 431.758 0.152746 431.118 0.53471C426.26 3.42965 422.305 5.34732 417.834 10.1968C409.61 19.1582 426.868 23.0673 426.868 23.0673Z" fill="#FFC145"/>
<path d="M425.34 34.7208C424.337 33.462 423.597 32.014 423.163 30.4629C422.729 28.9117 422.611 27.289 422.815 25.6911C423.02 24.0933 423.542 22.5528 424.352 21.1613C425.162 19.7698 426.243 18.5556 427.53 17.5909C437.41 10.2152 452.533 1.4751 460.647 9.73582C470.435 19.7482 455.348 33.0428 444.456 40.6397C441.953 42.3905 438.879 43.1209 435.859 42.6825C432.838 42.2441 430.097 40.6699 428.192 38.2795L425.34 34.7208Z" fill="#FFCACA"/>
<path d="M452.184 13.7556C447.584 13.7556 440.206 17.3143 431.945 23.4914C431.447 23.864 431.029 24.3336 430.717 24.872C430.404 25.4104 430.203 26.0065 430.126 26.6246C430.048 27.2428 430.096 27.8701 430.267 28.4692C430.437 29.0683 430.727 29.6267 431.117 30.1111L433.932 33.6698C434.372 34.2233 434.932 34.6688 435.57 34.9724C436.208 35.2759 436.906 35.4296 437.612 35.4215C438.56 35.4274 439.486 35.1374 440.262 34.5917C451.761 26.5707 456.158 20.3752 456.452 17.2221C456.452 16.7612 456.563 16.0789 455.403 14.8988C454.995 14.4837 454.498 14.1655 453.95 13.9677C453.403 13.7699 452.818 13.6974 452.239 13.7556H452.184ZM452.239 6.37993C453.799 6.32563 455.353 6.5958 456.803 7.17339C458.253 7.75099 459.568 8.62349 460.665 9.73586C470.453 19.7483 455.367 33.0429 444.475 40.6398C441.97 42.3862 438.898 43.114 435.878 42.6758C432.858 42.2376 430.118 40.6662 428.211 38.2796L425.396 34.7208C424.393 33.462 423.652 32.0141 423.218 30.4629C422.785 28.9117 422.666 27.289 422.871 25.6912C423.075 24.0933 423.597 22.5529 424.407 21.1614C425.217 19.7699 426.298 18.5557 427.585 17.5909C434.613 12.3173 444.309 6.37993 452.239 6.37993Z" fill="white"/>
<path d="M463.278 101.968C463.278 101.968 474.777 120.665 465.118 129.442C455.459 138.219 447.051 117.604 447.051 117.604L437.539 100.733L452.736 85.9814C456.556 91.1008 460.077 96.4387 463.278 101.968Z" fill="white"/>
<path d="M413.492 68.1877H417.337C421.869 68.1877 425.543 71.8656 425.543 76.4024C425.543 80.9392 421.869 84.617 417.337 84.617H413.492C408.96 84.617 405.286 80.9392 405.286 76.4024C405.286 71.8656 408.96 68.1877 413.492 68.1877Z" fill="#FFD2D2"/>
<path d="M322.658 68.1877H326.504C331.036 68.1877 334.709 71.8656 334.709 76.4024C334.709 80.9392 331.036 84.617 326.504 84.617H322.658C318.126 84.617 314.453 80.9392 314.453 76.4024C314.453 71.8656 318.126 68.1877 322.658 68.1877Z" fill="#FFD2D2"/>
</g>
<rect y="14" width="260" height="84" rx="16" fill="#005271"/>
<path d="M260 40L260 72L276 56L260 40Z" fill="#005271"/>
<path d="M42.5846 48V33.326H40.7586V44.92L32.3106 33.326H30.4406V48H32.2666V36.164L40.8246 48H42.5846ZM45.7747 42.676C45.7747 45.998 48.0407 48.264 51.1867 48.264C52.9247 48.264 54.3547 47.692 55.4107 46.636L54.6187 45.558C53.7827 46.416 52.5507 46.9 51.3407 46.9C49.0527 46.9 47.6447 45.228 47.5127 43.226H56.1147V42.808C56.1147 39.618 54.2227 37.11 51.0107 37.11C47.9747 37.11 45.7747 39.596 45.7747 42.676ZM50.9887 38.474C53.4087 38.474 54.4647 40.432 54.4867 42.016H47.5127C47.6007 40.388 48.7227 38.474 50.9887 38.474ZM58.6112 42.676C58.6112 45.998 60.8772 48.264 64.0232 48.264C65.7612 48.264 67.1912 47.692 68.2472 46.636L67.4552 45.558C66.6192 46.416 65.3872 46.9 64.1772 46.9C61.8892 46.9 60.4812 45.228 60.3492 43.226H68.9512V42.808C68.9512 39.618 67.0592 37.11 63.8472 37.11C60.8112 37.11 58.6112 39.596 58.6112 42.676ZM63.8252 38.474C66.2452 38.474 67.3012 40.432 67.3232 42.016H60.3492C60.4372 40.388 61.5592 38.474 63.8252 38.474ZM81.4137 48V33.326H79.7637V38.98C78.9057 37.814 77.6077 37.11 76.1777 37.11C73.3837 37.11 71.4477 39.31 71.4477 42.698C71.4477 46.152 73.4057 48.264 76.1777 48.264C77.6737 48.264 78.9717 47.494 79.7637 46.416V48H81.4137ZM79.7637 45.118C79.1697 46.042 77.8937 46.79 76.5737 46.79C74.4397 46.79 73.1637 45.052 73.1637 42.698C73.1637 40.344 74.4397 38.584 76.5737 38.584C77.8937 38.584 79.1697 39.376 79.7637 40.3V45.118ZM100.114 48V40.498C100.114 38.188 98.9479 37.11 96.7259 37.11C95.1199 37.11 93.6679 38.034 92.9199 38.914V33.326H91.2699V48H92.9199V40.234C93.5579 39.376 94.7899 38.584 96.0659 38.584C97.4959 38.584 98.4639 39.134 98.4639 41.004V48H100.114ZM103.233 42.676C103.233 45.998 105.499 48.264 108.645 48.264C110.383 48.264 111.813 47.692 112.869 46.636L112.077 45.558C111.241 46.416 110.009 46.9 108.799 46.9C106.511 46.9 105.103 45.228 104.971 43.226H113.573V42.808C113.573 39.618 111.681 37.11 108.469 37.11C105.433 37.11 103.233 39.596 103.233 42.676ZM108.447 38.474C110.867 38.474 111.923 40.432 111.945 42.016H104.971C105.059 40.388 106.181 38.474 108.447 38.474ZM118.335 48V33.326H116.685V48H118.335ZM123.716 46.394C124.574 47.582 125.85 48.264 127.302 48.264C130.096 48.264 132.032 46.108 132.032 42.676C132.032 39.222 130.096 37.11 127.302 37.11C125.806 37.11 124.486 37.88 123.716 38.958V37.374H122.066V52.048H123.716V46.394ZM130.294 42.676C130.294 45.03 129.018 46.79 126.884 46.79C125.586 46.79 124.288 45.998 123.716 45.074V40.278C124.288 39.354 125.586 38.584 126.884 38.584C129.018 38.584 130.294 40.322 130.294 42.676ZM136.087 42.148C136.087 42.808 136.351 43.424 136.945 43.93L138.287 43.358C137.913 43.072 137.693 42.632 137.693 42.28C137.693 41.312 138.551 40.74 139.497 40.08C140.663 39.266 141.961 38.364 141.961 36.516C141.961 34.624 140.333 33.106 137.649 33.106C135.559 33.106 133.931 33.986 132.875 35.35L133.975 36.538C134.789 35.46 135.823 34.734 137.473 34.734C139.211 34.734 140.069 35.68 140.069 36.78C140.069 37.902 139.167 38.518 138.199 39.178C137.187 39.904 136.087 40.674 136.087 42.148ZM136.197 47.01C136.197 47.67 136.747 48.22 137.407 48.22C138.067 48.22 138.617 47.67 138.617 47.01C138.617 46.35 138.067 45.8 137.407 45.8C136.747 45.8 136.197 46.35 136.197 47.01ZM157.795 48.264C160.457 48.264 162.217 47.032 163.449 45.36L161.887 44.502C161.051 45.756 159.533 46.636 157.795 46.636C154.649 46.636 152.207 44.15 152.207 40.674C152.207 37.176 154.649 34.712 157.795 34.712C159.533 34.712 161.051 35.614 161.887 36.846L163.427 35.988C162.261 34.338 160.457 33.084 157.795 33.084C153.637 33.084 150.315 36.164 150.315 40.674C150.315 45.184 153.637 48.264 157.795 48.264ZM170.793 48.264C174.027 48.264 176.051 45.756 176.051 42.676C176.051 39.596 174.027 37.11 170.793 37.11C167.559 37.11 165.535 39.596 165.535 42.676C165.535 45.756 167.559 48.264 170.793 48.264ZM170.793 46.79C168.527 46.79 167.251 44.854 167.251 42.676C167.251 40.52 168.527 38.584 170.793 38.584C173.059 38.584 174.313 40.52 174.313 42.676C174.313 44.854 173.059 46.79 170.793 46.79ZM188.003 48V40.542C188.003 38.232 186.837 37.11 184.615 37.11C183.031 37.11 181.579 38.034 180.831 38.914V37.374H179.181V48H180.831V40.234C181.447 39.376 182.679 38.584 183.977 38.584C185.407 38.584 186.353 39.178 186.353 41.048V48H188.003ZM194.422 48.264C195.39 48.264 195.984 47.978 196.402 47.582L195.918 46.35C195.698 46.592 195.258 46.79 194.796 46.79C194.07 46.79 193.718 46.218 193.718 45.426V38.826H195.874V37.374H193.718V34.47H192.068V37.374H190.308V38.826H192.068V45.778C192.068 47.362 192.86 48.264 194.422 48.264ZM206.939 48V40.696C206.939 38.122 205.069 37.11 202.825 37.11C201.087 37.11 199.723 37.682 198.579 38.87L199.349 40.014C200.295 39.002 201.329 38.54 202.605 38.54C204.145 38.54 205.289 39.354 205.289 40.784V42.698C204.431 41.708 203.221 41.246 201.769 41.246C199.965 41.246 198.051 42.368 198.051 44.744C198.051 47.054 199.965 48.264 201.769 48.264C203.199 48.264 204.409 47.758 205.289 46.79V48H206.939ZM205.289 45.756C204.651 46.636 203.529 47.076 202.363 47.076C200.823 47.076 199.745 46.108 199.745 44.766C199.745 43.402 200.823 42.434 202.363 42.434C203.529 42.434 204.651 42.874 205.289 43.754V45.756ZM210.07 42.676C210.07 45.844 212.204 48.264 215.372 48.264C217.308 48.264 218.452 47.472 219.266 46.416L218.166 45.404C217.462 46.35 216.56 46.79 215.46 46.79C213.194 46.79 211.786 45.03 211.786 42.676C211.786 40.322 213.194 38.584 215.46 38.584C216.56 38.584 217.462 39.002 218.166 39.97L219.266 38.958C218.452 37.902 217.308 37.11 215.372 37.11C212.204 37.11 210.07 39.53 210.07 42.676ZM224.703 48.264C225.671 48.264 226.265 47.978 226.683 47.582L226.199 46.35C225.979 46.592 225.539 46.79 225.077 46.79C224.351 46.79 223.999 46.218 223.999 45.426V38.826H226.155V37.374H223.999V34.47H222.349V37.374H220.589V38.826H222.349V45.778C222.349 47.362 223.141 48.264 224.703 48.264ZM34.1898 75.264C35.3558 75.264 36.1038 74.956 36.5218 74.582L35.9278 72.47C35.7738 72.624 35.3778 72.778 34.9598 72.778C34.3438 72.778 33.9918 72.272 33.9918 71.612V66.816H36.1478V64.374H33.9918V61.47H31.1758V64.374H29.4158V66.816H31.1758V72.36C31.1758 74.252 32.2318 75.264 34.1898 75.264ZM37.8174 69.676C37.8174 73.086 40.2594 75.264 43.4934 75.264C45.1434 75.264 46.7934 74.78 47.8714 73.79L46.6394 71.986C45.9574 72.646 44.7914 73.042 43.8014 73.042C41.9974 73.042 40.9194 71.92 40.7434 70.578H48.6414V69.962C48.6414 66.486 46.4854 64.11 43.3174 64.11C40.0834 64.11 37.8174 66.596 37.8174 69.676ZM43.3174 66.332C45.1654 66.332 45.8694 67.674 45.9354 68.686H40.6994C40.8314 67.63 41.5794 66.332 43.3174 66.332ZM60.2735 75V68.136C60.2735 65.078 58.0515 64.11 55.6315 64.11C53.9595 64.11 52.2875 64.638 50.9895 65.782L52.0455 67.652C52.9475 66.816 54.0035 66.398 55.1475 66.398C56.5555 66.398 57.4795 67.102 57.4795 68.18V69.654C56.7755 68.796 55.5215 68.356 54.1135 68.356C52.4195 68.356 50.4175 69.258 50.4175 71.744C50.4175 74.12 52.4195 75.264 54.1135 75.264C55.4995 75.264 56.7535 74.758 57.4795 73.9V75H60.2735ZM57.4795 72.448C57.0175 73.064 56.1375 73.372 55.2355 73.372C54.1355 73.372 53.2335 72.8 53.2335 71.81C53.2335 70.798 54.1355 70.204 55.2355 70.204C56.1375 70.204 57.0175 70.512 57.4795 71.128V72.448ZM79.4788 75V67.322C79.4788 65.144 78.3128 64.11 76.3548 64.11C74.7268 64.11 73.3188 65.078 72.7028 66.046C72.3068 64.836 71.3168 64.11 69.7548 64.11C68.1268 64.11 66.7188 65.122 66.2788 65.76V64.374H63.4848V75H66.2788V67.85C66.6968 67.256 67.5108 66.596 68.4788 66.596C69.6228 66.596 70.0628 67.3 70.0628 68.29V75H72.8788V67.828C73.2748 67.256 74.0888 66.596 75.0788 66.596C76.2228 66.596 76.6628 67.3 76.6628 68.29V75H79.4788ZM82.0432 69.632C82.0432 73.526 85.0132 76.54 89.0172 76.54C90.6452 76.54 92.2292 76.034 93.5932 75.154L93.1312 74.494C91.9432 75.242 90.6012 75.704 89.1052 75.704C85.5192 75.704 82.9012 73.042 82.9012 69.588C82.9012 65.474 86.5092 61.822 90.6892 61.822C94.3852 61.822 96.7612 64.22 96.7612 67.696C96.7612 70.204 95.5512 71.238 94.6932 71.238C94.2312 71.238 93.8792 70.93 93.8792 70.248C93.8792 70.116 93.9232 69.852 93.9452 69.72L95.0672 64.352H92.5812L92.3392 65.518C91.8772 64.682 90.9092 64.044 89.5892 64.044C87.0372 64.044 84.6172 66.486 84.6172 69.434C84.6172 71.568 85.8932 73.13 88.0272 73.13C89.2152 73.13 90.4032 72.448 91.1732 71.37L91.2172 71.502C91.3492 72.338 92.0312 73.13 93.3512 73.13C95.2652 73.13 97.7072 71.392 97.7072 67.696C97.7072 64.044 94.9792 60.964 90.7772 60.964C86.2012 60.964 82.0432 64.946 82.0432 69.632ZM91.4372 69.72C90.9532 70.38 90.1612 71.15 88.9952 71.15C87.8732 71.15 87.1692 70.358 87.1692 69.214C87.1692 67.608 88.4452 66.024 90.2052 66.024C91.1732 66.024 91.7452 66.662 91.9872 67.146L91.4372 69.72ZM110.318 75V67.454C110.318 65.386 109.196 64.11 106.864 64.11C105.126 64.11 103.806 64.946 103.124 65.76V60.326H100.33V75H103.124V67.85C103.608 67.212 104.466 66.596 105.544 66.596C106.754 66.596 107.524 67.058 107.524 68.532V75H110.318ZM122.705 75V68.136C122.705 65.078 120.483 64.11 118.063 64.11C116.391 64.11 114.719 64.638 113.421 65.782L114.477 67.652C115.379 66.816 116.435 66.398 117.579 66.398C118.987 66.398 119.911 67.102 119.911 68.18V69.654C119.207 68.796 117.953 68.356 116.545 68.356C114.851 68.356 112.849 69.258 112.849 71.744C112.849 74.12 114.851 75.264 116.545 75.264C117.931 75.264 119.185 74.758 119.911 73.9V75H122.705ZM119.911 72.448C119.449 73.064 118.569 73.372 117.667 73.372C116.567 73.372 115.665 72.8 115.665 71.81C115.665 70.798 116.567 70.204 117.667 70.204C118.569 70.204 119.449 70.512 119.911 71.128V72.448ZM125.235 69.676C125.235 72.954 127.589 75.264 130.867 75.264C133.045 75.264 134.365 74.318 135.069 73.328L133.243 71.634C132.737 72.338 131.967 72.778 130.999 72.778C129.305 72.778 128.117 71.524 128.117 69.676C128.117 67.828 129.305 66.596 130.999 66.596C131.967 66.596 132.737 67.014 133.243 67.74L135.069 66.046C134.365 65.056 133.045 64.11 130.867 64.11C127.589 64.11 125.235 66.42 125.235 69.676ZM147.719 75L143.385 69.192L147.587 64.374H144.155L140.129 69.104V60.326H137.335V75H140.129V72.272L141.405 70.908L144.221 75H147.719ZM159.196 75V60.326H156.38V65.738C155.544 64.66 154.356 64.11 153.102 64.11C150.396 64.11 148.394 66.222 148.394 69.698C148.394 73.24 150.418 75.264 153.102 75.264C154.378 75.264 155.544 74.692 156.38 73.658V75H159.196ZM156.38 71.568C155.896 72.272 154.906 72.778 153.96 72.778C152.376 72.778 151.276 71.524 151.276 69.698C151.276 67.85 152.376 66.596 153.96 66.596C154.906 66.596 155.896 67.102 156.38 67.806V71.568ZM171.581 75V68.136C171.581 65.078 169.359 64.11 166.939 64.11C165.267 64.11 163.595 64.638 162.297 65.782L163.353 67.652C164.255 66.816 165.311 66.398 166.455 66.398C167.863 66.398 168.787 67.102 168.787 68.18V69.654C168.083 68.796 166.829 68.356 165.421 68.356C163.727 68.356 161.725 69.258 161.725 71.744C161.725 74.12 163.727 75.264 165.421 75.264C166.807 75.264 168.061 74.758 168.787 73.9V75H171.581ZM168.787 72.448C168.325 73.064 167.445 73.372 166.543 73.372C165.443 73.372 164.541 72.8 164.541 71.81C164.541 70.798 165.443 70.204 166.543 70.204C167.445 70.204 168.325 70.512 168.787 71.128V72.448ZM180.556 75L184.824 64.374H181.81L179.038 71.766L176.266 64.374H173.274L177.542 75H180.556ZM187.897 62.812C188.821 62.812 189.569 62.064 189.569 61.14C189.569 60.216 188.821 59.468 187.897 59.468C186.995 59.468 186.225 60.216 186.225 61.14C186.225 62.064 186.995 62.812 187.897 62.812ZM189.305 75V64.374H186.511V75H189.305ZM191.592 73.614C192.714 74.648 194.496 75.264 196.344 75.264C199.292 75.264 200.942 73.812 200.942 71.854C200.942 69.214 198.5 68.73 196.674 68.378C195.486 68.136 194.65 67.894 194.65 67.234C194.65 66.618 195.31 66.244 196.322 66.244C197.62 66.244 198.83 66.794 199.468 67.476L200.568 65.562C199.534 64.726 198.104 64.11 196.3 64.11C193.506 64.11 191.944 65.672 191.944 67.454C191.944 69.984 194.298 70.424 196.124 70.776C197.334 71.018 198.258 71.282 198.258 72.03C198.258 72.69 197.686 73.108 196.476 73.108C195.156 73.108 193.572 72.382 192.802 71.656L191.592 73.614ZM203.088 73.46C203.088 74.428 203.902 75.242 204.87 75.242C205.838 75.242 206.652 74.428 206.652 73.46C206.652 72.492 205.838 71.678 204.87 71.678C203.902 71.678 203.088 72.492 203.088 73.46ZM210.895 62.812C211.819 62.812 212.567 62.064 212.567 61.14C212.567 60.216 211.819 59.468 210.895 59.468C209.993 59.468 209.223 60.216 209.223 61.14C209.223 62.064 209.993 62.812 210.895 62.812ZM212.303 75V64.374H209.509V75H212.303ZM220.441 75.264C223.961 75.264 226.073 72.712 226.073 69.676C226.073 66.662 223.961 64.11 220.441 64.11C216.943 64.11 214.831 66.662 214.831 69.676C214.831 72.712 216.943 75.264 220.441 75.264ZM220.441 72.778C218.703 72.778 217.735 71.348 217.735 69.676C217.735 68.026 218.703 66.596 220.441 66.596C222.179 66.596 223.169 68.026 223.169 69.676C223.169 71.348 222.179 72.778 220.441 72.778Z" fill="white"/>
<defs>
<clipPath id="clip0_626_1354">
<rect width="176" height="132" fill="white" transform="matrix(-1 0 0 1 469 0)"/>
</clipPath>
</defs>
</svg>
