<svg width="32" height="32" viewBox="0 0 32 32" fill="none"
    xmlns="http://www.w3.org/2000/svg">
    <path d="M9.63701 16.1929L9.63701 11.6017L-9.99032e-08 21.2303L2.27722 23.5522L9.63701 16.1929ZM31.5961 13.3237C30.88 9.7206 28.1841 7.02828 27.8737 6.72811L21.2484 9.40311e-08L17.4626 3.78267L17.1934 4.05147L17.1934 8.64215L21.2295 4.60962L24.9974 8.43555L25.5721 9.01912L25.6133 9.05915C25.6203 9.06618 25.8662 9.30577 26.2124 9.71952C26.9204 10.5665 28.0476 12.1436 28.4083 13.9554C28.9457 16.6618 29.216 19.8165 26.2124 23.6603L26.2124 28.4057C26.4957 28.1607 26.6733 27.9849 26.7373 27.9206C29.4245 25.285 31.0442 22.6197 31.6877 19.7733C32.2461 17.3049 31.9547 15.1274 31.5961 13.3237ZM11.5334 27.4938L11.4316 27.4441L11.3823 27.4284C11.3108 27.3943 11.0427 27.2548 10.5459 26.8962C10.3006 26.7183 9.99831 26.4868 9.63701 26.1877C9.09045 25.7345 8.40794 25.1266 7.57538 24.3158L5.71254 22.4164L3.4142 24.7112L5.2662 26.5987L5.29112 26.6242C8.15822 29.4214 9.63159 30.2202 10.1744 30.4425C12.1401 31.3847 13.9878 31.8314 15.6697 31.9596C16.603 32.031 17.4854 32.0039 18.3082 31.9087C18.3786 31.9006 18.449 31.892 18.5189 31.8828L18.5189 28.5928C16.5521 28.9303 14.1784 28.774 11.5334 27.4938Z" fill="white"/>
    <path d="M15.571 5.67651L15.571 25.2751L11.2646 25.2751L11.2646 9.97947L11.6974 9.5468L11.9293 9.31586L13.2304 8.01567L14.1123 7.13409L14.3993 6.84744L15.2817 5.96532L15.571 5.67651Z" fill="white"/>
    <path d="M24.576 10.0588L24.576 29.6179C24.557 29.6304 24.538 29.6428 24.5185 29.6553C24.3208 29.7824 24.1101 29.9111 23.888 30.0387C23.8149 30.0809 23.7407 30.1231 23.6643 30.1653C23.4644 30.2761 23.2559 30.3859 23.0387 30.4936C22.8383 30.5931 22.6302 30.691 22.4152 30.7856C22.2982 30.837 22.1796 30.8873 22.0582 30.9376C21.9022 31.0014 21.7408 31.0642 21.5745 31.1253C21.4451 31.1734 21.3129 31.2194 21.1775 31.2648C20.911 31.3551 20.6331 31.4395 20.3433 31.5179C20.2739 31.5369 20.2035 31.5547 20.1326 31.5726L20.1326 10.0588L24.576 10.0588Z" fill="white"/>
    <path d="M20.1362 15.2253L15.5606 15.2253L15.5606 19.6624L20.1362 19.6624L20.1362 15.2253Z" fill="white"/>
</svg>
