<svg width="64" height="111" viewBox="0 0 64 111" fill="none" xmlns="http://www.w3.org/2000/svg">
<g clip-path="url(#clip0_628_543)">
<path d="M3.58459 43.1964C3.58459 42.7769 4.49052 42.593 5.09502 42.593H59.2324C59.8369 42.593 59.9608 42.7769 59.9608 43.1964V100.352C59.959 100.595 59.8824 100.832 59.7413 101.032C59.6001 101.231 59.4011 101.383 59.1705 101.468L33.2636 110.852C32.6419 111.044 31.9756 111.044 31.3539 110.852L4.74633 101.47C4.20701 101.279 3.58459 100.778 3.58459 100.352V43.1964Z" fill="#F7F7F7"/>
<path opacity="0.42" d="M58.0251 63.0314V56.4714H5.61646L58.0251 63.0314Z" fill="#E0E0E0"/>
<path d="M61.4762 53.6462C61.4762 53.6462 35.4421 62.1664 2.59729 53.6462V37.064C32.9036 44.8743 61.4762 37.064 61.4762 37.064V53.6462Z" fill="white"/>
<path d="M61.4762 37.064V53.6463C61.4762 53.6463 49.9044 57.4361 32.4603 57.4361C22.3833 57.442 12.3471 56.1684 2.59727 53.6463V37.064C12.6994 39.6664 22.6059 40.5344 31.3279 40.5344C48.7752 40.5344 61.4713 37.064 61.4713 37.064H61.4762ZM64.0098 33.7615L60.7967 34.6408C60.6598 34.6779 48.174 38.0208 31.323 38.0208C21.41 38.0208 11.958 36.8801 3.2311 34.6327L0.0587158 33.8115V55.592L1.9553 56.0776C11.9153 58.6539 22.1678 59.9552 32.462 59.9497C50.1113 59.9497 61.7906 56.1954 62.2794 56.0357L64.0212 55.4662V33.7615H64.0098Z" fill="#F7F7F7"/>
<path d="M12.3279 43.5467C12.5028 43.5772 12.6694 43.6437 12.8167 43.7419C12.9567 43.8334 13.0783 43.9499 13.1752 44.0856C13.2685 44.22 13.3359 44.3705 13.3739 44.5292C13.4165 44.696 13.4226 44.8698 13.3919 45.0391L12.4925 50.0792C12.4623 50.2489 12.3944 50.4099 12.2937 50.5503C12.1942 50.6892 12.07 50.809 11.9271 50.9037C11.7789 50.9993 11.6125 51.0641 11.4382 51.094C11.2553 51.1289 11.0672 51.1289 10.8843 51.094C9.49387 50.8316 8.10619 50.545 6.72123 50.2341C6.53918 50.1923 6.36636 50.1179 6.21123 50.0147C6.06314 49.917 5.93582 49.7914 5.83648 49.6452C5.73931 49.5044 5.67273 49.345 5.64095 49.1774C5.60782 49.008 5.61227 48.8335 5.65399 48.6659C6.05481 47.0095 6.45672 45.3526 6.85972 43.6951C6.89893 43.5311 6.97088 43.3765 7.07134 43.2405C7.17179 43.1045 7.29873 42.9897 7.44466 42.903C7.59139 42.8189 7.75187 42.761 7.91881 42.7319C8.0921 42.7002 8.27012 42.7041 8.44184 42.7432C9.7323 43.0347 11.0276 43.3025 12.3279 43.5467ZM11.3063 45.2504C10.4297 45.0805 9.5547 44.9003 8.68136 44.7099L7.82105 48.5627C8.72481 48.7616 9.63128 48.9488 10.5405 49.1241C10.7914 47.8345 11.0467 46.5433 11.3063 45.2504Z" fill="#122F4C"/>
<path d="M21.2128 44.8987C21.2306 44.9198 21.2438 44.9443 21.2516 44.9707C21.2595 44.997 21.2618 45.0247 21.2585 45.052L21.1069 46.4927C21.1004 46.5483 21.0719 46.5991 21.0276 46.6339C20.9833 46.6687 20.9268 46.6846 20.8707 46.6783C19.6085 46.5449 18.3484 46.3905 17.0905 46.2152C17.0514 46.2152 17.0319 46.2152 17.027 46.2507C16.9716 46.6444 16.9173 47.0391 16.8641 47.4349C16.862 47.4423 16.8617 47.45 16.8632 47.4574C16.8648 47.4649 16.868 47.4719 16.8728 47.4779C16.8776 47.4838 16.8837 47.4886 16.8906 47.4918C16.8976 47.495 16.9053 47.4965 16.9129 47.4962C17.8786 47.6318 18.8454 47.7544 19.8132 47.8641C19.8409 47.8662 19.8678 47.8741 19.8922 47.8871C19.9166 47.9002 19.938 47.9182 19.955 47.9399C19.9896 47.9863 20.0042 48.0443 19.9957 48.1013L19.8328 49.4629C19.8305 49.4901 19.8227 49.5166 19.8098 49.5407C19.797 49.5649 19.7793 49.5862 19.7578 49.6033C19.7356 49.6221 19.7095 49.6357 19.6813 49.6432C19.6531 49.6508 19.6236 49.652 19.5949 49.6469C18.6173 49.5393 17.6353 49.4151 16.649 49.2742C16.6416 49.2716 16.6338 49.2708 16.6261 49.2719C16.6184 49.2729 16.611 49.2757 16.6047 49.2802C16.5983 49.2846 16.5931 49.2904 16.5894 49.2973C16.5858 49.3041 16.5839 49.3116 16.5838 49.3194C16.4676 50.1346 16.3508 50.9494 16.2335 51.7636C16.2139 51.9024 16.1292 51.9604 15.9793 51.9395C15.4335 51.8604 14.8893 51.7781 14.3499 51.6942C14.2 51.67 14.1365 51.591 14.1593 51.4522C14.546 49.0623 14.9327 46.6718 15.3194 44.2808C15.3201 44.2521 15.3276 44.224 15.3411 44.1987C15.3546 44.1733 15.3739 44.1514 15.3974 44.1347C15.421 44.118 15.4481 44.1069 15.4767 44.1023C15.5053 44.0977 15.5345 44.0997 15.5622 44.1082C17.3936 44.3953 19.2299 44.6357 21.0711 44.8293C21.1257 44.8331 21.1766 44.8581 21.2128 44.8987Z" fill="#122F4C"/>
<path d="M28.2875 45.4037C28.3065 45.4237 28.3212 45.4473 28.3307 45.4731C28.3403 45.4989 28.3444 45.5263 28.3429 45.5537C28.3234 46.0377 28.3055 46.5217 28.2859 47.0058C28.2856 47.0334 28.2794 47.0606 28.2676 47.0857C28.2558 47.1107 28.2387 47.133 28.2175 47.151C28.1957 47.1709 28.1699 47.1861 28.1419 47.1955C28.1138 47.205 28.0841 47.2085 28.0545 47.2058C26.7869 47.1542 25.5209 47.0816 24.2565 46.988C24.219 46.988 24.1994 46.9977 24.1962 47.0267C24.1669 47.4258 24.1364 47.8232 24.1049 48.219C24.1034 48.2266 24.1037 48.2345 24.1057 48.242C24.1078 48.2494 24.1115 48.2564 24.1168 48.2622C24.122 48.2679 24.1285 48.2725 24.1358 48.2753C24.143 48.2782 24.1509 48.2794 24.1587 48.2787C25.1287 48.3518 26.0998 48.4115 27.072 48.4578C27.0997 48.4583 27.1269 48.4646 27.1519 48.4763C27.1769 48.4879 27.1991 48.5047 27.217 48.5255C27.2353 48.5458 27.2492 48.5696 27.2579 48.5954C27.2666 48.6212 27.2699 48.6485 27.2675 48.6756C27.2469 49.1316 27.2252 49.5882 27.2024 50.0453C27.2007 50.1003 27.1773 50.1525 27.1372 50.1905C27.1167 50.2098 27.0923 50.2245 27.0656 50.2337C27.0389 50.2429 27.0105 50.2463 26.9824 50.2438C25.995 50.1954 25.0087 50.1346 24.0235 50.0615C23.9844 50.0615 23.9632 50.076 23.9616 50.1115C23.8975 50.9332 23.8345 51.7539 23.7725 52.5735C23.7628 52.7122 23.6813 52.7752 23.5298 52.7639C22.9807 52.7219 22.4332 52.6751 21.8857 52.6267C21.7342 52.6122 21.6658 52.5364 21.6788 52.3976C21.9069 49.9873 22.1356 47.5769 22.3648 45.1665C22.3635 45.1379 22.369 45.1094 22.3807 45.0832C22.3924 45.0571 22.4101 45.0339 22.4323 45.0157C22.4546 44.9974 22.4808 44.9844 22.5089 44.9779C22.5371 44.9713 22.5664 44.9712 22.5945 44.9777C24.4411 45.1455 26.2878 45.2671 28.1344 45.3424C28.1628 45.3414 28.1911 45.3464 28.2175 45.357C28.2439 45.3675 28.2677 45.3834 28.2875 45.4037Z" fill="#122F4C"/>
<path d="M31.3507 52.8913C31.3507 53.03 31.2725 53.0994 31.121 53.0978C30.5719 53.0897 30.0212 53.08 29.4721 53.0655C29.3205 53.0655 29.2472 52.9897 29.2505 52.8509L29.4607 45.5908C29.4575 45.5623 29.4611 45.5335 29.471 45.5066C29.481 45.4798 29.4971 45.4555 29.5181 45.4359C29.539 45.4162 29.5643 45.4016 29.592 45.3932C29.6196 45.3848 29.6488 45.3828 29.6774 45.3875C30.1912 45.4025 30.7044 45.4128 31.2171 45.4181C31.2459 45.4143 31.2752 45.4172 31.3027 45.4265C31.3302 45.4358 31.3551 45.4513 31.3755 45.4718C31.3959 45.4923 31.4112 45.5173 31.4202 45.5446C31.4292 45.572 31.4316 45.601 31.4273 45.6295C31.4012 48.0495 31.3757 50.4701 31.3507 52.8913Z" fill="#122F4C"/>
<path d="M35.2188 47.3156C35.1988 47.3336 35.1832 47.3559 35.173 47.3808C35.1629 47.4056 35.1585 47.4324 35.1602 47.4592L35.2433 51.0086C35.243 51.0358 35.249 51.0628 35.2609 51.0874C35.2728 51.112 35.2901 51.1336 35.3117 51.1506C35.3578 51.1869 35.4159 51.2047 35.4746 51.2006C36.7325 51.1705 37.9899 51.1167 39.2466 51.0392C39.2758 51.0364 39.3052 51.0394 39.3332 51.048C39.3612 51.0566 39.3871 51.0706 39.4096 51.0892C39.4315 51.1069 39.4494 51.129 39.4621 51.154C39.4747 51.1791 39.4818 51.2065 39.4829 51.2345L39.5709 52.6784C39.5728 52.7065 39.5687 52.7347 39.5589 52.7611C39.5491 52.7875 39.5337 52.8115 39.5139 52.8317C39.4709 52.8752 39.4123 52.9001 39.3509 52.9011C38.5199 52.9484 37.6884 52.9876 36.8564 53.0188C36.1698 53.0425 35.4844 53.0613 34.8001 53.0753H34.585C34.3994 53.08 34.2147 53.0493 34.0408 52.985C33.874 52.9252 33.7207 52.8336 33.5895 52.7155C33.4623 52.6006 33.3603 52.4612 33.2897 52.3057C33.2174 52.1493 33.1802 51.9792 33.1805 51.8072V51.6281C33.1805 51.3619 33.1805 51.0941 33.1805 50.8214L33.1658 48.2642C33.1658 48.0271 33.1658 47.7899 33.1658 47.5511V46.7073C33.1642 46.5358 33.1975 46.3657 33.2636 46.2072C33.3274 46.0537 33.4222 45.9148 33.5422 45.799C33.6631 45.6826 33.8038 45.5881 33.9577 45.5199C34.1171 45.4488 34.2896 45.411 34.4644 45.4086H34.6648C36.077 45.3806 37.4929 45.3268 38.9126 45.2472C38.9404 45.245 38.9684 45.2484 38.9948 45.2571C39.0213 45.2658 39.0457 45.2796 39.0667 45.2978C39.0877 45.316 39.1047 45.3382 39.1169 45.363C39.129 45.3879 39.136 45.4149 39.1375 45.4425L39.2255 46.8945C39.2276 46.9221 39.2239 46.9498 39.2146 46.9759C39.2054 47.002 39.1908 47.0259 39.1717 47.0461C39.1529 47.067 39.1301 47.0838 39.1047 47.0957C39.0792 47.1077 39.0516 47.1144 39.0234 47.1155C37.809 47.1844 36.5951 47.2344 35.3818 47.2656C35.3526 47.2626 35.3232 47.2656 35.2952 47.2742C35.2672 47.2828 35.2412 47.2968 35.2188 47.3156Z" fill="#122F4C"/>
<path d="M43.5547 52.3832C43.5678 52.522 43.4993 52.5978 43.3494 52.6107C42.8004 52.6623 42.2529 52.7091 41.7038 52.7511C41.5523 52.7624 41.4724 52.6994 41.461 52.5607C41.2742 50.1471 41.0874 47.7329 40.9005 45.3183C40.8943 45.2903 40.8949 45.2612 40.902 45.2335C40.9092 45.2057 40.9228 45.18 40.9418 45.1583C40.9608 45.1367 40.9846 45.1198 41.0114 45.1089C41.0382 45.098 41.0672 45.0934 41.096 45.0956C41.6077 45.0558 42.1193 45.0123 42.6309 44.9649C42.659 44.9582 42.6884 44.958 42.7166 44.9643C42.7448 44.9707 42.7711 44.9834 42.7936 45.0016C42.816 45.0197 42.8338 45.0427 42.8458 45.0688C42.8577 45.095 42.8633 45.1234 42.8623 45.1521C43.0936 47.5625 43.3245 49.9728 43.5547 52.3832Z" fill="#122F4C"/>
<path d="M49.7952 44.0678C49.9681 44.0391 50.1451 44.0463 50.315 44.0887C50.4775 44.1292 50.6315 44.198 50.7696 44.292C50.9061 44.3878 51.0238 44.5075 51.1166 44.6454C51.2134 44.7883 51.2783 44.95 51.3073 45.1197C51.6625 47.1525 52.0171 49.1848 52.3713 51.2166C52.3771 51.2447 52.3766 51.2737 52.3699 51.3016C52.3631 51.3295 52.3502 51.3556 52.3321 51.378C52.2956 51.4253 52.2418 51.4566 52.1823 51.4651C51.6391 51.5565 51.0906 51.6452 50.5366 51.7313C50.4797 51.7407 50.4213 51.728 50.3737 51.6958C50.3496 51.6812 50.3293 51.6614 50.314 51.638C50.2988 51.6145 50.2891 51.5879 50.2857 51.5603L49.9826 49.6242C49.9793 49.597 49.9705 49.5707 49.9568 49.5469C49.9431 49.5231 49.9247 49.5022 49.9028 49.4855C49.8797 49.4684 49.8533 49.4564 49.8252 49.4503C49.7971 49.4442 49.768 49.4441 49.7398 49.45C48.9729 49.564 48.206 49.6715 47.4392 49.7726C47.4101 49.7753 47.3819 49.7837 47.3562 49.7973C47.3305 49.8108 47.3077 49.8293 47.2893 49.8517C47.2703 49.8737 47.2566 49.8996 47.2489 49.9275C47.2413 49.9554 47.2401 49.9846 47.2453 50.013L47.4978 51.9507C47.5157 52.0878 47.4489 52.1669 47.299 52.1862C46.7516 52.254 46.2057 52.3202 45.6583 52.3815C45.5067 52.3976 45.4236 52.3363 45.409 52.1992L44.7197 46.049C44.6998 45.8789 44.7148 45.7066 44.7637 45.5424C44.8109 45.3831 44.8901 45.2349 44.9967 45.1068C45.1056 44.9779 45.2363 44.8687 45.3829 44.7841C45.5328 44.6975 45.6993 44.6426 45.8717 44.6228C47.1817 44.4604 48.4896 44.2754 49.7952 44.0678ZM49.6926 47.7785C49.5948 47.1429 49.496 46.5067 49.396 45.8699C48.5162 46.0044 47.6352 46.128 46.7532 46.241L47.0025 48.1561C47.9008 48.042 48.7986 47.9173 49.6958 47.7818L49.6926 47.7785Z" fill="#122F4C"/>
<path d="M59.1364 48.1512C59.1638 48.1439 59.1924 48.1423 59.2205 48.1465C59.2485 48.1506 59.2754 48.1605 59.2994 48.1754C59.3229 48.1898 59.3431 48.2089 59.3588 48.2314C59.3745 48.2538 59.3853 48.2793 59.3906 48.3061L59.7328 49.713C59.7404 49.7401 59.7421 49.7684 59.7379 49.7962C59.7337 49.824 59.7236 49.8506 59.7084 49.8743C59.6934 49.8987 59.6735 49.9197 59.65 49.9361C59.6264 49.9525 59.5997 49.9639 59.5715 49.9695C57.8845 50.3664 56.1922 50.7262 54.4944 51.0489C54.3461 51.0763 54.2581 51.023 54.2321 50.8875C53.7758 48.5094 53.3207 46.1308 52.8666 43.7516C52.8573 43.7249 52.8543 43.6964 52.8579 43.6684C52.8615 43.6403 52.8716 43.6135 52.8873 43.5899C52.9031 43.5664 52.9241 43.5467 52.9488 43.5325C52.9735 43.5183 53.0011 43.5099 53.0296 43.508C53.5363 43.4112 54.0414 43.3128 54.5465 43.2095C54.5739 43.1994 54.6032 43.1957 54.6323 43.1988C54.6613 43.2019 54.6892 43.2117 54.7137 43.2274C54.7382 43.2431 54.7587 43.2642 54.7736 43.2891C54.7884 43.314 54.7971 43.342 54.7991 43.3708C55.1706 45.1359 55.5415 46.9003 55.9119 48.6643C55.917 48.6912 55.9281 48.7166 55.9445 48.7387C55.9609 48.7608 55.982 48.7789 56.0064 48.7918C56.0563 48.8184 56.1143 48.8259 56.1694 48.8127C57.1644 48.6051 58.1534 48.3847 59.1364 48.1512Z" fill="#122F4C"/>
<path d="M64.0538 33.7582L60.8113 32.1658L60.7755 0H2.93289L2.9948 32.4288L0.0179443 33.8808L2.9948 35.9282V35.9782H3.06161L3.24247 36.104L3.25876 35.9782H4.26082C4.26082 35.9782 32.0285 44.2338 60.3893 36.104H60.813V35.9782H60.8309L64.0538 33.7582Z" fill="#F7F7F7"/>
<path d="M14.3287 90.5795C14.4817 90.6422 14.6203 90.7349 14.736 90.8522C14.8504 90.9697 14.9431 91.1063 15.0098 91.2555C15.0793 91.4076 15.1149 91.5727 15.1141 91.7395V93.7869C15.1152 93.9575 15.0797 94.1263 15.0098 94.2822C14.9439 94.4334 14.8512 94.5716 14.736 94.6904C14.6207 94.8081 14.482 94.901 14.3287 94.9631C14.1704 95.029 14.0002 95.0625 13.8285 95.0615H9.4406C9.41331 95.0652 9.38554 95.0628 9.35932 95.0544C9.3331 95.0461 9.30909 95.0321 9.28908 95.0133C9.26907 94.9946 9.25356 94.9717 9.24368 94.9462C9.23381 94.9208 9.22983 94.8934 9.23204 94.8663V93.5481C9.2316 93.5209 9.23669 93.4938 9.24702 93.4686C9.25734 93.4433 9.27269 93.4204 9.29214 93.4011C9.3116 93.3819 9.33476 93.3667 9.36027 93.3564C9.38577 93.3462 9.41309 93.3412 9.4406 93.3416H13.1881C13.2429 93.3432 13.2961 93.3235 13.3364 93.2868C13.3561 93.2688 13.3717 93.2468 13.3821 93.2223C13.3925 93.1978 13.3975 93.1714 13.3967 93.1448V92.2413C13.397 92.2141 13.3918 92.1871 13.3815 92.1619C13.3711 92.1367 13.3558 92.1138 13.3364 92.0945C13.3172 92.075 13.2941 92.0596 13.2686 92.0493C13.2431 92.0391 13.2157 92.0341 13.1881 92.0348H10.5176C10.265 92.0362 10.0175 91.9636 9.80645 91.8261C9.59538 91.6886 9.43011 91.4923 9.33143 91.262C9.26535 91.109 9.23153 90.9443 9.23204 90.778V88.7177C9.23098 88.5476 9.2648 88.3791 9.33143 88.2224C9.39353 88.0707 9.48674 87.9333 9.60516 87.819C9.72579 87.7059 9.86525 87.6142 10.0174 87.548C10.1749 87.479 10.3454 87.4438 10.5176 87.4447H14.6644C14.6927 87.4407 14.7216 87.4432 14.7488 87.4522C14.7759 87.4611 14.8006 87.4762 14.8209 87.4963C14.8411 87.5163 14.8564 87.5408 14.8654 87.5677C14.8744 87.5946 14.877 87.6232 14.8729 87.6513V88.9904C14.8739 89.0169 14.8691 89.0434 14.8587 89.068C14.8482 89.0925 14.8325 89.1145 14.8126 89.1323C14.7718 89.168 14.7188 89.1871 14.6644 89.1856H11.1563C11.1294 89.1849 11.1026 89.19 11.0778 89.2006C11.053 89.2112 11.0309 89.227 11.0129 89.2469C10.9762 89.287 10.9563 89.3395 10.9575 89.3937V90.2746C10.9563 90.3288 10.9762 90.3813 11.0129 90.4214C11.0309 90.4413 11.053 90.4571 11.0778 90.4677C11.1026 90.4783 11.1294 90.4834 11.1563 90.4827H13.8285C14 90.4821 14.17 90.515 14.3287 90.5795Z" fill="#122F4C"/>
<path d="M22.6091 87.5044C22.6287 87.5236 22.6441 87.5465 22.6544 87.5717C22.6648 87.597 22.6699 87.624 22.6694 87.6513V89.0226C22.67 89.0492 22.6649 89.0755 22.6545 89.1C22.6442 89.1244 22.6287 89.1465 22.6091 89.1646C22.5684 89.2007 22.5155 89.2203 22.4608 89.2195H18.7768C18.7394 89.2195 18.7214 89.2372 18.7214 89.2727V90.4601C18.7214 90.4892 18.7394 90.5037 18.7768 90.5037H21.9215C21.9484 90.5027 21.9751 90.5075 21.9999 90.5178C22.0247 90.5281 22.0469 90.5437 22.0649 90.5634C22.101 90.6038 22.1202 90.6563 22.1187 90.7102V91.8009C22.1203 91.8548 22.1011 91.9073 22.0649 91.9477C22.0469 91.9674 22.0247 91.9829 21.9999 91.9932C21.9751 92.0036 21.9484 92.0084 21.9215 92.0074H18.7768C18.7693 92.0063 18.7616 92.007 18.7544 92.0093C18.7472 92.0117 18.7406 92.0157 18.7352 92.021C18.7299 92.0264 18.7258 92.0329 18.7234 92.04C18.721 92.0472 18.7203 92.0548 18.7214 92.0622V93.2384C18.7203 93.2458 18.721 93.2534 18.7234 93.2606C18.7258 93.2677 18.7299 93.2742 18.7352 93.2795C18.7406 93.2849 18.7472 93.2889 18.7544 93.2913C18.7616 93.2936 18.7693 93.2943 18.7768 93.2932H22.4608C22.4884 93.2926 22.5157 93.2975 22.5413 93.3078C22.5668 93.3181 22.5899 93.3334 22.6091 93.3529C22.6285 93.3722 22.6438 93.3951 22.6542 93.4203C22.6645 93.4455 22.6697 93.4725 22.6694 93.4997V94.8663C22.6697 94.8935 22.6645 94.9205 22.6542 94.9457C22.6438 94.9709 22.6285 94.9938 22.6091 95.0131C22.5899 95.0326 22.5668 95.048 22.5413 95.0582C22.5157 95.0685 22.4884 95.0735 22.4608 95.0728H16.9943C16.9657 95.0774 16.9364 95.0753 16.9088 95.0666C16.8812 95.0579 16.8561 95.0429 16.8355 95.0228C16.8148 95.0026 16.7993 94.978 16.7901 94.9508C16.7809 94.9236 16.7783 94.8946 16.7825 94.8663V87.6513C16.782 87.624 16.7871 87.597 16.7975 87.5717C16.8078 87.5465 16.8232 87.5236 16.8428 87.5044C16.862 87.4849 16.8851 87.4696 16.9106 87.4593C16.9361 87.449 16.9635 87.4441 16.991 87.4447H22.4576C22.4857 87.4436 22.5137 87.4484 22.5398 87.4586C22.5659 87.4689 22.5895 87.4845 22.6091 87.5044Z" fill="#122F4C"/>
<path d="M29.5861 87.4449C29.7583 87.4439 29.9288 87.4791 30.0863 87.5481C30.2376 87.6132 30.3757 87.705 30.4937 87.8192C30.6095 87.9356 30.7023 88.0724 30.7674 88.2225C30.8377 88.3783 30.8738 88.5471 30.8733 88.7178V94.8664C30.8737 94.8937 30.8684 94.9209 30.8577 94.9461C30.8471 94.9714 30.8313 94.9942 30.8114 95.0132C30.7923 95.0328 30.7692 95.0483 30.7437 95.0586C30.7181 95.0689 30.6907 95.0737 30.6631 95.0729H29.1348C29.1073 95.0733 29.08 95.0683 29.0544 95.058C29.0289 95.0478 29.0058 95.0326 28.9863 95.0134C28.9669 94.9941 28.9515 94.9712 28.9412 94.9459C28.9309 94.9207 28.9258 94.8936 28.9262 94.8664V92.911C28.9279 92.8562 28.908 92.803 28.8708 92.7625C28.8526 92.743 28.8304 92.7275 28.8057 92.7173C28.7809 92.707 28.7543 92.702 28.7274 92.7028H26.5587C26.5313 92.7025 26.504 92.7077 26.4785 92.7179C26.4531 92.7282 26.4299 92.7433 26.4105 92.7625C26.3907 92.7819 26.3752 92.805 26.3648 92.8306C26.3545 92.8561 26.3495 92.8835 26.3502 92.911V94.8664C26.3543 94.8944 26.3517 94.923 26.3427 94.9499C26.3336 94.9769 26.3184 95.0013 26.2981 95.0213C26.2779 95.0414 26.2532 95.0565 26.226 95.0654C26.1989 95.0744 26.17 95.0769 26.1416 95.0729H24.623C24.5947 95.0769 24.5658 95.0744 24.5386 95.0654C24.5115 95.0565 24.4868 95.0414 24.4665 95.0213C24.4463 95.0013 24.431 94.9769 24.422 94.9499C24.413 94.923 24.4104 94.8944 24.4145 94.8664V88.7178C24.4134 88.5477 24.4473 88.3792 24.5139 88.2225C24.5766 88.0707 24.6703 87.9334 24.7892 87.8192C24.9096 87.7057 25.0491 87.6139 25.2015 87.5481C25.3589 87.4789 25.5294 87.4437 25.7017 87.4449H29.5861ZM28.9262 91.0701V89.1534H26.342V91.0701H28.9262Z" fill="#122F4C"/>
<path d="M37.6742 90.5795C37.8268 90.6422 37.9648 90.735 38.08 90.8522C38.1948 90.9697 38.288 91.1062 38.3553 91.2555C38.4248 91.4076 38.4604 91.5726 38.4596 91.7395V93.7869C38.4608 93.9575 38.4252 94.1263 38.3553 94.2822C38.2889 94.4334 38.1956 94.5717 38.08 94.6904C37.9652 94.8081 37.8271 94.9009 37.6742 94.963C37.5159 95.029 37.3458 95.0625 37.174 95.0615H32.7861C32.7578 95.0655 32.7289 95.063 32.7017 95.054C32.6745 95.0451 32.6499 95.03 32.6296 95.0099C32.6094 94.9899 32.5941 94.9654 32.5851 94.9385C32.5761 94.9116 32.5735 94.883 32.5776 94.8549V93.5368C32.5769 93.5096 32.5819 93.4825 32.5923 93.4572C32.6026 93.4319 32.6182 93.4091 32.6379 93.39C32.657 93.3703 32.6801 93.3549 32.7056 93.3446C32.7311 93.3343 32.7586 93.3294 32.7861 93.3303H36.5255C36.5803 93.3317 36.6334 93.312 36.6738 93.2755C36.6935 93.2574 36.7091 93.2355 36.7195 93.211C36.7299 93.1865 36.7349 93.16 36.7341 93.1335V92.23C36.7344 92.2028 36.7292 92.1758 36.7189 92.1506C36.7085 92.1254 36.6932 92.1025 36.6738 92.0832C36.6545 92.0638 36.6313 92.0486 36.6058 92.0383C36.5804 92.028 36.553 92.023 36.5255 92.0235H33.8631C33.6914 92.0245 33.5212 91.991 33.3629 91.9251C33.2086 91.8622 33.0684 91.7695 32.9507 91.6524C32.8341 91.537 32.7406 91.4006 32.6753 91.2507C32.6106 91.0974 32.5773 90.9328 32.5776 90.7667V88.7177C32.5769 88.5478 32.6102 88.3795 32.6753 88.2224C32.7386 88.0709 32.8323 87.9337 32.9507 87.8191C33.0711 87.7055 33.2106 87.6138 33.3629 87.548C33.5204 87.479 33.6909 87.4438 33.8631 87.4447H38.0083C38.0367 87.4404 38.0658 87.4427 38.0932 87.4516C38.1206 87.4604 38.1455 87.4754 38.1659 87.4955C38.1864 87.5156 38.2018 87.5402 38.2109 87.5672C38.22 87.5943 38.2226 87.623 38.2185 87.6513V88.9904C38.219 89.0169 38.214 89.0432 38.2036 89.0677C38.1932 89.0922 38.1777 89.1142 38.1582 89.1323C38.1168 89.1683 38.0632 89.1873 38.0083 89.1856H34.5019C34.4749 89.1848 34.4481 89.1898 34.4233 89.2004C34.3985 89.211 34.3764 89.2269 34.3585 89.2469C34.3211 89.2866 34.3012 89.3394 34.3031 89.3937V90.2746C34.3012 90.3289 34.3211 90.3817 34.3585 90.4214C34.3764 90.4414 34.3985 90.4573 34.4233 90.4679C34.4481 90.4785 34.4749 90.4835 34.5019 90.4827H37.174C37.3456 90.4821 37.5156 90.515 37.6742 90.5795Z" fill="#122F4C"/>
<path d="M45.2964 87.4449C45.4687 87.4437 45.6392 87.4789 45.7966 87.5481C45.9479 87.6132 46.086 87.705 46.204 87.8192C46.3203 87.9355 46.4137 88.0723 46.4793 88.2225C46.5483 88.3787 46.5838 88.5473 46.5836 88.7178V93.7919C46.584 93.9623 46.5485 94.131 46.4793 94.2872C46.4129 94.4384 46.3196 94.5767 46.204 94.6953C46.0886 94.8131 45.95 94.9059 45.7966 94.968C45.6384 95.0342 45.4682 95.0676 45.2964 95.0664H41.3957C41.224 95.0675 41.0538 95.034 40.8955 94.968C40.7411 94.9052 40.601 94.8125 40.4833 94.6953C40.3637 94.5767 40.2692 94.4358 40.2051 94.2807C40.1411 94.1256 40.1088 93.9594 40.1101 93.7919V88.7178C40.1095 88.5479 40.1427 88.3796 40.2079 88.2225C40.2712 88.071 40.3649 87.9338 40.4833 87.8192C40.6036 87.7057 40.7432 87.6139 40.8955 87.5481C41.053 87.4791 41.2235 87.4439 41.3957 87.4449H45.2964ZM44.6365 89.2954H42.0377V93.2143H44.6284L44.6365 89.2954Z" fill="#122F4C"/>
<path d="M54.7077 87.5044C54.7272 87.5236 54.7427 87.5465 54.753 87.5717C54.7634 87.597 54.7685 87.624 54.768 87.6513V94.8662C54.7683 94.8935 54.7631 94.9205 54.7528 94.9457C54.7424 94.9709 54.7271 94.9938 54.7077 95.0131C54.6885 95.0326 54.6654 95.0479 54.6398 95.0582C54.6143 95.0685 54.587 95.0734 54.5594 95.0728H52.9757C52.9135 95.0721 52.8527 95.0548 52.7997 95.0227C52.7451 94.994 52.6994 94.9511 52.6677 94.8985L50.2367 90.4553V94.8662C50.2408 94.8943 50.2382 94.9229 50.2292 94.9498C50.2202 94.9767 50.2049 95.0012 50.1847 95.0212C50.1644 95.0413 50.1397 95.0564 50.1126 95.0653C50.0854 95.0743 50.0565 95.0768 50.0281 95.0728H48.5112C48.4828 95.0767 48.4538 95.0742 48.4266 95.0652C48.3994 95.0563 48.3746 95.0412 48.3543 95.0212C48.3339 95.0012 48.3185 94.9768 48.3093 94.9499C48.3 94.923 48.2972 94.8944 48.301 94.8662V87.6513C48.2968 87.623 48.2994 87.5943 48.3085 87.5672C48.3177 87.5402 48.3331 87.5156 48.3535 87.4955C48.3739 87.4754 48.3989 87.4604 48.4262 87.4516C48.4536 87.4427 48.4827 87.4404 48.5112 87.4447H50.0721C50.134 87.4456 50.1946 87.4623 50.2481 87.4931C50.3033 87.5217 50.3492 87.5654 50.3801 87.619L52.8241 92.0719V87.6513C52.8237 87.624 52.8287 87.597 52.8391 87.5717C52.8495 87.5465 52.8649 87.5236 52.8844 87.5044C52.9037 87.4849 52.9268 87.4696 52.9523 87.4593C52.9778 87.449 53.0052 87.4441 53.0327 87.4447H54.5627C54.5897 87.4445 54.6164 87.4497 54.6413 87.4599C54.6663 87.4702 54.6888 87.4853 54.7077 87.5044Z" fill="#122F4C"/>
<path d="M13.1767 25.4106C13.2202 25.4299 13.26 25.4567 13.294 25.4896C13.3274 25.523 13.354 25.5625 13.3723 25.6058C13.3931 25.6503 13.4036 25.6988 13.4032 25.7478V27.5225C13.4032 27.5303 13.4017 27.5381 13.3986 27.5453C13.3955 27.5525 13.391 27.559 13.3853 27.5645C13.3797 27.5699 13.3731 27.5741 13.3658 27.5769C13.3585 27.5796 13.3507 27.5809 13.3429 27.5806H12.903C12.8954 27.5812 12.8878 27.5801 12.8807 27.5773C12.8736 27.5745 12.8673 27.5701 12.8623 27.5645C12.8568 27.5589 12.8525 27.5524 12.8497 27.5452C12.8469 27.5379 12.8456 27.5302 12.846 27.5225V25.9204H12.4908V27.5225C12.4912 27.5378 12.486 27.5527 12.4761 27.5645C12.4706 27.57 12.464 27.5742 12.4567 27.577C12.4494 27.5798 12.4416 27.581 12.4337 27.5806H12.0362C12.0281 27.581 12.02 27.5798 12.0125 27.5771C12.0049 27.5743 11.998 27.57 11.9922 27.5645C11.9867 27.5589 11.9824 27.5524 11.9796 27.5452C11.9768 27.5379 11.9756 27.5302 11.9759 27.5225V25.9204H11.6207V27.5225C11.6218 27.5305 11.621 27.5387 11.6184 27.5464C11.6157 27.5541 11.6113 27.561 11.6054 27.5667C11.5995 27.5723 11.5924 27.5765 11.5846 27.579C11.5768 27.5814 11.5685 27.5819 11.5604 27.5806H11.1237C11.1157 27.5816 11.1076 27.5808 11.0999 27.5783C11.0922 27.5757 11.0852 27.5715 11.0795 27.5659C11.0737 27.5603 11.0692 27.5535 11.0664 27.546C11.0637 27.5385 11.0626 27.5305 11.0634 27.5225V25.4412C11.0624 25.4332 11.0632 25.4249 11.0658 25.4172C11.0685 25.4095 11.0729 25.4025 11.0787 25.3967C11.0846 25.3909 11.0917 25.3866 11.0995 25.3839C11.1073 25.3813 11.1156 25.3805 11.1237 25.3816H13.035C13.0837 25.3816 13.132 25.3915 13.1767 25.4106Z" fill="#242425"/>
<path d="M15.3894 25.3816C15.4392 25.3814 15.4885 25.3913 15.5344 25.4106C15.5779 25.4299 15.6176 25.4567 15.6517 25.4897C15.6851 25.5231 15.7116 25.5625 15.7299 25.6059C15.75 25.6506 15.7605 25.6989 15.7609 25.7478V27.5225C15.7609 27.5304 15.7593 27.5381 15.7562 27.5453C15.7532 27.5525 15.7486 27.559 15.7429 27.5645C15.7374 27.5699 15.7307 27.5741 15.7235 27.5769C15.7162 27.5797 15.7084 27.5809 15.7006 27.5806H15.2607C15.2528 27.581 15.245 27.5798 15.2377 27.577C15.2304 27.5743 15.2238 27.57 15.2183 27.5645C15.2124 27.5592 15.2077 27.5528 15.2046 27.5455C15.2015 27.5383 15.2 27.5304 15.2004 27.5225V26.9611C15.2007 26.9534 15.1994 26.9457 15.1966 26.9384C15.1938 26.9312 15.1895 26.9247 15.1841 26.9191C15.179 26.9135 15.1727 26.909 15.1656 26.9059C15.1586 26.9028 15.151 26.9013 15.1433 26.9014H14.516C14.5002 26.9018 14.4851 26.9082 14.4739 26.9193C14.4626 26.9304 14.4562 26.9454 14.4557 26.9611V27.5225C14.4569 27.5306 14.4561 27.5388 14.4534 27.5464C14.4508 27.5541 14.4463 27.5611 14.4405 27.5667C14.4346 27.5724 14.4275 27.5766 14.4196 27.579C14.4118 27.5814 14.4035 27.582 14.3955 27.5806H13.9588C13.9508 27.5817 13.9427 27.5809 13.9351 27.5784C13.9275 27.5758 13.9206 27.5716 13.9149 27.566C13.9093 27.5603 13.905 27.5535 13.9024 27.546C13.8998 27.5384 13.8991 27.5304 13.9001 27.5225V25.7478C13.8994 25.6991 13.9088 25.6508 13.9278 25.6059C13.9478 25.5623 13.9766 25.5233 14.0126 25.4913C14.0469 25.4587 14.0866 25.4319 14.1299 25.4122C14.1757 25.3929 14.2251 25.383 14.2749 25.3832L15.3894 25.3816ZM15.2004 26.4254V25.8737H14.4557V26.4254H15.2004Z" fill="#242425"/>
<path d="M17.7601 25.3994C17.7659 25.4048 17.7704 25.4113 17.7735 25.4185C17.7766 25.4257 17.7781 25.4335 17.778 25.4414V27.208C17.7782 27.2573 17.7682 27.3062 17.7487 27.3516C17.7288 27.3945 17.7018 27.4337 17.6689 27.4678C17.6356 27.5018 17.5957 27.5287 17.5515 27.5468C17.5062 27.5656 17.4574 27.575 17.4082 27.5742H16.455C16.4058 27.575 16.357 27.5656 16.3116 27.5468C16.2672 27.5283 16.2268 27.5015 16.1927 27.4678C16.1586 27.4346 16.1315 27.3951 16.1128 27.3516C16.0946 27.3059 16.0852 27.2572 16.0851 27.208V26.5385C16.0837 26.5303 16.0843 26.5219 16.0868 26.514C16.0893 26.5062 16.0937 26.499 16.0996 26.4931C16.1055 26.4873 16.1128 26.4829 16.1207 26.4804C16.1287 26.4779 16.1372 26.4773 16.1454 26.4788H16.5821C16.5902 26.4777 16.5986 26.4785 16.6064 26.4811C16.6142 26.4838 16.6212 26.4881 16.6271 26.4939C16.6329 26.4997 16.6373 26.5067 16.64 26.5144C16.6426 26.5221 16.6434 26.5304 16.6424 26.5385V26.9854C16.6418 26.9933 16.6431 27.0012 16.6462 27.0085C16.6493 27.0158 16.6542 27.0222 16.6603 27.0273C16.672 27.0374 16.6872 27.0426 16.7026 27.0418H17.1605C17.176 27.0426 17.1912 27.0374 17.2029 27.0273C17.209 27.0222 17.2138 27.0158 17.2169 27.0085C17.22 27.0012 17.2214 26.9933 17.2208 26.9854V25.4414C17.2204 25.4336 17.2216 25.4259 17.2244 25.4187C17.2272 25.4114 17.2315 25.4049 17.2371 25.3994C17.242 25.3935 17.2482 25.3888 17.2553 25.3857C17.2624 25.3826 17.2701 25.3812 17.2778 25.3817H17.7177C17.7257 25.3813 17.7336 25.3828 17.7409 25.3858C17.7483 25.3889 17.7548 25.3935 17.7601 25.3994Z" fill="#242425"/>
<path d="M19.7544 25.3816C19.8037 25.3814 19.8525 25.3913 19.8978 25.4106C19.9862 25.4486 20.0566 25.5184 20.095 25.6059C20.1145 25.6507 20.1245 25.699 20.1243 25.7478V27.1999C20.1245 27.2492 20.1145 27.2981 20.095 27.3435C20.0751 27.3863 20.0481 27.4256 20.0151 27.4596C19.9819 27.4936 19.942 27.5206 19.8978 27.5387C19.8524 27.5575 19.8036 27.5668 19.7544 27.5661H18.6334C18.5842 27.5668 18.5354 27.5575 18.49 27.5387C18.4456 27.5202 18.4052 27.4933 18.3711 27.4596C18.337 27.4268 18.3104 27.3872 18.2929 27.3435C18.2734 27.2981 18.2634 27.2492 18.2636 27.1999V25.7478C18.2634 25.699 18.2733 25.6507 18.2929 25.6059C18.3101 25.5619 18.3368 25.5223 18.3711 25.4897C18.4061 25.457 18.4462 25.4303 18.49 25.4106C18.5353 25.3913 18.5841 25.3814 18.6334 25.3816H19.7544ZM19.5638 25.914H18.8208V27.0434H19.5638V25.914Z" fill="#242425"/>
<path d="M22.5521 27.5242C22.5556 27.5298 22.5574 27.5362 22.5574 27.5427C22.5574 27.5493 22.5556 27.5557 22.5521 27.5613C22.5521 27.571 22.5342 27.5742 22.5163 27.5742H22.0128C21.9951 27.5744 21.9777 27.5699 21.9623 27.5613C21.9467 27.5524 21.9338 27.5396 21.9248 27.5242L21.5892 26.9288C21.5872 26.9251 21.5842 26.922 21.5804 26.9199C21.5766 26.9179 21.5723 26.9171 21.568 26.9176H21.19C21.188 26.9173 21.186 26.9175 21.1841 26.9181C21.1822 26.9188 21.1804 26.9198 21.179 26.9212C21.1776 26.9226 21.1765 26.9243 21.1759 26.9262C21.1752 26.9281 21.1751 26.9301 21.1753 26.9321V27.5161C21.1761 27.5241 21.1751 27.5321 21.1723 27.5396C21.1696 27.5472 21.1651 27.554 21.1593 27.5595C21.1535 27.5651 21.1465 27.5693 21.1389 27.5719C21.1312 27.5744 21.1231 27.5752 21.115 27.5742H20.6784C20.6703 27.5755 20.662 27.575 20.6542 27.5726C20.6464 27.5702 20.6392 27.5659 20.6334 27.5603C20.6275 27.5546 20.623 27.5477 20.6204 27.54C20.6177 27.5323 20.6169 27.5242 20.6181 27.5161V25.4413C20.6166 25.4332 20.6172 25.4248 20.6197 25.4169C20.6223 25.409 20.6267 25.4018 20.6326 25.396C20.6385 25.3901 20.6457 25.3858 20.6537 25.3833C20.6617 25.3808 20.6701 25.3802 20.6784 25.3816H22.109C22.1583 25.3814 22.2071 25.3913 22.2523 25.4107C22.3407 25.4486 22.4112 25.5184 22.4495 25.6059C22.469 25.6507 22.479 25.699 22.4788 25.7479V26.5723C22.4791 26.6496 22.4539 26.7249 22.4071 26.7869C22.3622 26.8481 22.2989 26.8938 22.2263 26.9176H22.2165C22.2018 26.9176 22.1986 26.9272 22.2067 26.9353L22.5521 27.5242ZM21.9216 25.8914H21.159V26.4255H21.9216V25.8914Z" fill="#242425"/>
<path d="M25.5354 27.0418C25.5434 27.0417 25.5512 27.0432 25.5585 27.0462C25.5658 27.0493 25.5724 27.0538 25.5778 27.0595C25.5877 27.0713 25.5929 27.0862 25.5925 27.1015V27.5161C25.5929 27.5314 25.5877 27.5463 25.5778 27.5581C25.5723 27.5636 25.5657 27.5678 25.5584 27.5706C25.5511 27.5734 25.5433 27.5746 25.5354 27.5742H24.1684C24.1604 27.5752 24.1522 27.5744 24.1446 27.5719C24.1369 27.5693 24.1299 27.5651 24.1241 27.5595C24.1183 27.554 24.1139 27.5471 24.1111 27.5396C24.1083 27.5321 24.1073 27.5241 24.1081 27.5161V25.4413C24.1071 25.4332 24.1079 25.425 24.1105 25.4173C24.1132 25.4095 24.1176 25.4025 24.1234 25.3968C24.1292 25.391 24.1363 25.3866 24.1441 25.384C24.1519 25.3814 24.1602 25.3806 24.1684 25.3816H24.6034C24.6117 25.3802 24.6201 25.3808 24.6281 25.3833C24.6361 25.3858 24.6433 25.3901 24.6492 25.396C24.6551 25.4018 24.6595 25.409 24.6621 25.4169C24.6646 25.4248 24.6652 25.4332 24.6637 25.4413V26.9853C24.6636 26.9931 24.6651 27.0009 24.6682 27.0082C24.6713 27.0154 24.6759 27.0219 24.6817 27.0273C24.6935 27.037 24.7086 27.0422 24.724 27.0418H25.5354Z" fill="#242425"/>
<path d="M27.5787 25.3995C27.5845 25.4048 27.589 25.4114 27.5921 25.4186C27.5952 25.4258 27.5967 25.4336 27.5966 25.4414V25.8351C27.5967 25.8429 27.5952 25.8507 27.5921 25.8579C27.589 25.8651 27.5845 25.8717 27.5787 25.877C27.5668 25.8868 27.5518 25.892 27.5363 25.8915H26.4756C26.4658 25.8915 26.4609 25.8916 26.4609 25.9077V26.2497C26.4609 26.2578 26.461 26.2626 26.4756 26.2626H27.3815C27.3891 26.2623 27.3966 26.2636 27.4037 26.2664C27.4107 26.2692 27.417 26.2734 27.4223 26.2788C27.4329 26.2909 27.4386 26.3063 27.4386 26.3223V26.6353C27.4384 26.6508 27.4326 26.6657 27.4223 26.6773C27.4171 26.6829 27.4108 26.6873 27.4038 26.6904C27.3968 26.6934 27.3892 26.695 27.3815 26.695H26.4756C26.4736 26.6947 26.4716 26.6949 26.4697 26.6956C26.4678 26.6962 26.4661 26.6973 26.4647 26.6987C26.4632 26.7001 26.4622 26.7018 26.4615 26.7037C26.4609 26.7056 26.4607 26.7076 26.4609 26.7095V26.8709V27.0532C26.4609 27.0645 26.461 27.0693 26.4756 27.0693H27.5363C27.5441 27.069 27.5519 27.0703 27.5592 27.073C27.5665 27.0758 27.5731 27.08 27.5787 27.0854C27.5901 27.0971 27.5966 27.1127 27.5966 27.129V27.5211C27.5966 27.5289 27.5951 27.5366 27.592 27.5438C27.5889 27.5511 27.5844 27.5576 27.5787 27.563C27.5731 27.5684 27.5665 27.5726 27.5592 27.5754C27.5519 27.5782 27.5441 27.5795 27.5363 27.5791H25.964C25.9559 27.5805 25.9476 27.5799 25.9398 27.5775C25.932 27.5751 25.9249 27.5709 25.919 27.5652C25.9131 27.5596 25.9087 27.5526 25.906 27.545C25.9034 27.5373 25.9026 27.5291 25.9037 27.5211V25.4414C25.9033 25.4337 25.9045 25.4259 25.9073 25.4187C25.9101 25.4115 25.9144 25.4049 25.92 25.3995C25.9255 25.3934 25.9323 25.3886 25.9399 25.3855C25.9475 25.3824 25.9558 25.3811 25.964 25.3817H27.5363C27.5443 25.3814 27.5522 25.3828 27.5595 25.3859C27.5669 25.389 27.5734 25.3936 27.5787 25.3995Z" fill="#242425"/>
<path d="M29.5861 25.3816C29.6359 25.3812 29.6853 25.3911 29.7311 25.4106C29.7746 25.4299 29.8143 25.4567 29.8484 25.4897C29.8817 25.5231 29.9083 25.5625 29.9266 25.6059C29.9474 25.6503 29.958 25.6988 29.9576 25.7478V27.5226C29.9576 27.5304 29.956 27.5381 29.9529 27.5453C29.9498 27.5525 29.9453 27.5591 29.9396 27.5645C29.9341 27.5699 29.9274 27.5741 29.9201 27.5769C29.9129 27.5797 29.9051 27.581 29.8973 27.5806H29.4573C29.4495 27.5811 29.4417 27.5798 29.4344 27.5771C29.4271 27.5743 29.4205 27.57 29.415 27.5645C29.4093 27.5591 29.4048 27.5525 29.4017 27.5453C29.3986 27.5381 29.397 27.5304 29.3971 27.5226V26.9611C29.3974 26.9534 29.3961 26.9457 29.3933 26.9384C29.3905 26.9312 29.3862 26.9247 29.3808 26.9192C29.3756 26.9135 29.3694 26.909 29.3623 26.9059C29.3553 26.9028 29.3477 26.9013 29.34 26.9014H28.7127C28.6969 26.9018 28.6818 26.9082 28.6705 26.9193C28.6593 26.9304 28.6528 26.9454 28.6524 26.9611V27.5226C28.6535 27.5304 28.6527 27.5384 28.6502 27.546C28.6476 27.5535 28.6433 27.5604 28.6376 27.566C28.632 27.5716 28.625 27.5758 28.6174 27.5784C28.6098 27.5809 28.6017 27.5817 28.5938 27.5806H28.1571C28.149 27.582 28.1407 27.5814 28.1329 27.579C28.1251 27.5766 28.118 27.5724 28.1121 27.5667C28.1062 27.5611 28.1018 27.5541 28.0991 27.5464C28.0965 27.5388 28.0957 27.5306 28.0968 27.5226V25.7478C28.0969 25.6992 28.1063 25.651 28.1245 25.6059C28.1428 25.5621 28.17 25.5226 28.2044 25.4897C28.2387 25.457 28.2784 25.4303 28.3217 25.4106C28.3675 25.3913 28.4169 25.3814 28.4667 25.3816H29.5861ZM29.3971 26.4255V25.8737H28.6524V26.4255H29.3971Z" fill="#242425"/>
<path d="M32.2941 26.3948C32.2998 26.4003 32.3044 26.4068 32.3074 26.414C32.3105 26.4212 32.3121 26.4289 32.3121 26.4368V27.208C32.3125 27.2575 32.302 27.3065 32.2811 27.3516C32.2624 27.3947 32.2359 27.434 32.2029 27.4677C32.1697 27.5018 32.1298 27.5287 32.0856 27.5468C32.0397 27.5657 31.9903 27.5751 31.9406 27.5742H30.8212C30.7724 27.5749 30.7241 27.5658 30.6789 27.5476C30.6337 27.5295 30.5927 27.5025 30.5582 27.4684C30.5237 27.4342 30.4965 27.3936 30.4782 27.3489C30.4598 27.3042 30.4507 27.2562 30.4513 27.208V25.7559C30.4506 25.7072 30.46 25.6589 30.479 25.614C30.4973 25.5702 30.5245 25.5307 30.5589 25.4978C30.5933 25.4651 30.6329 25.4384 30.6762 25.4187C30.722 25.3994 30.7714 25.3895 30.8212 25.3897H32.1247C32.1326 25.3894 32.1406 25.3908 32.1479 25.3939C32.1552 25.3969 32.1618 25.4016 32.1671 25.4074C32.1728 25.4128 32.1774 25.4193 32.1805 25.4265C32.1836 25.4338 32.1851 25.4416 32.185 25.4494V25.8624C32.1846 25.8781 32.1781 25.8931 32.1669 25.9042C32.1556 25.9153 32.1406 25.9217 32.1247 25.9221H31.064C31.0562 25.9218 31.0484 25.923 31.0411 25.9258C31.0338 25.9286 31.0272 25.9328 31.0216 25.9382C31.0159 25.9433 31.0113 25.9495 31.0082 25.9565C31.0051 25.9634 31.0036 25.971 31.0037 25.9786V26.9934C31.0036 27.0012 31.0051 27.009 31.0082 27.0162C31.0113 27.0235 31.0158 27.03 31.0216 27.0353C31.0335 27.0451 31.0485 27.0503 31.064 27.0499H31.6913C31.7063 27.0505 31.7209 27.0453 31.732 27.0353C31.7376 27.0299 31.7419 27.0233 31.7447 27.0161C31.7475 27.0089 31.7487 27.0011 31.7483 26.9934V26.4448C31.748 26.437 31.7494 26.4291 31.7525 26.4219C31.7556 26.4146 31.7603 26.4081 31.7662 26.4029C31.7717 26.3972 31.7782 26.3927 31.7855 26.3896C31.7928 26.3865 31.8007 26.385 31.8086 26.3851H32.2485C32.2564 26.3836 32.2645 26.3836 32.2724 26.3853C32.2802 26.387 32.2876 26.3902 32.2941 26.3948Z" fill="#242425"/>
<path d="M34.629 25.3994C34.6348 25.4047 34.6393 25.4112 34.6424 25.4185C34.6455 25.4257 34.647 25.4335 34.6469 25.4413V27.208C34.6471 27.2573 34.6371 27.3062 34.6176 27.3516C34.5977 27.3944 34.5707 27.4337 34.5377 27.4677C34.5045 27.5018 34.4646 27.5287 34.4204 27.5468C34.3751 27.5656 34.3262 27.5749 34.277 27.5742H33.156C33.1068 27.5749 33.058 27.5656 33.0127 27.5468C32.9682 27.5283 32.9278 27.5014 32.8937 27.4677C32.8597 27.4345 32.8325 27.3951 32.8139 27.3516C32.7956 27.3058 32.7862 27.2571 32.7862 27.208V25.4413C32.7847 25.4332 32.7853 25.4248 32.7878 25.4169C32.7904 25.409 32.7948 25.4018 32.8007 25.396C32.8066 25.3901 32.8138 25.3858 32.8218 25.3833C32.8298 25.3808 32.8382 25.3802 32.8465 25.3816H33.2831C33.2913 25.3806 33.2996 25.3814 33.3074 25.384C33.3152 25.3866 33.3223 25.391 33.3281 25.3968C33.3339 25.4025 33.3384 25.4095 33.341 25.4173C33.3437 25.425 33.3445 25.4332 33.3434 25.4413V26.9853C33.343 26.9931 33.3442 27.0008 33.347 27.008C33.3498 27.0153 33.3542 27.0218 33.3597 27.0273C33.3722 27.037 33.3878 27.0422 33.4037 27.0418H34.0294C34.0371 27.0429 34.045 27.0421 34.0524 27.0397C34.0598 27.0372 34.0666 27.0331 34.0721 27.0276C34.0776 27.0221 34.0818 27.0155 34.0843 27.0081C34.0868 27.0008 34.0875 26.993 34.0864 26.9853V25.4413C34.0863 25.4335 34.0878 25.4257 34.0909 25.4185C34.094 25.4112 34.0986 25.4047 34.1043 25.3994C34.1096 25.3935 34.1162 25.3888 34.1235 25.3858C34.1308 25.3827 34.1387 25.3813 34.1467 25.3816H34.5866C34.5946 25.3813 34.6025 25.3827 34.6098 25.3858C34.6171 25.3888 34.6237 25.3935 34.629 25.3994Z" fill="#242425"/>
<path d="M36.8237 25.3995C36.8294 25.4048 36.834 25.4114 36.8371 25.4186C36.8402 25.4258 36.8417 25.4336 36.8416 25.4414V25.8351C36.8417 25.8429 36.8402 25.8507 36.8371 25.8579C36.834 25.8651 36.8294 25.8717 36.8237 25.877C36.812 25.8871 36.7968 25.8923 36.7813 25.8915H35.7222C35.72 25.8913 35.7178 25.8915 35.7157 25.8922C35.7136 25.893 35.7117 25.8941 35.7101 25.8957C35.7086 25.8973 35.7074 25.8991 35.7066 25.9012C35.7059 25.9033 35.7057 25.9055 35.7059 25.9077V26.2497C35.7059 26.2578 35.7059 26.2626 35.7222 26.2626H36.6265C36.6341 26.2622 36.6417 26.2635 36.6487 26.2662C36.6557 26.269 36.6621 26.2733 36.6673 26.2788C36.6729 26.2845 36.6772 26.2914 36.68 26.2989C36.6828 26.3063 36.684 26.3143 36.6836 26.3223V26.6353C36.6839 26.643 36.6826 26.6507 36.6798 26.658C36.677 26.6652 36.6727 26.6717 36.6673 26.6773C36.6621 26.6829 36.6559 26.6874 36.6488 26.6905C36.6418 26.6936 36.6342 26.6951 36.6265 26.695H35.7222C35.7108 26.695 35.7059 26.695 35.7059 26.7095V26.8709V27.0532C35.7059 27.0645 35.7059 27.0693 35.7222 27.0693H36.7813C36.7891 27.0689 36.7969 27.0701 36.8042 27.0729C36.8115 27.0757 36.8182 27.0799 36.8237 27.0854C36.8351 27.0971 36.8415 27.1127 36.8416 27.129V27.5211C36.8416 27.5289 36.8401 27.5366 36.837 27.5438C36.8339 27.551 36.8294 27.5576 36.8237 27.563C36.8182 27.5685 36.8115 27.5728 36.8042 27.5756C36.7969 27.5783 36.7891 27.5796 36.7813 27.5791H35.209C35.2009 27.5805 35.1926 27.5799 35.1848 27.5775C35.177 27.5751 35.1698 27.5709 35.164 27.5652C35.1581 27.5596 35.1537 27.5526 35.151 27.5449C35.1484 27.5373 35.1476 27.5291 35.1487 27.5211V25.4414C35.1486 25.4336 35.1501 25.4258 35.1532 25.4186C35.1563 25.4114 35.1609 25.4048 35.1666 25.3995C35.1719 25.3936 35.1785 25.389 35.1858 25.3859C35.1931 25.3828 35.201 25.3814 35.209 25.3817H36.7813C36.7893 25.3811 36.7973 25.3825 36.8047 25.3855C36.812 25.3886 36.8185 25.3934 36.8237 25.3995Z" fill="#242425"/>
<path d="M40.2194 25.3817C40.2276 25.3814 40.2357 25.3828 40.2433 25.3859C40.2509 25.3889 40.2577 25.3936 40.2634 25.3995C40.2689 25.4049 40.2732 25.4115 40.276 25.4187C40.2789 25.426 40.2801 25.4337 40.2797 25.4414V27.5162C40.28 27.524 40.2787 27.5317 40.2759 27.5389C40.2731 27.5461 40.2688 27.5527 40.2634 27.5582C40.2514 27.5691 40.2356 27.5749 40.2194 27.5743H39.7794C39.7716 27.5746 39.7638 27.5734 39.7566 27.5706C39.7493 27.5678 39.7426 27.5636 39.7371 27.5582C39.7314 27.5528 39.7269 27.5462 39.7238 27.539C39.7207 27.5318 39.7191 27.5241 39.7191 27.5162V26.7918C39.7198 26.777 39.7145 26.7625 39.7045 26.7515C39.699 26.746 39.6923 26.7417 39.685 26.7389C39.6777 26.7362 39.6699 26.7349 39.6621 26.7354H39.0364C39.0286 26.735 39.0209 26.7363 39.0136 26.7391C39.0063 26.7419 38.9997 26.7461 38.9941 26.7515C38.9884 26.7566 38.9838 26.7628 38.9807 26.7697C38.9776 26.7767 38.9761 26.7842 38.9762 26.7918V27.5162C38.9773 27.5243 38.9765 27.5325 38.9738 27.5401C38.9712 27.5478 38.9668 27.5548 38.9609 27.5604C38.955 27.5661 38.9479 27.5703 38.9401 27.5727C38.9322 27.5751 38.9239 27.5757 38.9159 27.5743H38.4792C38.4712 27.5753 38.463 27.5745 38.4554 27.572C38.4477 27.5695 38.4407 27.5652 38.4349 27.5597C38.4291 27.5541 38.4247 27.5473 38.4219 27.5398C38.4191 27.5322 38.4181 27.5242 38.4189 27.5162V25.4414C38.4178 25.4333 38.4187 25.4251 38.4213 25.4174C38.424 25.4097 38.4284 25.4027 38.4342 25.3969C38.44 25.3911 38.4471 25.3868 38.4549 25.3841C38.4627 25.3815 38.471 25.3807 38.4792 25.3817H38.9159C38.9241 25.3803 38.9326 25.3809 38.9405 25.3834C38.9485 25.3859 38.9557 25.3903 38.9617 25.3961C38.9676 25.402 38.972 25.4091 38.9745 25.417C38.977 25.4249 38.9776 25.4333 38.9762 25.4414V26.1368C38.9751 26.1449 38.9759 26.1531 38.9786 26.1608C38.9812 26.1686 38.9856 26.1756 38.9914 26.1814C38.9973 26.1871 39.0044 26.1915 39.0122 26.1941C39.02 26.1967 39.0283 26.1976 39.0364 26.1965H39.6621C39.67 26.1966 39.6779 26.1951 39.6852 26.192C39.6925 26.189 39.6991 26.1845 39.7045 26.1788C39.7144 26.167 39.7196 26.1521 39.7191 26.1368V25.435C39.719 25.4271 39.7206 25.4194 39.7236 25.4121C39.7267 25.4049 39.7313 25.3984 39.7371 25.393C39.7424 25.3872 39.7489 25.3825 39.7562 25.3795C39.7636 25.3764 39.7715 25.375 39.7794 25.3753L40.2194 25.3817Z" fill="#242425"/>
<path d="M42.2707 25.3816C42.32 25.3814 42.3688 25.3913 42.4141 25.4106C42.5024 25.4486 42.5729 25.5184 42.6112 25.6059C42.6307 25.6507 42.6407 25.699 42.6405 25.7478V27.5225C42.6409 27.5303 42.6396 27.538 42.6368 27.5452C42.634 27.5524 42.6297 27.559 42.6242 27.5645C42.6123 27.5754 42.5965 27.5812 42.5803 27.5806H42.1403C42.1325 27.5809 42.1247 27.5797 42.1175 27.5769C42.1102 27.5741 42.1035 27.5699 42.098 27.5645C42.0923 27.5591 42.0878 27.5525 42.0847 27.5453C42.0816 27.5381 42.08 27.5304 42.08 27.5225V26.9611C42.0805 26.9458 42.0752 26.9309 42.0654 26.9191C42.0599 26.9134 42.0534 26.9089 42.0461 26.9058C42.0388 26.9028 42.0309 26.9013 42.023 26.9014H41.3973C41.3894 26.9013 41.3816 26.9028 41.3743 26.9058C41.367 26.9089 41.3604 26.9134 41.355 26.9191C41.3493 26.9246 41.3448 26.9311 41.3417 26.9383C41.3386 26.9455 41.337 26.9533 41.337 26.9611V27.5225C41.3382 27.5306 41.3374 27.5388 41.3347 27.5464C41.3321 27.5541 41.3276 27.5611 41.3218 27.5667C41.3159 27.5724 41.3088 27.5766 41.3009 27.579C41.2931 27.5814 41.2848 27.582 41.2768 27.5806H40.8401C40.832 27.582 40.8237 27.5814 40.8159 27.579C40.8081 27.5766 40.8009 27.5724 40.7951 27.5667C40.7892 27.5611 40.7848 27.5541 40.7821 27.5464C40.7795 27.5388 40.7787 27.5306 40.7798 27.5225V25.7478C40.7796 25.699 40.7896 25.6507 40.8091 25.6059C40.8263 25.5619 40.853 25.5223 40.8873 25.4897C40.9223 25.457 40.9625 25.4303 41.0063 25.4106C41.0516 25.3913 41.1004 25.3814 41.1497 25.3816H42.2707ZM42.08 26.4254V25.8737H41.337V26.4254H42.08Z" fill="#242425"/>
<path d="M43.7061 25.9302C43.7004 25.9352 43.6958 25.9415 43.6927 25.9484C43.6896 25.9554 43.6881 25.9629 43.6882 25.9705V26.9853C43.6881 26.9932 43.6896 27.0009 43.6927 27.0082C43.6958 27.0154 43.7003 27.0219 43.7061 27.0273C43.718 27.037 43.733 27.0422 43.7485 27.0418H44.7652C44.7731 27.0418 44.7809 27.0433 44.7882 27.0464C44.7955 27.0494 44.8021 27.0539 44.8075 27.0595C44.813 27.065 44.8173 27.0716 44.8201 27.0788C44.8229 27.086 44.8242 27.0938 44.8238 27.1015V27.5161C44.8243 27.5239 44.8231 27.5316 44.8203 27.5389C44.8176 27.5461 44.8133 27.5527 44.8077 27.5582C44.8022 27.5637 44.7955 27.568 44.7882 27.5707C44.7809 27.5735 44.773 27.5747 44.7652 27.5742H43.5041C43.4543 27.5751 43.405 27.5657 43.359 27.5468C43.3146 27.5283 43.2742 27.5014 43.2401 27.4677C43.2066 27.4344 43.18 27.395 43.1619 27.3516C43.1424 27.3062 43.1324 27.2573 43.1326 27.208V25.7559C43.1324 25.7071 43.1424 25.6588 43.1619 25.614C43.1796 25.5703 43.2062 25.5307 43.2401 25.4978C43.2751 25.4651 43.3153 25.4384 43.359 25.4187C43.4048 25.3992 43.4542 25.3893 43.5041 25.3897H44.7668C44.7748 25.3894 44.7827 25.3908 44.79 25.3939C44.7973 25.3969 44.8039 25.4016 44.8092 25.4074C44.8147 25.4129 44.8191 25.4195 44.8219 25.4267C44.8247 25.4339 44.8259 25.4417 44.8255 25.4494V25.8624C44.8258 25.8701 44.8245 25.8778 44.8217 25.8851C44.8189 25.8923 44.8147 25.8988 44.8092 25.9044C44.8037 25.91 44.7971 25.9145 44.7898 25.9175C44.7825 25.9206 44.7747 25.9221 44.7668 25.9221H43.7485C43.7338 25.9192 43.7186 25.9221 43.7061 25.9302Z" fill="#242425"/>
<path d="M46.5869 26.3061C46.5846 26.3091 46.5834 26.3128 46.5834 26.3166C46.5834 26.3203 46.5846 26.324 46.5869 26.3271L47.3282 27.5242C47.3317 27.5298 47.3335 27.5362 47.3335 27.5427C47.3335 27.5493 47.3317 27.5557 47.3282 27.5613C47.3282 27.571 47.3103 27.5742 47.2924 27.5742H46.7628C46.7451 27.5745 46.7277 27.57 46.7123 27.5613C46.6968 27.5524 46.6838 27.5396 46.6748 27.5242L46.1958 26.6691C46.1958 26.6594 46.1844 26.6578 46.1812 26.6691L45.9172 26.9547C45.9053 26.9676 45.8964 26.9831 45.8911 26.9998C45.8838 27.0172 45.8799 27.0358 45.8797 27.0547V27.5193C45.8809 27.5274 45.8801 27.5356 45.8774 27.5432C45.8748 27.5509 45.8703 27.5579 45.8644 27.5635C45.8586 27.5692 45.8514 27.5734 45.8436 27.5758C45.8358 27.5782 45.8275 27.5788 45.8194 27.5774H45.3828C45.3747 27.5784 45.3666 27.5776 45.3589 27.5751C45.3513 27.5726 45.3443 27.5683 45.3385 27.5628C45.3327 27.5572 45.3282 27.5504 45.3255 27.5429C45.3227 27.5353 45.3217 27.5273 45.3225 27.5193V25.4413C45.3214 25.4332 45.3222 25.425 45.3249 25.4173C45.3275 25.4095 45.3319 25.4025 45.3378 25.3968C45.3436 25.391 45.3507 25.3866 45.3585 25.384C45.3663 25.3814 45.3746 25.3806 45.3828 25.3816H45.8194C45.8277 25.3802 45.8361 25.3808 45.8441 25.3833C45.8521 25.3858 45.8593 25.3901 45.8652 25.396C45.8711 25.4018 45.8755 25.409 45.8781 25.4169C45.8806 25.4248 45.8811 25.4332 45.8797 25.4413V26.3722L46.6944 25.4252C46.7067 25.4119 46.7217 25.4015 46.7384 25.3945C46.755 25.386 46.7735 25.3816 46.7922 25.3816H47.3185C47.3347 25.3816 47.3445 25.3816 47.3478 25.3945C47.351 25.4074 47.3478 25.4123 47.3364 25.4252L46.5869 26.3061Z" fill="#242425"/>
<path d="M48.2928 27.5161C48.2939 27.5242 48.2932 27.5323 48.2905 27.54C48.2878 27.5477 48.2834 27.5546 48.2775 27.5603C48.2717 27.5659 48.2645 27.5702 48.2567 27.5726C48.2489 27.575 48.2406 27.5755 48.2325 27.5742H47.7958C47.7878 27.5752 47.7797 27.5744 47.772 27.5719C47.7644 27.5693 47.7574 27.5651 47.7516 27.5595C47.7458 27.554 47.7413 27.5472 47.7386 27.5396C47.7358 27.5321 47.7348 27.5241 47.7356 27.5161V25.4413C47.7345 25.4332 47.7353 25.425 47.738 25.4173C47.7406 25.4095 47.745 25.4025 47.7509 25.3968C47.7567 25.391 47.7638 25.3866 47.7716 25.384C47.7794 25.3814 47.7877 25.3806 47.7958 25.3816H48.2293C48.2375 25.3802 48.2459 25.3808 48.2539 25.3833C48.2619 25.3858 48.2691 25.3901 48.275 25.396C48.281 25.4018 48.2854 25.409 48.2879 25.4169C48.2904 25.4248 48.291 25.4332 48.2895 25.4413L48.2928 27.5161Z" fill="#242425"/>
<path d="M50.4241 25.4107C50.5124 25.4486 50.5829 25.5184 50.6212 25.6059C50.6408 25.6507 50.6507 25.699 50.6506 25.7479V27.5226C50.6509 27.5304 50.6495 27.5383 50.6464 27.5455C50.6433 27.5528 50.6386 27.5593 50.6326 27.5645C50.6271 27.57 50.6205 27.5743 50.6132 27.5771C50.6059 27.5799 50.5981 27.5811 50.5903 27.5806H50.1504C50.1428 27.581 50.1352 27.5798 50.1282 27.577C50.1211 27.5742 50.1148 27.57 50.1096 27.5645C50.0993 27.5529 50.0935 27.538 50.0933 27.5226V25.9753C50.0937 25.9678 50.0925 25.9604 50.0897 25.9534C50.0869 25.9464 50.0825 25.9402 50.077 25.935C50.0651 25.9241 50.0493 25.9183 50.033 25.9189H49.4074C49.3996 25.9185 49.3918 25.9198 49.3845 25.9226C49.3772 25.9254 49.3706 25.9296 49.365 25.935C49.359 25.9398 49.3542 25.946 49.3511 25.953C49.348 25.96 49.3466 25.9677 49.3471 25.9753V27.5209C49.3482 27.529 49.3474 27.5372 49.3448 27.5448C49.3421 27.5525 49.3377 27.5595 49.3318 27.5651C49.3259 27.5708 49.3188 27.575 49.311 27.5774C49.3032 27.5798 49.2949 27.5804 49.2868 27.579H48.8501C48.842 27.5804 48.8338 27.5798 48.8259 27.5774C48.8181 27.575 48.811 27.5708 48.8051 27.5651C48.7992 27.5595 48.7948 27.5525 48.7921 27.5448C48.7895 27.5372 48.7887 27.529 48.7898 27.5209V25.4413C48.7884 25.4332 48.789 25.4248 48.7915 25.4169C48.794 25.409 48.7984 25.4018 48.8043 25.396C48.8102 25.3901 48.8175 25.3858 48.8255 25.3833C48.8334 25.3808 48.8419 25.3802 48.8501 25.3816H50.2807C50.33 25.3814 50.3788 25.3913 50.4241 25.4107Z" fill="#242425"/>
<path d="M52.9871 26.3949C52.9928 26.4004 52.9973 26.4069 53.0004 26.4141C53.0035 26.4213 53.0051 26.429 53.005 26.4369V27.2081C53.0052 27.2574 52.9952 27.3063 52.9757 27.3516C52.9558 27.3945 52.9288 27.4338 52.8959 27.4678C52.8627 27.5018 52.8227 27.5288 52.7786 27.5469C52.7332 27.5657 52.6844 27.575 52.6352 27.5743H51.5142C51.465 27.575 51.4161 27.5657 51.3708 27.5469C51.3263 27.5284 51.2859 27.5015 51.2518 27.4678C51.2178 27.4346 51.1907 27.3952 51.172 27.3516C51.1537 27.3059 51.1443 27.2572 51.1443 27.2081V25.756C51.1444 25.7074 51.1538 25.6592 51.172 25.614C51.1903 25.5703 51.2174 25.5308 51.2518 25.4979C51.2868 25.4652 51.327 25.4385 51.3708 25.4188C51.416 25.3995 51.4649 25.3896 51.5142 25.3898H52.8177C52.8259 25.3892 52.8341 25.3905 52.8417 25.3936C52.8494 25.3967 52.8562 25.4014 52.8617 25.4075C52.8672 25.413 52.8715 25.4195 52.8743 25.4268C52.8771 25.434 52.8784 25.4417 52.8779 25.4495V25.8625C52.8783 25.8702 52.877 25.8779 52.8742 25.8852C52.8714 25.8924 52.8671 25.8989 52.8617 25.9044C52.8559 25.9102 52.8491 25.9147 52.8415 25.9178C52.8339 25.9208 52.8258 25.9223 52.8177 25.9222H51.7586C51.7508 25.9218 51.7429 25.923 51.7356 25.9258C51.7283 25.9286 51.7217 25.9328 51.7162 25.9383C51.7102 25.9432 51.7054 25.9493 51.7023 25.9564C51.6992 25.9634 51.6978 25.971 51.6983 25.9787V26.9935C51.6977 27.0014 51.699 27.0093 51.7021 27.0166C51.7053 27.0239 51.7101 27.0303 51.7162 27.0354C51.7279 27.0455 51.7431 27.0507 51.7586 27.0499H52.3842C52.392 27.051 52.3999 27.0503 52.4073 27.0478C52.4147 27.0454 52.4214 27.0413 52.427 27.0358C52.4325 27.0303 52.4367 27.0236 52.4391 27.0163C52.4416 27.009 52.4424 27.0011 52.4413 26.9935V26.4449C52.4417 26.4292 52.4482 26.4143 52.4594 26.4032C52.4706 26.3921 52.4857 26.3856 52.5016 26.3852H52.9415C52.9494 26.3836 52.9575 26.3836 52.9653 26.3852C52.9732 26.3869 52.9806 26.3902 52.9871 26.3949Z" fill="#242425"/>
<path d="M24.4145 10.2805C24.69 10.3987 24.9408 10.5667 25.1542 10.7758C25.3658 10.9862 25.5354 11.2341 25.6544 11.5067C25.7803 11.7898 25.8447 12.096 25.8434 12.4053V23.9135C25.8449 23.9629 25.8359 24.0121 25.8171 24.058C25.7983 24.1038 25.7701 24.1453 25.7342 24.1797C25.6991 24.2153 25.657 24.2434 25.6105 24.2623C25.564 24.2811 25.514 24.2904 25.4638 24.2894H22.6841C22.6352 24.2911 22.5865 24.2821 22.5415 24.2631C22.4964 24.2442 22.4561 24.2157 22.4234 24.1797C22.3562 24.1073 22.3205 24.0117 22.324 23.9135V13.4524H20.0836V23.9135C20.087 24.0117 20.0513 24.1073 19.9842 24.1797C19.9515 24.2157 19.9111 24.2442 19.8661 24.2631C19.8211 24.2821 19.7724 24.2911 19.7235 24.2894H17.2045C17.1542 24.2904 17.1043 24.2811 17.0578 24.2623C17.0113 24.2434 16.9692 24.2153 16.934 24.1797C16.898 24.1453 16.8695 24.1039 16.8504 24.0581C16.8314 24.0123 16.8221 23.9631 16.8232 23.9135V13.4524H14.5845V23.9135C14.5915 23.9647 14.5865 24.0167 14.5698 24.0656C14.5531 24.1145 14.5252 24.159 14.4883 24.1954C14.4513 24.2318 14.4064 24.2593 14.3569 24.2756C14.3074 24.2919 14.2548 24.2966 14.2032 24.2894H11.4447C11.3931 24.2966 11.3404 24.2919 11.291 24.2756C11.2415 24.2593 11.1965 24.2318 11.1596 24.1954C11.1227 24.159 11.0947 24.1145 11.0781 24.0656C11.0614 24.0167 11.0563 23.9647 11.0634 23.9135V10.4693C11.0563 10.4181 11.0614 10.3661 11.0781 10.3171C11.0947 10.2682 11.1227 10.2238 11.1596 10.1874C11.1965 10.151 11.2415 10.1235 11.291 10.1072C11.3404 10.0909 11.3931 10.0862 11.4447 10.0934H23.502C23.816 10.0919 24.1269 10.1557 24.4145 10.2805Z" fill="#E73427"/>
<path d="M24.4145 10.2805C24.69 10.3987 24.9408 10.5667 25.1542 10.7758C25.3658 10.9862 25.5354 11.2341 25.6544 11.5067C25.7803 11.7898 25.8447 12.096 25.8434 12.4053V13.4314L22.324 13.4524H14.5845L11.0634 13.4314V10.4693C11.0563 10.4181 11.0614 10.3661 11.0781 10.3171C11.0947 10.2682 11.1227 10.2238 11.1596 10.1874C11.1965 10.151 11.2415 10.1235 11.291 10.1072C11.3404 10.0909 11.3931 10.0862 11.4447 10.0934H23.502C23.816 10.0919 24.1269 10.1557 24.4145 10.2805Z" fill="#E73427"/>
<path d="M37.9643 20.8433C38.0155 20.8416 38.0665 20.8506 38.114 20.8698C38.1614 20.8889 38.2043 20.9179 38.2396 20.9546C38.3098 21.0288 38.3478 21.1273 38.3455 21.2289V23.9055C38.3478 24.0071 38.3098 24.1055 38.2396 24.1797C38.2043 24.2165 38.1614 24.2454 38.114 24.2646C38.0665 24.2838 38.0155 24.2928 37.9643 24.2911H28.4439C28.3902 24.2995 28.3353 24.2954 28.2835 24.2792C28.2317 24.263 28.1844 24.2351 28.1454 24.1977C28.1064 24.1603 28.0767 24.1145 28.0586 24.0637C28.0406 24.013 28.0347 23.9588 28.0414 23.9055V10.487C28.0347 10.4337 28.0406 10.3795 28.0586 10.3288C28.0767 10.278 28.1064 10.2322 28.1454 10.1948C28.1844 10.1574 28.2317 10.1295 28.2835 10.1133C28.3353 10.0971 28.3902 10.093 28.4439 10.1014H31.3767C31.4299 10.0941 31.484 10.099 31.535 10.1157C31.5859 10.1324 31.6323 10.1605 31.6706 10.1977C31.7088 10.235 31.7379 10.2804 31.7556 10.3306C31.7733 10.3808 31.7792 10.4343 31.7727 10.487V20.49C31.7706 20.5398 31.78 20.5895 31.8 20.6353C31.82 20.6811 31.8502 20.7219 31.8883 20.7545C31.9677 20.8229 32.07 20.8592 32.1751 20.8562L37.9643 20.8433Z" fill="#1D539F"/>
<path d="M31.7402 24.291H28.4423C28.3888 24.2992 28.3341 24.2949 28.2825 24.2786C28.2309 24.2623 28.1839 24.2343 28.145 24.197C28.1062 24.1596 28.0766 24.1138 28.0587 24.0633C28.0407 24.0127 28.0348 23.9587 28.0415 23.9054V10.487C28.0348 10.4338 28.0407 10.3798 28.0587 10.3292C28.0766 10.2786 28.1062 10.2329 28.145 10.1955C28.1839 10.1581 28.2309 10.1302 28.2825 10.1139C28.3341 10.0975 28.3888 10.0933 28.4423 10.1014H31.3605C31.414 10.0933 31.4687 10.0975 31.5203 10.1139C31.5719 10.1302 31.619 10.1581 31.6578 10.1955C31.6966 10.2329 31.7262 10.2786 31.7442 10.3292C31.7621 10.3798 31.768 10.4338 31.7613 10.487V20.4899C31.7613 20.5867 31.7402 24.291 31.7402 24.291Z" fill="#1D539F"/>
<path d="M52.601 10.0934C52.6538 10.0922 52.7064 10.1014 52.7556 10.1205C52.8049 10.1396 52.8498 10.1682 52.8877 10.2047C52.9257 10.24 52.9557 10.2828 52.9759 10.3303C52.9961 10.3778 53.006 10.429 53.0051 10.4806V23.9442C53.0062 23.9955 52.9963 24.0465 52.9761 24.0938C52.9559 24.141 52.9258 24.1835 52.8877 24.2184C52.8501 24.2554 52.8053 24.2844 52.756 24.3038C52.7067 24.3232 52.654 24.3326 52.601 24.3314H49.6388C49.5855 24.3327 49.5325 24.3234 49.483 24.304C49.4334 24.2846 49.3883 24.2555 49.3504 24.2184C49.3126 24.1834 49.2827 24.1409 49.2627 24.0936C49.2428 24.0463 49.2332 23.9954 49.2347 23.9442V19.246C49.2365 19.1969 49.2279 19.148 49.2094 19.1024C49.1909 19.0568 49.1628 19.0156 49.1272 18.9814C49.0901 18.9472 49.0465 18.9205 48.999 18.9031C48.9514 18.8856 48.9008 18.8777 48.8502 18.8798H44.6969C44.5913 18.8767 44.4884 18.913 44.4085 18.9814C44.3703 19.0141 44.3399 19.0548 44.3196 19.1006C44.2993 19.1464 44.2896 19.196 44.2912 19.246V23.9442C44.2979 23.9977 44.292 24.0521 44.2738 24.103C44.2557 24.154 44.2259 24.2 44.1867 24.2376C44.1475 24.2751 44.1 24.3031 44.0481 24.3194C43.9961 24.3357 43.941 24.3398 43.8871 24.3314H40.9461C40.8922 24.3401 40.8369 24.3363 40.7848 24.3201C40.7326 24.304 40.685 24.276 40.6458 24.2383C40.6065 24.2007 40.5767 24.1545 40.5586 24.1034C40.5406 24.0523 40.5349 23.9978 40.542 23.9442V10.487C40.5349 10.4334 40.5406 10.3788 40.5586 10.3278C40.5767 10.2767 40.6065 10.2305 40.6458 10.1928C40.685 10.1552 40.7326 10.1272 40.7848 10.1111C40.8369 10.0949 40.8922 10.0911 40.9461 10.0998H43.8871C43.941 10.0914 43.9961 10.0955 44.0481 10.1118C44.1 10.1281 44.1475 10.1561 44.1867 10.1936C44.2259 10.2312 44.2557 10.2772 44.2738 10.3281C44.292 10.3791 44.2979 10.4334 44.2912 10.487V15.0351C44.2912 15.2933 44.4264 15.4223 44.6969 15.4223H48.8502C48.9017 15.4242 48.953 15.4152 49.0007 15.396C49.0484 15.3768 49.0915 15.3479 49.1272 15.311C49.1626 15.2743 49.1904 15.2311 49.2088 15.1837C49.2273 15.1364 49.2361 15.0859 49.2347 15.0351V10.487C49.2334 10.4356 49.2431 10.3845 49.263 10.3369C49.2829 10.2894 49.3127 10.2466 49.3504 10.2111C49.3886 10.1746 49.4338 10.1459 49.4833 10.1268C49.5328 10.1077 49.5857 10.0985 49.6388 10.0998L52.601 10.0934Z" fill="#F8B92A"/>
<path d="M44.2912 19.246V23.9441C44.2979 23.9977 44.292 24.0521 44.2738 24.103C44.2557 24.1539 44.2259 24.2 44.1867 24.2375C44.1475 24.2751 44.1 24.3031 44.0481 24.3194C43.9961 24.3357 43.941 24.3398 43.8871 24.3313H40.9461C40.8922 24.3401 40.8369 24.3363 40.7848 24.3201C40.7326 24.3039 40.685 24.2759 40.6458 24.2383C40.6065 24.2007 40.5767 24.1545 40.5586 24.1034C40.5406 24.0523 40.5349 23.9978 40.542 23.9441V10.487C40.5349 10.4334 40.5406 10.3788 40.5586 10.3277C40.5767 10.2766 40.6065 10.2305 40.6458 10.1928C40.685 10.1552 40.7326 10.1272 40.7848 10.111C40.8369 10.0949 40.8922 10.091 40.9461 10.0998H43.8871C43.941 10.0914 43.9961 10.0955 44.0481 10.1118C44.1 10.128 44.1475 10.1561 44.1867 10.1936C44.2259 10.2311 44.2557 10.2772 44.2738 10.3281C44.292 10.379 44.2979 10.4334 44.2912 10.487V19.2525V19.246Z" fill="#F8B92A"/>
<path d="M52.601 10.0934C52.6539 10.0922 52.7065 10.1014 52.7557 10.1205C52.8049 10.1396 52.8498 10.1682 52.8878 10.2047C52.9257 10.24 52.9557 10.2828 52.976 10.3303C52.9962 10.3778 53.0061 10.429 53.0051 10.4806V23.9442C53.0063 23.9955 52.9964 24.0465 52.9762 24.0938C52.956 24.141 52.9258 24.1835 52.8878 24.2184C52.8501 24.2554 52.8053 24.2844 52.7561 24.3038C52.7068 24.3232 52.6541 24.3326 52.601 24.3314H49.6388C49.5856 24.3327 49.5326 24.3234 49.483 24.304C49.4335 24.2846 49.3884 24.2555 49.3504 24.2184C49.3126 24.1835 49.2828 24.1409 49.2628 24.0936C49.2429 24.0463 49.2333 23.9954 49.2348 23.9442V10.487C49.2335 10.4356 49.2431 10.3845 49.263 10.3369C49.283 10.2894 49.3128 10.2466 49.3504 10.2111C49.3887 10.1746 49.4338 10.1459 49.4834 10.1268C49.5329 10.1077 49.5857 10.0985 49.6388 10.0998L52.601 10.0934Z" fill="#F8B92A"/>
<path d="M12.4891 78.7051V80.3459C12.4973 80.4262 12.5371 80.5002 12.5999 80.5518C12.6627 80.6034 12.7434 80.6285 12.8247 80.6218H19.0636C19.1088 80.6202 19.1539 80.6285 19.1956 80.6461C19.2372 80.6636 19.2745 80.69 19.3047 80.7234C19.3668 80.7913 19.4 80.8803 19.3976 80.9719V83.1967C19.4 83.2882 19.3668 83.3772 19.3047 83.4452C19.2745 83.4785 19.2372 83.5049 19.1956 83.5225C19.1539 83.54 19.1088 83.5484 19.0636 83.5468H9.92609C9.87813 83.5536 9.82923 83.5492 9.78329 83.534C9.73734 83.5188 9.69562 83.4931 9.66144 83.4591C9.62727 83.4251 9.60158 83.3837 9.58642 83.3381C9.57127 83.2926 9.56706 83.2441 9.57415 83.1967V77.9258C9.5709 77.6418 9.62635 77.3602 9.73708 77.0981C9.84643 76.8439 10.0041 76.6127 10.2015 76.4173C10.4007 76.2196 10.6378 76.0633 10.8988 75.9575C11.1665 75.8486 11.4535 75.7938 11.7428 75.7962H16.1421C16.1887 75.797 16.2349 75.7886 16.2781 75.7714C16.3213 75.7543 16.3605 75.7286 16.3935 75.6961C16.4265 75.6636 16.4526 75.6249 16.4701 75.5822C16.4877 75.5395 16.4964 75.4938 16.4957 75.4477V73.9569C16.4967 73.911 16.488 73.8654 16.4704 73.8229C16.4527 73.7804 16.4264 73.742 16.3931 73.7101C16.3605 73.677 16.3214 73.6509 16.2782 73.6335C16.2351 73.616 16.1888 73.6075 16.1421 73.6084H10.3171C10.2728 73.6098 10.2287 73.6021 10.1875 73.586C10.1463 73.5699 10.1088 73.5456 10.0774 73.5146C10.046 73.4837 10.0213 73.4467 10.0048 73.4059C9.98828 73.3652 9.98036 73.3216 9.98149 73.2777V71.019C9.97924 70.9274 10.0125 70.8385 10.0744 70.7705C10.1056 70.7381 10.1433 70.7124 10.1851 70.6952C10.2269 70.678 10.2719 70.6695 10.3171 70.6705H17.2452C17.5332 70.6687 17.8182 70.7281 18.0811 70.8447C18.3354 70.9575 18.568 71.1131 18.7687 71.3045C18.968 71.4984 19.1259 71.7299 19.233 71.9854C19.3432 72.2509 19.3986 72.5356 19.396 72.8227V73.3374C19.403 73.3446 19.4083 73.3533 19.4117 73.3627C19.4151 73.3722 19.4164 73.3822 19.4155 73.3922V78.0871C19.4171 78.132 19.4087 78.1766 19.391 78.2178C19.3733 78.2591 19.3466 78.296 19.3129 78.3259C19.2435 78.3841 19.1544 78.414 19.0636 78.4098H12.8247C12.7412 78.407 12.6598 78.4361 12.5974 78.4911C12.5349 78.546 12.4961 78.6226 12.4891 78.7051Z" fill="#122F4C"/>
<path d="M29.1136 70.6658C29.4047 70.6645 29.6928 70.7239 29.9592 70.84C30.2153 70.9496 30.4485 71.1056 30.6468 71.2998C30.8423 71.4968 30.9997 71.7275 31.1112 71.9807C31.2287 72.2444 31.2886 72.5298 31.2872 72.818V81.3883C31.2883 81.6765 31.2283 81.9617 31.1112 82.2256C30.9988 82.4806 30.8416 82.7139 30.6468 82.9145C30.4519 83.1129 30.2179 83.2694 29.9592 83.3743C29.6912 83.484 29.4036 83.5388 29.1136 83.5357H23.5232C23.2332 83.539 22.9455 83.4841 22.6776 83.3743C22.4173 83.2679 22.1809 83.1117 21.9818 82.9145C21.7827 82.7174 21.6249 82.4833 21.5175 82.2256C21.4069 81.9602 21.3514 81.6754 21.3545 81.3883V72.8196C21.3511 72.5325 21.4066 72.2476 21.5175 71.9823C21.6234 71.7262 21.7815 71.4944 21.9818 71.3015C22.184 71.1081 22.4197 70.9524 22.6776 70.8416C22.9439 70.7253 23.2321 70.6659 23.5232 70.6674H29.1136V70.6658ZM28.1359 73.7925H24.5073V80.4073H28.1294L28.1359 73.7925Z" fill="#122F4C"/>
<path d="M36.0986 78.7052V80.346C36.1065 80.4247 36.1448 80.4974 36.2055 80.5488C36.2663 80.6002 36.3447 80.6264 36.4245 80.6219H42.665C42.7102 80.6203 42.7553 80.6286 42.7969 80.6462C42.8386 80.6637 42.8759 80.6901 42.9061 80.7235C42.9682 80.7914 43.0014 80.8804 42.999 80.972V83.1968C43.0014 83.2884 42.9682 83.3773 42.9061 83.4453C42.8759 83.4786 42.8386 83.505 42.7969 83.5226C42.7553 83.5402 42.7102 83.5485 42.665 83.5469H33.534C33.486 83.5537 33.4371 83.5493 33.3912 83.5341C33.3453 83.5189 33.3035 83.4933 33.2694 83.4593C33.2352 83.4253 33.2095 83.3838 33.1943 83.3383C33.1792 83.2927 33.175 83.2443 33.1821 83.1968V77.9259C33.1788 77.6419 33.2343 77.3603 33.345 77.0983C33.4549 76.8443 33.6125 76.6133 33.8094 76.4174C34.0086 76.2197 34.2457 76.0634 34.5067 75.9576C34.7749 75.8486 35.0625 75.7937 35.3524 75.7963H39.7517C39.7982 75.7971 39.8444 75.7887 39.8876 75.7715C39.9308 75.7544 39.9701 75.7288 40.0031 75.6962C40.036 75.6637 40.0621 75.625 40.0796 75.5823C40.0972 75.5396 40.1059 75.4939 40.1052 75.4478V73.957C40.1062 73.9111 40.0976 73.8655 40.0799 73.823C40.0622 73.7805 40.0359 73.7421 40.0026 73.7102C39.97 73.6771 39.9309 73.6511 39.8878 73.6336C39.8446 73.6161 39.7983 73.6076 39.7517 73.6085H33.925C33.8809 73.6096 33.8369 73.6019 33.7959 73.5856C33.7549 73.5694 33.7176 73.5451 33.6864 73.5141C33.6551 73.4832 33.6306 73.4463 33.6142 73.4057C33.5978 73.365 33.5899 73.3215 33.591 73.2778V71.0191C33.5888 70.9276 33.622 70.8386 33.6839 70.7706C33.7144 70.7377 33.7518 70.7117 33.7934 70.6945C33.835 70.6772 33.8799 70.6691 33.925 70.6706H40.8531C41.1411 70.6688 41.4261 70.7282 41.689 70.8448C41.9435 70.9572 42.1762 71.1128 42.3766 71.3046C42.5759 71.4985 42.7338 71.73 42.8409 71.9855C42.9511 72.251 43.0065 72.5357 43.0039 72.8228V73.3375C43.0109 73.3448 43.0162 73.3534 43.0196 73.3628C43.023 73.3723 43.0243 73.3824 43.0234 73.3923V78.0873C43.025 78.1321 43.0166 78.1767 42.9989 78.2179C42.9812 78.2592 42.9545 78.2961 42.9208 78.326C42.8522 78.3875 42.7623 78.4204 42.6699 78.418H36.4326C36.3507 78.4155 36.2708 78.4436 36.2089 78.4969C36.147 78.5501 36.1076 78.6245 36.0986 78.7052Z" fill="#122F4C"/>
<path d="M47.8366 78.7051V80.3459C47.8449 80.4263 47.8847 80.5002 47.9475 80.5518C48.0103 80.6034 48.091 80.6285 48.1723 80.6218H54.4209C54.4662 80.6202 54.5112 80.6285 54.5529 80.6461C54.5946 80.6636 54.6318 80.69 54.6621 80.7234C54.7241 80.7913 54.7574 80.8803 54.755 80.9719V83.1967C54.7574 83.2883 54.7241 83.3772 54.6621 83.4452C54.6318 83.4786 54.5946 83.5049 54.5529 83.5225C54.5112 83.5401 54.4662 83.5484 54.4209 83.5468H45.2736C45.2256 83.5535 45.1767 83.5491 45.1307 83.5339C45.0847 83.5187 45.0429 83.4931 45.0086 83.4591C44.9743 83.4252 44.9485 83.3838 44.9331 83.3383C44.9177 83.2927 44.9133 83.2443 44.9201 83.1967V77.9258C44.9168 77.6418 44.9723 77.3602 45.083 77.0982C45.1918 76.8436 45.3495 76.6123 45.5474 76.4173C45.7466 76.2196 45.9837 76.0633 46.2448 75.9575C46.5124 75.8486 46.7994 75.7938 47.0888 75.7962H51.4881C51.5346 75.797 51.5808 75.7886 51.624 75.7714C51.6672 75.7543 51.7065 75.7287 51.7395 75.6961C51.7724 75.6636 51.7985 75.6249 51.816 75.5822C51.8336 75.5395 51.8423 75.4938 51.8416 75.4477V73.9569C51.8426 73.911 51.834 73.8654 51.8163 73.8229C51.7986 73.7804 51.7723 73.742 51.739 73.7101C51.7064 73.677 51.6673 73.6509 51.6242 73.6335C51.581 73.616 51.5347 73.6075 51.4881 73.6084H45.6647C45.6204 73.6098 45.5763 73.6021 45.5351 73.586C45.4938 73.5699 45.4564 73.5456 45.4249 73.5146C45.3935 73.4837 45.3688 73.4467 45.3523 73.4059C45.3358 73.3652 45.3279 73.3216 45.329 73.2777V71.019C45.3268 70.9274 45.36 70.8385 45.4219 70.7705C45.4531 70.7381 45.4909 70.7124 45.5327 70.6952C45.5745 70.678 45.6194 70.6695 45.6647 70.6705H52.5928C52.8808 70.6687 53.1658 70.7281 53.4286 70.8447C53.683 70.9575 53.9156 71.1131 54.1162 71.3045C54.3156 71.4984 54.4735 71.7299 54.5806 71.9854C54.6908 72.2509 54.7462 72.5356 54.7436 72.8227V73.3374C54.7502 73.3448 54.7553 73.3535 54.7584 73.3629C54.7615 73.3724 54.7625 73.3824 54.7615 73.3922V78.0872C54.763 78.1318 54.7548 78.1763 54.7374 78.2175C54.7199 78.2587 54.6937 78.2957 54.6605 78.3259C54.5936 78.3818 54.5084 78.4116 54.4209 78.4098H48.1804C48.0956 78.4049 48.0121 78.433 47.9479 78.4882C47.8836 78.5434 47.8437 78.6212 47.8366 78.7051Z" fill="#122F4C"/>
</g>
<defs>
<clipPath id="clip0_628_543">
<rect width="64" height="111" fill="white"/>
</clipPath>
</defs>
</svg>
