<svg width="375" height="438" viewBox="0 0 375 438" fill="none" xmlns="http://www.w3.org/2000/svg">
<g clip-path="url(#clip0_977_410)">
<mask id="mask0_977_410" style="mask-type:alpha" maskUnits="userSpaceOnUse" x="-32" y="-71" width="423" height="511">
<path fill-rule="evenodd" clip-rule="evenodd" d="M-17 99C-14.2386 99 -12 96.7614 -12 94V-66C-12 -68.7614 -9.7614 -71 -6.99998 -71H382C384.761 -71 387 -68.7614 387 -66V97C387 98.1046 387.895 99 389 99C390.105 99 391 99.8954 391 101V434.377C391 437.37 388.388 439.693 385.416 439.343L-27.5841 390.761C-30.1022 390.465 -32 388.331 -32 385.796V104C-32 101.239 -29.7614 99 -27 99H-17Z" fill="#C4C4C4"/>
</mask>
<g mask="url(#mask0_977_410)">
<path d="M169.004 60.9995H11.0039V433H169.004V60.9995Z" fill="#173A52"/>
<path d="M299.004 -1.00049V26.0496C299.004 32.2258 296.583 38.1492 292.272 42.5172C287.962 46.8851 282.116 49.3401 276.019 49.3423H258.281V60.5823C258.281 63.6413 257.687 66.6704 256.531 69.4966C255.375 72.3228 253.681 74.8907 251.546 77.0536C249.411 79.2166 246.876 80.9323 244.086 82.1027C241.296 83.2731 238.306 83.8753 235.286 83.875H197.725V100.704C197.725 103.763 197.131 106.792 195.975 109.619C194.82 112.445 193.126 115.013 190.991 117.176C188.856 119.34 186.321 121.055 183.532 122.226C180.742 123.397 177.752 124 174.732 124H54.8204C48.9604 124 43.3213 121.734 39.0553 117.664C34.7893 113.594 32.2182 108.027 31.8673 102.101H-9.99609V-1.00049H299.004Z" fill="#275C40"/>
<path d="M299.004 -1.00049V26.0496C299.004 29.1087 298.407 32.1378 297.246 34.9639C296.086 37.7901 294.385 40.358 292.241 42.5209C290.097 44.6839 287.551 46.3996 284.75 47.57C281.949 48.7404 278.946 49.3426 275.914 49.3423H258.125V60.5823C258.125 63.6414 257.527 66.6705 256.367 69.4966C255.207 72.3228 253.506 74.8907 251.362 77.0536C249.217 79.2166 246.672 80.9323 243.871 82.1027C241.069 83.2731 238.067 83.8753 235.035 83.875H197.3V100.704C197.3 103.763 196.704 106.792 195.543 109.619C194.383 112.445 192.683 115.013 190.539 117.176C188.395 119.34 185.85 121.055 183.049 122.226C180.247 123.397 177.245 124 174.213 124H144.004C147.576 124 151.114 123.29 154.414 121.91C157.715 120.531 160.714 118.509 163.24 115.96C165.766 113.412 167.769 110.386 169.136 107.056C170.503 103.726 171.207 100.157 171.206 96.5525V76.7249H215.653C219.225 76.7253 222.763 76.0157 226.063 74.6369C229.364 73.258 232.363 71.2367 234.889 68.6885C237.415 66.1404 239.419 63.1151 240.786 59.7855C242.154 56.456 242.858 52.8873 242.858 49.2833V36.0398H263.816C267.389 36.0412 270.928 35.3324 274.229 33.9538C277.531 32.5753 280.531 30.5539 283.058 28.0054C285.585 25.4568 287.59 22.4309 288.957 19.1005C290.325 15.7701 291.029 12.2004 291.029 8.5955V-1.00049H299.004Z" fill="#367B55"/>
<path d="M109.983 378.737H101.902V375.692C101.902 369.54 99.4781 363.639 95.1629 359.288C90.8478 354.937 84.995 352.493 78.8921 352.492H55.6407V345.197C55.6411 342.151 55.0462 339.134 53.8899 336.319C52.7337 333.505 51.0388 330.947 48.902 328.793C46.7652 326.639 44.2284 324.93 41.4366 323.765C38.6447 322.599 35.6524 321.999 32.6305 322H-48.0418C-53.0105 322 -57.8457 323.621 -61.8254 326.62C-65.805 329.619 -68.7155 333.836 -70.1221 338.64H-102.996V417H133.004V401.938C133.004 398.89 132.408 395.873 131.251 393.057C130.094 390.242 128.399 387.684 126.261 385.53C124.123 383.375 121.585 381.666 118.792 380.501C115.999 379.336 113.006 378.736 109.983 378.737ZM6.2926 401.938V399.518H6.41713C6.33414 400.322 6.29258 401.129 6.2926 401.938Z" fill="#037D52"/>
<path d="M110.087 378.729H102.042V375.685C102.042 369.533 99.6291 363.633 95.3334 359.283C91.0377 354.933 85.2113 352.488 79.1358 352.488H55.9892V345.194C55.9896 342.148 55.3973 339.132 54.2463 336.317C53.0952 333.503 51.4079 330.946 49.2808 328.792C47.1537 326.638 44.6283 324.93 41.849 323.764C39.0697 322.599 36.0909 321.999 33.0826 322H5.00391C8.682 321.999 12.3241 322.732 15.7223 324.158C19.1205 325.583 22.2082 327.672 24.809 330.305C27.4098 332.939 29.4728 336.065 30.8802 339.506C32.2876 342.947 33.0118 346.635 33.0114 350.359V359.276H61.3064C68.7347 359.277 75.8585 362.265 81.1108 367.584C86.3632 372.903 89.3139 380.117 89.3139 387.638V391.361H99.1491C106.112 391.362 112.824 393.988 117.979 398.728C123.133 403.468 126.359 409.982 127.027 417H133.004V401.94C133.006 398.892 132.414 395.873 131.263 393.057C130.112 390.24 128.424 387.681 126.296 385.525C124.167 383.37 121.64 381.66 118.859 380.494C116.078 379.328 113.097 378.728 110.087 378.729Z" fill="#009056"/>
<path d="M223.729 387.998H163.827C162.152 388.023 160.489 387.713 158.934 387.088C157.38 386.463 155.964 385.535 154.771 384.357C153.578 383.179 152.63 381.775 151.984 380.228C151.337 378.68 151.004 377.019 151.004 375.341C151.004 373.663 151.337 372.002 151.984 370.455C152.63 368.907 153.578 367.503 154.771 366.326C155.964 365.148 157.38 364.219 158.934 363.594C160.489 362.969 162.152 362.66 163.827 362.684H223.729C233.485 362.684 241.727 356.566 241.727 349.314V330.474C241.775 327.149 243.128 323.976 245.493 321.642C247.858 319.308 251.045 318 254.366 318C257.686 318 260.873 319.308 263.238 321.642C265.603 323.976 266.956 327.149 267.004 330.474V349.314C267.004 359.887 262.104 370.112 253.566 377.364C245.497 384.22 234.903 387.998 223.729 387.998Z" fill="#173A52"/>
<path d="M270.06 247.835C270.06 247.835 265.412 253.655 268.283 257.009C271.154 260.363 274.863 253.763 274.863 253.763L277.455 250.099L274.249 242.88C274.249 242.88 271.217 246.103 270.06 247.835Z" fill="#EEEEEE"/>
<path d="M315.064 274.194L310.162 273.742C309.681 273.698 309.238 273.465 308.929 273.093C308.621 272.722 308.472 272.244 308.516 271.763L308.861 268.03L317.4 268.817L317.056 272.55C317.034 272.789 316.965 273.022 316.853 273.234C316.741 273.446 316.587 273.634 316.402 273.787C316.217 273.94 316.003 274.055 315.774 274.124C315.544 274.194 315.303 274.218 315.064 274.194Z" fill="white"/>
<path d="M280.075 270.971L275.289 270.53C275.057 270.508 274.831 270.441 274.624 270.333C274.418 270.224 274.235 270.076 274.086 269.896C273.936 269.717 273.824 269.51 273.755 269.287C273.686 269.064 273.661 268.829 273.683 268.597L274.031 264.819L282.354 265.586L282.005 269.364C281.962 269.833 281.735 270.266 281.373 270.567C281.011 270.868 280.544 271.014 280.075 270.971Z" fill="#EEEEEE"/>
<path d="M310.744 220.812C304.273 218.29 297.224 217.631 290.397 218.91L290.337 218.92C287.345 219.478 284.552 220.816 282.242 222.799C279.932 224.781 278.186 227.339 277.181 230.212C275.266 235.703 272.197 253.651 271.703 259.011C271.703 259.011 269.985 270.039 295.673 272.407C321.362 274.776 321.614 263.612 321.614 263.612C321.614 263.612 322.327 255.879 322.438 252.503C322.601 247.841 322.562 240.911 321.584 234.365C321.128 231.354 319.885 228.516 317.982 226.139C316.078 223.762 313.581 221.929 310.743 220.825L310.744 220.812Z" fill="#F1F1F1"/>
<path d="M310.744 220.812C304.273 218.29 297.224 217.631 290.397 218.91L290.337 218.92C287.345 219.478 284.552 220.816 282.242 222.799C279.932 224.781 278.186 227.339 277.181 230.212C275.266 235.703 272.197 253.651 271.703 259.011C271.703 259.011 269.985 270.039 295.673 272.407C321.362 274.776 321.614 263.612 321.614 263.612C321.614 263.612 322.327 255.879 322.438 252.503C322.601 247.841 322.562 240.911 321.584 234.365C321.128 231.354 319.885 228.516 317.982 226.139C316.078 223.762 313.581 221.929 310.743 220.825L310.744 220.812Z" fill="white"/>
<path d="M307.118 246.754L311.173 247.128C312.358 247.237 313.407 246.365 313.517 245.18L313.633 243.915C313.742 242.73 312.87 241.681 311.685 241.572L307.63 241.198C306.445 241.089 305.396 241.961 305.287 243.146L305.17 244.41C305.061 245.595 305.933 246.645 307.118 246.754Z" fill="#F7D3D2"/>
<path d="M277.696 244.043L281.751 244.417C282.936 244.526 283.986 243.654 284.095 242.469L284.211 241.204C284.321 240.019 283.449 238.97 282.264 238.861L278.208 238.487C277.023 238.378 275.974 239.25 275.865 240.435L275.748 241.699C275.639 242.884 276.511 243.934 277.696 244.043Z" fill="#F7D3D2"/>
<path d="M283.91 237.758C285.437 237.899 286.788 236.775 286.929 235.248C287.07 233.721 285.946 232.369 284.419 232.229C282.893 232.088 281.541 233.212 281.4 234.738C281.259 236.265 282.383 237.617 283.91 237.758Z" fill="black"/>
<path d="M306.097 239.803C307.624 239.944 308.976 238.82 309.117 237.293C309.257 235.766 308.134 234.414 306.607 234.274C305.08 234.133 303.728 235.257 303.587 236.783C303.447 238.31 304.57 239.662 306.097 239.803Z" fill="black"/>
<path d="M305.889 221.207C305.463 221.06 305.111 220.752 304.909 220.349C304.706 219.946 304.669 219.48 304.804 219.05C305.875 215.681 308.728 208.318 313.023 209.341C318.077 210.546 314.662 218.766 313.054 222.081C312.862 222.458 312.541 222.753 312.15 222.915C311.759 223.077 311.324 223.095 310.921 222.965L305.889 221.207Z" fill="#F7D3D2"/>
<path d="M311.171 224.604C311.841 224.665 312.513 224.523 313.1 224.196C313.688 223.87 314.163 223.374 314.464 222.773C316.328 218.943 318.238 213.679 316.671 210.413C316.361 209.758 315.903 209.183 315.333 208.735C314.763 208.288 314.097 207.978 313.387 207.831C309.404 206.877 305.828 210.699 303.324 218.587C303.061 219.405 303.129 220.293 303.514 221.061C303.899 221.829 304.569 222.415 305.382 222.693L310.415 224.449C310.66 224.531 310.914 224.583 311.171 224.604ZM312.418 210.818C312.502 210.827 312.585 210.841 312.668 210.86C313.435 211.043 313.707 211.425 313.854 211.74C314.613 213.342 313.771 217.042 311.653 221.409C311.627 221.44 311.595 221.465 311.558 221.48C311.521 221.496 311.481 221.503 311.442 221.499L306.409 219.744C306.367 219.73 306.332 219.7 306.311 219.661C306.29 219.622 306.285 219.576 306.297 219.533C307.642 215.306 310.027 210.598 312.418 210.818Z" fill="white"/>
<path d="M294.123 220.492C294.568 220.425 294.97 220.186 295.242 219.827C295.515 219.468 295.636 219.017 295.581 218.57C295.144 215.061 293.685 207.301 289.275 207.522C284.089 207.783 285.941 216.488 286.918 220.042C287.033 220.45 287.293 220.803 287.65 221.032C288.007 221.262 288.435 221.353 288.855 221.287L294.123 220.492Z" fill="#F7D3D2"/>
<path d="M288.284 222.87C288.552 222.895 288.821 222.888 289.087 222.847L294.356 222.039C295.206 221.915 295.973 221.461 296.492 220.776C297.011 220.091 297.24 219.23 297.129 218.378C296.102 210.167 293.288 205.751 289.203 205.964C288.478 205.979 287.766 206.161 287.123 206.497C286.481 206.833 285.925 207.314 285.499 207.901C283.383 210.828 284.286 216.346 285.409 220.457C285.587 221.103 285.957 221.681 286.47 222.112C286.984 222.543 287.617 222.807 288.284 222.87ZM289.606 209.088C291.987 209.308 293.478 214.373 294.028 218.765C294.032 218.808 294.02 218.852 293.993 218.887C293.966 218.922 293.926 218.945 293.883 218.951L288.614 219.757C288.572 219.764 288.528 219.755 288.492 219.731C288.456 219.708 288.431 219.672 288.42 219.63C287.138 214.96 286.986 211.168 288.024 209.721C288.228 209.442 288.563 209.112 289.354 209.073C289.438 209.073 289.522 209.078 289.606 209.088Z" fill="white"/>
<path d="M282.49 268.751L301.805 270.532C304.125 270.746 306.18 269.038 306.394 266.718L307.441 255.358C307.655 253.038 305.947 250.983 303.627 250.77L284.312 248.989C281.992 248.775 279.937 250.483 279.723 252.803L278.676 264.163C278.462 266.483 280.17 268.537 282.49 268.751Z" fill="#F3F3F3"/>
<path d="M325.741 254.299C325.741 254.299 329.235 260.881 325.792 263.642C322.349 266.404 319.924 259.251 319.924 259.251L318.054 255.173L322.538 248.671C322.538 248.671 324.925 252.386 325.741 254.299Z" fill="white"/>
<path d="M289.636 266.887C289.718 266.895 289.8 266.886 289.878 266.862C289.956 266.837 290.029 266.798 290.092 266.745L293.12 264.228C293.248 264.122 293.328 263.97 293.343 263.805C293.358 263.639 293.307 263.475 293.201 263.347C293.095 263.22 292.943 263.139 292.778 263.124C292.612 263.109 292.448 263.16 292.32 263.266L289.292 265.783C289.199 265.863 289.132 265.968 289.098 266.086C289.065 266.204 289.066 266.329 289.103 266.446C289.139 266.563 289.209 266.666 289.304 266.744C289.399 266.821 289.515 266.869 289.636 266.882L289.636 266.887Z" fill="#F7D3D2"/>
<path d="M292.408 267.142C292.53 267.151 292.652 267.125 292.759 267.066C292.866 267.007 292.954 266.917 293.011 266.809C293.068 266.701 293.092 266.579 293.08 266.457C293.068 266.335 293.021 266.22 292.945 266.124L290.428 263.096C290.322 262.969 290.169 262.888 290.004 262.873C289.839 262.858 289.675 262.909 289.547 263.015C289.419 263.121 289.339 263.273 289.324 263.439C289.309 263.604 289.36 263.768 289.466 263.896L291.983 266.924C292.036 266.987 292.101 267.038 292.174 267.075C292.247 267.113 292.326 267.135 292.408 267.142Z" fill="#F7D3D2"/>
<path d="M293.832 239.502L297.139 238.184C297.216 238.154 297.285 238.109 297.344 238.051C297.403 237.994 297.449 237.926 297.482 237.85C297.514 237.775 297.531 237.694 297.532 237.612C297.533 237.53 297.518 237.448 297.488 237.372C297.457 237.296 297.412 237.226 297.355 237.167C297.297 237.109 297.229 237.062 297.154 237.029C297.078 236.997 296.997 236.98 296.915 236.979C296.833 236.978 296.752 236.993 296.675 237.024L293.953 238.107L291.244 236.435C291.174 236.392 291.097 236.363 291.016 236.349C290.935 236.336 290.852 236.339 290.772 236.358C290.692 236.376 290.617 236.411 290.55 236.459C290.484 236.507 290.427 236.567 290.384 236.637C290.341 236.707 290.311 236.784 290.298 236.865C290.285 236.946 290.288 237.029 290.307 237.109C290.325 237.189 290.36 237.264 290.408 237.331C290.456 237.398 290.516 237.454 290.586 237.497L293.832 239.502Z" fill="#F7D3D2"/>
<path d="M295.355 243.303C295.992 243.381 296.636 243.223 297.165 242.859C297.232 242.811 297.289 242.751 297.332 242.681C297.376 242.612 297.405 242.534 297.419 242.453C297.433 242.372 297.43 242.289 297.412 242.209C297.393 242.129 297.359 242.054 297.312 241.987C297.264 241.92 297.204 241.863 297.134 241.819C297.065 241.776 296.987 241.746 296.906 241.732C296.825 241.719 296.742 241.721 296.662 241.74C296.582 241.758 296.507 241.792 296.44 241.839C296.155 242.031 295.809 242.109 295.47 242.06C294.345 241.956 294.324 241.055 294.344 240.782L294.521 238.866C294.536 238.702 294.485 238.537 294.379 238.41C294.273 238.283 294.121 238.203 293.956 238.187C293.791 238.172 293.627 238.223 293.5 238.329C293.372 238.435 293.292 238.587 293.277 238.752L293.1 240.67C293.074 241.082 293.14 241.494 293.293 241.878C293.63 242.706 294.363 243.212 295.355 243.303Z" fill="#F7D3D2"/>
<path d="M291.503 242.948C293.387 243.122 294.228 241.756 294.331 240.808C294.349 240.643 294.301 240.478 294.197 240.348C294.094 240.218 293.943 240.135 293.778 240.116C293.615 240.101 293.452 240.15 293.324 240.252C293.196 240.354 293.112 240.502 293.09 240.664C293.066 240.929 292.842 241.828 291.617 241.715C291.273 241.707 290.945 241.57 290.697 241.332C290.641 241.272 290.574 241.223 290.5 241.188C290.426 241.154 290.345 241.134 290.263 241.131C290.181 241.128 290.099 241.141 290.022 241.169C289.945 241.197 289.875 241.24 289.814 241.296C289.754 241.351 289.705 241.418 289.671 241.493C289.636 241.567 289.617 241.648 289.614 241.73C289.61 241.812 289.623 241.893 289.651 241.97C289.68 242.047 289.723 242.118 289.778 242.178C290.235 242.645 290.851 242.92 291.503 242.948Z" fill="#F7D3D2"/>
<path d="M232.004 229.41L310.33 209L346.004 249.354L276.239 262L232.004 229.41Z" fill="url(#paint0_linear_977_410)"/>
<path d="M232.902 263H276.106C276.602 263 277.004 262.605 277.004 262.118V230.881C277.004 230.394 276.602 230 276.106 230H232.902C232.406 230 232.004 230.394 232.004 230.881V262.118C232.004 262.605 232.406 263 232.902 263Z" fill="#136E90"/>
<path d="M232.911 266H284.097C284.598 266 285.004 265.629 285.004 265.172V263.828C285.004 263.37 284.598 263 284.097 263H232.911C232.41 263 232.004 263.37 232.004 263.828V265.172C232.004 265.629 232.41 266 232.911 266Z" fill="#015271"/>
<g filter="url(#filter0_d_977_410)">
<path d="M251.321 247.059V245.625L248.004 248.63L248.783 249.357L251.321 247.059ZM258.872 246.172C258.683 245.411 258.244 244.7 257.596 244.106L255.32 242L254.018 243.184L253.926 243.268V244.703L255.315 243.444L256.609 244.643L256.806 244.825V244.837C256.88 244.903 256.95 244.972 257.014 245.044C257.385 245.439 257.642 245.891 257.766 246.369C257.949 247.214 258.036 248.2 257.006 249.401V250.884C257.069 250.836 257.13 250.785 257.186 250.732C258.042 250.016 258.632 249.137 258.893 248.187C259.048 247.52 259.04 246.837 258.872 246.172ZM251.968 250.593L251.933 250.577H251.917C251.814 250.528 251.717 250.472 251.628 250.409C251.545 250.353 251.44 250.281 251.315 250.188C251.129 250.045 250.895 249.855 250.609 249.601L249.973 249.004L249.18 249.719L249.816 250.31C250.8 251.186 251.307 251.436 251.493 251.504C252.071 251.766 252.715 251.928 253.381 251.982C253.682 252.007 253.986 252.005 254.287 251.978H254.36V250.944C253.534 251.061 252.68 250.935 251.968 250.593Z" fill="white"/>
<path d="M253.364 243.775L253.356 249.901L251.875 249.899L251.881 245.118L252.032 244.984L252.11 244.912L252.558 244.504L252.862 244.23L252.962 244.141L253.364 243.775Z" fill="white"/>
<path d="M256.462 245.158V251.271L256.443 251.281C256.373 251.321 256.303 251.362 256.224 251.401L256.149 251.44L255.933 251.544L255.717 251.635L255.596 251.682L255.429 251.74L255.291 251.784C255.2 251.813 255.105 251.837 255.005 251.862L254.933 251.879V245.156L256.462 245.158Z" fill="white"/>
<path d="M253.377 246.773L253.375 248.16L254.947 248.161L254.949 246.774L253.377 246.773Z" fill="white"/>
</g>
<path d="M63.5385 389.879C63.6545 389.755 63.7979 389.661 63.957 389.602C64.1162 389.544 64.2868 389.523 64.4552 389.542C64.6237 389.561 64.7854 389.62 64.9274 389.712C65.0694 389.805 65.1879 389.929 65.2734 390.076L66.7452 392.581C68.0719 394.843 68.6256 397.475 68.3227 400.079C68.0197 402.684 66.8765 405.119 65.0661 407.015C64.7159 407.382 64.2852 407.662 63.808 407.834C63.3309 408.006 62.8204 408.064 62.3167 408.005C61.8131 407.946 61.3301 407.77 60.9058 407.493C60.4816 407.215 60.1277 406.842 59.8721 406.404C58.5544 404.155 58.0007 401.539 58.2938 398.948C58.5869 396.358 59.7111 393.932 61.4981 392.034L63.5385 389.879Z" fill="#009056"/>
<path fill-rule="evenodd" clip-rule="evenodd" d="M64.4395 389.807C64.3121 389.792 64.1831 389.808 64.0628 389.852C63.9425 389.896 63.8341 389.968 63.7464 390.061L63.7456 390.062L61.7057 392.216C61.7056 392.216 61.7058 392.216 61.7057 392.216C59.9582 394.073 58.8586 396.445 58.572 398.979C58.2854 401.512 58.8269 404.07 60.1156 406.27C60.3504 406.673 60.6758 407.016 61.0656 407.271C61.4554 407.526 61.8992 407.687 62.362 407.742C62.8247 407.796 63.2938 407.743 63.7322 407.585C64.1706 407.427 64.5663 407.169 64.8881 406.832C66.6587 404.977 67.7767 402.596 68.073 400.049C68.3693 397.502 67.8277 394.928 66.5303 392.716L65.0585 390.211L65.0581 390.21C64.9935 390.099 64.9039 390.005 64.7965 389.935C64.6891 389.865 64.5669 389.821 64.4395 389.807ZM65.0803 407.016L65.2725 407.199C64.8938 407.596 64.4281 407.899 63.9122 408.085C63.3964 408.27 62.8444 408.334 62.2999 408.27C61.7553 408.206 61.2331 408.016 60.7745 407.715C60.3159 407.415 59.9333 407.012 59.657 406.539M65.0803 407.016L65.2725 407.199C67.1227 405.261 68.2911 402.772 68.6008 400.111C68.9104 397.449 68.3445 394.759 66.9886 392.447L65.517 389.942C65.5171 389.942 65.5169 389.942 65.517 389.942C65.4107 389.76 65.2632 389.605 65.0867 389.49C64.91 389.375 64.7089 389.303 64.4993 389.279C64.2898 389.255 64.0776 389.281 63.8796 389.353C63.6818 389.426 63.5037 389.544 63.3594 389.697C63.3593 389.697 63.3591 389.698 63.359 389.698L61.3194 391.852L61.3188 391.852C59.4925 393.792 58.3436 396.271 58.044 398.919C57.7445 401.566 58.3104 404.24 59.657 406.539" fill="#009056"/>
<path d="M1.90983 364.362C4.35781 365.299 6.43406 367.007 7.82426 369.229C9.21445 371.451 9.8429 374.065 9.61447 376.676C9.57048 377.182 9.40985 377.67 9.14522 378.103C8.88058 378.535 8.51916 378.901 8.08939 379.17C7.65961 379.439 7.1732 379.605 6.66841 379.655C6.16363 379.704 5.65424 379.636 5.18032 379.455C2.90369 378.582 0.945273 377.039 -0.436779 375.03C-1.81883 373.021 -2.55963 370.64 -2.56152 368.201C-2.56152 367.875 -2.54558 367.55 -2.52167 367.218L-2.28522 364.251C-2.27169 364.081 -2.21881 363.917 -2.13078 363.771C-2.04275 363.626 -1.922 363.503 -1.7781 363.412C-1.6342 363.321 -1.47113 363.265 -1.30182 363.248C-1.13251 363.232 -0.961628 363.255 -0.802739 363.316L1.90983 364.362Z" fill="#009056"/>
<path fill-rule="evenodd" clip-rule="evenodd" d="M-0.899458 363.562C-1.01969 363.516 -1.14898 363.499 -1.27708 363.511C-1.40531 363.524 -1.5288 363.567 -1.63776 363.635C-1.74673 363.704 -1.83818 363.797 -1.90484 363.907C-1.9715 364.018 -2.01154 364.142 -2.02179 364.27C-2.02179 364.27 -2.02179 364.27 -2.02179 364.27L-2.25817 367.237C-2.28176 367.565 -2.29726 367.882 -2.29726 368.2C-2.29539 370.585 -1.5709 372.913 -0.219304 374.878C1.13223 376.842 3.04736 378.351 5.27366 379.206C5.70916 379.372 6.17723 379.435 6.64107 379.389C7.10494 379.344 7.55193 379.191 7.94689 378.943C8.34184 378.696 8.67397 378.36 8.91716 377.963C9.16035 377.565 9.30796 377.116 9.34838 376.652C9.57178 374.098 8.95719 371.542 7.59762 369.369C6.23805 367.196 4.20755 365.525 1.81349 364.609L1.81277 364.609L-0.899458 363.562C-0.899352 363.562 -0.899564 363.562 -0.899458 363.562ZM9.87774 376.698C9.83018 377.244 9.65654 377.772 9.37046 378.24C9.08438 378.708 8.69367 379.103 8.22906 379.394C7.76446 379.685 7.23864 379.864 6.69294 379.918C6.14724 379.971 5.59657 379.898 5.08425 379.702L5.08371 379.702C2.75696 378.809 0.755409 377.232 -0.657078 375.179C-2.06957 373.125 -2.82668 370.692 -2.82861 368.2C-2.82861 367.865 -2.81226 367.534 -2.78808 367.198L-2.78793 367.196L-2.55147 364.228C-2.53465 364.017 -2.46894 363.813 -2.35954 363.633C-2.25015 363.452 -2.10009 363.299 -1.92126 363.186C-1.74243 363.073 -1.53977 363.003 -1.32938 362.983C-1.11898 362.962 -0.906621 362.99 -0.709162 363.066L-0.708503 363.066L2.00334 364.113C2.00346 364.113 2.00322 364.113 2.00334 364.113C4.5051 365.07 6.62732 366.816 8.04807 369.087C9.46888 371.358 10.1112 374.03 9.87774 376.698Z" fill="#009056"/>
<path d="M-16.8431 392.492C-16.9843 392.586 -17.1018 392.711 -17.1863 392.859C-17.2709 393.006 -17.3201 393.171 -17.3301 393.34C-17.3402 393.509 -17.3108 393.679 -17.2442 393.835C-17.1777 393.991 -17.0758 394.13 -16.9467 394.24L-14.7336 396.124C-12.7344 397.819 -10.2371 398.818 -7.61982 398.968C-5.0025 399.118 -2.40753 398.411 -0.227604 396.955C0.193954 396.673 0.544273 396.297 0.795759 395.857C1.04724 395.416 1.19302 394.923 1.22161 394.417C1.2502 393.911 1.16082 393.405 0.960512 392.939C0.760202 392.473 0.454435 392.06 0.0672989 391.732C-1.92185 390.047 -4.40319 389.052 -7.00525 388.895C-9.6073 388.739 -12.1901 389.429 -14.367 390.863L-16.8431 392.492Z" fill="#009056"/>
<path d="M123.688 156H54.3183C42.5461 156 33.0029 165.554 33.0029 177.34V238.659C33.0029 250.445 42.5461 260 54.3183 260H123.688C135.46 260 145.003 250.445 145.003 238.659V177.34C145.003 165.554 135.46 156 123.688 156Z" fill="#0E2535"/>
<path d="M82.0029 258H91.0029V261.47C91.0029 261.876 90.8094 262.265 90.465 262.552C90.1205 262.839 89.6534 263 89.1663 263H83.8396C83.3525 263 82.8853 262.839 82.5409 262.552C82.1964 262.265 82.0029 261.876 82.0029 261.47V258Z" fill="#609847"/>
<path d="M99.9065 244.317C99.9065 244.317 104.274 250.535 100.402 253.327C96.5295 256.12 93.3748 249.316 93.3748 249.316L91.0029 245.449L95.9128 239C95.9128 239 98.8658 242.499 99.9065 244.317Z" fill="#609847"/>
<path d="M47.7859 238.065C47.7859 238.065 40.0029 264.896 74.6801 262.893C104.152 261.191 96.2075 238.057 96.2075 238.057C97.6094 236.747 98.6747 235.125 99.3151 233.327C99.9555 231.528 100.153 229.605 99.89 227.716C99.6275 225.828 98.9128 224.028 97.8052 222.467C96.6977 220.905 95.2292 219.627 93.5216 218.738L93.5083 218.72C94.0743 216.664 93.8367 214.474 92.8428 212.584C91.8489 210.693 90.1713 209.241 88.1432 208.516C86.1152 207.79 83.8851 207.845 81.8959 208.668C79.9066 209.492 78.3038 211.024 77.4057 212.961H68.4912C67.6748 211.196 66.2707 209.761 64.5129 208.894C62.7551 208.027 60.7497 207.781 58.8307 208.197C56.9117 208.614 55.195 209.666 53.9665 211.181C52.738 212.695 52.072 214.579 52.0793 216.519C52.085 217.023 52.1355 217.525 52.23 218.02H52.2141C50.2381 218.688 48.47 219.848 47.0805 221.388C45.691 222.928 44.7272 224.796 44.282 226.811C43.8368 228.826 43.9254 230.92 44.5392 232.892C45.153 234.863 46.2713 236.645 47.7859 238.065Z" fill="#66AF49"/>
<path d="M52.0055 258H60.0029V261.569C60.0029 261.949 59.831 262.313 59.525 262.581C59.219 262.849 58.8039 263 58.3712 263H53.6347C53.2019 263 52.7869 262.849 52.4809 262.581C52.1748 262.313 52.0029 261.949 52.0029 261.569V258H52.0055Z" fill="#66AF49"/>
<path d="M87.0029 247.626V259.786C83.8434 261.42 79.5718 262.571 73.8652 262.897C67.582 263.258 62.739 262.646 59.0029 261.428V247.639C59.0077 245.88 59.7241 244.194 60.9956 242.95C62.267 241.706 63.9902 241.005 65.7883 241H80.2252C82.0196 241.007 83.7385 241.708 85.0078 242.948C86.2771 244.189 86.9942 245.871 87.0029 247.626Z" fill="#A7D157"/>
<path d="M84.5029 224C85.8836 224 87.0029 222.657 87.0029 221C87.0029 219.343 85.8836 218 84.5029 218C83.1222 218 82.0029 219.343 82.0029 221C82.0029 222.657 83.1222 224 84.5029 224Z" fill="black"/>
<path d="M62.0029 224C63.6598 224 65.0029 222.657 65.0029 221C65.0029 219.343 63.6598 218 62.0029 218C60.3461 218 59.0029 219.343 59.0029 221C59.0029 222.657 60.3461 224 62.0029 224Z" fill="black"/>
<path d="M44.5001 244.789C44.5001 244.789 41.1315 251.553 44.5001 254.36C47.8687 257.167 50.203 249.836 50.203 249.836L52.0029 245.641L47.5927 239C47.5927 239 45.2881 242.818 44.5001 244.789Z" fill="#66AF49"/>
<path d="M70.836 224H77.1699C77.4773 223.999 77.7799 224.069 78.0499 224.204C78.3198 224.339 78.5482 224.534 78.7141 224.772C78.8799 225.009 78.9778 225.281 78.9987 225.562C79.0196 225.843 78.9628 226.125 78.8336 226.38C78.1721 227.668 76.8093 229 74.0042 229C71.1991 229 69.8338 227.668 69.1723 226.38C69.0431 226.125 68.9863 225.843 69.0072 225.562C69.028 225.281 69.1259 225.009 69.2918 224.772C69.4576 224.534 69.6861 224.339 69.956 224.204C70.2259 224.069 70.5286 223.999 70.836 224Z" fill="white"/>
<path d="M91.5029 233C94.5405 233 97.0029 230.985 97.0029 228.5C97.0029 226.015 94.5405 224 91.5029 224C88.4654 224 86.0029 226.015 86.0029 228.5C86.0029 230.985 88.4654 233 91.5029 233Z" fill="#A7D157"/>
<path d="M56.0029 233C58.7644 233 61.0029 230.985 61.0029 228.5C61.0029 226.015 58.7644 224 56.0029 224C53.2415 224 51.0029 226.015 51.0029 228.5C51.0029 230.985 53.2415 233 56.0029 233Z" fill="#A7D157"/>
<path d="M76.2365 258C76.1338 258 76.032 257.984 75.9371 257.953C75.8422 257.921 75.756 257.875 75.6834 257.817L72.2028 255.039C72.0694 254.921 71.9979 254.766 72.0032 254.606C72.0085 254.447 72.09 254.295 72.231 254.182C72.372 254.07 72.5618 254.004 72.7612 254C72.9605 253.996 73.1543 254.053 73.3026 254.16L76.7769 256.935C76.885 257.023 76.9585 257.133 76.9882 257.254C77.0179 257.375 77.0024 257.5 76.9437 257.613C76.8851 257.727 76.7858 257.824 76.6583 257.893C76.5308 257.962 76.3807 257.999 76.227 258H76.2365Z" fill="#66AF49"/>
<path d="M72.7746 258C72.6733 258 72.5728 257.984 72.4792 257.953C72.3857 257.922 72.3008 257.876 72.2298 257.818C72.1579 257.76 72.1008 257.692 72.0619 257.617C72.023 257.542 72.0029 257.461 72.0029 257.38C72.0029 257.298 72.023 257.217 72.0619 257.142C72.1008 257.067 72.1579 256.999 72.2298 256.941L75.6848 254.182C75.8293 254.066 76.0255 254 76.2301 254C76.3315 254 76.4318 254.016 76.5255 254.047C76.6192 254.078 76.7044 254.123 76.7761 254.181C76.8479 254.238 76.9048 254.306 76.9438 254.381C76.9827 254.456 77.0028 254.537 77.0029 254.618C77.0031 254.699 76.9833 254.78 76.9446 254.855C76.906 254.93 76.8493 254.999 76.7777 255.056L73.3352 257.818C73.2621 257.877 73.1747 257.924 73.0783 257.955C72.9819 257.986 72.8786 258.002 72.7746 258Z" fill="#66AF49"/>
<path fill-rule="evenodd" clip-rule="evenodd" d="M96.5663 238.053C97.7358 236.957 98.6734 235.646 99.3252 234.193V234.204C99.615 233.553 99.8435 232.882 100.01 232.2C100.371 230.744 100.451 229.23 100.242 227.738C99.9784 225.851 99.2598 224.053 98.1463 222.492C97.0328 220.932 95.5564 219.654 93.8395 218.766L93.8295 218.752C94.0346 218.035 94.1398 217.294 94.1422 216.548C94.1572 214.602 93.4898 212.709 92.2518 211.188C91.0139 209.667 89.2807 208.61 87.3431 208.195C85.4054 207.78 83.3812 208.031 81.61 208.907C79.8431 209.78 78.4352 211.223 77.6211 212.992H68.6741C67.8533 211.229 66.4416 209.794 64.6743 208.928C62.9071 208.062 60.8908 207.816 58.9615 208.232C57.9852 208.443 57.061 208.816 56.2262 209.329C55.4075 209.83 54.674 210.465 54.0607 211.213C52.8237 212.722 52.1501 214.601 52.152 216.538C52.1594 217.042 52.2092 217.545 52.3008 218.041C50.3136 218.708 48.5355 219.867 47.1381 221.407C45.7407 222.946 44.7714 224.812 44.3238 226.827C43.8762 228.841 43.9654 230.934 44.5829 232.905C45.2004 234.875 46.3252 236.656 47.8487 238.075C47.8487 238.075 47.8307 238.137 47.8003 238.254C47.3132 239.017 45.3397 242.144 44.6036 243.862C44.6036 243.862 41.0021 250.614 44.6036 253.416C46.2982 254.735 47.7481 253.813 48.8083 252.467C49.5689 254.097 50.6389 255.682 52.123 257.108V261.233C52.123 261.674 52.3014 262.097 52.6189 262.408C52.9364 262.72 53.3671 262.895 53.8161 262.895H58.7307C59.1797 262.895 59.6103 262.72 59.9279 262.408C60.1463 262.194 60.2988 261.927 60.3728 261.638C63.1064 262.428 66.3752 262.918 70.2854 262.99C71.7332 263.017 73.2691 262.986 74.8983 262.892L96.5663 238.053ZM96.5663 238.053C96.8279 238.421 99.2416 241.833 100.123 243.653C100.123 243.653 104.039 250.241 100.567 253.2C98.7819 254.722 97.1666 253.554 96.0188 252.06C95.217 253.826 94.0284 255.55 92.305 257.087H92.3272V261.118C92.3272 261.589 92.1365 262.041 91.7971 262.375C91.4576 262.708 90.9972 262.895 90.5172 262.895H85.2677C84.7877 262.895 84.3273 262.708 83.9878 262.375C83.7599 262.151 83.599 261.874 83.5179 261.573C82.0189 261.983 80.3658 262.315 78.5448 262.554C77.3972 262.705 76.183 262.819 74.8986 262.892L96.5663 238.053Z" fill="url(#paint1_linear_977_410)"/>
<path d="M36.6056 255.165L36.4537 255.194C38.5436 257.546 41.9693 258.376 45.5523 257.596C50.6042 256.493 54.0484 252.6 52.9454 247.545C51.8424 242.49 47.3327 241.481 42.2808 242.582C38.6978 243.364 35.6868 244.448 34.767 247.455C34.8177 247.44 34.8684 247.43 34.919 247.418C37.0518 246.95 38.3592 248.341 38.8369 250.482C39.3145 252.623 38.7383 254.697 36.6056 255.165Z" fill="#F95A5A"/>
<path fill-rule="evenodd" clip-rule="evenodd" d="M48.389 243.775C48.7729 243.331 49.444 243.282 49.888 243.666C51.0097 244.636 51.8354 245.902 52.2706 247.319C52.4429 247.88 52.1277 248.475 51.5666 248.647C51.0055 248.819 50.411 248.504 50.2388 247.943C49.9208 246.907 49.3175 245.982 48.4979 245.274C48.0539 244.89 48.0052 244.219 48.389 243.775Z" fill="white"/>
<path d="M37.0652 239.156C36.9935 239.156 36.9227 239.172 36.8584 239.204C36.7941 239.235 36.738 239.282 36.6946 239.339C36.6512 239.396 36.6217 239.462 36.6084 239.533C36.5951 239.603 36.5983 239.676 36.6179 239.745L36.956 240.924C37.2623 241.988 37.9065 242.923 38.7914 243.589C39.6763 244.254 40.7537 244.613 41.8608 244.612C42.0751 244.612 42.2863 244.561 42.4778 244.465C42.6693 244.369 42.8359 244.23 42.9644 244.059C43.093 243.887 43.18 243.688 43.2186 243.478C43.2572 243.267 43.2464 243.05 43.187 242.844C42.8795 241.79 42.2399 240.863 41.3632 240.202C40.4865 239.541 39.4197 239.181 38.3217 239.175L37.0652 239.156Z" fill="#009056"/>
<path fill-rule="evenodd" clip-rule="evenodd" d="M38.3283 238.908C39.483 238.914 40.6049 239.293 41.5269 239.988C42.4493 240.684 43.1223 241.659 43.4458 242.768L43.446 242.769C43.5168 243.014 43.5297 243.272 43.4837 243.524C43.4377 243.775 43.334 244.012 43.1807 244.216C43.0275 244.42 42.8289 244.586 42.6007 244.701C42.3724 244.815 42.1207 244.875 41.8653 244.876C40.7005 244.877 39.5665 244.499 38.6355 243.799C37.7045 243.099 37.0267 242.115 36.7045 240.996L36.3661 239.815C36.3353 239.707 36.3302 239.592 36.3511 239.481C36.3721 239.37 36.4186 239.266 36.4869 239.176C36.5553 239.086 36.6436 239.013 36.7449 238.964C36.8461 238.914 36.9576 238.888 37.0705 238.889L37.0731 238.889L38.3283 238.908ZM41.8642 244.345C42.0372 244.344 42.2078 244.304 42.3624 244.226C42.5172 244.148 42.6518 244.036 42.7557 243.897C42.8595 243.759 42.9299 243.598 42.9611 243.428C42.9922 243.258 42.9835 243.083 42.9356 242.916C42.6442 241.917 42.0379 241.039 41.207 240.413C40.376 239.786 39.3649 239.445 38.3242 239.439L38.3215 239.439L37.0665 239.42C37.0364 239.42 37.0066 239.427 36.9796 239.44C36.9522 239.454 36.9284 239.473 36.9099 239.498C36.8915 239.522 36.8789 239.55 36.8732 239.58C36.8676 239.61 36.869 239.641 36.8772 239.67C36.8772 239.67 36.8772 239.67 36.8772 239.67L37.2151 240.849C37.2152 240.849 37.2151 240.849 37.2151 240.849C37.5054 241.857 38.1161 242.744 38.9549 243.375C39.7936 244.005 40.8148 244.346 41.8642 244.345Z" fill="#009056"/>
<path d="M135.001 223.188L68.8775 188L49.0007 239.303L91.0042 256L135.001 223.188Z" fill="url(#paint2_linear_977_410)"/>
<path d="M134.103 224H90.8985C90.4027 224 90.0007 224.395 90.0007 224.882V256.119C90.0007 256.605 90.4027 257 90.8985 257H134.103C134.599 257 135.001 256.605 135.001 256.119V224.882C135.001 224.395 134.599 224 134.103 224Z" fill="#136E90"/>
<path d="M134.111 257H83.8902C83.399 257 83.0007 257.371 83.0007 257.828V259.172C83.0007 259.63 83.399 260 83.8902 260H134.111C134.602 260 135.001 259.63 135.001 259.172V257.828C135.001 257.371 134.602 257 134.111 257Z" fill="#015271"/>
<g filter="url(#filter1_d_977_410)">
<path d="M112.016 241.058V239.624L109.001 242.628L109.711 243.353L112.016 241.058ZM118.873 240.171C118.7 239.411 118.301 238.701 117.715 238.105L115.648 236L114.465 237.18L114.379 237.265V238.698L115.64 237.44L116.816 238.636L116.994 238.82L117.007 238.833C117.007 238.833 117.085 238.909 117.193 239.039C117.531 239.434 117.765 239.886 117.879 240.364C118.045 241.209 118.124 242.194 117.188 243.394V244.876C117.276 244.799 117.332 244.746 117.352 244.725C118.131 244.009 118.668 243.131 118.91 242.182C119.042 241.515 119.03 240.834 118.873 240.171ZM112.603 244.589L112.571 244.574H112.554C112.463 244.524 112.376 244.468 112.295 244.407C112.219 244.351 112.123 244.279 112.011 244.186C111.839 244.043 111.629 243.853 111.369 243.599L110.786 243.008L110.069 243.725L110.647 244.316C111.54 245.19 112.001 245.44 112.17 245.51C112.694 245.771 113.279 245.934 113.884 245.987C114.159 246.009 114.436 246.003 114.71 245.971H114.776V244.938C114.025 245.056 113.25 244.931 112.603 244.589Z" fill="white"/>
<path d="M113.872 237.775L113.863 243.899L112.518 243.896L112.525 239.118L112.66 238.981L112.733 238.909L113.14 238.504L113.417 238.229L113.505 238.141L113.782 237.866L113.872 237.775Z" fill="white"/>
<path d="M116.686 239.149V245.258L116.667 245.27L116.471 245.39L116.4 245.429C116.338 245.464 116.272 245.497 116.204 245.53C116.135 245.563 116.076 245.592 116.01 245.621L115.898 245.669L115.748 245.729L115.623 245.772C115.54 245.799 115.454 245.826 115.364 245.851L115.298 245.867V239.146L116.686 239.149Z" fill="white"/>
<path d="M113.874 240.769L113.872 242.155L115.3 242.157L115.302 240.77L113.874 240.769Z" fill="white"/>
</g>
<path d="M336.483 264.999H228.515C216.632 264.999 206.999 274.517 206.999 286.259V312.74C206.999 324.481 216.632 333.999 228.515 333.999H336.483C348.366 333.999 357.999 324.481 357.999 312.74V286.259C357.999 274.517 348.366 264.999 336.483 264.999Z" fill="#275C40"/>
<path d="M357.999 286.431V313.137C358.006 318.216 356.194 323.131 352.889 326.999V294.008C352.889 288.321 350.62 282.868 346.582 278.848C342.544 274.827 337.067 272.568 331.357 272.568H211.999C214.018 270.193 216.534 268.286 219.37 266.978C222.205 265.671 225.294 264.996 228.419 264.999H336.467C342.176 265 347.651 267.258 351.689 271.277C355.727 275.296 357.996 280.746 357.999 286.431Z" fill="#367B55"/>
<path d="M222.416 253.818C222.416 253.818 222.236 262.86 227.568 267.219C232.9 271.579 241.726 269.605 241.726 269.605C241.726 269.605 241.989 260.461 236.657 256.102C231.325 251.742 222.416 253.818 222.416 253.818Z" fill="#367B55"/>
<path d="M253.882 256.177C253.882 256.177 248.003 255.089 244.586 258.1C241.17 261.111 241.51 267.081 241.51 267.081C241.51 267.081 247.447 268.234 250.864 265.223C254.28 262.212 253.882 256.177 253.882 256.177Z" fill="#367B55"/>
<path opacity="0.5" d="M167.561 124.138L167.687 146.94C167.692 147.841 167.926 148.727 168.367 149.513L326.64 431.346C327.581 433.021 329.352 434.058 331.273 434.058L374.413 434.058C378.712 434.058 381.231 429.218 378.765 425.696L167.561 124.138Z" fill="url(#paint3_linear_977_410)"/>
<path d="M190.609 51.0945C188.207 52.0064 186.169 53.6702 184.805 55.8341C183.44 57.9979 182.824 60.5439 183.048 63.0867C183.091 63.5788 183.249 64.0543 183.509 64.4756C183.769 64.8969 184.124 65.2525 184.546 65.5144C184.968 65.7763 185.446 65.9373 185.942 65.9848C186.437 66.0322 186.937 65.9648 187.402 65.7878C189.637 64.9374 191.559 63.4348 192.916 61.4783C194.273 59.5217 195.001 57.203 195.003 54.8279C195.003 54.5097 194.984 54.1941 194.961 53.8706L194.732 50.9806C194.718 50.8153 194.666 50.6555 194.579 50.5138C194.492 50.372 194.373 50.2522 194.232 50.1639C194.091 50.0755 193.93 50.021 193.764 50.0047C193.598 49.9884 193.43 50.0107 193.274 50.0699L190.609 51.0945Z" fill="#367B55"/>
<path d="M145.899 24.3716C144.887 26.793 144.727 29.4644 145.442 31.981C146.158 34.4976 147.71 36.7223 149.864 38.3182C150.28 38.627 150.766 38.839 151.283 38.9374C151.799 39.0358 152.333 39.018 152.841 38.8853C153.349 38.7526 153.818 38.5086 154.211 38.1727C154.604 37.8368 154.911 37.418 155.106 36.9494C156.112 34.5423 156.276 31.8874 155.573 29.3835C154.869 26.8795 153.337 24.6619 151.205 23.0636L148.774 21.2324C148.635 21.128 148.472 21.056 148.299 21.0221C148.126 20.9882 147.947 20.9934 147.776 21.0372C147.605 21.081 147.448 21.1623 147.315 21.2746C147.183 21.3869 147.08 21.5272 147.014 21.6843L145.899 24.3716Z" fill="#367B55"/>
<path d="M134.275 40.0248C134.117 39.99 133.953 39.9915 133.796 40.029C133.639 40.0665 133.493 40.1391 133.37 40.241C133.247 40.3429 133.15 40.4712 133.088 40.6158C133.025 40.7603 132.998 40.9171 133.008 41.0736L133.186 43.7558C133.35 46.1741 134.321 48.475 135.952 50.3108C137.584 52.1466 139.787 53.4176 142.228 53.9317C142.701 54.0306 143.19 54.0216 143.659 53.9056C144.127 53.7895 144.561 53.5696 144.926 53.2631C145.292 52.9566 145.579 52.5719 145.765 52.1394C145.952 51.7068 146.032 51.2383 145.999 50.7706C145.835 48.366 144.873 46.0775 143.257 44.2473C141.64 42.4171 139.457 41.1434 137.032 40.6168L134.275 40.0248Z" fill="#367B55"/>
<path d="M110.878 84.9988C111.051 84.998 111.222 85.0364 111.377 85.1111C111.533 85.1857 111.668 85.2945 111.774 85.4289C111.879 85.5634 111.951 85.7198 111.984 85.886C112.017 86.0521 112.01 86.2235 111.964 86.3866L111.174 89.1835C110.456 91.7057 108.917 93.9305 106.79 95.5212C104.662 97.1118 102.063 97.9815 99.3851 97.9987H99.3715C98.8533 98.0018 98.3415 97.8873 97.8764 97.6641C97.4112 97.4409 97.0054 97.1152 96.691 96.7126C96.3765 96.3099 96.1619 95.8415 96.0642 95.344C95.9665 94.8465 95.9882 94.3337 96.1278 93.8458C96.8434 91.3381 98.3709 89.1245 100.481 87.5367C102.592 85.949 105.172 85.0725 107.835 85.0386L110.878 84.9988Z" fill="#367B55"/>
<path d="M79.2222 77.3353C79.336 77.2148 79.4766 77.1224 79.6328 77.0653C79.7891 77.0082 79.9566 76.988 80.1221 77.0063C80.2876 77.0247 80.4465 77.081 80.5861 77.1709C80.7258 77.2608 80.8423 77.3817 80.9265 77.5241L82.3751 79.9629C83.6776 82.1648 84.2211 84.727 83.9235 87.2621C83.6259 89.7972 82.5033 92.1674 80.7255 94.0142C80.3817 94.3712 79.9588 94.6441 79.4902 94.8113C79.0217 94.9786 78.5203 95.0356 78.0257 94.9779C77.5311 94.9202 77.0568 94.7494 76.6403 94.4789C76.2237 94.2084 75.8763 93.8457 75.6255 93.4194C74.3331 91.2307 73.7903 88.6864 74.0782 86.1667C74.3661 83.647 75.4693 81.2874 77.2229 79.4405L79.2222 77.3353Z" fill="#367B55"/>
<path d="M53.1895 30.1866C54.108 32.4736 54.253 34.9958 53.6024 37.372C52.9518 39.7481 51.5411 41.849 49.5835 43.357C49.2045 43.6482 48.7627 43.848 48.293 43.9407C47.8232 44.0333 47.3382 44.0164 46.8761 43.8911C46.414 43.7658 45.9875 43.5356 45.63 43.2186C45.2725 42.9016 44.9938 42.5064 44.8158 42.0642C43.9021 39.7901 43.7543 37.2828 44.3945 34.9181C45.0347 32.5535 46.4283 30.4589 48.3665 28.9487L50.5747 27.2191C50.7013 27.1204 50.8492 27.0524 51.0067 27.0204C51.1643 26.9884 51.3271 26.9933 51.4824 27.0347C51.6377 27.0761 51.7812 27.1528 51.9016 27.2589C52.0219 27.365 52.1157 27.4975 52.1757 27.6458L53.1895 30.1866Z" fill="#367B55"/>
<path d="M18.7647 51.0954C21.3671 52.007 23.5744 53.6708 25.0521 55.8347C26.5299 57.9987 27.1977 60.5449 26.9545 63.0877C26.9071 63.58 26.7358 64.0555 26.4538 64.4768C26.1718 64.898 25.787 65.2536 25.3295 65.5155C24.8721 65.7773 24.3545 65.9383 23.8176 65.9857C23.2807 66.0332 22.7391 65.9658 22.2355 65.7889C19.815 64.9384 17.7327 63.4359 16.2631 61.4793C14.7935 59.5227 14.0056 57.204 14.0034 54.829C14.0034 54.5107 14.0232 54.1951 14.0486 53.8716L14.2971 50.9816C14.3119 50.8163 14.3685 50.6565 14.4624 50.5147C14.5563 50.373 14.6849 50.2532 14.8381 50.1648C14.9912 50.0765 15.1647 50.022 15.3448 50.0057C15.5249 49.9894 15.7067 50.0117 15.8758 50.0708L18.7647 51.0954Z" fill="#367B55"/>
<path d="M-0.526427 79.5765C-0.663688 79.6696 -0.777828 79.7941 -0.859837 79.9399C-0.941845 80.0858 -0.989476 80.2491 -0.998968 80.417C-1.00846 80.5848 -0.979554 80.7526 -0.914533 80.9072C-0.849511 81.0617 -0.750154 81.1987 -0.624305 81.3073L1.5213 83.1668C3.45976 84.8439 5.88133 85.8314 8.41939 85.9797C10.9574 86.128 13.4738 85.4292 15.5875 83.9889C15.9966 83.7104 16.3367 83.3388 16.5808 82.9034C16.825 82.468 16.9665 81.9806 16.9942 81.4798C17.0219 80.9791 16.9351 80.4786 16.7406 80.0179C16.5461 79.5572 16.2492 79.1489 15.8734 78.8253C13.9455 77.1596 11.5402 76.1756 9.01787 76.0208C6.49551 75.866 3.99185 76.5486 1.8819 77.9665L-0.526427 79.5765Z" fill="#367B55"/>
<mask id="mask1_977_410" style="mask-type:alpha" maskUnits="userSpaceOnUse" x="-2" y="0" width="355" height="417">
<path fill-rule="evenodd" clip-rule="evenodd" d="M352.702 285.318C352.702 285.316 352.704 285.314 352.705 285.314C352.707 285.314 352.709 285.313 352.709 285.311V45.7857C352.709 43.2506 350.812 41.1167 348.294 40.8201L4.46947 0.31576C1.49675 -0.0344418 -1.11551 2.28814 -1.11551 5.28142V131.663C-1.11551 131.664 -1.11703 131.666 -1.11891 131.666C-1.12079 131.666 -1.12231 131.668 -1.12231 131.669V371.194C-1.12231 373.73 0.774981 375.863 3.2927 376.16L347.117 416.664C350.09 417.015 352.702 414.692 352.702 411.699V285.318Z" fill="#C4C4C4"/>
</mask>
<g mask="url(#mask1_977_410)">
<path opacity="0.5" d="M-47.2854 -58.1678C-48.9563 -61.6175 -52.4521 -63.8086 -56.2852 -63.8086H-89.5681C-96.0559 -63.8086 -100.826 -57.7263 -99.2801 -51.4255L13.3604 407.615C14.4578 412.087 18.4674 415.232 23.0723 415.232H166.057C173.436 415.232 178.273 407.513 175.057 400.872L-47.2854 -58.1678Z" fill="url(#paint4_linear_977_410)"/>
<path opacity="0.5" d="M-63.3998 -52.4461C-64.8034 -56.4573 -68.5889 -59.1433 -72.8386 -59.1433H-91.6177C-97.8389 -59.1433 -102.55 -53.5235 -101.464 -47.3978L-20.0461 411.888C-19.1996 416.663 -15.0491 420.142 -10.1996 420.142H87.8733C94.7615 420.142 99.5872 413.341 97.3122 406.84L-63.3998 -52.4461Z" fill="url(#paint5_linear_977_410)"/>
</g>
</g>
<path d="M330.526 312.577C330.663 312.671 330.777 312.795 330.859 312.941C330.941 313.087 330.989 313.25 330.998 313.418C331.008 313.586 330.979 313.754 330.914 313.908C330.849 314.063 330.749 314.2 330.623 314.308L328.477 316.168C326.539 317.845 324.118 318.832 321.58 318.98C319.042 319.129 316.526 318.43 314.412 316.99C314.003 316.712 313.663 316.34 313.419 315.905C313.174 315.469 313.033 314.982 313.005 314.481C312.977 313.98 313.064 313.48 313.259 313.019C313.453 312.558 313.75 312.15 314.126 311.826C316.055 310.16 318.461 309.176 320.984 309.022C323.507 308.867 326.011 309.549 328.122 310.967L330.526 312.577Z" fill="#367B55"/>
<path d="M318.732 288.027C318.889 287.99 319.053 287.991 319.21 288.031C319.366 288.071 319.512 288.149 319.635 288.258C319.758 288.367 319.855 288.504 319.918 288.658C319.981 288.813 320.008 288.981 319.998 289.148L319.818 292.023C319.656 294.614 318.686 297.081 317.054 299.048C315.423 301.016 313.22 302.378 310.778 302.928C310.305 303.033 309.815 303.023 309.347 302.898C308.879 302.774 308.445 302.538 308.08 302.209C307.714 301.88 307.427 301.468 307.241 301.004C307.055 300.541 306.975 300.039 307.007 299.537C307.17 296.961 308.132 294.508 309.749 292.547C311.365 290.586 313.549 289.222 315.974 288.659L318.732 288.027Z" fill="#367B55"/>
<path d="M237.758 291.081C240.361 291.993 242.569 293.657 244.047 295.822C245.526 297.986 246.194 300.532 245.951 303.075C245.906 303.568 245.736 304.045 245.455 304.468C245.174 304.89 244.789 305.248 244.332 305.511C243.874 305.774 243.356 305.936 242.818 305.985C242.28 306.033 241.738 305.966 241.233 305.79C238.812 304.939 236.729 303.436 235.259 301.479C233.789 299.522 233.002 297.203 233 294.828C233 294.512 233.017 294.194 233.042 293.871L233.294 290.98C233.309 290.815 233.365 290.656 233.459 290.514C233.553 290.373 233.681 290.253 233.834 290.165C233.987 290.077 234.16 290.022 234.34 290.005C234.52 289.989 234.701 290.011 234.87 290.069L237.758 291.081Z" fill="#367B55"/>
</g>
<defs>
<filter id="filter0_d_977_410" x="246.004" y="240" width="15" height="14" filterUnits="userSpaceOnUse" color-interpolation-filters="sRGB">
<feFlood flood-opacity="0" result="BackgroundImageFix"/>
<feColorMatrix in="SourceAlpha" type="matrix" values="0 0 0 0 0 0 0 0 0 0 0 0 0 0 0 0 0 0 127 0" result="hardAlpha"/>
<feOffset/>
<feGaussianBlur stdDeviation="1"/>
<feComposite in2="hardAlpha" operator="out"/>
<feColorMatrix type="matrix" values="0 0 0 0 1 0 0 0 0 1 0 0 0 0 1 0 0 0 0.4 0"/>
<feBlend mode="normal" in2="BackgroundImageFix" result="effect1_dropShadow_977_410"/>
<feBlend mode="normal" in="SourceGraphic" in2="effect1_dropShadow_977_410" result="shape"/>
</filter>
<filter id="filter1_d_977_410" x="107.001" y="234" width="14" height="14" filterUnits="userSpaceOnUse" color-interpolation-filters="sRGB">
<feFlood flood-opacity="0" result="BackgroundImageFix"/>
<feColorMatrix in="SourceAlpha" type="matrix" values="0 0 0 0 0 0 0 0 0 0 0 0 0 0 0 0 0 0 127 0" result="hardAlpha"/>
<feOffset/>
<feGaussianBlur stdDeviation="1"/>
<feComposite in2="hardAlpha" operator="out"/>
<feColorMatrix type="matrix" values="0 0 0 0 1 0 0 0 0 1 0 0 0 0 1 0 0 0 0.4 0"/>
<feBlend mode="normal" in2="BackgroundImageFix" result="effect1_dropShadow_977_410"/>
<feBlend mode="normal" in="SourceGraphic" in2="effect1_dropShadow_977_410" result="shape"/>
</filter>
<linearGradient id="paint0_linear_977_410" x1="289.905" y1="218.605" x2="263.471" y2="253.096" gradientUnits="userSpaceOnUse">
<stop offset="0.25" stop-color="white" stop-opacity="0"/>
<stop offset="1" stop-color="#96FFFF" stop-opacity="0.5"/>
</linearGradient>
<linearGradient id="paint1_linear_977_410" x1="92.7065" y1="256.005" x2="67.2888" y2="220.335" gradientUnits="userSpaceOnUse">
<stop stop-color="#A0FFE6"/>
<stop offset="1" stop-color="#66AF49" stop-opacity="0"/>
</linearGradient>
<linearGradient id="paint2_linear_977_410" x1="77.451" y1="212.263" x2="104.201" y2="246.611" gradientUnits="userSpaceOnUse">
<stop offset="0.25" stop-color="#96FFFF" stop-opacity="0"/>
<stop offset="1" stop-color="#96FFFF" stop-opacity="0.5"/>
</linearGradient>
<linearGradient id="paint3_linear_977_410" x1="242.752" y1="-179.755" x2="351.657" y2="425.478" gradientUnits="userSpaceOnUse">
<stop stop-color="#FFC53D"/>
<stop offset="1" stop-color="#FFC53D" stop-opacity="0"/>
</linearGradient>
<linearGradient id="paint4_linear_977_410" x1="39.8465" y1="-63.8086" x2="39.8465" y2="415.232" gradientUnits="userSpaceOnUse">
<stop stop-color="#D9EB41"/>
<stop offset="1" stop-color="#D9EB41" stop-opacity="0"/>
</linearGradient>
<linearGradient id="paint5_linear_977_410" x1="-0.789642" y1="-59.1433" x2="-0.789642" y2="420.142" gradientUnits="userSpaceOnUse">
<stop stop-color="#D9EB41"/>
<stop offset="1" stop-color="#D9EB41" stop-opacity="0"/>
</linearGradient>
<clipPath id="clip0_977_410">
<rect width="375" height="438" fill="white"/>
</clipPath>
</defs>
</svg>
