<svg width="1132" height="1196" viewBox="0 0 1132 1196" fill="none" xmlns="http://www.w3.org/2000/svg">
<path opacity="0.5" d="M379.705 46.1148C377.437 43.7931 379.082 39.886 382.328 39.886V39.886C383.92 39.886 385.331 40.9138 385.818 42.4297L636.893 822.948C638.223 827.083 642.07 829.886 646.413 829.886H1121.75C1130.6 829.886 1135.09 819.23 1128.9 812.897L379.705 46.1148Z" fill="url(#paint0_linear_949_588)"/>
<path d="M510 145H214V1195H510V145Z" fill="#173A52"/>
<path d="M757.91 0.885986V81.316C757.91 92.8304 753.337 103.873 745.196 112.017C737.056 120.16 726.014 124.737 714.5 124.741H681V145.696C681 151.399 679.877 157.046 677.694 162.315C675.511 167.584 672.312 172.371 668.279 176.404C664.247 180.436 659.459 183.635 654.19 185.817C648.92 187.999 643.273 189.122 637.57 189.121H566.63V220.496C566.631 226.199 565.508 231.846 563.326 237.116C561.144 242.385 557.945 247.172 553.913 251.205C549.88 255.238 545.093 258.437 539.824 260.62C534.555 262.803 528.908 263.926 523.205 263.926H296.735C285.668 263.927 275.018 259.702 266.961 252.114C258.904 244.526 254.048 234.149 253.385 223.101H174.32V0.885986H757.91Z" fill="#275C40"/>
<path d="M758 0.885986V81.316C758 87.0191 756.877 92.6663 754.694 97.9352C752.511 103.204 749.312 107.991 745.279 112.024C741.246 116.056 736.459 119.255 731.19 121.437C725.92 123.619 720.273 124.742 714.57 124.741H681.11V145.696C681.11 151.399 679.987 157.046 677.804 162.315C675.621 167.584 672.422 172.371 668.389 176.404C664.356 180.436 659.569 183.635 654.3 185.817C649.03 187.999 643.383 189.122 637.68 189.121H566.705V220.496C566.706 226.199 565.583 231.846 563.401 237.116C561.219 242.385 558.02 247.172 553.988 251.205C549.955 255.238 545.168 258.437 539.899 260.62C534.63 262.803 528.983 263.926 523.28 263.926H466.46C473.179 263.926 479.833 262.602 486.041 260.031C492.249 257.459 497.89 253.69 502.641 248.938C507.392 244.187 511.161 238.546 513.732 232.338C516.303 226.129 517.626 219.476 517.625 212.756V175.791H601.225C607.944 175.792 614.597 174.469 620.805 171.898C627.013 169.328 632.654 165.559 637.406 160.809C642.157 156.058 645.926 150.418 648.498 144.211C651.07 138.003 652.394 131.35 652.395 124.631V99.941H681.815C688.536 99.9436 695.191 98.6221 701.401 96.052C707.611 93.4819 713.254 89.7136 718.007 84.9622C722.76 80.2108 726.531 74.5695 729.103 68.3606C731.676 62.1517 733 55.4968 733 48.776V0.885986H758Z" fill="#367B55"/>
<path d="M629.064 1067.63H605.22V1058.72C605.22 1040.71 598.067 1023.44 585.334 1010.7C572.601 997.969 555.331 990.813 537.323 990.811H468.714V969.461C468.715 960.544 466.96 951.715 463.548 943.477C460.136 935.239 455.135 927.753 448.83 921.448C442.525 915.143 435.039 910.142 426.801 906.73C418.563 903.318 409.733 901.563 400.817 901.564H162.773C148.112 901.565 133.844 906.309 122.101 915.087C110.359 923.865 101.771 936.207 97.6201 950.268H0.617188V1195.25H348.805H696.993V1135.53C696.993 1126.61 695.236 1117.78 691.822 1109.54C688.408 1101.3 683.404 1093.82 677.096 1087.51C670.788 1081.2 663.299 1076.2 655.058 1072.79C646.817 1069.38 637.984 1067.63 629.064 1067.63ZM323.1 1135.53V1128.45H323.468C323.223 1130.8 323.1 1133.17 323.1 1135.53Z" fill="#275C40"/>
<path d="M629.074 1067.63H605.23V1058.72C605.23 1040.71 598.077 1023.44 585.344 1010.7C572.611 997.969 555.341 990.813 537.333 990.811H468.724V969.461C468.725 960.544 466.969 951.715 463.558 943.477C460.146 935.239 455.145 927.753 448.84 921.448C442.535 915.143 435.049 910.142 426.811 906.73C418.573 903.318 409.743 901.563 400.827 901.564H317.599C328.501 901.563 339.297 903.709 349.369 907.881C359.442 912.053 368.594 918.168 376.303 925.877C384.012 933.586 390.127 942.738 394.298 952.81C398.47 962.883 400.617 973.678 400.616 984.581V1010.68H484.485C506.503 1010.69 527.618 1019.43 543.187 1035C558.755 1050.57 567.501 1071.69 567.501 1093.71V1104.61H596.654C617.292 1104.61 637.189 1112.3 652.466 1126.17C666.516 1140.53 664.17 1168.67 664.17 1179.66H697.003V1135.57C697.008 1126.65 695.255 1117.81 691.843 1109.57C688.431 1101.32 683.428 1093.83 677.119 1087.52C670.811 1081.21 663.321 1076.21 655.077 1072.79C646.833 1069.38 637.997 1067.63 629.074 1067.63Z" fill="#367B55"/>
<path d="M490.616 1100.06C490.958 1099.7 491.379 1099.42 491.848 1099.25C492.316 1099.08 492.818 1099.02 493.314 1099.07C493.81 1099.13 494.285 1099.3 494.703 1099.57C495.121 1099.85 495.47 1100.21 495.721 1100.64L500.052 1108.02C503.956 1114.67 505.586 1122.42 504.694 1130.08C503.803 1137.74 500.439 1144.91 495.112 1150.49V1150.49C494.081 1151.57 492.813 1152.39 491.409 1152.9C490.005 1153.4 488.503 1153.58 487.021 1153.4C485.539 1153.23 484.118 1152.71 482.87 1151.89C481.621 1151.08 480.58 1149.98 479.828 1148.69C475.95 1142.07 474.321 1134.37 475.183 1126.75C476.046 1119.13 479.354 1111.99 484.612 1106.4L490.616 1100.06Z" fill="#367B55" stroke="#367B55" stroke-miterlimit="10" stroke-linecap="round"/>
<path d="M309.241 1024.97C316.445 1027.73 322.554 1032.76 326.645 1039.3C330.736 1045.83 332.585 1053.53 331.913 1061.21V1061.21C331.783 1062.7 331.311 1064.13 330.532 1065.41C329.753 1066.68 328.69 1067.76 327.425 1068.55C326.161 1069.34 324.729 1069.83 323.244 1069.97C321.758 1070.12 320.26 1069.92 318.865 1069.39C312.166 1066.82 306.403 1062.28 302.336 1056.36C298.269 1050.45 296.09 1043.45 296.084 1036.27C296.084 1035.31 296.131 1034.36 296.201 1033.38L296.897 1024.65C296.937 1024.15 297.092 1023.66 297.351 1023.24C297.611 1022.81 297.966 1022.45 298.389 1022.18C298.813 1021.91 299.293 1021.75 299.791 1021.7C300.289 1021.65 300.792 1021.72 301.259 1021.89L309.241 1024.97Z" fill="#367B55" stroke="#367B55" stroke-miterlimit="10" stroke-linecap="round"/>
<path d="M254.061 1107.76C253.645 1108.03 253.299 1108.4 253.051 1108.84C252.802 1109.27 252.657 1109.75 252.628 1110.25C252.598 1110.75 252.685 1111.25 252.88 1111.71C253.076 1112.17 253.376 1112.58 253.756 1112.9L260.268 1118.44C266.151 1123.43 273.499 1126.37 281.201 1126.81C288.903 1127.26 296.539 1125.18 302.953 1120.89V1120.89C304.194 1120.06 305.225 1118.95 305.965 1117.66C306.705 1116.36 307.134 1114.91 307.218 1113.42C307.302 1111.93 307.039 1110.44 306.449 1109.07C305.86 1107.7 304.96 1106.49 303.821 1105.52C297.968 1100.56 290.666 1097.64 283.009 1097.17C275.353 1096.71 267.753 1098.75 261.347 1102.96L254.061 1107.76Z" fill="#367B55"/>
<rect x="664" y="1180" width="33" height="15" fill="#367B55"/>
<path d="M211.404 982.129C211.359 989.841 208.804 997.329 204.123 1003.46C199.443 1009.59 192.893 1014.03 185.465 1016.1V1016.1C184.028 1016.5 182.517 1016.57 181.051 1016.29C179.585 1016.01 178.204 1015.39 177.017 1014.48C175.83 1013.58 174.87 1012.41 174.21 1011.07C173.551 1009.73 173.212 1008.26 173.219 1006.77C173.268 999.592 175.49 992.599 179.592 986.712C183.694 980.825 189.485 976.319 196.199 973.789C197.099 973.45 198.008 973.159 198.948 972.881L207.367 970.459C207.848 970.32 208.354 970.296 208.847 970.388C209.339 970.479 209.803 970.685 210.202 970.987C210.601 971.289 210.924 971.68 211.145 972.129C211.367 972.578 211.481 973.073 211.478 973.574L211.404 982.129Z" fill="#367B55" stroke="#367B55" stroke-miterlimit="10" stroke-linecap="round"/>
<g clip-path="url(#clip0_949_588)">
<path d="M427.792 322.991H296.428C274.135 322.991 256.062 341.063 256.062 363.356V479.336C256.062 501.629 274.135 519.701 296.428 519.701H427.792C450.085 519.701 468.158 501.629 468.158 479.336V363.356C468.158 341.063 450.085 322.991 427.792 322.991Z" fill="#0E2535"/>
<path d="M350.101 514.959H366.786V522.684C366.786 523.587 366.427 524.453 365.789 525.092C365.15 525.73 364.284 526.089 363.381 526.089H353.506C352.603 526.089 351.737 525.73 351.098 525.092C350.46 524.453 350.101 523.587 350.101 522.684V514.959Z" fill="#609847"/>
<path d="M381.451 489.214C381.451 489.214 388.816 501.839 382.286 507.509C375.756 513.179 370.436 499.364 370.436 499.364L366.436 491.514L374.716 478.419C374.716 478.419 379.696 485.524 381.451 489.214Z" fill="#609847"/>
<path d="M283.131 478.534C283.131 478.534 268.411 529.919 333.996 526.084C389.736 522.824 374.711 478.519 374.711 478.519C377.362 476.009 379.377 472.903 380.589 469.459C381.8 466.015 382.172 462.331 381.676 458.714C381.179 455.097 379.828 451.651 377.733 448.66C375.638 445.67 372.861 443.222 369.631 441.519L369.606 441.484C370.677 437.548 370.227 433.353 368.347 429.732C366.468 426.112 363.295 423.331 359.459 421.941C355.623 420.552 351.406 420.657 347.643 422.234C343.881 423.811 340.85 426.745 339.151 430.454H322.291C320.747 427.074 318.092 424.326 314.767 422.666C311.442 421.006 307.65 420.535 304.02 421.332C300.391 422.129 297.144 424.145 294.82 427.045C292.497 429.945 291.237 433.553 291.251 437.269C291.262 438.234 291.357 439.196 291.536 440.144H291.506C287.769 441.424 284.425 443.645 281.797 446.594C279.169 449.544 277.346 453.121 276.504 456.98C275.662 460.839 275.83 464.851 276.991 468.626C278.151 472.402 280.266 475.815 283.131 478.534Z" fill="#66AF49"/>
<path d="M291.161 514.959H306.771V522.904C306.771 523.749 306.436 524.559 305.838 525.156C305.241 525.754 304.431 526.089 303.586 526.089H294.341C293.497 526.089 292.686 525.754 292.089 525.156C291.492 524.559 291.156 523.749 291.156 522.904V514.959H291.161Z" fill="#66AF49"/>
<path d="M359.636 495.629V519.879C353.471 523.139 345.136 525.434 334.001 526.084C321.741 526.804 312.291 525.584 305.001 523.154V495.654C305.01 492.146 306.408 488.783 308.889 486.302C311.37 483.821 314.732 482.424 318.241 482.414H346.411C349.912 482.429 353.266 483.825 355.743 486.3C358.22 488.775 359.619 492.128 359.636 495.629V495.629Z" fill="#A7D157"/>
<path d="M354.121 449.594C357.128 449.594 359.566 447.157 359.566 444.149C359.566 441.142 357.128 438.704 354.121 438.704C351.114 438.704 348.676 441.142 348.676 444.149C348.676 447.157 351.114 449.594 354.121 449.594Z" fill="black"/>
<path d="M310.461 449.594C313.468 449.594 315.906 447.157 315.906 444.149C315.906 441.142 313.468 438.704 310.461 438.704C307.454 438.704 305.016 441.142 305.016 444.149C305.016 447.157 307.454 449.594 310.461 449.594Z" fill="black"/>
<path d="M277.011 489.614C277.011 489.614 270.236 502.554 277.011 507.924C283.786 513.294 288.481 499.269 288.481 499.269L292.101 491.244L283.231 478.539C283.231 478.539 278.596 485.844 277.011 489.614Z" fill="#66AF49"/>
<path d="M327.266 449.614H340.001C340.619 449.612 341.228 449.767 341.77 450.062C342.313 450.358 342.772 450.786 343.106 451.306C343.439 451.827 343.636 452.423 343.678 453.04C343.72 453.656 343.606 454.273 343.346 454.834C342.016 457.659 339.276 460.579 333.636 460.579C327.996 460.579 325.251 457.659 323.921 454.834C323.661 454.273 323.547 453.656 323.589 453.04C323.631 452.423 323.828 451.827 324.161 451.306C324.495 450.786 324.954 450.358 325.497 450.062C326.04 449.767 326.648 449.612 327.266 449.614V449.614Z" fill="white"/>
<path d="M367.401 467.814C372.706 467.814 377.006 463.736 377.006 458.704C377.006 453.673 372.706 449.594 367.401 449.594C362.096 449.594 357.796 453.673 357.796 458.704C357.796 463.736 362.096 467.814 367.401 467.814Z" fill="#A7D157"/>
<path d="M299.866 467.814C305.171 467.814 309.471 463.736 309.471 458.704C309.471 453.673 305.171 449.594 299.866 449.594C294.562 449.594 290.261 453.673 290.261 458.704C290.261 463.736 294.562 467.814 299.866 467.814Z" fill="#A7D157"/>
<path d="M337.756 516.389C337.594 516.39 337.434 516.358 337.285 516.296C337.136 516.234 337 516.144 336.886 516.029L331.411 510.564C331.201 510.331 331.089 510.026 331.097 509.713C331.105 509.399 331.234 509.101 331.455 508.879C331.677 508.657 331.976 508.529 332.289 508.52C332.603 508.512 332.908 508.625 333.141 508.834L338.606 514.294C338.776 514.466 338.892 514.685 338.938 514.922C338.985 515.159 338.961 515.405 338.868 515.629C338.776 515.852 338.62 516.044 338.419 516.179C338.219 516.314 337.983 516.387 337.741 516.389H337.756Z" fill="#66AF49"/>
<path d="M332.291 516.389C332.13 516.39 331.971 516.359 331.822 516.297C331.674 516.235 331.539 516.144 331.426 516.029C331.312 515.915 331.221 515.78 331.16 515.631C331.098 515.482 331.066 515.323 331.066 515.162C331.066 515.001 331.098 514.841 331.16 514.692C331.221 514.543 331.312 514.408 331.426 514.294L336.911 508.834C337.14 508.604 337.452 508.475 337.777 508.474C337.938 508.474 338.097 508.505 338.246 508.567C338.394 508.628 338.53 508.718 338.644 508.832C338.757 508.945 338.848 509.08 338.91 509.229C338.971 509.377 339.003 509.537 339.004 509.697C339.004 509.858 338.972 510.018 338.911 510.166C338.85 510.315 338.76 510.45 338.646 510.564L333.181 516.029C333.065 516.147 332.926 516.239 332.773 516.301C332.62 516.363 332.456 516.393 332.291 516.389V516.389Z" fill="#66AF49"/>
<path fill-rule="evenodd" clip-rule="evenodd" d="M374.761 478.481C376.961 476.382 378.725 473.868 379.951 471.084V471.104C380.496 469.857 380.925 468.572 381.239 467.266C381.918 464.474 382.069 461.574 381.676 458.714C381.18 455.097 379.828 451.651 377.733 448.66C375.638 445.67 372.861 443.222 369.631 441.519L369.612 441.493C369.998 440.118 370.196 438.697 370.201 437.269C370.229 433.539 368.973 429.911 366.645 426.997C364.316 424.082 361.056 422.057 357.411 421.26C353.766 420.464 349.958 420.946 346.626 422.625C343.302 424.299 340.653 427.063 339.122 430.454H322.291C320.747 427.074 318.092 424.326 314.767 422.666C311.443 421.006 307.65 420.535 304.02 421.332C302.184 421.735 300.445 422.451 298.875 423.435C297.335 424.394 295.955 425.61 294.801 427.044C292.474 429.936 291.207 433.537 291.211 437.249C291.225 438.215 291.318 439.179 291.491 440.129C287.753 441.408 284.408 443.63 281.779 446.58C279.15 449.529 277.327 453.107 276.485 456.967C275.643 460.827 275.811 464.839 276.972 468.616C278.134 472.392 280.25 475.805 283.116 478.524C283.116 478.524 283.082 478.643 283.025 478.868C282.108 480.329 278.396 486.321 277.011 489.614C277.011 489.614 270.236 502.554 277.011 507.924C280.199 510.451 282.926 508.684 284.921 506.104C286.352 509.228 288.365 512.267 291.156 514.998V522.904C291.156 523.749 291.492 524.559 292.089 525.156C292.686 525.754 293.497 526.089 294.341 526.089H303.586C304.431 526.089 305.241 525.754 305.838 525.156C306.249 524.746 306.536 524.234 306.675 523.68C311.818 525.195 317.967 526.134 325.322 526.272C328.046 526.323 330.935 526.264 334 526.084L374.761 478.481ZM374.761 478.481C375.253 479.187 379.794 485.726 381.452 489.214C381.452 489.214 388.817 501.839 382.288 507.509C378.929 510.426 375.89 508.187 373.731 505.325C372.223 508.708 369.987 512.012 366.745 514.959H366.787V522.684C366.787 523.587 366.428 524.453 365.789 525.092C365.151 525.73 364.285 526.089 363.382 526.089H353.507C352.604 526.089 351.737 525.73 351.099 525.092C350.67 524.663 350.367 524.132 350.215 523.555C347.375 524.347 344.24 524.986 340.785 525.446C338.648 525.73 336.389 525.945 334.001 526.084L374.761 478.481Z" fill="url(#paint1_linear_949_588)"/>
<path d="M263.257 510.506L262.971 510.562C266.905 514.987 273.352 516.55 280.095 515.082C289.602 513.006 296.084 505.679 294.008 496.166C291.932 486.653 283.445 484.754 273.938 486.825C267.195 488.298 261.528 490.337 259.797 495.997C259.892 495.968 259.988 495.95 260.083 495.926C264.097 495.047 266.557 497.665 267.456 501.694C268.355 505.723 267.271 509.627 263.257 510.506Z" fill="#F95A5A"/>
<path d="M290.836 496.328C290.127 494.02 288.783 491.958 286.956 490.378" stroke="white" stroke-width="4" stroke-linecap="round" stroke-linejoin="round"/>
<path d="M264.115 480.376C263.98 480.375 263.847 480.405 263.726 480.465C263.605 480.525 263.499 480.612 263.418 480.719C263.336 480.826 263.28 480.951 263.255 481.084C263.23 481.217 263.236 481.353 263.273 481.483L263.909 483.703C264.486 485.705 265.698 487.465 267.364 488.718C269.029 489.97 271.057 490.646 273.14 490.644V490.644C273.543 490.643 273.941 490.548 274.301 490.367C274.662 490.186 274.975 489.924 275.217 489.602C275.459 489.279 275.623 488.905 275.696 488.508C275.768 488.112 275.748 487.704 275.636 487.316C275.057 485.333 273.854 483.589 272.204 482.345C270.554 481.1 268.546 480.422 266.48 480.412L264.115 480.376Z" fill="#009056" stroke="#009056" stroke-miterlimit="10" stroke-linecap="round"/>
<path d="M448.75 451.386L324 385.636L286.5 481.498L365.745 512.698L448.75 451.386Z" fill="url(#paint2_linear_949_588)"/>
<path d="M448.521 451.323H367.431C366.5 451.323 365.746 452.077 365.746 453.008V512.702C365.746 513.633 366.5 514.387 367.431 514.387H448.521C449.452 514.387 450.206 513.633 450.206 512.702V453.008C450.206 452.077 449.452 451.323 448.521 451.323Z" fill="#136E90"/>
<path d="M447.695 514.383H352.56C351.629 514.383 350.875 515.137 350.875 516.068V518.803C350.875 519.734 351.629 520.488 352.56 520.488H447.695C448.626 520.488 449.38 519.734 449.38 518.803V516.068C449.38 515.137 448.626 514.383 447.695 514.383Z" fill="#015271"/>
<g filter="url(#filter0_d_949_588)">
<path d="M405.389 483.364V480.496L399.359 486.504L400.78 487.955L405.389 483.364ZM419.104 481.591C418.757 480.071 417.96 478.649 416.787 477.459L412.653 473.248L410.287 475.608L410.116 475.777V478.645L412.638 476.128L414.989 478.521L415.347 478.889L415.371 478.914C415.371 478.914 415.528 479.066 415.744 479.327C416.421 480.117 416.888 481.02 417.115 481.976C417.448 483.666 417.605 485.637 415.734 488.038V491C415.91 490.847 416.023 490.74 416.062 490.699C417.619 489.268 418.695 487.511 419.177 485.612C419.443 484.279 419.418 482.917 419.104 481.591ZM406.565 490.426L406.501 490.397H406.467C406.284 490.296 406.111 490.184 405.947 490.062C405.796 489.951 405.604 489.806 405.379 489.62C405.036 489.335 404.615 488.955 404.096 488.447L402.93 487.265L401.495 488.699L402.651 489.881C404.439 491.628 405.36 492.128 405.698 492.269C406.746 492.792 407.915 493.117 409.126 493.223C409.676 493.267 410.23 493.256 410.777 493.19H410.909V491.124C409.408 491.36 407.857 491.111 406.565 490.426Z" fill="white"/>
<path d="M409.103 476.798L409.083 489.046L406.394 489.042L406.409 479.484L406.678 479.211L406.825 479.066L407.638 478.257L408.191 477.707L408.368 477.529L408.921 476.98L409.103 476.798Z" fill="white"/>
<path d="M414.73 479.545V491.764L414.691 491.789L414.299 492.029L414.157 492.107C414.035 492.177 413.902 492.244 413.765 492.31C413.628 492.376 413.511 492.434 413.378 492.492L413.153 492.587L412.854 492.706L412.604 492.793C412.438 492.847 412.266 492.901 412.085 492.95L411.953 492.983V479.541L414.73 479.545Z" fill="white"/>
<path d="M409.106 482.786L409.102 485.559L411.958 485.562L411.962 482.789L409.106 482.786Z" fill="white"/>
</g>
</g>
<path d="M382.188 61.2722C382.478 61.1393 382.795 61.0759 383.114 61.087C383.433 61.0982 383.744 61.1836 384.024 61.3364C384.304 61.4893 384.545 61.7053 384.727 61.9675C384.908 62.2296 385.027 62.5305 385.072 62.8463L385.855 68.261C386.552 73.1456 385.64 78.1245 383.257 82.4448C380.873 86.7651 377.148 90.1918 372.644 92.2068V92.2068C371.773 92.5961 370.823 92.7777 369.87 92.7371C368.917 92.6964 367.986 92.4348 367.152 91.9728C366.317 91.5108 365.601 90.8611 365.06 90.075C364.52 89.2888 364.169 88.3878 364.037 87.443C363.348 82.5893 364.248 77.6429 366.603 73.3433C368.958 69.0436 372.641 65.6216 377.102 63.5889L382.188 61.2722Z" fill="#367B55" stroke="#367B55" stroke-miterlimit="10" stroke-linecap="round"/>
<path d="M402.452 181.146C402.771 181.144 403.086 181.217 403.372 181.357C403.659 181.498 403.908 181.703 404.102 181.956C404.296 182.21 404.428 182.504 404.489 182.817C404.55 183.13 404.537 183.453 404.452 183.761L402.997 189.031C401.675 193.783 398.84 197.975 394.922 200.972C391.003 203.97 386.215 205.608 381.282 205.641H381.257C380.303 205.647 379.36 205.431 378.503 205.01C377.647 204.59 376.899 203.976 376.32 203.217C375.741 202.459 375.345 201.576 375.165 200.639C374.985 199.701 375.025 198.735 375.282 197.816C376.601 193.091 379.414 188.92 383.302 185.928C387.19 182.936 391.942 181.285 396.847 181.221L402.452 181.146Z" fill="#367B55"/>
<path d="M344.498 165.816C344.716 165.583 344.986 165.404 345.285 165.294C345.584 165.184 345.905 165.144 346.222 165.18C346.539 165.215 346.844 165.324 347.111 165.498C347.379 165.672 347.602 165.906 347.763 166.181L350.538 170.896C353.034 175.153 354.075 180.106 353.505 185.007C352.934 189.908 350.784 194.491 347.378 198.061V198.061C346.72 198.751 345.91 199.279 345.012 199.602C344.114 199.925 343.154 200.036 342.206 199.924C341.259 199.813 340.35 199.482 339.552 198.959C338.754 198.436 338.089 197.735 337.608 196.911C335.133 192.68 334.093 187.761 334.644 182.89C335.196 178.018 337.309 173.456 340.668 169.886L344.498 165.816Z" fill="#367B55" stroke="#367B55" stroke-miterlimit="10" stroke-linecap="round"/>
<path d="M228.5 117.287C233.108 119.049 237.016 122.264 239.632 126.446C242.249 130.628 243.431 135.548 243 140.462V140.462C242.917 141.413 242.613 142.332 242.114 143.146C241.615 143.961 240.933 144.648 240.123 145.154C239.313 145.66 238.397 145.971 237.447 146.063C236.496 146.154 235.537 146.024 234.645 145.682C230.36 144.039 226.673 141.135 224.071 137.354C221.469 133.573 220.074 129.092 220.07 124.502C220.07 123.887 220.105 123.277 220.15 122.652L220.59 117.067C220.617 116.748 220.717 116.439 220.883 116.165C221.049 115.891 221.277 115.659 221.548 115.489C221.819 115.318 222.126 115.213 222.445 115.181C222.764 115.15 223.086 115.193 223.385 115.307L228.5 117.287Z" fill="#367B55" stroke="#367B55" stroke-miterlimit="10" stroke-linecap="round"/>
<path d="M193.218 170.731C192.951 170.909 192.73 171.145 192.57 171.423C192.411 171.701 192.319 172.012 192.3 172.331C192.282 172.651 192.338 172.97 192.464 173.264C192.59 173.559 192.783 173.819 193.028 174.026L197.193 177.566C200.955 180.759 205.656 182.639 210.583 182.921C215.51 183.204 220.395 181.873 224.498 179.131V179.131C225.292 178.601 225.952 177.894 226.426 177.065C226.9 176.236 227.174 175.308 227.228 174.355C227.282 173.401 227.114 172.449 226.736 171.572C226.358 170.695 225.782 169.917 225.053 169.301C221.31 166.13 216.641 164.257 211.745 163.962C206.848 163.667 201.988 164.967 197.893 167.666L193.218 170.731Z" fill="#367B55"/>
<path d="M447.34 95.9448C447.029 95.874 446.705 95.8769 446.395 95.9533C446.085 96.0298 445.797 96.1775 445.555 96.3849C445.312 96.5923 445.121 96.8535 444.997 97.1478C444.873 97.442 444.819 97.7612 444.84 98.0798L445.19 103.54C445.515 108.463 447.432 113.147 450.653 116.884C453.874 120.621 458.224 123.208 463.045 124.255V124.255C463.978 124.456 464.945 124.438 465.869 124.202C466.794 123.965 467.651 123.518 468.372 122.894C469.094 122.27 469.661 121.487 470.029 120.606C470.396 119.726 470.554 118.772 470.49 117.82C470.166 112.925 468.267 108.266 465.075 104.54C461.884 100.815 457.573 98.2219 452.785 97.1498L447.34 95.9448Z" fill="#367B55" stroke="#367B55" stroke-miterlimit="10" stroke-linecap="round"/>
<path d="M470.719 67.1369C468.885 71.7188 468.595 76.7736 469.891 81.5355C471.188 86.2975 474.001 90.5071 477.904 93.5269V93.5269C478.659 94.1113 479.539 94.5124 480.476 94.6987C481.412 94.8849 482.379 94.8511 483.3 94.6C484.221 94.3489 485.071 93.8873 485.783 93.2517C486.496 92.616 487.05 91.8236 487.404 90.9369C489.229 86.3822 489.526 81.3584 488.251 76.6205C486.976 71.8825 484.198 67.6861 480.334 64.6619L475.929 61.1969C475.677 60.9993 475.382 60.863 475.068 60.7989C474.755 60.7347 474.43 60.7445 474.121 60.8275C473.811 60.9104 473.525 61.0642 473.285 61.2767C473.046 61.4893 472.859 61.7547 472.739 62.0519L470.719 67.1369Z" fill="#367B55" stroke="#367B55" stroke-miterlimit="10" stroke-linecap="round"/>
<path d="M552.297 117.287C547.69 119.049 543.783 122.265 541.166 126.446C538.55 130.628 537.367 135.548 537.797 140.462C537.88 141.413 538.183 142.332 538.682 143.146C539.18 143.96 539.861 144.648 540.671 145.154C541.481 145.66 542.397 145.971 543.347 146.063C544.297 146.154 545.256 146.024 546.147 145.682C550.433 144.039 554.12 141.135 556.721 137.354C559.323 133.573 560.718 129.092 560.722 124.502C560.722 123.887 560.687 123.277 560.642 122.652L560.202 117.067C560.176 116.748 560.076 116.439 559.91 116.165C559.743 115.891 559.516 115.659 559.245 115.489C558.973 115.318 558.666 115.213 558.347 115.181C558.028 115.15 557.707 115.193 557.407 115.307L552.297 117.287Z" fill="#367B55" stroke="#367B55" stroke-miterlimit="10" stroke-linecap="round"/>
<path d="M599.115 39.0416C599.42 39.1346 599.743 39.155 600.058 39.1011C600.373 39.0472 600.671 38.9205 600.928 38.7312C601.185 38.5418 601.394 38.295 601.539 38.0104C601.684 37.7258 601.76 37.4113 601.762 37.092L601.806 31.621C601.837 26.6874 600.262 21.8777 597.318 17.9185C594.374 13.9594 590.221 11.0658 585.488 9.67493V9.67493C584.572 9.40715 583.607 9.35577 582.668 9.52484C581.728 9.69391 580.842 10.0788 580.077 10.6492C579.312 11.2196 578.69 11.9598 578.26 12.8116C577.83 13.6634 577.604 14.6034 577.599 15.5575C577.57 20.4631 579.13 25.2464 582.045 29.1921C584.96 33.1378 589.073 36.0341 593.771 37.4479L599.115 39.0416Z" fill="#367B55" stroke="#367B55" stroke-miterlimit="10" stroke-linecap="round"/>
<defs>
<filter id="filter0_d_949_588" x="397.359" y="471.248" width="24" height="24.0012" filterUnits="userSpaceOnUse" color-interpolation-filters="sRGB">
<feFlood flood-opacity="0" result="BackgroundImageFix"/>
<feColorMatrix in="SourceAlpha" type="matrix" values="0 0 0 0 0 0 0 0 0 0 0 0 0 0 0 0 0 0 127 0" result="hardAlpha"/>
<feOffset/>
<feGaussianBlur stdDeviation="1"/>
<feComposite in2="hardAlpha" operator="out"/>
<feColorMatrix type="matrix" values="0 0 0 0 1 0 0 0 0 1 0 0 0 0 1 0 0 0 0.4 0"/>
<feBlend mode="normal" in2="BackgroundImageFix" result="effect1_dropShadow_949_588"/>
<feBlend mode="normal" in="SourceGraphic" in2="effect1_dropShadow_949_588" result="shape"/>
</filter>
<linearGradient id="paint0_linear_949_588" x1="680.25" y1="39.886" x2="680.25" y2="829.886" gradientUnits="userSpaceOnUse">
<stop stop-color="#FFC53D"/>
<stop offset="1" stop-color="#FFC53D" stop-opacity="0"/>
</linearGradient>
<linearGradient id="paint1_linear_949_588" x1="367.5" y1="512.886" x2="318.5" y2="445.386" gradientUnits="userSpaceOnUse">
<stop stop-color="#A0FFE6"/>
<stop offset="1" stop-color="#66AF49" stop-opacity="0"/>
</linearGradient>
<linearGradient id="paint2_linear_949_588" x1="340.175" y1="430.973" x2="390.04" y2="495.618" gradientUnits="userSpaceOnUse">
<stop offset="0.25" stop-color="#96FFFF" stop-opacity="0"/>
<stop offset="1" stop-color="#96FFFF" stop-opacity="0.5"/>
</linearGradient>
<clipPath id="clip0_949_588">
<rect width="212.095" height="196.71" fill="white" transform="translate(256.062 322.991)"/>
</clipPath>
</defs>
</svg>
