<svg width="375" height="438" viewBox="0 0 375 438" fill="none" xmlns="http://www.w3.org/2000/svg">
<g clip-path="url(#clip0_954_1097)">
<mask id="mask0_954_1097" style="mask-type:alpha" maskUnits="userSpaceOnUse" x="-32" y="-71" width="423" height="511">
<path fill-rule="evenodd" clip-rule="evenodd" d="M-17 99C-14.2386 99 -12 96.7614 -12 94V-66C-12 -68.7614 -9.7614 -71 -6.99998 -71H382C384.761 -71 387 -68.7614 387 -66V97C387 98.1046 387.895 99 389 99C390.105 99 391 99.8954 391 101V434.377C391 437.37 388.388 439.693 385.416 439.343L-27.5841 390.761C-30.1022 390.465 -32 388.331 -32 385.796V104C-32 101.239 -29.7614 99 -27 99H-17Z" fill="#C4C4C4"/>
</mask>
<g mask="url(#mask0_954_1097)">
<path d="M381.006 -73.0007H-9.99414V446.999H381.006V-73.0007Z" fill="url(#paint0_linear_954_1097)"/>
<path opacity="0.5" d="M349.005 184H292.005V447H349.005V184Z" fill="#173A52"/>
<path opacity="0.5" d="M389.448 102.002H251.562C239.656 102.002 230.005 111.457 230.005 123.12V162.885C230.005 174.548 239.656 184.002 251.562 184.002H389.448C401.353 184.002 411.005 174.548 411.005 162.885V123.12C411.005 111.457 401.353 102.002 389.448 102.002Z" fill="#037D52"/>
<path d="M336.503 95.0426C336.503 95.0426 336.414 99.5305 339.06 101.694C341.707 103.858 346.088 102.878 346.088 102.878C346.088 102.878 346.218 98.3399 343.572 96.1761C340.925 94.0123 336.503 95.0426 336.503 95.0426Z" fill="#52B49E"/>
<path d="M352.12 96.2142C352.12 96.2142 349.202 95.6741 347.506 97.1686C345.81 98.6631 345.979 101.626 345.979 101.626C345.979 101.626 348.926 102.199 350.622 100.704C352.318 99.2099 352.12 96.2142 352.12 96.2142Z" fill="#52B49E"/>
<path opacity="0.5" d="M204.005 318H147.005V433H204.005V318Z" fill="#173A52"/>
<path opacity="0.5" d="M244.567 235.002H107.442C95.6027 235.002 86.0046 244.572 86.0046 256.377V296.627C86.0046 308.432 95.6027 318.002 107.442 318.002H244.567C256.407 318.002 266.005 308.432 266.005 296.627V256.377C266.005 244.572 256.407 235.002 244.567 235.002Z" fill="#037D52"/>
<path opacity="0.5" d="M160.435 7.54744C159.469 5.96497 157.749 4.99951 155.895 4.99951H108.325C104.744 4.99951 102.186 8.46556 103.244 11.8856L229.785 421.253C230.474 423.48 232.534 425 234.866 425H405.676C409.828 425 412.378 420.457 410.217 416.915L160.435 7.54744Z" fill="url(#paint1_linear_954_1097)"/>
</g>
</g>
<defs>
<linearGradient id="paint0_linear_954_1097" x1="126.996" y1="352.333" x2="416.907" y2="-10.4048" gradientUnits="userSpaceOnUse">
<stop stop-color="#2CD0EF"/>
<stop offset="0.436544" stop-color="#7CEAED"/>
<stop offset="1" stop-color="#BEEBE7"/>
</linearGradient>
<linearGradient id="paint1_linear_954_1097" x1="258.132" y1="4.99951" x2="258.132" y2="425" gradientUnits="userSpaceOnUse">
<stop stop-color="#FFC53D"/>
<stop offset="1" stop-color="#FFC53D" stop-opacity="0"/>
</linearGradient>
<clipPath id="clip0_954_1097">
<rect width="375" height="438" fill="white"/>
</clipPath>
</defs>
</svg>
