<svg width="958" height="1196" viewBox="0 0 958 1196" fill="none" xmlns="http://www.w3.org/2000/svg">
<path opacity="0.5" d="M205.705 46.1148C203.437 43.7931 205.082 39.886 208.328 39.886C209.92 39.886 211.331 40.9138 211.818 42.4297L462.893 822.948C464.223 827.083 468.07 829.886 472.413 829.886H947.748C956.602 829.886 961.088 819.23 954.901 812.897L205.705 46.1148Z" fill="url(#paint0_linear_949_588)"/>
<path d="M336 145H40.0002V1195H336V145Z" fill="#173A52"/>
<path d="M583.91 0.885986V81.316C583.91 92.8304 579.337 103.873 571.196 112.017C563.056 120.16 552.014 124.737 540.5 124.741H507V145.696C507 151.399 505.877 157.046 503.694 162.315C501.511 167.584 498.312 172.371 494.279 176.404C490.246 180.436 485.459 183.635 480.19 185.817C474.921 187.999 469.273 189.122 463.57 189.121H392.63V220.496C392.631 226.199 391.508 231.846 389.326 237.116C387.144 242.385 383.945 247.172 379.913 251.205C375.88 255.238 371.093 258.437 365.824 260.62C360.555 262.803 354.908 263.926 349.205 263.926H122.735C111.668 263.927 101.018 259.702 92.9605 252.114C84.9035 244.526 80.0477 234.149 79.3851 223.101H0.320068V0.885986H583.91Z" fill="#275C40"/>
<path d="M584 0.885986V81.316C584 87.0191 582.877 92.6663 580.694 97.9352C578.511 103.204 575.312 107.991 571.279 112.024C567.246 116.056 562.459 119.255 557.19 121.437C551.92 123.619 546.273 124.742 540.57 124.741H507.11V145.696C507.11 151.399 505.987 157.046 503.804 162.315C501.621 167.584 498.422 172.371 494.389 176.404C490.356 180.436 485.569 183.635 480.3 185.817C475.03 187.999 469.383 189.122 463.68 189.121H392.705V220.496C392.706 226.199 391.583 231.846 389.401 237.116C387.219 242.385 384.02 247.172 379.988 251.205C375.955 255.238 371.168 258.437 365.899 260.62C360.63 262.803 354.983 263.926 349.28 263.926H292.46C299.179 263.926 305.833 262.602 312.041 260.031C318.249 257.459 323.89 253.69 328.641 248.938C333.392 244.187 337.161 238.546 339.732 232.338C342.303 226.129 343.626 219.475 343.625 212.756V175.791H427.225C433.944 175.792 440.597 174.469 446.805 171.898C453.013 169.328 458.654 165.559 463.406 160.809C468.157 156.058 471.926 150.418 474.498 144.211C477.07 138.003 478.394 131.35 478.395 124.631V99.941H507.815C514.536 99.9436 521.191 98.6221 527.401 96.052C533.611 93.4819 539.254 89.7136 544.007 84.9622C548.76 80.2108 552.531 74.5695 555.103 68.3606C557.676 62.1517 559 55.4968 559 48.776V0.885986H584Z" fill="#367B55"/>
<path fill-rule="evenodd" clip-rule="evenodd" d="M0 1195.25H174.805H522.993V1135.53C522.993 1126.61 521.236 1117.78 517.822 1109.54C514.408 1101.3 509.404 1093.82 503.096 1087.51C496.788 1081.2 489.299 1076.2 481.058 1072.79C472.817 1069.38 463.984 1067.63 455.064 1067.63H431.22V1058.72C431.22 1040.71 424.067 1023.44 411.334 1010.7C398.601 997.969 381.331 990.813 363.323 990.811H294.714V969.461C294.715 960.544 292.96 951.715 289.548 943.477C286.136 935.239 281.135 927.753 274.83 921.448C268.525 915.143 261.039 910.142 252.801 906.73C244.563 903.318 235.733 901.563 226.817 901.564H0V1195.25ZM149.1 1128.45V1135.53C149.1 1133.16 149.223 1130.8 149.468 1128.45H149.1Z" fill="#275C40"/>
<path d="M455.074 1067.63H431.23V1058.72C431.23 1040.71 424.077 1023.44 411.344 1010.7C398.611 997.969 381.341 990.813 363.333 990.811H294.724V969.461C294.725 960.544 292.969 951.715 289.558 943.477C286.146 935.239 281.145 927.753 274.84 921.448C268.535 915.143 261.049 910.142 252.811 906.73C244.573 903.318 235.743 901.563 226.827 901.564H143.599C154.501 901.563 165.297 903.709 175.369 907.881C185.442 912.053 194.594 918.168 202.303 925.877C210.012 933.586 216.127 942.738 220.298 952.81C224.47 962.883 226.617 973.678 226.616 984.581V1010.68H310.485C332.503 1010.69 353.618 1019.43 369.187 1035C384.755 1050.57 393.501 1071.69 393.501 1093.71V1104.61H422.654C443.292 1104.61 463.189 1112.3 478.466 1126.17C492.516 1140.53 490.17 1168.67 490.17 1179.66H523.003V1135.57C523.008 1126.65 521.255 1117.81 517.843 1109.57C514.431 1101.32 509.428 1093.83 503.119 1087.52C496.811 1081.21 489.321 1076.21 481.077 1072.79C472.833 1069.38 463.997 1067.63 455.074 1067.63Z" fill="#367B55"/>
<path d="M316.616 1100.06C316.958 1099.7 317.379 1099.42 317.848 1099.25C318.316 1099.08 318.818 1099.02 319.314 1099.07C319.81 1099.13 320.285 1099.3 320.703 1099.57C321.121 1099.85 321.47 1100.21 321.721 1100.64L326.052 1108.02C329.956 1114.67 331.586 1122.42 330.694 1130.08C329.803 1137.74 326.439 1144.91 321.112 1150.49V1150.49C320.081 1151.57 318.813 1152.39 317.409 1152.9C316.005 1153.4 314.503 1153.58 313.021 1153.4C311.539 1153.23 310.118 1152.71 308.87 1151.89C307.621 1151.08 306.58 1149.98 305.828 1148.69C301.95 1142.07 300.321 1134.37 301.183 1126.75C302.046 1119.13 305.354 1111.99 310.612 1106.4L316.616 1100.06Z" fill="#367B55" stroke="#367B55" stroke-miterlimit="10" stroke-linecap="round"/>
<path d="M135.241 1024.97C142.445 1027.73 148.554 1032.76 152.645 1039.3C156.736 1045.83 158.585 1053.53 157.913 1061.21V1061.21C157.783 1062.7 157.311 1064.13 156.532 1065.41C155.753 1066.68 154.69 1067.76 153.425 1068.55C152.161 1069.34 150.729 1069.83 149.244 1069.97C147.758 1070.12 146.26 1069.92 144.865 1069.39C138.166 1066.82 132.403 1062.28 128.336 1056.36C124.269 1050.45 122.09 1043.45 122.084 1036.27C122.084 1035.31 122.131 1034.36 122.201 1033.38L122.897 1024.65C122.937 1024.15 123.092 1023.66 123.351 1023.24C123.611 1022.81 123.966 1022.45 124.389 1022.18C124.813 1021.91 125.293 1021.75 125.791 1021.7C126.289 1021.65 126.792 1021.72 127.259 1021.89L135.241 1024.97Z" fill="#367B55" stroke="#367B55" stroke-miterlimit="10" stroke-linecap="round"/>
<path d="M80.0609 1107.76C79.6452 1108.03 79.2994 1108.4 79.0508 1108.84C78.8021 1109.27 78.6573 1109.75 78.6277 1110.25C78.5982 1110.75 78.6847 1111.25 78.8805 1111.71C79.0762 1112.17 79.3759 1112.58 79.756 1112.9L86.2682 1118.44C92.1511 1123.43 99.4993 1126.37 107.201 1126.81C114.903 1127.26 122.539 1125.18 128.953 1120.89V1120.89C130.194 1120.06 131.225 1118.95 131.965 1117.66C132.705 1116.36 133.134 1114.91 133.218 1113.42C133.302 1111.93 133.039 1110.44 132.449 1109.07C131.86 1107.7 130.96 1106.49 129.821 1105.52C123.968 1100.56 116.666 1097.64 109.009 1097.17C101.353 1096.71 93.7526 1098.75 87.347 1102.96L80.0609 1107.76Z" fill="#367B55"/>
<rect x="490" y="1180" width="33" height="15" fill="#367B55"/>
<path fill-rule="evenodd" clip-rule="evenodd" d="M0 1010.62C0.0660705 1010.77 0.136232 1010.92 0.210447 1011.07C0.869569 1012.41 1.83046 1013.58 3.01741 1014.48C4.20436 1015.39 5.58506 1016.01 7.05091 1016.29C8.51675 1016.57 10.0277 1016.5 11.465 1016.1C18.8931 1014.03 25.4432 1009.59 30.1234 1003.46C34.8037 997.329 37.3593 989.841 37.4035 982.129L37.4776 973.574C37.4806 973.073 37.3668 972.579 37.1454 972.13C36.9239 971.681 36.6009 971.289 36.2018 970.987C35.8028 970.685 35.3388 970.48 34.8466 970.388C34.3544 970.296 33.8476 970.321 33.3665 970.459L24.9479 972.881C24.0084 973.159 23.0991 973.451 22.1991 973.789C15.4845 976.32 9.69449 980.825 5.59213 986.713C2.87461 990.612 0.982185 994.997 0 999.599V1010.62Z" fill="#367B55"/>
<g clip-path="url(#clip0_949_588)">
<path d="M253.792 322.991H122.428C100.135 322.991 82.0625 341.063 82.0625 363.356V479.336C82.0625 501.629 100.135 519.701 122.428 519.701H253.792C276.085 519.701 294.158 501.629 294.158 479.336V363.356C294.158 341.063 276.085 322.991 253.792 322.991Z" fill="#0E2535"/>
<path d="M176.101 514.959H192.786V522.684C192.786 523.587 192.427 524.453 191.789 525.092C191.15 525.73 190.284 526.089 189.381 526.089H179.506C178.603 526.089 177.737 525.73 177.098 525.092C176.46 524.453 176.101 523.587 176.101 522.684V514.959Z" fill="#609847"/>
<path d="M207.451 489.214C207.451 489.214 214.816 501.839 208.286 507.509C201.756 513.179 196.436 499.364 196.436 499.364L192.436 491.514L200.716 478.419C200.716 478.419 205.696 485.524 207.451 489.214Z" fill="#609847"/>
<path d="M109.131 478.534C109.131 478.534 94.4111 529.919 159.996 526.084C215.736 522.824 200.711 478.519 200.711 478.519C203.362 476.009 205.377 472.903 206.589 469.459C207.8 466.015 208.173 462.331 207.676 458.714C207.179 455.097 205.828 451.651 203.733 448.66C201.638 445.67 198.861 443.222 195.631 441.519L195.606 441.484C196.677 437.548 196.227 433.353 194.347 429.732C192.468 426.112 189.295 423.331 185.459 421.941C181.623 420.552 177.406 420.657 173.643 422.234C169.881 423.811 166.85 426.745 165.151 430.454H148.291C146.747 427.074 144.092 424.326 140.767 422.666C137.442 421.006 133.65 420.535 130.02 421.332C126.391 422.129 123.144 424.145 120.82 427.045C118.497 429.945 117.237 433.553 117.251 437.269C117.262 438.234 117.357 439.196 117.536 440.144H117.506C113.769 441.424 110.425 443.645 107.797 446.594C105.169 449.544 103.346 453.121 102.504 456.98C101.662 460.839 101.83 464.851 102.991 468.626C104.151 472.402 106.266 475.815 109.131 478.534Z" fill="#66AF49"/>
<path d="M117.161 514.959H132.771V522.904C132.771 523.749 132.436 524.559 131.838 525.156C131.241 525.754 130.431 526.089 129.586 526.089H120.341C119.497 526.089 118.686 525.754 118.089 525.156C117.492 524.559 117.156 523.749 117.156 522.904V514.959H117.161Z" fill="#66AF49"/>
<path d="M185.636 495.629V519.879C179.471 523.139 171.136 525.434 160.001 526.084C147.741 526.804 138.291 525.584 131.001 523.154V495.654C131.01 492.146 132.408 488.783 134.889 486.302C137.37 483.821 140.732 482.424 144.241 482.414H172.411C175.912 482.429 179.266 483.825 181.743 486.3C184.22 488.775 185.619 492.128 185.636 495.629Z" fill="#A7D157"/>
<path d="M180.121 449.594C183.128 449.594 185.566 447.157 185.566 444.149C185.566 441.142 183.128 438.704 180.121 438.704C177.114 438.704 174.676 441.142 174.676 444.149C174.676 447.157 177.114 449.594 180.121 449.594Z" fill="black"/>
<path d="M136.461 449.594C139.468 449.594 141.906 447.157 141.906 444.149C141.906 441.142 139.468 438.704 136.461 438.704C133.454 438.704 131.016 441.142 131.016 444.149C131.016 447.157 133.454 449.594 136.461 449.594Z" fill="black"/>
<path d="M103.011 489.614C103.011 489.614 96.2361 502.554 103.011 507.924C109.786 513.294 114.481 499.269 114.481 499.269L118.101 491.244L109.231 478.539C109.231 478.539 104.596 485.844 103.011 489.614Z" fill="#66AF49"/>
<path d="M153.266 449.614H166.001C166.619 449.612 167.228 449.767 167.77 450.062C168.313 450.358 168.772 450.786 169.106 451.306C169.439 451.827 169.636 452.423 169.678 453.04C169.72 453.656 169.606 454.273 169.346 454.834C168.016 457.659 165.276 460.579 159.636 460.579C153.996 460.579 151.251 457.659 149.921 454.834C149.661 454.273 149.547 453.656 149.589 453.04C149.631 452.423 149.828 451.827 150.161 451.306C150.495 450.786 150.954 450.358 151.497 450.062C152.04 449.767 152.648 449.612 153.266 449.614Z" fill="white"/>
<path d="M193.401 467.814C198.706 467.814 203.006 463.736 203.006 458.704C203.006 453.673 198.706 449.594 193.401 449.594C188.096 449.594 183.796 453.673 183.796 458.704C183.796 463.736 188.096 467.814 193.401 467.814Z" fill="#A7D157"/>
<path d="M125.866 467.814C131.171 467.814 135.471 463.736 135.471 458.704C135.471 453.673 131.171 449.594 125.866 449.594C120.562 449.594 116.261 453.673 116.261 458.704C116.261 463.736 120.562 467.814 125.866 467.814Z" fill="#A7D157"/>
<path d="M163.756 516.389C163.594 516.39 163.434 516.358 163.285 516.296C163.136 516.234 163 516.144 162.886 516.029L157.411 510.564C157.201 510.331 157.089 510.026 157.097 509.713C157.105 509.399 157.234 509.101 157.455 508.879C157.677 508.657 157.976 508.529 158.289 508.52C158.603 508.512 158.908 508.625 159.141 508.834L164.606 514.294C164.776 514.466 164.892 514.685 164.938 514.922C164.985 515.159 164.961 515.405 164.868 515.629C164.776 515.852 164.62 516.044 164.419 516.179C164.219 516.314 163.983 516.387 163.741 516.389H163.756Z" fill="#66AF49"/>
<path d="M158.291 516.389C158.13 516.39 157.971 516.359 157.822 516.297C157.674 516.235 157.539 516.144 157.426 516.029C157.312 515.915 157.221 515.78 157.16 515.631C157.098 515.482 157.066 515.323 157.066 515.162C157.066 515.001 157.098 514.841 157.16 514.692C157.221 514.543 157.312 514.408 157.426 514.294L162.911 508.834C163.14 508.604 163.452 508.475 163.777 508.474C163.938 508.474 164.097 508.505 164.246 508.567C164.394 508.628 164.53 508.718 164.644 508.832C164.757 508.945 164.848 509.08 164.91 509.229C164.971 509.377 165.003 509.537 165.004 509.697C165.004 509.858 164.972 510.018 164.911 510.166C164.85 510.315 164.76 510.45 164.646 510.564L159.181 516.029C159.065 516.147 158.926 516.239 158.773 516.301C158.62 516.363 158.456 516.393 158.291 516.389Z" fill="#66AF49"/>
<path fill-rule="evenodd" clip-rule="evenodd" d="M200.761 478.481C202.961 476.382 204.725 473.868 205.951 471.084V471.104C206.496 469.857 206.926 468.572 207.24 467.264C207.918 464.473 208.069 461.573 207.676 458.714C207.18 455.097 205.828 451.651 203.733 448.66C201.638 445.67 198.861 443.222 195.631 441.519L195.612 441.493C195.998 440.118 196.196 438.697 196.201 437.269C196.229 433.539 194.973 429.911 192.645 426.997C190.316 424.082 187.056 422.057 183.411 421.26C179.766 420.464 175.958 420.946 172.626 422.625C169.302 424.299 166.653 427.063 165.122 430.454H148.291C146.747 427.074 144.092 424.326 140.767 422.666C137.443 421.006 133.65 420.535 130.02 421.332C128.184 421.735 126.445 422.451 124.875 423.435C123.335 424.394 121.955 425.61 120.801 427.044C118.474 429.936 117.207 433.537 117.211 437.249C117.225 438.215 117.318 439.179 117.491 440.129C113.753 441.408 110.408 443.63 107.779 446.58C105.15 449.529 103.327 453.107 102.485 456.967C101.643 460.827 101.811 464.839 102.972 468.616C104.134 472.392 106.25 475.805 109.116 478.524C109.116 478.524 109.082 478.643 109.025 478.868C108.108 480.329 104.396 486.321 103.011 489.614C103.011 489.614 96.2361 502.554 103.011 507.924C106.199 510.451 108.926 508.684 110.921 506.104C112.352 509.228 114.365 512.267 117.156 514.998V522.904C117.156 523.749 117.492 524.559 118.089 525.156C118.686 525.754 119.497 526.089 120.341 526.089H129.586C130.431 526.089 131.241 525.754 131.838 525.156C132.249 524.746 132.536 524.234 132.675 523.68C137.818 525.195 143.967 526.134 151.322 526.272C154.046 526.323 156.935 526.264 160 526.084L200.761 478.481ZM200.761 478.481C201.253 479.187 205.794 485.726 207.452 489.214C207.452 489.214 214.817 501.839 208.288 507.509C204.929 510.426 201.89 508.187 199.731 505.325C198.223 508.708 195.987 512.012 192.745 514.959H192.787V522.684C192.787 523.587 192.428 524.453 191.789 525.092C191.151 525.73 190.285 526.089 189.382 526.089H179.507C178.604 526.089 177.737 525.73 177.099 525.092C176.67 524.663 176.367 524.132 176.215 523.555C173.395 524.341 170.285 524.977 166.86 525.436C164.701 525.725 162.417 525.943 160.001 526.084L200.761 478.481Z" fill="url(#paint1_linear_949_588)"/>
<path d="M89.2571 510.506L88.9712 510.562C92.9045 514.987 99.3515 516.55 106.095 515.082C115.602 513.006 122.084 505.679 120.008 496.166C117.932 486.653 109.445 484.754 99.9378 486.825C93.1947 488.298 87.528 490.337 85.7969 495.997C85.8924 495.968 85.9877 495.95 86.0831 495.926C90.0969 495.047 92.5574 497.665 93.4564 501.694C94.3553 505.723 93.2709 509.627 89.2571 510.506Z" fill="#F95A5A"/>
<path d="M116.836 496.328C116.127 494.02 114.783 491.958 112.956 490.378" stroke="white" stroke-width="4" stroke-linecap="round" stroke-linejoin="round"/>
<path d="M90.115 480.376C89.9801 480.375 89.8468 480.405 89.7258 480.465C89.6047 480.525 89.4992 480.612 89.4175 480.719C89.3359 480.826 89.2803 480.951 89.2553 481.084C89.2302 481.217 89.2363 481.353 89.2731 481.483L89.9095 483.703C90.4858 485.705 91.6983 487.465 93.3636 488.718C95.0289 489.97 97.0566 490.646 99.1402 490.644C99.5434 490.643 99.9409 490.548 100.301 490.367C100.662 490.186 100.975 489.924 101.217 489.602C101.459 489.279 101.623 488.905 101.696 488.508C101.768 488.112 101.748 487.704 101.636 487.316C101.057 485.333 99.8535 483.589 98.2037 482.345C96.5538 481.1 94.5461 480.422 92.4797 480.412L90.115 480.376Z" fill="#009056" stroke="#009056" stroke-miterlimit="10" stroke-linecap="round"/>
<path d="M274.75 451.386L150 385.636L112.5 481.498L191.745 512.698L274.75 451.386Z" fill="url(#paint2_linear_949_588)"/>
<path d="M274.521 451.323H193.431C192.5 451.323 191.746 452.077 191.746 453.008V512.702C191.746 513.633 192.5 514.387 193.431 514.387H274.521C275.452 514.387 276.206 513.633 276.206 512.702V453.008C276.206 452.077 275.452 451.323 274.521 451.323Z" fill="#136E90"/>
<path d="M273.695 514.383H178.56C177.629 514.383 176.875 515.137 176.875 516.068V518.803C176.875 519.734 177.629 520.488 178.56 520.488H273.695C274.626 520.488 275.38 519.734 275.38 518.803V516.068C275.38 515.137 274.626 514.383 273.695 514.383Z" fill="#015271"/>
<g filter="url(#filter0_d_949_588)">
<path d="M231.389 483.364V480.496L225.359 486.504L226.78 487.955L231.389 483.364ZM245.104 481.591C244.757 480.071 243.96 478.649 242.787 477.459L238.653 473.248L236.287 475.608L236.116 475.777V478.645L238.638 476.128L240.989 478.521L241.347 478.889L241.371 478.914C241.371 478.914 241.528 479.066 241.744 479.327C242.421 480.117 242.888 481.02 243.115 481.976C243.448 483.666 243.605 485.637 241.734 488.038V491C241.91 490.847 242.023 490.74 242.062 490.699C243.619 489.268 244.695 487.511 245.177 485.612C245.443 484.279 245.418 482.917 245.104 481.591ZM232.565 490.426L232.501 490.397H232.467C232.284 490.296 232.111 490.184 231.947 490.062C231.796 489.951 231.604 489.806 231.379 489.62C231.036 489.335 230.615 488.955 230.096 488.447L228.93 487.265L227.495 488.699L228.651 489.881C230.439 491.628 231.36 492.128 231.698 492.269C232.746 492.792 233.915 493.117 235.126 493.223C235.676 493.267 236.23 493.256 236.777 493.19H236.909V491.124C235.408 491.36 233.857 491.111 232.565 490.426Z" fill="white"/>
<path d="M235.103 476.798L235.083 489.046L232.394 489.042L232.409 479.484L232.678 479.211L232.825 479.066L233.638 478.257L234.191 477.707L234.368 477.529L234.921 476.98L235.103 476.798Z" fill="white"/>
<path d="M240.73 479.545V491.764L240.691 491.789L240.299 492.029L240.157 492.107C240.035 492.177 239.902 492.244 239.765 492.31C239.628 492.376 239.511 492.434 239.378 492.492L239.153 492.587L238.854 492.706L238.604 492.793C238.438 492.847 238.266 492.901 238.085 492.95L237.953 492.983V479.541L240.73 479.545Z" fill="white"/>
<path d="M235.106 482.786L235.102 485.559L237.958 485.562L237.962 482.789L235.106 482.786Z" fill="white"/>
</g>
</g>
<path d="M208.188 61.2722C208.478 61.1393 208.795 61.0759 209.114 61.087C209.433 61.0982 209.744 61.1836 210.024 61.3364C210.304 61.4893 210.545 61.7053 210.727 61.9675C210.908 62.2296 211.027 62.5305 211.072 62.8463L211.855 68.261C212.552 73.1456 211.64 78.1245 209.257 82.4448C206.873 86.7651 203.148 90.1918 198.644 92.2068C197.773 92.5961 196.823 92.7777 195.87 92.7371C194.917 92.6964 193.986 92.4348 193.152 91.9728C192.317 91.5108 191.601 90.8611 191.06 90.075C190.52 89.2888 190.169 88.3878 190.037 87.443C189.348 82.5893 190.248 77.6429 192.603 73.3433C194.958 69.0436 198.641 65.6216 203.102 63.5889L208.188 61.2722Z" fill="#367B55" stroke="#367B55" stroke-miterlimit="10" stroke-linecap="round"/>
<path d="M228.452 181.146C228.771 181.144 229.086 181.217 229.372 181.357C229.659 181.498 229.908 181.703 230.102 181.956C230.296 182.21 230.428 182.504 230.489 182.817C230.55 183.13 230.537 183.453 230.452 183.761L228.997 189.031C227.675 193.783 224.84 197.975 220.922 200.972C217.003 203.97 212.215 205.608 207.282 205.641H207.257C206.303 205.647 205.36 205.431 204.503 205.01C203.647 204.59 202.899 203.976 202.32 203.217C201.741 202.459 201.345 201.576 201.165 200.639C200.985 199.701 201.025 198.735 201.282 197.816C202.601 193.091 205.414 188.92 209.302 185.928C213.19 182.936 217.942 181.285 222.847 181.221L228.452 181.146Z" fill="#367B55"/>
<path d="M170.498 165.816C170.716 165.583 170.986 165.404 171.285 165.294C171.584 165.184 171.905 165.144 172.222 165.18C172.539 165.215 172.844 165.324 173.111 165.498C173.379 165.672 173.602 165.906 173.763 166.181L176.538 170.896C179.034 175.153 180.075 180.106 179.505 185.007C178.934 189.908 176.784 194.491 173.378 198.061C172.72 198.751 171.91 199.279 171.012 199.602C170.114 199.925 169.154 200.036 168.206 199.924C167.259 199.813 166.35 199.482 165.552 198.959C164.754 198.436 164.089 197.735 163.608 196.911C161.133 192.68 160.093 187.761 160.644 182.89C161.196 178.018 163.309 173.456 166.668 169.886L170.498 165.816Z" fill="#367B55" stroke="#367B55" stroke-miterlimit="10" stroke-linecap="round"/>
<path d="M54.5003 117.287C59.1079 119.049 63.0158 122.264 65.6322 126.446C68.2487 130.628 69.4311 135.548 69.0003 140.462C68.9166 141.413 68.6131 142.332 68.1139 143.146C67.6147 143.961 66.9333 144.648 66.1233 145.154C65.3134 145.66 64.3971 145.971 63.4465 146.063C62.4959 146.154 61.537 146.024 60.6453 145.682C56.3598 144.039 52.673 141.135 50.0711 137.354C47.4692 133.573 46.0743 129.092 46.0703 124.502C46.0703 123.887 46.1053 123.277 46.1503 122.652L46.5903 117.067C46.6165 116.748 46.7167 116.439 46.883 116.165C47.0492 115.891 47.2769 115.659 47.548 115.489C47.8192 115.318 48.1264 115.213 48.4453 115.181C48.7641 115.15 49.086 115.193 49.3853 115.307L54.5003 117.287Z" fill="#367B55" stroke="#367B55" stroke-miterlimit="10" stroke-linecap="round"/>
<path d="M19.2176 170.731C18.9511 170.909 18.7296 171.145 18.5704 171.423C18.4112 171.701 18.3187 172.012 18.3003 172.331C18.2819 172.651 18.338 172.97 18.4642 173.264C18.5904 173.559 18.7833 173.819 19.0276 174.026L23.1926 177.566C26.9555 180.759 31.6562 182.639 36.583 182.921C41.5098 183.204 46.3945 181.873 50.4976 179.131C51.2918 178.601 51.9519 177.894 52.4258 177.065C52.8997 176.236 53.1745 175.308 53.2283 174.355C53.2821 173.401 53.1136 172.449 52.736 171.572C52.3584 170.695 51.7821 169.917 51.0526 169.301C47.3102 166.13 42.6411 164.257 37.7448 163.962C32.8484 163.667 27.9884 164.967 23.8926 167.666L19.2176 170.731Z" fill="#367B55"/>
<path d="M273.34 95.9448C273.029 95.874 272.705 95.8769 272.395 95.9533C272.085 96.0298 271.797 96.1775 271.555 96.3849C271.312 96.5923 271.121 96.8535 270.997 97.1478C270.873 97.442 270.819 97.7612 270.84 98.0798L271.19 103.54C271.515 108.463 273.432 113.147 276.653 116.884C279.874 120.621 284.224 123.208 289.045 124.255C289.978 124.456 290.945 124.438 291.869 124.202C292.794 123.965 293.651 123.518 294.372 122.894C295.094 122.27 295.661 121.487 296.029 120.606C296.396 119.726 296.554 118.772 296.49 117.82C296.166 112.925 294.267 108.266 291.075 104.54C287.884 100.815 283.573 98.2219 278.785 97.1498L273.34 95.9448Z" fill="#367B55" stroke="#367B55" stroke-miterlimit="10" stroke-linecap="round"/>
<path d="M296.719 67.1369C294.885 71.7188 294.595 76.7736 295.891 81.5355C297.188 86.2975 300.001 90.5071 303.904 93.5269C304.659 94.1113 305.539 94.5125 306.476 94.6987C307.412 94.8849 308.379 94.8511 309.3 94.6C310.221 94.3489 311.071 93.8873 311.783 93.2517C312.496 92.616 313.05 91.8236 313.404 90.9369C315.229 86.3822 315.526 81.3584 314.251 76.6205C312.976 71.8825 310.198 67.6861 306.334 64.6619L301.929 61.1969C301.677 60.9993 301.382 60.863 301.068 60.7989C300.755 60.7347 300.43 60.7445 300.121 60.8275C299.811 60.9104 299.525 61.0642 299.285 61.2767C299.046 61.4893 298.859 61.7547 298.739 62.0519L296.719 67.1369Z" fill="#367B55" stroke="#367B55" stroke-miterlimit="10" stroke-linecap="round"/>
<path d="M378.297 117.287C373.69 119.049 369.783 122.265 367.166 126.446C364.55 130.628 363.367 135.548 363.797 140.462C363.88 141.413 364.183 142.332 364.682 143.146C365.18 143.96 365.861 144.648 366.671 145.154C367.481 145.66 368.397 145.971 369.347 146.063C370.297 146.154 371.256 146.024 372.147 145.682C376.433 144.039 380.12 141.135 382.721 137.354C385.323 133.573 386.718 129.092 386.722 124.502C386.722 123.887 386.687 123.277 386.642 122.652L386.202 117.067C386.176 116.748 386.076 116.439 385.91 116.165C385.743 115.891 385.516 115.659 385.245 115.489C384.973 115.318 384.666 115.213 384.347 115.181C384.028 115.15 383.707 115.193 383.407 115.307L378.297 117.287Z" fill="#367B55" stroke="#367B55" stroke-miterlimit="10" stroke-linecap="round"/>
<path d="M425.115 39.0416C425.42 39.1346 425.743 39.155 426.058 39.1011C426.373 39.0472 426.671 38.9205 426.928 38.7312C427.185 38.5418 427.394 38.295 427.539 38.0104C427.684 37.7258 427.76 37.4113 427.762 37.092L427.806 31.621C427.837 26.6874 426.262 21.8777 423.318 17.9185C420.374 13.9594 416.221 11.0658 411.488 9.67493C410.572 9.40715 409.607 9.35577 408.668 9.52484C407.728 9.69391 406.842 10.0788 406.077 10.6492C405.312 11.2196 404.69 11.9598 404.26 12.8116C403.83 13.6634 403.604 14.6034 403.599 15.5575C403.57 20.4631 405.13 25.2464 408.045 29.1921C410.96 33.1378 415.073 36.0341 419.771 37.4479L425.115 39.0416Z" fill="#367B55" stroke="#367B55" stroke-miterlimit="10" stroke-linecap="round"/>
<defs>
<filter id="filter0_d_949_588" x="223.359" y="471.248" width="24" height="24.0012" filterUnits="userSpaceOnUse" color-interpolation-filters="sRGB">
<feFlood flood-opacity="0" result="BackgroundImageFix"/>
<feColorMatrix in="SourceAlpha" type="matrix" values="0 0 0 0 0 0 0 0 0 0 0 0 0 0 0 0 0 0 127 0" result="hardAlpha"/>
<feOffset/>
<feGaussianBlur stdDeviation="1"/>
<feComposite in2="hardAlpha" operator="out"/>
<feColorMatrix type="matrix" values="0 0 0 0 1 0 0 0 0 1 0 0 0 0 1 0 0 0 0.4 0"/>
<feBlend mode="normal" in2="BackgroundImageFix" result="effect1_dropShadow_949_588"/>
<feBlend mode="normal" in="SourceGraphic" in2="effect1_dropShadow_949_588" result="shape"/>
</filter>
<linearGradient id="paint0_linear_949_588" x1="506.25" y1="39.886" x2="506.25" y2="829.886" gradientUnits="userSpaceOnUse">
<stop stop-color="#FFC53D"/>
<stop offset="1" stop-color="#FFC53D" stop-opacity="0"/>
</linearGradient>
<linearGradient id="paint1_linear_949_588" x1="193.5" y1="512.886" x2="144.5" y2="445.386" gradientUnits="userSpaceOnUse">
<stop stop-color="#A0FFE6"/>
<stop offset="1" stop-color="#66AF49" stop-opacity="0"/>
</linearGradient>
<linearGradient id="paint2_linear_949_588" x1="166.175" y1="430.973" x2="216.04" y2="495.618" gradientUnits="userSpaceOnUse">
<stop offset="0.25" stop-color="#96FFFF" stop-opacity="0"/>
<stop offset="1" stop-color="#96FFFF" stop-opacity="0.5"/>
</linearGradient>
<clipPath id="clip0_949_588">
<rect width="212.095" height="196.71" fill="white" transform="translate(82.0625 322.991)"/>
</clipPath>
</defs>
</svg>
