<svg width="90" height="41" viewBox="0 0 90 41" fill="none" xmlns="http://www.w3.org/2000/svg">
<g clip-path="url(#clip0)">
<path d="M83.6905 17.1C86.8505 14.49 87.3005 9.82001 84.6905 6.66001C83.2705 4.94001 81.1605 3.95001 78.9405 3.96001C78.7305 3.96001 78.5405 4.00001 78.3305 4.02001C77.1605 1.30001 74.4705 0.020009 71.4905 8.99122e-06C68.4105 8.99122e-06 65.6505 1.90001 64.5705 4.78001C63.2605 4.36001 61.8505 4.36001 60.5405 4.78001C59.0905 0.960009 54.8205 -0.969991 51.0005 0.480009C49.0305 1.23001 47.4605 2.78001 46.7105 4.75001C45.3905 4.36001 43.9905 4.37001 42.6705 4.78001C41.2205 0.960009 36.9505 -0.969991 33.1305 0.480009C31.1505 1.23001 29.5805 2.80001 28.8305 4.78001C27.5205 4.36001 26.1105 4.36001 24.8005 4.78001C23.7105 1.90001 20.9505 8.99122e-06 17.8705 8.99122e-06C14.8905 0.020009 12.2105 1.29001 11.0305 4.03001C10.8305 4.01001 10.6305 3.97001 10.4305 3.97001C6.33054 3.95001 3.00054 7.26001 2.98054 11.35C2.97054 13.57 3.96054 15.69 5.68054 17.1C2.14054 19.07 -0.0394588 22.81 0.000541171 26.85V38.22C0.000541171 39.04 0.670541 39.71 1.49054 40.21H87.8805C88.7005 39.71 89.3705 39.04 89.3705 38.22V26.85C89.4005 22.81 87.2205 19.07 83.6905 17.1ZM78.9405 6.95001C81.4105 6.95001 83.4105 8.95001 83.4105 11.42C83.4105 13.89 81.4105 15.89 78.9405 15.89C76.4705 15.89 74.4705 14.39 74.4705 11.92C74.4705 9.45001 76.4705 6.95001 78.9405 6.95001ZM71.4905 2.98001C73.1505 2.99001 74.6705 3.92001 75.4405 5.38001C73.0305 6.66001 71.5105 9.16001 71.5005 11.89C70.9805 11.89 70.4705 11.81 69.9805 11.64C69.9005 9.50001 68.8905 7.50001 67.2205 6.16001C67.7805 4.27001 69.5205 2.97001 71.4905 2.98001ZM62.5605 7.45001C65.0305 7.45001 67.0305 9.45001 67.0305 11.92C67.0305 14.39 65.0305 16.39 62.5605 16.39C60.0905 16.39 58.0905 14.39 58.0905 11.92C58.0905 9.45001 60.0905 7.45001 62.5605 7.45001ZM53.6205 2.98001C55.5905 2.97001 57.3305 4.27001 57.8905 6.16001C56.2305 7.50001 55.2305 9.48001 55.1405 11.61C54.1605 11.96 53.0905 11.96 52.1105 11.61C52.0205 9.47001 51.0205 7.47001 49.3505 6.12001C49.9205 4.25001 51.6605 2.97001 53.6205 2.98001ZM40.8405 9.62001C41.6505 8.27001 43.1005 7.44001 44.6805 7.45001C45.4805 7.45001 46.2705 7.67001 46.9505 8.08001C49.0605 9.34001 49.7505 12.08 48.4905 14.19C47.2305 16.3 44.4905 16.99 42.3805 15.73C40.2705 14.47 39.5805 11.73 40.8405 9.62001ZM35.7505 2.98001C37.7205 2.97001 39.4605 4.27001 40.0205 6.16001C38.3605 7.50001 37.3605 9.48001 37.2705 11.61C36.2905 11.96 35.2105 11.96 34.2305 11.61C34.1405 9.48001 33.1405 7.49001 31.4805 6.16001C32.0305 4.27001 33.7705 2.97001 35.7505 2.98001ZM26.8105 7.45001C29.2805 7.45001 31.2805 9.45001 31.2805 11.92C31.2805 14.39 29.2805 16.39 26.8105 16.39C24.3405 16.39 22.3405 14.39 22.3405 11.92C22.3405 9.45001 24.3405 7.45001 26.8105 7.45001ZM17.8705 2.98001C19.8405 2.97001 21.5805 4.27001 22.1405 6.16001C20.4705 7.50001 19.4605 9.50001 19.3805 11.64C18.8905 11.81 18.3805 11.9 17.8605 11.89C17.8405 9.16001 16.3305 6.16001 13.9205 4.88001C14.7005 3.42001 16.2105 2.99001 17.8705 2.98001ZM10.4305 6.95001C12.9005 6.95001 14.9005 8.95001 14.9005 11.42C14.9005 13.89 12.9005 15.89 10.4305 15.89C7.96054 15.89 5.96054 13.89 5.96054 11.42C5.96054 8.95001 7.96054 6.95001 10.4305 6.95001ZM16.3805 27.35V37.23L2.98054 36.73V26.85C2.84054 22.59 6.17054 19.02 10.4305 18.86C13.2705 18.91 15.8205 21.08 17.0105 23.66C16.6005 24.85 16.3905 26.1 16.3805 27.35ZM15.1705 17.11C16.0705 16.37 16.7905 15.93 17.2605 14.86C17.4605 14.88 17.6705 14.9 17.8705 14.9C18.5505 14.9 19.2305 14.8 19.8805 14.62C20.3405 15.78 21.0905 16.81 22.0505 17.61C20.7005 18.35 19.5205 19.37 18.6005 20.61C17.7005 19.36 16.5205 17.84 15.1705 17.11ZM34.2605 27.35V37.23H19.3605V27.35C19.2205 23.09 22.5505 19.52 26.8105 19.36C31.0705 19.52 34.4005 23.09 34.2605 27.35ZM31.5605 17.6C32.5205 16.8 33.2705 15.78 33.7305 14.61C35.0505 14.99 36.4405 14.99 37.7605 14.61C38.2205 15.77 38.9705 16.8 39.9305 17.6C38.1805 18.56 36.7305 19.99 35.7405 21.73C34.7605 19.99 33.3105 18.56 31.5605 17.6ZM52.1305 27.35V37.23H37.2405V27.35C37.1005 23.09 40.4305 19.52 44.6905 19.36C48.9405 19.52 52.2705 23.09 52.1305 27.35ZM49.4305 17.6C50.3905 16.8 51.1405 15.78 51.6005 14.61C52.9205 14.99 54.3105 14.99 55.6305 14.61C56.0905 15.77 56.8405 16.8 57.8005 17.6C56.0505 18.56 54.6005 19.99 53.6105 21.73C52.6405 19.99 51.1905 18.56 49.4305 17.6ZM70.0005 27.35V37.23H55.1105V27.35C54.8205 23.24 57.9205 19.67 62.0305 19.38C66.1405 19.09 69.7105 22.19 70.0005 26.31C70.0305 26.65 70.0305 27 70.0005 27.35ZM70.7505 20.6C69.8305 19.36 68.6605 18.34 67.3005 17.6C68.2605 16.8 69.0105 15.77 69.4705 14.61C70.1305 14.8 70.8005 14.89 71.4805 14.89C71.6805 14.89 71.8905 14.87 72.0905 14.85C72.5605 15.92 73.2805 16.86 74.1805 17.6C72.8405 18.34 71.6705 19.36 70.7505 20.6ZM86.3905 26.85V36.73L72.9805 37.23V27.35C72.9805 26.09 72.7705 24.85 72.3605 23.66C73.5505 21.08 76.1005 18.92 78.9405 18.86C83.2005 19.02 86.5205 22.59 86.3905 26.85Z" fill="#12A8B1"/>
</g>
<defs>
<clipPath id="clip0">
<rect width="89.37" height="40.22" fill="white"/>
</clipPath>
</defs>
</svg>
