<svg width="90" height="90" viewBox="0 0 90 90" fill="none" xmlns="http://www.w3.org/2000/svg">
<g clip-path="url(#clip0_949_214)">
<path d="M84.2805 66.3627C87.4628 63.7814 87.916 59.1627 85.2876 56.0374C83.8576 54.3363 81.7327 53.3572 79.497 53.3671C79.2855 53.3671 79.0942 53.4066 78.8827 53.4264C77.7045 50.7363 74.9955 49.4704 71.9945 49.4506C68.8928 49.4506 66.1133 51.3297 65.0257 54.1781C63.7065 53.7627 62.2866 53.7627 60.9673 54.1781C59.5071 50.4001 55.207 48.4913 51.3601 49.9253C49.3762 50.6671 47.7951 52.2001 47.0398 54.1484C45.7105 53.7627 44.3007 53.7726 42.9713 54.1781C41.5111 50.4001 37.211 48.4913 33.3641 49.9253C31.3701 50.6671 29.7891 52.2198 29.0338 54.1781C27.7146 53.7627 26.2946 53.7627 24.9754 54.1781C23.8777 51.3297 21.0982 49.4506 17.9965 49.4506C14.9955 49.4704 12.2966 50.7264 11.1083 53.4363C10.9069 53.4165 10.7055 53.377 10.5041 53.377C6.37518 53.3572 3.02171 56.6308 3.00157 60.6759C2.9915 62.8715 3.98847 64.9682 5.7206 66.3627C2.15565 68.311 -0.0397217 72.0099 0.000560245 76.0056V87.2506C0.000560245 88.0616 0.675283 88.7242 1.50106 89.2187H88.5C89.3258 88.7242 90.0006 88.0616 90.0006 87.2506V76.0056C90.0308 72.0099 87.8354 68.311 84.2805 66.3627ZM79.497 56.3242C81.9844 56.3242 83.9985 58.3023 83.9985 60.7451C83.9985 63.188 81.9844 65.166 79.497 65.166C77.0096 65.166 74.9955 63.6825 74.9955 61.2396C74.9955 58.7968 77.0096 56.3242 79.497 56.3242ZM71.9945 52.3979C73.6662 52.4077 75.1969 53.3275 75.9724 54.7715C73.5454 56.0374 72.0146 58.5099 72.0046 61.2099C71.4809 61.2099 70.9673 61.1308 70.4739 60.9627C70.3933 58.8462 69.3762 56.8682 67.6944 55.5429C68.2584 53.6737 70.0106 52.388 71.9945 52.3979ZM63.0016 56.8187C65.489 56.8187 67.5031 58.7968 67.5031 61.2396C67.5031 63.6825 65.489 65.6605 63.0016 65.6605C60.5141 65.6605 58.5 63.6825 58.5 61.2396C58.5 58.7968 60.5141 56.8187 63.0016 56.8187ZM53.9985 52.3979C55.9824 52.388 57.7347 53.6737 58.2986 55.5429C56.6269 56.8682 55.6199 58.8264 55.5293 60.933C54.5423 61.2792 53.4648 61.2792 52.4779 60.933C52.3873 58.8165 51.3802 56.8385 49.6984 55.5034C50.2725 53.6539 52.0247 52.388 53.9985 52.3979ZM41.1285 58.9649C41.9442 57.6297 43.4044 56.8088 44.9955 56.8187C45.8012 56.8187 46.5967 57.0363 47.2815 57.4418C49.4064 58.688 50.1013 61.3979 48.8324 63.4847C47.5635 65.5715 44.8042 66.2539 42.6793 65.0077C40.5544 63.7616 39.8596 61.0517 41.1285 58.9649ZM36.0026 52.3979C37.9865 52.388 39.7387 53.6737 40.3027 55.5429C38.631 56.8682 37.6239 58.8264 37.5333 60.933C36.5464 61.2792 35.4588 61.2792 34.4719 60.933C34.3812 58.8264 33.3742 56.8583 31.7025 55.5429C32.2563 53.6737 34.0086 52.388 36.0026 52.3979ZM26.9995 56.8187C29.487 56.8187 31.5011 58.7968 31.5011 61.2396C31.5011 63.6825 29.487 65.6605 26.9995 65.6605C24.5121 65.6605 22.498 63.6825 22.498 61.2396C22.498 58.7968 24.5121 56.8187 26.9995 56.8187ZM17.9965 52.3979C19.9804 52.388 21.7327 53.6737 22.2966 55.5429C20.6149 56.8682 19.5977 58.8462 19.5172 60.9627C19.0237 61.1308 18.5101 61.2198 17.9865 61.2099C17.9663 58.5099 16.4457 55.5429 14.0187 54.277C14.8042 52.833 16.3248 52.4077 17.9965 52.3979ZM10.5041 56.3242C12.9915 56.3242 15.0056 58.3023 15.0056 60.7451C15.0056 63.188 12.9915 65.166 10.5041 65.166C8.01667 65.166 6.00257 63.188 6.00257 60.7451C6.00257 58.3023 8.01667 56.3242 10.5041 56.3242ZM16.496 76.5001V86.2715L3.00157 85.777V76.0056C2.86058 71.7924 6.21405 68.2616 10.5041 68.1034C13.3641 68.1528 15.9321 70.299 17.1305 72.8506C16.7176 74.0275 16.5061 75.2638 16.496 76.5001ZM15.2775 66.3726C16.1838 65.6407 16.9089 65.2056 17.3822 64.1473C17.5836 64.1671 17.7951 64.1869 17.9965 64.1869C18.6813 64.1869 19.3661 64.088 20.0207 63.9099C20.4839 65.0572 21.2392 66.0759 22.206 66.8671C20.8465 67.599 19.6582 68.6078 18.7317 69.8341C17.8253 68.5979 16.637 67.0946 15.2775 66.3726ZM34.5021 76.5001V86.2715H19.497V76.5001C19.356 72.2869 22.7095 68.7561 26.9995 68.5979C31.2896 68.7561 34.6431 72.2869 34.5021 76.5001ZM31.783 66.8572C32.7498 66.066 33.5051 65.0572 33.9683 63.9001C35.2976 64.2759 36.6974 64.2759 38.0267 63.9001C38.49 65.0473 39.2453 66.066 40.212 66.8572C38.4497 67.8067 36.9895 69.2209 35.9925 70.9418C35.0056 69.2209 33.5454 67.8067 31.783 66.8572ZM52.498 76.5001V86.2715H37.5031V76.5001C37.3621 72.2869 40.7156 68.7561 45.0056 68.5979C49.2855 68.7561 52.639 72.2869 52.498 76.5001ZM49.779 66.8572C50.7458 66.066 51.5011 65.0572 51.9643 63.9001C53.2936 64.2759 54.6934 64.2759 56.0227 63.9001C56.486 65.0473 57.2412 66.066 58.208 66.8572C56.4457 67.8067 54.9854 69.2209 53.9885 70.9418C53.0116 69.2209 51.5514 67.8067 49.779 66.8572ZM70.494 76.5001V86.2715H55.499V76.5001C55.207 72.4352 58.3288 68.9045 62.4678 68.6176C66.6068 68.3308 70.202 71.3968 70.494 75.4715C70.5242 75.8078 70.5242 76.1539 70.494 76.5001ZM71.2493 69.8242C70.3228 68.5979 69.1446 67.5891 67.775 66.8572C68.7417 66.066 69.497 65.0473 69.9603 63.9001C70.6249 64.088 71.2996 64.177 71.9844 64.177C72.1859 64.177 72.3973 64.1572 72.5987 64.1374C73.072 65.1957 73.7971 66.1253 74.7035 66.8572C73.354 67.5891 72.1758 68.5979 71.2493 69.8242ZM86.9995 76.0056V85.777L73.495 86.2715V76.5001C73.495 75.2539 73.2835 74.0275 72.8706 72.8506C74.069 70.299 76.637 68.1627 79.497 68.1034C83.7871 68.2616 87.1305 71.7924 86.9995 76.0056Z" fill="#35B1D1"/>
</g>
<defs>
<clipPath id="clip0_949_214">
<rect width="90.0009" height="90" fill="white"/>
</clipPath>
</defs>
</svg>
