<svg width="601" height="764" viewBox="0 0 601 764" fill="none" xmlns="http://www.w3.org/2000/svg">
<path d="M206.189 596.539H24.014C20.877 596.585 17.7622 596.007 14.8508 594.838C11.9394 593.669 9.28937 591.933 7.05487 589.73C4.82037 587.528 3.04597 584.904 1.83484 582.009C0.623708 579.115 0 576.009 0 572.872C0 569.735 0.623708 566.629 1.83484 563.734C3.04597 560.84 4.82037 558.216 7.05487 556.014C9.28937 553.811 11.9394 552.075 14.8508 550.906C17.7622 549.737 20.877 549.159 24.014 549.204H206.189C224.459 549.204 239.894 537.764 239.894 524.204V488.974C239.984 482.757 242.518 476.825 246.946 472.46C251.375 468.095 257.343 465.648 263.562 465.648C269.78 465.648 275.748 468.095 280.177 472.46C284.605 476.825 287.139 482.757 287.229 488.974V524.204C287.229 543.974 278.054 563.094 262.064 576.654C246.954 589.474 227.114 596.539 206.189 596.539Z" fill="#173A52"/>
<path d="M294.069 337.695C294.069 337.695 286.364 349.405 292.324 355.195C298.284 360.985 304.094 347.975 304.094 347.975L308.319 340.66L301.064 327.685C301.064 327.685 295.939 334.25 294.069 337.695Z" fill="#EEEEEE"/>
<path d="M382.954 379.32H373.689C372.781 379.32 371.91 378.959 371.267 378.317C370.625 377.675 370.264 376.804 370.264 375.895V368.84H386.404V375.895C386.404 376.347 386.315 376.795 386.141 377.212C385.967 377.629 385.713 378.008 385.392 378.326C385.071 378.644 384.691 378.896 384.272 379.067C383.854 379.237 383.406 379.324 382.954 379.32Z" fill="white"/>
<path d="M316.824 379.32H307.779C307.34 379.32 306.905 379.234 306.499 379.065C306.093 378.897 305.724 378.651 305.414 378.34C305.103 378.03 304.857 377.661 304.689 377.255C304.521 376.849 304.434 376.414 304.434 375.975V368.835H320.164V375.975C320.164 376.861 319.812 377.711 319.186 378.339C318.56 378.966 317.71 379.319 316.824 379.32V379.32Z" fill="#EEEEEE"/>
<path d="M365.634 280.03C353.07 276.421 339.747 276.404 327.174 279.98L327.064 280.01C321.552 281.572 316.55 284.562 312.563 288.677C308.576 292.792 305.746 297.886 304.359 303.445C301.719 314.065 299.069 348.23 299.069 358.36C299.069 358.36 297.754 379.325 346.304 379.325C394.854 379.325 393.399 358.36 393.399 358.36C393.399 358.36 393.399 343.745 393.024 337.4C392.524 328.635 391.254 315.655 388.289 303.555C386.914 297.991 384.095 292.889 380.117 288.763C376.14 284.637 371.144 281.633 365.634 280.055V280.03Z" fill="#F1F1F1"/>
<path d="M365.634 280.03C353.07 276.421 339.747 276.404 327.174 279.98L327.064 280.01C321.552 281.572 316.55 284.562 312.563 288.677C308.576 292.792 305.746 297.886 304.359 303.445C301.719 314.065 299.069 348.23 299.069 358.36C299.069 358.36 297.754 379.325 346.304 379.325C394.854 379.325 393.399 358.36 393.399 358.36C393.399 358.36 393.399 343.745 393.024 337.4C392.524 328.635 391.254 315.655 388.289 303.555C386.914 297.991 384.095 292.889 380.117 288.763C376.14 284.637 371.144 281.633 365.634 280.055V280.03Z" fill="white"/>
<path d="M363.329 329.27H370.994C373.234 329.27 375.049 327.455 375.049 325.215V322.825C375.049 320.586 373.234 318.77 370.994 318.77H363.329C361.09 318.77 359.274 320.586 359.274 322.825V325.215C359.274 327.455 361.09 329.27 363.329 329.27Z" fill="#F7D3D2"/>
<path d="M307.719 329.27H315.384C317.624 329.27 319.439 327.455 319.439 325.215V322.825C319.439 320.586 317.624 318.77 315.384 318.77H307.719C305.48 318.77 303.664 320.586 303.664 322.825V325.215C303.664 327.455 305.48 329.27 307.719 329.27Z" fill="#F7D3D2"/>
<path d="M318.264 316.42C321.15 316.42 323.489 314.081 323.489 311.195C323.489 308.31 321.15 305.97 318.264 305.97C315.378 305.97 313.039 308.31 313.039 311.195C313.039 314.081 315.378 316.42 318.264 316.42Z" fill="black"/>
<path d="M360.204 316.42C363.09 316.42 365.429 314.081 365.429 311.195C365.429 308.31 363.09 305.97 360.204 305.97C357.318 305.97 354.979 308.31 354.979 311.195C354.979 314.081 357.318 316.42 360.204 316.42Z" fill="black"/>
<path d="M356.629 281.605C355.806 281.402 355.094 280.885 354.645 280.166C354.195 279.446 354.045 278.579 354.224 277.75C355.649 271.25 359.724 256.96 367.949 258.135C377.629 259.52 372.649 275.515 370.209 282.005C369.913 282.744 369.363 283.353 368.659 283.724C367.955 284.095 367.141 284.204 366.364 284.03L356.629 281.605Z" fill="#F7D3D2"/>
<path d="M367.104 287.06C368.369 287.059 369.604 286.676 370.648 285.963C371.693 285.249 372.498 284.238 372.959 283.06C375.789 275.56 378.459 265.365 374.959 259.515C374.265 258.341 373.307 257.344 372.162 256.603C371.017 255.862 369.715 255.397 368.359 255.245C360.729 254.145 354.689 261.925 351.359 277.14C351.007 278.718 351.288 280.371 352.142 281.743C352.995 283.116 354.353 284.099 355.924 284.48V284.48L365.659 286.9C366.133 287.012 366.618 287.066 367.104 287.06V287.06ZM367.059 261.01C367.218 261.012 367.377 261.024 367.534 261.045C369.004 261.255 369.579 261.925 369.909 262.49C371.609 265.36 370.669 272.44 367.454 280.99C367.412 281.053 367.356 281.104 367.29 281.14C367.223 281.176 367.149 281.195 367.074 281.195L357.339 278.775C357.258 278.756 357.187 278.706 357.142 278.637C357.096 278.567 357.079 278.482 357.094 278.4C358.884 270.245 362.539 261.01 367.059 261.01V261.01Z" fill="white"/>
<path d="M334.429 282.3C335.253 282.097 335.964 281.58 336.412 280.86C336.861 280.14 337.01 279.274 336.829 278.445C335.404 271.945 331.329 257.655 323.104 258.83C313.429 260.215 318.404 276.21 320.849 282.7C321.135 283.446 321.683 284.061 322.392 284.43C323.101 284.799 323.92 284.895 324.694 284.7L334.429 282.3Z" fill="#F7D3D2"/>
<path d="M323.904 287.76C324.41 287.762 324.913 287.701 325.404 287.58L335.139 285.155C336.711 284.775 338.07 283.792 338.923 282.419C339.777 281.046 340.058 279.393 339.704 277.815C336.359 262.605 330.324 254.815 322.704 255.92C321.348 256.072 320.045 256.537 318.899 257.278C317.753 258.019 316.795 259.016 316.099 260.19C312.639 266.04 315.284 276.225 318.099 283.735C318.543 284.916 319.337 285.934 320.374 286.653C321.411 287.373 322.642 287.759 323.904 287.76V287.76ZM323.999 261.705C328.499 261.705 332.169 270.94 333.959 279.075C333.974 279.156 333.958 279.241 333.913 279.31C333.869 279.38 333.799 279.43 333.719 279.45L323.984 281.87C323.906 281.891 323.823 281.881 323.751 281.843C323.68 281.805 323.625 281.742 323.599 281.665C320.389 273.135 319.449 266.055 321.144 263.165C321.479 262.605 322.049 261.93 323.524 261.72C323.682 261.705 323.841 261.7 323.999 261.705V261.705Z" fill="white"/>
<path d="M320.979 374.745H357.484C361.869 374.745 365.424 371.19 365.424 366.805V345.335C365.424 340.95 361.869 337.395 357.484 337.395H320.979C316.594 337.395 313.039 340.95 313.039 345.335V366.805C313.039 371.19 316.594 374.745 320.979 374.745Z" fill="#F3F3F3"/>
<path d="M399.534 340.19C399.534 340.19 407.219 351.92 401.244 357.69C395.269 363.46 389.489 350.475 389.489 350.475L385.279 343.155L392.559 330.195C392.559 330.195 397.674 336.745 399.534 340.19Z" fill="white"/>
<path d="M334.039 370.02C334.193 370.02 334.346 369.99 334.489 369.931C334.631 369.871 334.76 369.785 334.869 369.675L340.109 364.435C340.33 364.214 340.454 363.915 340.454 363.603C340.454 363.29 340.33 362.991 340.109 362.77C339.888 362.549 339.589 362.425 339.277 362.425C338.964 362.425 338.665 362.549 338.444 362.77L333.204 368.01C333.044 368.176 332.936 368.385 332.893 368.611C332.85 368.838 332.875 369.072 332.964 369.285C333.052 369.498 333.202 369.68 333.393 369.809C333.584 369.937 333.809 370.008 334.039 370.01V370.02Z" fill="#F7D3D2"/>
<path d="M339.279 370.02C339.509 370.017 339.733 369.946 339.924 369.816C340.114 369.687 340.263 369.505 340.351 369.293C340.439 369.08 340.463 368.846 340.42 368.62C340.377 368.394 340.269 368.186 340.109 368.02L334.869 362.78C334.648 362.559 334.349 362.435 334.037 362.435C333.724 362.435 333.425 362.559 333.204 362.78C332.983 363.001 332.859 363.3 332.859 363.613C332.859 363.925 332.983 364.224 333.204 364.445L338.444 369.685C338.555 369.793 338.685 369.878 338.828 369.936C338.972 369.993 339.125 370.022 339.279 370.02V370.02Z" fill="#F7D3D2"/>
<path d="M337.184 317.975L343.154 314.935C343.292 314.865 343.414 314.768 343.514 314.651C343.615 314.533 343.691 314.397 343.738 314.25C343.786 314.103 343.804 313.948 343.792 313.794C343.779 313.64 343.737 313.49 343.667 313.353C343.596 313.215 343.5 313.093 343.382 312.993C343.265 312.892 343.129 312.816 342.982 312.769C342.835 312.721 342.68 312.703 342.526 312.715C342.372 312.727 342.222 312.77 342.084 312.84L337.169 315.34L331.804 312.675C331.666 312.606 331.516 312.565 331.361 312.554C331.207 312.544 331.053 312.563 330.906 312.612C330.76 312.661 330.624 312.739 330.508 312.84C330.391 312.941 330.296 313.064 330.227 313.203C330.158 313.341 330.117 313.491 330.106 313.645C330.095 313.8 330.115 313.954 330.164 314.101C330.213 314.247 330.29 314.383 330.391 314.499C330.493 314.616 330.616 314.711 330.754 314.78L337.184 317.975Z" fill="#F7D3D2"/>
<path d="M340.679 324.835C341.887 324.872 343.066 324.465 343.994 323.69C344.111 323.589 344.207 323.467 344.277 323.329C344.347 323.191 344.389 323.04 344.4 322.886C344.412 322.732 344.393 322.577 344.345 322.43C344.297 322.283 344.22 322.147 344.119 322.03C344.018 321.913 343.895 321.817 343.757 321.747C343.619 321.677 343.469 321.636 343.315 321.624C343.161 321.612 343.006 321.631 342.859 321.679C342.712 321.728 342.576 321.804 342.459 321.905C341.958 322.312 341.324 322.519 340.679 322.485C338.554 322.485 338.359 320.8 338.349 320.285V316.665C338.349 316.354 338.225 316.055 338.005 315.834C337.785 315.614 337.486 315.49 337.174 315.49C336.862 315.49 336.563 315.614 336.343 315.834C336.123 316.055 335.999 316.354 335.999 316.665V320.29C336.021 321.067 336.215 321.829 336.569 322.52C337.344 324.015 338.804 324.835 340.679 324.835Z" fill="#F7D3D2"/>
<path d="M333.419 324.835C336.979 324.835 338.319 322.13 338.349 320.335C338.354 320.023 338.236 319.721 338.019 319.496C337.803 319.272 337.506 319.142 337.194 319.135C336.886 319.135 336.589 319.254 336.366 319.467C336.144 319.681 336.012 319.972 335.999 320.28C335.999 320.78 335.734 322.505 333.419 322.505C332.773 322.548 332.135 322.348 331.629 321.945C331.515 321.842 331.381 321.762 331.235 321.71C331.09 321.658 330.936 321.636 330.782 321.644C330.627 321.652 330.476 321.69 330.337 321.756C330.197 321.822 330.072 321.915 329.969 322.03C329.866 322.145 329.786 322.278 329.734 322.424C329.682 322.569 329.66 322.724 329.668 322.878C329.676 323.032 329.714 323.183 329.78 323.322C329.846 323.462 329.94 323.587 330.054 323.69C330.99 324.485 332.193 324.894 333.419 324.835V324.835Z" fill="#F7D3D2"/>
<path fill-rule="evenodd" clip-rule="evenodd" d="M372.951 283.06C372.94 283.088 372.929 283.116 372.918 283.144C375.556 284.664 377.979 286.552 380.11 288.763C384.088 292.889 386.907 297.991 388.282 303.555C390.522 312.695 391.794 322.338 392.498 330.286L392.55 330.195C392.55 330.195 397.665 336.745 399.525 340.19C399.525 340.19 407.21 351.92 401.235 357.69C398.369 360.458 395.548 358.911 393.388 356.552C393.392 357.681 393.392 358.36 393.392 358.36C393.392 358.36 393.823 364.567 386.395 370.226V375.895C386.395 376.347 386.305 376.795 386.132 377.212C385.958 377.629 385.703 378.008 385.383 378.326C385.062 378.644 384.681 378.896 384.263 379.067C383.844 379.237 383.396 379.324 382.945 379.32H373.68C372.771 379.32 371.9 378.959 371.258 378.317C370.886 377.945 370.609 377.497 370.441 377.01C364.225 378.43 356.329 379.325 346.297 379.325C335.144 379.325 326.623 378.219 320.113 376.514C320.001 377.201 319.676 377.84 319.178 378.339C318.552 378.966 317.703 379.319 316.816 379.32H307.771C307.332 379.32 306.897 379.234 306.491 379.066C306.085 378.898 305.717 378.651 305.406 378.341C305.095 378.03 304.849 377.661 304.681 377.255C304.513 376.85 304.426 376.415 304.426 375.975V368.835H304.465C298.734 363.596 299.062 358.36 299.062 358.36C299.062 357.449 299.084 356.343 299.124 355.078C297.133 356.797 294.737 357.547 292.316 355.195C286.356 349.405 294.061 337.695 294.061 337.695C295.849 334.402 300.61 328.259 301.027 327.723C301.976 317.753 303.165 308.22 304.352 303.445C305.739 297.886 308.569 292.792 312.556 288.677C314.266 286.911 316.164 285.353 318.208 284.026C318.167 283.93 318.127 283.833 318.091 283.735C315.276 276.225 312.631 266.04 316.091 260.19C316.786 259.016 317.745 258.019 318.891 257.278C320.037 256.537 321.339 256.072 322.696 255.92C330.284 254.82 336.301 262.541 339.654 277.628C343.521 277.258 347.412 277.212 351.284 277.488C351.303 277.371 351.326 277.256 351.351 277.14C354.681 261.925 360.721 254.145 368.351 255.245C369.707 255.397 371.009 255.862 372.154 256.603C373.299 257.344 374.257 258.341 374.951 259.515C378.451 265.365 375.781 275.56 372.951 283.06Z" fill="url(#paint0_linear_977_334)"/>
<path d="M221.18 297.915L294.459 278.695L367.738 259.475L434.488 335.475L303.95 359.29L221.18 297.915Z" fill="url(#paint1_linear_977_334)"/>
<path d="M223.022 360.574H304.112C305.042 360.574 305.797 359.82 305.797 358.889V299.194C305.797 298.264 305.042 297.509 304.112 297.509H223.022C222.091 297.509 221.337 298.264 221.337 299.194V358.889C221.337 359.82 222.091 360.574 223.022 360.574Z" fill="#136E90"/>
<path d="M223.844 366.676H318.979C319.91 366.676 320.664 365.921 320.664 364.991V362.256C320.664 361.325 319.91 360.571 318.979 360.571H223.844C222.913 360.571 222.159 361.325 222.159 362.256V364.991C222.159 365.921 222.913 366.676 223.844 366.676Z" fill="#015271"/>
<g filter="url(#filter0_d_977_334)">
<path d="M256.625 330.453V327.584L250.594 333.594L252.011 335.049L256.625 330.453ZM270.353 328.68C270.011 327.158 269.212 325.735 268.034 324.546L263.896 320.334L261.528 322.702L261.361 322.872V325.741L263.886 323.223L266.24 325.621L266.598 325.984V326.009C266.733 326.141 266.859 326.279 266.975 326.423C267.651 327.213 268.118 328.117 268.343 329.072C268.677 330.763 268.833 332.734 266.96 335.136V338.104C267.077 338.007 267.186 337.905 267.289 337.798C268.845 336.367 269.917 334.609 270.393 332.71C270.673 331.376 270.66 330.009 270.353 328.68ZM257.801 337.521L257.738 337.488H257.708C257.521 337.391 257.345 337.279 257.184 337.153C257.032 337.042 256.84 336.897 256.615 336.711C256.276 336.426 255.85 336.045 255.33 335.537L254.173 334.342L252.732 335.773L253.889 336.955C255.678 338.707 256.6 339.208 256.938 339.344C257.988 339.866 259.159 340.192 260.371 340.299C260.918 340.348 261.471 340.346 262.018 340.291H262.15V338.224C260.648 338.457 259.096 338.206 257.801 337.521Z" fill="white"/>
<path d="M260.339 323.885L260.325 336.136L257.633 336.132L257.643 326.571L257.917 326.303L258.059 326.158L258.873 325.344L259.427 324.794L259.609 324.616L260.339 323.885Z" fill="white"/>
<path d="M265.971 326.65V338.877L265.937 338.898C265.81 338.976 265.682 339.059 265.54 339.137L265.403 339.216L265.01 339.423L264.618 339.605L264.398 339.7L264.094 339.815L263.843 339.902C263.677 339.96 263.505 340.01 263.324 340.059L263.191 340.092V326.646L265.971 326.65Z" fill="white"/>
<path d="M260.363 329.881L260.359 332.654L263.218 332.657L263.222 329.883L260.363 329.881Z" fill="white"/>
</g>
<path d="M417.032 365.625H184.482C162.189 365.625 144.117 383.697 144.117 405.99V456.269C144.117 478.562 162.189 496.634 184.482 496.634H417.032C439.325 496.634 457.397 478.562 457.397 456.269V405.99C457.397 383.697 439.325 365.625 417.032 365.625Z" fill="#275C40"/>
<path d="M457.402 405.975V456.255C457.416 465.817 454.019 475.071 447.822 482.355V420.24C447.822 409.534 443.57 399.267 436 391.697C428.43 384.127 418.163 379.875 407.457 379.875H153.707C157.492 375.403 162.208 371.812 167.524 369.351C172.84 366.89 178.629 365.618 184.487 365.625H417.037C427.74 365.626 438.004 369.877 445.573 377.443C453.142 385.01 457.397 395.272 457.402 405.975Z" fill="#367B55"/>
<path d="M202.713 344.032C202.713 344.032 202.373 361.048 212.408 369.253C222.443 377.457 239.053 373.742 239.053 373.742C239.053 373.742 239.549 356.534 229.514 348.33C219.479 340.126 202.713 344.032 202.713 344.032Z" fill="#367B55"/>
<path d="M261.929 348.47C261.929 348.47 250.863 346.422 244.433 352.089C238.004 357.755 238.644 368.991 238.644 368.991C238.644 368.991 249.818 371.162 256.248 365.495C262.678 359.829 261.929 348.47 261.929 348.47Z" fill="#367B55"/>
<path opacity="0.5" d="M43.4924 99.9741L43.7237 141.893C43.7365 144.208 44.5523 146.448 46.0319 148.229L485.339 676.98C487.184 679.201 489.898 680.515 492.784 680.587L576.059 682.642C584.972 682.862 589.695 672.19 583.539 665.74L43.4924 99.9741Z" fill="url(#paint2_linear_977_334)"/>
<defs>
<filter id="filter0_d_977_334" x="248.594" y="318.334" width="24" height="24" filterUnits="userSpaceOnUse" color-interpolation-filters="sRGB">
<feFlood flood-opacity="0" result="BackgroundImageFix"/>
<feColorMatrix in="SourceAlpha" type="matrix" values="0 0 0 0 0 0 0 0 0 0 0 0 0 0 0 0 0 0 127 0" result="hardAlpha"/>
<feOffset/>
<feGaussianBlur stdDeviation="1"/>
<feComposite in2="hardAlpha" operator="out"/>
<feColorMatrix type="matrix" values="0 0 0 0 1 0 0 0 0 1 0 0 0 0 1 0 0 0 0.4 0"/>
<feBlend mode="normal" in2="BackgroundImageFix" result="effect1_dropShadow_977_334"/>
<feBlend mode="normal" in="SourceGraphic" in2="effect1_dropShadow_977_334" result="shape"/>
</filter>
<linearGradient id="paint0_linear_977_334" x1="304.984" y1="364.475" x2="346.734" y2="302.725" gradientUnits="userSpaceOnUse">
<stop stop-color="#A0FFE6"/>
<stop offset="1" stop-color="white" stop-opacity="0"/>
</linearGradient>
<linearGradient id="paint1_linear_977_334" x1="329.52" y1="277.565" x2="279.655" y2="342.21" gradientUnits="userSpaceOnUse">
<stop offset="0.25" stop-color="white" stop-opacity="0"/>
<stop offset="1" stop-color="#96FFFF" stop-opacity="0.5"/>
</linearGradient>
<linearGradient id="paint2_linear_977_334" x1="185.001" y1="-471.946" x2="389.958" y2="667.09" gradientUnits="userSpaceOnUse">
<stop stop-color="#FFC53D"/>
<stop offset="1" stop-color="#FFC53D" stop-opacity="0"/>
</linearGradient>
</defs>
</svg>
