<svg width="127" height="118" viewBox="0 0 127 118" fill="none" xmlns="http://www.w3.org/2000/svg">
<path d="M36.1219 7.07828C36.1219 7.07828 21.7519 5.35828 19.1719 13.5083C16.5919 21.6583 31.2419 21.0633 31.2419 21.0633L39.9469 21.5983L48.5869 8.91327C48.5869 8.91327 40.1719 7.21828 36.1219 7.07828Z" fill="#EAD576"/>
<path d="M29.3036 89.7228L41.0602 113.282C41.3784 113.92 42.153 114.179 42.7905 113.861L46.0833 112.217C46.7208 111.899 46.9797 111.125 46.6616 110.487L34.9049 86.9276C34.5868 86.2902 33.8122 86.0312 33.1747 86.3494L29.8819 87.9925C29.2444 88.3106 28.9855 89.0853 29.3036 89.7228Z" fill="#F4BD61"/>
<path d="M0.575962 32.1426L12.0446 55.125C12.3627 55.7625 13.1374 56.0214 13.7749 55.7033L17.0677 54.0601C17.7052 53.742 17.9641 52.9673 17.6459 52.3299L6.1773 29.3475C5.85918 28.71 5.0845 28.4511 4.44702 28.7692L1.15423 30.4124C0.516749 30.7305 0.257846 31.5052 0.575962 32.1426Z" fill="#F4BD61"/>
<path d="M122.377 46.6132C119.919 33.3433 113.794 21.0267 104.697 11.0582L104.617 10.9682C100.633 6.59622 95.5649 3.35351 89.9259 1.56778C84.2868 -0.217964 78.2763 -0.48343 72.5018 0.798214C61.5018 3.25821 28.6918 16.5532 19.3318 21.2232C19.3318 21.2232 -0.638239 29.6732 21.7418 74.5232C44.1218 119.373 62.8118 108.363 62.8118 108.363C62.8118 108.363 76.3118 101.628 82.0018 98.3631C89.8618 93.8631 101.277 86.7081 111.087 78.3932C115.599 74.56 119.018 69.6037 121.001 64.0252C122.983 58.4468 123.458 52.4438 122.377 46.6232V46.6132Z" fill="#F1F1F1"/>
<g filter="url(#filter0_d_977_402)">
<path d="M122.377 46.6132C119.919 33.3433 113.794 21.0267 104.697 11.0582L104.617 10.9682C100.633 6.59622 95.5649 3.35351 89.9259 1.56778C84.2868 -0.217964 78.2763 -0.48343 72.5018 0.798214C61.5018 3.25821 28.6918 16.5532 19.3318 21.2232C19.3318 21.2232 -0.638239 29.6732 21.7418 74.5232C44.1218 119.373 62.8118 108.363 62.8118 108.363C62.8118 108.363 76.3118 101.628 82.0018 98.3631C89.8618 93.8631 101.277 86.7081 111.087 78.3932C115.599 74.56 119.018 69.6037 121.001 64.0252C122.983 58.4468 123.458 52.4438 122.377 46.6232V46.6132Z" fill="#F9E37E"/>
</g>
<path d="M71.7518 22.6032C74.7286 22.6032 77.1418 20.19 77.1418 17.2132C77.1418 14.2364 74.7286 11.8232 71.7518 11.8232C68.775 11.8232 66.3618 14.2364 66.3618 17.2132C66.3618 20.19 68.775 22.6032 71.7518 22.6032Z" fill="black"/>
<path d="M91.0819 61.3484C94.0587 61.3484 96.4719 58.9352 96.4719 55.9584C96.4719 52.9816 94.0587 50.5684 91.0819 50.5684C88.1051 50.5684 85.6919 52.9816 85.6919 55.9584C85.6919 58.9352 88.1051 61.3484 91.0819 61.3484Z" fill="black"/>
<path d="M82.4268 105.659C82.4268 105.659 75.1368 118.159 67.0618 115.299C58.9868 112.439 68.3068 101.114 68.3068 101.114L73.1318 93.8486L88.4618 94.5986C88.4618 94.5986 84.7518 102.349 82.4268 105.659Z" fill="#F9E37E"/>
<path d="M24.6716 58.8979C24.7424 59.0407 24.8406 59.168 24.9608 59.2727C25.0809 59.3774 25.2205 59.4573 25.3716 59.5079L32.6316 61.9329C32.7853 61.995 32.9501 62.0251 33.1159 62.0211C33.2816 62.0172 33.4449 61.9793 33.5954 61.9099C33.746 61.8405 33.8808 61.7411 33.9915 61.6176C34.1022 61.4942 34.1865 61.3494 34.2391 61.1922C34.2917 61.035 34.3116 60.8686 34.2976 60.7034C34.2835 60.5382 34.2358 60.3776 34.1573 60.2316C34.0789 60.0855 33.9714 59.957 33.8414 59.8541C33.7114 59.7511 33.5618 59.6759 33.4016 59.6329L26.1716 57.2079C25.9442 57.1306 25.6989 57.1228 25.4669 57.1854C25.235 57.248 25.027 57.3782 24.8693 57.5594C24.7117 57.7407 24.6115 57.9648 24.5817 58.2031C24.5518 58.4415 24.5935 58.6834 24.7016 58.8979H24.6716Z" fill="#F4BD61"/>
<path d="M27.0966 63.7437C27.2056 63.9568 27.375 64.1331 27.5836 64.2507C27.7921 64.3682 28.0307 64.4218 28.2695 64.4047C28.5083 64.3876 28.7368 64.3007 28.9265 64.1547C29.1163 64.0087 29.2589 63.8101 29.3366 63.5837L31.7615 56.3286C31.8636 56.023 31.8401 55.6893 31.6962 55.4009C31.5523 55.1126 31.2997 54.8932 30.994 54.7911C30.6884 54.689 30.3547 54.7125 30.0663 54.8564C29.778 55.0004 29.5587 55.253 29.4565 55.5586L27.0316 62.8137C26.9293 63.12 26.9526 63.4545 27.0966 63.7437V63.7437Z" fill="#F4BD61"/>
<path d="M80.8566 77.7629C85.4737 77.7629 89.2166 74.02 89.2166 69.4029C89.2166 64.7858 85.4737 61.043 80.8566 61.043C76.2395 61.043 72.4966 64.7858 72.4966 69.4029C72.4966 74.02 76.2395 77.7629 80.8566 77.7629Z" fill="#F1A361"/>
<path d="M55.0216 25.9837C59.6387 25.9837 63.3816 22.2408 63.3816 17.6237C63.3816 13.0066 59.6387 9.26367 55.0216 9.26367C50.4045 9.26367 46.6616 13.0066 46.6616 17.6237C46.6616 22.2408 50.4045 25.9837 55.0216 25.9837Z" fill="#F1A361"/>
<path d="M64.3615 36.0383L70.3265 48.0083C71.1473 49.6436 72.5823 50.8873 74.3177 51.4673C76.053 52.0473 77.9474 51.9164 79.5866 51.1033V51.1033C82.9866 49.4083 80.8816 39.5233 79.1866 36.1033C77.4916 32.7033 70.8565 25.0783 67.4565 26.7733C65.8199 27.5941 64.5753 29.0299 63.9952 30.7665C63.4151 32.503 63.5468 34.3987 64.3615 36.0383Z" fill="#F4BD61"/>
<path d="M116.672 29.0083C116.672 29.0083 123.172 25.1783 125.532 18.7883C125.583 18.6364 125.591 18.4732 125.554 18.3171C125.518 18.1611 125.439 18.0183 125.325 17.9049C125.212 17.7916 125.069 17.7122 124.913 17.6757C124.757 17.6391 124.594 17.647 124.442 17.6983C121.061 18.8408 117.51 19.3988 113.942 19.3483C112.227 19.3483 110.272 18.0133 109.277 16.6133" fill="#F9E37E"/>
<path d="M112.567 21.458C116.564 23.5886 120.971 24.8367 125.492 25.118C125.653 25.1246 125.81 25.1771 125.942 25.2694C126.075 25.3616 126.179 25.4898 126.241 25.6388C126.303 25.7878 126.322 25.9516 126.295 26.1108C126.268 26.2701 126.195 26.4183 126.087 26.538C124.595 27.9226 122.929 29.1075 121.132 30.063C120.287 30.5426 119.635 31.3012 119.287 32.2088C118.939 33.1163 118.918 34.1165 119.227 35.038" fill="#F9E37E"/>
<defs>
<filter id="filter0_d_977_402" x="7.12939" y="0" width="119.813" height="117.557" filterUnits="userSpaceOnUse" color-interpolation-filters="sRGB">
<feFlood flood-opacity="0" result="BackgroundImageFix"/>
<feColorMatrix in="SourceAlpha" type="matrix" values="0 0 0 0 0 0 0 0 0 0 0 0 0 0 0 0 0 0 127 0" result="hardAlpha"/>
<feOffset dy="4"/>
<feGaussianBlur stdDeviation="2"/>
<feComposite in2="hardAlpha" operator="out"/>
<feColorMatrix type="matrix" values="0 0 0 0 0 0 0 0 0 0 0 0 0 0 0 0 0 0 0.25 0"/>
<feBlend mode="normal" in2="BackgroundImageFix" result="effect1_dropShadow_977_402"/>
<feBlend mode="normal" in="SourceGraphic" in2="effect1_dropShadow_977_402" result="shape"/>
</filter>
</defs>
</svg>
