<svg width="68" height="61" viewBox="0 0 68 61" fill="none" xmlns="http://www.w3.org/2000/svg">
<path d="M19.3806 4.07229C19.3806 4.07229 11.1608 3.25165 9.68506 7.14014C8.20927 11.0286 16.5892 10.7447 16.5892 10.7447L21.5686 11L26.5107 4.9478C26.5107 4.9478 21.6973 4.13909 19.3806 4.07229Z" fill="#EAD576"/>
<path d="M15.5749 47.0929L21.8219 59.6113C21.9909 59.95 22.4025 60.0876 22.7413 59.9185L24.4909 59.0454C24.8296 58.8764 24.9672 58.4648 24.7982 58.1261L18.5512 45.6076C18.3822 45.2689 17.9706 45.1313 17.6318 45.3004L15.8822 46.1735C15.5435 46.3425 15.4059 46.7541 15.5749 47.0929Z" fill="#F4BD61"/>
<path d="M0.30607 16.4991L6.39999 28.7109C6.56902 29.0496 6.98065 29.1872 7.31938 29.0182L9.06902 28.1451C9.40775 27.976 9.54532 27.5644 9.37629 27.2257L3.28237 15.0138C3.11334 14.6751 2.70171 14.5375 2.36298 14.7066L0.613337 15.5797C0.274606 15.7487 0.137037 16.1603 0.30607 16.4991Z" fill="#F4BD61"/>
<path d="M65.2073 24.2518C63.8882 17.3478 60.6017 10.9397 55.72 5.75332L55.6771 5.7065C53.5392 3.43186 50.8198 1.74476 47.7938 0.815678C44.7678 -0.113402 41.5425 -0.251517 38.4438 0.415293C32.5411 1.69517 14.9349 8.61225 9.91222 11.0419C9.91222 11.0419 -0.803899 15.4383 11.2055 38.7727C23.2148 62.1071 33.2441 56.3788 33.2441 56.3788C33.2441 56.3788 40.4883 52.8748 43.5416 51.1761C47.7594 48.8348 53.8848 45.1123 59.149 40.7862C61.57 38.7918 63.4052 36.2132 64.4689 33.3109C65.5327 30.4085 65.7874 27.2853 65.2073 24.257V24.2518Z" fill="#F1F1F1"/>
<path d="M65.2073 24.2518C63.8882 17.3478 60.6017 10.9397 55.72 5.75332L55.6771 5.7065C53.5392 3.43186 50.8198 1.74476 47.7938 0.815678C44.7678 -0.113402 41.5425 -0.251517 38.4438 0.415293C32.5411 1.69517 14.9349 8.61225 9.91222 11.0419C9.91222 11.0419 -0.803899 15.4383 11.2055 38.7727C23.2148 62.1071 33.2441 56.3788 33.2441 56.3788C33.2441 56.3788 40.4883 52.8748 43.5416 51.1761C47.7594 48.8348 53.8848 45.1123 59.149 40.7862C61.57 38.7918 63.4052 36.2132 64.4689 33.3109C65.5327 30.4085 65.7874 27.2853 65.2073 24.257V24.2518Z" fill="#F9E37E"/>
<path d="M39.0107 12C40.3914 12 41.5107 10.6568 41.5107 8.99999C41.5107 7.34314 40.3914 6 39.0107 6C37.63 6 36.5107 7.34314 36.5107 8.99999C36.5107 10.6568 37.63 12 39.0107 12Z" fill="black"/>
<path d="M49.0107 32C50.3915 32 51.5107 30.6569 51.5107 29C51.5107 27.3432 50.3915 26 49.0107 26C47.63 26 46.5107 27.3432 46.5107 29C46.5107 30.6569 47.63 32 49.0107 32Z" fill="black"/>
<path d="M44.3334 55.4785C44.3334 55.4785 40.4954 62.3356 36.2441 60.7667C31.9927 59.1978 36.8995 52.9853 36.8995 52.9853L39.4398 49L47.5107 49.4114C47.5107 49.4114 45.5575 53.6628 44.3334 55.4785Z" fill="#F9E37E"/>
<path d="M12.5618 30.7193C12.5982 30.7778 12.6487 30.8301 12.7104 30.873C12.7721 30.9159 12.8439 30.9487 12.9215 30.9694L16.6524 31.9637C16.7314 31.9892 16.8161 32.0015 16.9012 31.9999C16.9864 31.9982 17.0703 31.9827 17.1477 31.9543C17.2251 31.9258 17.2943 31.885 17.3512 31.8344C17.4081 31.7838 17.4514 31.7245 17.4784 31.66C17.5055 31.5955 17.5157 31.5273 17.5085 31.4596C17.5013 31.3919 17.4767 31.326 17.4364 31.2661C17.3961 31.2062 17.3409 31.1536 17.2741 31.1113C17.2073 31.0691 17.1304 31.0383 17.0481 31.0207L13.3326 30.0264C13.2158 29.9947 13.0897 29.9915 12.9705 30.0171C12.8513 30.0428 12.7444 30.0962 12.6634 30.1705C12.5824 30.2448 12.5309 30.3367 12.5156 30.4344C12.5002 30.5322 12.5217 30.6313 12.5772 30.7193H12.5618Z" fill="#F4BD61"/>
<path d="M13.5897 33.6569C13.6571 33.767 13.7618 33.8581 13.8906 33.9188C14.0195 33.9795 14.1669 34.0072 14.3144 33.9984C14.462 33.9896 14.6032 33.9447 14.7204 33.8693C14.8376 33.7939 14.9257 33.6913 14.9737 33.5743L16.4721 29.8266C16.5351 29.6687 16.5206 29.4963 16.4317 29.3473C16.3428 29.1984 16.1867 29.0851 15.9979 29.0323C15.809 28.9796 15.6028 28.9917 15.4247 29.0661C15.2465 29.1404 15.111 29.2709 15.0479 29.4288L13.5495 33.1765C13.4863 33.3348 13.5008 33.5075 13.5897 33.6569Z" fill="#F4BD61"/>
<path d="M43.5107 41C45.7199 41 47.5107 38.9853 47.5107 36.5C47.5107 34.0147 45.7199 32 43.5107 32C41.3016 32 39.5107 34.0147 39.5107 36.5C39.5107 38.9853 41.3016 41 43.5107 41Z" fill="#F1A361"/>
<path d="M30.0108 14C32.496 14 34.5107 11.9853 34.5107 9.49999C34.5107 7.01471 32.496 5 30.0108 5C27.5255 5 25.5107 7.01471 25.5107 9.49999C25.5107 11.9853 27.5255 14 30.0108 14Z" fill="#F1A361"/>
<path d="M34.877 18.8866L37.8989 25.0388C38.3148 25.8793 39.0418 26.5185 39.9209 26.8166C40.8001 27.1147 41.7598 27.0474 42.5902 26.6295C44.3127 25.7583 43.2463 20.6777 42.3876 18.92C41.5289 17.1725 38.1675 13.2535 36.4449 14.1247C35.6158 14.5465 34.9853 15.2845 34.6914 16.177C34.3975 17.0695 34.4642 18.0439 34.877 18.8866Z" fill="#F4BD61"/>
<path d="M62.1401 15C62.1401 15 65.3303 13.146 66.4885 10.0528C66.5137 9.97932 66.5176 9.90034 66.4996 9.82478C66.4817 9.74922 66.4428 9.68012 66.3871 9.62525C66.3315 9.57038 66.2614 9.53194 66.1848 9.51426C66.1082 9.49659 66.0281 9.50037 65.9536 9.52521C64.2943 10.0782 62.5516 10.3483 60.8003 10.3239C59.9586 10.3239 58.9991 9.67769 58.5107 9" fill="#F9E37E"/>
<path d="M60.5107 11C62.547 12.0983 64.7925 12.7416 67.0955 12.8866C67.1777 12.89 67.2573 12.9171 67.3249 12.9646C67.3925 13.0122 67.4453 13.0782 67.4771 13.155C67.5089 13.2319 67.5184 13.3163 67.5045 13.3984C67.4906 13.4804 67.4539 13.5568 67.3986 13.6186C66.6385 14.3323 65.7899 14.9431 64.8742 15.4356C64.4436 15.6828 64.1114 16.0738 63.9343 16.5416C63.7573 17.0095 63.7465 17.525 63.9037 18" fill="#F9E37E"/>
</svg>
