<svg width="58" height="65" viewBox="0 0 58 65" fill="none" xmlns="http://www.w3.org/2000/svg">
<path d="M2.02493 41.0043C2.02493 41.0043 -1.87173 35.0796 1.14591 32.1651C4.16355 29.2506 7.10016 35.8064 7.10016 35.8064L9.23633 39.5066L5.55329 46.0698C5.55329 46.0698 2.97025 42.7427 2.02493 41.0043Z" fill="#EEEEEE"/>
<path d="M14.9974 64.5561L10.2856 64.5544C9.8467 64.5543 9.42582 64.3798 9.11557 64.0693C8.80532 63.7588 8.63111 63.3378 8.63126 62.8989L8.63257 59.1521L16.6542 59.1549L16.6529 62.9017C16.6528 63.3406 16.4783 63.7615 16.1678 64.0718C15.8573 64.382 15.4363 64.5562 14.9974 64.5561Z" fill="#EEEEEE"/>
<path d="M45.1807 64.5702L40.4443 64.5686C40.0028 64.5684 39.5794 64.3929 39.2673 64.0806C38.9552 63.7682 38.78 63.3448 38.7802 62.9032L38.7815 59.1662L46.8473 59.169L46.846 62.9061C46.8459 63.3476 46.6704 63.7709 46.358 64.083C46.0457 64.3951 45.6222 64.5704 45.1807 64.5702Z" fill="black"/>
<path d="M17.2559 19.8199C17.2559 19.8199 6.72242 11.5257 3.0541 16.078C-1.16176 21.3079 12.4974 27.1418 12.4974 27.1418L17.2559 19.8199Z" fill="#F6CBCA"/>
<path d="M6.2038 17.0943C5.29286 17.0943 5.0326 17.416 4.90738 17.5707C4.58327 17.9733 4.60292 18.2017 4.66184 18.4178C4.93684 19.5227 7.31608 21.951 11.6301 24.1142L14.0266 20.4311C11.6154 18.8278 8.3326 17.0992 6.20872 17.0992L6.2038 17.0943ZM6.20872 14.7175C10.7732 14.7175 17.2578 19.8247 17.2578 19.8247L12.4993 27.1465C12.4993 27.1465 -1.1598 21.3126 3.05605 16.0827C3.84667 15.1006 4.95403 14.7175 6.20872 14.7175Z" fill="black"/>
<path d="M13.5471 17.2785C12.4765 15.7462 11.6575 14.0528 11.1212 12.2622C11.0505 12.0327 11.0508 11.7872 11.1218 11.5578C11.1929 11.3285 11.3315 11.1259 11.5196 10.9766C11.7076 10.8272 11.9364 10.7381 12.1759 10.7209C12.4154 10.7036 12.6545 10.759 12.862 10.8798C14.4335 11.8177 16.4812 13.2026 17.9274 14.7716C20.5891 17.6615 13.5471 17.2785 13.5471 17.2785Z" fill="#F4C25D"/>
<path d="M15.8028 63.1028C17.5126 63.5452 19.2499 63.8733 21.0032 64.085C23.6843 64.4104 26.3832 64.5662 29.0838 64.5515C31.4305 64.5617 33.7761 64.4495 36.111 64.2151C53.4999 62.4202 52.9155 53.9566 52.9155 53.9566C52.9155 53.9566 52.9155 46.5611 52.7289 43.3544C52.4686 38.92 51.8401 32.3568 50.3423 26.2332C49.6498 23.4161 48.2261 20.8317 46.2149 18.7412C44.2036 16.6506 41.6763 15.128 38.8881 14.3271C34.842 13.1622 30.6205 12.729 26.4222 13.0479L26.4099 13.0479C24.0479 13.223 21.7094 13.6342 19.4294 14.2756L19.3704 14.2952C16.5812 15.0827 14.0496 16.5931 12.0317 18.6735C10.0138 20.7539 8.58139 23.3304 7.87935 26.1423C7.41669 28.2607 7.06834 30.4024 6.83583 32.5582C5.91507 39.8997 5.19073 50.1754 5.19073 53.9198C5.19073 53.9321 4.79542 60.2104 15.8028 63.1028Z" fill="white"/>
<path d="M21.0029 64.0851C23.684 64.4106 26.3829 64.5664 29.0835 64.5516C31.4302 64.5619 33.7758 64.4496 36.1108 64.2153C53.4996 62.4204 52.9152 53.9568 52.9152 53.9568C52.9152 53.9568 52.9152 46.5612 52.7286 43.3545C52.7286 43.3545 39.6907 41.7954 36.9971 51.4572C36.7783 52.2932 36.448 53.096 36.015 53.8438C32.413 59.9184 23.9469 55.0715 21.0692 63.8764C21.0414 63.9441 21.0192 64.0139 21.0029 64.0851Z" fill="black"/>
<path d="M6.83471 32.5655C12.2684 29.9972 11.8142 22.1229 18.5247 22.1253C26.5414 22.1253 26.4211 13.0405 26.4211 13.0405L26.4088 13.0405C24.0468 13.2156 21.7083 13.6268 19.4283 14.2682L19.3693 14.2879C16.5801 15.0753 14.0485 16.5857 12.0306 18.6661C10.0127 20.7465 8.58028 23.323 7.87824 26.135C7.41506 28.2582 7.06671 30.4048 6.83471 32.5655Z" fill="black"/>
<path d="M14.8953 55L14.8953 59.8567C14.8978 61.0008 15.2109 62.1227 15.8013 63.1027C19.0964 63.9669 23.4129 64.5341 29.0823 64.5366C31.429 64.5468 33.7746 64.4345 36.1095 64.2002L36.1095 54.9877C36.1099 54.5988 36.0737 54.2108 36.0015 53.8288C35.727 52.3521 34.9456 51.0177 33.7922 50.0557C32.6388 49.0937 31.1857 48.5646 29.6838 48.5596L21.3356 48.5596C19.6279 48.5609 17.9906 49.2398 16.783 50.4474C15.5755 51.6549 14.8966 53.2923 14.8953 55Z" fill="#F6CBCA"/>
<path d="M14.913 32.7177C16.3721 32.7177 17.5549 31.5349 17.5549 30.0758C17.5549 28.6167 16.3721 27.4338 14.913 27.4338C13.4538 27.4338 12.271 28.6167 12.271 30.0758C12.271 31.5349 13.4538 32.7177 14.913 32.7177Z" fill="black"/>
<path d="M36.1288 32.7273C37.5879 32.7273 38.7707 31.5444 38.7707 30.0853C38.7707 28.6262 37.5879 27.4434 36.1288 27.4434C34.6697 27.4434 33.4868 28.6262 33.4868 30.0853C33.4868 31.5444 34.6697 32.7273 36.1288 32.7273Z" fill="black"/>
<path d="M16.6753 36.9949C16.6753 33.8029 19.44 30.0781 25.5293 30.0806C31.6186 30.083 34.2777 33.8078 34.2777 37.0022C34.2777 40.1967 31.6161 41.6478 25.5269 41.6453C19.4376 41.6429 16.6753 40.1868 16.6753 36.9949Z" fill="#F6CBCA"/>
<path d="M27.2825 36.8011C27.7843 36.8011 28.191 36.2482 28.191 35.5661C28.191 34.884 27.7843 34.3311 27.2825 34.3311C26.7808 34.3311 26.374 34.884 26.374 35.5661C26.374 36.2482 26.7808 36.8011 27.2825 36.8011Z" fill="black"/>
<path d="M21.9825 36.7985C22.4842 36.7984 22.891 36.2455 22.891 35.5634C22.891 34.8813 22.4842 34.3284 21.9825 34.3284C21.4807 34.3284 21.074 34.8813 21.074 35.5634C21.074 36.2455 21.4807 36.7985 21.9825 36.7985Z" fill="black"/>
<path d="M43.4459 21.9265C43.1215 21.5202 42.8821 21.0528 42.742 20.5521C42.6019 20.0514 42.564 19.5277 42.6304 19.012C42.6968 18.4964 42.8663 17.9994 43.1287 17.5506C43.3911 17.1017 43.7412 16.7103 44.1579 16.3995C47.3499 14.0153 52.2606 11.2015 54.8584 13.868C58.0233 17.1041 53.1396 21.3912 49.6162 23.8441C48.8068 24.4082 47.8131 24.6432 46.8368 24.5014C45.8605 24.3596 44.9747 23.8516 44.3593 23.0805L43.4459 21.9265Z" fill="#F6CBCA"/>
<path d="M55.709 43.6316C55.709 43.6316 59.4264 49.6718 56.3228 52.4979C53.2193 55.324 50.4816 48.6823 50.4816 48.6823L47.4075 43.2339L52.3182 38.4705C52.3182 38.4705 54.8177 41.8613 55.709 43.6316Z" fill="white"/>
<path d="M22.8806 59.837C22.9585 59.838 23.0359 59.8234 23.108 59.7938C23.1801 59.7643 23.2456 59.7205 23.3004 59.6651L25.9448 57.0133C26.0001 56.9582 26.044 56.8927 26.074 56.8206C26.104 56.7485 26.1195 56.6712 26.1196 56.5931C26.1197 56.515 26.1045 56.4376 26.0747 56.3654C26.0449 56.2932 26.0012 56.2276 25.946 56.1723C25.8909 56.117 25.8254 56.0731 25.7533 56.0431C25.6812 56.0132 25.6039 55.9977 25.5258 55.9976C25.4477 55.9974 25.3704 56.0127 25.2982 56.0425C25.226 56.0723 25.1604 56.116 25.1051 56.1711L22.4533 58.8229C22.3979 58.8779 22.354 58.9433 22.324 59.0154C22.294 59.0874 22.2786 59.1647 22.2786 59.2428C22.2786 59.3208 22.294 59.3981 22.324 59.4702C22.354 59.5422 22.3979 59.6076 22.4533 59.6626C22.5089 59.7193 22.5754 59.764 22.6489 59.794C22.7224 59.8239 22.8012 59.8386 22.8806 59.837Z" fill="#EF928F"/>
<path d="M25.5322 59.8398C25.6497 59.839 25.7642 59.8036 25.8616 59.738C25.959 59.6724 26.0348 59.5795 26.0797 59.471C26.1245 59.3624 26.1363 59.2431 26.1136 59.1279C26.0909 59.0127 26.0347 58.9067 25.9521 58.8233L23.3028 56.1715C23.189 56.071 23.0411 56.0176 22.8893 56.0223C22.7375 56.0269 22.5932 56.0893 22.4858 56.1967C22.3784 56.3041 22.316 56.4484 22.3113 56.6002C22.3066 56.752 22.36 56.8999 22.4606 57.0137L25.1099 59.6655C25.2224 59.7767 25.3741 59.8393 25.5322 59.8398Z" fill="#EF928F"/>
<path d="M38.9969 38.047L41.4522 38.0479C42.5832 38.0483 43.5003 37.1318 43.5007 36.0008L43.5011 34.7928C43.5015 33.6618 42.585 32.7447 41.4541 32.7443L38.9987 32.7434C37.8678 32.7431 36.9507 33.6596 36.9503 34.7905L36.9498 35.9985C36.9495 37.1295 37.8659 38.0466 38.9969 38.047Z" fill="#F7D3D2"/>
<path d="M9.56917 38.1047L12.0245 38.1047C13.1555 38.1047 14.0723 37.1879 14.0723 36.057L14.0723 34.849C14.0723 33.718 13.1555 32.8012 12.0245 32.8012L9.56917 32.8012C8.43823 32.8012 7.52141 33.718 7.52141 34.849L7.52141 36.057C7.52141 37.1879 8.43823 38.1047 9.56917 38.1047Z" fill="#F7D3D2"/>
<g opacity="0.75">
<path d="M28.3985 5.64721C36.1274 5.64722 42.3929 4.38305 42.3929 2.82361C42.3929 1.26418 36.1273 7.22674e-06 28.3985 4.65555e-06C20.6696 2.08436e-06 14.4041 1.26417 14.4041 2.8236C14.4041 4.38304 20.6696 5.64721 28.3985 5.64721Z" fill="#F2F2FA"/>
<path opacity="0.1" d="M42.3957 2.82374C42.3957 4.38211 36.1296 5.64732 28.4033 5.64732L28.4033 2.82373L42.3957 2.82374Z" fill="#6DD1E1"/>
<path opacity="0.1" d="M28.3984 6.48025e-06L28.3984 2.82361L14.406 2.8236C14.404 1.26213 20.6701 2.90108e-06 28.3984 6.48025e-06Z" fill="black"/>
</g>
<path d="M37.6082 1.50152L27.9084 3.06912L37.6082 4.63673C39.4557 4.79751 42.395 4.27509 42.395 3.06913C42.395 1.86317 39.4557 1.34075 37.6082 1.50152Z" fill="white"/>
<path d="M19.2721 1.50152L29.1362 3.06913L19.2721 4.63673C17.3932 4.7975 14.404 4.27508 14.404 3.06912C14.404 1.86316 17.3932 1.34074 19.2721 1.50152Z" fill="white"/>
<path fill-rule="evenodd" clip-rule="evenodd" d="M28.3995 1.71875C29.0776 1.71874 29.6272 2.26839 29.6272 2.94642L29.6272 6.62946C29.6272 7.30749 29.0775 7.85714 28.3995 7.85714C27.7215 7.85715 27.1719 7.3075 27.1719 6.62947L27.1719 2.94643C27.1719 2.2684 27.7215 1.71875 28.3995 1.71875Z" fill="#12314B"/>
<path d="M28.6452 6.62939C18.8238 6.62933 16.6138 12.4477 16.614 15.4687L40.6765 15.4687C40.6767 12.4477 38.4667 6.62946 28.6452 6.62939Z" fill="#F95A5A"/>
<path d="M43.9459 18.1696C43.9459 18.1696 46.1557 15.2821 47.0642 12.2768C47.1362 12.0471 47.137 11.801 47.0663 11.5709C46.9957 11.3407 46.857 11.1374 46.6685 10.9878C46.48 10.8381 46.2505 10.749 46.0104 10.7324C45.7703 10.7157 45.5307 10.7722 45.3233 10.8944C43.7519 11.8299 42.4727 12.4462 41.0264 14.0127C38.3624 16.9027 43.9459 18.1696 43.9459 18.1696Z" fill="#F4C25D"/>
<path d="M52.1302 15.1668C50.6447 15.1668 48.2581 16.311 45.5793 18.3072C45.4185 18.4261 45.2835 18.5764 45.1826 18.749C45.0817 18.9217 45.0171 19.113 44.9925 19.3115C44.9656 19.5116 44.9796 19.7151 45.0336 19.9097C45.0877 20.1042 45.1806 20.2858 45.3068 20.4434L46.2226 21.5925C46.4601 21.8914 46.8026 22.0885 47.1803 22.1437C47.558 22.1989 47.9426 22.1081 48.2557 21.8896C51.9731 19.3017 53.3996 17.3005 53.4954 16.2889C53.5101 16.1392 53.5298 15.9157 53.1566 15.5327C53.0227 15.4003 52.8614 15.299 52.684 15.2357C52.5067 15.1725 52.3177 15.149 52.1302 15.1668ZM52.1302 12.7876C52.6348 12.7701 53.1376 12.857 53.607 13.043C54.0764 13.2289 54.5023 13.5097 54.8581 13.8679C58.0231 17.1041 53.1394 21.3912 49.6159 23.8441C48.8065 24.4082 47.8129 24.6432 46.8365 24.5014C45.8602 24.3595 44.9745 23.8515 44.359 23.0805L43.4456 21.9338C43.1212 21.5275 42.8819 21.0601 42.7418 20.5595C42.6017 20.0588 42.5637 19.535 42.6302 19.0194C42.6966 18.5037 42.8661 18.0067 43.1285 17.5579C43.3909 17.1091 43.7409 16.7176 44.1577 16.4068C46.4338 14.7077 49.5718 12.7925 52.1302 12.795L52.1302 12.7876Z" fill="white"/>
</svg>
