<svg width="160" height="167" viewBox="0 0 160 167" fill="none" xmlns="http://www.w3.org/2000/svg">
<g filter="url(#filter0_d_949_542)">
<path d="M25.1739 101.188C25.1739 101.188 17.2389 89.1233 23.3839 83.1883C29.5289 77.2533 35.5089 90.6033 35.5089 90.6033L39.8589 98.1383L32.3589 111.503C32.3589 111.503 27.0989 104.728 25.1739 101.188Z" fill="#EEEEEE"/>
<path d="M51.5905 149.148L41.9956 149.145C41.1018 149.145 40.2447 148.789 39.6129 148.157C38.9812 147.525 38.6264 146.668 38.6267 145.774L38.6294 138.144L54.9644 138.149L54.9617 145.779C54.9614 146.673 54.6061 147.53 53.9739 148.162C53.3416 148.794 52.4843 149.149 51.5905 149.148Z" fill="#EEEEEE"/>
<path d="M113.055 149.177L103.41 149.173C102.511 149.173 101.649 148.815 101.013 148.179C100.378 147.543 100.021 146.681 100.021 145.782L100.024 138.172L116.449 138.178L116.446 145.788C116.446 146.687 116.088 147.549 115.452 148.184C114.816 148.82 113.954 149.177 113.055 149.177V149.177Z" fill="black"/>
<path d="M56.1896 58.0487C56.1896 58.0487 34.7395 41.1587 27.2695 50.4287C18.6845 61.0787 46.4996 72.9587 46.4996 72.9587L56.1896 58.0487Z" fill="#F6CBCA"/>
<path d="M33.6834 52.4987C31.8284 52.4987 31.2984 53.1537 31.0434 53.4687C30.3834 54.2887 30.4234 54.7537 30.5434 55.1937C31.1034 57.4437 35.9484 62.3887 44.7334 66.7937L49.6134 59.2937C44.7034 56.0287 38.0184 52.5087 33.6934 52.5087L33.6834 52.4987ZM33.6934 47.6587C42.9884 47.6587 56.1934 58.0587 56.1934 58.0587L46.5034 72.9687C46.5034 72.9687 18.6884 61.0887 27.2734 50.4387C28.8834 48.4387 31.1384 47.6587 33.6934 47.6587Z" fill="black"/>
<path d="M48.637 52.8737C46.4569 49.7534 44.7892 46.305 43.697 42.6586C43.5532 42.1913 43.5536 41.6914 43.6984 41.2243C43.8431 40.7573 44.1254 40.3448 44.5083 40.0407C44.8913 39.7366 45.3571 39.5551 45.8448 39.52C46.3325 39.4848 46.8194 39.5976 47.242 39.8436C50.442 41.7536 54.612 44.5736 57.557 47.7686C62.977 53.6537 48.637 52.8737 48.637 52.8737Z" fill="#F4C25D"/>
<path d="M53.2305 146.189C56.7122 147.089 60.25 147.758 63.8205 148.189C69.28 148.851 74.7759 149.169 80.2755 149.139C85.0542 149.16 89.8307 148.931 94.5855 148.454C129.995 144.799 128.805 127.564 128.805 127.564C128.805 127.564 128.805 112.504 128.425 105.974C127.895 96.9437 126.615 83.5787 123.565 71.1087C122.155 65.3722 119.256 60.1094 115.16 55.8523C111.065 51.5952 105.918 48.4945 100.24 46.8637C92.0013 44.4914 83.4047 43.6092 74.8555 44.2587H74.8305C70.0205 44.6152 65.2584 45.4527 60.6155 46.7587L60.4954 46.7987C54.8156 48.4023 49.6602 51.478 45.5511 55.7144C41.442 59.9508 38.525 65.1976 37.0954 70.9237C36.1533 75.2374 35.4439 79.5987 34.9704 83.9887C33.0954 98.9387 31.6204 119.864 31.6204 127.489C31.6204 127.514 30.8155 140.299 53.2305 146.189Z" fill="white"/>
<path d="M63.8199 148.189C69.2795 148.851 74.7754 149.169 80.275 149.139C85.0537 149.16 89.8302 148.931 94.585 148.454C129.995 144.799 128.805 127.564 128.805 127.564C128.805 127.564 128.805 112.504 128.425 105.974C128.425 105.974 101.875 102.799 96.39 122.474C95.9444 124.176 95.2717 125.811 94.39 127.334C87.055 139.704 69.815 129.834 63.955 147.764C63.8983 147.901 63.8532 148.044 63.8199 148.189V148.189Z" fill="black"/>
<path d="M34.9684 84.0037C46.0334 78.7737 45.1084 62.7387 58.7734 62.7437C75.0984 62.7437 74.8534 44.2437 74.8534 44.2437H74.8284C70.0185 44.6001 65.2563 45.4376 60.6134 46.7437L60.4934 46.7837C54.8136 48.3873 49.6582 51.4629 45.5491 55.6993C41.44 59.9358 38.523 65.1826 37.0934 70.9087C36.1502 75.2323 35.4408 79.6036 34.9684 84.0037V84.0037Z" fill="black"/>
<path d="M51.3824 129.688V139.578C51.3876 141.908 52.0253 144.193 53.2274 146.188C59.9374 147.948 68.7274 149.103 80.2724 149.108C85.0511 149.129 89.8276 148.9 94.5824 148.423V129.663C94.5832 128.871 94.5095 128.081 94.3624 127.303C93.8034 124.296 92.2122 121.579 89.8635 119.62C87.5147 117.661 84.5558 116.583 81.4974 116.573H64.4974C61.0199 116.576 57.6856 117.958 55.2267 120.417C52.7677 122.876 51.3851 126.211 51.3824 129.688V129.688Z" fill="#F6CBCA"/>
<path d="M51.4187 84.3137C54.39 84.3137 56.7987 81.905 56.7987 78.9337C56.7987 75.9624 54.39 73.5537 51.4187 73.5537C48.4474 73.5537 46.0387 75.9624 46.0387 78.9337C46.0387 81.905 48.4474 84.3137 51.4187 84.3137Z" fill="black"/>
<path d="M94.6218 84.3332C97.5931 84.3332 100.002 81.9245 100.002 78.9532C100.002 75.9819 97.5931 73.5732 94.6218 73.5732C91.6505 73.5732 89.2418 75.9819 89.2418 78.9532C89.2418 81.9245 91.6505 84.3332 94.6218 84.3332Z" fill="black"/>
<path d="M55.0074 93.0234C55.0074 86.5234 60.6374 78.9384 73.0374 78.9434C85.4374 78.9484 90.8524 86.5334 90.8524 93.0384C90.8524 99.5434 85.4324 102.498 73.0324 102.493C60.6324 102.488 55.0074 99.5234 55.0074 93.0234Z" fill="#F6CBCA"/>
<path d="M76.6075 92.6286C77.6292 92.6286 78.4575 91.5026 78.4575 90.1136C78.4575 88.7246 77.6292 87.5986 76.6075 87.5986C75.5857 87.5986 74.7574 88.7246 74.7574 90.1136C74.7574 91.5026 75.5857 92.6286 76.6075 92.6286Z" fill="black"/>
<path d="M65.8145 92.6233C66.8363 92.6233 67.6646 91.4973 67.6646 90.1083C67.6646 88.7193 66.8363 87.5933 65.8145 87.5933C64.7928 87.5933 63.9645 88.7193 63.9645 90.1083C63.9645 91.4973 64.7928 92.6233 65.8145 92.6233Z" fill="black"/>
<path d="M109.522 62.3386C108.861 61.5112 108.374 60.5595 108.089 59.5399C107.803 58.5203 107.726 57.4538 107.861 56.4038C107.997 55.3537 108.342 54.3416 108.876 53.4276C109.41 52.5137 110.123 51.7165 110.972 51.0836C117.472 46.2286 127.472 40.4986 132.762 45.9286C139.207 52.5186 129.262 61.2486 122.087 66.2436C120.439 67.3923 118.415 67.8708 116.427 67.582C114.439 67.2932 112.635 66.2588 111.382 64.6886L109.522 62.3386Z" fill="#F6CBCA"/>
<path d="M134.494 106.538C134.494 106.538 142.064 118.838 135.744 124.593C129.424 130.348 123.849 116.823 123.849 116.823L117.589 105.728L127.589 96.0283C127.589 96.0283 132.679 102.933 134.494 106.538Z" fill="white"/>
<path d="M67.6435 139.539C67.8022 139.541 67.9597 139.511 68.1067 139.451C68.2536 139.391 68.3868 139.301 68.4985 139.189L73.8835 133.789C73.9961 133.676 74.0854 133.543 74.1465 133.396C74.2076 133.249 74.2391 133.092 74.2394 132.933C74.2396 132.774 74.2085 132.616 74.1479 132.469C74.0872 132.322 73.9982 132.189 73.886 132.076C73.7737 131.964 73.6403 131.874 73.4935 131.813C73.3467 131.752 73.1892 131.72 73.0302 131.72C72.8712 131.72 72.7137 131.751 72.5667 131.812C72.4197 131.872 72.2861 131.961 72.1735 132.074L66.7735 137.474C66.6607 137.586 66.5712 137.719 66.5101 137.866C66.4491 138.012 66.4176 138.17 66.4176 138.329C66.4176 138.488 66.4491 138.645 66.5101 138.792C66.5712 138.938 66.6607 139.072 66.7735 139.184C66.8866 139.299 67.0222 139.39 67.1718 139.451C67.3214 139.512 67.4819 139.542 67.6435 139.539V139.539Z" fill="#EF928F"/>
<path d="M73.0436 139.544C73.2827 139.542 73.516 139.47 73.7143 139.336C73.9126 139.203 74.0671 139.013 74.1583 138.792C74.2496 138.571 74.2737 138.328 74.2275 138.094C74.1813 137.859 74.0669 137.643 73.8986 137.474L68.5036 132.074C68.2718 131.869 67.9707 131.76 67.6615 131.77C67.3524 131.779 67.0586 131.906 66.8399 132.125C66.6212 132.344 66.4941 132.637 66.4846 132.947C66.475 133.256 66.5838 133.557 66.7885 133.789L72.1836 139.189C72.4127 139.415 72.7215 139.542 73.0436 139.544V139.544Z" fill="#EF928F"/>
<path d="M100.462 95.1657L105.462 95.1675C107.765 95.1683 109.633 93.302 109.634 90.999L109.635 88.539C109.636 86.236 107.769 84.3683 105.466 84.3675L100.466 84.3658C98.1632 84.365 96.2956 86.2313 96.2948 88.5343L96.294 90.9943C96.2931 93.2973 98.1594 95.1649 100.462 95.1657Z" fill="#F7D3D2"/>
<path d="M40.5367 95.2837H45.5367C47.8397 95.2837 49.7067 93.4167 49.7067 91.1137V88.6537C49.7067 86.3507 47.8397 84.4838 45.5367 84.4838H40.5367C38.2337 84.4838 36.3667 86.3507 36.3667 88.6537V91.1137C36.3667 93.4167 38.2337 95.2837 40.5367 95.2837Z" fill="#F7D3D2"/>
<g opacity="0.75">
<path d="M78.8802 29.1883C94.619 29.1883 107.378 26.6139 107.378 23.4384C107.378 20.2628 94.619 17.6885 78.8802 17.6885C63.1413 17.6885 50.3824 20.2628 50.3824 23.4384C50.3824 26.6139 63.1413 29.1883 78.8802 29.1883Z" fill="#F2F2FA"/>
<path opacity="0.1" d="M107.384 23.4385C107.384 26.6119 94.6236 29.1883 78.8901 29.1883V23.4385H107.384Z" fill="#6DD1E1"/>
<path opacity="0.1" d="M78.8799 17.6885V23.4384H50.3862C50.3821 20.2586 63.1423 17.6885 78.8799 17.6885Z" fill="black"/>
</g>
<path d="M97.6346 20.7463L77.8824 23.9385L97.6346 27.1307C101.397 27.4581 107.382 26.3943 107.382 23.9385C107.382 21.4827 101.397 20.4189 97.6346 20.7463Z" fill="white"/>
<path d="M60.2956 20.7463L80.3826 23.9385L60.2956 27.1307C56.4695 27.4581 50.3825 26.3943 50.3825 23.9385C50.3825 21.4827 56.4695 20.4189 60.2956 20.7463Z" fill="white"/>
<path d="M78.8824 31.1885L78.8824 23.6885" stroke="#12314B" stroke-width="5" stroke-miterlimit="10" stroke-linecap="round"/>
<path d="M79.3824 31.1885C59.3824 31.1883 54.8821 43.0367 54.8824 49.1885H103.882C103.883 43.0367 99.3824 31.1886 79.3824 31.1885Z" fill="#F95A5A"/>
<path d="M110.54 54.6884C110.54 54.6884 115.04 48.8084 116.89 42.6884C117.037 42.2207 117.039 41.7195 116.895 41.2509C116.751 40.7823 116.468 40.3683 116.084 40.0635C115.701 39.7587 115.233 39.5774 114.744 39.5434C114.255 39.5095 113.768 39.6245 113.345 39.8734C110.145 41.7784 107.54 43.0334 104.595 46.2234C99.1703 52.1084 110.54 54.6884 110.54 54.6884Z" fill="#F4C25D"/>
<path d="M127.207 48.5736C124.182 48.5736 119.322 50.9036 113.867 54.9686C113.539 55.2105 113.264 55.5166 113.059 55.8682C112.854 56.2197 112.722 56.6095 112.672 57.0136C112.617 57.4211 112.646 57.8355 112.756 58.2317C112.866 58.6279 113.055 58.9977 113.312 59.3186L115.177 61.6586C115.66 62.2672 116.358 62.6686 117.127 62.781C117.896 62.8934 118.679 62.7084 119.317 62.2636C126.887 56.9936 129.792 52.9186 129.987 50.8586C130.017 50.5536 130.057 50.0986 129.297 49.3186C129.024 49.0491 128.696 48.8427 128.335 48.7139C127.973 48.5852 127.588 48.5373 127.207 48.5736V48.5736ZM127.207 43.7286C128.234 43.693 129.258 43.87 130.214 44.2486C131.17 44.6272 132.037 45.1991 132.762 45.9286C139.207 52.5186 129.262 61.2486 122.087 66.2436C120.439 67.3923 118.415 67.8708 116.427 67.582C114.439 67.2932 112.635 66.2588 111.382 64.6886L109.522 62.3536C108.861 61.5263 108.374 60.5745 108.089 59.5549C107.803 58.5353 107.726 57.4688 107.861 56.4188C107.997 55.3687 108.342 54.3566 108.876 53.4426C109.41 52.5287 110.123 51.7315 110.972 51.0986C115.607 47.6386 121.997 43.7386 127.207 43.7436V43.7286Z" fill="white"/>
</g>
<defs>
<filter id="filter0_d_949_542" x="17.0504" y="17.6885" width="125.212" height="139.488" filterUnits="userSpaceOnUse" color-interpolation-filters="sRGB">
<feFlood flood-opacity="0" result="BackgroundImageFix"/>
<feColorMatrix in="SourceAlpha" type="matrix" values="0 0 0 0 0 0 0 0 0 0 0 0 0 0 0 0 0 0 127 0" result="hardAlpha"/>
<feOffset dy="4"/>
<feGaussianBlur stdDeviation="2"/>
<feComposite in2="hardAlpha" operator="out"/>
<feColorMatrix type="matrix" values="0 0 0 0 0 0 0 0 0 0 0 0 0 0 0 0 0 0 0.25 0"/>
<feBlend mode="normal" in2="BackgroundImageFix" result="effect1_dropShadow_949_542"/>
<feBlend mode="normal" in="SourceGraphic" in2="effect1_dropShadow_949_542" result="shape"/>
</filter>
</defs>
</svg>
