<svg width="90" height="90" viewBox="0 0 90 90" fill="none" xmlns="http://www.w3.org/2000/svg">
<path d="M21.8 43.63C22.26 42.65 22.5 41.58 22.5 40.5C22.5 36.36 19.14 33 15 33C10.86 33 7.5 36.36 7.5 40.5C7.5 41.58 7.74 42.65 8.2 43.63C3.47 44.42 0.01 48.51 0 53.3V67.5C0 68.33 0.67 69 1.5 69H6V88.5C6 89.33 6.67 90 7.5 90H22.5C23.33 90 24 89.33 24 88.5V69H28.5C29.33 69 30 68.33 30 67.5V53.3C29.99 48.51 26.53 44.42 21.8 43.63ZM27 66H24V51H21V87H16.5V66H13.5V87H9V51H6V66H3V53.3C3 49.55 6.05 46.5 9.8 46.5H11.07C11.9 46.5 12.57 45.83 12.57 45C12.57 44.57 12.38 44.16 12.06 43.87C11.07 43.03 10.5 41.8 10.5 40.5C10.5 38.01 12.51 36 15 36C17.49 36 19.5 38.01 19.5 40.5C19.5 41.8 18.93 43.03 17.94 43.87C17.32 44.42 17.25 45.36 17.8 45.99C18.08 46.32 18.5 46.5 18.93 46.5H20.2C23.95 46.5 27 49.55 27 53.3V66Z" fill="#136E90"/>
<path d="M67.5 13.5C67.5 14.33 68.17 15 69 15C69.83 15 70.5 14.33 70.5 13.5C70.5 11.02 72.52 9 75 9C75.83 9 76.5 8.33 76.5 7.5C76.5 6.67 75.83 6 75 6C72.52 6 70.5 3.98 70.5 1.5C70.5 0.67 69.83 0 69 0C68.17 0 67.5 0.67 67.5 1.5C67.5 3.98 65.48 6 63 6C62.17 6 61.5 6.67 61.5 7.5C61.5 8.33 62.17 9 63 9C65.48 9 67.5 11.02 67.5 13.5ZM69 6C69.43 6.57 69.93 7.08 70.5 7.5C69.93 7.93 69.43 8.43 69 9C68.57 8.43 68.07 7.92 67.5 7.5C68.07 7.07 68.57 6.57 69 6Z" fill="#FFC53D"/>
<path d="M88.5 79.5H82.5V75C82.5 74.17 81.83 73.5 81 73.5H78V37.9L89.8 17.25C90.19 16.57 89.99 15.7 89.33 15.26L84.83 12.26C84.48 12.03 84.06 11.96 83.66 12.05C83.26 12.14 82.91 12.4 82.7 12.76L75.98 24.28C74.47 20.42 70.12 18.52 66.26 20.03C64.31 20.79 62.77 22.33 62.01 24.28L55.3 12.74C54.88 12.02 53.97 11.78 53.25 12.2C53.22 12.22 53.2 12.23 53.17 12.25L48.67 15.25C48.01 15.69 47.81 16.56 48.2 17.24L60 37.9V73.5H57C56.17 73.5 55.5 74.17 55.5 75V79.5H49.5C48.67 79.5 48 80.17 48 81V90H51V82.5H57C57.83 82.5 58.5 81.83 58.5 81V76.5H79.5V81C79.5 81.83 80.17 82.5 81 82.5H87V90H90V81C90 80.17 89.33 79.5 88.5 79.5ZM75 37.5V73.5H70.5V55.5H67.5V73.5H63V37.5C63 37.24 62.93 36.9799 62.8 36.76L51.5 16.97L53.51 15.63L63.21 32.25C63.48 32.71 63.97 32.99 64.51 32.99H65.08C65.91 32.99 66.58 32.32 66.58 31.49C66.58 31.06 66.39 30.65 66.07 30.36C65.07 29.53 64.5 28.3 64.5 27C64.5 24.51 66.51 22.5 69 22.5C71.49 22.5 73.5 24.51 73.5 27C73.5 28.3 72.93 29.53 71.94 30.37C71.32 30.92 71.25 31.86 71.8 32.49C72.08 32.82 72.5 33 72.93 33H73.5C74.03 33 74.53 32.7199 74.8 32.26L84.5 15.64L86.51 16.98L75.2 36.76C75.07 36.9799 75 37.24 75 37.5Z" fill="#12A8B1"/>
<path d="M45 34.5H42V37.5H45V34.5Z" fill="#136E90"/>
<path d="M51 37.5H48V40.5H51V37.5Z" fill="#136E90"/>
<path d="M57 40.5H54V43.5H57V40.5Z" fill="#136E90"/>
<path d="M45 45H42V48H45V45Z" fill="#12A8B1"/>
<path d="M51 48H48V51H51V48Z" fill="#12A8B1"/>
<path d="M57 51H54V54H57V51Z" fill="#12A8B1"/>
<path d="M84 39.5H81V42.5H84V39.5Z" fill="#136E90"/>
<path d="M90 42.5H87V45.5H90V42.5Z" fill="#136E90"/>
<path d="M84 50H81V53H84V50Z" fill="#12A8B1"/>
<path d="M90 53H87V56H90V53Z" fill="#12A8B1"/>
<path d="M43.5 15C43.5 14.55 43.3 14.13 42.96 13.85L33.92 6.34999C33.28 5.81999 32.34 5.90999 31.81 6.54999C31.58 6.81999 31.46 7.16999 31.46 7.51999L31.49 10.51H12C11.17 10.51 10.5 11.18 10.5 12.01V27.01C10.5 27.84 11.17 28.51 12 28.51H18C18.83 28.51 19.5 27.84 19.5 27.01V19.51H31.5V22.51C31.5 23.34 32.17 24.01 33 24.01C33.35 24.01 33.69 23.89 33.96 23.66L42.96 16.16C43.3 15.87 43.5 15.44 43.5 15ZM34.5 19.3V18C34.5 17.17 33.83 16.5 33 16.5H18C17.17 16.5 16.5 17.17 16.5 18V25.5H13.5V13.5H33C33.83 13.5 34.5 12.83 34.5 12V11.99L34.49 10.72L39.65 15L34.5 19.3Z" fill="#12A8B1"/>
</svg>
