<svg width="90" height="90" viewBox="0 0 90 90" fill="none" xmlns="http://www.w3.org/2000/svg">
<path d="M21.8 43.63C22.26 42.65 22.5 41.58 22.5 40.5C22.5 36.36 19.14 33 15 33C10.86 33 7.5 36.36 7.5 40.5C7.5 41.58 7.74 42.65 8.2 43.63C3.47 44.42 0.01 48.51 0 53.3V67.5C0 68.33 0.67 69 1.5 69H6V88.5C6 89.33 6.67 90 7.5 90H22.5C23.33 90 24 89.33 24 88.5V69H28.5C29.33 69 30 68.33 30 67.5V53.3C29.99 48.51 26.53 44.42 21.8 43.63ZM27 66H24V51H21V87H16.5V66H13.5V87H9V51H6V66H3V53.3C3 49.55 6.05 46.5 9.8 46.5H11.07C11.9 46.5 12.57 45.83 12.57 45C12.57 44.57 12.38 44.16 12.06 43.87C11.07 43.03 10.5 41.8 10.5 40.5C10.5 38.01 12.51 36 15 36C17.49 36 19.5 38.01 19.5 40.5C19.5 41.8 18.93 43.03 17.94 43.87C17.32 44.42 17.25 45.36 17.8 45.99C18.08 46.32 18.5 46.5 18.93 46.5H20.2C23.95 46.5 27 49.55 27 53.3V66Z" fill="#238DDD"/>
<path d="M67.5 13.5C67.5 14.33 68.17 15 69 15C69.83 15 70.5 14.33 70.5 13.5C70.5 11.02 72.52 9 75 9C75.83 9 76.5 8.33 76.5 7.5C76.5 6.67 75.83 6 75 6C72.52 6 70.5 3.98 70.5 1.5C70.5 0.67 69.83 0 69 0C68.17 0 67.5 0.67 67.5 1.5C67.5 3.98 65.48 6 63 6C62.17 6 61.5 6.67 61.5 7.5C61.5 8.33 62.17 9 63 9C65.48 9 67.5 11.02 67.5 13.5ZM69 6C69.43 6.57 69.93 7.08 70.5 7.5C69.93 7.93 69.43 8.43 69 9C68.57 8.43 68.07 7.92 67.5 7.5C68.07 7.07 68.57 6.57 69 6Z" fill="#F9E37E"/>
<path d="M88.5 79.4998H82.5V74.9998C82.5 74.1698 81.83 73.4998 81 73.4998H78V37.8998L89.8 17.2498C90.19 16.5698 89.99 15.6998 89.33 15.2598L84.83 12.2598C84.48 12.0298 84.06 11.9598 83.66 12.0498C83.26 12.1398 82.91 12.3998 82.7 12.7598L75.98 24.2798C74.47 20.4198 70.12 18.5198 66.26 20.0298C64.31 20.7898 62.77 22.3298 62.01 24.2798L55.3 12.7398C54.88 12.0198 53.97 11.7798 53.25 12.1998C53.22 12.2198 53.2 12.2298 53.17 12.2498L48.67 15.2498C48.01 15.6898 47.81 16.5598 48.2 17.2398L60 37.8998V73.4998H57C56.17 73.4998 55.5 74.1698 55.5 74.9998V79.4998H49.5C48.67 79.4998 48 80.1698 48 80.9998V89.9998H51V82.4998H57C57.83 82.4998 58.5 81.8298 58.5 80.9998V76.4998H79.5V80.9998C79.5 81.8298 80.17 82.4998 81 82.4998H87V89.9998H90V80.9998C90 80.1698 89.33 79.4998 88.5 79.4998ZM75 37.4998V73.4998H70.5V55.4998H67.5V73.4998H63V37.4998C63 37.2398 62.93 36.9798 62.8 36.7598L51.5 16.9698L53.51 15.6298L63.21 32.2498C63.48 32.7098 63.97 32.9898 64.51 32.9898H65.08C65.91 32.9898 66.58 32.3198 66.58 31.4898C66.58 31.0598 66.39 30.6498 66.07 30.3598C65.07 29.5298 64.5 28.2998 64.5 26.9998C64.5 24.5098 66.51 22.4998 69 22.4998C71.49 22.4998 73.5 24.5098 73.5 26.9998C73.5 28.2998 72.93 29.5298 71.94 30.3698C71.32 30.9198 71.25 31.8598 71.8 32.4898C72.08 32.8198 72.5 32.9998 72.93 32.9998H73.5C74.03 32.9998 74.53 32.7198 74.8 32.2598L84.5 15.6398L86.51 16.9798L75.2 36.7598C75.07 36.9798 75 37.2398 75 37.4998Z" fill="#35B1D1"/>
<path d="M45 34.5H42V37.5H45V34.5Z" fill="#238DDD"/>
<path d="M51 37.5H48V40.5H51V37.5Z" fill="#238DDD"/>
<path d="M57 40.5H54V43.5H57V40.5Z" fill="#238DDD"/>
<path d="M45 45H42V48H45V45Z" fill="#35B1D1"/>
<path d="M51 48H48V51H51V48Z" fill="#35B1D1"/>
<path d="M57 51H54V54H57V51Z" fill="#35B1D1"/>
<path d="M84 39.5H81V42.5H84V39.5Z" fill="#238DDD"/>
<path d="M90 42.5H87V45.5H90V42.5Z" fill="#238DDD"/>
<path d="M84 50H81V53H84V50Z" fill="#35B1D1"/>
<path d="M90 53H87V56H90V53Z" fill="#35B1D1"/>
<path d="M43.5 14.9999C43.5 14.5499 43.3 14.1299 42.96 13.8499L33.92 6.34987C33.28 5.81987 32.34 5.90987 31.81 6.54987C31.58 6.81987 31.46 7.16987 31.46 7.51987L31.49 10.5099H12C11.17 10.5099 10.5 11.1799 10.5 12.0099V27.0099C10.5 27.8399 11.17 28.5099 12 28.5099H18C18.83 28.5099 19.5 27.8399 19.5 27.0099V19.5099H31.5V22.5099C31.5 23.3399 32.17 24.0099 33 24.0099C33.35 24.0099 33.69 23.8899 33.96 23.6599L42.96 16.1599C43.3 15.8699 43.5 15.4399 43.5 14.9999ZM34.5 19.2999V17.9999C34.5 17.1699 33.83 16.4999 33 16.4999H18C17.17 16.4999 16.5 17.1699 16.5 17.9999V25.4999H13.5V13.4999H33C33.83 13.4999 34.5 12.8299 34.5 11.9999V11.9899L34.49 10.7199L39.65 14.9999L34.5 19.2999Z" fill="#35B1D1"/>
</svg>
