<svg width="657" height="1208" viewBox="0 0 657 1208" fill="none" xmlns="http://www.w3.org/2000/svg">
<mask id="mask0_977_398" style="mask-type:alpha" maskUnits="userSpaceOnUse" x="0" y="0" width="657" height="1208">
<rect width="657" height="1208" fill="#C4C4C4"/>
</mask>
<g mask="url(#mask0_977_398)">
<path opacity="0.5" d="M-136.714 -201.305C-138.118 -205.315 -141.903 -208 -146.152 -208H-240.07C-246.292 -208 -251.003 -202.379 -249.916 -196.253L0.376393 1214.75C1.22333 1219.52 5.37361 1223 10.2227 1223H347.903C354.792 1223 359.618 1216.2 357.341 1209.7L-136.714 -201.305Z" fill="url(#paint0_linear_977_398)"/>
<path opacity="0.5" d="M-89.0985 -216.36C-90.7696 -219.809 -94.2651 -222 -98.0978 -222H-235.249C-241.737 -222 -246.507 -215.917 -244.96 -209.616L101.125 1200.38C102.223 1204.86 106.232 1208 110.837 1208H585.043C592.423 1208 597.26 1200.28 594.043 1193.64L-89.0985 -216.36Z" fill="url(#paint1_linear_977_398)"/>
</g>
<defs>
<linearGradient id="paint0_linear_977_398" x1="55" y1="-208" x2="55" y2="1223" gradientUnits="userSpaceOnUse">
<stop stop-color="#D9EB41"/>
<stop offset="1" stop-color="#D9EB41" stop-opacity="0"/>
</linearGradient>
<linearGradient id="paint1_linear_977_398" x1="176.5" y1="-222" x2="176.5" y2="1208" gradientUnits="userSpaceOnUse">
<stop stop-color="#D9EB41"/>
<stop offset="1" stop-color="#D9EB41" stop-opacity="0"/>
</linearGradient>
</defs>
</svg>
