<svg width="90" height="90" viewBox="0 0 90 90" fill="none" xmlns="http://www.w3.org/2000/svg">
<circle cx="49.6193" cy="61.1905" r="8.58208" stroke="#35B1D1" stroke-width="4"/>
<circle cx="36.3918" cy="61.1905" r="8.58208" stroke="#35B1D1" stroke-width="4"/>
<path d="M49.6193 37.3806V52.3719" stroke="#35B1D1" stroke-width="4"/>
<path d="M36.3918 70.0088V85.0001" stroke="#35B1D1" stroke-width="4"/>
<path d="M43.4465 48.8445L55.4911 40.908M55.7922 48.8445L43.7476 40.908" stroke="#35B1D1" stroke-width="4"/>
<path d="M43.4465 78.8271H30.2189" stroke="#35B1D1" stroke-width="4"/>
<path d="M13.6039 46.219L13.5753 46.2008L13.546 46.184L10.4892 44.428L13.5419 42.6563L13.5512 42.6509L13.5605 42.6453C13.8701 42.4597 14.1355 42.1944 14.3214 41.8847L14.3269 41.8755L14.3323 41.8662L16.1058 38.8133L17.8576 41.86C18.0511 42.2063 18.3367 42.4918 18.6831 42.6852L21.7247 44.4325L18.6919 46.1787C18.2936 46.4015 18.0528 46.7083 17.9084 46.9351L17.8902 46.9637L17.8733 46.993L16.1143 50.0522L14.3611 47.003C14.138 46.6042 13.8309 46.3634 13.6039 46.219ZM16.8187 51.2773L16.8186 51.277L16.8187 51.2773Z" stroke="#F9E37E" stroke-width="3"/>
<path d="M75.9346 77.9653L75.9631 77.9472L75.9925 77.9303L79.0492 76.1743L75.9965 74.4026L75.9872 74.3972L75.978 74.3917C75.6683 74.206 75.4029 73.9407 75.2171 73.6311L75.2115 73.6219L75.2061 73.6125L73.4326 70.5597L71.6809 73.6064C71.4873 73.9527 71.2018 74.2381 70.8553 74.4316L67.8137 76.1788L70.8466 77.925C71.2449 78.1479 71.4856 78.4546 71.6301 78.6815L71.6483 78.71L71.6651 78.7394L73.4241 81.7985L75.1773 78.7494C75.4004 78.3506 75.7076 78.1097 75.9346 77.9653ZM72.7197 83.0236L72.7198 83.0234L72.7197 83.0236Z" stroke="#238DDD" stroke-width="3"/>
<path d="M7.7283 30.0464L8.65616 31.5357C8.88496 31.9249 9.20842 32.1437 9.41967 32.2555C9.42042 32.2559 9.42117 32.2563 9.42192 32.2567L10.7684 32.9715L9.44113 33.676C9.05381 33.8695 8.80978 34.1599 8.66974 34.3854C8.66923 34.3862 8.66872 34.387 8.6682 34.3879L7.73197 35.8906L6.80776 34.4072C6.57911 34.0183 6.25588 33.7994 6.04426 33.6874C6.04351 33.687 6.04277 33.6866 6.04203 33.6862L4.68792 32.9674L6.01628 32.2561C6.39963 32.0636 6.64218 31.7762 6.78221 31.5518L7.7283 30.0464Z" stroke="#238DDD" stroke-width="3"/>
<path d="M81.8102 61.7927L80.8823 63.2821C80.6535 63.6712 80.33 63.8901 80.1188 64.0018C80.118 64.0022 80.1173 64.0026 80.1165 64.003L78.7701 64.7178L80.0973 65.4224C80.4846 65.6158 80.7287 65.9063 80.8687 66.1317C80.8692 66.1325 80.8697 66.1334 80.8702 66.1342L81.8065 67.637L82.7307 66.1535C82.9593 65.7647 83.2826 65.5457 83.4942 65.4337C83.4949 65.4334 83.4957 65.433 83.4964 65.4326L84.8505 64.7138L83.5222 64.0024C83.1388 63.8099 82.8963 63.5226 82.7562 63.2981L81.8102 61.7927Z" stroke="#F9E37E" stroke-width="3"/>
</svg>
