<svg width="97" height="65" viewBox="0 0 97 65" fill="none" xmlns="http://www.w3.org/2000/svg">
<circle cx="54" cy="38" r="10" stroke="#12A8B1" stroke-width="4"/>
<circle cx="39" cy="38" r="10" stroke="#12A8B1" stroke-width="4"/>
<path d="M54 11V28" stroke="#12A8B1" stroke-width="4"/>
<path d="M39 48V65" stroke="#12A8B1" stroke-width="4"/>
<path d="M47 24L60.6585 15M61 24L47.3415 15" stroke="#12A8B1" stroke-width="4"/>
<path d="M47 58H32" stroke="#12A8B1" stroke-width="4"/>
<path d="M13.0508 21.1922L13.0223 21.1741L12.993 21.1572L9.22476 18.9926L12.9876 16.8087L12.9969 16.8033L13.0061 16.7978C13.3289 16.6042 13.6063 16.327 13.8 16.0042L13.8056 15.995L13.811 15.9857L15.9968 12.223L18.1573 15.9806C18.3588 16.3416 18.6564 16.6391 19.0176 16.8405L22.7709 18.9965L19.0277 21.1518C18.6146 21.3826 18.3632 21.7013 18.2095 21.9427L18.1913 21.9712L18.1745 22.0006L16.0056 25.7727L13.8426 22.0109C13.6116 21.5973 13.2923 21.3458 13.0508 21.1922Z" stroke="#FFC53D" stroke-width="3"/>
<path d="M83.9492 57.1922L83.9777 57.1741L84.007 57.1572L87.7752 54.9926L84.0124 52.8087L84.0031 52.8033L83.9939 52.7978C83.6711 52.6042 83.3937 52.327 83.2 52.0042L83.1944 51.995L83.189 51.9857L81.0032 48.223L78.8427 51.9806C78.6412 52.3416 78.3436 52.6391 77.9824 52.8405L74.2291 54.9965L77.9723 57.1518C78.3854 57.3826 78.6368 57.7013 78.7905 57.9427L78.8087 57.9712L78.8255 58.0006L80.9944 61.7727L83.1574 58.0109C83.3884 57.5973 83.7077 57.3458 83.9492 57.1922Z" stroke="#136E90" stroke-width="3"/>
<path d="M6.49659 2.30409L7.72006 4.26793C7.95436 4.66754 8.28753 4.89391 8.508 5.01053C8.50872 5.01091 8.50945 5.0113 8.51017 5.01168L10.3719 6L8.53014 6.97772C8.13159 7.17621 7.8794 7.47556 7.73405 7.70963C7.73356 7.71042 7.73307 7.71121 7.73259 7.71199L6.50001 9.69043L5.27993 7.73207C5.04578 7.33272 4.71286 7.10628 4.49201 6.98946C4.49129 6.98908 4.49057 6.9887 4.48985 6.98832L2.62088 5.99619L4.46199 5.01027C4.85665 4.81275 5.10736 4.51638 5.25269 4.28334L6.49659 2.30409Z" stroke="#136E90" stroke-width="3"/>
<path d="M90.5034 38.3041L89.2799 40.2679C89.0456 40.6675 88.7125 40.8939 88.492 41.0105C88.4913 41.0109 88.4906 41.0113 88.4898 41.0117L86.6281 42L88.4699 42.9777C88.8684 43.1762 89.1206 43.4756 89.2659 43.7096C89.2664 43.7104 89.2669 43.7112 89.2674 43.712L90.5 45.6904L91.7201 43.7321C91.9542 43.3327 92.2871 43.1063 92.508 42.9895C92.5087 42.9891 92.5094 42.9887 92.5101 42.9883L94.3791 41.9962L92.538 41.0103C92.1433 40.8128 91.8926 40.5164 91.7473 40.2833L90.5034 38.3041Z" stroke="#FFC53D" stroke-width="3"/>
</svg>
