<svg width="25" height="24" viewBox="0 0 25 24" fill="none" xmlns="http://www.w3.org/2000/svg">
<path fill-rule="evenodd" clip-rule="evenodd" d="M12.2969 0C5.50719 0 0 5.50719 0 12.2969C0 17.7286 3.54573 22.3305 8.37395 23.9902C8.97748 24.0657 9.2038 23.6885 9.2038 23.3867C9.2038 23.0849 9.2038 22.3305 9.2038 21.2744C5.80896 22.0288 5.05455 19.6147 5.05455 19.6147C4.52646 18.1813 3.69661 17.8041 3.69661 17.8041C2.56499 17.0497 3.77205 17.0497 3.77205 17.0497C4.97911 17.1251 5.65808 18.3322 5.65808 18.3322C6.78969 20.2182 8.52483 19.6901 9.2038 19.3883C9.27924 18.5585 9.65645 18.0304 9.95821 17.7286C7.24234 17.4269 4.37558 16.3707 4.37558 11.6179C4.37558 10.26 4.82822 9.2038 5.65808 8.29851C5.58263 8.07219 5.12999 6.78969 5.80896 5.12999C5.80896 5.12999 6.86513 4.82822 9.2038 6.41249C10.1845 6.11072 11.2407 6.03528 12.2969 6.03528C13.3531 6.03528 14.4092 6.18616 15.39 6.41249C17.7286 4.82822 18.7848 5.12999 18.7848 5.12999C19.4638 6.78969 19.0111 8.07219 18.9357 8.37395C19.6901 9.2038 20.2182 10.3354 20.2182 11.6934C20.2182 16.4461 17.3514 17.4269 14.6356 17.7286C15.0882 18.1058 15.4654 18.8603 15.4654 19.9919C15.4654 21.6516 15.4654 22.9341 15.4654 23.3867C15.4654 23.6885 15.6917 24.0657 16.2953 23.9902C21.1989 22.3305 24.6692 17.7286 24.6692 12.2969C24.5938 5.50719 19.0866 0 12.2969 0Z" fill="white"/>
</svg>
