<svg width="194" height="68" viewBox="0 0 194 68" fill="none" xmlns="http://www.w3.org/2000/svg">
<g filter="url(#filter0_d_977_406)">
<path d="M188.979 47.4702C189.246 47.6476 189.467 47.8844 189.627 48.1621C189.786 48.4398 189.878 48.7507 189.897 49.0703C189.915 49.3898 189.859 49.7093 189.733 50.0035C189.606 50.2976 189.414 50.5584 189.169 50.7652L185.004 54.3052C181.243 57.4972 176.544 59.3767 171.619 59.6591C166.694 59.9415 161.811 58.6114 157.709 55.8702C156.915 55.3402 156.255 54.6327 155.781 53.8038C155.307 52.9748 155.032 52.0471 154.979 51.0937C154.925 50.1404 155.093 49.1876 155.471 48.3106C155.848 47.4336 156.425 46.6563 157.154 46.0402C160.897 42.8691 165.566 40.9959 170.462 40.7012C175.358 40.4064 180.219 41.706 184.314 44.4052L188.979 47.4702Z" fill="#367B55"/>
<path d="M166.406 1.05095C166.717 0.980299 167.04 0.983164 167.35 1.05931C167.659 1.13545 167.947 1.28275 168.19 1.48954C168.432 1.69634 168.623 1.95691 168.748 2.25053C168.872 2.54415 168.926 2.86274 168.906 3.18095L168.551 8.64099C168.23 13.5644 166.315 18.2493 163.094 21.987C159.873 25.7246 155.523 28.3114 150.701 29.356V29.356C149.768 29.5563 148.801 29.5372 147.877 29.3003C146.952 29.0635 146.096 28.6152 145.374 27.9909C144.652 27.3666 144.085 26.5833 143.718 25.7027C143.35 24.822 143.192 23.8681 143.256 22.916C143.579 18.0211 145.478 13.3624 148.67 9.6372C151.861 5.91198 156.174 3.3206 160.961 2.25096L166.406 1.05095Z" fill="#367B55" stroke="#367B55" stroke-miterlimit="10" stroke-linecap="round"/>
<path d="M13.42 6.72582C18.0271 8.48819 21.9346 11.7036 24.5509 15.8852C27.1672 20.0668 28.3499 24.9869 27.92 29.9008V29.9008C27.8396 30.8537 27.5388 31.7749 27.0414 32.5916C26.544 33.4083 25.8635 34.0982 25.0537 34.6069C24.244 35.1155 23.3271 35.429 22.3754 35.5225C21.4237 35.6161 20.4633 35.4871 19.57 35.1458C15.2851 33.5021 11.599 30.5983 8.99787 26.8171C6.39678 23.036 5.00287 18.5552 5 13.9658C5 13.3558 5.03001 12.7408 5.07501 12.1158L5.52002 6.53081C5.54649 6.21206 5.64663 5.90385 5.81256 5.63042C5.97849 5.35698 6.20565 5.12583 6.47617 4.95519C6.74668 4.78454 7.05313 4.67907 7.37137 4.64708C7.68961 4.61509 8.01093 4.65741 8.31 4.7708L13.42 6.72582Z" fill="#367B55" stroke="#367B55" stroke-miterlimit="10" stroke-linecap="round"/>
</g>
<defs>
<filter id="filter0_d_977_406" x="0.5" y="0.5" width="193.4" height="67.1963" filterUnits="userSpaceOnUse" color-interpolation-filters="sRGB">
<feFlood flood-opacity="0" result="BackgroundImageFix"/>
<feColorMatrix in="SourceAlpha" type="matrix" values="0 0 0 0 0 0 0 0 0 0 0 0 0 0 0 0 0 0 127 0" result="hardAlpha"/>
<feOffset dy="4"/>
<feGaussianBlur stdDeviation="2"/>
<feComposite in2="hardAlpha" operator="out"/>
<feColorMatrix type="matrix" values="0 0 0 0 0 0 0 0 0 0 0 0 0 0 0 0 0 0 0.25 0"/>
<feBlend mode="normal" in2="BackgroundImageFix" result="effect1_dropShadow_977_406"/>
<feBlend mode="normal" in="SourceGraphic" in2="effect1_dropShadow_977_406" result="shape"/>
</filter>
</defs>
</svg>
