<svg width="186" height="60" viewBox="0 0 186 60" fill="none" xmlns="http://www.w3.org/2000/svg">
<path d="M184.979 47.4702C185.246 47.6476 185.467 47.8844 185.627 48.1621C185.786 48.4398 185.878 48.7507 185.897 49.0703C185.915 49.3898 185.859 49.7093 185.733 50.0035C185.606 50.2976 185.414 50.5584 185.169 50.7652L181.004 54.3052C177.243 57.4972 172.544 59.3767 167.619 59.6591C162.694 59.9415 157.811 58.6114 153.709 55.8702C152.915 55.3402 152.255 54.6327 151.781 53.8038C151.307 52.9748 151.032 52.0471 150.979 51.0937C150.925 50.1404 151.093 49.1876 151.471 48.3106C151.848 47.4336 152.425 46.6563 153.154 46.0402C156.897 42.8691 161.566 40.9959 166.462 40.7012C171.358 40.4064 176.219 41.706 180.314 44.4052L184.979 47.4702Z" fill="#367B55"/>
<path d="M162.406 1.05095C162.717 0.980299 163.04 0.983164 163.35 1.05931C163.659 1.13545 163.947 1.28275 164.19 1.48954C164.432 1.69634 164.623 1.95691 164.748 2.25053C164.872 2.54415 164.926 2.86274 164.906 3.18095L164.551 8.64099C164.23 13.5644 162.315 18.2493 159.094 21.987C155.873 25.7246 151.523 28.3114 146.701 29.356C145.768 29.5563 144.801 29.5372 143.877 29.3003C142.952 29.0634 142.096 28.6152 141.374 27.9909C140.652 27.3666 140.085 26.5833 139.718 25.7027C139.35 24.822 139.192 23.8681 139.256 22.916C139.579 18.0211 141.478 13.3624 144.67 9.6372C147.861 5.91198 152.174 3.3206 156.961 2.25096L162.406 1.05095Z" fill="#367B55" stroke="#367B55" stroke-miterlimit="10" stroke-linecap="round"/>
<path d="M9.42002 6.72582C14.0271 8.48819 17.9346 11.7036 20.5509 15.8852C23.1672 20.0668 24.3499 24.9869 23.92 29.9008C23.8396 30.8537 23.5388 31.7749 23.0414 32.5916C22.544 33.4083 21.8635 34.0982 21.0537 34.6069C20.244 35.1155 19.3271 35.429 18.3754 35.5225C17.4237 35.6161 16.4633 35.4871 15.57 35.1458C11.2851 33.5021 7.59895 30.5983 4.99787 26.8171C2.39678 23.036 1.00287 18.5552 1 13.9658C1 13.3558 1.03001 12.7408 1.07501 12.1158L1.52002 6.53081C1.54649 6.21206 1.64663 5.90385 1.81256 5.63042C1.97849 5.35698 2.20565 5.12583 2.47617 4.95519C2.74668 4.78454 3.05313 4.67907 3.37137 4.64708C3.68961 4.61509 4.01093 4.65741 4.31 4.7708L9.42002 6.72582Z" fill="#367B55" stroke="#367B55" stroke-miterlimit="10" stroke-linecap="round"/>
</svg>
