<svg width="90" height="90" viewBox="0 0 90 90" fill="none" xmlns="http://www.w3.org/2000/svg">
<g clip-path="url(#clip0_949_475)">
<path d="M78.0188 83.4876H12.9814C11.1072 83.4876 9.36157 81.7808 9.36157 79.3778V35.6098C9.36157 33.2069 11.1072 31.5 12.9814 31.5H78.0188C79.893 31.5 81.6386 33.2069 81.6386 35.6098V79.3778C81.6386 81.7808 79.893 83.4876 78.0188 83.4876Z" stroke="#238DDD" stroke-width="3"/>
<path d="M83.4247 88H7.57814V86.9736H83.4247V88Z" stroke="#238DDD" stroke-width="4"/>
</g>
<g clip-path="url(#clip1_949_475)">
<path d="M51.5465 66.7379C56.482 64.7388 59.6813 59.9167 59.6024 54.6039C59.6024 47.298 53.2767 41.3552 45.5 41.3552C37.7233 41.3552 31.3976 47.298 31.3976 54.6039C31.3186 59.9167 34.518 64.7388 39.4535 66.7379L39.5628 66.7985L40.3095 68.0222C38.9739 68.7915 38.5247 70.4938 39.2957 71.8266C39.3989 72.0022 39.5203 72.1658 39.6538 72.3112C38.6097 73.4561 38.6886 75.2251 39.836 76.267C40.358 76.7395 41.038 77 41.7422 77H49.2578C50.8059 77.0061 52.0686 75.7582 52.0747 74.2134C52.0807 73.5107 51.8136 72.8322 51.3401 72.3112C52.3782 71.1784 52.3053 69.4216 51.1701 68.3796C51.0183 68.2403 50.8544 68.1252 50.6844 68.0222L51.4312 66.7985L51.5465 66.7379ZM49.2578 75.1221H41.7422C41.2201 75.1221 40.8012 74.7041 40.8012 74.1831C40.8012 73.6621 41.2201 73.2441 41.7422 73.2441H49.2578C49.7799 73.2441 50.1988 73.6621 50.1988 74.1831C50.1988 74.7041 49.7799 75.1221 49.2578 75.1221ZM49.2578 71.3722H41.7422C41.2201 71.3722 40.8012 70.9542 40.8012 70.4332C40.8012 69.9123 41.2201 69.4943 41.7422 69.4943H49.2578C49.7799 69.4943 50.1988 69.9123 50.1988 70.4332C50.1988 70.9482 49.7799 71.3722 49.2578 71.3722ZM50.6905 65.0659L50.3141 65.2719C50.1684 65.3506 50.047 65.4657 49.962 65.6051L48.7357 67.6163H48.3229V60.5043L52.7485 56.0881L51.419 54.7614L46.7202 59.4502C46.5442 59.6259 46.447 59.8622 46.447 60.1105V67.6163H44.5651V60.1166C44.5651 59.8682 44.468 59.632 44.2919 59.4563L39.5931 54.7675L38.2636 56.0941L42.6892 60.5104V67.6284H42.2764L41.044 65.6172C40.9591 65.4779 40.8376 65.3628 40.6919 65.284L40.3155 65.078C40.2852 65.0599 40.2548 65.0477 40.2245 65.0356C35.9749 63.3273 33.2188 59.1897 33.2856 54.616C33.2856 48.3461 38.7675 43.2453 45.5061 43.2453C52.2446 43.2453 57.7266 48.3461 57.7266 54.616C57.7994 59.1837 55.0433 63.3273 50.7937 65.0356C50.7512 65.0356 50.7209 65.0477 50.6905 65.0659Z" fill="#35B1D1"/>
<path d="M25.3389 43.1302L26.1828 41.4521L31.8225 44.263L30.9787 45.9411L25.3389 43.1302Z" fill="#F9E37E"/>
<path d="M58.9589 43.8026L64.9386 41.8096L65.5336 43.5906L59.5539 45.5837L58.9589 43.8026Z" fill="#F9E37E"/>
<path d="M27.6398 53.5498H22V55.4278H27.6398V53.5498Z" fill="#F9E37E"/>
<path d="M63.3602 53.5498L69 54.7614V56.6333L63.3602 55.4217V53.5498Z" fill="#F9E37E"/>
<path d="M25.3389 67.7191L30.9787 64.9082L31.8165 66.5862L26.1767 69.3971L25.3389 67.7191Z" fill="#F9E37E"/>
<path d="M59.1775 66.5862L60.0153 64.9082L65.655 67.7251L64.8112 69.4032L59.1775 66.5862Z" fill="#F9E37E"/>
<path d="M46.441 36H44.559V39.4772H46.441V36Z" fill="#F9E37E"/>
</g>
<defs>
<clipPath id="clip0_949_475">
<rect width="87" height="60" fill="white" transform="translate(2 30)"/>
</clipPath>
<clipPath id="clip1_949_475">
<rect width="47" height="41" fill="white" transform="translate(22 36)"/>
</clipPath>
</defs>
</svg>
