<svg width="87" height="60" viewBox="0 0 87 60" fill="none" xmlns="http://www.w3.org/2000/svg">
<g clip-path="url(#clip0)">
<path d="M76.0188 53.4876H10.9814C9.10722 53.4876 7.36157 51.7808 7.36157 49.3778V5.60984C7.36157 3.20685 9.10722 1.5 10.9814 1.5H76.0188C77.893 1.5 79.6386 3.20685 79.6386 5.60984V49.3778C79.6386 51.7808 77.893 53.4876 76.0188 53.4876Z" stroke="#136E90" stroke-width="3"/>
<path d="M81.4246 58H5.57812V56.9735H81.4246V58Z" stroke="#136E90" stroke-width="4"/>
</g>
<g clip-path="url(#clip1)">
<path d="M49.5465 36.7378C54.482 34.7387 57.6813 29.9166 57.6024 24.6038C57.6024 17.298 51.2766 11.3552 43.5 11.3552C35.7233 11.3552 29.3975 17.298 29.3975 24.6038C29.3186 29.9166 32.5179 34.7387 37.4535 36.7378L37.5627 36.7984L38.3095 38.0221C36.9739 38.7915 36.5246 40.4938 37.2956 41.8265C37.3988 42.0022 37.5203 42.1657 37.6538 42.3111C36.6096 43.4561 36.6886 45.225 37.8359 46.267C38.358 46.7395 39.038 47 39.7422 47H47.2578C48.8058 47.006 50.0686 45.7581 50.0746 44.2133C50.0807 43.5106 49.8136 42.8321 49.3401 42.3111C50.3782 41.1783 50.3053 39.4215 49.1701 38.3795C49.0183 38.2402 48.8544 38.1251 48.6844 38.0221L49.4311 36.7984L49.5465 36.7378ZM47.2578 45.122H39.7422C39.2201 45.122 38.8012 44.704 38.8012 44.183C38.8012 43.662 39.2201 43.2441 39.7422 43.2441H47.2578C47.7799 43.2441 48.1988 43.662 48.1988 44.183C48.1988 44.704 47.7799 45.122 47.2578 45.122ZM47.2578 41.3722H39.7422C39.2201 41.3722 38.8012 40.9542 38.8012 40.4332C38.8012 39.9122 39.2201 39.4942 39.7422 39.4942H47.2578C47.7799 39.4942 48.1988 39.9122 48.1988 40.4332C48.1988 40.9481 47.7799 41.3722 47.2578 41.3722ZM48.6905 35.0659L48.3141 35.2718C48.1684 35.3506 48.047 35.4657 47.962 35.605L46.7357 37.6162H46.3229V30.5042L50.7485 26.088L49.419 24.7613L44.7202 29.4502C44.5442 29.6258 44.447 29.8621 44.447 30.1105V37.6162H42.5651V30.1165C42.5651 29.8682 42.4679 29.6319 42.2919 29.4562L37.5931 24.7674L36.2636 26.0941L40.6892 30.5103V37.6284H40.2764L39.044 35.6171C38.959 35.4778 38.8376 35.3627 38.6919 35.2839L38.3155 35.078C38.2852 35.0598 38.2548 35.0477 38.2245 35.0356C33.9749 33.3272 31.2188 29.1897 31.2856 24.6159C31.2856 18.346 36.7675 13.2452 43.506 13.2452C50.2446 13.2452 55.7265 18.346 55.7265 24.6159C55.7994 29.1836 53.0432 33.3272 48.7937 35.0356C48.7512 35.0356 48.7208 35.0477 48.6905 35.0659Z" fill="#12A8B1"/>
<path d="M23.3389 13.1302L24.1828 11.4521L29.8225 14.263L28.9787 15.941L23.3389 13.1302Z" fill="#FFC53D"/>
<path d="M56.9589 13.8026L62.9386 11.8095L63.5336 13.5906L57.5539 15.5836L56.9589 13.8026Z" fill="#FFC53D"/>
<path d="M25.6398 23.5498H20V25.4278H25.6398V23.5498Z" fill="#FFC53D"/>
<path d="M61.3602 23.5498L67 24.7614V26.6333L61.3602 25.4217V23.5498Z" fill="#FFC53D"/>
<path d="M23.3389 37.7193L28.9787 34.9084L29.8165 36.5864L24.1767 39.3973L23.3389 37.7193Z" fill="#FFC53D"/>
<path d="M57.1775 36.5864L58.0153 34.9084L63.655 37.7253L62.8112 39.4034L57.1775 36.5864Z" fill="#FFC53D"/>
<path d="M44.441 6H42.559V9.47725H44.441V6Z" fill="#FFC53D"/>
</g>
<defs>
<clipPath id="clip0">
<rect width="87" height="60" fill="white"/>
</clipPath>
<clipPath id="clip1">
<rect width="47" height="41" fill="white" transform="translate(20 6)"/>
</clipPath>
</defs>
</svg>
