<svg width="160" height="168" viewBox="0 0 160 168" fill="none" xmlns="http://www.w3.org/2000/svg">
<path d="M25.2915 101.5C25.2915 101.5 17.3564 89.4347 23.5015 83.4997C29.6465 77.5647 35.6265 90.9147 35.6265 90.9147L39.9765 98.4497L32.4765 111.815C32.4765 111.815 27.2165 105.04 25.2915 101.5Z" fill="#EEEEEE"/>
<path d="M51.7081 149.46L42.1131 149.456C41.2194 149.456 40.3623 149.101 39.7305 148.468C39.0987 147.836 38.744 146.979 38.7443 146.085L38.747 138.455L55.082 138.461L55.0793 146.091C55.079 146.985 54.7236 147.842 54.0914 148.473C53.4592 149.105 52.6019 149.46 51.7081 149.46Z" fill="#EEEEEE"/>
<path d="M113.173 149.488L103.527 149.485C102.628 149.484 101.766 149.127 101.131 148.491C100.495 147.855 100.138 146.992 100.139 146.093L100.141 138.483L116.566 138.489L116.564 146.099C116.563 146.998 116.206 147.86 115.57 148.496C114.934 149.131 114.072 149.488 113.173 149.488Z" fill="black"/>
<path d="M56.3071 58.3601C56.3071 58.3601 34.8571 41.4701 27.3871 50.7401C18.8021 61.3901 46.6171 73.2701 46.6171 73.2701L56.3071 58.3601Z" fill="#F6CBCA"/>
<path d="M33.801 52.8101C31.946 52.8101 31.416 53.4651 31.161 53.7801C30.501 54.6001 30.541 55.0651 30.661 55.5051C31.221 57.7551 36.066 62.7001 44.851 67.1051L49.731 59.6051C44.821 56.3401 38.136 52.8201 33.811 52.8201L33.801 52.8101ZM33.811 47.9701C43.106 47.9701 56.311 58.3701 56.311 58.3701L46.621 73.2801C46.621 73.2801 18.806 61.4001 27.391 50.7501C29.001 48.7501 31.256 47.9701 33.811 47.9701Z" fill="black"/>
<path d="M48.7546 53.1851C46.5745 50.0648 44.9068 46.6164 43.8146 42.97C43.6707 42.5027 43.6712 42.0028 43.8159 41.5357C43.9607 41.0687 44.243 40.6562 44.6259 40.3521C45.0088 40.048 45.4746 39.8665 45.9623 39.8314C46.45 39.7962 46.937 39.909 47.3596 40.155C50.5596 42.065 54.7296 44.885 57.6746 48.08C63.0946 53.9651 48.7546 53.1851 48.7546 53.1851Z" fill="#F4C25D"/>
<path d="M53.348 146.5C56.8298 147.401 60.3676 148.069 63.938 148.5C69.3976 149.163 74.8935 149.48 80.393 149.45C85.1717 149.471 89.9482 149.242 94.703 148.765C130.113 145.11 128.923 127.875 128.923 127.875C128.923 127.875 128.923 112.815 128.543 106.285C128.013 97.2551 126.733 83.8901 123.683 71.4201C122.273 65.6836 119.374 60.4208 115.278 56.1637C111.182 51.9066 106.036 48.8059 100.358 47.1751C92.1189 44.8028 83.5223 43.9206 74.973 44.5701H74.948C70.1381 44.9266 65.376 45.7641 60.733 47.0701L60.613 47.1101C54.9332 48.7137 49.7778 51.7894 45.6687 56.0258C41.5596 60.2622 38.6426 65.509 37.213 71.2351C36.2709 75.5488 35.5615 79.9101 35.088 84.3001C33.213 99.2501 31.738 120.175 31.738 127.8C31.738 127.825 30.933 140.61 53.348 146.5Z" fill="white"/>
<path d="M63.9375 148.5C69.397 149.163 74.893 149.48 80.3925 149.45C85.1712 149.471 89.9477 149.242 94.7025 148.765C130.113 145.11 128.923 127.875 128.923 127.875C128.923 127.875 128.923 112.815 128.543 106.285C128.543 106.285 101.993 103.11 96.5075 122.785C96.0619 124.487 95.3892 126.122 94.5075 127.645C87.1725 140.015 69.9325 130.145 64.0725 148.075C64.0159 148.213 63.9707 148.355 63.9375 148.5Z" fill="black"/>
<path d="M35.0859 84.3151C46.1509 79.0851 45.226 63.0501 58.891 63.0551C75.216 63.0551 74.971 44.5551 74.971 44.5551H74.946C70.136 44.9115 65.3739 45.749 60.731 47.0551L60.6109 47.0951C54.9311 48.6987 49.7757 51.7743 45.6666 56.0107C41.5575 60.2472 38.6406 65.494 37.2109 71.2201C36.2677 75.5437 35.5584 79.915 35.0859 84.3151Z" fill="black"/>
<path d="M51.5 130V139.89C51.5052 142.219 52.1428 144.504 53.345 146.5C60.055 148.26 68.845 149.415 80.39 149.42C85.1687 149.441 89.9452 149.212 94.7 148.735V129.975C94.7008 129.183 94.6271 128.393 94.48 127.615C93.921 124.608 92.3298 121.89 89.981 119.931C87.6323 117.972 84.6734 116.895 81.615 116.885H64.615C61.1375 116.887 57.8032 118.27 55.3442 120.729C52.8852 123.188 51.5027 126.522 51.5 130Z" fill="#F6CBCA"/>
<path d="M51.5363 84.6251C54.5076 84.6251 56.9163 82.2164 56.9163 79.2451C56.9163 76.2738 54.5076 73.8651 51.5363 73.8651C48.565 73.8651 46.1563 76.2738 46.1563 79.2451C46.1563 82.2164 48.565 84.6251 51.5363 84.6251Z" fill="black"/>
<path d="M94.7394 84.6446C97.7107 84.6446 100.119 82.2359 100.119 79.2646C100.119 76.2933 97.7107 73.8846 94.7394 73.8846C91.7681 73.8846 89.3594 76.2933 89.3594 79.2646C89.3594 82.2359 91.7681 84.6446 94.7394 84.6446Z" fill="black"/>
<path d="M55.125 93.3348C55.125 86.8348 60.755 79.2498 73.155 79.2548C85.555 79.2598 90.97 86.8448 90.97 93.3498C90.97 99.8548 85.55 102.81 73.15 102.805C60.75 102.8 55.125 99.8348 55.125 93.3348Z" fill="#F6CBCA"/>
<path d="M76.725 92.94C77.7468 92.94 78.5751 91.814 78.5751 90.425C78.5751 89.036 77.7468 87.91 76.725 87.91C75.7033 87.91 74.875 89.036 74.875 90.425C74.875 91.814 75.7033 92.94 76.725 92.94Z" fill="black"/>
<path d="M65.9321 92.9347C66.9538 92.9347 67.7821 91.8087 67.7821 90.4197C67.7821 89.0307 66.9538 87.9047 65.9321 87.9047C64.9103 87.9047 64.082 89.0307 64.082 90.4197C64.082 91.8087 64.9103 92.9347 65.9321 92.9347Z" fill="black"/>
<path d="M109.639 62.65C108.979 61.8226 108.491 60.8709 108.206 59.8513C107.921 58.8317 107.844 57.7652 107.979 56.7152C108.114 55.6651 108.459 54.653 108.994 53.739C109.528 52.8251 110.241 52.0279 111.089 51.395C117.589 46.54 127.589 40.81 132.879 46.24C139.324 52.83 129.379 61.56 122.204 66.555C120.556 67.7037 118.533 68.1822 116.545 67.8934C114.556 67.6046 112.753 66.5702 111.499 65L109.639 62.65Z" fill="#F6CBCA"/>
<path d="M134.612 106.85C134.612 106.85 142.182 119.15 135.862 124.905C129.542 130.66 123.967 117.135 123.967 117.135L117.707 106.04L127.707 96.3397C127.707 96.3397 132.797 103.245 134.612 106.85Z" fill="white"/>
<path d="M67.761 139.85C67.9198 139.852 68.0773 139.822 68.2242 139.762C68.3711 139.702 68.5044 139.613 68.616 139.5L74.001 134.1C74.1136 133.988 74.203 133.854 74.2641 133.708C74.3251 133.561 74.3567 133.403 74.3569 133.244C74.3572 133.085 74.3261 132.928 74.2654 132.781C74.2048 132.634 74.1158 132.5 74.0035 132.388C73.8912 132.275 73.7579 132.186 73.6111 132.124C73.4642 132.063 73.3068 132.032 73.1478 132.032C72.9888 132.031 72.8313 132.062 72.6842 132.123C72.5372 132.184 72.4036 132.273 72.291 132.385L66.8911 137.785C66.7783 137.897 66.6888 138.03 66.6277 138.177C66.5666 138.324 66.5352 138.481 66.5352 138.64C66.5352 138.799 66.5666 138.956 66.6277 139.103C66.6888 139.25 66.7783 139.383 66.8911 139.495C67.0042 139.61 67.1397 139.701 67.2893 139.762C67.439 139.824 67.5995 139.853 67.761 139.85Z" fill="#EF928F"/>
<path d="M73.1611 139.855C73.4003 139.853 73.6336 139.781 73.8319 139.648C74.0302 139.514 74.1846 139.325 74.2759 139.104C74.3672 138.883 74.3912 138.64 74.345 138.405C74.2988 138.171 74.1844 137.955 74.0162 137.785L68.6211 132.385C68.3894 132.18 68.0882 132.071 67.7791 132.081C67.47 132.091 67.1761 132.218 66.9574 132.436C66.7387 132.655 66.6117 132.949 66.6021 133.258C66.5926 133.567 66.7013 133.868 66.9061 134.1L72.3011 139.5C72.5303 139.726 72.8391 139.854 73.1611 139.855Z" fill="#EF928F"/>
<path d="M100.58 95.4771L105.58 95.4789C107.883 95.4797 109.751 93.6134 109.751 91.3104L109.752 88.8504C109.753 86.5474 107.887 84.6797 105.584 84.6789L100.584 84.6772C98.2807 84.6764 96.4131 86.5427 96.4123 88.8457L96.4115 91.3057C96.4107 93.6087 98.277 95.4763 100.58 95.4771Z" fill="#F7D3D2"/>
<path d="M40.6543 95.5951H45.6543C47.9573 95.5951 49.8242 93.7281 49.8242 91.4251V88.9651C49.8242 86.6621 47.9573 84.7952 45.6543 84.7952H40.6543C38.3513 84.7952 36.4843 86.6621 36.4843 88.9651V91.4251C36.4843 93.7281 38.3513 95.5951 40.6543 95.5951Z" fill="#F7D3D2"/>
<g opacity="0.75">
<path d="M78.9977 29.4997C94.7366 29.4997 107.495 26.9254 107.495 23.7498C107.495 20.5742 94.7366 17.9999 78.9977 17.9999C63.2589 17.9999 50.5 20.5742 50.5 23.7498C50.5 26.9254 63.2589 29.4997 78.9977 29.4997Z" fill="#F2F2FA"/>
<path opacity="0.1" d="M107.501 23.7499C107.501 26.9233 94.7412 29.4997 79.0078 29.4997V23.7499H107.501Z" fill="#6DD1E1"/>
<path opacity="0.1" d="M78.9975 17.9999V23.7498H50.5039C50.4997 20.57 63.2599 17.9999 78.9975 17.9999Z" fill="black"/>
</g>
<path d="M97.7522 21.0577L78 24.2499L97.7522 27.4421C101.514 27.7695 107.5 26.7057 107.5 24.2499C107.5 21.7941 101.514 20.7303 97.7522 21.0577Z" fill="white"/>
<path d="M60.4131 21.0577L80.5001 24.2499L60.4131 27.4421C56.587 27.7695 50.5 26.7057 50.5 24.2499C50.5 21.7941 56.587 20.7303 60.4131 21.0577Z" fill="white"/>
<path d="M79 31.4999L79 23.9999" stroke="#12314B" stroke-width="5" stroke-miterlimit="10" stroke-linecap="round"/>
<path d="M79.5 31.4999C59.5 31.4997 54.9997 43.3481 55 49.4999H104C104 43.3481 99.5 31.5 79.5 31.4999Z" fill="#F95A5A"/>
<path d="M110.658 54.9998C110.658 54.9998 115.158 49.1198 117.008 42.9998C117.155 42.5321 117.156 42.0309 117.012 41.5623C116.868 41.0937 116.586 40.6797 116.202 40.3749C115.818 40.0701 115.351 39.8888 114.862 39.8548C114.373 39.8209 113.885 39.9359 113.463 40.1848C110.263 42.0898 107.658 43.3448 104.713 46.5348C99.2879 52.4198 110.658 54.9998 110.658 54.9998Z" fill="#F4C25D"/>
<path d="M127.324 48.885C124.299 48.885 119.439 51.215 113.984 55.28C113.657 55.5219 113.382 55.828 113.177 56.1796C112.971 56.5311 112.839 56.9209 112.789 57.325C112.735 57.7325 112.763 58.1469 112.873 58.5431C112.983 58.9393 113.172 59.3091 113.429 59.63L115.294 61.97C115.778 62.5786 116.475 62.98 117.245 63.0924C118.014 63.2048 118.797 63.0198 119.434 62.575C127.004 57.305 129.909 53.23 130.104 51.17C130.134 50.865 130.174 50.41 129.414 49.63C129.142 49.3605 128.813 49.1541 128.452 49.0253C128.091 48.8966 127.706 48.8487 127.324 48.885ZM127.324 44.04C128.352 44.0044 129.376 44.1814 130.332 44.56C131.287 44.9386 132.155 45.5105 132.879 46.24C139.324 52.83 129.379 61.56 122.204 66.555C120.556 67.7037 118.533 68.1822 116.545 67.8934C114.556 67.6046 112.753 66.5702 111.499 65L109.639 62.665C108.979 61.8377 108.491 60.8859 108.206 59.8663C107.921 58.8467 107.844 57.7802 107.979 56.7302C108.114 55.6801 108.459 54.668 108.994 53.754C109.528 52.8401 110.241 52.0429 111.089 51.41C115.724 47.95 122.114 44.05 127.324 44.055V44.04Z" fill="white"/>
</svg>
