<svg width="370" height="146" viewBox="0 0 370 146" fill="none" xmlns="http://www.w3.org/2000/svg">
<path d="M210.455 121.26C210.774 121.258 211.089 121.331 211.375 121.471C211.662 121.612 211.911 121.817 212.105 122.07C212.299 122.324 212.431 122.618 212.492 122.931C212.553 123.244 212.54 123.567 212.455 123.875L211 129.145C209.678 133.897 206.843 138.089 202.924 141.086C199.006 144.084 194.218 145.722 189.285 145.755H189.26C188.306 145.761 187.363 145.545 186.506 145.124C185.649 144.704 184.902 144.09 184.323 143.331C183.743 142.573 183.348 141.69 183.168 140.753C182.988 139.815 183.028 138.849 183.285 137.93C184.603 133.205 187.417 129.034 191.305 126.042C195.193 123.05 199.945 121.399 204.85 121.335L210.455 121.26Z" fill="#367B55"/>
<path d="M152.501 105.93C152.719 105.697 152.989 105.518 153.288 105.408C153.587 105.298 153.908 105.259 154.225 105.294C154.542 105.329 154.847 105.438 155.114 105.612C155.382 105.786 155.605 106.02 155.766 106.295L158.541 111.01C161.036 115.267 162.078 120.22 161.507 125.121C160.937 130.022 158.787 134.605 155.381 138.175V138.175C154.722 138.865 153.912 139.393 153.015 139.716C152.117 140.039 151.157 140.15 150.209 140.038C149.262 139.927 148.353 139.596 147.555 139.073C146.757 138.55 146.092 137.849 145.611 137.025C143.135 132.794 142.095 127.875 142.647 123.004C143.199 118.132 145.312 113.57 148.671 110L152.501 105.93Z" fill="#367B55" stroke="#009056" stroke-miterlimit="10" stroke-linecap="round"/>
<path d="M102.241 17.6148C104.071 22.1964 104.36 27.2494 103.064 32.0096C101.767 36.7699 98.9566 40.9788 95.056 43.9998C94.3008 44.5832 93.4206 44.9835 92.4845 45.1691C91.5484 45.3548 90.582 45.3207 89.6613 45.0697C88.7406 44.8187 87.8907 44.3575 87.1783 43.7225C86.466 43.0874 85.9107 42.2958 85.556 41.4098C83.7356 36.8541 83.441 31.831 84.7166 27.0938C85.9922 22.3565 88.7692 18.1604 92.631 15.1348L97.031 11.6698C97.2832 11.4722 97.5779 11.3359 97.8918 11.2718C98.2057 11.2076 98.5302 11.2174 98.8396 11.3004C99.1491 11.3833 99.435 11.5371 99.6748 11.7496C99.9145 11.9622 100.102 12.2276 100.221 12.5248L102.241 17.6148Z" fill="#367B55" stroke="#009056" stroke-miterlimit="10" stroke-linecap="round"/>
<path d="M36.4992 57.4002C41.1068 59.1618 45.0147 62.3771 47.6311 66.5588C50.2476 70.7406 51.43 75.6611 50.9992 80.5751V80.5751C50.9155 81.5265 50.612 82.4454 50.1128 83.2595C49.6136 84.0736 48.9322 84.7607 48.1222 85.2667C47.3123 85.7727 46.396 86.0839 45.4454 86.1755C44.4948 86.2672 43.5359 86.137 42.6442 85.7951C38.3587 84.1517 34.6719 81.248 32.07 77.4669C29.4681 73.6858 28.0732 69.205 28.0692 64.6151C28.0692 64.0001 28.1042 63.3901 28.1492 62.7651L28.5892 57.1802C28.6154 56.8608 28.7156 56.5519 28.8819 56.278C29.0481 56.004 29.2758 55.7725 29.5469 55.6018C29.8181 55.431 30.1253 55.3257 30.4442 55.2942C30.763 55.2627 31.0849 55.3058 31.3842 55.4201L36.4992 57.4002Z" fill="#367B55" stroke="#009056" stroke-miterlimit="10" stroke-linecap="round"/>
<path d="M1.22039 110.845C0.953946 111.023 0.732379 111.259 0.573186 111.537C0.413993 111.815 0.321534 112.126 0.303107 112.445C0.284681 112.765 0.340793 113.084 0.467012 113.378C0.59323 113.673 0.786101 113.933 1.03039 114.14L5.19539 117.68C8.9583 120.873 13.659 122.753 18.5858 123.035C23.5126 123.318 28.3973 121.987 32.5004 119.245V119.245C33.2946 118.715 33.9547 118.008 34.4286 117.179C34.9026 116.35 35.1773 115.422 35.2311 114.469C35.2849 113.515 35.1164 112.563 34.7388 111.686C34.3612 110.809 33.7849 110.031 33.0554 109.415C29.313 106.244 24.6439 104.371 19.7476 104.076C14.8512 103.781 9.99117 105.081 5.89539 107.78L1.22039 110.845Z" fill="#367B55"/>
<path d="M255.343 36.0598C255.032 35.989 254.708 35.9919 254.398 36.0683C254.088 36.1447 253.8 36.2925 253.557 36.4999C253.315 36.7073 253.124 36.9685 253 37.2628C252.876 37.557 252.822 37.8762 252.843 38.1948L253.193 43.6548C253.517 48.5779 255.435 53.2617 258.656 56.9988C261.877 60.7359 266.227 63.3232 271.048 64.3698V64.3698C271.981 64.571 272.948 64.5528 273.872 64.3166C274.796 64.0804 275.653 63.6326 276.375 63.0087C277.097 62.3848 277.664 61.6017 278.032 60.7212C278.399 59.8406 278.557 58.8868 278.493 57.9348C278.169 53.0398 276.269 48.3812 273.078 44.6554C269.887 40.9297 265.575 38.3369 260.788 37.2648L255.343 36.0598Z" fill="#367B55" stroke="#009056" stroke-miterlimit="10" stroke-linecap="round"/>
<path d="M278.718 7.24995C276.884 11.8318 276.593 16.8866 277.89 21.6485C279.186 26.4105 282 30.6202 285.903 33.64V33.64C286.658 34.2244 287.538 34.6255 288.475 34.8117C289.411 34.9979 290.378 34.9641 291.299 34.713C292.22 34.4619 293.07 34.0004 293.782 33.3647C294.494 32.729 295.049 31.9366 295.403 31.05C297.227 26.4952 297.524 21.4715 296.25 16.7335C294.975 11.9955 292.197 7.79918 288.333 4.77495L283.928 1.30995C283.676 1.11229 283.381 0.976014 283.067 0.911895C282.753 0.847775 282.429 0.857575 282.12 0.940518C281.81 1.02346 281.524 1.17727 281.284 1.38979C281.045 1.6023 280.858 1.86769 280.738 2.16495L278.718 7.24995Z" fill="#367B55" stroke="#009056" stroke-miterlimit="10" stroke-linecap="round"/>
<path d="M360.296 57.4002C355.689 59.1625 351.782 62.3779 349.165 66.5595C346.549 70.7411 345.366 75.6613 345.796 80.5752C345.879 81.5263 346.182 82.4452 346.681 83.2593C347.179 84.0735 347.86 84.7607 348.67 85.2668C349.479 85.7729 350.395 86.0841 351.346 86.1758C352.296 86.2674 353.255 86.1371 354.146 85.7952C358.432 84.1517 362.118 81.248 364.72 77.4669C367.322 73.6858 368.717 69.205 368.721 64.6151C368.721 64.0001 368.686 63.3902 368.641 62.7652L368.201 57.1802C368.175 56.8608 368.075 56.5519 367.909 56.278C367.742 56.004 367.515 55.7725 367.243 55.6018C366.972 55.431 366.665 55.3257 366.346 55.2942C366.027 55.2627 365.706 55.3058 365.406 55.4201L360.296 57.4002Z" fill="#367B55" stroke="#009056" stroke-miterlimit="10" stroke-linecap="round"/>
</svg>
