<svg width="186" height="60" viewBox="0 0 186 60" fill="none" xmlns="http://www.w3.org/2000/svg">
<path d="M184.909 47.67C185.175 47.8474 185.397 48.0843 185.556 48.362C185.715 48.6397 185.808 48.9506 185.826 49.2701C185.845 49.5897 185.789 49.9091 185.662 50.2033C185.536 50.4974 185.343 50.7582 185.099 50.9651L180.934 54.5051C177.173 57.697 172.474 59.5765 167.549 59.8589C162.623 60.1413 157.74 58.8112 153.639 56.0701C152.845 55.54 152.185 54.8325 151.711 54.0036C151.237 53.1746 150.962 52.2469 150.908 51.2936C150.854 50.3402 151.023 49.3874 151.401 48.5104C151.778 47.6334 152.354 46.8561 153.084 46.24C156.826 43.069 161.495 41.1958 166.392 40.901C171.288 40.6063 176.148 41.9058 180.244 44.605L184.909 47.67Z" fill="#367B55"/>
<path d="M162.339 1.24992C162.65 1.17927 162.973 1.18214 163.283 1.25828C163.592 1.33442 163.88 1.48173 164.123 1.68852C164.365 1.89531 164.557 2.15589 164.681 2.44951C164.805 2.74313 164.859 3.06172 164.839 3.37993L164.484 8.83996C164.163 13.7634 162.248 18.4483 159.027 22.1859C155.806 25.9236 151.456 28.5104 146.634 29.555C145.701 29.7552 144.734 29.7362 143.81 29.4993C142.886 29.2624 142.029 28.8142 141.307 28.1899C140.585 27.5656 140.018 26.7823 139.651 25.9016C139.283 25.021 139.125 24.0671 139.189 23.115C139.512 18.2201 141.411 13.5614 144.603 9.83618C147.794 6.11095 152.107 3.51958 156.894 2.44993L162.339 1.24992Z" fill="#367B55" stroke="#367B55" stroke-miterlimit="10" stroke-linecap="round"/>
<path d="M9.34897 6.92491C13.956 8.68729 17.8635 11.9027 20.4798 16.0843C23.0962 20.2659 24.2789 25.186 23.849 30.0999C23.7686 31.0528 23.4678 31.974 22.9703 32.7907C22.4729 33.6074 21.7925 34.2973 20.9827 34.806C20.1729 35.3146 19.256 35.6281 18.3044 35.7216C17.3527 35.8152 16.3923 35.6862 15.499 35.3449C11.214 33.7012 7.52791 30.7974 4.92682 27.0162C2.32573 23.2351 0.931821 18.7543 0.928955 14.1649C0.928955 13.5549 0.958967 12.9399 1.00397 12.3149L1.44897 6.72991C1.47544 6.41116 1.57559 6.10295 1.74152 5.82952C1.90745 5.55608 2.13461 5.32493 2.40512 5.15428C2.67564 4.98364 2.98209 4.87817 3.30032 4.84618C3.61856 4.81419 3.93989 4.85651 4.23895 4.9699L9.34897 6.92491Z" fill="#367B55" stroke="#367B55" stroke-miterlimit="10" stroke-linecap="round"/>
</svg>
