<svg width="85" height="87" viewBox="0 0 85 87" fill="none" xmlns="http://www.w3.org/2000/svg">
<path d="M36.4704 79.0601H22.4805L29.4754 86.0601L36.4704 79.0601Z" fill="white"/>
<path d="M67.9663 0.0249023H17.1663C7.90997 0.0249023 0.40625 7.52862 0.40625 16.7849V62.2999C0.40625 71.5562 7.90997 79.0599 17.1663 79.0599H67.9663C77.2226 79.0599 84.7263 71.5562 84.7263 62.2999V16.7849C84.7263 7.52862 77.2226 0.0249023 67.9663 0.0249023Z" fill="white"/>
<rect x="38.9745" y="57.39" width="7.05084" height="7.59322" rx="3.52542" fill="#564A59"/>
<rect x="36.805" y="46.8137" width="11.1188" height="15.4576" rx="5" fill="#847886"/>
<path fill-rule="evenodd" clip-rule="evenodd" d="M52.3492 42.6102C56.0933 39.6816 58.5 35.1219 58.5 30C58.5 21.1634 51.3366 14 42.5 14C33.6635 14 26.5 21.1634 26.5 30C26.5 35.1219 28.9067 39.6816 32.6508 42.6102H32.6017C33.4152 43.4237 35.0424 45.6746 35.0424 48.1695V49.3898C35.0424 50.339 35.6932 51.4237 37.2119 51.4237H42.2288H47.7881C49.3068 51.4237 49.9576 50.339 49.9576 49.3898V48.1695C49.9576 45.6746 51.5848 43.4237 52.3983 42.6102H52.3492Z" fill="#FFB93E"/>
<rect x="35.4492" y="53.051" width="14.1017" height="2.98306" rx="1.49153" fill="#C2B8C2"/>
<rect x="35.4492" y="57.39" width="14.1017" height="2.98306" rx="1.49153" fill="#C2B8C2"/>
<path d="M39.25 21C37.4167 21.4167 33.6 23.5 33 28.5" stroke="white" stroke-width="5" stroke-linecap="round" stroke-linejoin="round"/>
</svg>
