<svg width="700" height="784" viewBox="0 0 700 784" fill="none" xmlns="http://www.w3.org/2000/svg">
<g clip-path="url(#clip0_626_500)">
<path d="M700 0H0V785.5H700V0Z" fill="url(#paint0_linear_626_500)"/>
<path opacity="0.5" d="M674.695 346.905H569.225V784H674.695V346.905Z" fill="#173A52"/>
<path opacity="0.5" d="M751.055 190.165H492.865C470.572 190.165 452.5 208.237 452.5 230.53V306.54C452.5 328.833 470.572 346.905 492.865 346.905H751.055C773.348 346.905 791.42 328.833 791.42 306.54V230.53C791.42 208.237 773.348 190.165 751.055 190.165Z" fill="#037D52"/>
<path d="M651.707 178.24C651.707 178.24 651.538 186.686 656.519 190.759C661.5 194.831 669.744 192.987 669.744 192.987C669.744 192.987 669.991 184.446 665.01 180.373C660.029 176.301 651.707 178.24 651.707 178.24Z" fill="#52B49E"/>
<path d="M681.099 180.443C681.099 180.443 675.607 179.427 672.415 182.239C669.224 185.052 669.542 190.629 669.542 190.629C669.542 190.629 675.088 191.706 678.28 188.893C681.471 186.081 681.099 180.443 681.099 180.443Z" fill="#52B49E"/>
<path opacity="0.5" d="M402.735 598.135H297.265V784H402.735V598.135Z" fill="#173A52"/>
<path opacity="0.5" d="M479.095 441.395H220.905C198.612 441.395 180.54 459.467 180.54 481.76V557.77C180.54 580.063 198.612 598.135 220.905 598.135H479.095C501.388 598.135 519.46 580.063 519.46 557.77V481.76C519.46 459.467 501.388 441.395 479.095 441.395Z" fill="#037D52"/>
<path opacity="0.5" d="M320.543 13.7925C318.727 10.816 315.492 9 312.006 9H222.557C215.824 9 211.015 15.5195 213.003 21.9524L450.947 791.952C452.242 796.142 456.116 799 460.501 799H781.687C789.492 799 794.289 790.456 790.224 783.792L320.543 13.7925Z" fill="url(#paint1_linear_626_500)"/>
<path d="M318.95 432.57C318.95 432.57 304.58 430.85 302 439C299.42 447.15 314.07 446.555 314.07 446.555L322.775 447.09L331.415 434.405C331.415 434.405 323 432.71 318.95 432.57Z" fill="#EAD576"/>
<path d="M312.132 515.215L323.888 538.774C324.206 539.412 324.981 539.67 325.619 539.352L328.911 537.709C329.549 537.391 329.808 536.616 329.49 535.979L317.733 512.419C317.415 511.782 316.64 511.523 316.003 511.841L312.71 513.484C312.073 513.802 311.814 514.577 312.132 515.215Z" fill="#F4BD61"/>
<path d="M283.404 457.634L294.873 480.616C295.191 481.254 295.966 481.513 296.603 481.195L299.896 479.551C300.534 479.233 300.793 478.459 300.474 477.821L289.006 454.839C288.688 454.201 287.913 453.942 287.276 454.261L283.983 455.904C283.345 456.222 283.086 456.996 283.404 457.634Z" fill="#F4BD61"/>
<path d="M405.205 472.105C402.747 458.835 396.622 446.519 387.525 436.55L387.445 436.46C383.461 432.088 378.393 428.845 372.754 427.06C367.115 425.274 361.105 425.008 355.33 426.29C344.33 428.75 311.52 442.045 302.16 446.715C302.16 446.715 282.19 455.165 304.57 500.015C326.95 544.865 345.64 533.855 345.64 533.855C345.64 533.855 359.14 527.12 364.83 523.855C372.69 519.355 384.105 512.2 393.915 503.885C398.427 500.052 401.847 495.095 403.829 489.517C405.811 483.939 406.286 477.936 405.205 472.115V472.105Z" fill="#F1F1F1"/>
<path d="M405.205 472.105C402.747 458.835 396.622 446.519 387.525 436.55L387.445 436.46C383.461 432.088 378.393 428.845 372.754 427.06C367.115 425.274 361.105 425.008 355.33 426.29C344.33 428.75 311.52 442.045 302.16 446.715C302.16 446.715 282.19 455.165 304.57 500.015C326.95 544.865 345.64 533.855 345.64 533.855C345.64 533.855 359.14 527.12 364.83 523.855C372.69 519.355 384.105 512.2 393.915 503.885C398.427 500.052 401.847 495.095 403.829 489.517C405.811 483.939 406.286 477.936 405.205 472.115V472.105Z" fill="#F9E37E"/>
<path d="M354.58 448.095C357.557 448.095 359.97 445.682 359.97 442.705C359.97 439.728 357.557 437.315 354.58 437.315C351.603 437.315 349.19 439.728 349.19 442.705C349.19 445.682 351.603 448.095 354.58 448.095Z" fill="black"/>
<path d="M373.91 486.84C376.887 486.84 379.3 484.427 379.3 481.45C379.3 478.473 376.887 476.06 373.91 476.06C370.933 476.06 368.52 478.473 368.52 481.45C368.52 484.427 370.933 486.84 373.91 486.84Z" fill="black"/>
<path d="M365.255 531.15C365.255 531.15 357.965 543.65 349.89 540.79C341.815 537.93 351.135 526.605 351.135 526.605L355.96 519.34L371.29 520.09C371.29 520.09 367.58 527.84 365.255 531.15Z" fill="#F9E37E"/>
<path d="M307.5 484.39C307.571 484.533 307.669 484.66 307.789 484.765C307.909 484.869 308.049 484.949 308.2 485L315.46 487.425C315.614 487.487 315.779 487.517 315.944 487.513C316.11 487.509 316.273 487.471 316.424 487.402C316.574 487.333 316.709 487.233 316.82 487.11C316.931 486.986 317.015 486.841 317.067 486.684C317.12 486.527 317.14 486.361 317.126 486.195C317.112 486.03 317.064 485.87 316.986 485.724C316.907 485.578 316.8 485.449 316.67 485.346C316.54 485.243 316.39 485.168 316.23 485.125L309 482.7C308.773 482.623 308.527 482.615 308.295 482.677C308.063 482.74 307.855 482.87 307.698 483.052C307.54 483.233 307.44 483.457 307.41 483.695C307.38 483.934 307.422 484.175 307.53 484.39H307.5Z" fill="#F4BD61"/>
<path d="M309.925 489.235C310.034 489.448 310.203 489.624 310.412 489.742C310.621 489.86 310.859 489.913 311.098 489.896C311.337 489.879 311.565 489.792 311.755 489.646C311.945 489.5 312.087 489.301 312.165 489.075L314.59 481.82C314.692 481.514 314.669 481.181 314.525 480.892C314.381 480.604 314.128 480.385 313.822 480.282C313.517 480.18 313.183 480.204 312.895 480.348C312.606 480.492 312.387 480.744 312.285 481.05L309.86 488.305C309.758 488.611 309.781 488.946 309.925 489.235Z" fill="#F4BD61"/>
<path d="M363.685 503.255C368.302 503.255 372.045 499.512 372.045 494.895C372.045 490.278 368.302 486.535 363.685 486.535C359.068 486.535 355.325 490.278 355.325 494.895C355.325 499.512 359.068 503.255 363.685 503.255Z" fill="#F1A361"/>
<path d="M337.85 451.475C342.467 451.475 346.21 447.732 346.21 443.115C346.21 438.498 342.467 434.755 337.85 434.755C333.233 434.755 329.49 438.498 329.49 443.115C329.49 447.732 333.233 451.475 337.85 451.475Z" fill="#F1A361"/>
<path d="M347.19 461.53L353.155 473.5C353.976 475.135 355.411 476.379 357.146 476.959C358.882 477.539 360.776 477.408 362.415 476.595C365.815 474.9 363.71 465.015 362.015 461.595C360.32 458.195 353.685 450.57 350.285 452.265C348.648 453.086 347.404 454.522 346.824 456.258C346.244 457.995 346.375 459.89 347.19 461.53Z" fill="#F4BD61"/>
<path d="M399.5 454.5C399.5 454.5 406 450.67 408.36 444.28C408.411 444.128 408.419 443.965 408.383 443.809C408.346 443.653 408.267 443.51 408.153 443.397C408.04 443.283 407.897 443.204 407.741 443.167C407.585 443.131 407.422 443.139 407.27 443.19C403.889 444.332 400.338 444.89 396.77 444.84C395.055 444.84 393.1 443.505 392.105 442.105" fill="#F9E37E"/>
<path d="M395.395 446.95C399.392 449.081 403.8 450.329 408.32 450.61C408.482 450.617 408.638 450.669 408.77 450.761C408.903 450.854 409.007 450.982 409.069 451.131C409.132 451.28 409.15 451.444 409.123 451.603C409.096 451.762 409.024 451.91 408.915 452.03C407.423 453.415 405.757 454.6 403.96 455.555C403.115 456.035 402.463 456.793 402.115 457.701C401.768 458.608 401.746 459.609 402.055 460.53" fill="#F9E37E"/>
<path d="M333.795 113.545H38.42V813.21H333.795V113.545Z" fill="#173A52"/>
<path d="M581.91 0V50.43C581.91 61.9444 577.337 72.9875 569.196 81.1308C561.056 89.2742 550.014 93.851 538.5 93.855H505V114.81C505 120.513 503.877 126.16 501.694 131.429C499.511 136.698 496.312 141.485 492.279 145.518C488.246 149.55 483.459 152.749 478.19 154.931C472.92 157.113 467.273 158.236 461.57 158.235H390.63V189.61C390.631 195.313 389.508 200.96 387.326 206.23C385.144 211.499 381.945 216.286 377.913 220.319C373.88 224.352 369.093 227.551 363.824 229.734C358.555 231.917 352.908 233.04 347.205 233.04H120.735C109.668 233.041 99.0175 228.816 90.9605 221.228C82.9035 213.64 78.0477 203.263 77.385 192.215H-1.67999V0H581.91Z" fill="#275C40"/>
<path d="M582 0V50.43C582 56.1331 580.877 61.7803 578.694 67.0492C576.511 72.3181 573.312 77.1054 569.279 81.1379C565.246 85.1703 560.459 88.3689 555.19 90.5509C549.92 92.7329 544.273 93.8557 538.57 93.855H505.11V114.81C505.11 120.513 503.987 126.16 501.804 131.429C499.621 136.698 496.422 141.485 492.389 145.518C488.356 149.55 483.569 152.749 478.3 154.931C473.03 157.113 467.383 158.236 461.68 158.235H390.705V189.61C390.706 195.313 389.583 200.96 387.401 206.23C385.219 211.499 382.02 216.286 377.988 220.319C373.955 224.352 369.168 227.551 363.899 229.734C358.63 231.917 352.983 233.04 347.28 233.04H290.46C297.18 233.04 303.833 231.716 310.041 229.145C316.249 226.573 321.89 222.804 326.641 218.052C331.392 213.301 335.161 207.66 337.732 201.452C340.303 195.243 341.626 188.59 341.625 181.87V144.905H425.225C431.944 144.906 438.598 143.583 444.805 141.012C451.013 138.442 456.654 134.673 461.406 129.923C466.157 125.172 469.927 119.532 472.498 113.325C475.07 107.117 476.394 100.464 476.395 93.745V69.055H515.815C522.536 69.0576 529.191 67.7362 535.401 65.166C541.611 62.5959 547.254 58.8276 552.007 54.0762C556.76 49.3248 560.531 43.6835 563.103 37.4746C565.676 31.2657 567 24.6108 567 17.89V0H582Z" fill="#367B55"/>
<path d="M226.555 712.375H211.305V706.675C211.305 695.158 206.73 684.112 198.586 675.967C190.443 667.823 179.398 663.246 167.88 663.245H124V649.59C124.001 643.887 122.878 638.24 120.696 632.971C118.514 627.702 115.315 622.915 111.283 618.883C107.25 614.85 102.463 611.651 97.1938 609.469C91.925 607.287 86.2779 606.164 80.575 606.165H-71.67C-81.0469 606.166 -90.1721 609.2 -97.6825 614.814C-105.193 620.428 -110.686 628.322 -113.34 637.315H-175.38V784H270V755.805C270 750.1 268.876 744.452 266.693 739.182C264.509 733.911 261.309 729.123 257.274 725.09C253.24 721.057 248.451 717.858 243.18 715.677C237.909 713.495 232.26 712.373 226.555 712.375ZM30.87 755.805V751.275H31.105C30.9484 752.78 30.87 754.292 30.87 755.805Z" fill="#037D52"/>
<path d="M226.555 712.375H211.305V706.675C211.305 695.158 206.73 684.112 198.586 675.967C190.443 667.823 179.397 663.246 167.88 663.245H124V649.59C124.001 643.887 122.878 638.24 120.696 632.971C118.514 627.702 115.315 622.915 111.283 618.883C107.25 614.85 102.463 611.651 97.1938 609.469C91.925 607.287 86.2779 606.164 80.575 606.165H27.345C34.3177 606.164 41.2223 607.537 47.6644 610.205C54.1065 612.873 59.9599 616.784 64.8903 621.715C69.8208 626.645 73.7317 632.499 76.3997 638.941C79.0678 645.383 80.4407 652.287 80.44 659.26V675.955H134.08C148.162 675.956 161.667 681.551 171.624 691.509C181.581 701.467 187.175 714.973 187.175 729.055V736.025H205.82C219.019 736.026 231.745 740.943 241.516 749.817C251.287 758.692 257.402 770.887 258.67 784.025H270V755.83C270.003 750.123 268.882 744.472 266.7 739.199C264.518 733.926 261.318 729.135 257.283 725.099C253.248 721.063 248.458 717.862 243.185 715.679C237.913 713.496 232.262 712.373 226.555 712.375Z" fill="#009056"/>
<path d="M440.45 729.565H328.275C325.138 729.611 322.023 729.032 319.112 727.863C316.2 726.694 313.55 724.958 311.316 722.756C309.081 720.554 307.307 717.929 306.096 715.035C304.885 712.141 304.261 709.035 304.261 705.898C304.261 702.76 304.885 699.654 306.096 696.76C307.307 693.866 309.081 691.241 311.316 689.039C313.55 686.837 316.2 685.101 319.112 683.932C322.023 682.763 325.138 682.184 328.275 682.23H440.45C458.72 682.23 474.155 670.79 474.155 657.23V622C474.245 615.783 476.779 609.85 481.207 605.486C485.636 601.121 491.604 598.674 497.823 598.674C504.041 598.674 510.009 601.121 514.438 605.486C518.866 609.85 521.4 615.783 521.49 622V657.23C521.49 677 512.315 696.12 496.325 709.68C481.215 722.5 461.375 729.565 440.45 729.565Z" fill="#173A52"/>
<path d="M526.669 465.794C526.669 465.794 517.922 476.747 523.325 483.06C528.728 489.372 535.708 476.951 535.708 476.951L540.587 470.054L534.554 456.468C534.554 456.468 528.848 462.535 526.669 465.794Z" fill="#EEEEEE"/>
<path d="M611.358 515.403L602.132 514.552C601.227 514.469 600.393 514.029 599.812 513.331C599.232 512.632 598.952 511.732 599.036 510.827L599.683 503.802L615.755 505.283L615.108 512.309C615.066 512.759 614.936 513.196 614.725 513.595C614.514 513.995 614.225 514.349 613.877 514.636C613.528 514.924 613.126 515.14 612.694 515.271C612.262 515.403 611.807 515.447 611.358 515.403Z" fill="white"/>
<path d="M545.507 509.332L536.5 508.502C536.063 508.461 535.638 508.335 535.249 508.131C534.86 507.926 534.516 507.647 534.235 507.309C533.954 506.971 533.743 506.581 533.613 506.162C533.482 505.742 533.436 505.301 533.476 504.864L534.132 497.754L549.795 499.198L549.14 506.308C549.059 507.19 548.63 508.004 547.949 508.571C547.268 509.138 546.39 509.412 545.507 509.332Z" fill="#EEEEEE"/>
<path d="M603.226 414.942C591.046 410.195 577.781 408.955 564.933 411.361L564.82 411.381C559.188 412.431 553.933 414.949 549.585 418.68C545.237 422.412 541.952 427.225 540.06 432.633C536.456 442.966 530.681 476.743 529.751 486.831C529.751 486.831 526.517 507.586 574.862 512.043C623.207 516.5 623.683 495.49 623.683 495.49C623.683 495.49 625.025 480.937 625.234 474.584C625.54 465.81 625.467 452.768 623.625 440.447C622.767 434.781 620.428 429.441 616.846 424.967C613.264 420.493 608.565 417.044 603.223 414.967L603.226 414.942Z" fill="#F1F1F1"/>
<path d="M603.226 414.942C591.046 410.195 577.781 408.955 564.933 411.361L564.82 411.381C559.188 412.431 553.933 414.949 549.585 418.68C545.237 422.412 541.952 427.225 540.06 432.633C536.456 442.966 530.681 476.743 529.751 486.831C529.751 486.831 526.517 507.586 574.862 512.043C623.207 516.5 623.683 495.49 623.683 495.49C623.683 495.49 625.025 480.937 625.234 474.584C625.54 465.81 625.467 452.768 623.625 440.447C622.767 434.781 620.428 429.441 616.846 424.967C613.264 420.493 608.565 417.044 603.223 414.967L603.226 414.942Z" fill="white"/>
<path d="M596.41 463.762L604.043 464.466C606.273 464.672 608.247 463.03 608.453 460.8L608.672 458.421C608.878 456.19 607.237 454.216 605.007 454.01L597.374 453.307C595.144 453.101 593.17 454.742 592.964 456.972L592.745 459.352C592.539 461.582 594.18 463.557 596.41 463.762Z" fill="#F7D3D2"/>
<path d="M541.035 458.657L548.668 459.361C550.898 459.567 552.872 457.925 553.078 455.695L553.297 453.316C553.503 451.085 551.862 449.111 549.632 448.905L541.999 448.202C539.769 447.996 537.794 449.637 537.589 451.867L537.369 454.247C537.164 456.477 538.805 458.452 541.035 458.657Z" fill="#F7D3D2"/>
<path d="M552.715 446.83C555.589 447.095 558.133 444.98 558.398 442.106C558.663 439.233 556.548 436.689 553.674 436.424C550.801 436.159 548.257 438.274 547.992 441.147C547.727 444.021 549.842 446.565 552.715 446.83Z" fill="black"/>
<path d="M594.478 450.68C597.351 450.945 599.896 448.83 600.161 445.956C600.425 443.083 598.311 440.539 595.437 440.274C592.564 440.009 590.02 442.124 589.755 444.997C589.49 447.871 591.604 450.415 594.478 450.68Z" fill="black"/>
<path d="M594.114 415.684C593.313 415.405 592.651 414.826 592.27 414.068C591.889 413.31 591.818 412.433 592.073 411.624C594.089 405.282 599.459 391.427 607.541 393.352C617.053 395.62 610.626 411.09 607.6 417.328C607.237 418.037 606.634 418.593 605.899 418.898C605.163 419.203 604.343 419.236 603.586 418.992L594.114 415.684Z" fill="#F7D3D2"/>
<path d="M604.044 422.077C605.304 422.192 606.569 421.925 607.674 421.31C608.78 420.695 609.674 419.762 610.242 418.631C613.748 411.423 617.343 401.516 614.395 395.369C613.811 394.137 612.949 393.056 611.876 392.213C610.804 391.37 609.55 390.788 608.214 390.512C600.718 388.716 593.989 395.909 589.276 410.754C588.781 412.292 588.909 413.964 589.633 415.409C590.357 416.854 591.619 417.957 593.148 418.482L602.62 421.785C603.081 421.94 603.559 422.038 604.044 422.077ZM606.391 396.133C606.549 396.149 606.706 396.176 606.86 396.211C608.305 396.555 608.816 397.275 609.093 397.868C610.522 400.882 608.936 407.846 604.95 416.065C604.903 416.123 604.842 416.169 604.772 416.199C604.703 416.228 604.628 416.241 604.553 416.234L595.081 412.931C595.002 412.904 594.936 412.848 594.897 412.775C594.858 412.701 594.849 412.615 594.871 412.535C597.402 404.578 601.89 395.718 606.391 396.133Z" fill="white"/>
<path d="M571.944 414.338C572.783 414.211 573.539 413.762 574.051 413.086C574.564 412.41 574.792 411.561 574.688 410.719C573.866 404.116 571.12 389.512 562.821 389.927C553.06 390.418 556.546 406.802 558.385 413.489C558.6 414.258 559.091 414.922 559.762 415.354C560.434 415.786 561.241 415.957 562.03 415.834L571.944 414.338Z" fill="#F7D3D2"/>
<path d="M560.962 418.808C561.465 418.856 561.973 418.842 562.472 418.767L572.389 417.246C573.989 417.011 575.432 416.158 576.408 414.869C577.385 413.58 577.816 411.959 577.609 410.356C575.674 394.903 570.379 386.592 562.69 386.993C561.326 387.02 559.986 387.363 558.777 387.996C557.568 388.628 556.522 389.533 555.721 390.638C551.739 396.146 553.438 406.531 555.551 414.268C555.885 415.485 556.582 416.571 557.548 417.382C558.515 418.194 559.706 418.691 560.962 418.808ZM563.449 392.872C567.93 393.285 570.736 402.818 571.772 411.083C571.78 411.166 571.756 411.248 571.705 411.313C571.654 411.378 571.58 411.422 571.499 411.435L561.583 412.951C561.503 412.964 561.421 412.947 561.353 412.903C561.286 412.858 561.237 412.79 561.218 412.711C558.805 403.923 558.519 396.786 560.472 394.064C560.857 393.537 561.486 392.917 562.974 392.844C563.133 392.843 563.291 392.853 563.449 392.872Z" fill="white"/>
<path d="M550.064 505.158L586.415 508.509C590.782 508.911 594.648 505.698 595.051 501.331L597.022 479.952C597.424 475.585 594.211 471.719 589.844 471.316L553.493 467.965C549.127 467.563 545.26 470.776 544.858 475.143L542.887 496.522C542.484 500.889 545.698 504.755 550.064 505.158Z" fill="#F3F3F3"/>
<path d="M631.46 477.96C631.46 477.96 638.036 490.346 631.556 495.543C625.077 500.74 620.513 487.279 620.513 487.279L616.993 479.604L625.432 467.367C625.432 467.367 629.924 474.359 631.46 477.96Z" fill="white"/>
<path d="M563.503 501.652C563.657 501.666 563.812 501.649 563.959 501.604C564.106 501.558 564.243 501.483 564.361 501.384L570.06 496.647C570.3 496.448 570.451 496.161 570.48 495.85C570.509 495.539 570.413 495.23 570.213 494.989C570.013 494.749 569.727 494.598 569.416 494.57C569.105 494.541 568.795 494.637 568.555 494.837L562.856 499.573C562.681 499.724 562.555 499.922 562.491 500.144C562.428 500.365 562.431 500.601 562.5 500.821C562.569 501.041 562.7 501.236 562.879 501.381C563.057 501.527 563.275 501.618 563.504 501.642L563.503 501.652Z" fill="#F7D3D2"/>
<path d="M568.721 502.133C568.951 502.15 569.18 502.1 569.382 501.989C569.583 501.878 569.748 501.71 569.855 501.506C569.962 501.303 570.008 501.072 569.986 500.843C569.964 500.614 569.875 500.397 569.731 500.217L564.994 494.518C564.795 494.278 564.508 494.127 564.197 494.099C563.886 494.07 563.577 494.166 563.336 494.365C563.096 494.565 562.945 494.852 562.917 495.163C562.888 495.474 562.984 495.783 563.184 496.023L567.92 501.722C568.02 501.84 568.143 501.937 568.28 502.007C568.417 502.078 568.567 502.12 568.721 502.133Z" fill="#F7D3D2"/>
<path d="M571.413 450.115L577.637 447.636C577.78 447.579 577.911 447.494 578.021 447.386C578.132 447.278 578.22 447.149 578.281 447.007C578.342 446.865 578.374 446.713 578.376 446.558C578.378 446.404 578.349 446.251 578.292 446.107C578.235 445.964 578.15 445.833 578.042 445.722C577.934 445.612 577.805 445.524 577.664 445.463C577.522 445.402 577.369 445.37 577.215 445.368C577.06 445.366 576.907 445.394 576.763 445.452L571.64 447.49L566.542 444.344C566.411 444.262 566.265 444.208 566.112 444.183C565.96 444.158 565.804 444.163 565.653 444.198C565.503 444.234 565.361 444.298 565.236 444.389C565.11 444.479 565.004 444.593 564.923 444.724C564.841 444.855 564.787 445.001 564.762 445.154C564.737 445.306 564.742 445.462 564.777 445.612C564.813 445.763 564.877 445.905 564.968 446.03C565.058 446.156 565.172 446.262 565.303 446.343L571.413 450.115Z" fill="#F7D3D2"/>
<path d="M574.263 457.267C575.462 457.414 576.674 457.117 577.669 456.431C577.795 456.341 577.902 456.228 577.984 456.097C578.066 455.966 578.122 455.82 578.147 455.668C578.173 455.515 578.169 455.359 578.134 455.209C578.099 455.058 578.036 454.916 577.946 454.79C577.856 454.664 577.743 454.557 577.612 454.474C577.481 454.392 577.335 454.337 577.182 454.311C577.03 454.285 576.874 454.29 576.723 454.325C576.573 454.359 576.43 454.423 576.304 454.513C575.768 454.872 575.118 455.02 574.479 454.927C572.363 454.732 572.323 453.036 572.36 452.522L572.693 448.917C572.721 448.607 572.626 448.298 572.426 448.059C572.227 447.819 571.941 447.668 571.631 447.64C571.32 447.611 571.011 447.707 570.772 447.906C570.532 448.105 570.381 448.391 570.353 448.702L570.02 452.311C569.97 453.087 570.094 453.863 570.383 454.584C571.017 456.144 572.396 457.095 574.263 457.267Z" fill="#F7D3D2"/>
<path d="M567.034 456.6C570.579 456.927 572.161 454.357 572.356 452.572C572.39 452.262 572.3 451.951 572.105 451.707C571.91 451.463 571.626 451.306 571.316 451.271C571.009 451.242 570.703 451.334 570.461 451.526C570.22 451.718 570.062 451.996 570.021 452.301C569.975 452.799 569.553 454.493 567.248 454.28C566.601 454.264 565.983 454.006 565.517 453.558C565.412 453.445 565.286 453.353 565.146 453.288C565.006 453.223 564.854 453.187 564.7 453.18C564.546 453.174 564.392 453.198 564.247 453.252C564.102 453.305 563.969 453.386 563.856 453.491C563.742 453.595 563.65 453.721 563.586 453.861C563.521 454.001 563.484 454.153 563.478 454.307C563.472 454.461 563.496 454.615 563.549 454.76C563.602 454.905 563.683 455.038 563.788 455.151C564.647 456.029 565.807 456.547 567.034 456.6Z" fill="#F7D3D2"/>
<path d="M455.44 430.94L601.999 392.5L668.749 468.5L538.21 492.315L455.44 430.94Z" fill="url(#paint2_linear_626_500)"/>
<path d="M457.279 493.6H538.369C539.299 493.6 540.054 492.846 540.054 491.915V432.22C540.054 431.289 539.299 430.535 538.369 430.535H457.279C456.348 430.535 455.594 431.289 455.594 432.22V491.915C455.594 492.846 456.348 493.6 457.279 493.6Z" fill="#136E90"/>
<path d="M458.101 499.7H553.236C554.166 499.7 554.921 498.946 554.921 498.015V495.28C554.921 494.35 554.166 493.595 553.236 493.595H458.101C457.17 493.595 456.416 494.35 456.416 495.28V498.015C456.416 498.946 457.17 499.7 458.101 499.7Z" fill="#015271"/>
<g filter="url(#filter0_d_626_500)">
<path d="M490.884 463.479V460.61L484.853 466.62L486.27 468.075L490.884 463.479ZM504.613 461.705C504.27 460.184 503.472 458.761 502.294 457.572L498.156 453.36L495.787 455.728L495.621 455.898V458.766L498.146 456.249L500.499 458.647L500.857 459.01V459.035C500.992 459.167 501.118 459.305 501.235 459.449C501.911 460.239 502.377 461.142 502.603 462.098C502.936 463.789 503.093 465.76 501.22 468.162V471.13C501.336 471.033 501.446 470.931 501.549 470.824C503.105 469.393 504.177 467.635 504.652 465.736C504.933 464.402 504.92 463.035 504.613 461.705ZM492.061 470.547L491.997 470.514H491.968C491.78 470.417 491.605 470.305 491.443 470.179C491.291 470.067 491.1 469.923 490.874 469.737C490.536 469.452 490.109 469.071 489.59 468.563L488.433 467.368L486.991 468.798L488.148 469.981C489.938 471.733 490.86 472.233 491.198 472.37C492.247 472.892 493.418 473.218 494.63 473.325C495.178 473.374 495.731 473.371 496.278 473.316H496.41V471.25C494.907 471.483 493.355 471.232 492.061 470.547Z" fill="white"/>
<path d="M494.599 456.91L494.584 469.162L491.892 469.158L491.902 459.597L492.177 459.329L492.319 459.184L493.133 458.37L493.687 457.82L493.868 457.642L494.599 456.91Z" fill="white"/>
<path d="M500.231 459.676V471.903L500.197 471.924C500.069 472.002 499.942 472.085 499.8 472.163L499.662 472.242L499.27 472.449L498.878 472.63L498.657 472.725L498.353 472.841L498.103 472.928C497.936 472.986 497.765 473.035 497.583 473.085L497.451 473.118V459.672L500.231 459.676Z" fill="white"/>
<path d="M494.623 462.906L494.619 465.68L497.477 465.683L497.481 462.909L494.623 462.906Z" fill="white"/>
</g>
<path d="M138.002 733.12C138.22 732.887 138.49 732.709 138.789 732.599C139.089 732.489 139.41 732.45 139.727 732.486C140.044 732.522 140.348 732.632 140.615 732.806C140.883 732.98 141.106 733.214 141.267 733.49L144.037 738.205C146.533 742.461 147.576 747.415 147.005 752.317C146.435 757.218 144.284 761.8 140.877 765.37C140.217 766.06 139.407 766.588 138.509 766.911C137.611 767.234 136.65 767.345 135.702 767.233C134.754 767.122 133.845 766.791 133.047 766.268C132.249 765.745 131.583 765.044 131.102 764.22C128.622 759.986 127.58 755.063 128.131 750.188C128.683 745.313 130.798 740.747 134.162 737.175L138.002 733.12Z" fill="#009056" stroke="#009056" stroke-miterlimit="10" stroke-linecap="round"/>
<path d="M21.9998 685.095C26.6069 686.857 30.5144 690.073 33.1307 694.254C35.747 698.436 36.9297 703.356 36.4998 708.27C36.4171 709.221 36.1148 710.14 35.6167 710.954C35.1187 711.768 34.4385 712.456 33.6297 712.963C32.8208 713.47 31.9054 713.782 30.9554 713.875C30.0054 713.969 29.0468 713.84 28.1548 713.5C23.8703 711.856 20.1846 708.952 17.5836 705.171C14.9826 701.39 13.5884 696.909 13.5848 692.32C13.5848 691.705 13.6148 691.095 13.6598 690.47L14.1048 684.885C14.1303 684.566 14.2298 684.257 14.3955 683.983C14.5612 683.709 14.7884 683.477 15.0592 683.306C15.33 683.136 15.6369 683.03 15.9556 682.999C16.2742 682.967 16.5958 683.01 16.8948 683.125L21.9998 685.095Z" fill="#009056" stroke="#009056" stroke-miterlimit="10" stroke-linecap="round"/>
<path d="M-13.2918 738.04C-13.5577 738.217 -13.7788 738.453 -13.9379 738.73C-14.0969 739.007 -14.1895 739.317 -14.2084 739.636C-14.2273 739.955 -14.172 740.274 -14.0468 740.568C-13.9216 740.862 -13.7299 741.123 -13.4868 741.33L-9.32182 744.875C-5.55932 748.066 -0.859591 749.946 4.06616 750.228C8.99191 750.51 13.8756 749.181 17.9782 746.44C18.7715 745.909 19.4308 745.201 19.9041 744.373C20.3774 743.544 20.6518 742.616 20.7056 741.663C20.7594 740.71 20.5912 739.758 20.2142 738.881C19.8372 738.004 19.2618 737.227 18.5332 736.61C14.7896 733.439 10.1198 731.566 5.22278 731.271C0.325764 730.977 -4.535 732.276 -8.63182 734.975L-13.2918 738.04Z" fill="#009056"/>
<g clip-path="url(#clip1_626_500)">
<path d="M251.792 292.105H120.428C98.1345 292.105 80.0625 310.177 80.0625 332.47V448.45C80.0625 470.743 98.1345 488.815 120.428 488.815H251.792C274.085 488.815 292.158 470.743 292.158 448.45V332.47C292.158 310.177 274.085 292.105 251.792 292.105Z" fill="#0E2535"/>
<path d="M174.101 484.073H190.786V491.798C190.786 492.701 190.427 493.567 189.789 494.206C189.15 494.845 188.284 495.203 187.381 495.203H177.506C176.603 495.203 175.737 494.845 175.098 494.206C174.46 493.567 174.101 492.701 174.101 491.798V484.073Z" fill="#609847"/>
<path d="M205.451 458.328C205.451 458.328 212.816 470.953 206.286 476.623C199.756 482.293 194.436 468.478 194.436 468.478L190.436 460.628L198.716 447.533C198.716 447.533 203.696 454.638 205.451 458.328Z" fill="#609847"/>
<path d="M107.131 447.648C107.131 447.648 92.4111 499.033 157.996 495.198C213.736 491.938 198.711 447.633 198.711 447.633C201.362 445.123 203.377 442.017 204.589 438.573C205.8 435.129 206.173 431.445 205.676 427.828C205.179 424.211 203.828 420.765 201.733 417.774C199.638 414.784 196.861 412.336 193.631 410.633L193.606 410.598C194.677 406.662 194.227 402.467 192.347 398.846C190.468 395.226 187.295 392.445 183.459 391.056C179.623 389.666 175.406 389.771 171.643 391.348C167.881 392.925 164.85 395.859 163.151 399.568H146.291C144.747 396.188 142.092 393.44 138.767 391.78C135.442 390.12 131.65 389.649 128.02 390.446C124.391 391.243 121.144 393.259 118.82 396.159C116.497 399.059 115.237 402.668 115.251 406.383C115.262 407.348 115.357 408.31 115.536 409.258H115.506C111.769 410.538 108.425 412.759 105.797 415.709C103.169 418.658 101.346 422.235 100.504 426.094C99.6622 429.953 99.8298 433.965 100.991 437.74C102.151 441.516 104.266 444.929 107.131 447.648Z" fill="#66AF49"/>
<path d="M115.161 484.073H130.771V492.018C130.771 492.863 130.436 493.673 129.838 494.27C129.241 494.868 128.431 495.203 127.586 495.203H118.341C117.496 495.203 116.686 494.868 116.089 494.27C115.492 493.673 115.156 492.863 115.156 492.018V484.073H115.161Z" fill="#66AF49"/>
<path d="M183.636 464.743V488.993C177.471 492.253 169.136 494.548 158.001 495.198C145.741 495.918 136.291 494.698 129.001 492.268V464.768C129.01 461.26 130.408 457.897 132.889 455.416C135.37 452.935 138.732 451.538 142.241 451.528H170.411C173.912 451.543 177.266 452.939 179.743 455.414C182.22 457.889 183.619 461.242 183.636 464.743Z" fill="#A7D157"/>
<path d="M178.121 418.708C181.128 418.708 183.566 416.271 183.566 413.263C183.566 410.256 181.128 407.818 178.121 407.818C175.114 407.818 172.676 410.256 172.676 413.263C172.676 416.271 175.114 418.708 178.121 418.708Z" fill="black"/>
<path d="M134.461 418.708C137.468 418.708 139.906 416.271 139.906 413.263C139.906 410.256 137.468 407.818 134.461 407.818C131.454 407.818 129.016 410.256 129.016 413.263C129.016 416.271 131.454 418.708 134.461 418.708Z" fill="black"/>
<path d="M101.011 458.728C101.011 458.728 94.2361 471.668 101.011 477.038C107.786 482.408 112.481 468.383 112.481 468.383L116.101 460.358L107.231 447.653C107.231 447.653 102.596 454.958 101.011 458.728Z" fill="#66AF49"/>
<path d="M151.266 418.728H164.001C164.619 418.727 165.228 418.881 165.77 419.176C166.313 419.472 166.772 419.9 167.106 420.42C167.439 420.941 167.636 421.537 167.678 422.154C167.72 422.77 167.606 423.387 167.346 423.948C166.016 426.773 163.276 429.693 157.636 429.693C151.996 429.693 149.251 426.773 147.921 423.948C147.661 423.387 147.547 422.77 147.589 422.154C147.631 421.537 147.828 420.941 148.161 420.42C148.495 419.9 148.954 419.472 149.497 419.176C150.04 418.881 150.648 418.727 151.266 418.728Z" fill="white"/>
<path d="M191.401 436.928C196.706 436.928 201.006 432.85 201.006 427.818C201.006 422.787 196.706 418.708 191.401 418.708C186.096 418.708 181.796 422.787 181.796 427.818C181.796 432.85 186.096 436.928 191.401 436.928Z" fill="#A7D157"/>
<path d="M123.866 436.928C129.171 436.928 133.471 432.85 133.471 427.818C133.471 422.787 129.171 418.708 123.866 418.708C118.561 418.708 114.261 422.787 114.261 427.818C114.261 432.85 118.561 436.928 123.866 436.928Z" fill="#A7D157"/>
<path d="M161.756 485.503C161.595 485.504 161.434 485.472 161.285 485.41C161.136 485.348 161 485.258 160.886 485.143L155.411 479.678C155.201 479.445 155.089 479.14 155.097 478.827C155.106 478.513 155.234 478.215 155.456 477.993C155.677 477.771 155.976 477.643 156.289 477.634C156.603 477.626 156.908 477.739 157.141 477.948L162.606 483.408C162.776 483.58 162.892 483.799 162.939 484.036C162.985 484.273 162.961 484.519 162.869 484.743C162.776 484.966 162.62 485.158 162.42 485.293C162.219 485.428 161.983 485.501 161.741 485.503H161.756Z" fill="#66AF49"/>
<path d="M156.291 485.503C156.13 485.504 155.971 485.473 155.822 485.411C155.674 485.349 155.539 485.258 155.426 485.143C155.312 485.03 155.221 484.894 155.16 484.745C155.098 484.597 155.066 484.437 155.066 484.276C155.066 484.115 155.098 483.955 155.16 483.806C155.221 483.657 155.312 483.522 155.426 483.408L160.911 477.948C161.141 477.718 161.452 477.589 161.777 477.588C161.938 477.588 162.097 477.619 162.246 477.681C162.395 477.742 162.53 477.832 162.644 477.946C162.758 478.059 162.848 478.194 162.91 478.343C162.972 478.491 163.003 478.651 163.004 478.812C163.004 478.972 162.972 479.132 162.911 479.281C162.85 479.429 162.76 479.564 162.646 479.678L157.181 485.143C157.065 485.261 156.926 485.353 156.773 485.415C156.62 485.477 156.456 485.507 156.291 485.503Z" fill="#66AF49"/>
<path fill-rule="evenodd" clip-rule="evenodd" d="M198.761 447.595C200.961 445.496 202.725 442.982 203.951 440.198V440.218C204.496 438.971 204.926 437.686 205.24 436.378C205.918 433.587 206.069 430.687 205.676 427.828C205.18 424.211 203.828 420.765 201.733 417.774C199.638 414.784 196.861 412.336 193.631 410.633L193.612 410.607C193.998 409.232 194.196 407.811 194.201 406.383C194.229 402.653 192.973 399.026 190.645 396.111C188.316 393.196 185.056 391.171 181.411 390.374C177.766 389.578 173.958 390.06 170.626 391.739C167.302 393.413 164.653 396.177 163.122 399.568H146.291C144.747 396.188 142.092 393.44 138.767 391.78C135.443 390.12 131.65 389.649 128.02 390.446C126.184 390.849 124.445 391.565 122.875 392.549C121.335 393.508 119.955 394.724 118.801 396.158C116.474 399.05 115.207 402.651 115.211 406.363C115.225 407.329 115.318 408.293 115.491 409.243C111.753 410.522 108.408 412.744 105.779 415.694C103.15 418.643 101.327 422.221 100.485 426.081C99.6427 429.941 99.8106 433.953 100.972 437.73C102.134 441.506 104.25 444.919 107.116 447.638C107.116 447.638 107.082 447.757 107.025 447.982C106.108 449.443 102.396 455.435 101.011 458.728C101.011 458.728 94.2361 471.668 101.011 477.038C104.199 479.565 106.926 477.798 108.921 475.218C110.352 478.342 112.365 481.381 115.156 484.112V492.018C115.156 492.863 115.492 493.673 116.089 494.27C116.686 494.868 117.497 495.203 118.341 495.203H127.586C128.431 495.203 129.241 494.868 129.838 494.27C130.249 493.86 130.536 493.348 130.675 492.794C135.818 494.309 141.967 495.248 149.322 495.386C152.046 495.437 154.935 495.378 158 495.198L198.761 447.595ZM198.761 447.595C199.253 448.301 203.794 454.84 205.452 458.328C205.452 458.328 212.817 470.953 206.288 476.623C202.929 479.54 199.89 477.301 197.731 474.439C196.223 477.822 193.987 481.126 190.745 484.073H190.787V491.798C190.787 492.701 190.428 493.567 189.789 494.206C189.151 494.844 188.285 495.203 187.382 495.203H177.507C176.604 495.203 175.737 494.844 175.099 494.206C174.67 493.777 174.367 493.246 174.215 492.669C171.395 493.455 168.285 494.091 164.86 494.55C162.701 494.839 160.417 495.057 158.001 495.198L198.761 447.595Z" fill="url(#paint3_linear_626_500)"/>
<path d="M87.2572 479.62L86.9713 479.676C90.9046 484.101 97.3516 485.664 104.095 484.196C113.602 482.12 120.084 474.793 118.008 465.28C115.933 455.767 107.445 453.868 97.9379 455.939C91.1948 457.412 85.5282 459.451 83.7971 465.111C83.8925 465.082 83.9878 465.064 84.0832 465.04C88.097 464.161 90.5575 466.779 91.4565 470.808C92.3554 474.837 91.271 478.741 87.2572 479.62Z" fill="#F95A5A"/>
<path d="M114.836 465.442C114.127 463.134 112.782 461.072 110.956 459.492" stroke="white" stroke-width="4" stroke-linecap="round" stroke-linejoin="round"/>
<path d="M88.1151 449.49C87.9802 449.489 87.847 449.519 87.7259 449.579C87.6049 449.639 87.4993 449.726 87.4177 449.833C87.336 449.94 87.2804 450.065 87.2554 450.198C87.2303 450.331 87.2364 450.467 87.2732 450.597L87.9096 452.817C88.486 454.819 89.6984 456.579 91.3637 457.832C93.029 459.084 95.0567 459.76 97.1403 459.758C97.5435 459.757 97.941 459.662 98.3014 459.481C98.6618 459.3 98.9753 459.038 99.2173 458.716C99.4592 458.393 99.623 458.019 99.6956 457.622C99.7683 457.226 99.7479 456.818 99.6361 456.43C99.0575 454.447 97.8537 452.703 96.2038 451.459C94.5539 450.214 92.5463 449.536 90.4799 449.526L88.1151 449.49Z" fill="#009056" stroke="#009056" stroke-miterlimit="10" stroke-linecap="round"/>
<path d="M272.75 420.5L148 354.75L110.5 450.612L189.745 481.812L272.75 420.5Z" fill="url(#paint4_linear_626_500)"/>
<path d="M272.521 420.437H191.431C190.5 420.437 189.746 421.191 189.746 422.122V481.817C189.746 482.747 190.5 483.502 191.431 483.502H272.521C273.452 483.502 274.206 482.747 274.206 481.817V422.122C274.206 421.191 273.452 420.437 272.521 420.437Z" fill="#136E90"/>
<path d="M271.695 483.497H176.56C175.629 483.497 174.875 484.251 174.875 485.182V487.917C174.875 488.848 175.629 489.602 176.56 489.602H271.695C272.626 489.602 273.38 488.848 273.38 487.917V485.182C273.38 484.251 272.626 483.497 271.695 483.497Z" fill="#015271"/>
<g filter="url(#filter1_d_626_500)">
<path d="M229.389 452.478V449.61L223.359 455.619L224.78 457.069L229.389 452.478ZM243.104 450.705C242.757 449.185 241.96 447.763 240.787 446.573L236.653 442.362L234.287 444.722L234.116 444.891V447.759L236.638 445.243L238.989 447.635L239.347 448.003L239.371 448.028C239.371 448.028 239.528 448.181 239.744 448.441C240.421 449.231 240.888 450.134 241.115 451.09C241.448 452.78 241.605 454.751 239.734 457.152V460.114C239.91 459.962 240.023 459.854 240.062 459.813C241.619 458.382 242.695 456.626 243.177 454.726C243.443 453.393 243.418 452.031 243.104 450.705ZM230.565 459.54L230.501 459.511H230.467C230.284 459.41 230.111 459.298 229.947 459.176C229.796 459.065 229.604 458.92 229.379 458.734C229.036 458.449 228.615 458.069 228.096 457.561L226.93 456.379L225.495 457.813L226.651 458.995C228.439 460.743 229.36 461.243 229.698 461.383C230.746 461.906 231.915 462.231 233.126 462.338C233.676 462.381 234.23 462.37 234.777 462.305H234.909V460.238C233.408 460.475 231.857 460.225 230.565 459.54Z" fill="white"/>
<path d="M233.103 445.912L233.083 458.16L230.394 458.156L230.409 448.598L230.678 448.325L230.825 448.181L231.638 447.371L232.191 446.821L232.368 446.643L232.921 446.094L233.103 445.912Z" fill="white"/>
<path d="M238.73 448.659V460.878L238.691 460.903L238.299 461.143L238.157 461.221C238.035 461.292 237.902 461.358 237.765 461.424C237.628 461.49 237.511 461.548 237.378 461.606L237.153 461.701L236.854 461.821L236.604 461.907C236.438 461.961 236.266 462.015 236.085 462.064L235.953 462.097V448.655L238.73 448.659Z" fill="white"/>
<path d="M233.106 451.9L233.102 454.673L235.958 454.676L235.962 451.903L233.106 451.9Z" fill="white"/>
</g>
</g>
<path d="M651.294 498.65H448.744C426.451 498.65 408.379 516.722 408.379 539.015V589.295C408.379 611.588 426.451 629.66 448.744 629.66H651.294C673.587 629.66 691.659 611.588 691.659 589.295V539.015C691.659 516.722 673.587 498.65 651.294 498.65Z" fill="#275C40"/>
<path d="M691.664 539V589.28C691.677 598.843 688.281 608.097 682.084 615.38V553.265C682.084 542.559 677.831 532.292 670.261 524.723C662.691 517.153 652.424 512.9 641.719 512.9H417.969C421.754 508.429 426.469 504.837 431.785 502.376C437.102 499.915 442.891 498.643 448.749 498.65H651.299C662.001 498.651 672.265 502.902 679.835 510.469C687.404 518.035 691.659 528.297 691.664 539Z" fill="#367B55"/>
<path d="M436.975 477.057C436.975 477.057 436.635 494.074 446.67 502.278C456.705 510.482 473.314 506.768 473.314 506.768C473.314 506.768 473.811 489.56 463.776 481.355C453.741 473.151 436.975 477.057 436.975 477.057Z" fill="#367B55"/>
<path d="M496.191 481.496C496.191 481.496 485.125 479.448 478.695 485.114C472.265 490.781 472.906 502.016 472.906 502.016C472.906 502.016 484.08 504.187 490.51 498.521C496.94 492.854 496.191 481.496 496.191 481.496Z" fill="#367B55"/>
<path opacity="0.5" d="M333.749 233L333.986 275.914C333.995 277.61 334.436 279.276 335.266 280.755L633.133 811.161C634.903 814.314 638.237 816.265 641.852 816.265L723.04 816.265C731.131 816.265 735.872 807.156 731.231 800.528L333.749 233Z" fill="url(#paint5_linear_626_500)"/>
</g>
<defs>
<filter id="filter0_d_626_500" x="482.853" y="451.36" width="24" height="24" filterUnits="userSpaceOnUse" color-interpolation-filters="sRGB">
<feFlood flood-opacity="0" result="BackgroundImageFix"/>
<feColorMatrix in="SourceAlpha" type="matrix" values="0 0 0 0 0 0 0 0 0 0 0 0 0 0 0 0 0 0 127 0" result="hardAlpha"/>
<feOffset/>
<feGaussianBlur stdDeviation="1"/>
<feComposite in2="hardAlpha" operator="out"/>
<feColorMatrix type="matrix" values="0 0 0 0 1 0 0 0 0 1 0 0 0 0 1 0 0 0 0.4 0"/>
<feBlend mode="normal" in2="BackgroundImageFix" result="effect1_dropShadow_626_500"/>
<feBlend mode="normal" in="SourceGraphic" in2="effect1_dropShadow_626_500" result="shape"/>
</filter>
<filter id="filter1_d_626_500" x="221.359" y="440.362" width="24" height="24.0011" filterUnits="userSpaceOnUse" color-interpolation-filters="sRGB">
<feFlood flood-opacity="0" result="BackgroundImageFix"/>
<feColorMatrix in="SourceAlpha" type="matrix" values="0 0 0 0 0 0 0 0 0 0 0 0 0 0 0 0 0 0 127 0" result="hardAlpha"/>
<feOffset/>
<feGaussianBlur stdDeviation="1"/>
<feComposite in2="hardAlpha" operator="out"/>
<feColorMatrix type="matrix" values="0 0 0 0 1 0 0 0 0 1 0 0 0 0 1 0 0 0 0.4 0"/>
<feBlend mode="normal" in2="BackgroundImageFix" result="effect1_dropShadow_626_500"/>
<feBlend mode="normal" in="SourceGraphic" in2="effect1_dropShadow_626_500" result="shape"/>
</filter>
<linearGradient id="paint0_linear_626_500" x1="245.25" y1="642.5" x2="661.5" y2="25.25" gradientUnits="userSpaceOnUse">
<stop stop-color="#2CD0EF"/>
<stop offset="0.436544" stop-color="#7CEAED"/>
<stop offset="1" stop-color="#BEEBE7"/>
</linearGradient>
<linearGradient id="paint1_linear_626_500" x1="504.25" y1="9" x2="504.25" y2="799" gradientUnits="userSpaceOnUse">
<stop stop-color="#FFC53D"/>
<stop offset="1" stop-color="#FFC53D" stop-opacity="0"/>
</linearGradient>
<linearGradient id="paint2_linear_626_500" x1="563.78" y1="410.59" x2="513.915" y2="475.235" gradientUnits="userSpaceOnUse">
<stop offset="0.25" stop-color="white" stop-opacity="0"/>
<stop offset="1" stop-color="#96FFFF" stop-opacity="0.5"/>
</linearGradient>
<linearGradient id="paint3_linear_626_500" x1="191.5" y1="482" x2="142.5" y2="414.5" gradientUnits="userSpaceOnUse">
<stop stop-color="#A0FFE6"/>
<stop offset="1" stop-color="#66AF49" stop-opacity="0"/>
</linearGradient>
<linearGradient id="paint4_linear_626_500" x1="164.175" y1="400.087" x2="214.04" y2="464.732" gradientUnits="userSpaceOnUse">
<stop offset="0.25" stop-color="#96FFFF" stop-opacity="0"/>
<stop offset="1" stop-color="#96FFFF" stop-opacity="0.5"/>
</linearGradient>
<linearGradient id="paint5_linear_626_500" x1="475.258" y1="-338.92" x2="680.215" y2="800.116" gradientUnits="userSpaceOnUse">
<stop stop-color="#FFC53D"/>
<stop offset="1" stop-color="#FFC53D" stop-opacity="0"/>
</linearGradient>
<clipPath id="clip0_626_500">
<rect width="700" height="784" fill="white"/>
</clipPath>
<clipPath id="clip1_626_500">
<rect width="212.095" height="196.71" fill="white" transform="translate(80.0625 292.105)"/>
</clipPath>
</defs>
</svg>
