<svg width="240" height="249" viewBox="0 0 240 249" fill="none" xmlns="http://www.w3.org/2000/svg">
<path d="M222.806 159.889C222.806 159.889 243.108 140.471 234.051 126.665C224.993 112.859 207.892 135.354 207.892 135.354L196.351 147.683L204.687 176.123C211.035 171.065 217.085 165.645 222.806 159.889Z" fill="#EFEFEF"/>
<path d="M40.397 227.073H72.6373V231.911C72.6373 236.178 70.9389 240.271 67.9158 243.288C64.8927 246.305 60.7925 248 56.5171 248C52.2418 248 48.1416 246.305 45.1185 243.288C42.0953 240.271 40.397 236.178 40.397 231.911V227.073V227.073Z" fill="white"/>
<path d="M172.865 227.073H204.352V232.287C204.352 236.454 202.693 240.451 199.741 243.398C196.788 246.345 192.784 248 188.608 248V248C184.433 248 180.429 246.345 177.476 243.398C174.524 240.451 172.865 236.454 172.865 232.287V227.073Z" fill="#EFEFEF"/>
<path d="M81.9093 49.7456C107.057 42.5702 133.715 42.5702 158.862 49.7456H159.074C170.104 52.8586 180.114 58.8252 188.089 67.0412C196.065 75.2572 201.724 85.4308 204.493 96.5318C209.788 117.67 215.083 185.971 215.083 206.193C215.083 206.193 217.719 248.047 120.574 248.047C23.4297 248.047 26.4419 206.193 26.4419 206.193C26.4419 206.193 26.4419 176.999 27.2185 164.339C28.3957 141.586 31.5452 118.977 36.6317 96.7667C39.3765 85.6486 45.0127 75.4505 52.9711 67.2025C60.9294 58.9545 70.9279 52.949 81.9564 49.7926L81.9093 49.7456Z" fill="#F2F2F2"/>
<path d="M81.9093 49.7456C107.057 42.5702 133.715 42.5702 158.862 49.7456H159.074C170.104 52.8586 180.114 58.8252 188.089 67.0412C196.065 75.2572 201.724 85.4308 204.493 96.5318C209.788 117.67 215.083 185.971 215.083 206.193C215.083 206.193 217.719 248.047 120.574 248.047C23.4297 248.047 26.4419 206.193 26.4419 206.193C26.4419 206.193 26.4419 176.999 27.2185 164.339C28.3957 141.586 31.5452 118.977 36.6317 96.7667C39.3765 85.6486 45.0127 75.4505 52.9711 67.2025C60.9294 58.9545 70.9279 52.949 81.9564 49.7926L81.9093 49.7456Z" fill="white"/>
<path d="M84.1214 127.089H73.5551C67.7584 127.089 63.0593 131.779 63.0593 137.564V137.587C63.0593 143.373 67.7584 148.063 73.5551 148.063H84.1214C89.9181 148.063 94.6172 143.373 94.6172 137.587V137.564C94.6172 131.779 89.9181 127.089 84.1214 127.089Z" fill="#FFD2D2"/>
<path d="M195.386 127.089H184.82C179.023 127.089 174.324 131.779 174.324 137.564V137.587C174.324 143.373 179.023 148.063 184.82 148.063H195.386C201.183 148.063 205.882 143.373 205.882 137.587V137.564C205.882 131.779 201.183 127.089 195.386 127.089Z" fill="#FFD2D2"/>
<path d="M176.677 122.391C182.448 122.391 187.126 117.722 187.126 111.963C187.126 106.204 182.448 101.535 176.677 101.535C170.907 101.535 166.229 106.204 166.229 111.963C166.229 117.722 170.907 122.391 176.677 122.391Z" fill="black"/>
<path d="M92.7817 122.391C98.5523 122.391 103.23 117.722 103.23 111.963C103.23 106.204 98.5523 101.535 92.7817 101.535C87.011 101.535 82.333 106.204 82.333 111.963C82.333 117.722 87.011 122.391 92.7817 122.391Z" fill="black"/>
<path d="M99.9358 52.893C101.563 52.4602 102.96 51.4179 103.837 49.983C104.714 48.5481 105.002 46.8311 104.642 45.1892C101.795 32.2243 93.5819 3.66403 77.1793 6.01274C57.8116 8.78422 67.7661 40.7266 72.6609 53.6915C73.2616 55.1615 74.3629 56.3726 75.7706 57.1116C77.1784 57.8507 78.8023 58.0701 80.3563 57.7313L99.9358 52.893Z" fill="#FFD2D2"/>
<path d="M78.9677 63.7674C76.4228 63.7723 73.9361 63.0073 71.8356 61.5734C69.735 60.1394 68.1192 58.1038 67.2011 55.7348C61.5532 40.7501 56.2583 20.5042 63.177 8.7607C64.5713 6.4161 66.4912 4.42604 68.786 2.94674C71.0808 1.46744 73.6878 0.539199 76.4026 0.234916C91.652 -1.97287 103.748 13.5756 110.431 43.9444C111.14 47.0943 110.579 50.3958 108.871 53.1373C107.163 55.8788 104.444 57.8407 101.301 58.6003V58.6003L81.8152 63.4386C80.8824 63.6598 79.9265 63.7702 78.9677 63.7674ZM78.9677 11.767C78.6465 11.7438 78.3241 11.7438 78.0029 11.767C77.045 11.8306 76.1168 12.1244 75.2972 12.6233C74.4777 13.1222 73.7912 13.8115 73.2963 14.6325C69.9075 20.3633 71.7901 34.5025 78.2147 51.5307C78.2995 51.6593 78.4146 51.7651 78.5501 51.8388C78.6855 51.9125 78.837 51.9519 78.9912 51.9534L98.4531 47.1151C98.6157 47.0758 98.7572 46.9763 98.849 46.8367C98.9408 46.6972 98.9759 46.528 98.9473 46.3635C95.4173 30.2749 88.0985 11.767 79.0618 11.767H78.9677Z" fill="white"/>
<path d="M144.343 54.2786C142.709 53.8563 141.305 52.816 140.426 51.3781C139.548 49.9402 139.264 48.2176 139.636 46.5748C142.484 33.61 150.673 5.07317 167.099 7.39839C186.443 10.1699 176.512 42.1123 171.618 55.0772C171.053 56.5744 169.958 57.8129 168.54 58.5575C167.121 59.3022 165.478 59.5013 163.922 59.1169L144.343 54.2786Z" fill="#FFD2D2"/>
<path d="M165.405 65.1767C164.389 65.1777 163.377 65.0514 162.393 64.8009L142.931 59.9625C139.783 59.2081 137.058 57.2483 135.345 54.5063C133.633 51.7642 133.069 48.4598 133.776 45.3066C140.483 14.9378 152.603 -0.58715 167.829 1.59715C170.541 1.89784 173.147 2.82484 175.438 4.30467C177.73 5.7845 179.645 7.77652 181.031 10.123C187.973 21.8665 182.678 42.1359 177.03 57.0971C176.145 59.4636 174.558 61.5047 172.481 62.9482C170.404 64.3917 167.936 65.1691 165.405 65.1767V65.1767ZM165.193 13.1528C156.133 13.1528 148.838 31.5901 145.261 47.8432C145.232 48.0015 145.264 48.1648 145.352 48.3C145.439 48.4352 145.575 48.5322 145.731 48.5713V48.5713L165.217 53.4097C165.373 53.4492 165.538 53.4305 165.681 53.3569C165.824 53.2834 165.935 53.1601 165.993 53.0104C172.418 35.9587 174.277 21.8195 170.888 16.1122C170.402 15.2815 169.718 14.5832 168.897 14.0793C168.076 13.5754 167.144 13.2814 166.182 13.2233C165.854 13.1741 165.524 13.1505 165.193 13.1528V13.1528Z" fill="white"/>
<path d="M149.779 164.292H119.704C99.0644 164.292 82.333 180.986 82.333 201.578C82.333 222.17 99.0644 238.864 119.704 238.864H149.779C170.418 238.864 187.149 222.17 187.149 201.578C187.149 180.986 170.418 164.292 149.779 164.292Z" fill="#F4F4F4"/>
<path d="M16.3642 154.913C16.3642 154.913 -3.91546 135.49 5.1599 121.656C14.2353 107.822 31.3286 130.391 31.3286 130.391L42.8291 142.753L34.4473 171.204C28.1088 166.127 22.071 160.688 16.3642 154.913Z" fill="white"/>
<path d="M145.119 229.422C144.81 229.424 144.503 229.364 144.216 229.247C143.929 229.131 143.668 228.958 143.449 228.741L132.976 218.172C132.591 217.722 132.389 217.144 132.412 216.553C132.435 215.962 132.681 215.401 133.1 214.983C133.519 214.565 134.081 214.32 134.673 214.297C135.265 214.274 135.844 214.475 136.294 214.86L146.79 225.312C147.011 225.53 147.186 225.79 147.305 226.076C147.425 226.362 147.486 226.669 147.486 226.979C147.486 227.289 147.425 227.596 147.305 227.882C147.186 228.169 147.011 228.428 146.79 228.647C146.578 228.881 146.321 229.071 146.034 229.204C145.747 229.337 145.436 229.411 145.119 229.422Z" fill="#FFD2D2"/>
<path d="M134.6 229.422C134.29 229.424 133.983 229.364 133.697 229.247C133.41 229.13 133.149 228.958 132.929 228.741C132.709 228.522 132.533 228.263 132.414 227.976C132.295 227.69 132.233 227.383 132.233 227.073C132.233 226.763 132.295 226.456 132.414 226.17C132.533 225.884 132.709 225.624 132.929 225.405L143.401 214.954C143.62 214.734 143.88 214.559 144.167 214.44C144.454 214.32 144.762 214.259 145.072 214.259C145.383 214.259 145.69 214.32 145.977 214.44C146.264 214.559 146.524 214.734 146.743 214.954C147.181 215.394 147.427 215.989 147.427 216.609C147.427 217.23 147.181 217.825 146.743 218.265L136.247 228.741C135.809 229.175 135.217 229.419 134.6 229.422V229.422Z" fill="#FFD2D2"/>
<path d="M138.836 125.515L126.881 119.526C126.605 119.385 126.358 119.192 126.157 118.957C125.955 118.721 125.802 118.449 125.706 118.154C125.511 117.56 125.562 116.912 125.846 116.355C126.13 115.797 126.624 115.375 127.22 115.181C127.816 114.988 128.464 115.038 129.023 115.321L138.86 120.324L149.591 114.993C150.152 114.715 150.801 114.672 151.395 114.873C151.989 115.073 152.478 115.501 152.756 116.061C153.034 116.622 153.077 117.27 152.876 117.862C152.675 118.455 152.247 118.943 151.685 119.22L138.836 125.515Z" fill="#FFD2D2"/>
<path d="M131.847 139.208C129.421 139.26 127.061 138.425 125.21 136.859C124.736 136.454 124.442 135.878 124.394 135.257C124.345 134.636 124.546 134.021 124.951 133.548C125.357 133.074 125.935 132.781 126.557 132.732C127.179 132.684 127.795 132.884 128.27 133.289C129.28 134.098 130.553 134.508 131.847 134.44C132.456 134.513 133.074 134.452 133.657 134.261C134.241 134.07 134.775 133.755 135.223 133.337C135.672 132.918 136.023 132.407 136.253 131.839C136.482 131.271 136.585 130.66 136.553 130.048V122.814C136.553 122.191 136.801 121.594 137.243 121.153C137.684 120.713 138.282 120.465 138.907 120.465C139.531 120.465 140.129 120.713 140.571 121.153C141.012 121.594 141.26 122.191 141.26 122.814V130.071C141.218 131.616 140.832 133.133 140.13 134.51C139.354 136.01 138.158 137.252 136.687 138.086C135.216 138.92 133.535 139.31 131.847 139.208Z" fill="#FFD2D2"/>
<path d="M146.367 139.208C145.121 139.271 143.874 139.086 142.701 138.664C141.527 138.243 140.449 137.592 139.529 136.751C138.609 135.909 137.866 134.894 137.343 133.763C136.82 132.633 136.528 131.41 136.483 130.165C136.483 129.542 136.731 128.945 137.172 128.505C137.613 128.064 138.212 127.817 138.836 127.817C139.46 127.817 140.059 128.064 140.5 128.505C140.941 128.945 141.189 129.542 141.189 130.165C141.196 130.81 141.341 131.446 141.614 132.03C141.887 132.615 142.281 133.134 142.771 133.554C143.261 133.975 143.835 134.286 144.455 134.467C145.075 134.648 145.727 134.695 146.367 134.604C147.659 134.693 148.937 134.29 149.944 133.477C150.174 133.27 150.443 133.111 150.735 133.008C151.027 132.905 151.336 132.86 151.645 132.877C151.954 132.893 152.257 132.97 152.537 133.103C152.816 133.237 153.066 133.423 153.274 133.653C153.481 133.883 153.64 134.151 153.743 134.443C153.847 134.734 153.891 135.043 153.875 135.351C153.859 135.66 153.781 135.962 153.648 136.241C153.514 136.52 153.327 136.77 153.097 136.977C151.218 138.544 148.812 139.341 146.367 139.208V139.208Z" fill="#FFD2D2"/>
</svg>
