<svg width="228" height="215" viewBox="0 0 228 215" fill="none" xmlns="http://www.w3.org/2000/svg">
<g clip-path="url(#clip0_626_1030)">
<path d="M219.085 164.879C219.085 164.879 234.499 188.366 222.567 199.781C210.636 211.196 199.034 185.43 199.034 185.43L190.562 170.821L205.082 144.986C210.13 151.342 214.805 157.984 219.085 164.879Z" fill="#EFEFEF"/>
<path d="M75.9094 49.7456C101.057 42.5702 127.715 42.5702 152.863 49.7456H153.074C164.104 52.8586 174.114 58.8252 182.089 67.0412C190.065 75.2572 195.724 85.4309 198.493 96.5318C203.788 117.67 209.083 185.971 209.083 206.193C209.083 206.193 211.719 248.047 114.574 248.047C17.4297 248.047 20.442 206.193 20.442 206.193C20.442 206.193 20.4419 176.999 21.2185 164.339C22.3957 141.586 25.5453 118.977 30.6318 96.7667C33.3765 85.6486 39.0128 75.4505 46.9711 67.2025C54.9295 58.9545 64.9279 52.949 75.9565 49.7926L75.9094 49.7456Z" fill="#F2F2F2"/>
<path d="M75.9094 49.7456C101.057 42.5702 127.715 42.5702 152.863 49.7456H153.074C164.104 52.8586 174.114 58.8252 182.089 67.0412C190.065 75.2572 195.724 85.4309 198.493 96.5318C203.788 117.67 209.083 185.971 209.083 206.193C209.083 206.193 211.719 248.047 114.574 248.047C17.4297 248.047 20.442 206.193 20.442 206.193C20.442 206.193 20.4419 176.999 21.2185 164.339C22.3957 141.586 25.5453 118.977 30.6318 96.7667C33.3765 85.6486 39.0128 75.4505 46.9711 67.2025C54.9295 58.9545 64.9279 52.949 75.9565 49.7926L75.9094 49.7456Z" fill="white"/>
<path d="M78.1215 127.089H67.5552C61.7585 127.089 57.0594 131.778 57.0594 137.564V137.587C57.0594 143.373 61.7585 148.062 67.5552 148.062H78.1215C83.9182 148.062 88.6173 143.373 88.6173 137.587V137.564C88.6173 131.778 83.9182 127.089 78.1215 127.089Z" fill="#FFD2D2"/>
<path d="M189.386 127.089H178.82C173.023 127.089 168.324 131.778 168.324 137.564V137.587C168.324 143.373 173.023 148.062 178.82 148.062H189.386C195.183 148.062 199.882 143.373 199.882 137.587V137.564C199.882 131.778 195.183 127.089 189.386 127.089Z" fill="#FFD2D2"/>
<path d="M170.677 122.391C176.448 122.391 181.126 117.722 181.126 111.963C181.126 106.204 176.448 101.535 170.677 101.535C164.906 101.535 160.228 106.204 160.228 111.963C160.228 117.722 164.906 122.391 170.677 122.391Z" fill="black"/>
<path d="M86.7817 122.391C92.5523 122.391 97.2304 117.722 97.2304 111.963C97.2304 106.204 92.5523 101.535 86.7817 101.535C81.011 101.535 76.333 106.204 76.333 111.963C76.333 117.722 81.011 122.391 86.7817 122.391Z" fill="black"/>
<path d="M93.9357 52.893C95.5629 52.4602 96.9602 51.4179 97.8368 49.983C98.7135 48.5481 99.002 46.8311 98.6423 45.1892C95.7948 32.2243 87.5818 3.66403 71.1793 6.01274C51.8116 8.78422 61.766 40.7266 66.6609 53.6915C67.2616 55.1614 68.3628 56.3726 69.7706 57.1116C71.1783 57.8507 72.8023 58.0701 74.3563 57.7313L93.9357 52.893Z" fill="#FFD2D2"/>
<path d="M72.9677 63.7674C70.4228 63.7723 67.9362 63.0073 65.8356 61.5734C63.7351 60.1394 62.1193 58.1038 61.2012 55.7348C55.5533 40.7501 50.2583 20.5042 57.1771 8.7607C58.5714 6.4161 60.4913 4.42604 62.7861 2.94674C65.0808 1.46744 67.6879 0.539199 70.4026 0.234916C85.6521 -1.97287 97.7481 13.5756 104.432 43.9444C105.14 47.0943 104.579 50.3958 102.871 53.1373C101.163 55.8788 98.4444 57.8407 95.3007 58.6003L75.8153 63.4386C74.8824 63.6598 73.9266 63.7702 72.9677 63.7674ZM72.9677 11.767C72.6465 11.7438 72.3241 11.7438 72.0029 11.767C71.0451 11.8306 70.1168 12.1244 69.2973 12.6233C68.4778 13.1222 67.7913 13.8115 67.2963 14.6325C63.9076 20.3633 65.7902 34.5025 72.2147 51.5307C72.2996 51.6593 72.4147 51.7651 72.5501 51.8388C72.6855 51.9125 72.837 51.9519 72.9913 51.9534L92.4532 47.1151C92.6158 47.0758 92.7573 46.9763 92.849 46.8367C92.9408 46.6972 92.976 46.528 92.9474 46.3635C89.4174 30.2749 82.0986 11.767 73.0619 11.767H72.9677Z" fill="white"/>
<path d="M138.343 54.2786C136.709 53.8563 135.304 52.816 134.426 51.3781C133.547 49.9402 133.264 48.2176 133.636 46.5748C136.484 33.61 144.673 5.07317 161.099 7.39839C180.443 10.1699 170.512 42.1123 165.617 55.0772C165.053 56.5744 163.958 57.8129 162.54 58.5575C161.121 59.3022 159.478 59.5013 157.922 59.1169L138.343 54.2786Z" fill="#FFD2D2"/>
<path d="M159.405 65.1767C158.389 65.1777 157.377 65.0514 156.393 64.8009L136.931 59.9625C133.783 59.2081 131.058 57.2483 129.345 54.5063C127.633 51.7642 127.069 48.4598 127.776 45.3066C134.483 14.9378 146.603 -0.58715 161.829 1.59715C164.541 1.89784 167.147 2.82484 169.438 4.30467C171.73 5.7845 173.644 7.77652 175.031 10.123C181.973 21.8665 176.678 42.1359 171.03 57.0971C170.145 59.4636 168.558 61.5047 166.481 62.9482C164.404 64.3917 161.936 65.1691 159.405 65.1767ZM159.193 13.1528C150.133 13.1528 142.837 31.5901 139.26 47.8432C139.232 48.0015 139.264 48.1648 139.352 48.3C139.439 48.4352 139.575 48.5322 139.731 48.5713L159.217 53.4097C159.372 53.4492 159.538 53.4305 159.681 53.3569C159.824 53.2834 159.935 53.1601 159.993 53.0104C166.418 35.9587 168.277 21.8195 164.888 16.1122C164.402 15.2815 163.718 14.5832 162.897 14.0793C162.076 13.5754 161.143 13.2814 160.181 13.2233C159.854 13.1741 159.524 13.1505 159.193 13.1528Z" fill="white"/>
<path d="M143.779 164.292H113.704C93.0643 164.292 76.333 180.986 76.333 201.578C76.333 222.17 93.0643 238.864 113.704 238.864H143.779C164.418 238.864 181.149 222.17 181.149 201.578C181.149 180.986 164.418 164.292 143.779 164.292Z" fill="#F4F4F4"/>
<path d="M8.08716 169.858C8.08716 169.858 -7.30352 193.346 4.65128 204.784C16.6061 216.222 28.1843 190.386 28.1843 190.386L36.6092 175.754L22.0422 149.918C17.0081 156.29 12.3486 162.948 8.08716 169.858Z" fill="white"/>
<path d="M139.119 229.422C138.81 229.424 138.503 229.364 138.216 229.247C137.929 229.131 137.668 228.958 137.448 228.741L126.976 218.172C126.591 217.722 126.389 217.144 126.412 216.553C126.435 215.962 126.68 215.401 127.1 214.983C127.519 214.565 128.081 214.32 128.673 214.297C129.265 214.274 129.844 214.475 130.294 214.86L140.79 225.312C141.011 225.53 141.186 225.79 141.305 226.076C141.425 226.362 141.486 226.669 141.486 226.979C141.486 227.289 141.425 227.596 141.305 227.882C141.186 228.169 141.011 228.428 140.79 228.647C140.578 228.881 140.321 229.071 140.034 229.204C139.747 229.337 139.436 229.411 139.119 229.422Z" fill="#FFD2D2"/>
<path d="M128.6 229.422C128.29 229.424 127.983 229.364 127.696 229.247C127.41 229.13 127.149 228.958 126.929 228.741C126.709 228.522 126.533 228.263 126.414 227.976C126.294 227.69 126.233 227.383 126.233 227.073C126.233 226.763 126.294 226.456 126.414 226.17C126.533 225.884 126.709 225.624 126.929 225.405L137.401 214.954C137.62 214.734 137.88 214.559 138.167 214.44C138.454 214.32 138.762 214.259 139.072 214.259C139.383 214.259 139.69 214.32 139.977 214.44C140.264 214.559 140.524 214.734 140.743 214.954C141.181 215.394 141.427 215.989 141.427 216.609C141.427 217.23 141.181 217.825 140.743 218.265L130.247 228.741C129.809 229.175 129.217 229.419 128.6 229.422Z" fill="#FFD2D2"/>
<path d="M132.836 125.515L120.881 119.526C120.605 119.385 120.358 119.192 120.157 118.957C119.955 118.721 119.802 118.449 119.705 118.154C119.511 117.56 119.562 116.912 119.846 116.355C120.13 115.797 120.624 115.375 121.22 115.181C121.815 114.988 122.464 115.038 123.023 115.321L132.859 120.324L143.591 114.993C144.152 114.715 144.801 114.672 145.395 114.873C145.988 115.073 146.478 115.501 146.756 116.061C147.033 116.622 147.077 117.27 146.876 117.862C146.675 118.455 146.247 118.943 145.685 119.22L132.836 125.515Z" fill="#FFD2D2"/>
<path d="M125.847 139.208C123.421 139.26 121.061 138.425 119.21 136.859C118.736 136.454 118.442 135.878 118.394 135.257C118.345 134.636 118.546 134.021 118.951 133.548C119.357 133.074 119.935 132.781 120.557 132.732C121.179 132.684 121.795 132.884 122.27 133.289C123.28 134.098 124.553 134.508 125.847 134.44C126.456 134.513 127.074 134.452 127.657 134.261C128.241 134.07 128.775 133.755 129.223 133.337C129.672 132.918 130.023 132.407 130.253 131.839C130.482 131.271 130.585 130.66 130.553 130.048V122.814C130.553 122.191 130.801 121.594 131.242 121.153C131.684 120.713 132.282 120.465 132.906 120.465C133.531 120.465 134.129 120.713 134.571 121.153C135.012 121.594 135.26 122.191 135.26 122.814V130.071C135.218 131.616 134.832 133.133 134.13 134.51C133.354 136.01 132.158 137.252 130.687 138.086C129.216 138.92 127.535 139.31 125.847 139.208Z" fill="#FFD2D2"/>
<path d="M140.366 139.208C139.12 139.271 137.874 139.086 136.7 138.664C135.527 138.243 134.449 137.592 133.529 136.751C132.609 135.909 131.866 134.894 131.343 133.763C130.82 132.633 130.528 131.41 130.483 130.165C130.483 129.542 130.731 128.945 131.172 128.505C131.613 128.064 132.212 127.817 132.836 127.817C133.46 127.817 134.059 128.064 134.5 128.505C134.941 128.945 135.189 129.542 135.189 130.165C135.196 130.81 135.341 131.446 135.614 132.03C135.887 132.615 136.281 133.134 136.771 133.554C137.261 133.975 137.835 134.286 138.455 134.467C139.075 134.648 139.727 134.695 140.366 134.604C141.659 134.693 142.936 134.29 143.943 133.477C144.174 133.27 144.443 133.111 144.734 133.008C145.026 132.905 145.336 132.86 145.645 132.877C145.954 132.893 146.257 132.97 146.537 133.103C146.816 133.237 147.066 133.423 147.273 133.653C147.48 133.883 147.64 134.151 147.743 134.443C147.847 134.734 147.891 135.043 147.875 135.351C147.858 135.66 147.781 135.962 147.648 136.241C147.514 136.52 147.327 136.77 147.097 136.977C145.217 138.544 142.812 139.341 140.366 139.208Z" fill="#FFD2D2"/>
</g>
<defs>
<clipPath id="clip0_626_1030">
<rect width="227" height="248" fill="white" transform="translate(0.109375)"/>
</clipPath>
</defs>
</svg>
