<svg width="228" height="195" viewBox="0 0 228 195" fill="none" xmlns="http://www.w3.org/2000/svg">
<g clip-path="url(#clip0_626_1053)">
<path d="M219.085 144.978C219.085 144.978 234.499 168.437 222.567 179.838C210.636 191.239 199.034 165.505 199.034 165.505L190.563 150.913L205.082 125.108C210.13 131.457 214.805 138.091 219.085 144.978Z" fill="#EFD565"/>
<path d="M75.9093 29.9809C101.049 22.8146 127.699 22.8146 152.839 29.9809H153.074C164.101 33.0967 174.107 39.0584 182.081 47.2636C190.056 55.4689 195.718 65.6269 198.493 76.7116C203.764 97.8249 209.083 166.044 209.083 186.243C209.083 186.243 211.719 228.047 114.574 228.047C17.4297 228.047 20.4419 186.243 20.4419 186.243C20.4419 186.243 20.4418 157.083 21.1949 144.438C22.3849 121.713 25.5343 99.1328 30.6081 76.9462C33.344 65.8371 38.9772 55.6465 46.9369 47.4069C54.8966 39.1674 64.8998 33.1718 75.9328 30.0278L75.9093 29.9809Z" fill="#F2F2F2"/>
<path d="M75.9093 29.9809C101.049 22.8146 127.699 22.8146 152.839 29.9809H153.074C164.101 33.0967 174.107 39.0584 182.081 47.2636C190.056 55.4689 195.718 65.6269 198.493 76.7116C203.764 97.8249 209.083 166.044 209.083 186.243C209.083 186.243 211.719 228.047 114.574 228.047C17.4297 228.047 20.4419 186.243 20.4419 186.243C20.4419 186.243 20.4418 157.083 21.1949 144.438C22.3849 121.713 25.5343 99.1328 30.6081 76.9462C33.344 65.8371 38.9772 55.6465 46.9369 47.4069C54.8966 39.1674 64.8998 33.1718 75.9328 30.0278L75.9093 29.9809Z" fill="#FFE36C"/>
<path d="M170.677 102.54C176.448 102.54 181.126 97.8768 181.126 92.1243C181.126 86.3717 176.448 81.7084 170.677 81.7084C164.906 81.7084 160.228 86.3717 160.228 92.1243C160.228 97.8768 164.906 102.54 170.677 102.54Z" fill="black"/>
<path d="M86.7817 102.54C92.5523 102.54 97.2304 97.8768 97.2304 92.1243C97.2304 86.3717 92.5523 81.7084 86.7817 81.7084C81.011 81.7084 76.333 86.3717 76.333 92.1243C76.333 97.8768 81.011 102.54 86.7817 102.54Z" fill="black"/>
<path d="M8.08725 149.951C8.08725 149.951 -7.30343 173.41 4.65137 184.835C16.6062 196.26 28.1844 170.455 28.1844 170.455L36.6093 155.84L22.0423 130.034C17.0082 136.399 12.3487 143.049 8.08725 149.951Z" fill="#FFE36C"/>
<path d="M139.119 209.444C138.81 209.446 138.503 209.386 138.216 209.27C137.929 209.153 137.668 208.981 137.448 208.763L126.976 198.207C126.591 197.758 126.389 197.181 126.412 196.59C126.435 196 126.68 195.44 127.1 195.022C127.519 194.604 128.081 194.36 128.673 194.337C129.265 194.314 129.844 194.515 130.294 194.899L140.79 205.338C141.011 205.556 141.186 205.816 141.305 206.102C141.425 206.388 141.486 206.694 141.486 207.004C141.486 207.314 141.425 207.62 141.305 207.906C141.186 208.192 141.011 208.451 140.79 208.67C140.578 208.904 140.321 209.093 140.034 209.226C139.747 209.36 139.436 209.433 139.119 209.444Z" fill="#FFBB4D"/>
<path d="M128.647 209.444C128.18 209.446 127.722 209.31 127.333 209.053C126.943 208.795 126.639 208.428 126.46 207.997C126.281 207.567 126.234 207.093 126.326 206.636C126.418 206.18 126.644 205.76 126.976 205.432L137.448 194.993C137.667 194.773 137.927 194.598 138.214 194.479C138.501 194.36 138.809 194.299 139.119 194.299C139.43 194.299 139.738 194.36 140.024 194.479C140.311 194.598 140.571 194.773 140.79 194.993C141.228 195.432 141.474 196.027 141.474 196.647C141.474 197.266 141.228 197.861 140.79 198.301L130.294 208.763C129.856 209.197 129.264 209.441 128.647 209.444Z" fill="#FFBB4D"/>
<path d="M72.3089 137.541C81.2508 137.541 88.4996 130.315 88.4996 121.401C88.4996 112.488 81.2508 105.261 72.3089 105.261C63.367 105.261 56.1181 112.488 56.1181 121.401C56.1181 130.315 63.367 137.541 72.3089 137.541Z" fill="#FFA052"/>
<path d="M184.444 137.541C193.386 137.541 200.635 130.315 200.635 121.401C200.635 112.488 193.386 105.261 184.444 105.261C175.502 105.261 168.253 112.488 168.253 121.401C168.253 130.315 175.502 137.541 184.444 137.541Z" fill="#FFA052"/>
<path d="M144.438 121.143H118.551C115.006 121.131 111.61 119.72 109.105 117.219C106.6 114.717 105.191 111.329 105.184 107.795C105.184 100.476 124.152 95.5728 131.518 95.5728C138.86 95.5728 157.828 100.476 157.828 107.795C157.822 111.333 156.409 114.725 153.899 117.227C151.389 119.729 147.987 121.137 144.438 121.143Z" fill="#FFBB4D"/>
<path d="M111.397 24.6088C111.397 24.6088 112.386 10.0406 121.446 0.492722C121.662 0.268477 121.937 0.109886 122.239 0.0353575C122.542 -0.0391709 122.86 -0.0265785 123.156 0.0716903C123.451 0.169959 123.713 0.349847 123.91 0.59048C124.107 0.831113 124.232 1.1226 124.27 1.43108C125.231 8.26318 127.339 14.8852 130.506 21.0195C131.48 22.5337 132.767 23.8234 134.281 24.8024C135.794 25.7814 137.5 26.4272 139.284 26.6966" fill="#FFE36C"/>
<path d="M128.012 25.2421C120.854 20.1736 114.875 13.6289 110.479 6.0525C110.33 5.77559 110.104 5.54719 109.829 5.39443C109.553 5.24167 109.239 5.17099 108.925 5.19075C108.61 5.21051 108.308 5.31991 108.053 5.50593C107.799 5.69196 107.604 5.94679 107.491 6.24018C106.379 10.0551 105.77 13.9981 105.679 17.9698C105.569 19.854 104.805 21.6414 103.516 23.0243C102.228 24.4072 100.496 25.2993 98.6188 25.5471" fill="#FFE36C"/>
</g>
<defs>
<clipPath id="clip0_626_1053">
<rect width="227" height="228" fill="white" transform="translate(0.109375)"/>
</clipPath>
</defs>
</svg>
