<svg width="240" height="230" viewBox="0 0 240 230" fill="none" xmlns="http://www.w3.org/2000/svg">
<path d="M222.808 140.961C222.808 140.961 243.104 121.57 234.043 107.777C224.983 93.9844 207.889 116.45 207.889 116.45L196.352 128.762L204.695 157.172C211.041 152.121 217.089 146.708 222.808 140.961V140.961Z" fill="#EFD565"/>
<path d="M84.051 216.918H40.1619C36.8086 216.918 34.0903 219.623 34.0903 222.959C34.0903 226.295 36.8086 229 40.1619 229H84.051C87.4043 229 90.1226 226.295 90.1226 222.959C90.1226 219.623 87.4043 216.918 84.051 216.918Z" fill="#FFA052"/>
<path d="M208.776 216.918H166.134C162.781 216.918 160.063 219.623 160.063 222.959C160.063 226.295 162.781 229 166.134 229H208.776C212.129 229 214.848 226.295 214.848 222.959C214.848 219.623 212.129 216.918 208.776 216.918Z" fill="#FFA052"/>
<path d="M81.9092 30.9809C107.049 23.8146 133.699 23.8146 158.839 30.9809H159.074C170.101 34.0967 180.107 40.0584 188.081 48.2636C196.056 56.4689 201.718 66.6269 204.493 77.7116C209.764 98.8249 215.083 167.044 215.083 187.243C215.083 187.243 217.719 229.047 120.574 229.047C23.4297 229.047 26.4419 187.243 26.4419 187.243C26.4419 187.243 26.4418 158.083 27.1948 145.438C28.3849 122.713 31.5342 100.133 36.6081 77.9462C39.3439 66.8371 44.9772 56.6465 52.9369 48.4069C60.8965 40.1674 70.8998 34.1718 81.9328 31.0278L81.9092 30.9809Z" fill="#F2F2F2"/>
<path d="M81.9092 30.9809C107.049 23.8146 133.699 23.8146 158.839 30.9809H159.074C170.101 34.0967 180.107 40.0584 188.081 48.2636C196.056 56.4689 201.718 66.6269 204.493 77.7116C209.764 98.8249 215.083 167.044 215.083 187.243C215.083 187.243 217.719 229.047 120.574 229.047C23.4297 229.047 26.4419 187.243 26.4419 187.243C26.4419 187.243 26.4418 158.083 27.1948 145.438C28.3849 122.713 31.5342 100.133 36.6081 77.9462C39.3439 66.8371 44.9772 56.6465 52.9369 48.4069C60.8965 40.1674 70.8998 34.1718 81.9328 31.0278L81.9092 30.9809Z" fill="#FFE36C"/>
<path d="M176.677 103.54C182.448 103.54 187.126 98.8768 187.126 93.1243C187.126 87.3717 182.448 82.7084 176.677 82.7084C170.907 82.7084 166.229 87.3717 166.229 93.1243C166.229 98.8768 170.907 103.54 176.677 103.54Z" fill="black"/>
<path d="M92.7817 103.54C98.5523 103.54 103.23 98.8768 103.23 93.1243C103.23 87.3717 98.5523 82.7084 92.7817 82.7084C87.011 82.7084 82.333 87.3717 82.333 93.1243C82.333 98.8768 87.011 103.54 92.7817 103.54Z" fill="black"/>
<path d="M16.3622 135.991C16.3622 135.991 -3.9112 116.595 5.16722 102.774C14.2456 88.953 31.332 111.492 31.332 111.492L42.8287 123.837L34.4399 152.258C28.1032 147.189 22.0671 141.758 16.3622 135.991V135.991Z" fill="#FFE36C"/>
<path d="M145.119 210.444C144.81 210.446 144.503 210.386 144.216 210.27C143.929 210.153 143.668 209.981 143.448 209.763L132.976 199.207C132.591 198.758 132.389 198.181 132.412 197.59C132.435 197 132.68 196.44 133.1 196.022C133.519 195.604 134.081 195.36 134.673 195.337C135.265 195.314 135.844 195.515 136.294 195.899L146.79 206.338C147.011 206.556 147.186 206.816 147.305 207.102C147.425 207.388 147.486 207.694 147.486 208.004C147.486 208.314 147.425 208.62 147.305 208.906C147.186 209.192 147.011 209.451 146.79 209.67C146.578 209.904 146.321 210.093 146.034 210.226C145.747 210.36 145.436 210.433 145.119 210.444Z" fill="#FFBB4D"/>
<path d="M134.647 210.444C134.18 210.446 133.722 210.31 133.333 210.053C132.943 209.795 132.639 209.428 132.46 208.997C132.281 208.567 132.234 208.093 132.326 207.636C132.418 207.18 132.644 206.76 132.976 206.432L143.449 195.993C143.667 195.773 143.928 195.598 144.214 195.479C144.501 195.36 144.809 195.299 145.119 195.299C145.43 195.299 145.738 195.36 146.025 195.479C146.311 195.598 146.571 195.773 146.79 195.993C147.229 196.432 147.475 197.027 147.475 197.647C147.475 198.266 147.229 198.861 146.79 199.301L136.295 209.763C135.856 210.197 135.265 210.441 134.647 210.444Z" fill="#FFBB4D"/>
<path d="M78.3089 138.541C87.2508 138.541 94.4997 131.315 94.4997 122.401C94.4997 113.488 87.2508 106.261 78.3089 106.261C69.367 106.261 62.1182 113.488 62.1182 122.401C62.1182 131.315 69.367 138.541 78.3089 138.541Z" fill="#FFA052"/>
<path d="M190.444 138.541C199.386 138.541 206.635 131.315 206.635 122.401C206.635 113.488 199.386 106.261 190.444 106.261C181.502 106.261 174.253 113.488 174.253 122.401C174.253 131.315 181.502 138.541 190.444 138.541Z" fill="#FFA052"/>
<path d="M150.438 122.143H124.551C121.006 122.131 117.61 120.72 115.105 118.219C112.6 115.717 111.191 112.329 111.185 108.795V108.795C111.185 101.476 130.152 96.5728 137.518 96.5728C144.86 96.5728 163.828 101.476 163.828 108.795C163.822 112.333 162.409 115.725 159.899 118.227C157.39 120.729 153.987 122.137 150.438 122.143Z" fill="#FFBB4D"/>
<path d="M117.397 25.6088C117.397 25.6088 118.386 11.0406 127.446 1.49272C127.662 1.26848 127.937 1.10989 128.24 1.03536C128.542 0.960829 128.86 0.973421 129.156 1.07169C129.452 1.16996 129.713 1.34985 129.91 1.59048C130.108 1.83111 130.232 2.1226 130.27 2.43108C131.231 9.26318 133.339 15.8852 136.506 22.0195C137.48 23.5337 138.767 24.8234 140.281 25.8024C141.794 26.7814 143.5 27.4272 145.284 27.6966" fill="#FFE36C"/>
<path d="M134.012 26.2421C126.854 21.1736 120.875 14.6289 116.48 7.0525C116.33 6.77559 116.104 6.54719 115.829 6.39443C115.553 6.24167 115.24 6.17099 114.925 6.19075C114.61 6.21051 114.308 6.31991 114.054 6.50593C113.799 6.69196 113.604 6.94679 113.491 7.24018C112.379 11.0551 111.77 14.9981 111.679 18.9698C111.569 20.854 110.805 22.6414 109.516 24.0243C108.228 25.4072 106.496 26.2993 104.619 26.5471" fill="#FFE36C"/>
</svg>
