<svg width="226" height="177" viewBox="0 0 226 177" fill="none" xmlns="http://www.w3.org/2000/svg">
<g clip-path="url(#clip0_626_986)">
<path d="M217.944 129.061C217.944 129.061 233.418 152.497 221.44 163.886C209.462 175.276 197.815 149.567 197.815 149.567L189.333 134.99L203.91 109.211C208.969 115.554 213.655 122.182 217.944 129.061Z" fill="#EFEFEF"/>
<path d="M160.062 35.8802C160.062 35.8802 201.902 3.21076 216.455 21.1626C233.182 41.7626 178.938 64.7062 178.938 64.7062L160.062 35.8802Z" fill="#FFCACA"/>
<path d="M203.934 25.217C207.549 25.217 208.659 26.4825 209.084 27.0918C209.544 27.5059 209.88 28.0379 210.055 28.6291C210.23 29.2204 210.238 29.848 210.077 30.4431C208.99 34.8022 199.54 44.3405 182.411 52.8711L172.961 38.341C182.529 32.0133 195.571 25.217 204.005 25.217H203.934ZM204.005 15.8426C185.884 15.8426 160.133 35.9505 160.133 35.9505L179.033 64.7766C179.033 64.7766 233.371 41.8329 216.55 21.2329C215.03 19.4292 213.107 18.0025 210.933 17.0667C208.759 16.1309 206.395 15.7117 204.028 15.8426H204.005Z" fill="black"/>
<path d="M174.78 25.8731C179.031 19.8377 182.285 13.1685 184.419 6.11681C184.707 5.21112 184.711 4.24009 184.43 3.33231C184.149 2.42453 183.596 1.62281 182.846 1.03332C182.095 0.443839 181.182 0.0944036 180.227 0.0312531C179.272 -0.0318974 178.32 0.194221 177.497 0.679692C170.128 4.85393 163.364 10.0022 157.392 15.9832C146.831 27.3496 174.78 25.8731 174.78 25.8731Z" fill="#FFC145"/>
<path d="M165.755 206.352C158.966 208.074 152.068 209.342 145.107 210.149C134.462 211.427 123.746 212.038 113.024 211.977C103.706 212.017 94.3926 211.571 85.1221 210.641C16.0889 203.61 18.4278 170.214 18.4278 170.214C18.4278 170.214 18.4278 141.083 19.1838 128.451C20.3656 105.748 23.5275 83.1889 28.6339 61.0267C31.3895 49.9329 37.0478 39.757 45.0374 31.5271C53.0269 23.2971 63.0646 17.3047 74.1364 14.1552C90.2401 9.56106 107.043 7.86254 123.75 9.13994C133.129 9.84905 142.413 11.49 151.462 14.038H151.698C162.768 17.1507 172.813 23.1064 180.819 31.3035C188.825 39.5005 194.509 49.6484 197.295 60.7221C199.127 69.1181 200.5 77.6065 201.406 86.1499C205.044 115.07 207.903 155.543 207.903 170.308C207.903 170.237 209.462 194.962 165.755 206.352Z" fill="white"/>
<path d="M145.107 210.172C134.462 211.451 123.746 212.061 113.024 212C103.706 212.041 94.3926 211.595 85.1221 210.664C16.0889 203.633 18.4278 170.238 18.4278 170.238C18.4278 170.238 18.4278 141.107 19.1838 128.475C19.1838 128.475 70.9469 122.358 81.6256 160.418C82.5007 163.704 83.82 166.857 85.5474 169.792C99.8407 193.72 133.46 174.597 144.871 209.328C144.972 209.603 145.051 209.885 145.107 210.172Z" fill="black"/>
<path d="M201.406 86.1499C179.836 76.0256 181.655 45.0201 155.006 45.0201C123.183 45.0201 123.679 9.23364 123.679 9.23364C133.058 9.94275 142.342 11.5837 151.391 14.1317H151.627C162.697 17.2445 172.742 23.2002 180.748 31.3972C188.755 39.5942 194.438 49.7422 197.224 60.8158C199.077 69.1797 200.473 77.6367 201.406 86.1499Z" fill="black"/>
<path d="M169.323 174.386V193.509C169.327 198.031 168.094 202.47 165.755 206.352C148.488 210.43 130.77 212.32 113.024 211.977C103.706 212.017 94.3925 211.571 85.1221 210.641V174.386C85.1186 172.852 85.261 171.322 85.5473 169.816C86.6418 164.002 89.7468 158.749 94.3269 154.963C98.9071 151.177 104.675 149.094 110.637 149.075H143.713C150.491 149.069 156.994 151.73 161.795 156.476C166.597 161.221 169.304 167.662 169.323 174.386Z" fill="#FFCACA"/>
<path d="M169.346 86.6655C175.14 86.6655 179.836 82.0068 179.836 76.26C179.836 70.5132 175.14 65.8545 169.346 65.8545C163.553 65.8545 158.857 70.5132 158.857 76.26C158.857 82.0068 163.553 86.6655 169.346 86.6655Z" fill="black"/>
<path d="M85.1221 86.6655C90.9154 86.6655 95.6117 82.0068 95.6117 76.26C95.6117 70.5132 90.9154 65.8545 85.1221 65.8545C79.3288 65.8545 74.6324 70.5132 74.6324 76.26C74.6324 82.0068 79.3288 86.6655 85.1221 86.6655Z" fill="black"/>
<path d="M162.33 103.516C162.33 90.9308 151.368 76.26 127.175 76.26C102.983 76.26 92.446 90.9308 92.446 103.516C92.446 116.101 103.007 121.819 127.175 121.819C151.344 121.819 162.33 116.077 162.33 103.516Z" fill="#FFCACA"/>
<path d="M120.229 102.719C122.226 102.719 123.844 100.547 123.844 97.8678C123.844 95.1886 122.226 93.0166 120.229 93.0166C118.233 93.0166 116.615 95.1886 116.615 97.8678C116.615 100.547 118.233 102.719 120.229 102.719Z" fill="black"/>
<path d="M141.28 102.719C143.276 102.719 144.894 100.547 144.894 97.8678C144.894 95.1886 143.276 93.0166 141.28 93.0166C139.283 93.0166 137.665 95.1886 137.665 97.8678C137.665 100.547 139.283 102.719 141.28 102.719Z" fill="black"/>
<path d="M54.102 29.3182C48.8017 22.2591 44.6264 14.434 41.7223 6.11681C41.4346 5.21111 41.431 4.24008 41.7119 3.33231C41.9929 2.42453 42.5452 1.62281 43.2957 1.03332C44.0462 0.443839 44.9595 0.0944036 45.9147 0.0312531C46.8699 -0.0318974 47.8218 0.194221 48.6445 0.679692C54.8816 4.35911 59.9611 6.79644 65.702 12.96C76.2626 24.3498 54.102 29.3182 54.102 29.3182Z" fill="#FFC145"/>
<path d="M56.0629 44.1295C57.3509 42.5296 58.3016 40.6893 58.8586 38.7178C59.4156 36.7463 59.5675 34.6838 59.3052 32.653C59.043 30.6221 58.3719 28.6643 57.332 26.8957C56.2921 25.1271 54.9044 23.5839 53.2515 22.3577C40.5647 12.9834 21.1447 1.87482 10.7259 12.3741C-1.84279 25.0997 17.53 41.9969 31.5162 51.6524C34.7302 53.8776 38.6775 54.8059 42.5565 54.2487C46.4355 53.6916 49.9552 51.6908 52.401 48.6526L56.0629 44.1295Z" fill="#FFCACA"/>
<path d="M21.5936 17.4831C27.4999 17.4831 36.9736 22.0062 47.5814 29.8572C48.221 30.3308 48.7577 30.9276 49.1592 31.6119C49.5607 32.2962 49.8188 33.0538 49.9181 33.8395C50.0174 34.6251 49.9558 35.4225 49.7369 36.1839C49.5181 36.9453 49.1465 37.6551 48.6446 38.2706L45.0299 42.7937C44.4651 43.4972 43.7459 44.0634 42.9271 44.4493C42.1082 44.8351 41.2113 45.0304 40.3048 45.0201C39.0879 45.0276 37.8989 44.659 36.9028 43.9655C22.1369 33.771 16.4905 25.8965 16.1125 21.889C16.1125 21.3031 15.9707 20.436 17.4591 18.9361C17.9842 18.4085 18.6218 18.0041 19.3249 17.7527C20.028 17.5013 20.779 17.4092 21.5227 17.4831H21.5936ZM21.5227 8.10877C19.5199 8.03976 17.5245 8.38313 15.6621 9.11725C13.7998 9.85136 12.111 10.9603 10.7023 12.3741C-1.86641 25.0997 17.5064 41.9969 31.4926 51.6524C34.7085 53.8722 38.6543 54.7971 42.5316 54.2402C46.409 53.6833 49.9283 51.6861 52.3774 48.6527L55.992 44.1296C57.28 42.5297 58.2307 40.6893 58.7877 38.7178C59.3447 36.7463 59.4966 34.6839 59.2343 32.653C58.9721 30.6222 58.3011 28.6643 57.2611 26.8957C56.2212 25.1271 54.8335 23.5839 53.1806 22.3577C44.1557 15.6551 31.7052 8.10877 21.5227 8.10877Z" fill="white"/>
<path d="M7.34747 129.6C7.34747 129.6 -7.41837 153.364 4.98493 164.519C17.3882 175.675 28.185 149.473 28.185 149.473L40.3993 128.03L20.8848 109.281C15.9786 115.788 11.4585 122.572 7.34747 129.6Z" fill="white"/>
<path d="M71.2776 86.6655H66.3399C60.5206 86.6655 55.803 91.34 55.803 97.1062C55.803 102.872 60.5206 107.547 66.3399 107.547H71.2776C77.097 107.547 81.8145 102.872 81.8145 97.1062C81.8145 91.34 77.097 86.6655 71.2776 86.6655Z" fill="#FFD2D2"/>
<path d="M187.916 86.6655H182.978C177.159 86.6655 172.441 91.34 172.441 97.1062C172.441 102.872 177.159 107.547 182.978 107.547H187.916C193.735 107.547 198.453 102.872 198.453 97.1062C198.453 91.34 193.735 86.6655 187.916 86.6655Z" fill="#FFD2D2"/>
</g>
<defs>
<clipPath id="clip0_626_986">
<rect width="226" height="212" fill="white"/>
</clipPath>
</defs>
</svg>
