<svg width="232" height="213" viewBox="0 0 232 213" fill="none" xmlns="http://www.w3.org/2000/svg">
<path d="M223.61 117.15C223.61 117.15 239.085 93.7141 227.107 82.3243C215.129 70.9345 203.481 96.6436 203.481 96.6436L195 111.221L209.577 137C214.636 130.657 219.322 124.029 223.61 117.15Z" fill="#EFEFEF"/>
<path d="M167.33 190.744H199.177V196.228C199.177 200.417 197.499 204.435 194.513 207.397C191.526 210.359 187.476 212.023 183.253 212.023C179.03 212.023 174.98 210.359 171.993 207.397C169.007 204.435 167.33 200.417 167.33 196.228V190.744Z" fill="#EFEFEF"/>
<path d="M47.5256 190.744H79.4907V196.134C79.4907 198.221 79.0764 200.287 78.2714 202.215C77.4664 204.142 76.2866 205.894 74.7992 207.37C73.3118 208.845 71.5459 210.015 69.6025 210.814C67.6592 211.612 65.5762 212.023 63.4727 212.023C59.2368 212.005 55.1807 210.323 52.1921 207.345C49.2035 204.367 47.5256 200.336 47.5256 196.134V190.744Z" fill="black"/>
<path d="M165.062 35.8802C165.062 35.8802 206.902 3.21076 221.455 21.1626C238.182 41.7626 183.938 64.7062 183.938 64.7062L165.062 35.8802Z" fill="#FFCACA"/>
<path d="M208.934 25.217C212.549 25.217 213.659 26.4825 214.084 27.0918C214.544 27.5059 214.88 28.0379 215.055 28.6291C215.23 29.2204 215.238 29.848 215.077 30.4431C213.99 34.8022 204.54 44.3405 187.411 52.8711L177.961 38.341C187.529 32.0133 200.571 25.217 209.005 25.217H208.934ZM209.005 15.8426C190.884 15.8426 165.133 35.9505 165.133 35.9505L184.033 64.7766C184.033 64.7766 238.371 41.8329 221.55 21.2329C220.03 19.4292 218.107 18.0025 215.933 17.0667C213.759 16.1309 211.395 15.7117 209.028 15.8426H209.005Z" fill="black"/>
<path d="M179.78 25.8731C184.031 19.8377 187.285 13.1685 189.419 6.11681C189.707 5.21112 189.711 4.24009 189.43 3.33231C189.149 2.42453 188.596 1.62281 187.846 1.03332C187.095 0.443839 186.182 0.0944036 185.227 0.0312531C184.272 -0.0318974 183.32 0.194221 182.497 0.679692C175.128 4.85393 168.364 10.0022 162.392 15.9832C151.831 27.3496 179.78 25.8731 179.78 25.8731Z" fill="#FFC145"/>
<path d="M170.755 206.352C163.966 208.074 157.068 209.342 150.107 210.149C139.462 211.427 128.746 212.038 118.024 211.977C108.706 212.017 99.3927 211.571 90.1222 210.641C21.089 203.61 23.4279 170.214 23.4279 170.214C23.4279 170.214 23.4279 141.083 24.1839 128.451C25.3657 105.748 28.5276 83.1889 33.634 61.0267C36.3895 49.9329 42.0479 39.757 50.0374 31.5271C58.027 23.2971 68.0647 17.3047 79.1364 14.1552C95.2402 9.56106 112.043 7.86254 128.75 9.13994C138.129 9.84905 147.413 11.49 156.462 14.038H156.698C167.768 17.1507 177.813 23.1064 185.819 31.3035C193.826 39.5005 199.509 49.6484 202.295 60.7221C204.128 69.1181 205.5 77.6065 206.406 86.1499C210.044 115.07 212.903 155.543 212.903 170.308C212.903 170.237 214.462 194.962 170.755 206.352Z" fill="white"/>
<path d="M150.107 210.172C139.462 211.451 128.746 212.061 118.024 212C108.706 212.041 99.3927 211.595 90.1222 210.664C21.089 203.633 23.4279 170.238 23.4279 170.238C23.4279 170.238 23.4279 141.107 24.1839 128.475C24.1839 128.475 75.947 122.358 86.6257 160.418C87.5008 163.704 88.82 166.857 90.5474 169.792C104.841 193.72 138.46 174.597 149.871 209.328C149.972 209.603 150.051 209.885 150.107 210.172Z" fill="black"/>
<path d="M206.406 86.1499C184.836 76.0256 186.655 45.0201 160.006 45.0201C128.183 45.0201 128.679 9.23364 128.679 9.23364C138.058 9.94275 147.342 11.5837 156.391 14.1317H156.627C167.697 17.2445 177.742 23.2002 185.748 31.3972C193.755 39.5942 199.438 49.7422 202.224 60.8158C204.077 69.1797 205.473 77.6367 206.406 86.1499Z" fill="black"/>
<path d="M174.323 174.386V193.509C174.327 198.031 173.094 202.47 170.755 206.352C153.489 210.43 135.77 212.32 118.024 211.977C108.706 212.017 99.3926 211.571 90.1221 210.641V174.386C90.1187 172.852 90.261 171.322 90.5474 169.816C91.6418 164.002 94.7468 158.749 99.327 154.963C103.907 151.177 109.675 149.094 115.638 149.075H148.713C155.491 149.069 161.994 151.73 166.795 156.476C171.597 161.221 174.304 167.662 174.323 174.386Z" fill="#FFCACA"/>
<path d="M174.346 86.6655C180.14 86.6655 184.836 82.0068 184.836 76.26C184.836 70.5132 180.14 65.8545 174.346 65.8545C168.553 65.8545 163.857 70.5132 163.857 76.26C163.857 82.0068 168.553 86.6655 174.346 86.6655Z" fill="black"/>
<path d="M90.122 86.6655C95.9152 86.6655 100.612 82.0068 100.612 76.26C100.612 70.5132 95.9152 65.8545 90.122 65.8545C84.3287 65.8545 79.6323 70.5132 79.6323 76.26C79.6323 82.0068 84.3287 86.6655 90.122 86.6655Z" fill="black"/>
<path d="M167.33 103.516C167.33 90.9308 156.368 76.26 132.175 76.26C107.983 76.26 97.446 90.9308 97.446 103.516C97.446 116.101 108.007 121.819 132.175 121.819C156.344 121.819 167.33 116.077 167.33 103.516Z" fill="#FFCACA"/>
<path d="M125.229 102.719C127.226 102.719 128.844 100.547 128.844 97.8678C128.844 95.1886 127.226 93.0166 125.229 93.0166C123.233 93.0166 121.615 95.1886 121.615 97.8678C121.615 100.547 123.233 102.719 125.229 102.719Z" fill="black"/>
<path d="M146.279 102.719C148.276 102.719 149.894 100.547 149.894 97.8678C149.894 95.1886 148.276 93.0166 146.279 93.0166C144.283 93.0166 142.665 95.1886 142.665 97.8678C142.665 100.547 144.283 102.719 146.279 102.719Z" fill="black"/>
<path d="M59.102 29.3182C53.8017 22.2591 49.6265 14.434 46.7224 6.11681C46.4347 5.21111 46.431 4.24008 46.712 3.33231C46.993 2.42453 47.5453 1.62281 48.2958 1.03332C49.0463 0.443839 49.9596 0.0944036 50.9148 0.0312531C51.8699 -0.0318974 52.8219 0.194221 53.6446 0.679692C59.8817 4.35911 64.9611 6.79644 70.7021 12.96C81.2626 24.3498 59.102 29.3182 59.102 29.3182Z" fill="#FFC145"/>
<path d="M61.0629 44.1295C62.3509 42.5296 63.3016 40.6893 63.8586 38.7178C64.4156 36.7463 64.5675 34.6838 64.3052 32.653C64.043 30.6221 63.3719 28.6643 62.332 26.8957C61.2921 25.1271 59.9044 23.5839 58.2515 22.3577C45.5647 12.9834 26.1447 1.87482 15.7259 12.3741C3.15721 25.0997 22.53 41.9969 36.5162 51.6524C39.7302 53.8776 43.6775 54.8059 47.5565 54.2487C51.4355 53.6916 54.9552 51.6908 57.401 48.6526L61.0629 44.1295Z" fill="#FFCACA"/>
<path d="M26.5935 17.4831C32.4998 17.4831 41.9736 22.0062 52.5814 29.8572C53.221 30.3308 53.7576 30.9276 54.1591 31.6119C54.5607 32.2962 54.8188 33.0538 54.918 33.8395C55.0173 34.6251 54.9557 35.4225 54.7369 36.1839C54.518 36.9453 54.1465 37.6551 53.6445 38.2706L50.0298 42.7937C49.4651 43.4972 48.7459 44.0634 47.927 44.4493C47.1081 44.8351 46.2112 45.0304 45.3048 45.0201C44.0879 45.0276 42.8988 44.659 41.9027 43.9655C27.1369 33.771 21.4904 25.8965 21.1124 21.889C21.1124 21.3031 20.9707 20.436 22.4591 18.9361C22.9842 18.4085 23.6217 18.0041 24.3248 17.7527C25.028 17.5013 25.7789 17.4092 26.5226 17.4831H26.5935ZM26.5226 8.10877C24.5199 8.03976 22.5244 8.38313 20.6621 9.11725C18.7997 9.85136 17.111 10.9603 15.7022 12.3741C3.13353 25.0997 22.5063 41.9969 36.4925 51.6524C39.7084 53.8722 43.6542 54.7971 47.5316 54.2402C51.4089 53.6833 54.9282 51.6861 57.3773 48.6527L60.992 44.1296C62.28 42.5297 63.2307 40.6893 63.7876 38.7178C64.3446 36.7463 64.4965 34.6839 64.2343 32.653C63.972 30.6222 63.301 28.6643 62.2611 26.8957C61.2211 25.1271 59.8335 23.5839 58.1806 22.3577C49.1557 15.6551 36.7051 8.10877 26.5226 8.10877Z" fill="white"/>
<path d="M9.4882 117.53C9.4882 117.53 -6.62602 94.6593 5.11201 82.8058C16.85 70.9524 29.1426 96.486 29.1426 96.486L42.5755 117.188L24.1769 137.033C18.903 130.821 13.9985 124.309 9.4882 117.53Z" fill="white"/>
<path d="M142.665 193.462C142.354 193.464 142.046 193.405 141.758 193.288C141.47 193.172 141.208 193 140.987 192.783L130.474 182.237C130.087 181.788 129.885 181.212 129.908 180.622C129.931 180.032 130.177 179.472 130.598 179.055C131.019 178.638 131.583 178.393 132.177 178.37C132.772 178.348 133.353 178.548 133.805 178.932L144.319 189.361C144.54 189.579 144.716 189.838 144.836 190.124C144.956 190.409 145.017 190.716 145.017 191.025C145.017 191.334 144.956 191.641 144.836 191.926C144.716 192.212 144.54 192.471 144.319 192.689C144.109 192.92 143.854 193.108 143.57 193.241C143.286 193.374 142.978 193.449 142.665 193.462Z" fill="#FF8D8D"/>
<path d="M132.128 193.462C131.661 193.46 131.205 193.321 130.817 193.062C130.43 192.803 130.129 192.436 129.952 192.007C129.774 191.578 129.73 191.106 129.823 190.652C129.916 190.198 130.143 189.781 130.474 189.455L140.988 179.026C141.43 178.589 142.029 178.344 142.653 178.344C143.277 178.344 143.876 178.589 144.319 179.026C144.759 179.465 145.006 180.059 145.006 180.678C145.006 181.297 144.759 181.891 144.319 182.33L133.805 192.783C133.585 193 133.323 193.172 133.035 193.288C132.747 193.405 132.439 193.464 132.128 193.462Z" fill="#FF8D8D"/>
<path d="M76.2776 86.6655H71.3399C65.5205 86.6655 60.803 91.34 60.803 97.1062C60.803 102.872 65.5205 107.547 71.3399 107.547H76.2776C82.0969 107.547 86.8145 102.872 86.8145 97.1062C86.8145 91.34 82.0969 86.6655 76.2776 86.6655Z" fill="#FFD2D2"/>
<path d="M192.916 86.6655H187.978C182.159 86.6655 177.441 91.34 177.441 97.1062C177.441 102.872 182.159 107.547 187.978 107.547H192.916C198.735 107.547 203.453 102.872 203.453 97.1062C203.453 91.34 198.735 86.6655 192.916 86.6655Z" fill="#FFD2D2"/>
</svg>
