<svg width="246" height="203" viewBox="0 0 246 203" fill="none" xmlns="http://www.w3.org/2000/svg">
<path d="M167.039 181.271H199.084V186.61C199.084 190.857 197.396 194.93 194.391 197.933C191.387 200.937 187.311 202.624 183.062 202.624V202.624C178.812 202.624 174.737 200.937 171.732 197.933C168.727 194.93 167.039 190.857 167.039 186.61V181.271V181.271Z" fill="#4B9B3A"/>
<path d="M221.924 123.687C221.924 123.687 245.749 108.949 239.829 93.4706C233.91 77.992 212.41 96.576 212.41 96.576L198.582 106.295L200.814 135.926C208.085 132.264 215.134 128.178 221.924 123.687Z" fill="#4B9B3A"/>
<path d="M38.5284 111.383C38.5284 111.383 10.2946 209.961 136.147 202.6C243.105 196.345 214.283 111.383 214.283 111.383C219.36 106.567 223.217 100.613 225.536 94.0125C227.854 87.4118 228.566 80.3544 227.615 73.4239C226.663 66.4934 224.074 59.889 220.062 54.1568C216.05 48.4246 210.73 43.7294 204.543 40.4594V40.4594C206.636 32.8982 205.799 24.8259 202.198 17.8549C198.597 10.8839 192.497 5.52717 185.117 2.85465C177.737 0.182141 169.62 0.390539 162.387 3.43824C155.154 6.48594 149.337 12.1486 146.099 19.2952H113.677C110.716 12.8202 105.627 7.55285 99.2565 4.36856C92.8857 1.18426 85.6165 0.274794 78.6569 1.79125C71.6973 3.30771 65.4664 7.1588 60.9998 12.7045C56.5332 18.2502 54.0998 25.1566 54.104 32.2759C54.124 34.1313 54.313 35.981 54.6687 37.8021C47.4957 40.2576 41.0775 44.5204 36.0339 50.1786C30.9904 55.8369 27.4919 62.6994 25.8764 70.1035C24.261 77.5075 24.5831 85.2028 26.8117 92.4461C29.0403 99.6894 33.1002 106.236 38.599 111.453L38.5284 111.383Z" fill="#49B236"/>
<path d="M53.9395 181.271H83.8907V187.644C83.8907 191.617 82.3117 195.427 79.501 198.236C76.6903 201.046 72.8782 202.624 68.9033 202.624C64.9325 202.618 61.1264 201.037 58.3208 198.228C55.5152 195.42 53.9394 191.613 53.9395 187.644V181.271Z" fill="#49B236"/>
<path d="M185.344 144.187V190.701C173.58 196.957 157.534 201.354 136.147 202.6C112.618 203.988 94.4783 201.66 80.5261 196.98V144.187C80.5447 137.457 83.2278 131.008 87.9892 126.249C92.7505 121.491 99.2029 118.809 105.936 118.79H160.051C166.764 118.84 173.187 121.535 177.923 126.291C182.658 131.046 185.325 137.478 185.344 144.187Z" fill="#9CD43D"/>
<path d="M174.756 55.8856C180.526 55.8856 185.203 51.211 185.203 45.4446C185.203 39.6782 180.526 35.0037 174.756 35.0037C168.987 35.0037 164.31 39.6782 164.31 45.4446C164.31 51.211 168.987 55.8856 174.756 55.8856Z" fill="black"/>
<path d="M90.9726 55.8856C96.742 55.8856 101.419 51.211 101.419 45.4446C101.419 39.6782 96.742 35.0037 90.9726 35.0037C85.2032 35.0037 80.5261 39.6782 80.5261 45.4446C80.5261 51.211 85.2032 55.8856 90.9726 55.8856Z" fill="black"/>
<path d="M22.9513 125.165C22.9513 125.165 -0.194939 109.348 6.45763 94.1453C13.1102 78.9428 33.6977 98.5179 33.6977 98.5179L47.161 108.804L43.558 138.312C36.442 134.329 29.5618 129.94 22.9513 125.165Z" fill="#49B236"/>
<path d="M123.23 55.9327H147.652C148.835 55.9316 150 56.228 151.039 56.7945C152.078 57.361 152.958 58.1795 153.597 59.1747C154.237 60.1699 154.616 61.3099 154.699 62.4898C154.783 63.6697 154.568 64.8516 154.075 65.9269C151.534 71.3591 146.264 76.9558 135.441 76.9558C124.618 76.9558 119.371 71.3591 116.806 65.9269C116.313 64.8516 116.099 63.6697 116.182 62.4898C116.266 61.3099 116.645 60.1699 117.284 59.1747C117.924 58.1795 118.804 57.361 119.842 56.7945C120.881 56.228 122.046 55.9316 123.23 55.9327V55.9327Z" fill="white"/>
<path d="M200.237 90.8301C210.412 90.8301 218.66 83.0075 218.66 73.3579C218.66 63.7083 210.412 55.8857 200.237 55.8857C190.063 55.8857 181.815 63.7083 181.815 73.3579C181.815 83.0075 190.063 90.8301 200.237 90.8301Z" fill="#9CD43D"/>
<path d="M70.6442 90.8301C80.8187 90.8301 89.0667 83.0075 89.0667 73.3579C89.0667 63.7083 80.8187 55.8857 70.6442 55.8857C60.4697 55.8857 52.2217 63.7083 52.2217 73.3579C52.2217 83.0075 60.4697 90.8301 70.6442 90.8301Z" fill="#9CD43D"/>
<path d="M143.346 183.999C142.729 183.997 142.137 183.752 141.699 183.317L131.206 172.735C130.82 172.285 130.619 171.707 130.642 171.115C130.665 170.523 130.91 169.962 131.329 169.543C131.748 169.124 132.31 168.879 132.902 168.856C133.494 168.833 134.073 169.034 134.523 169.42L145.017 179.884C145.237 180.103 145.412 180.363 145.532 180.649C145.651 180.936 145.713 181.243 145.713 181.554C145.713 181.864 145.651 182.172 145.532 182.458C145.412 182.745 145.237 183.005 145.017 183.223C144.805 183.458 144.548 183.648 144.26 183.782C143.973 183.915 143.662 183.989 143.346 183.999Z" fill="#49B236"/>
<path d="M132.876 183.999C132.567 184.001 132.26 183.942 131.973 183.825C131.686 183.708 131.426 183.535 131.206 183.317C130.985 183.099 130.81 182.839 130.691 182.552C130.571 182.266 130.51 181.958 130.51 181.648C130.51 181.337 130.571 181.03 130.691 180.743C130.81 180.457 130.985 180.197 131.206 179.978L141.699 169.514C142.149 169.128 142.728 168.927 143.32 168.95C143.913 168.973 144.474 169.218 144.893 169.637C145.312 170.056 145.558 170.617 145.581 171.209C145.604 171.801 145.402 172.38 145.017 172.829L134.523 183.317C134.085 183.752 133.493 183.997 132.876 183.999V183.999Z" fill="#49B236"/>
</svg>
