<svg width="213" height="180" viewBox="0 0 213 180" fill="none" xmlns="http://www.w3.org/2000/svg">
<g clip-path="url(#clip0_626_1013)">
<path d="M206.2 130.888C206.2 130.888 220.317 155.086 207.824 165.974C195.33 176.862 185.072 150.359 185.072 150.359L177.425 135.286L193.307 110.171C198.008 116.818 202.313 123.736 206.2 130.888Z" fill="#4B9B3A"/>
<path d="M17.5285 110.383C17.5285 110.383 -10.7053 208.961 115.147 201.6C222.105 195.345 193.283 110.383 193.283 110.383C198.36 105.567 202.217 99.6131 204.536 93.0125C206.854 86.4118 207.566 79.3544 206.615 72.4239C205.663 65.4934 203.074 58.889 199.062 53.1568C195.05 47.4246 189.73 42.7294 183.543 39.4594C185.636 31.8982 184.799 23.8259 181.198 16.8549C177.597 9.88385 171.497 4.52717 164.117 1.85465C156.737 -0.817859 148.62 -0.609461 141.387 2.43824C134.154 5.48594 128.337 11.1486 125.099 18.2952H92.6773C89.7162 11.8202 84.6274 6.55285 78.2566 3.36856C71.8858 0.184263 64.6165 -0.725206 57.6569 0.791252C50.6973 2.30771 44.4665 6.1588 39.9999 11.7045C35.5333 17.2502 33.0999 24.1566 33.1041 31.2759C33.1241 33.1313 33.3131 34.981 33.6687 36.8021C26.4958 39.2576 20.0775 43.5204 15.034 49.1786C9.99042 54.8369 6.49196 61.6994 4.8765 69.1035C3.26104 76.5075 3.58318 84.2028 5.81179 91.4461C8.04041 98.6894 12.1002 105.236 17.599 110.453L17.5285 110.383Z" fill="#49B236"/>
<path d="M164.344 143.187V189.701C152.58 195.956 136.534 200.354 115.147 201.6C91.6184 202.988 73.4783 200.66 59.5261 195.98V143.187C59.5447 136.457 62.2278 130.008 66.9892 125.249C71.7505 120.491 78.2029 117.809 84.9365 117.79H139.051C145.764 117.84 152.187 120.535 156.923 125.291C161.658 130.046 164.325 136.477 164.344 143.187Z" fill="#9CD43D"/>
<path d="M153.756 54.8857C159.526 54.8857 164.203 50.2112 164.203 44.4448C164.203 38.6784 159.526 34.0038 153.756 34.0038C147.987 34.0038 143.31 38.6784 143.31 44.4448C143.31 50.2112 147.987 54.8857 153.756 54.8857Z" fill="black"/>
<path d="M69.9726 54.8857C75.742 54.8857 80.4191 50.2112 80.4191 44.4448C80.4191 38.6784 75.742 34.0038 69.9726 34.0038C64.2032 34.0038 59.5261 38.6784 59.5261 44.4448C59.5261 50.2112 64.2032 54.8857 69.9726 54.8857Z" fill="black"/>
<path d="M5.78794 131.759C5.78794 131.759 -7.22311 156.591 5.78794 166.891C18.799 177.191 27.7867 150.242 27.7867 150.242L34.8451 134.839L17.8108 110.477C13.3975 117.334 9.38322 124.44 5.78794 131.759Z" fill="#49B236"/>
<path d="M102.23 54.9327H126.652C127.835 54.9316 129 55.228 130.039 55.7945C131.078 56.361 131.958 57.1795 132.597 58.1747C133.237 59.1699 133.616 60.3099 133.699 61.4898C133.783 62.6697 133.568 63.8516 133.075 64.9269C130.534 70.3591 125.264 75.9558 114.441 75.9558C103.618 75.9558 98.371 70.3591 95.8065 64.9269C95.3133 63.8516 95.0987 62.6697 95.1821 61.4898C95.2656 60.3099 95.6446 59.1699 96.2842 58.1747C96.9238 57.1795 97.8035 56.361 98.8425 55.7945C99.8814 55.228 101.046 54.9316 102.23 54.9327Z" fill="white"/>
<path d="M179.237 89.8301C189.412 89.8301 197.66 82.0075 197.66 72.3579C197.66 62.7083 189.412 54.8857 179.237 54.8857C169.063 54.8857 160.815 62.7083 160.815 72.3579C160.815 82.0075 169.063 89.8301 179.237 89.8301Z" fill="#9CD43D"/>
<path d="M49.6443 89.8301C59.8188 89.8301 68.0668 82.0075 68.0668 72.3579C68.0668 62.7083 59.8188 54.8857 49.6443 54.8857C39.4698 54.8857 31.2218 62.7083 31.2218 72.3579C31.2218 82.0075 39.4698 89.8301 49.6443 89.8301Z" fill="#9CD43D"/>
<path d="M122.346 182.999C121.729 182.997 121.138 182.752 120.699 182.317L110.206 171.735C109.82 171.285 109.619 170.707 109.642 170.115C109.665 169.523 109.91 168.962 110.329 168.543C110.748 168.124 111.31 167.879 111.902 167.856C112.494 167.833 113.073 168.034 113.523 168.42L124.017 178.884C124.237 179.103 124.412 179.363 124.532 179.649C124.651 179.936 124.713 180.243 124.713 180.554C124.713 180.864 124.651 181.172 124.532 181.458C124.412 181.745 124.237 182.005 124.017 182.223C123.805 182.458 123.548 182.648 123.261 182.782C122.974 182.915 122.663 182.989 122.346 182.999Z" fill="#49B236"/>
<path d="M111.876 182.999C111.567 183.001 111.26 182.942 110.973 182.825C110.686 182.708 110.426 182.535 110.206 182.317C109.985 182.099 109.81 181.839 109.691 181.552C109.571 181.266 109.51 180.958 109.51 180.648C109.51 180.337 109.571 180.03 109.691 179.743C109.81 179.457 109.985 179.197 110.206 178.978L120.699 168.514C121.149 168.128 121.728 167.927 122.32 167.95C122.913 167.973 123.474 168.218 123.893 168.637C124.312 169.056 124.558 169.617 124.581 170.209C124.604 170.801 124.402 171.38 124.017 171.829L113.523 182.317C113.085 182.752 112.493 182.997 111.876 182.999Z" fill="#49B236"/>
</g>
<defs>
<clipPath id="clip0_626_1013">
<rect width="213" height="202" fill="white"/>
</clipPath>
</defs>
</svg>
