<svg width="700" height="556" viewBox="0 0 700 556" fill="none" xmlns="http://www.w3.org/2000/svg">
<mask id="mask0_690_5" style="mask-type:alpha" maskUnits="userSpaceOnUse" x="0" y="0" width="700" height="556">
<rect width="700" height="556" fill="#C4C4C4"/>
</mask>
<g mask="url(#mask0_690_5)">
<rect x="-62.5547" y="-39.3628" width="826.099" height="627.837" fill="white"/>
<g opacity="0.8">
<g opacity="0.8">
<path opacity="0.8" d="M717.878 -13.7764H-17.8672V578.634H717.878V-13.7764Z" fill="#45D5D9"/>
</g>
</g>
<path opacity="0.16" d="M27.5863 0C27.5863 0 309.855 93.9033 469.252 116.142C628.648 138.381 713.457 158.772 680.39 191.536C647.323 224.3 217.081 160.625 187.194 270.585C157.308 380.546 697.132 282.484 765.002 435.604V556H-131.594V0H27.5863Z" fill="white"/>
<g style="mix-blend-mode:soft-light" opacity="0.32">
<path d="M-34.8108 662.003C-34.8108 662.003 212.01 524.695 351.39 492.176C490.769 459.658 564.927 429.841 536.013 381.933C507.098 334.024 130.887 427.133 104.753 266.345C78.6199 105.557 550.652 248.947 609.999 25.0497L609.999 -150.997L-174.001 -150.997L-174.001 662.003L-34.8108 662.003Z" fill="white" fill-opacity="0.75"/>
</g>
<path d="M592.045 359.301L592.163 359.743C590.981 363.343 587.574 365.91 583.208 366.776C577.052 367.995 571.327 365.361 570.096 359.256C568.866 353.152 573.392 349.866 579.548 348.645C583.914 347.781 587.791 347.525 590.277 350.397C590.213 350.405 590.152 350.419 590.089 350.429C591.126 352.781 591.799 351.649 592.308 354.239C592.818 356.83 592.439 358.306 592.045 359.301Z" fill="#F95A5A"/>
<path d="M571.857 354.773C572.733 353.496 573.954 352.489 575.38 351.868" stroke="white" stroke-linecap="round" stroke-linejoin="round"/>
<path d="M583.58 341.242C583.66 341.207 583.746 341.191 583.833 341.195C583.92 341.199 584.005 341.223 584.081 341.265C584.157 341.307 584.222 341.366 584.271 341.437C584.321 341.509 584.352 341.59 584.364 341.676L584.561 343.139C584.738 344.46 584.476 345.802 583.815 346.962C583.154 348.122 582.13 349.037 580.898 349.569C580.659 349.672 580.4 349.718 580.14 349.705C579.88 349.691 579.627 349.618 579.401 349.491C579.175 349.364 578.981 349.186 578.836 348.973C578.69 348.759 578.597 348.515 578.563 348.259C578.392 346.949 578.653 345.619 579.307 344.467C579.961 343.316 580.973 342.404 582.192 341.869L583.58 341.242Z" fill="#009056" stroke="#009056" stroke-miterlimit="10" stroke-linecap="round"/>
<path d="M607.926 360.949L607.942 361.407C605.992 364.662 602.099 366.424 597.648 366.319C591.372 366.168 586.37 362.353 586.522 356.129C586.674 349.905 591.818 347.685 598.094 347.833C602.546 347.941 606.384 348.535 608.173 351.878C608.109 351.872 608.046 351.872 607.983 351.869C608.473 354.388 609.381 353.43 609.304 356.069C609.227 358.707 608.53 360.064 607.926 360.949Z" fill="#F95A5A"/>
<path d="M589.248 354.743C589.953 353.367 591.035 352.215 592.371 351.42" stroke="white" stroke-linecap="round" stroke-linejoin="round"/>
<path d="M603.659 341.487C603.745 341.47 603.833 341.473 603.917 341.496C604.001 341.519 604.078 341.56 604.143 341.618C604.208 341.676 604.259 341.747 604.291 341.827C604.323 341.908 604.336 341.994 604.328 342.08L604.196 343.551C604.076 344.878 603.523 346.13 602.621 347.118C601.719 348.106 600.518 348.776 599.198 349.027C598.942 349.075 598.679 349.064 598.428 348.994C598.178 348.924 597.947 348.797 597.755 348.624C597.562 348.451 597.412 348.236 597.318 347.996C597.223 347.755 597.186 347.497 597.21 347.24C597.334 345.925 597.883 344.684 598.776 343.703C599.669 342.722 600.858 342.053 602.166 341.796L603.659 341.487Z" fill="#009056" stroke="#009056" stroke-miterlimit="10" stroke-linecap="round"/>
<path d="M597.85 339.526C597.91 339.463 597.984 339.416 598.066 339.387C598.148 339.357 598.235 339.347 598.322 339.358C598.408 339.368 598.491 339.398 598.564 339.445C598.637 339.493 598.697 339.556 598.741 339.631L599.486 340.909C600.156 342.064 600.429 343.404 600.264 344.726C600.098 346.048 599.503 347.281 598.568 348.238C598.387 348.423 598.165 348.563 597.919 348.649C597.674 348.734 597.412 348.762 597.154 348.73C596.895 348.698 596.648 348.607 596.432 348.464C596.215 348.321 596.035 348.131 595.905 347.907C595.244 346.76 594.975 345.431 595.137 344.12C595.3 342.808 595.885 341.584 596.806 340.629L597.85 339.526Z" fill="#009056" stroke="#009056" stroke-miterlimit="10" stroke-linecap="round"/>
<path d="M623.49 365.745L623.367 366.187C620.521 368.723 616.276 369.262 612.065 367.853C606.128 365.862 602.517 360.746 604.549 354.844C606.582 348.942 612.158 348.333 618.095 350.321C622.306 351.733 625.785 353.43 626.476 357.15C626.417 357.126 626.358 357.107 626.298 357.085C626.002 359.637 627.157 358.989 626.284 361.487C625.41 363.986 624.334 365.077 623.49 365.745Z" fill="#F95A5A"/>
<path d="M607.041 354.157C607.666 352.739 608.679 351.523 609.966 350.648" stroke="white" stroke-linecap="round" stroke-linejoin="round"/>
<path d="M625.323 345.896C625.409 345.905 625.492 345.934 625.565 345.98C625.639 346.027 625.7 346.09 625.744 346.164C625.788 346.238 625.815 346.321 625.821 346.407C625.827 346.493 625.813 346.58 625.78 346.66L625.209 348.026C624.692 349.259 623.785 350.292 622.626 350.971C621.467 351.65 620.118 351.936 618.783 351.788C618.525 351.759 618.278 351.671 618.06 351.53C617.842 351.39 617.661 351.201 617.53 350.979C617.399 350.757 617.321 350.507 617.304 350.25C617.287 349.993 617.33 349.735 617.43 349.496C617.947 348.276 618.847 347.252 619.996 346.577C621.145 345.902 622.481 345.613 623.805 345.752L625.323 345.896Z" fill="#009056" stroke="#009056" stroke-miterlimit="10" stroke-linecap="round"/>
<rect width="59.2581" height="41.0666" rx="4" transform="matrix(1.00348 0.00252577 -0.00255341 0.996484 569.542 358.29)" fill="#FFBB4D"/>
<path d="M469.325 292.91L504.578 399.5" stroke="#173A52" stroke-width="3" stroke-miterlimit="10"/>
<path d="M608.317 260.088L625.268 370.988" stroke="#173A52" stroke-width="3" stroke-miterlimit="10"/>
<path d="M530.056 330.461C529.204 330.171 528.42 329.713 527.75 329.116C527.081 328.519 526.539 327.795 526.158 326.986C525.776 326.177 525.563 325.301 525.531 324.409C525.499 323.517 525.648 322.628 525.969 321.794C528.448 315.392 533.005 306.844 539.294 308.326C546.914 310.106 543.73 320.81 540.838 327.592C540.172 329.149 538.934 330.398 537.375 331.084C535.815 331.771 534.05 331.844 532.438 331.289L530.056 330.461Z" fill="#F6CBCA"/>
<path d="M487.077 396.054C487.077 396.054 475.897 391.033 477.618 384.035C479.34 377.036 489.693 383.86 489.693 383.86L496.239 387.272L496.926 400.154C496.926 400.154 490.068 397.719 487.077 396.054Z" fill="#EEEEEE"/>
<path d="M479.235 375.068C479.843 378.205 482.339 380.361 484.802 379.873L485.904 385.56L450.181 392.622L449.078 386.933C451.536 386.446 453.041 383.5 452.436 380.362C451.831 377.225 449.331 375.07 446.869 375.557L445.766 369.868L481.49 362.808L482.592 368.497C480.135 368.982 478.619 371.929 479.235 375.068Z" fill="#E66560"/>
<path d="M489.772 351.397C489.772 351.397 466.7 349.02 465.54 358.976C464.2 370.422 489.549 366.353 489.549 366.353L489.772 351.397Z" fill="#F6CBCA"/>
<path d="M471.096 357.557C469.76 358.392 469.676 359.102 469.655 359.435C469.582 359.691 469.581 359.962 469.654 360.219C469.727 360.476 469.869 360.707 470.067 360.889C471.496 362.242 477.213 363.583 485.531 362.772L485.627 355.227C480.621 355.109 474.22 355.613 471.109 357.551L471.096 357.557ZM468.911 354.1C475.595 349.923 489.796 351.388 489.796 351.388L489.598 366.365C489.598 366.365 464.212 370.412 465.589 358.988C465.724 357.973 466.097 357.005 466.679 356.16C467.26 355.314 468.033 354.616 468.937 354.121L468.911 354.1Z" fill="black"/>
<path d="M481.992 351.102C479.011 349.859 476.249 348.154 473.809 346.05C473.494 345.781 473.268 345.425 473.161 345.028C473.053 344.63 473.069 344.209 473.206 343.821C473.343 343.432 473.596 343.094 473.93 342.849C474.264 342.605 474.665 342.466 475.08 342.451C478.247 342.371 482.517 342.503 486.082 343.456C492.646 345.211 481.992 351.102 481.992 351.102Z" fill="#F4C25D"/>
<path d="M527.658 415.489C530.564 414.56 533.403 413.436 536.156 412.126C540.381 410.146 544.474 407.9 548.41 405.402C551.858 403.272 555.188 400.961 558.388 398.479C582.169 379.954 573.512 368.22 573.512 368.22C573.512 368.22 566.678 357.496 563.44 353.016C558.959 346.842 551.974 337.891 544.124 330.375C540.508 326.924 536.036 324.48 531.161 323.291C526.285 322.102 521.18 322.211 516.36 323.606C509.363 325.62 502.785 328.858 496.937 333.165C493.644 335.588 490.605 338.332 487.865 341.356L487.794 341.437C484.444 345.136 482.138 349.645 481.11 354.509C480.082 359.374 480.367 364.421 481.937 369.141C483.216 372.634 484.684 376.057 486.334 379.394C491.779 390.871 500.213 406.465 503.676 411.883C503.648 411.907 508.869 421.372 527.658 415.489Z" fill="white"/>
<path d="M536.144 412.137C540.369 410.157 544.462 407.911 548.398 405.413C551.846 403.283 555.177 400.972 558.376 398.49C582.157 379.964 573.501 368.23 573.501 368.23C573.501 368.23 566.666 357.506 563.429 353.027C563.429 353.027 542.907 362.709 547.899 379.185C548.349 380.6 548.604 382.069 548.657 383.551C548.997 395.651 532.12 396.362 536.06 411.784C536.08 411.904 536.108 412.021 536.144 412.137Z" fill="black"/>
<path d="M486.317 379.416C491.896 370.715 483.954 359.72 493.777 353.574C505.481 346.239 496.934 333.175 496.934 333.175C493.641 335.598 490.602 338.342 487.862 341.366L487.791 341.447C484.441 345.146 482.135 349.655 481.107 354.519C480.078 359.384 480.364 364.431 481.934 369.151C483.208 372.648 484.671 376.075 486.317 379.416Z" fill="black"/>
<path d="M518.858 404.542L523.337 411.581C524.398 413.25 525.895 414.601 527.669 415.492C533.289 413.728 540.133 410.59 548.421 405.405C551.869 403.275 555.2 400.964 558.399 398.482L549.891 385.125C549.535 384.56 549.125 384.03 548.667 383.543C546.902 381.651 544.525 380.43 541.947 380.091C539.37 379.751 536.753 380.315 534.551 381.684L522.325 389.333C519.835 390.899 518.072 393.378 517.422 396.228C516.773 399.078 517.289 402.068 518.858 404.542Z" fill="#F6CBCA"/>
<path d="M495.557 372.932C498.079 373.087 500.25 371.187 500.406 368.688C500.563 366.19 498.646 364.038 496.124 363.883C493.603 363.728 491.432 365.628 491.275 368.126C491.119 370.625 493.036 372.776 495.557 372.932Z" fill="black"/>
<path d="M526.592 353.517C529.113 353.672 531.284 351.772 531.441 349.274C531.597 346.775 529.68 344.624 527.159 344.468C524.637 344.313 522.466 346.213 522.31 348.711C522.153 351.21 524.07 353.361 526.592 353.517Z" fill="black"/>
<path d="M504.817 376.828C501.867 372.196 502.47 364.27 511.384 358.697C520.298 353.125 527.626 356.093 530.576 360.724C533.527 365.356 530.978 369.925 522.066 375.472C513.153 381.018 507.766 381.493 504.817 376.828Z" fill="#F6CBCA"/>
<path d="M520.14 366.801C520.874 366.342 520.958 365.168 520.328 364.178C519.697 363.188 518.591 362.758 517.858 363.216C517.124 363.675 517.04 364.85 517.671 365.839C518.301 366.829 519.407 367.26 520.14 366.801Z" fill="black"/>
<path d="M512.37 371.651C513.103 371.192 513.187 370.017 512.557 369.027C511.926 368.038 510.821 367.607 510.087 368.066C509.353 368.525 509.269 369.699 509.9 370.689C510.53 371.679 511.636 372.109 512.37 371.651Z" fill="black"/>
<path d="M527.296 324.558C527.296 324.558 527.857 318.353 526.41 313.158C526.304 312.759 526.078 312.401 525.762 312.131C525.446 311.862 525.055 311.694 524.641 311.649C524.227 311.604 523.809 311.685 523.442 311.881C523.075 312.077 522.777 312.378 522.586 312.745C521.155 315.541 519.848 317.61 519.179 321.207C517.95 327.836 527.296 324.558 527.296 324.558Z" fill="#F4C25D"/>
<path d="M536.504 312.711C534.33 314.065 531.892 317.913 529.818 323.258C529.691 323.582 529.631 323.928 529.642 324.275C529.653 324.622 529.735 324.964 529.882 325.279C530.03 325.594 530.24 325.877 530.501 326.109C530.762 326.342 531.067 326.52 531.399 326.632L533.796 327.435C534.165 327.563 534.559 327.607 534.948 327.563C535.336 327.519 535.71 327.388 536.041 327.18C536.492 326.902 536.843 326.49 537.047 326.004C540.095 318.851 540.332 314.638 539.539 313.049C539.421 312.825 539.244 312.48 538.344 312.267C538.026 312.197 537.697 312.197 537.379 312.269C537.061 312.34 536.763 312.48 536.506 312.678L536.504 312.711ZM534.309 309.227C535.031 308.738 535.847 308.403 536.707 308.243C537.566 308.083 538.449 308.101 539.301 308.295C546.921 310.075 543.737 320.779 540.845 327.561C540.182 329.121 538.944 330.371 537.383 331.058C535.823 331.745 534.057 331.816 532.445 331.258L530.041 330.455C529.19 330.165 528.406 329.707 527.736 329.11C527.066 328.513 526.524 327.789 526.143 326.98C525.762 326.172 525.549 325.295 525.516 324.403C525.484 323.511 525.633 322.622 525.955 321.788C527.721 317.243 530.563 311.585 534.287 309.252L534.309 309.227Z" fill="white"/>
<path d="M568.074 350.707C568.074 350.707 579.095 356.059 577.165 362.999C575.235 369.939 565.093 362.813 565.093 362.813L555.563 357.73L558.349 346.32C558.349 346.32 565.134 348.973 568.074 350.707Z" fill="white"/>
<path d="M537.829 358.289L542.625 355.29C543.948 354.462 544.343 352.729 543.508 351.419L541.634 348.476C540.799 347.165 539.051 346.773 537.728 347.6L532.932 350.599C531.61 351.426 531.214 353.159 532.049 354.47L533.923 357.413C534.758 358.724 536.507 359.116 537.829 358.289Z" fill="#F7D3D2"/>
<path d="M494.839 385.171L499.635 382.172C500.957 381.345 501.353 379.612 500.518 378.301L498.644 375.358C497.809 374.047 496.06 373.655 494.738 374.482L489.942 377.481C488.62 378.308 488.224 380.041 489.059 381.352L490.933 384.295C491.768 385.606 493.517 385.998 494.839 385.171Z" fill="#F7D3D2"/>
<path d="M540.188 276.206L567.207 384.733" stroke="#173A52" stroke-width="3" stroke-miterlimit="10"/>
<path d="M726.266 -17.9278C734.008 14.1169 735.276 47.3625 729.996 79.8942C724.716 112.426 712.994 143.601 695.504 171.623C692.954 175.728 690.284 179.757 687.494 183.709C682.848 190.304 677.881 196.678 672.595 202.83C664.659 212.065 656.715 221.305 649 230.724L612.59 272.064L467.416 306.278L416.121 285.606C404.952 280.638 393.665 275.929 382.376 271.228C374.85 268.102 367.518 264.625 360.38 260.797C356.101 258.515 351.892 256.113 347.754 253.59C319.413 236.371 294.789 213.767 275.3 187.078C255.81 160.39 241.841 130.145 234.195 98.0849C201.877 -36.468 285.643 -171.458 421.306 -203.652C556.852 -235.813 693.997 -152.298 726.266 -17.9278Z" fill="url(#paint0_linear_690_5)"/>
<path d="M726.266 -17.9278C734.008 14.1169 735.276 47.3625 729.996 79.8942C724.716 112.426 712.994 143.601 695.504 171.623C692.954 175.728 690.284 179.757 687.494 183.709C682.848 190.304 677.881 196.678 672.595 202.83C664.659 212.065 656.715 221.305 649 230.724L612.59 272.064L467.416 306.278L416.121 285.606C404.952 280.638 393.665 275.929 382.376 271.228C374.85 268.102 367.518 264.625 360.38 260.797C356.101 258.515 351.892 256.113 347.754 253.59C319.413 236.371 294.789 213.767 275.3 187.078C255.81 160.39 241.841 130.145 234.195 98.0849C201.877 -36.468 285.643 -171.458 421.306 -203.652C556.852 -235.813 693.997 -152.298 726.266 -17.9278Z" fill="#136E90"/>
<path opacity="0.1" d="M726.274 -17.9269C734.018 14.1187 735.286 47.3657 730.006 79.8987C724.726 112.432 713.003 143.608 695.511 171.631C692.961 175.735 690.292 179.764 687.501 183.716C682.863 190.312 677.897 196.686 672.602 202.838C664.673 212.073 656.723 221.306 649.012 230.739L612.598 272.071L467.424 306.285L416.127 285.62C413.37 284.397 410.62 283.181 407.856 281.964C577.847 215.154 677.023 33.0991 633.461 -148.393C632.402 -152.819 631.263 -157.21 630.044 -161.565C678.33 -126.541 712.445 -75.6181 726.274 -17.9269Z" fill="black"/>
<path d="M493.053 401.596L632.995 368.623L646.603 425.332C647.693 429.875 646.918 434.661 644.447 438.637C641.977 442.613 638.013 445.453 633.429 446.533L528.056 471.361C523.472 472.441 518.643 471.672 514.63 469.223C510.618 466.775 507.752 462.847 506.662 458.305L493.053 401.596Z" fill="#005271"/>
<path opacity="0.1" d="M633.02 368.584L646.135 423.33C646.737 425.835 646.834 428.434 646.423 430.976C646.011 433.519 645.098 435.956 643.735 438.149C642.373 440.342 640.588 442.247 638.482 443.756C636.376 445.265 633.991 446.349 631.463 446.944L559.662 463.864C575.124 453.392 588.216 439.845 598.106 424.084C607.996 408.324 614.466 390.696 617.104 372.322L633.02 368.584Z" fill="black"/>
<g opacity="0.2">
<path d="M489.267 5.83648L440.817 16.0625L448.624 52.381L497.074 42.155L489.267 5.83648Z" fill="black"/>
<path d="M401.72 31.2138L393.533 -6.2347L331.473 89.2655L354.315 104.191L401.72 31.2138ZM576.984 -30.8314C564.688 -58.946 537.748 -76.1646 534.692 -78.0555L468.297 -121.258L443.921 -83.7542L442.228 -81.0918L450.417 -43.6544L476.352 -83.6131L514.115 -59.0475L519.878 -55.3056L520.288 -55.0524C520.366 -55.0409 522.807 -53.4789 526.392 -50.7491C533.711 -45.1312 545.725 -34.2226 551.958 -20.079C561.188 1.05071 569.025 26.2963 551.181 62.9257L559.619 101.616C561.516 99.1199 562.659 97.3773 563.075 96.7447C580.46 70.5174 588.991 45.973 589.25 21.5936C589.443 0.50133 583.18 -16.75 576.984 -30.8314ZM437.394 120.018L436.476 119.793L436.049 119.73C433.367 118.989 430.751 118.029 428.229 116.858C425.891 115.845 422.996 114.49 419.502 112.683C414.174 109.948 407.517 106.2 399.234 101.044L380.553 88.8415L365.743 111.638L384.31 123.766L384.559 123.939C413.093 141.698 426.618 145.621 431.469 146.478C447.11 150.335 463.342 151.252 479.325 149.183C486.667 148.184 493.895 146.489 500.91 144.123L502.592 143.539L496.744 116.72C481.186 122.901 461.402 125.804 437.394 120.018Z" fill="black"/>
<path d="M431.725 -64.9934L466.584 94.8173L431.203 102.395L403.999 -22.3299L406.783 -26.6173L408.283 -28.9101L416.65 -41.8041L422.334 -50.5439L424.18 -53.3885L429.864 -62.1282L431.725 -64.9934Z" fill="black"/>
<path d="M513.657 -45.1222L548.404 114.365L547.988 114.77C546.633 116.164 545.093 117.575 543.492 119.001C542.973 119.482 542.428 119.982 541.879 120.436C540.445 121.696 538.927 122.952 537.326 124.203C535.859 125.375 534.325 126.537 532.723 127.69C531.85 128.312 530.966 128.933 530.056 129.573C528.894 130.369 527.674 131.168 526.42 131.962C525.444 132.581 524.437 133.184 523.405 133.795C521.373 135.013 519.24 136.19 517.006 137.326L515.37 138.144L477.101 -37.2845L513.657 -45.1222Z" fill="black"/>
</g>
<path d="M258.118 62.337C252.877 28.3077 257.692 -6.62778 272.01 -38.4583" stroke="white" stroke-width="10" stroke-linecap="round" stroke-linejoin="round"/>
<circle cx="261.688" cy="80.7335" r="5.41779" fill="white"/>
<g opacity="0.85">
<circle r="97.1078" transform="matrix(-1 -1.23066e-09 -6.67576e-09 1 659.062 490.11)" fill="white"/>
<circle r="50.4887" transform="matrix(-1 -1.23066e-09 -6.67576e-09 1 749.545 508.721)" fill="white"/>
<ellipse rx="76.8386" ry="75.9173" transform="matrix(-1 -1.23066e-09 -6.67576e-09 1 526.765 502.824)" fill="white"/>
<circle r="50.4887" transform="matrix(-1 -1.23066e-09 -6.67576e-09 1 437.035 536.729)" fill="white"/>
<rect width="500.465" height="81.4453" rx="40.7226" transform="matrix(-1 -1.23066e-09 -6.67576e-09 1 839.462 518.303)" fill="white"/>
</g>
<circle r="97.1078" transform="matrix(-1 -1.23066e-09 -6.67576e-09 1 669.062 510.11)" fill="white"/>
<ellipse rx="76.8386" ry="75.9173" transform="matrix(-1 -1.23066e-09 -6.67576e-09 1 536.765 522.824)" fill="white"/>
<circle r="50.4887" transform="matrix(-1 -1.23066e-09 -6.67576e-09 1 447.035 556.729)" fill="white"/>
<rect width="500.465" height="81.4453" rx="40.7226" transform="matrix(-1 -1.23066e-09 -6.67576e-09 1 849.462 538.303)" fill="white"/>
<g opacity="0.75">
<circle cx="1.18653" cy="106.166" r="36.1666" fill="white"/>
<ellipse cx="50.4628" cy="110.901" rx="28.6176" ry="28.2745" fill="white"/>
<circle cx="83.882" cy="123.529" r="18.8039" fill="white"/>
<rect x="-65.9978" y="116.666" width="186.392" height="30.3333" rx="15.1666" fill="white"/>
</g>
<g clip-path="url(#clip0_690_5)">
<path d="M218.749 410.989L185.369 484.399C184.615 486.055 183.253 487.338 181.582 487.968C179.911 488.597 178.069 488.521 176.459 487.755L139.946 470.365C139.148 469.986 138.433 469.448 137.839 468.784C137.245 468.119 136.785 467.34 136.485 466.491C136.186 465.643 136.052 464.741 136.091 463.838C136.131 462.935 136.344 462.047 136.717 461.227L170.097 387.818C176.393 374.007 199.794 351.626 213.224 358.029C226.654 364.433 225.018 397.163 218.749 410.989Z" fill="#173A52"/>
<path d="M143.619 472.116L173.014 486.117L174.728 492.841C174.827 493.234 174.816 493.649 174.695 494.036C174.574 494.424 174.348 494.768 174.044 495.03C173.74 495.291 173.37 495.459 172.978 495.513C172.586 495.567 172.187 495.506 171.828 495.336L137.49 478.984C137.132 478.812 136.829 478.54 136.617 478.198C136.405 477.855 136.292 477.458 136.292 477.052C136.291 476.645 136.404 476.247 136.615 475.902C136.827 475.558 137.129 475.282 137.487 475.107L143.619 472.116Z" fill="#173A52"/>
<path d="M159.595 382.818L126.216 456.221C125.844 457.043 125.318 457.781 124.668 458.394C124.019 459.008 123.258 459.484 122.431 459.797C121.603 460.109 120.725 460.251 119.845 460.214C118.966 460.178 118.102 459.964 117.305 459.584L80.7974 442.195C79.1873 441.428 77.9422 440.035 77.3357 438.321C76.7291 436.608 76.8108 434.714 77.5626 433.056L110.943 359.646C117.239 345.836 140.64 323.455 154.07 329.858C167.5 336.262 165.868 368.967 159.595 382.818Z" fill="#173A52"/>
<path d="M84.4651 443.945L113.878 457.942L115.597 464.673C115.695 465.066 115.682 465.481 115.56 465.867C115.438 466.254 115.211 466.598 114.907 466.859C114.603 467.12 114.234 467.288 113.841 467.342C113.449 467.397 113.051 467.336 112.692 467.167L78.3357 450.812C77.9776 450.641 77.6749 450.368 77.4627 450.026C77.2506 449.684 77.1378 449.287 77.1375 448.88C77.1373 448.474 77.2495 448.075 77.4612 447.731C77.6729 447.387 77.9753 447.111 78.3331 446.936L84.4651 443.945Z" fill="#173A52"/>
<path d="M130.183 347.563C133.988 342.493 139.102 338.621 144.939 336.39" stroke="white" stroke-width="3" stroke-linecap="round" stroke-linejoin="round"/>
<path d="M202.654 478.413L224.285 488.717L219.238 499.817C218.785 500.811 217.967 501.583 216.964 501.961C215.961 502.339 214.854 502.292 213.887 501.832L199.539 494.997C198.572 494.537 197.825 493.7 197.462 492.671C197.098 491.642 197.148 490.505 197.6 489.51L202.648 478.41L202.654 478.413Z" fill="#4B9B3A"/>
<path d="M258.951 463.423C258.951 463.423 260.841 484.812 248.934 488.349C237.026 491.886 238.519 470.164 238.519 470.164L238.111 457.225L256.788 444.858C256.788 444.858 258.914 457.419 258.951 463.423Z" fill="#4B9B3A"/>
<path d="M296.679 498.786C296.598 506.177 301.253 512.222 307.059 512.263L306.913 525.661L222.684 525.057L222.831 511.653C228.626 511.692 233.406 505.715 233.493 498.325C233.58 490.935 228.919 484.889 223.113 484.849L223.26 471.444L307.488 472.054L307.341 485.459C301.547 485.414 296.743 491.387 296.679 498.786Z" fill="#E66560"/>
<path d="M137.993 388.464C137.993 388.464 87.7023 447.945 175.06 483.328C249.272 513.384 256.704 444.993 256.704 444.993C261.656 443.276 266.144 440.373 269.797 436.526C273.45 432.679 276.163 427.998 277.71 422.87C279.258 417.743 279.597 412.315 278.699 407.037C277.8 401.759 275.69 396.782 272.544 392.517L272.552 392.457C273.901 390.846 275.033 389.055 275.916 387.135C278.167 382.182 278.704 376.594 277.439 371.3C276.174 366.005 273.182 361.322 268.96 358.029C264.738 354.735 259.541 353.028 254.23 353.192C248.919 353.356 243.814 355.38 239.764 358.929L238.644 358.405L218.587 348.856L217.888 348.522C217.99 342.673 215.997 336.998 212.287 332.577C208.577 328.156 203.41 325.296 197.766 324.541C192.122 323.786 186.396 325.189 181.676 328.483C176.956 331.776 173.572 336.731 172.165 342.406L172.119 342.399C166.501 341.807 160.823 342.711 155.633 345.026C150.442 347.341 145.914 350.988 142.485 355.615C139.055 360.243 136.841 365.695 136.054 371.445C135.268 377.195 135.936 383.05 137.995 388.446L137.993 388.464Z" fill="#49B236"/>
<path d="M126.237 442.017L146.472 451.656L141.314 462.998C140.891 463.929 140.126 464.65 139.187 465.003C138.249 465.357 137.213 465.314 136.309 464.883L122.887 458.489C121.983 458.059 121.284 457.276 120.944 456.313C120.604 455.351 120.65 454.287 121.074 453.356L126.232 442.014L126.237 442.017Z" fill="#49B236"/>
<path d="M226.777 458.515L212.072 490.872C202.096 491.419 189.913 489.336 175.073 483.323C158.735 476.721 147.22 469.263 139.277 461.517L155.976 424.792C158.116 420.113 161.97 416.487 166.694 414.708C171.418 412.929 176.627 413.142 181.182 415.3L217.662 432.672C222.201 434.856 225.706 438.799 227.414 443.64C229.122 448.482 228.893 453.829 226.777 458.515Z" fill="#9CD43D"/>
<path d="M249.743 394.341C254.003 394.956 257.957 391.905 258.574 387.526C259.192 383.147 256.239 379.099 251.978 378.484C247.718 377.869 243.765 380.92 243.147 385.299C242.53 389.678 245.483 393.726 249.743 394.341Z" fill="black"/>
<path d="M193.139 367.384C197.399 367.999 201.353 364.948 201.97 360.569C202.587 356.191 199.634 352.143 195.374 351.528C191.114 350.913 187.16 353.964 186.543 358.342C185.926 362.721 188.879 366.769 193.139 367.384Z" fill="black"/>
<path d="M212.728 377.124L229.241 384.985C230.042 385.365 230.737 385.947 231.26 386.677C231.783 387.407 232.118 388.261 232.234 389.161C232.351 390.061 232.244 390.977 231.925 391.825C231.606 392.674 231.085 393.427 230.409 394.015C226.967 396.966 221.65 399.172 214.331 395.687C207.011 392.202 205.238 386.616 205.231 382.009C205.237 381.103 205.465 380.211 205.895 379.417C206.324 378.622 206.94 377.951 207.687 377.464C208.434 376.978 209.287 376.691 210.168 376.632C211.049 376.572 211.93 376.742 212.728 377.124Z" fill="white"/>
<path d="M271.698 420.005C274.751 413.291 271.653 405.193 264.778 401.918C257.903 398.643 249.855 401.431 246.801 408.146C243.748 414.86 246.846 422.958 253.721 426.233C260.596 429.507 268.645 426.719 271.698 420.005Z" fill="#9CD43D"/>
<path d="M184.133 378.297C187.186 371.583 184.088 363.485 177.213 360.21C170.338 356.935 162.289 359.724 159.236 366.438C156.183 373.152 159.281 381.25 166.156 384.525C173.031 387.8 181.079 385.012 184.133 378.297Z" fill="#9CD43D"/>
<path d="M185.79 472.696C185.58 472.598 185.392 472.457 185.236 472.283C185.081 472.109 184.96 471.905 184.882 471.682L181.116 461.025C181.029 460.597 181.096 460.151 181.303 459.768C181.511 459.385 181.845 459.091 182.245 458.939C182.645 458.788 183.084 458.789 183.482 458.943C183.88 459.097 184.21 459.393 184.412 459.777L188.184 470.441C188.293 470.775 188.305 471.135 188.218 471.476C188.132 471.818 187.951 472.127 187.698 472.366C187.444 472.604 187.129 472.763 186.79 472.821C186.451 472.88 186.104 472.836 185.79 472.696Z" fill="#49B236"/>
<path d="M178.728 469.328C178.421 469.172 178.164 468.928 177.99 468.624C177.816 468.321 177.732 467.972 177.747 467.62C177.763 467.267 177.878 466.927 178.078 466.639C178.278 466.352 178.555 466.13 178.875 466L189.272 462.086C189.496 461.959 189.744 461.884 189.999 461.865C190.254 461.846 190.509 461.884 190.748 461.976C190.986 462.068 191.203 462.212 191.382 462.398C191.561 462.584 191.699 462.808 191.786 463.054C191.873 463.3 191.907 463.563 191.886 463.824C191.865 464.085 191.789 464.339 191.664 464.568C191.538 464.797 191.367 464.996 191.16 465.151C190.953 465.306 190.717 465.413 190.467 465.466L180.074 469.387C179.635 469.55 179.151 469.529 178.728 469.328Z" fill="#49B236"/>
<g opacity="0.85">
<path d="M108.951 465.395L81.9991 452.556L40.7731 543.21L67.7247 556.048L108.951 465.395Z" fill="white"/>
<path d="M167.985 493.516L141.033 480.677L99.8072 571.331L126.759 584.169L167.985 493.516Z" fill="white"/>
<path d="M154.4 586.895C170.048 589.153 184.572 577.946 186.839 561.862C189.106 545.778 178.258 530.909 162.61 528.65C146.962 526.391 132.439 537.598 130.171 553.682C127.904 569.766 138.752 584.636 154.4 586.895Z" fill="white"/>
<path d="M95.0993 562.549C110.748 564.807 125.271 553.6 127.538 537.516C129.805 521.432 118.957 506.563 103.309 504.304C87.6609 502.045 73.1377 513.252 70.8706 529.336C68.6035 545.42 79.4511 560.29 95.0993 562.549Z" fill="white"/>
<path d="M49.5435 526.748C65.1917 529.007 79.7149 517.799 81.9819 501.716C84.249 485.632 73.4015 470.762 57.7532 468.503C42.105 466.244 27.5818 477.452 25.3148 493.535C23.0477 509.619 33.8952 524.489 49.5435 526.748Z" fill="white"/>
<path d="M2.28947 530.838C17.9377 533.097 32.4609 521.889 34.7279 505.805C36.995 489.721 26.1474 474.852 10.4992 472.593C-5.14897 470.334 -19.6722 481.541 -21.9392 497.625C-24.2063 513.709 -13.3587 528.579 2.28947 530.838Z" fill="white"/>
<path d="M8.9374 572.354C15.3614 573.282 21.3236 568.681 22.2543 562.078C23.1849 555.475 18.7317 549.37 12.3077 548.443C5.88374 547.516 -0.0784209 552.117 -1.00911 558.72C-1.93981 565.322 2.5134 571.427 8.9374 572.354Z" fill="white"/>
<path d="M29.5501 581.612C53.0498 585.004 74.8601 568.173 78.2647 544.019C81.6693 519.865 65.3789 497.535 41.8791 494.142C18.3794 490.75 -3.43089 507.581 -6.83547 531.735C-10.24 555.889 6.05031 578.22 29.5501 581.612Z" fill="white"/>
<path d="M107.046 612.847C130.546 616.239 152.356 599.409 155.76 575.255C159.165 551.1 142.875 528.77 119.375 525.377C95.8751 521.985 74.0648 538.816 70.6602 562.97C67.2556 587.124 83.546 609.455 107.046 612.847Z" fill="white"/>
</g>
<path d="M120.455 435.12L258.249 447.535" stroke="#015271" stroke-width="13" stroke-miterlimit="10" stroke-linecap="round"/>
<path d="M134.362 390.178L238.328 482.31" stroke="#015271" stroke-width="13" stroke-miterlimit="10" stroke-linecap="round"/>
<path d="M114.663 401.576C114.663 401.576 103.228 383.642 112.155 374.792C121.082 365.943 129.698 385.801 129.698 385.801L135.965 397.003L125.076 416.897C125.076 416.897 117.416 406.855 114.663 401.576Z" fill="#49B236"/>
</g>
<path d="M196.068 49.1174C195.395 70.1178 177.34 101.59 156.346 100.912C135.351 100.233 119.349 67.6751 120.022 46.6804C120.382 36.6221 124.714 27.1165 132.068 20.2452C139.422 13.3738 149.199 9.69668 159.259 10.0191C169.318 10.3414 178.84 14.637 185.739 21.9652C192.638 29.2933 196.352 39.0567 196.068 49.1174Z" fill="#F95A5A"/>
<path d="M154.904 102.021C155.266 141.861 155.619 181.702 155.962 221.542L154.904 102.021Z" fill="#FFE36C"/>
<path d="M154.904 102.021C155.266 141.861 155.619 181.702 155.962 221.542" stroke="white" stroke-width="2" stroke-miterlimit="10"/>
<path d="M157.474 96.4004L157.401 106.923C157.395 107.458 157.244 107.981 156.965 108.437C156.685 108.893 156.287 109.265 155.813 109.513C155.339 109.761 154.807 109.875 154.273 109.844C153.739 109.813 153.223 109.638 152.781 109.338L150.208 107.585C149.834 107.33 149.523 106.993 149.3 106.598C149.077 106.204 148.948 105.764 148.922 105.312C148.897 104.86 148.975 104.408 149.152 103.991C149.329 103.575 149.599 103.204 149.943 102.909L157.474 96.4004Z" fill="#F95A5A"/>
<path d="M129.951 44.1067C130.335 39.5072 132.009 35.1094 134.78 31.4182" stroke="white" stroke-width="5" stroke-linecap="round" stroke-linejoin="round"/>
<path opacity="0.1" d="M196.37 49.1295C195.698 70.1299 177.649 101.597 156.648 100.918C149.479 100.692 142.88 96.7394 137.344 90.791C151.584 88.3899 164.555 81.1354 174.054 70.2589C183.554 59.3823 188.997 45.5538 189.461 31.1203C189.517 29.3844 189.506 27.6541 189.416 25.9521C194.209 32.7082 196.652 40.8507 196.37 49.1295Z" fill="black"/>
</g>
<defs>
<linearGradient id="paint0_linear_690_5" x1="278.483" y1="-57.4202" x2="665.524" y2="280.329" gradientUnits="userSpaceOnUse">
<stop offset="0.0752592" stop-color="#FFE36C"/>
<stop offset="0.34375" stop-color="#E0EA71"/>
<stop offset="0.512785" stop-color="#CCEE74"/>
<stop offset="0.945102" stop-color="#6DD1E1"/>
</linearGradient>
<clipPath id="clip0_690_5">
<rect width="351.084" height="337.226" fill="white" transform="matrix(0.989741 0.142874 -0.139573 0.990212 -14.9271 294)"/>
</clipPath>
</defs>
</svg>
