<svg width="327" height="260" viewBox="0 0 327 260" fill="none"
    xmlns="http://www.w3.org/2000/svg">
    <mask id="mask0_626_1552" style="mask-type:alpha" maskUnits="userSpaceOnUse" x="0" y="0" width="327" height="260">
        <path d="M0 4.67142C0 2.09146 2.09147 0 4.67143 0H322.329C324.909 0 327 2.09147 327 4.67143V255.06C327 257.64 324.909 259.731 322.329 259.731H4.67142C2.09146 259.731 0 257.64 0 255.06V4.67142Z" fill="#C4C4C4"/>
    </mask>
    <g mask="url(#mask0_626_1552)">
        <path d="M-29.2219 -18.3881H356.684V274.902H-29.2219V-18.3881Z" fill="white"/>
        <g opacity="0.8">
            <g opacity="0.8">
                <path opacity="0.8" d="M335.351 -6.43555H-8.34656V270.305H335.351V-6.43555Z" fill="#45D5D9"/>
            </g>
        </g>
        <path opacity="0.16" d="M12.8868 0C12.8868 0 144.747 43.8662 219.208 54.2549C293.669 64.6436 333.286 74.1693 317.839 89.4748C302.392 104.78 101.408 75.0347 87.4465 126.402C73.4852 177.769 325.66 131.96 357.365 203.489V259.731H-61.473V0H12.8868Z" fill="white"/>
        <g style="mix-blend-mode:soft-light" opacity="0.32">
            <path d="M-16.2616 309.25C-16.2616 309.25 99.0392 245.107 164.149 229.917C229.259 214.726 263.902 200.797 250.395 178.417C236.887 156.037 61.1428 199.532 48.9348 124.421C36.7268 49.31 257.233 116.294 284.957 11.7017L284.957 -70.5374L-81.2832 -70.5374L-81.2832 309.25L-16.2616 309.25Z" fill="white" fill-opacity="0.75"/>
        </g>
        <path d="M97.0499 101.086C94.2976 98.3337 90.8298 96.4067 87.039 95.5232L87.0046 95.5232C85.343 95.1346 83.6082 95.1916 81.9757 95.6883C80.3431 96.1851 78.8706 97.1039 77.7069 98.3521C75.4855 100.729 69.8646 109.256 68.4012 111.897C68.4012 111.897 65.0334 117.18 77.6831 124.177C90.3328 131.174 92.9769 125.511 92.9769 125.511C92.9769 125.511 95.09 121.702 95.9035 119.996C97.0341 117.637 98.5819 114.076 99.5566 110.487C100.002 108.838 100.005 107.1 99.5648 105.45C99.1248 103.8 98.2573 102.294 97.0499 101.086Z" fill="#F2F2F2"/>
        <path d="M91.5917 22.9448C91.2774 32.755 82.8434 47.457 73.0358 47.1401C63.2283 46.8231 55.7531 31.6139 56.0674 21.8063C56.2357 17.1077 58.2591 12.6672 61.6946 9.45732C65.13 6.24741 69.6974 4.52967 74.3966 4.68027C79.0959 4.83087 83.544 6.83752 86.7668 10.2608C89.9896 13.6841 91.7246 18.245 91.5917 22.9448Z" fill="#F95A5A"/>
        <path d="M72.3623 47.6581C72.5317 66.2693 72.6964 84.8806 72.8564 103.492L72.3623 47.6581Z" fill="#FFE36C"/>
        <path fill-rule="evenodd" clip-rule="evenodd" d="M72.3894 103.496C72.2294 84.8846 72.0647 66.2735 71.8953 47.6623L72.8295 47.6538C72.9989 66.2651 73.1636 84.8764 73.3236 103.488L72.3894 103.496Z" fill="white"/>
        <path d="M73.5631 45.0327L73.5288 49.9484C73.5262 50.1982 73.4558 50.4427 73.3252 50.6557C73.1947 50.8687 73.0087 51.0424 72.7873 51.1581C72.5659 51.2738 72.3172 51.3274 72.0677 51.3129C71.8183 51.2985 71.5774 51.2167 71.3708 51.0763L70.1689 50.2574C69.9941 50.1384 69.8489 49.9807 69.7447 49.7967C69.6406 49.6126 69.5801 49.407 69.5681 49.1958C69.5561 48.9846 69.5929 48.7735 69.6755 48.5788C69.7582 48.3841 69.8845 48.211 70.0448 48.073L73.5631 45.0327Z" fill="#F95A5A"/>
        <path fill-rule="evenodd" clip-rule="evenodd" d="M63.6626 13.7427C64.1785 14.1299 64.2827 14.862 63.8955 15.3778C62.733 16.9265 62.0308 18.7716 61.8696 20.7013C61.8159 21.344 61.2513 21.8215 60.6085 21.7678C59.9658 21.7141 59.4882 21.1495 59.542 20.5068C59.7398 18.1393 60.6013 15.8756 62.0275 13.9756C62.4147 13.4598 63.1468 13.3555 63.6626 13.7427Z" fill="white"/>
        <path opacity="0.1" d="M91.7331 22.9504C91.4187 32.7606 82.9874 47.46 73.1772 47.1431C69.8279 47.0374 66.7454 45.1911 64.1594 42.4123C70.8115 41.2906 76.8706 37.9018 81.3082 32.8209C85.7459 27.74 88.2888 21.2801 88.5053 14.5375C88.5317 13.7266 88.5264 12.9184 88.4841 12.1233C90.7232 15.2793 91.8646 19.083 91.7331 22.9504Z" fill="black"/>
        <path d="M276.57 167.845L276.625 168.052C276.073 169.733 274.481 170.932 272.442 171.337C269.566 171.906 266.891 170.676 266.317 167.824C265.742 164.972 267.856 163.437 270.732 162.867C272.772 162.463 274.583 162.344 275.744 163.686C275.714 163.689 275.685 163.696 275.656 163.701C276.14 164.799 276.455 164.27 276.693 165.48C276.931 166.691 276.754 167.38 276.57 167.845Z" fill="#F95A5A"/>
        <path fill-rule="evenodd" clip-rule="evenodd" d="M269 164.279C268.947 164.162 268.809 164.108 268.69 164.16C267.984 164.468 267.379 164.966 266.945 165.599C266.872 165.705 266.9 165.85 267.008 165.922C267.115 165.994 267.261 165.967 267.333 165.86C267.718 165.3 268.253 164.858 268.879 164.586C268.998 164.534 269.052 164.397 269 164.279Z" fill="white"/>
        <path d="M272.616 159.409C272.653 159.393 272.693 159.385 272.734 159.387C272.774 159.389 272.814 159.4 272.85 159.42C272.885 159.439 272.916 159.467 272.938 159.5C272.961 159.533 272.976 159.571 272.982 159.611L273.074 160.295C273.156 160.912 273.034 161.539 272.725 162.081C272.416 162.623 271.938 163.05 271.362 163.299C271.251 163.347 271.13 163.368 271.008 163.362C270.887 163.356 270.769 163.321 270.663 163.262C270.557 163.203 270.467 163.12 270.399 163.02C270.331 162.92 270.288 162.806 270.272 162.687C270.192 162.075 270.314 161.453 270.619 160.915C270.925 160.378 271.398 159.952 271.967 159.702L272.616 159.409Z" fill="#009056"/>
        <path fill-rule="evenodd" clip-rule="evenodd" d="M271.871 159.49C271.256 159.76 270.745 160.22 270.415 160.802C270.085 161.383 269.953 162.055 270.039 162.717L270.039 162.717C270.06 162.872 270.116 163.02 270.204 163.15C270.293 163.28 270.41 163.387 270.547 163.464C270.685 163.542 270.838 163.586 270.996 163.594C271.153 163.603 271.311 163.574 271.456 163.512C272.078 163.243 272.596 162.781 272.93 162.195C273.263 161.609 273.396 160.931 273.306 160.264L273.214 159.58C273.204 159.504 273.176 159.432 273.132 159.369C273.089 159.306 273.031 159.254 272.964 159.217C272.897 159.179 272.822 159.158 272.745 159.155C272.668 159.151 272.591 159.166 272.52 159.197L272.518 159.198L271.871 159.49ZM271.269 163.086C271.191 163.119 271.106 163.134 271.021 163.13C270.936 163.126 270.853 163.102 270.779 163.06C270.705 163.018 270.641 162.96 270.594 162.89C270.546 162.82 270.516 162.74 270.504 162.657C270.431 162.094 270.543 161.523 270.824 161.029C271.105 160.535 271.539 160.144 272.062 159.914L272.064 159.913L272.711 159.621C272.715 159.62 272.719 159.619 272.723 159.619C272.727 159.619 272.731 159.621 272.735 159.623C272.739 159.625 272.742 159.628 272.744 159.631C272.747 159.635 272.748 159.639 272.749 159.643L272.841 160.326C272.841 160.326 272.841 160.326 272.841 160.326C272.917 160.893 272.804 161.469 272.521 161.967C272.237 162.465 271.798 162.857 271.269 163.086Z" fill="#009056"/>
        <path d="M283.988 168.615L283.996 168.829C283.085 170.349 281.266 171.172 279.187 171.123C276.255 171.053 273.919 169.27 273.99 166.363C274.061 163.456 276.464 162.418 279.396 162.488C281.475 162.538 283.268 162.816 284.104 164.377C284.074 164.374 284.044 164.374 284.015 164.373C284.244 165.55 284.668 165.102 284.632 166.335C284.596 167.567 284.27 168.201 283.988 168.615Z" fill="#F95A5A"/>
        <path fill-rule="evenodd" clip-rule="evenodd" d="M276.923 164.044C276.856 163.933 276.712 163.898 276.601 163.964C275.94 164.358 275.403 164.928 275.054 165.61C274.995 165.725 275.041 165.865 275.156 165.923C275.272 165.981 275.413 165.936 275.472 165.821C275.781 165.217 276.256 164.712 276.842 164.363C276.953 164.297 276.989 164.154 276.923 164.044Z" fill="white"/>
        <path d="M281.995 159.523C282.035 159.515 282.076 159.517 282.116 159.527C282.155 159.538 282.191 159.557 282.221 159.584C282.252 159.611 282.275 159.645 282.29 159.682C282.305 159.72 282.311 159.76 282.308 159.8L282.246 160.487C282.19 161.107 281.932 161.692 281.51 162.153C281.089 162.615 280.528 162.928 279.911 163.045C279.792 163.068 279.669 163.063 279.552 163.03C279.435 162.997 279.327 162.938 279.237 162.857C279.147 162.776 279.077 162.676 279.033 162.564C278.989 162.451 278.971 162.331 278.982 162.211C279.04 161.596 279.297 161.017 279.714 160.558C280.131 160.1 280.687 159.788 281.298 159.667L281.995 159.523Z" fill="#009056"/>
        <path fill-rule="evenodd" clip-rule="evenodd" d="M281.251 159.439C280.591 159.569 279.991 159.907 279.54 160.402C279.089 160.898 278.812 161.524 278.749 162.189L278.749 162.189C278.735 162.345 278.757 162.502 278.815 162.648C278.872 162.794 278.963 162.925 279.08 163.03C279.197 163.135 279.336 163.212 279.488 163.254C279.64 163.296 279.8 163.303 279.955 163.274C280.621 163.147 281.229 162.809 281.684 162.31C282.139 161.811 282.419 161.179 282.48 160.508L282.541 159.82C282.548 159.744 282.536 159.668 282.508 159.596C282.48 159.525 282.435 159.462 282.377 159.411C282.32 159.36 282.251 159.323 282.177 159.303C282.103 159.283 282.025 159.28 281.949 159.295L281.947 159.295L281.251 159.439ZM279.867 162.817C279.783 162.832 279.697 162.829 279.615 162.806C279.533 162.783 279.457 162.741 279.394 162.685C279.331 162.628 279.282 162.558 279.251 162.479C279.22 162.401 279.208 162.316 279.216 162.232C279.269 161.668 279.505 161.135 279.888 160.714C280.271 160.293 280.782 160.006 281.343 159.896L281.346 159.895L282.042 159.751C282.046 159.751 282.05 159.751 282.054 159.752C282.058 159.753 282.062 159.755 282.065 159.758C282.068 159.761 282.071 159.764 282.072 159.768C282.074 159.772 282.074 159.776 282.074 159.78L282.013 160.466C282.013 160.466 282.013 160.466 282.013 160.466C281.961 161.036 281.724 161.573 281.337 161.997C280.95 162.421 280.434 162.709 279.867 162.817Z" fill="#009056"/>
        <path d="M279.281 158.607C279.309 158.578 279.344 158.556 279.382 158.542C279.42 158.528 279.461 158.524 279.502 158.528C279.542 158.533 279.581 158.547 279.615 158.569C279.649 158.591 279.677 158.621 279.698 158.656L280.045 159.253C280.359 159.793 280.486 160.419 280.409 161.036C280.332 161.654 280.054 162.23 279.617 162.677C279.532 162.763 279.428 162.829 279.314 162.869C279.199 162.909 279.077 162.922 278.956 162.907C278.835 162.892 278.72 162.849 278.619 162.782C278.518 162.716 278.433 162.627 278.373 162.522C278.064 161.986 277.938 161.366 278.014 160.753C278.09 160.14 278.363 159.568 278.794 159.122L279.281 158.607Z" fill="#009056"/>
        <path fill-rule="evenodd" clip-rule="evenodd" d="M278.623 158.963C278.159 159.445 277.863 160.063 277.781 160.725C277.699 161.387 277.835 162.058 278.169 162.637L278.17 162.638C278.248 162.774 278.358 162.889 278.489 162.976C278.621 163.063 278.77 163.118 278.927 163.137C279.084 163.157 279.243 163.14 279.392 163.088C279.541 163.036 279.675 162.951 279.785 162.839C280.257 162.355 280.558 161.733 280.642 161.065C280.726 160.397 280.588 159.721 280.249 159.138L279.901 158.539C279.862 158.473 279.808 158.417 279.744 158.375C279.679 158.333 279.606 158.307 279.529 158.298C279.453 158.289 279.375 158.297 279.303 158.323C279.23 158.349 279.165 158.391 279.112 158.446L279.11 158.448L278.623 158.963ZM279.448 162.515C279.389 162.575 279.316 162.621 279.236 162.649C279.155 162.677 279.07 162.686 278.985 162.676C278.901 162.665 278.82 162.636 278.749 162.589C278.678 162.542 278.619 162.48 278.577 162.407C278.293 161.914 278.177 161.344 278.247 160.782C278.317 160.219 278.568 159.693 278.964 159.283L278.965 159.281L279.451 158.767C279.454 158.764 279.458 158.762 279.462 158.761C279.466 158.759 279.47 158.759 279.474 158.759C279.479 158.76 279.483 158.761 279.486 158.764C279.49 158.766 279.493 158.769 279.495 158.773L279.842 159.369C279.842 159.369 279.842 159.369 279.842 159.369C280.13 159.865 280.247 160.44 280.176 161.007C280.105 161.575 279.85 162.104 279.448 162.515Z" fill="#009056"/>
        <path d="M291.259 170.855L291.202 171.062C289.872 172.247 287.889 172.498 285.922 171.84C283.148 170.91 281.462 168.52 282.411 165.763C283.36 163.006 285.965 162.721 288.739 163.65C290.706 164.31 292.331 165.102 292.654 166.84C292.626 166.829 292.598 166.82 292.571 166.81C292.432 168.002 292.972 167.699 292.564 168.866C292.156 170.033 291.653 170.543 291.259 170.855Z" fill="#F95A5A"/>
        <path fill-rule="evenodd" clip-rule="evenodd" d="M285.135 163.671C285.062 163.565 284.916 163.538 284.809 163.611C284.172 164.044 283.67 164.647 283.36 165.349C283.308 165.467 283.362 165.604 283.481 165.655C283.599 165.707 283.738 165.652 283.79 165.534C284.064 164.912 284.508 164.379 285.073 163.994C285.18 163.922 285.208 163.777 285.135 163.671Z" fill="white"/>
        <path d="M292.115 161.583C292.155 161.587 292.194 161.601 292.228 161.622C292.263 161.644 292.291 161.673 292.312 161.708C292.333 161.742 292.345 161.781 292.348 161.822C292.351 161.862 292.344 161.902 292.329 161.939L292.062 162.578C291.82 163.154 291.397 163.636 290.855 163.954C290.314 164.271 289.684 164.405 289.06 164.335C288.94 164.322 288.824 164.28 288.722 164.215C288.621 164.149 288.536 164.061 288.475 163.957C288.413 163.853 288.377 163.737 288.369 163.617C288.361 163.496 288.381 163.376 288.428 163.265C288.67 162.694 289.09 162.216 289.627 161.901C290.163 161.586 290.787 161.451 291.406 161.516L292.115 161.583Z" fill="#009056"/>
        <path fill-rule="evenodd" clip-rule="evenodd" d="M291.431 161.284C290.762 161.214 290.088 161.36 289.508 161.701C288.928 162.041 288.473 162.559 288.212 163.175L288.212 163.176C288.151 163.32 288.125 163.477 288.135 163.633C288.146 163.789 288.193 163.941 288.272 164.076C288.352 164.21 288.462 164.325 288.594 164.41C288.726 164.495 288.876 164.549 289.033 164.566C289.707 164.641 290.388 164.497 290.974 164.154C291.559 163.811 292.017 163.289 292.278 162.667L292.545 162.027C292.575 161.956 292.587 161.88 292.582 161.804C292.576 161.727 292.553 161.654 292.513 161.588C292.474 161.523 292.42 161.467 292.355 161.426C292.291 161.385 292.217 161.359 292.141 161.351L292.138 161.351L291.431 161.284ZM289.087 164.104C289.003 164.094 288.922 164.065 288.851 164.019C288.779 163.973 288.72 163.912 288.677 163.839C288.634 163.766 288.609 163.684 288.603 163.6C288.597 163.516 288.612 163.432 288.644 163.354C288.866 162.83 289.252 162.391 289.745 162.101C290.238 161.812 290.812 161.687 291.381 161.747L291.383 161.747L292.09 161.814C292.094 161.815 292.098 161.816 292.102 161.818C292.105 161.821 292.108 161.824 292.11 161.827C292.113 161.831 292.114 161.835 292.114 161.839C292.114 161.843 292.114 161.848 292.112 161.851L291.845 162.489C291.845 162.489 291.846 162.489 291.845 162.489C291.624 163.018 291.234 163.462 290.737 163.753C290.239 164.044 289.66 164.168 289.087 164.104Z" fill="#009056"/>
        <path d="M266.053 169.235C266.055 168.206 266.897 167.375 267.933 167.377L291.961 167.438C292.996 167.44 293.834 168.276 293.831 169.305L293.792 184.697C293.789 185.725 292.948 186.557 291.912 186.554L267.884 186.494C266.848 186.491 266.011 185.656 266.013 184.627L266.053 169.235Z" fill="#FFBB4D"/>
        <path fill-rule="evenodd" clip-rule="evenodd" d="M235.045 186.845L218.576 137.052L219.908 136.61L236.376 186.402L235.045 186.845Z" fill="#173A52"/>
        <path fill-rule="evenodd" clip-rule="evenodd" d="M291.397 173.412L283.478 121.605L284.864 121.391L292.783 173.197L291.397 173.412Z" fill="#173A52"/>
        <path d="M247.612 154.372C247.214 154.237 246.848 154.023 246.535 153.744C246.222 153.465 245.969 153.127 245.791 152.749C245.613 152.371 245.513 151.962 245.498 151.545C245.483 151.129 245.553 150.713 245.703 150.324C246.861 147.333 248.989 143.34 251.928 144.032C255.487 144.864 254 149.864 252.649 153.032C252.338 153.76 251.759 154.343 251.031 154.664C250.302 154.984 249.478 155.019 248.725 154.759L247.612 154.372Z" fill="#F6CBCA"/>
        <path d="M227.535 185.014C227.535 185.014 222.312 182.668 223.116 179.399C223.92 176.13 228.757 179.318 228.757 179.318L231.815 180.911L232.136 186.929C232.136 186.929 228.932 185.792 227.535 185.014Z" fill="#EEEEEE"/>
        <path d="M223.871 175.21C224.155 176.676 225.322 177.683 226.472 177.455L226.987 180.112L210.299 183.411L209.784 180.753C210.932 180.526 211.635 179.149 211.352 177.684C211.07 176.218 209.902 175.211 208.752 175.439L208.237 172.781L224.925 169.483L225.44 172.141C224.292 172.367 223.584 173.744 223.871 175.21Z" fill="#E66560"/>
        <path d="M228.794 164.153C228.794 164.153 218.015 163.042 217.474 167.693C216.848 173.04 228.689 171.139 228.689 171.139L228.794 164.153Z" fill="#F6CBCA"/>
        <path d="M220.069 167.03C219.445 167.42 219.406 167.752 219.396 167.907C219.362 168.027 219.362 168.154 219.396 168.274C219.429 168.394 219.496 168.502 219.588 168.587C220.256 169.219 222.927 169.845 226.812 169.466L226.857 165.942C224.519 165.887 221.529 166.122 220.075 167.027L220.069 167.03ZM219.049 165.415C222.171 163.464 228.805 164.148 228.805 164.148L228.712 171.145C228.712 171.145 216.853 173.035 217.497 167.698C217.56 167.225 217.734 166.772 218.006 166.377C218.277 165.983 218.639 165.656 219.06 165.425L219.049 165.415Z" fill="black"/>
        <path d="M225.159 164.015C223.767 163.434 222.476 162.638 221.337 161.655C221.19 161.529 221.084 161.363 221.034 161.177C220.983 160.992 220.991 160.795 221.055 160.614C221.119 160.432 221.237 160.274 221.393 160.16C221.549 160.046 221.736 159.981 221.93 159.974C223.41 159.936 225.405 159.998 227.07 160.443C230.136 161.263 225.159 164.015 225.159 164.015Z" fill="#F4C25D"/>
        <path d="M246.492 194.093C247.849 193.658 249.175 193.134 250.461 192.522C252.435 191.597 254.347 190.548 256.186 189.381C257.796 188.386 259.352 187.306 260.847 186.147C271.956 177.493 267.912 172.011 267.912 172.011C267.912 172.011 264.72 167.001 263.207 164.909C261.114 162.025 257.851 157.843 254.184 154.332C252.495 152.72 250.406 151.578 248.128 151.023C245.851 150.468 243.465 150.518 241.214 151.17C237.945 152.111 234.873 153.624 232.141 155.636C230.603 156.767 229.183 158.049 227.903 159.462L227.87 159.5C226.305 161.228 225.228 163.334 224.747 165.606C224.267 167.879 224.4 170.237 225.134 172.442C225.731 174.073 226.417 175.672 227.188 177.231C229.731 182.593 233.671 189.877 235.289 192.408C235.276 192.419 237.715 196.841 246.492 194.093Z" fill="white"/>
        <path d="M250.456 192.527C252.43 191.602 254.342 190.553 256.18 189.386C257.791 188.391 259.347 187.311 260.841 186.152C271.951 177.498 267.907 172.016 267.907 172.016C267.907 172.016 264.714 167.006 263.202 164.914C263.202 164.914 253.615 169.437 255.947 177.134C256.157 177.795 256.276 178.481 256.301 179.173C256.46 184.826 248.576 185.158 250.417 192.362C250.426 192.418 250.439 192.473 250.456 192.527Z" fill="black"/>
        <path d="M227.18 177.242C229.786 173.177 226.076 168.041 230.665 165.17C236.132 161.743 232.139 155.64 232.139 155.64C230.601 156.772 229.181 158.054 227.901 159.467L227.868 159.505C226.303 161.232 225.226 163.339 224.746 165.611C224.265 167.884 224.398 170.241 225.132 172.446C225.727 174.08 226.411 175.681 227.18 177.242Z" fill="black"/>
        <path d="M242.381 188.979L244.473 192.267C244.969 193.047 245.668 193.678 246.497 194.094C249.122 193.27 252.319 191.804 256.191 189.382C257.802 188.387 259.358 187.308 260.852 186.148L256.878 179.909C256.711 179.645 256.52 179.397 256.306 179.169C255.481 178.286 254.371 177.715 253.167 177.557C251.963 177.398 250.741 177.661 249.712 178.301L244 181.874C242.837 182.605 242.014 183.764 241.71 185.095C241.407 186.427 241.648 187.823 242.381 188.979Z" fill="#F6CBCA"/>
        <path d="M231.496 174.212C232.674 174.285 233.688 173.397 233.761 172.23C233.835 171.063 232.939 170.058 231.761 169.985C230.583 169.913 229.569 170.8 229.496 171.968C229.423 173.135 230.318 174.14 231.496 174.212Z" fill="black"/>
        <path d="M245.993 165.143C247.171 165.215 248.185 164.328 248.259 163.161C248.332 161.993 247.436 160.988 246.258 160.916C245.081 160.843 244.066 161.731 243.993 162.898C243.92 164.065 244.816 165.07 245.993 165.143Z" fill="black"/>
        <path d="M235.822 176.032C234.443 173.869 234.725 170.166 238.889 167.563C243.054 164.96 246.477 166.346 247.855 168.51C249.233 170.674 248.043 172.808 243.879 175.399C239.716 177.99 237.199 178.212 235.822 176.032Z" fill="#F6CBCA"/>
        <path d="M242.98 171.348C243.323 171.134 243.362 170.585 243.067 170.123C242.773 169.661 242.256 169.46 241.914 169.674C241.571 169.888 241.532 170.437 241.826 170.899C242.121 171.362 242.637 171.563 242.98 171.348Z" fill="black"/>
        <path d="M239.35 173.614C239.693 173.4 239.732 172.851 239.437 172.389C239.143 171.926 238.626 171.725 238.283 171.939C237.941 172.154 237.902 172.702 238.196 173.165C238.49 173.627 239.007 173.828 239.35 173.614Z" fill="black"/>
        <path d="M246.323 151.615C246.323 151.615 246.585 148.716 245.909 146.289C245.859 146.103 245.754 145.936 245.606 145.81C245.459 145.684 245.276 145.605 245.082 145.585C244.889 145.564 244.694 145.601 244.522 145.693C244.351 145.784 244.212 145.925 244.123 146.097C243.454 147.403 242.843 148.369 242.531 150.049C241.957 153.146 246.323 151.615 246.323 151.615Z" fill="#F4C25D"/>
        <path d="M250.624 146.081C249.608 146.713 248.47 148.511 247.501 151.008C247.441 151.159 247.413 151.321 247.418 151.483C247.423 151.645 247.462 151.805 247.531 151.952C247.6 152.099 247.698 152.231 247.82 152.34C247.942 152.448 248.084 152.531 248.239 152.584L249.359 152.959C249.531 153.019 249.715 153.039 249.897 153.019C250.079 152.998 250.253 152.937 250.408 152.84C250.618 152.71 250.783 152.518 250.878 152.29C252.301 148.949 252.412 146.981 252.042 146.239C251.987 146.134 251.904 145.973 251.484 145.873C251.335 145.841 251.181 145.841 251.033 145.874C250.884 145.907 250.745 145.973 250.625 146.066L250.624 146.081ZM249.599 144.453C249.936 144.225 250.317 144.068 250.719 143.994C251.12 143.919 251.533 143.927 251.931 144.018C255.49 144.85 254.003 149.85 252.652 153.018C252.342 153.746 251.764 154.331 251.035 154.651C250.306 154.972 249.481 155.006 248.728 154.745L247.605 154.37C247.207 154.234 246.841 154.021 246.528 153.742C246.215 153.463 245.962 153.124 245.784 152.747C245.606 152.369 245.506 151.959 245.491 151.543C245.476 151.126 245.546 150.71 245.696 150.321C246.521 148.198 247.849 145.555 249.589 144.465L249.599 144.453Z" fill="white"/>
        <path d="M265.372 163.831C265.372 163.831 270.52 166.331 269.618 169.573C268.717 172.815 263.979 169.486 263.979 169.486L259.527 167.111L260.829 161.781C260.829 161.781 263.998 163.02 265.372 163.831Z" fill="white"/>
        <path d="M251.243 167.372L253.483 165.971C254.101 165.585 254.286 164.775 253.896 164.163L253.02 162.788C252.631 162.176 251.814 161.992 251.196 162.379L248.956 163.78C248.338 164.166 248.153 164.976 248.543 165.588L249.418 166.963C249.808 167.575 250.625 167.758 251.243 167.372Z" fill="#F7D3D2"/>
        <path d="M231.161 179.93L233.401 178.529C234.019 178.142 234.203 177.333 233.813 176.721L232.938 175.346C232.548 174.733 231.731 174.55 231.113 174.937L228.873 176.338C228.255 176.724 228.07 177.534 228.46 178.146L229.336 179.521C229.726 180.133 230.543 180.316 231.161 179.93Z" fill="#F7D3D2"/>
        <path fill-rule="evenodd" clip-rule="evenodd" d="M264.287 179.896L251.665 129.198L253.025 128.857L265.647 179.555L264.287 179.896Z" fill="#173A52"/>
        <path d="M339.27 -8.37493C342.887 6.59451 343.479 22.1249 341.013 37.3219C338.546 52.5188 333.07 67.082 324.9 80.1726C323.709 82.09 322.462 83.9719 321.158 85.8182C318.987 88.899 316.667 91.8764 314.198 94.7506C310.491 99.0644 306.78 103.381 303.176 107.781L286.167 127.093L218.35 143.075L194.388 133.419C189.171 131.098 183.898 128.898 178.624 126.702C175.108 125.242 171.683 123.617 168.349 121.829C166.35 120.763 164.384 119.641 162.451 118.463C149.211 110.419 137.709 99.8594 128.604 87.3921C119.5 74.9248 112.974 60.7961 109.403 45.8196C94.3055 -17.0358 133.436 -80.0957 196.81 -95.1345C260.13 -110.159 324.196 -71.1449 339.27 -8.37493Z" fill="url(#paint0_linear_626_1552)"/>
        <path d="M339.27 -8.37493C342.887 6.59451 343.479 22.1249 341.013 37.3219C338.546 52.5188 333.07 67.082 324.9 80.1726C323.709 82.09 322.462 83.9719 321.158 85.8182C318.987 88.899 316.667 91.8764 314.198 94.7506C310.491 99.0644 306.78 103.381 303.176 107.781L286.167 127.093L218.35 143.075L194.388 133.419C189.171 131.098 183.898 128.898 178.624 126.702C175.108 125.242 171.683 123.617 168.349 121.829C166.35 120.763 164.384 119.641 162.451 118.463C149.211 110.419 137.709 99.8594 128.604 87.3921C119.5 74.9248 112.974 60.7961 109.403 45.8196C94.3055 -17.0358 133.436 -80.0957 196.81 -95.1345C260.13 -110.159 324.196 -71.1449 339.27 -8.37493Z" fill="#136E90"/>
        <path opacity="0.1" d="M339.274 -8.37453C342.891 6.59536 343.483 22.1264 341.017 37.324C338.551 52.5215 333.074 67.0852 324.903 80.176C323.712 82.0935 322.465 83.9753 321.161 85.8216C318.995 88.9029 316.675 91.8804 314.201 94.754C310.497 99.0682 306.784 103.381 303.182 107.788L286.171 127.096L218.354 143.079L194.391 133.425C193.103 132.854 191.818 132.286 190.527 131.717C269.937 100.507 316.267 15.4619 295.917 -69.3208C295.422 -71.3886 294.89 -73.4397 294.321 -75.474C316.877 -59.113 332.814 -35.3246 339.274 -8.37453Z" fill="black"/>
        <path d="M230.326 187.603L295.699 172.2L302.056 198.691C302.565 200.813 302.203 203.049 301.049 204.906C299.895 206.763 298.043 208.09 295.902 208.595L246.678 220.193C244.536 220.697 242.28 220.338 240.406 219.194C238.532 218.051 237.193 216.216 236.683 214.094L230.326 187.603Z" fill="#005271"/>
        <path opacity="0.1" d="M295.711 172.181L301.838 197.756C302.119 198.926 302.164 200.14 301.972 201.327C301.78 202.515 301.353 203.654 300.716 204.678C300.08 205.703 299.246 206.593 298.262 207.298C297.279 208.003 296.165 208.509 294.984 208.787L261.442 216.691C268.665 211.799 274.781 205.47 279.401 198.108C284.021 190.746 287.043 182.511 288.276 173.927L295.711 172.181Z" fill="black"/>
        <g opacity="0.2">
            <path d="M228.557 2.72641L205.924 7.50342L209.571 24.4693L232.205 19.6923L228.557 2.72641Z" fill="black"/>
            <path d="M187.661 14.5814L183.836 -2.91243L154.845 41.6998L165.516 48.6721L187.661 14.5814ZM269.534 -14.4026C263.79 -27.5361 251.205 -35.5797 249.778 -36.463L218.762 -56.6448L207.374 -39.1251L206.584 -37.8814L210.409 -20.3928L222.524 -39.0592L240.165 -27.5835L242.857 -25.8355L243.049 -25.7173C243.085 -25.7119 244.225 -24.9822 245.9 -23.707C249.319 -21.0827 254.932 -15.9868 257.843 -9.37972C262.155 0.490894 265.816 12.2842 257.48 29.3953L261.422 47.4692C262.308 46.3032 262.842 45.4892 263.036 45.1937C271.158 32.9418 275.143 21.476 275.264 10.0874C275.354 0.234261 272.429 -7.82458 269.534 -14.4026ZM204.326 56.0656L203.897 55.9603L203.697 55.9311C202.444 55.585 201.222 55.1362 200.044 54.5895C198.952 54.1164 197.599 53.4831 195.968 52.6389C193.478 51.3614 190.369 49.6107 186.499 47.202L177.773 41.5017L170.854 52.1508L179.528 57.8166L179.644 57.8973C192.973 66.1932 199.292 68.0257 201.558 68.4263C208.864 70.2279 216.447 70.6565 223.913 69.6899C227.343 69.2231 230.72 68.4315 233.997 67.3259L234.782 67.0532L232.051 54.525C224.783 57.4125 215.541 58.7685 204.326 56.0656Z" fill="black"/>
            <path d="M201.677 -30.3612L217.962 44.2933L201.433 47.8331L188.725 -10.4312L190.026 -12.4341L190.727 -13.5051L194.635 -19.5285L197.291 -23.6112L198.153 -24.94L200.808 -29.0227L201.677 -30.3612Z" fill="black"/>
            <path d="M239.951 -21.0785L256.183 53.4249L255.989 53.6141C255.356 54.265 254.636 54.9243 253.889 55.5902C253.646 55.815 253.392 56.0486 253.135 56.2606C252.465 56.8493 251.756 57.4359 251.008 58.0204C250.323 58.5679 249.606 59.1109 248.858 59.6493C248.45 59.9401 248.037 60.2302 247.612 60.5291C247.069 60.901 246.499 61.2743 245.913 61.6452C245.458 61.9344 244.987 62.216 244.505 62.5012C243.556 63.0704 242.559 63.6202 241.516 64.1508L240.751 64.5328L222.874 -17.4172L239.951 -21.0785Z" fill="black"/>
        </g>
        <path fill-rule="evenodd" clip-rule="evenodd" d="M128.026 -20.0956C129.202 -19.5664 129.727 -18.1838 129.198 -17.0073C122.692 -2.54339 120.508 13.3206 122.887 28.7648C123.083 30.0397 122.209 31.2324 120.934 31.4288C119.659 31.6252 118.466 30.7508 118.27 29.4758C115.752 13.1269 118.067 -3.64876 124.938 -18.9237C125.467 -20.1001 126.85 -20.6248 128.026 -20.0956Z" fill="white"/>
        <path d="M124.777 37.714C124.777 39.1118 123.644 40.2449 122.246 40.2449C120.848 40.2449 119.715 39.1118 119.715 37.714C119.715 36.3162 120.848 35.1831 122.246 35.1831C123.644 35.1831 124.777 36.3162 124.777 37.714Z" fill="white"/>
        <g opacity="0.85">
            <path d="M262.513 228.951C262.513 254.005 282.823 274.314 307.876 274.314C332.929 274.314 353.239 254.005 353.239 228.951C353.239 203.898 332.929 183.588 307.876 183.588C282.823 183.588 262.513 203.898 262.513 228.951Z" fill="white"/>
            <path d="M326.559 237.645C326.559 250.671 337.119 261.231 350.145 261.231C363.171 261.231 373.73 250.671 373.73 237.645C373.73 224.619 363.171 214.06 350.145 214.06C337.119 214.06 326.559 224.619 326.559 237.645Z" fill="white"/>
            <path d="M210.18 234.891C210.18 254.477 226.251 270.355 246.075 270.355C265.899 270.355 281.969 254.477 281.969 234.891C281.969 215.304 265.899 199.426 246.075 199.426C226.251 199.426 210.18 215.304 210.18 234.891Z" fill="white"/>
            <path d="M180.573 250.729C180.573 263.755 191.132 274.314 204.158 274.314C217.184 274.314 227.743 263.755 227.743 250.729C227.743 237.703 217.184 227.144 204.158 227.144C191.132 227.144 180.573 237.703 180.573 250.729Z" fill="white"/>
            <path d="M392.149 261.145C392.149 250.638 383.632 242.121 373.125 242.121L177.383 242.121C166.877 242.121 158.36 250.638 158.36 261.145C158.36 271.651 166.877 280.168 177.383 280.168L373.125 280.168C383.632 280.168 392.149 271.651 392.149 261.145Z" fill="white"/>
        </g>
        <path d="M267.184 238.294C267.184 263.348 287.494 283.657 312.548 283.657C337.601 283.657 357.911 263.348 357.911 238.294C357.911 213.241 337.601 192.931 312.548 192.931C287.494 192.931 267.184 213.241 267.184 238.294Z" fill="white"/>
        <path d="M214.852 244.234C214.852 263.82 230.922 279.698 250.746 279.698C270.57 279.698 286.641 263.82 286.641 244.234C286.641 224.647 270.57 208.769 250.746 208.769C230.922 208.769 214.852 224.647 214.852 244.234Z" fill="white"/>
        <path d="M185.244 260.072C185.244 273.098 195.803 283.657 208.829 283.657C221.855 283.657 232.415 273.098 232.415 260.072C232.415 247.046 221.855 236.486 208.829 236.486C195.803 236.486 185.244 247.046 185.244 260.072Z" fill="white"/>
        <path d="M396.82 270.488C396.82 259.981 388.303 251.464 377.797 251.464L182.055 251.464C171.549 251.464 163.032 259.981 163.032 270.488C163.032 280.994 171.549 289.511 182.055 289.511L377.797 289.511C388.303 289.511 396.82 280.994 396.82 270.488Z" fill="white"/>
        <g opacity="0.75">
            <path d="M17.4494 49.5948C17.4494 58.9256 9.88523 66.4898 0.554394 66.4898C-8.77644 66.4898 -16.3406 58.9256 -16.3406 49.5948C-16.3406 40.264 -8.77644 32.6998 0.554394 32.6998C9.88523 32.6998 17.4494 40.264 17.4494 49.5948Z" fill="white"/>
            <path d="M36.942 51.8067C36.942 59.1014 30.9567 65.0149 23.5735 65.0149C16.1902 65.0149 10.205 59.1014 10.205 51.8067C10.205 44.512 16.1902 38.5985 23.5735 38.5985C30.9567 38.5985 36.942 44.512 36.942 51.8067Z" fill="white"/>
            <path d="M47.9691 57.7056C47.9691 62.5569 44.0363 66.4897 39.185 66.4897C34.3337 66.4897 30.4009 62.5569 30.4009 57.7056C30.4009 52.8543 34.3337 48.9215 39.185 48.9215C44.0363 48.9215 47.9691 52.8543 47.9691 57.7056Z" fill="white"/>
            <path d="M-30.8303 61.5847C-30.8303 57.6718 -27.6583 54.4998 -23.7453 54.4998L49.1563 54.4998C53.0692 54.4998 56.2413 57.6718 56.2413 61.5847C56.2413 65.4977 53.0692 68.6697 49.1563 68.6697L-23.7453 68.6697C-27.6583 68.6697 -30.8303 65.4977 -30.8303 61.5847Z" fill="white"/>
        </g>
        <path d="M102.187 191.991L86.594 226.283C86.2415 227.057 85.6052 227.656 84.8248 227.95C84.0444 228.244 83.1836 228.209 82.4315 227.851L65.3746 219.728C65.0022 219.55 64.6678 219.299 64.3905 218.989C64.1131 218.678 63.8983 218.314 63.7582 217.918C63.6181 217.522 63.5556 217.1 63.5741 216.678C63.5927 216.256 63.6919 215.842 63.8662 215.459L79.4594 181.166C82.4008 174.715 93.3323 164.259 99.6061 167.251C105.88 170.242 105.116 185.531 102.187 191.991Z" fill="#173A52"/>
        <path d="M67.0908 220.546L80.8224 227.086L81.6229 230.227C81.6694 230.411 81.6641 230.604 81.6076 230.785C81.5511 230.966 81.4456 231.127 81.3036 231.25C81.1616 231.372 80.9889 231.45 80.8056 231.475C80.6223 231.501 80.4359 231.472 80.2684 231.392L64.2274 223.754C64.0602 223.674 63.9188 223.546 63.8197 223.386C63.7206 223.227 63.6679 223.041 63.6677 222.851C63.6676 222.661 63.7201 222.475 63.8189 222.314C63.9178 222.153 64.0591 222.025 64.2262 221.943L67.0908 220.546Z" fill="#173A52"/>
        <path d="M74.5538 178.831L58.961 213.121C58.7871 213.504 58.5413 213.849 58.2379 214.136C57.9345 214.422 57.5794 214.645 57.1928 214.791C56.8062 214.937 56.3957 215.003 55.9848 214.986C55.574 214.969 55.1707 214.869 54.7982 214.691L37.744 206.568C36.9919 206.21 36.4102 205.559 36.1269 204.759C35.8435 203.958 35.8817 203.073 36.2329 202.299L51.8261 168.006C54.7675 161.555 65.6989 151.099 71.9727 154.091C78.2465 157.082 77.4839 172.36 74.5538 178.831Z" fill="#173A52"/>
        <path d="M39.4573 207.386L53.1976 213.924L54.0004 217.069C54.046 217.252 54.04 217.446 53.983 217.627C53.9259 217.807 53.8202 217.968 53.6782 218.09C53.5361 218.212 53.3635 218.29 53.1803 218.316C52.9971 218.341 52.8108 218.313 52.6432 218.234L36.594 210.594C36.4268 210.514 36.2853 210.386 36.1862 210.226C36.0871 210.067 36.0344 209.881 36.0343 209.691C36.0342 209.501 36.0866 209.315 36.1855 209.154C36.2844 208.993 36.4257 208.865 36.5928 208.783L39.4573 207.386Z" fill="#173A52"/>
        <path fill-rule="evenodd" clip-rule="evenodd" d="M68.3608 156.893C68.4998 157.254 68.3198 157.659 67.9588 157.797C65.3568 158.792 63.0742 160.519 61.3745 162.784C61.1426 163.093 60.7036 163.154 60.394 162.921C60.0845 162.688 60.0216 162.248 60.2536 161.939C62.1087 159.467 64.6041 157.577 67.4555 156.487C67.8165 156.349 68.2218 156.531 68.3608 156.893Z" fill="white"/>
        <path d="M94.6683 223.487L104.773 228.301L102.415 233.486C102.204 233.95 101.822 234.311 101.353 234.487C100.885 234.664 100.368 234.642 99.916 234.427L93.2134 231.234C92.7618 231.019 92.4127 230.628 92.2429 230.147C92.0731 229.667 92.0964 229.136 92.3078 228.671L94.6658 223.486L94.6683 223.487Z" fill="#4B9B3A"/>
        <path d="M120.967 216.484C120.967 216.484 121.85 226.476 116.288 228.129C110.725 229.781 111.423 219.633 111.423 219.633L111.232 213.589L119.957 207.812C119.957 207.812 120.95 213.68 120.967 216.484Z" fill="#4B9B3A"/>
        <path d="M138.591 233.004C138.553 236.457 140.728 239.281 143.441 239.3L143.372 245.559L104.025 245.277L104.094 239.015C106.801 239.033 109.034 236.241 109.075 232.789C109.115 229.337 106.938 226.513 104.226 226.494L104.294 220.232L143.641 220.517L143.572 226.779C140.866 226.757 138.621 229.548 138.591 233.004Z" fill="#E66560"/>
        <path d="M64.4623 181.468C64.4623 181.468 40.9696 209.254 81.7783 225.783C116.446 239.824 119.918 207.875 119.918 207.875C122.231 207.073 124.328 205.717 126.034 203.92C127.74 202.123 129.007 199.936 129.731 197.541C130.454 195.145 130.612 192.61 130.192 190.144C129.772 187.679 128.787 185.354 127.317 183.362L127.321 183.333C127.951 182.581 128.48 181.744 128.892 180.847C129.944 178.533 130.195 175.923 129.604 173.45C129.013 170.977 127.615 168.789 125.643 167.25C123.671 165.712 121.243 164.914 118.762 164.991C116.281 165.068 113.896 166.013 112.004 167.671L111.481 167.426L102.111 162.965L101.785 162.809C101.833 160.077 100.902 157.426 99.1686 155.361C97.4356 153.296 95.0214 151.96 92.385 151.607C89.7486 151.254 87.0737 151.91 84.8689 153.448C82.664 154.987 81.0828 157.302 80.426 159.952L80.4041 159.949C77.7799 159.672 75.1275 160.095 72.7028 161.176C70.278 162.258 68.1627 163.961 66.5608 166.123C64.9588 168.285 63.9243 170.832 63.557 173.518C63.1896 176.204 63.5019 178.939 64.4635 181.46L64.4623 181.468Z" fill="#49B236"/>
        <path d="M58.9708 206.485L68.4234 210.988L66.0139 216.286C65.8162 216.721 65.4588 217.058 65.0204 217.223C64.5819 217.388 64.0983 217.368 63.676 217.167L57.4059 214.18C56.9835 213.979 56.657 213.613 56.4981 213.163C56.3392 212.714 56.3611 212.217 56.5588 211.782L58.9683 206.484L58.9708 206.485Z" fill="#49B236"/>
        <path d="M105.937 214.192L99.0682 229.307C94.4078 229.563 88.7164 228.59 81.7841 225.781C74.152 222.697 68.7728 219.213 65.0626 215.594L72.8633 198.438C73.863 196.253 75.6631 194.559 77.8699 193.728C80.0767 192.897 82.5102 192.996 84.6381 194.004L101.679 202.12C103.8 203.14 105.437 204.982 106.235 207.243C107.033 209.505 106.926 212.003 105.937 214.192Z" fill="#9CD43D"/>
        <path d="M116.666 184.213C118.656 184.501 120.503 183.075 120.791 181.03C121.08 178.984 119.7 177.093 117.71 176.806C115.72 176.519 113.873 177.944 113.585 179.99C113.296 182.035 114.676 183.926 116.666 184.213Z" fill="black"/>
        <path d="M90.2238 171.621C92.2139 171.908 94.0608 170.483 94.3492 168.437C94.6375 166.392 93.2579 164.501 91.2679 164.214C89.2778 163.926 87.4308 165.352 87.1425 167.397C86.8542 169.442 88.2337 171.334 90.2238 171.621Z" fill="black"/>
        <path d="M99.3746 176.171L107.088 179.843C107.463 180.02 107.787 180.292 108.031 180.633C108.276 180.974 108.432 181.373 108.487 181.793C108.541 182.214 108.491 182.642 108.342 183.038C108.193 183.435 107.95 183.786 107.634 184.061C106.026 185.439 103.542 186.47 100.123 184.842C96.7037 183.214 95.8757 180.605 95.8724 178.453C95.8752 178.029 95.9818 177.613 96.1822 177.242C96.3827 176.871 96.6706 176.557 97.0195 176.33C97.3684 176.102 97.767 175.969 98.1785 175.941C98.5901 175.913 99.0014 175.992 99.3746 176.171Z" fill="white"/>
        <path d="M126.922 196.202C128.348 193.066 126.901 189.283 123.689 187.753C120.478 186.223 116.718 187.526 115.292 190.662C113.865 193.799 115.312 197.582 118.524 199.111C121.736 200.641 125.496 199.339 126.922 196.202Z" fill="#9CD43D"/>
        <path d="M86.0164 176.719C87.4428 173.582 85.9956 169.799 82.784 168.27C79.5724 166.74 75.8125 168.042 74.3862 171.179C72.9598 174.315 74.407 178.098 77.6186 179.628C80.8302 181.158 84.59 179.855 86.0164 176.719Z" fill="#9CD43D"/>
        <path d="M86.7903 220.817C86.6925 220.771 86.6046 220.705 86.5319 220.624C86.4591 220.542 86.4029 220.447 86.3665 220.343L84.607 215.364C84.5666 215.164 84.5977 214.956 84.6946 214.777C84.7915 214.598 84.9477 214.461 85.1346 214.39C85.3215 214.319 85.5266 214.32 85.7125 214.392C85.8984 214.464 86.0526 214.602 86.1469 214.782L87.9088 219.763C87.9596 219.919 87.9652 220.087 87.9249 220.247C87.8845 220.406 87.8 220.551 87.6816 220.662C87.5631 220.774 87.4159 220.848 87.2577 220.875C87.0995 220.902 86.9371 220.882 86.7903 220.817Z" fill="#49B236"/>
        <path d="M83.4916 219.243C83.348 219.17 83.2283 219.056 83.1469 218.914C83.0656 218.773 83.0262 218.61 83.0334 218.445C83.0407 218.28 83.0944 218.121 83.1879 217.987C83.2814 217.853 83.4107 217.749 83.5602 217.689L88.4172 215.86C88.522 215.801 88.6378 215.766 88.7567 215.757C88.8757 215.748 88.995 215.766 89.1065 215.809C89.2179 215.852 89.319 215.919 89.4027 216.006C89.4863 216.093 89.5507 216.197 89.5913 216.312C89.6319 216.427 89.6479 216.55 89.638 216.672C89.6282 216.794 89.5928 216.913 89.5343 217.02C89.4758 217.127 89.3955 217.219 89.299 217.292C89.2025 217.364 89.092 217.414 88.9751 217.439L84.1204 219.271C83.9151 219.347 83.6891 219.337 83.4916 219.243Z" fill="#49B236"/>
        <g opacity="0.85">
            <path d="M50.8957 217.406L38.3054 211.408L19.047 253.756L31.6372 259.754L50.8957 217.406Z" fill="white"/>
            <path d="M78.4731 230.542L65.8828 224.545L46.6244 266.893L59.2146 272.891L78.4731 230.542Z" fill="white"/>
            <path d="M72.127 274.164C79.437 275.219 86.2214 269.983 87.2804 262.47C88.3395 254.956 83.2721 248.01 75.9622 246.955C68.6522 245.9 61.8678 251.135 60.8087 258.649C59.7497 266.162 64.8171 273.108 72.127 274.164Z" fill="white"/>
            <path d="M44.4251 262.79C51.7351 263.846 58.5195 258.61 59.5785 251.097C60.6375 243.583 55.5702 236.637 48.2602 235.582C40.9503 234.527 34.1659 239.762 33.1068 247.275C32.0478 254.789 37.1152 261.735 44.4251 262.79Z" fill="white"/>
            <path d="M23.144 246.066C30.4539 247.122 37.2383 241.886 38.2974 234.373C39.3564 226.859 34.2891 219.913 26.9791 218.858C19.6692 217.803 12.8848 223.038 11.8257 230.551C10.7667 238.065 15.834 245.011 23.144 246.066Z" fill="white"/>
            <path d="M1.06964 247.977C8.37959 249.032 15.164 243.797 16.223 236.283C17.2821 228.77 12.2147 221.824 4.90478 220.768C-2.40517 219.713 -9.18958 224.949 -10.2486 232.462C-11.3077 239.975 -6.24031 246.922 1.06964 247.977Z" fill="white"/>
            <path d="M4.17515 267.371C7.17607 267.804 9.96125 265.655 10.396 262.571C10.8308 259.486 8.7505 256.634 5.74958 256.201C2.74865 255.768 -0.0365305 257.917 -0.471297 261.002C-0.906064 264.086 1.17422 266.938 4.17515 267.371Z" fill="white"/>
            <path d="M21.9549 271.898C32.9327 273.482 43.1212 265.62 44.7116 254.337C46.302 243.053 38.6921 232.622 27.7144 231.037C16.7366 229.452 6.54811 237.315 4.95768 248.598C3.36726 259.881 10.9772 270.313 21.9549 271.898Z" fill="white"/>
            <path d="M50.0058 286.287C60.9836 287.872 71.1721 280.009 72.7625 268.726C74.3529 257.443 66.743 247.011 55.7653 245.426C44.7875 243.842 34.599 251.704 33.0086 262.987C31.4182 274.271 39.0281 284.702 50.0058 286.287Z" fill="white"/>
        </g>
        <path fill-rule="evenodd" clip-rule="evenodd" d="M123.663 209.335C123.518 211.006 122.047 212.239 120.377 212.088L56.0072 206.289C54.3373 206.138 53.1011 204.662 53.2461 202.991C53.3911 201.32 54.8623 200.087 56.5322 200.237L120.902 206.037C122.572 206.187 123.808 207.664 123.663 209.335Z" fill="#015271"/>
        <path fill-rule="evenodd" clip-rule="evenodd" d="M60.4901 180.252C61.5989 178.997 63.5169 178.883 64.7739 179.997L113.341 223.036C114.598 224.15 114.718 226.07 113.609 227.325C112.501 228.579 110.583 228.693 109.326 227.579L60.7583 184.541C59.5013 183.427 59.3812 181.507 60.4901 180.252Z" fill="#015271"/>
        <path d="M53.5641 187.593C53.5641 187.593 48.2224 179.215 52.3925 175.081C56.5626 170.947 60.5875 180.224 60.5875 180.224L63.5153 185.457L58.4284 194.75C58.4284 194.75 54.8499 190.059 53.5641 187.593Z" fill="#49B236"/>
        <path d="M89.311 272.754C94.6909 273.531 99.6841 269.678 100.464 264.148C101.243 258.618 97.5135 253.506 92.1336 252.729C86.7536 251.953 81.7605 255.806 80.9811 261.336C80.2016 266.865 83.9311 271.978 89.311 272.754Z" fill="white"/>
        <path d="M-6.49985 230.883C6.07659 232.698 17.7489 223.691 19.5709 210.764C21.3929 197.838 12.6748 185.887 0.0983333 184.071C-12.4781 182.256 -24.1504 191.263 -25.9724 204.19C-27.7945 217.116 -19.0763 229.067 -6.49985 230.883Z" fill="white"/>
        <path d="M16.7372 246.58C25.2896 247.815 33.2258 241.698 34.4634 232.918C35.7009 224.139 29.7711 216.02 21.2188 214.786C12.6664 213.551 4.73017 219.668 3.49262 228.448C2.25507 237.228 8.18489 245.346 16.7372 246.58Z" fill="white"/>
        <path d="M2.36953 247.505C7.97799 248.314 13.1832 244.297 13.9958 238.533C14.8083 232.768 10.9204 227.439 5.31199 226.629C-0.296467 225.82 -5.50171 229.836 -6.31425 235.601C-7.12678 241.366 -3.23892 246.695 2.36953 247.505Z" fill="white"/>
        <path d="M7.47828 277.991C17.4563 279.431 26.717 272.285 28.1626 262.029C29.6082 251.773 22.6913 242.292 12.7132 240.851C2.73517 239.411 -6.52552 246.557 -7.97111 256.813C-9.4167 267.069 -2.49977 276.551 7.47828 277.991Z" fill="white"/>
        <path d="M-0.574599 261.013C2.0624 261.393 4.50982 259.505 4.89186 256.794C5.2739 254.084 3.4459 251.578 0.808894 251.198C-1.82811 250.817 -4.27553 252.706 -4.65757 255.416C-5.03961 258.126 -3.2116 260.632 -0.574599 261.013Z" fill="white"/>
        <path d="M14.7937 265.15C17.4307 265.53 19.8781 263.642 20.2601 260.931C20.6422 258.221 18.8142 255.715 16.1772 255.334C13.5402 254.954 11.0928 256.842 10.7107 259.553C10.3287 262.263 12.1567 264.769 14.7937 265.15Z" fill="white"/>
        <path d="M38.0777 275.202C46.8049 276.461 54.7823 271.079 55.8957 263.181C57.009 255.282 50.8367 247.857 42.1095 246.598C33.3822 245.338 25.4048 250.72 24.2915 258.618C23.1781 266.517 29.3504 273.942 38.0777 275.202Z" fill="white"/>
        <path d="M32.1404 259.929C37.9362 260.766 43.3153 256.615 44.155 250.657C44.9946 244.7 40.9769 239.193 35.1811 238.356C29.3853 237.519 24.0062 241.67 23.1665 247.628C22.3268 253.585 26.3446 259.092 32.1404 259.929Z" fill="white"/>
        <path d="M49.7932 254.665C54.5019 255.345 58.8574 252.077 59.5214 247.366C60.1855 242.655 56.9066 238.285 52.1978 237.605C47.4891 236.925 43.1336 240.193 42.4695 244.904C41.8055 249.615 45.0844 253.985 49.7932 254.665Z" fill="white"/>
        <path d="M54.9803 271.257C60.3818 272.036 65.3779 268.288 66.1397 262.884C66.9014 257.48 63.1401 252.467 57.7387 251.687C52.3373 250.907 47.3411 254.656 46.5794 260.06C45.8177 265.464 49.5789 270.477 54.9803 271.257Z" fill="white"/>
        <path d="M27.151 275.369C35.8668 276.627 43.9288 270.578 45.1579 261.858C46.387 253.138 40.3178 245.049 31.602 243.791C22.8862 242.533 14.8243 248.582 13.5952 257.302C12.3661 266.022 18.4353 274.111 27.151 275.369Z" fill="white"/>
        <path d="M68.3258 269.845C77.0797 271.108 85.2043 264.839 86.4725 255.841C87.7408 246.843 81.6724 238.525 72.9185 237.261C64.1646 235.998 56.04 242.267 54.7718 251.265C53.5035 260.262 59.5719 268.581 68.3258 269.845Z" fill="white"/>
    </g>
    <defs>
        <linearGradient id="paint0_linear_626_1552" x1="130.092" y1="-26.8236" x2="310.895" y2="130.954" gradientUnits="userSpaceOnUse">
            <stop offset="0.0752592" stop-color="#FFE36C"/>
            <stop offset="0.34375" stop-color="#E0EA71"/>
            <stop offset="0.512785" stop-color="#CCEE74"/>
            <stop offset="0.945102" stop-color="#6DD1E1"/>
        </linearGradient>
    </defs>
</svg>
