<svg width="284" height="248" viewBox="0 0 284 248" fill="none" xmlns="http://www.w3.org/2000/svg">
<mask id="mask0_784_225" style="mask-type:alpha" maskUnits="userSpaceOnUse" x="25" y="34" width="234" height="180">
<rect x="25" y="34" width="234" height="180" rx="10" fill="#C4C4C4"/>
</mask>
<g mask="url(#mask0_784_225)">
<path d="M11.0857 152.244C38.0078 156.131 62.9943 136.849 66.8947 109.177C70.7951 81.5057 52.1323 55.9229 25.2103 52.0366C-1.71179 48.1502 -26.6983 67.432 -30.5987 95.1036C-34.4991 122.775 -15.8364 148.358 11.0857 152.244Z" fill="white"/>
<path d="M60.8286 185.848C79.1364 188.491 96.1254 175.397 98.7745 156.602C101.424 137.808 88.7299 120.429 70.4222 117.786C52.1144 115.143 35.1254 128.237 32.4762 147.032C29.8271 165.827 42.5208 183.205 60.8286 185.848Z" fill="white"/>
<path d="M30.0721 187.826C42.078 189.56 53.2207 180.961 54.9601 168.621C56.6995 156.281 48.3768 144.872 36.371 143.139C24.3651 141.406 13.2224 150.005 11.483 162.345C9.74362 174.685 18.0663 186.093 30.0721 187.826Z" fill="white"/>
<path d="M41.0083 253.088C62.368 256.171 82.1921 240.873 85.2867 218.919C88.3812 196.964 73.5743 176.667 52.2146 173.584C30.8549 170.501 11.0307 185.799 7.93621 207.753C4.84168 229.707 19.6486 250.005 41.0083 253.088Z" fill="white"/>
<path d="M23.7698 216.743C29.4147 217.558 34.6539 213.515 35.4717 207.713C36.2895 201.911 32.3763 196.547 26.7314 195.732C21.0864 194.917 15.8473 198.96 15.0295 204.762C14.2117 210.564 18.1248 215.928 23.7698 216.743Z" fill="white"/>
<path d="M56.6681 225.599C62.3131 226.414 67.5522 222.371 68.37 216.568C69.1879 210.766 65.2747 205.402 59.6298 204.587C53.9848 203.772 48.7457 207.815 47.9279 213.618C47.11 219.42 51.0232 224.784 56.6681 225.599Z" fill="white"/>
</g>
</svg>
