<svg width="284" height="248" viewBox="0 0 284 248" fill="none" xmlns="http://www.w3.org/2000/svg">
<mask id="mask0_784_224" style="mask-type:alpha" maskUnits="userSpaceOnUse" x="25" y="34" width="234" height="180">
<rect x="25" y="34" width="234" height="180" rx="10" fill="#C4C4C4"/>
</mask>
<g mask="url(#mask0_784_224)">
<path d="M142.695 238.672C154.257 240.341 164.952 232.317 166.583 220.748C168.214 209.18 160.162 198.449 148.599 196.78C137.037 195.111 126.342 203.136 124.711 214.704C123.08 226.272 131.132 237.003 142.695 238.672Z" fill="white"/>
<path d="M216.185 241.878C227.702 243.54 238.391 235.292 240.059 223.455C241.728 211.617 233.744 200.674 222.227 199.011C210.711 197.349 200.022 205.597 198.354 217.434C196.685 229.272 204.669 240.215 216.185 241.878Z" fill="white"/>
<path d="M106.511 247.117C125.194 249.814 142.271 238.293 144.654 221.384C147.037 204.475 133.824 188.582 115.142 185.885C96.46 183.188 79.3831 194.709 76.9997 211.618C74.6164 228.526 87.8292 244.42 106.511 247.117Z" fill="white"/>
<path d="M93.8018 214.423C106.209 216.214 117.724 207.328 119.521 194.576C121.319 181.823 112.718 170.034 100.311 168.243C87.9042 166.452 76.3892 175.338 74.5917 188.09C72.7943 200.842 81.3949 212.632 93.8018 214.423Z" fill="white"/>
<path d="M131.591 203.154C141.671 204.609 150.994 197.614 152.416 187.529C153.837 177.444 146.818 168.089 136.738 166.634C126.658 165.179 117.335 172.175 115.913 182.26C114.492 192.344 121.511 201.699 131.591 203.154Z" fill="white"/>
<path d="M83.1213 247.475C101.779 250.168 119.037 237.22 121.668 218.553C124.299 199.886 111.307 182.571 92.6494 179.878C73.9918 177.184 56.7338 190.133 54.1027 208.8C51.4716 227.466 64.4637 244.782 83.1213 247.475Z" fill="white"/>
<path d="M171.263 235.649C190.002 238.354 207.394 224.933 210.109 205.672C212.824 186.411 199.833 168.604 181.094 165.899C162.355 163.194 144.963 176.615 142.248 195.876C139.533 215.137 152.523 232.944 171.263 235.649Z" fill="white"/>
</g>
</svg>
