<svg width="90" height="92" viewBox="0 0 90 92" fill="none" xmlns="http://www.w3.org/2000/svg">
<path d="M14.8702 24.883C14.8702 24.883 14.1916 15.9661 19.3032 14.5921C24.4148 13.2181 23.6458 22.2425 23.6458 22.2425L23.7419 27.6254L15.6844 32.6183C15.6844 32.6183 14.8532 27.3992 14.8702 24.883Z" fill="#EFD565"/>
<path d="M38.7106 70.9991L49.444 81.3896C50.0229 81.95 50.9465 81.935 51.5069 81.3561L52.1676 80.6736C52.728 80.0947 52.713 79.1712 52.1341 78.6108L41.4006 68.2202C40.8218 67.6598 39.8982 67.6748 39.3378 68.2537L38.6771 68.9362C38.1167 69.5151 38.1317 70.4387 38.7106 70.9991Z" fill="#FFBB4D"/>
<path d="M6.1967 58.3663L20.5523 60.694C21.3476 60.823 22.0969 60.2828 22.2258 59.4875L22.3779 58.5498C22.5068 57.7545 21.9666 57.0052 21.1713 56.8763L6.81572 54.5486C6.02042 54.4197 5.27116 54.9598 5.1422 55.7551L4.99016 56.6928C4.86121 57.4881 5.4014 58.2374 6.1967 58.3663Z" fill="#FFBB4D"/>
<path d="M71.7428 16.3914C65.8509 10.4996 58.4275 6.37466 50.3127 4.4833L50.2392 4.4833C46.6821 3.65155 42.9686 3.7735 39.4738 4.83684C35.979 5.90018 32.8268 7.86721 30.3358 10.5391C25.5804 15.6281 13.5479 33.8805 10.4153 39.5348C10.4153 39.5348 3.20598 50.8436 30.2848 65.8221C57.3637 80.8006 63.0238 68.6776 63.0238 68.6776C63.0238 68.6776 67.5473 60.5239 69.2888 56.8712C71.7089 51.8218 75.0224 44.1997 77.1089 36.5154C78.0625 32.9854 78.0686 29.2664 77.1265 25.7333C76.1844 22.2002 74.3274 18.978 71.7428 16.3914Z" fill="#FFE36C"/>
<path d="M35.6886 22.4614C37.528 22.4614 39.0191 20.9703 39.0191 19.131C39.0191 17.2916 37.528 15.8005 35.6886 15.8005C33.8493 15.8005 32.3582 17.2916 32.3582 19.131C32.3582 20.9703 33.8493 22.4614 35.6886 22.4614Z" fill="black"/>
<path d="M59.0763 35.4209C60.9157 35.4209 62.4067 33.9298 62.4067 32.0904C62.4067 30.2511 60.9157 28.76 59.0763 28.76C57.237 28.76 55.7459 30.2511 55.7459 32.0904C55.7459 33.9298 57.237 35.4209 59.0763 35.4209Z" fill="black"/>
<path d="M26.3208 56.7999C26.4056 56.8489 26.4994 56.8801 26.5966 56.8918C26.6938 56.9035 26.7923 56.8953 26.8863 56.8678L31.4098 55.5616C31.5877 55.4958 31.7341 55.3653 31.8198 55.1961C31.9055 55.0269 31.9241 54.8316 31.8719 54.6493C31.8197 54.467 31.7006 54.3111 31.5383 54.2129C31.3761 54.1147 31.1827 54.0814 30.997 54.1197L26.4735 55.4259C26.2826 55.4811 26.1214 55.6097 26.025 55.7834C25.9285 55.9572 25.9048 56.162 25.959 56.3532C25.9862 56.4482 26.0323 56.5367 26.0944 56.6134C26.1566 56.6902 26.2336 56.7536 26.3208 56.7999Z" fill="#FFBB4D"/>
<path d="M29.2299 58.4424C29.4033 58.5352 29.6059 58.5575 29.7953 58.5046C29.8902 58.4779 29.9789 58.4327 30.0563 58.3715C30.1336 58.3103 30.1981 58.2344 30.2459 58.1482C30.2938 58.062 30.3241 57.9671 30.335 57.8691C30.346 57.7711 30.3375 57.6719 30.3099 57.5773L29.0093 53.0538C28.9884 52.9524 28.9468 52.8564 28.8871 52.7718C28.8274 52.6872 28.7508 52.6159 28.6622 52.5623C28.5737 52.5087 28.475 52.4739 28.3723 52.4602C28.2697 52.4465 28.1654 52.4542 28.0659 52.4827C27.9663 52.5112 27.8737 52.5599 27.7939 52.6258C27.7141 52.6917 27.6487 52.7735 27.6019 52.8658C27.5552 52.9582 27.5279 53.0592 27.522 53.1626C27.5161 53.2659 27.5316 53.3694 27.5675 53.4665L28.868 57.99C28.9239 58.1828 29.0541 58.3455 29.2299 58.4424Z" fill="#FFBB4D"/>
<path d="M58.5854 47.6752C61.4365 47.6752 63.7478 45.3639 63.7478 42.5128C63.7478 39.6617 61.4365 37.3503 58.5854 37.3503C55.7342 37.3503 53.4229 39.6617 53.4229 42.5128C53.4229 45.3639 55.7342 47.6752 58.5854 47.6752Z" fill="#FFA052"/>
<path d="M27.3213 30.3552C30.1724 30.3552 32.4838 28.0439 32.4838 25.1927C32.4838 22.3416 30.1724 20.0303 27.3213 20.0303C24.4702 20.0303 22.1588 22.3416 22.1588 25.1927C22.1588 28.0439 24.4702 30.3552 27.3213 30.3552Z" fill="#FFA052"/>
<path d="M38.5074 31.3059L45.7281 35.3148C46.7218 35.8572 47.8902 35.9832 48.9767 35.6652C50.0633 35.3472 50.9793 34.6111 51.5238 33.6185C52.6547 31.566 48.1312 27.2687 46.0786 26.1321C44.0261 25.0012 37.9816 23.435 36.845 25.4819C36.5715 25.9733 36.3974 26.514 36.3329 27.0727C36.2684 27.6315 36.3147 28.1975 36.4691 28.7384C36.6235 29.2793 36.883 29.7845 37.2327 30.225C37.5825 30.6656 38.0156 31.0329 38.5074 31.3059Z" fill="#FFBB4D"/>
<path d="M62.669 9.42433C62.669 9.42433 64.6537 5.1892 63.6076 1.11804C63.581 1.02217 63.5281 0.935679 63.4548 0.868414C63.3815 0.801149 63.2908 0.755809 63.193 0.737546C63.0952 0.719283 62.9942 0.728843 62.9016 0.765121C62.809 0.801398 62.7284 0.862935 62.669 0.942752C61.3486 2.71045 59.7367 4.24019 57.9023 5.46626C57.396 5.74039 56.8371 5.90338 56.2627 5.94433C55.6884 5.98529 55.112 5.90327 54.5719 5.70375" fill="#FFE36C"/>
<path d="M57.9523 7.04391C60.7304 6.73074 63.4088 5.82443 65.8062 4.38634C65.8908 4.33264 65.989 4.30423 66.0892 4.30444C66.1894 4.30466 66.2874 4.33351 66.3718 4.38757C66.4561 4.44163 66.5233 4.51865 66.5653 4.6096C66.6074 4.70054 66.6226 4.8016 66.6091 4.90089C66.3347 6.12808 65.9013 7.31422 65.3199 8.42924C65.0583 8.96935 64.992 9.58341 65.1322 10.1669C65.2724 10.7504 65.6105 11.2673 66.0889 11.6296" fill="#FFE36C"/>
<path d="M56.7139 79.855C58.3311 82.3486 57.9579 85.4755 55.8771 86.8269L58.8117 91.3504L89.0061 71.741L86.0658 67.2175C83.985 68.5745 80.9769 67.6416 79.3541 65.148C77.7313 62.6544 78.1101 59.5275 80.1909 58.1761L77.2563 53.6526L47.0619 73.262L50.0022 77.7855C52.083 76.4341 55.0911 77.3615 56.7139 79.855Z" fill="#E66560" stroke="#45D5D9" stroke-width="0.25" stroke-miterlimit="10"/>
<path d="M72.7013 57.4227C72.7013 57.4227 75.9412 65.7517 71.4517 68.5506C66.9621 71.3495 65.0792 62.4947 65.0792 62.4947L63.4224 57.3662L69.6818 50.2473C69.6818 50.2473 72.0001 55.0253 72.7013 57.4227Z" fill="#FFE36C"/>
<path d="M20.1493 20.0469C18.1609 22.6428 15.6113 24.7556 12.6912 26.2271C9.93186 27.6577 8.73312 27.7538 7.8058 27.4994C6.19996 27.0583 4.46406 25.5034 4.55453 23.7053C4.645 21.9072 6.4431 20.2787 8.00937 20.3126C11.0967 20.3918 15.1791 27.211 13.6355 32.9954C12.3519 37.813 7.21774 41.7145 4.13045 40.7872C2.95999 40.4309 1.69906 39.2661 1.72733 38.0674C1.75561 36.8687 3.20878 35.5512 4.55453 35.4099C7.64748 35.0819 11.9901 40.4705 12.0862 45.9044C12.1653 50.5919 9.06108 53.8997 8.12811 54.844" stroke="white" stroke-width="2" stroke-linecap="round" stroke-linejoin="round"/>
</svg>
