<svg width="2252" height="492" viewBox="0 0 2252 492" fill="none" xmlns="http://www.w3.org/2000/svg">
<g clip-path="url(#clip0_2440_8812)">
<rect width="2252" height="492" fill="url(#paint0_linear_2440_8812)"/>
<rect x="16" y="-49" width="2478" height="667" fill="white" fill-opacity="0.5"/>
<path opacity="0.2" d="M288.094 -288C288.094 -288 836.201 -105.429 1145.72 -62.1914C1455.23 -18.9538 1619.91 20.6921 1555.7 84.3934C1491.49 148.095 656.052 24.2936 598.019 238.084C539.986 451.875 1588.21 261.217 1720 558.92V793H-21V-288H288.094Z" fill="white"/>
<g opacity="0.5">
<ellipse rx="173.856" ry="186.865" transform="matrix(-1 -1.23066e-09 -6.67576e-09 1 -19.9471 336.865)" fill="white"/>
<ellipse rx="90.3918" ry="97.1559" transform="matrix(-1 -1.23066e-09 -6.67576e-09 1 142.004 372.675)" fill="white"/>
<rect width="896.001" height="156.726" rx="78.3629" transform="matrix(-1 -1.23066e-09 -6.67576e-09 1 303 391.109)" fill="white"/>
</g>
<g style="mix-blend-mode:soft-light">
<path d="M77.3908 1018C77.3908 1018 556.866 751.153 827.625 687.956C1098.38 624.759 1242.44 566.813 1186.27 473.706C1130.1 380.6 399.275 561.549 348.508 249.07C297.742 -63.408 1214.71 215.259 1330 -219.867L1330 -562L-193 -562L-193 1018L77.3908 1018Z" fill="white" fill-opacity="0.75"/>
</g>
<g opacity="0.8">
<g opacity="0.8">
<path opacity="0.8" d="M2394.64 -0.34668H-7.67969V606.894H2394.64V-0.34668Z" fill="#45D5D9"/>
</g>
</g>
<g opacity="0.3">
<circle r="246.596" transform="matrix(-1 -1.23066e-09 -6.67576e-09 1 1680.8 282.596)" fill="white"/>
<circle r="128.211" transform="matrix(-1 -1.23066e-09 -6.67576e-09 1 1910.53 329.852)" fill="white"/>
<ellipse rx="195.124" ry="192.784" transform="matrix(-1 -1.23066e-09 -6.67576e-09 1 1344.82 314.884)" fill="white"/>
<circle r="128.211" transform="matrix(-1 -1.23066e-09 -6.67576e-09 1 1116.93 400.983)" fill="white"/>
<rect width="1270.88" height="206.822" rx="100" transform="matrix(-1 -1.23066e-09 -6.67576e-09 1 2138.88 354.178)" fill="white"/>
</g>
<g opacity="0.8">
<circle r="158.609" transform="matrix(-1 -1.23066e-09 -6.67576e-09 1 1616.81 399.609)" fill="white"/>
<circle r="82.4645" transform="matrix(-1 -1.23066e-09 -6.67576e-09 1 1764.55 429.999)" fill="white"/>
<ellipse rx="125.503" ry="123.998" transform="matrix(-1 -1.23066e-09 -6.67576e-09 1 1400.68 420.376)" fill="white"/>
<circle r="82.4645" transform="matrix(-1 -1.23066e-09 -6.67576e-09 1 1254.11 475.753)" fill="white"/>
<rect width="817.422" height="133.027" rx="66.5133" transform="matrix(-1 -1.23066e-09 -6.67576e-09 1 1911.42 445.653)" fill="white"/>
</g>
<path d="M2550.84 220.856C2566.25 284.615 2568.77 350.763 2558.26 415.492C2547.76 480.22 2524.44 542.248 2489.64 598.005C2484.56 606.172 2479.25 614.187 2473.7 622.051C2464.45 635.173 2454.57 647.855 2444.05 660.097C2428.26 678.471 2412.46 696.855 2397.11 715.597L2324.66 797.851L2035.81 865.926L1933.75 824.796C1911.53 814.91 1889.07 805.542 1866.61 796.187C1851.63 789.967 1837.04 783.049 1822.84 775.433C1814.33 770.892 1805.95 766.112 1797.72 761.094C1741.33 726.833 1692.33 681.857 1653.56 628.755C1614.78 575.653 1586.98 515.475 1571.77 451.686C1507.47 183.966 1674.14 -84.6236 1944.06 -148.678C2213.76 -212.67 2486.64 -46.4997 2550.84 220.856Z" fill="url(#paint1_linear_2440_8812)"/>
<path d="M2550.84 220.856C2566.25 284.615 2568.77 350.763 2558.26 415.492C2547.76 480.22 2524.44 542.248 2489.64 598.005C2484.56 606.172 2479.25 614.187 2473.7 622.051C2464.45 635.173 2454.57 647.855 2444.05 660.097C2428.26 678.471 2412.46 696.855 2397.11 715.597L2324.66 797.851L2035.81 865.926L1933.75 824.796C1911.53 814.91 1889.07 805.542 1866.61 796.187C1851.63 789.967 1837.04 783.049 1822.84 775.433C1814.33 770.892 1805.95 766.112 1797.72 761.094C1741.33 726.833 1692.33 681.857 1653.56 628.755C1614.78 575.653 1586.98 515.475 1571.77 451.686C1507.47 183.966 1674.14 -84.6236 1944.06 -148.678C2213.76 -212.67 2486.64 -46.4997 2550.84 220.856Z" fill="#136E90"/>
<path opacity="0.1" d="M2550.86 220.858C2566.27 284.619 2568.79 350.77 2558.28 415.501C2547.78 480.232 2524.45 542.263 2489.65 598.02C2484.58 606.187 2479.26 614.203 2473.71 622.067C2464.48 635.191 2454.6 647.872 2444.07 660.112C2428.29 678.487 2412.47 696.858 2397.13 715.626L2324.68 797.866L2035.82 865.941L1933.76 824.824C1928.28 822.391 1922.8 819.972 1917.3 817.55C2255.53 684.617 2452.86 322.384 2366.19 -38.7297C2364.08 -47.5373 2361.81 -56.2734 2359.39 -64.9383C2455.46 4.74801 2523.34 106.07 2550.86 220.858Z" fill="black"/>
<g opacity="0.2">
<path d="M2079.28 268.138L1982.88 288.484L1998.41 360.747L2094.81 340.4L2079.28 268.138Z" fill="black"/>
<path d="M1905.07 318.632L1888.78 244.12L1765.3 434.137L1810.74 463.834L1905.07 318.632ZM2253.79 195.18C2229.32 139.241 2175.72 104.981 2169.64 101.219L2037.53 15.2586L1989.03 89.8802L1985.66 95.1775L2001.96 169.667L2053.56 90.161L2128.7 139.039L2140.16 146.484L2140.98 146.988C2141.14 147.011 2145.99 150.119 2153.12 155.55C2167.69 166.728 2191.59 188.433 2203.99 216.574C2222.36 258.616 2237.95 308.847 2202.45 381.729L2219.24 458.71C2223.01 453.744 2225.28 450.277 2226.11 449.018C2260.7 396.834 2277.68 347.998 2278.19 299.49C2278.58 257.523 2266.12 223.198 2253.79 195.18ZM1976.05 495.325L1974.22 494.876L1973.37 494.752C1968.03 493.278 1962.83 491.366 1957.81 489.038C1953.16 487.023 1947.4 484.325 1940.45 480.73C1929.84 475.288 1916.6 467.832 1900.12 457.572L1862.95 433.293L1833.48 478.651L1870.42 502.783L1870.92 503.127C1927.69 538.461 1954.6 546.266 1964.26 547.973C1995.38 555.646 2027.67 557.472 2059.48 553.355C2074.08 551.367 2088.47 547.995 2102.42 543.286L2105.77 542.124L2094.13 488.763C2063.18 501.062 2023.81 506.837 1976.05 495.325Z" fill="black"/>
<path d="M1964.79 127.205L2034.15 445.18L1963.75 460.257L1909.62 212.092L1915.16 203.562L1918.15 199L1934.8 173.344L1946.1 155.955L1949.78 150.295L1961.09 132.906L1964.79 127.205Z" fill="black"/>
<path d="M2127.81 166.745L2196.94 484.076L2196.11 484.883C2193.42 487.655 2190.35 490.463 2187.17 493.299C2186.14 494.257 2185.05 495.251 2183.96 496.155C2181.11 498.662 2178.09 501.161 2174.9 503.65C2171.98 505.982 2168.93 508.295 2165.74 510.588C2164 511.827 2162.25 513.062 2160.44 514.335C2158.12 515.919 2155.69 517.509 2153.2 519.089C2151.26 520.321 2149.25 521.52 2147.2 522.735C2143.16 525.159 2138.91 527.501 2134.47 529.761L2131.21 531.388L2055.07 182.34L2127.81 166.745Z" fill="black"/>
</g>
<path d="M1619.37 380.557C1608.94 312.849 1618.52 243.338 1647.01 180.005" stroke="white" stroke-width="18" stroke-linecap="round" stroke-linejoin="round"/>
<circle cx="1626.48" cy="417.161" r="10.7798" fill="white"/>
<g opacity="0.85">
<path d="M761.161 572.118C839.794 562.739 895.527 489.515 885.645 408.568C875.764 327.621 804.008 269.604 725.376 278.983C646.743 288.362 591.009 361.586 600.891 442.534C610.773 523.481 682.528 581.498 761.161 572.118Z" fill="white"/>
<path d="M1050.14 780.27C1153.73 752.513 1214.29 643.601 1185.41 537.006C1156.54 430.412 1049.15 366.501 945.563 394.258C841.974 422.014 781.408 530.927 810.285 637.522C839.162 744.116 946.547 808.027 1050.14 780.27Z" fill="white"/>
<path d="M586.009 576.698C643.279 569.867 684.04 517.917 677.051 460.665C670.062 403.412 617.969 362.538 560.698 369.369C503.428 376.2 462.667 428.15 469.656 485.403C476.645 542.655 528.738 583.53 586.009 576.698Z" fill="white"/>
<path d="M174.647 572.087C199.295 575.653 222.17 557.958 225.741 532.563C229.312 507.168 212.226 483.69 187.579 480.123C162.931 476.556 140.056 494.252 136.485 519.647C132.914 545.042 150 568.52 174.647 572.087Z" fill="white"/>
<path d="M77.7115 433.223C104.062 437.036 128.518 418.118 132.336 390.968C136.154 363.818 117.887 338.717 91.5363 334.904C65.1856 331.091 40.7294 350.009 36.9118 377.159C33.0942 404.309 51.3609 429.41 77.7115 433.223Z" fill="white"/>
<path d="M71.403 420.453C88.2038 422.884 103.797 410.822 106.231 393.512C108.665 376.201 97.0183 360.197 80.2175 357.766C63.4166 355.335 47.8237 367.397 45.3896 384.708C42.9556 402.018 54.6022 418.022 71.403 420.453Z" fill="white"/>
<path d="M5.47752 378.245C46.6089 384.197 84.7831 354.667 90.7421 312.288C96.7011 269.909 68.1882 230.729 27.0569 224.777C-14.0744 218.825 -52.2487 248.355 -58.2077 290.734C-64.1666 333.113 -35.6538 372.293 5.47752 378.245Z" fill="white"/>
<path d="M38.5822 471.347C48.7005 472.811 58.0915 465.547 59.5574 455.121C61.0233 444.696 54.0091 435.058 43.8907 433.594C33.7724 432.129 24.3815 439.394 22.9155 449.819C21.4496 460.244 28.4638 469.883 38.5822 471.347Z" fill="white"/>
<path d="M97.5441 487.259C107.662 488.723 117.053 481.459 118.519 471.034C119.985 460.608 112.971 450.97 102.853 449.506C92.7343 448.041 83.3434 455.306 81.8774 465.731C80.4115 476.157 87.4257 485.795 97.5441 487.259Z" fill="white"/>
<path d="M154.247 408.969C175.371 412.026 194.869 397.617 197.798 376.787C200.727 355.956 185.978 336.591 164.854 333.535C143.73 330.478 124.231 344.887 121.302 365.717C118.373 386.548 133.123 405.912 154.247 408.969Z" fill="white"/>
<path d="M278.539 612.638C314.771 617.881 348.398 591.868 353.647 554.537C358.897 517.206 333.78 482.692 297.548 477.449C261.316 472.206 227.689 498.219 222.439 535.55C217.19 572.882 242.307 607.395 278.539 612.638Z" fill="white"/>
<path d="M191.715 671.992C239.68 678.933 284.197 644.497 291.146 595.076C298.095 545.655 264.845 499.965 216.88 493.025C168.914 486.084 124.397 520.52 117.448 569.941C110.499 619.361 143.749 665.051 191.715 671.992Z" fill="white"/>
<path d="M213.11 510.775C239.305 514.566 263.534 496.342 267.228 470.071C270.922 443.801 252.682 419.431 226.487 415.641C200.293 411.85 176.063 430.074 172.369 456.345C168.675 482.615 186.916 506.985 213.11 510.775Z" fill="white"/>
<path d="M157.632 532.09C180.36 535.378 201.383 519.566 204.588 496.772C207.793 473.978 191.967 452.834 169.239 449.545C146.511 446.256 125.488 462.068 122.283 484.862C119.077 507.656 134.904 528.801 157.632 532.09Z" fill="white"/>
<path d="M96.2714 530.236C135.466 535.907 171.72 508.639 177.247 469.331C182.774 430.023 155.482 393.559 116.287 387.888C77.0927 382.216 40.8387 409.484 35.3115 448.792C29.7843 488.101 57.077 524.564 96.2714 530.236Z" fill="white"/>
<path d="M20.2576 558.377C59.452 564.048 98.0012 520.458 106.36 461.015C114.718 401.572 89.7204 348.786 50.5259 343.114C11.3315 337.443 -27.2177 381.033 -35.5761 440.476C-43.9345 499.919 -18.9369 552.705 20.2576 558.377Z" fill="white"/>
<path d="M90.7773 680.803C140.485 687.996 186.464 653.414 193.474 603.561C200.484 553.709 165.87 507.464 116.162 500.271C66.4541 493.078 20.4751 527.661 13.4653 577.513C6.45546 627.366 41.0692 673.61 90.7773 680.803Z" fill="white"/>
<path d="M246.784 317.955L204.333 297.685L139.398 440.819L181.849 461.089L246.784 317.955Z" fill="white"/>
<path d="M339.772 362.354L297.321 342.083L203.679 548.495L246.13 568.765L339.772 362.354Z" fill="white"/>
</g>
<path d="M419.738 232.054L367.161 347.962C365.973 350.576 363.827 352.603 361.196 353.596C358.565 354.59 355.662 354.47 353.127 353.261L295.615 325.804C294.359 325.205 293.232 324.356 292.297 323.307C291.361 322.257 290.637 321.027 290.165 319.688C289.692 318.348 289.482 316.924 289.544 315.498C289.607 314.072 289.941 312.671 290.529 311.375L343.105 195.468C353.023 173.662 389.881 138.325 411.035 148.435C432.188 158.546 429.612 210.223 419.738 232.054Z" fill="#173A52"/>
<path d="M301.398 328.569L347.698 350.676L350.396 361.292C350.553 361.913 350.536 362.567 350.345 363.179C350.154 363.791 349.799 364.335 349.32 364.748C348.841 365.161 348.259 365.426 347.641 365.511C347.023 365.597 346.394 365.5 345.829 365.231L291.743 339.412C291.18 339.142 290.703 338.711 290.369 338.171C290.034 337.631 289.857 337.004 289.856 336.362C289.856 335.72 290.033 335.091 290.366 334.547C290.7 334.004 291.176 333.568 291.739 333.292L301.398 328.569Z" fill="#173A52"/>
<path d="M326.559 187.575L273.984 303.473C273.398 304.769 272.569 305.935 271.546 306.903C270.523 307.872 269.326 308.624 268.022 309.117C266.719 309.61 265.335 309.835 263.949 309.777C262.564 309.719 261.204 309.381 259.948 308.782L202.446 281.326C199.91 280.115 197.949 277.915 196.993 275.21C196.038 272.504 196.166 269.514 197.351 266.896L249.927 150.989C259.845 129.183 296.703 93.8452 317.856 103.956C339.01 114.067 336.439 165.706 326.559 187.575Z" fill="#173A52"/>
<path d="M208.223 284.088L254.551 306.189L257.258 316.816C257.412 317.437 257.392 318.091 257.199 318.702C257.007 319.313 256.651 319.856 256.172 320.268C255.693 320.68 255.11 320.945 254.493 321.031C253.875 321.117 253.247 321.021 252.682 320.754L198.568 294.931C198.004 294.66 197.527 294.23 197.193 293.69C196.859 293.15 196.681 292.522 196.681 291.88C196.681 291.239 196.857 290.609 197.191 290.066C197.524 289.522 198.001 289.087 198.564 288.81L208.223 284.088Z" fill="#173A52"/>
<path d="M280.232 131.91C286.225 123.905 294.281 117.791 303.474 114.269" stroke="white" stroke-width="3" stroke-linecap="round" stroke-linejoin="round"/>
<path d="M394.381 338.51L428.453 354.78L420.502 372.305C419.79 373.876 418.502 375.094 416.921 375.69C415.341 376.287 413.597 376.214 412.075 375.487L389.475 364.695C387.953 363.968 386.776 362.647 386.203 361.022C385.631 359.397 385.709 357.602 386.422 356.031L394.373 338.506L394.381 338.51Z" fill="#4B9B3A"/>
<path d="M483.056 314.842C483.056 314.842 486.033 348.614 467.277 354.199C448.522 359.784 450.873 325.486 450.873 325.486L450.23 305.057L479.649 285.531C479.649 285.531 482.998 305.363 483.056 314.842Z" fill="#4B9B3A"/>
<path d="M543.311 364.753C543.401 374.872 550.892 383.291 560.014 383.522L560.179 401.866L427.851 398.493L427.688 380.14C436.791 380.369 444.124 372.329 444.043 362.211C443.962 352.093 436.462 343.673 427.34 343.442L427.176 325.09L559.502 328.472L559.666 346.824C550.564 346.587 543.194 354.622 543.311 364.753Z" fill="#E66560"/>
<path d="M292.539 196.488C292.539 196.488 213.328 290.404 350.924 346.27C467.814 393.727 479.52 285.744 479.52 285.744C487.321 283.032 494.39 278.449 500.143 272.375C505.897 266.301 510.169 258.91 512.607 250.814C515.045 242.717 515.579 234.148 514.164 225.814C512.749 217.48 509.426 209.622 504.47 202.889L504.483 202.794C506.607 200.249 508.389 197.422 509.781 194.39C513.326 186.569 514.173 177.747 512.18 169.388C510.187 161.028 505.475 153.635 498.825 148.434C492.175 143.233 483.988 140.539 475.623 140.797C467.258 141.056 459.218 144.252 452.838 149.856L451.074 149.029L419.482 133.951L418.381 133.423C418.543 124.188 415.403 115.229 409.56 108.248C403.717 101.267 395.577 96.7519 386.688 95.56C377.798 94.368 368.779 96.5829 361.345 101.783C353.911 106.984 348.579 114.808 346.365 123.767L346.291 123.757C337.443 122.821 328.5 124.249 320.324 127.904C312.148 131.559 305.016 137.318 299.615 144.624C294.213 151.93 290.725 160.538 289.487 169.617C288.248 178.697 289.301 187.941 292.543 196.46L292.539 196.488Z" fill="#49B236"/>
<path d="M274.024 281.045L305.896 296.264L297.772 314.172C297.105 315.642 295.9 316.781 294.422 317.339C292.943 317.897 291.313 317.828 289.889 317.148L268.748 307.053C267.323 306.373 266.223 305.137 265.687 303.618C265.151 302.098 265.225 300.418 265.891 298.949L274.016 281.041L274.024 281.045Z" fill="#49B236"/>
<path d="M432.378 307.094L409.217 358.184C393.503 359.047 374.313 355.757 350.939 346.264C325.206 335.84 307.068 324.064 294.558 311.834L320.86 253.849C324.231 246.461 330.301 240.736 337.741 237.927C345.182 235.118 353.388 235.454 360.562 238.861L418.021 266.291C425.17 269.739 430.692 275.964 433.381 283.608C436.071 291.253 435.71 299.695 432.378 307.094Z" fill="#9CD43D"/>
<path d="M468.556 205.768C475.266 206.739 481.493 201.922 482.466 195.008C483.438 188.095 478.786 181.703 472.076 180.732C465.366 179.761 459.139 184.579 458.167 191.492C457.194 198.406 461.846 204.797 468.556 205.768Z" fill="black"/>
<path d="M379.396 163.206C386.106 164.177 392.334 159.359 393.306 152.446C394.278 145.532 389.627 139.141 382.917 138.17C376.207 137.199 369.979 142.016 369.007 148.93C368.035 155.843 372.686 162.235 379.396 163.206Z" fill="black"/>
<path d="M410.254 178.585L436.262 190.996C437.524 191.596 438.618 192.515 439.442 193.668C440.266 194.82 440.794 196.169 440.977 197.59C441.16 199.01 440.993 200.457 440.49 201.797C439.988 203.137 439.166 204.326 438.101 205.255C432.681 209.913 424.306 213.397 412.777 207.894C401.248 202.391 398.456 193.572 398.445 186.298C398.455 184.866 398.814 183.459 399.49 182.205C400.166 180.951 401.137 179.891 402.313 179.122C403.489 178.354 404.833 177.902 406.221 177.808C407.609 177.714 408.995 177.981 410.254 178.585Z" fill="white"/>
<path d="M503.131 246.29C507.941 235.688 503.061 222.903 492.233 217.732C481.404 212.561 468.727 216.963 463.917 227.564C459.108 238.166 463.987 250.952 474.816 256.122C485.645 261.293 498.322 256.891 503.131 246.29Z" fill="#9CD43D"/>
<path d="M365.21 180.437C370.019 169.835 365.14 157.05 354.311 151.879C343.482 146.708 330.805 151.11 325.996 161.711C321.186 172.313 326.066 185.098 336.895 190.269C347.723 195.44 360.401 191.038 365.21 180.437Z" fill="#9CD43D"/>
<path d="M367.823 329.484C367.493 329.329 367.196 329.107 366.951 328.832C366.706 328.557 366.516 328.235 366.394 327.883L360.461 311.056C360.325 310.381 360.43 309.676 360.756 309.071C361.083 308.467 361.61 308.003 362.24 307.764C362.87 307.524 363.562 307.527 364.188 307.77C364.815 308.012 365.335 308.48 365.653 309.086L371.594 325.924C371.765 326.451 371.784 327.019 371.648 327.558C371.512 328.098 371.227 328.585 370.828 328.962C370.428 329.339 369.932 329.589 369.398 329.682C368.865 329.775 368.318 329.706 367.823 329.484Z" fill="#49B236"/>
<path d="M356.699 324.166C356.215 323.92 355.811 323.534 355.537 323.055C355.263 322.577 355.13 322.026 355.154 321.469C355.179 320.913 355.36 320.375 355.675 319.921C355.99 319.467 356.426 319.117 356.93 318.912L373.307 312.731C373.66 312.532 374.051 312.414 374.452 312.384C374.853 312.354 375.255 312.414 375.631 312.559C376.007 312.704 376.348 312.931 376.63 313.225C376.912 313.518 377.129 313.871 377.266 314.26C377.403 314.649 377.456 315.063 377.423 315.476C377.39 315.889 377.271 316.29 377.074 316.651C376.876 317.013 376.606 317.327 376.28 317.571C375.955 317.816 375.582 317.985 375.188 318.068L358.819 324.26C358.127 324.517 357.365 324.484 356.699 324.166Z" fill="#49B236"/>
<path d="M273.216 270.512L490.254 290.115" stroke="#015271" stroke-width="13" stroke-miterlimit="10" stroke-linecap="round"/>
<path d="M295.125 199.555L377.003 272.29L458.882 345.024" stroke="#015271" stroke-width="13" stroke-miterlimit="10" stroke-linecap="round"/>
<path d="M255.769 217.249C255.769 217.249 237.758 188.933 251.819 174.96C265.88 160.988 279.45 192.342 279.45 192.342L289.322 210.029L272.17 241.44C272.17 241.44 260.105 225.585 255.769 217.249Z" fill="#49B236"/>
<path d="M343.909 540.642C303.274 542.319 268.916 510.188 267.168 468.875C265.42 427.563 296.945 392.713 337.58 391.036C378.216 389.359 412.574 421.49 414.322 462.803C416.069 504.115 384.545 538.965 343.909 540.642Z" fill="white"/>
<path d="M244.738 606.732C210.929 608.128 182.344 581.428 180.891 547.097C179.439 512.766 205.669 483.804 239.479 482.409C273.288 481.014 301.873 507.714 303.325 542.044C304.777 576.375 278.547 605.337 244.738 606.732Z" fill="white"/>
<path d="M180.406 531.61C151.518 513.989 142.582 475.909 160.446 446.556C178.309 417.202 216.209 407.692 245.096 425.313C273.984 442.935 282.92 481.015 265.056 510.368C247.193 539.721 209.293 549.232 180.406 531.61Z" fill="white"/>
<path d="M221.55 570.18C202.606 558.625 196.758 533.634 208.486 514.361C220.215 495.089 245.08 488.833 264.024 500.389C282.968 511.945 288.817 536.936 277.088 556.208C265.359 575.481 240.494 581.736 221.55 570.18Z" fill="white"/>
<path d="M131.111 648.666C97.4082 628.107 87.0024 583.645 107.869 549.357C128.736 515.07 172.974 503.94 206.677 524.499C240.38 545.058 250.786 589.52 229.919 623.808C209.052 658.096 164.814 669.225 131.111 648.666Z" fill="white"/>
<path d="M45.4866 564.055C16.0083 546.073 5.13965 510.089 21.2108 483.681C37.2819 457.274 74.207 450.444 103.685 468.425C133.164 486.407 144.032 522.392 127.961 548.799C111.89 575.207 74.9649 582.037 45.4866 564.055Z" fill="white"/>
<path d="M100.996 533.158C81.4193 521.216 75.375 495.39 87.4957 475.474C99.6164 455.558 125.312 449.093 144.889 461.035C164.465 472.977 170.51 498.802 158.389 518.719C146.268 538.635 120.573 545.099 100.996 533.158Z" fill="white"/>
<path d="M60.6026 473.413C44.6977 463.711 39.5746 443.078 49.1597 427.328C58.7449 411.578 79.4086 406.675 95.3135 416.377C111.218 426.079 116.342 446.712 106.756 462.462C97.1712 478.212 76.5075 483.115 60.6026 473.413Z" fill="white"/>
<path d="M4.09235 510.125C-14.1521 498.996 -20.0289 475.328 -9.03378 457.261C1.96136 439.194 25.6648 433.57 43.9093 444.699C62.1538 455.829 68.0305 479.497 57.0354 497.563C46.0402 515.63 22.3368 521.254 4.09235 510.125Z" fill="white"/>
<path d="M78.0887 591.786C48.6491 573.828 39.1663 535.637 56.9083 506.484C74.6502 477.331 112.898 468.256 142.338 486.214C171.778 504.173 181.26 542.363 163.518 571.516C145.776 600.669 107.528 609.744 78.0887 591.786Z" fill="white"/>
<path d="M-32.7701 472.636C-62.3385 454.599 -71.4677 415.592 -53.1608 385.51C-34.8538 355.429 3.9568 345.665 33.5252 363.702C63.0936 381.739 72.2228 420.746 53.9158 450.827C35.6089 480.908 -3.20173 490.672 -32.7701 472.636Z" fill="white"/>
<path d="M531.95 576.004C511.411 563.475 503.504 538.953 514.289 521.231C525.074 503.51 550.467 499.3 571.006 511.829C591.545 524.357 599.452 548.88 588.667 566.601C577.882 584.323 552.489 588.533 531.95 576.004Z" fill="white"/>
<path d="M409.499 552.265C380.507 534.58 371.342 496.683 389.029 467.621C406.716 438.559 444.557 429.335 473.549 447.02C502.54 464.705 511.705 502.602 494.018 531.664C476.331 560.726 438.49 569.95 409.499 552.265Z" fill="white"/>
<g filter="url(#filter0_d_2440_8812)">
<path d="M977.562 131.061L977.562 75.2626L965.6 75.2626L965.6 97.1803L939.248 97.1803L939.248 75.2626L927.369 75.2626L927.369 131.061L939.248 131.061L939.248 107.637L965.6 107.637L965.6 131.061L977.562 131.061Z" fill="white"/>
<path d="M1023.19 131.061L1023.19 104.96C1023.19 93.3321 1014.74 89.6513 1005.54 89.6513C999.183 89.6513 992.825 91.659 987.889 96.0091L991.905 103.12C995.335 99.9409 999.35 98.3515 1003.7 98.3515C1009.05 98.3515 1012.57 101.028 1012.57 105.128L1012.57 110.732C1009.89 107.47 1005.12 105.797 999.768 105.797C993.327 105.797 985.714 109.227 985.714 118.68C985.714 127.715 993.327 132.065 999.768 132.065C1005.04 132.065 1009.81 130.141 1012.57 126.878L1012.57 131.061L1023.19 131.061ZM1012.57 121.357C1010.81 123.699 1007.46 124.87 1004.03 124.87C999.852 124.87 996.422 122.695 996.422 118.931C996.422 115.083 999.852 112.824 1004.03 112.824C1007.46 112.824 1010.81 113.995 1012.57 116.337L1012.57 121.357Z" fill="white"/>
<path d="M1031.14 110.816C1031.14 123.281 1040.09 132.065 1052.55 132.065C1060.83 132.065 1065.85 128.467 1068.53 124.703L1061.59 118.261C1059.66 120.938 1056.74 122.612 1053.05 122.612C1046.61 122.612 1042.1 117.843 1042.1 110.816C1042.1 103.789 1046.61 99.1044 1053.05 99.1044C1056.74 99.1044 1059.66 100.694 1061.59 103.454L1068.53 97.013C1065.85 93.2485 1060.83 89.6513 1052.55 89.6513C1040.09 89.6513 1031.14 98.4351 1031.14 110.816Z" fill="white"/>
<path d="M1114.96 131.061L1098.48 108.976L1114.46 90.6552L1101.41 90.6552L1086.1 108.641L1086.1 75.2626L1075.48 75.2626L1075.48 131.061L1086.1 131.061L1086.1 120.687L1090.95 115.501L1101.66 131.061L1114.96 131.061Z" fill="white"/>
<path d="M1142.5 131.061C1159.98 131.061 1172.11 120.018 1172.11 103.203C1172.11 86.3887 1159.98 75.2626 1142.5 75.2626L1120.5 75.2626L1120.5 131.061L1142.5 131.061ZM1132.37 85.7195L1142.5 85.7195C1153.96 85.7195 1159.98 93.3321 1159.98 103.203C1159.98 112.657 1153.54 120.604 1142.5 120.604L1132.37 120.604L1132.37 85.7195Z" fill="white"/>
<path d="M1215.17 131.061L1215.17 104.96C1215.17 93.3321 1206.73 89.6513 1197.52 89.6513C1191.17 89.6513 1184.81 91.659 1179.87 96.0091L1183.89 103.12C1187.32 99.9409 1191.33 98.3515 1195.68 98.3515C1201.04 98.3515 1204.55 101.028 1204.55 105.128L1204.55 110.732C1201.87 107.47 1197.1 105.797 1191.75 105.797C1185.31 105.797 1177.7 109.227 1177.7 118.68C1177.7 127.715 1185.31 132.065 1191.75 132.065C1197.02 132.065 1201.79 130.141 1204.55 126.878L1204.55 131.061L1215.17 131.061ZM1204.55 121.357C1202.79 123.699 1199.45 124.87 1196.02 124.87C1191.83 124.87 1188.4 122.695 1188.4 118.931C1188.4 115.083 1191.83 112.824 1196.02 112.824C1199.45 112.824 1202.79 113.995 1204.55 116.337L1204.55 121.357Z" fill="white"/>
<path d="M1247.63 131.061L1263.86 90.6552L1252.4 90.6552L1241.86 118.763L1231.32 90.6552L1219.94 90.6552L1236.17 131.061L1247.63 131.061Z" fill="white"/>
<path d="M1273.87 84.7156C1277.39 84.7156 1280.23 81.8713 1280.23 78.3578C1280.23 74.8443 1277.39 72 1273.87 72C1270.44 72 1267.51 74.8443 1267.51 78.3578C1267.51 81.8713 1270.44 84.7156 1273.87 84.7156ZM1279.23 131.061L1279.23 90.6552L1268.6 90.6552L1268.6 131.061L1279.23 131.061Z" fill="white"/>
<path d="M1286.25 125.79C1290.51 129.722 1297.29 132.065 1304.32 132.065C1315.53 132.065 1321.8 126.543 1321.8 119.098C1321.8 109.059 1312.52 107.219 1305.57 105.88C1301.05 104.96 1297.88 104.04 1297.88 101.53C1297.88 99.188 1300.39 97.7659 1304.23 97.7659C1309.17 97.7659 1313.77 99.8573 1316.2 102.451L1320.38 95.1726C1316.45 91.9936 1311.01 89.6513 1304.15 89.6513C1293.53 89.6513 1287.59 95.5908 1287.59 102.367C1287.59 111.987 1296.54 113.66 1303.48 114.999C1308.08 115.919 1311.6 116.923 1311.6 119.767C1311.6 122.277 1309.42 123.866 1304.82 123.866C1299.8 123.866 1293.78 121.106 1290.85 118.345L1286.25 125.79Z" fill="white"/>
</g>
<path d="M925 192.206L934.647 166.619L937.176 166.619L927.529 192.206L925 192.206Z" fill="white"/>
<path d="M942.635 192.206L952.281 166.619L954.81 166.619L945.164 192.206L942.635 192.206Z" fill="white"/>
<path d="M967.68 187.853C966.563 187.853 965.514 187.686 964.534 187.353C963.573 187.02 962.74 186.53 962.034 185.883C961.328 185.236 960.769 184.451 960.357 183.53C959.965 182.589 959.769 181.52 959.769 180.324C959.769 179.128 959.985 178.06 960.416 177.118C960.848 176.177 961.436 175.383 962.181 174.736C962.926 174.089 963.779 173.599 964.739 173.266C965.72 172.932 966.759 172.766 967.857 172.766C969.033 172.766 970.063 172.972 970.945 173.383C971.827 173.775 972.563 174.256 973.151 174.824L971.739 176.677C971.17 176.207 970.582 175.844 969.974 175.589C969.367 175.315 968.71 175.177 968.004 175.177C967.239 175.177 966.534 175.305 965.886 175.56C965.239 175.795 964.681 176.138 964.21 176.589C963.759 177.04 963.406 177.589 963.151 178.236C962.896 178.863 962.769 179.559 962.769 180.324C962.769 181.089 962.887 181.795 963.122 182.442C963.377 183.069 963.73 183.608 964.181 184.059C964.651 184.51 965.2 184.863 965.828 185.118C966.455 185.353 967.151 185.471 967.916 185.471C968.798 185.471 969.582 185.304 970.269 184.971C970.974 184.638 971.612 184.236 972.18 183.765L973.445 185.647C972.621 186.353 971.719 186.902 970.739 187.294C969.759 187.667 968.739 187.853 967.68 187.853Z" fill="white"/>
<path d="M983.992 187.853C983.05 187.853 982.149 187.686 981.286 187.353C980.423 187.02 979.659 186.53 978.992 185.883C978.325 185.236 977.796 184.451 977.404 183.53C977.012 182.589 976.816 181.52 976.816 180.324C976.816 179.128 977.012 178.06 977.404 177.118C977.796 176.177 978.325 175.383 978.992 174.736C979.659 174.089 980.423 173.599 981.286 173.266C982.149 172.932 983.05 172.766 983.992 172.766C984.933 172.766 985.835 172.932 986.697 173.266C987.56 173.599 988.325 174.089 988.991 174.736C989.658 175.383 990.187 176.177 990.579 177.118C990.972 178.06 991.168 179.128 991.168 180.324C991.168 181.52 990.972 182.589 990.579 183.53C990.187 184.451 989.658 185.236 988.991 185.883C988.325 186.53 987.56 187.02 986.697 187.353C985.835 187.686 984.933 187.853 983.992 187.853ZM983.992 185.471C985.286 185.471 986.305 185 987.05 184.059C987.795 183.118 988.168 181.873 988.168 180.324C988.168 178.775 987.795 177.53 987.05 176.589C986.305 175.648 985.286 175.177 983.992 175.177C982.698 175.177 981.678 175.648 980.933 176.589C980.188 177.53 979.815 178.775 979.815 180.324C979.815 181.873 980.188 183.118 980.933 184.059C981.678 185 982.698 185.471 983.992 185.471Z" fill="white"/>
<path d="M1000.66 187.853C999.715 187.853 998.862 187.686 998.097 187.353C997.352 187.02 996.705 186.53 996.156 185.883C995.607 185.236 995.185 184.451 994.891 183.53C994.597 182.589 994.45 181.52 994.45 180.324C994.45 179.148 994.627 178.099 994.98 177.177C995.352 176.236 995.832 175.442 996.421 174.795C997.028 174.148 997.715 173.648 998.479 173.295C999.264 172.942 1000.07 172.766 1000.89 172.766C1001.73 172.766 1002.48 172.923 1003.13 173.236C1003.79 173.55 1004.42 173.991 1005.01 174.56L1005.1 174.56L1004.95 172.001L1004.95 166.648L1007.86 166.648L1007.86 187.5L1005.48 187.5L1005.24 185.736L1005.16 185.736C1004.59 186.304 1003.91 186.804 1003.13 187.235C1002.34 187.647 1001.52 187.853 1000.66 187.853ZM1001.33 185.441C1002.63 185.441 1003.83 184.794 1004.95 183.5L1004.95 176.677C1004.38 176.128 1003.81 175.746 1003.24 175.53C1002.68 175.315 1002.11 175.207 1001.54 175.207C1000.97 175.207 1000.44 175.324 999.95 175.56C999.46 175.795 999.028 176.138 998.656 176.589C998.283 177.02 997.989 177.55 997.773 178.177C997.558 178.805 997.45 179.51 997.45 180.295C997.45 181.961 997.783 183.236 998.45 184.118C999.136 185 1000.1 185.441 1001.33 185.441Z" fill="white"/>
<path d="M1020.14 187.853C1019.05 187.853 1018.03 187.686 1017.08 187.353C1016.14 187.02 1015.32 186.53 1014.61 185.883C1013.91 185.236 1013.35 184.442 1012.94 183.5C1012.55 182.559 1012.35 181.491 1012.35 180.295C1012.35 179.118 1012.56 178.069 1012.97 177.148C1013.38 176.207 1013.92 175.413 1014.58 174.766C1015.27 174.119 1016.06 173.628 1016.94 173.295C1017.82 172.942 1018.74 172.766 1019.7 172.766C1020.76 172.766 1021.7 172.932 1022.53 173.266C1023.35 173.599 1024.04 174.07 1024.58 174.677C1025.15 175.266 1025.58 175.981 1025.88 176.824C1026.17 177.648 1026.32 178.56 1026.32 179.559C1026.32 179.873 1026.31 180.167 1026.29 180.442C1026.27 180.716 1026.24 180.952 1026.2 181.148L1015.26 181.148C1015.42 182.638 1015.98 183.745 1016.94 184.471C1017.92 185.196 1019.11 185.559 1020.53 185.559C1021.33 185.559 1022.06 185.451 1022.73 185.236C1023.4 185 1024.05 184.687 1024.7 184.294L1025.73 186.147C1024.99 186.637 1024.14 187.049 1023.2 187.383C1022.28 187.696 1021.26 187.853 1020.14 187.853ZM1019.79 175.06C1019.24 175.06 1018.72 175.148 1018.23 175.324C1017.74 175.481 1017.3 175.726 1016.91 176.06C1016.52 176.393 1016.18 176.805 1015.91 177.295C1015.63 177.785 1015.44 178.354 1015.32 179.001L1023.7 179.001C1023.6 177.687 1023.2 176.707 1022.5 176.06C1021.81 175.393 1020.91 175.06 1019.79 175.06Z" fill="white"/>
<path d="M1052.62 187.5L1052.62 175.471L1048.59 175.471L1048.59 173.266L1052.62 173.119L1052.62 172.119C1052.62 171.256 1052.74 170.472 1052.97 169.766C1053.21 169.04 1053.57 168.423 1054.06 167.913C1054.55 167.403 1055.17 167.011 1055.91 166.737C1056.66 166.443 1057.54 166.295 1058.56 166.295C1059.99 166.295 1061.39 166.57 1062.76 167.119L1062.12 169.266C1061.57 169.031 1061.04 168.864 1060.53 168.766C1060.04 168.668 1059.49 168.619 1058.88 168.619C1057.69 168.619 1056.82 168.923 1056.29 169.531C1055.77 170.119 1055.5 170.962 1055.5 172.06L1055.5 173.119L1061.24 173.119L1061.24 175.471L1055.5 175.471L1055.5 187.5L1052.62 187.5Z" fill="white"/>
<path d="M1072.16 187.853C1071.22 187.853 1070.32 187.686 1069.46 187.353C1068.6 187.02 1067.83 186.53 1067.16 185.883C1066.5 185.236 1065.97 184.451 1065.58 183.53C1065.18 182.589 1064.99 181.52 1064.99 180.324C1064.99 179.128 1065.18 178.06 1065.58 177.118C1065.97 176.177 1066.5 175.383 1067.16 174.736C1067.83 174.089 1068.6 173.599 1069.46 173.266C1070.32 172.932 1071.22 172.766 1072.16 172.766C1073.11 172.766 1074.01 172.932 1074.87 173.266C1075.73 173.599 1076.5 174.089 1077.16 174.736C1077.83 175.383 1078.36 176.177 1078.75 177.118C1079.14 178.06 1079.34 179.128 1079.34 180.324C1079.34 181.52 1079.14 182.589 1078.75 183.53C1078.36 184.451 1077.83 185.236 1077.16 185.883C1076.5 186.53 1075.73 187.02 1074.87 187.353C1074.01 187.686 1073.11 187.853 1072.16 187.853ZM1072.16 185.471C1073.46 185.471 1074.48 185 1075.22 184.059C1075.97 183.118 1076.34 181.873 1076.34 180.324C1076.34 178.775 1075.97 177.53 1075.22 176.589C1074.48 175.648 1073.46 175.177 1072.16 175.177C1070.87 175.177 1069.85 175.648 1069.11 176.589C1068.36 177.53 1067.99 178.775 1067.99 180.324C1067.99 181.873 1068.36 183.118 1069.11 184.059C1069.85 185 1070.87 185.471 1072.16 185.471Z" fill="white"/>
<path d="M1085.03 187.5L1085.03 173.119L1087.45 173.119L1087.68 176.471L1087.77 176.471C1088.51 175.295 1089.42 174.383 1090.48 173.736C1091.55 173.089 1092.74 172.766 1094.03 172.766C1094.6 172.766 1095.1 172.815 1095.53 172.913C1095.97 172.991 1096.41 173.138 1096.86 173.354L1096.21 175.854C1095.72 175.697 1095.3 175.579 1094.95 175.501C1094.59 175.422 1094.14 175.383 1093.59 175.383C1092.55 175.383 1091.55 175.677 1090.59 176.266C1089.63 176.854 1088.75 177.873 1087.95 179.324L1087.95 187.5L1085.03 187.5Z" fill="white"/>
<path d="M1125.24 187.853C1123.87 187.853 1122.58 187.637 1121.36 187.206C1120.15 186.755 1119.1 186.226 1118.22 185.618L1119.51 183.736C1120.35 184.324 1121.26 184.785 1122.24 185.118C1123.24 185.451 1124.37 185.618 1125.63 185.618C1126.74 185.618 1127.57 185.432 1128.1 185.059C1128.63 184.667 1128.89 184.196 1128.89 183.647C1128.89 183.393 1128.84 183.157 1128.74 182.942C1128.65 182.726 1128.44 182.53 1128.13 182.353C1127.83 182.157 1127.41 181.971 1126.86 181.795C1126.31 181.618 1125.59 181.432 1124.69 181.236C1122.78 180.844 1121.37 180.314 1120.45 179.648C1119.55 178.961 1119.1 178.069 1119.1 176.971C1119.1 176.364 1119.23 175.805 1119.48 175.295C1119.75 174.785 1120.15 174.344 1120.66 173.972C1121.19 173.599 1121.83 173.305 1122.6 173.089C1123.36 172.874 1124.24 172.766 1125.24 172.766C1126.38 172.766 1127.46 172.962 1128.48 173.354C1129.52 173.726 1130.4 174.158 1131.13 174.648L1129.77 176.471C1129.09 176.02 1128.33 175.668 1127.51 175.413C1126.71 175.138 1125.86 175.001 1124.98 175.001C1123.88 175.001 1123.11 175.177 1122.66 175.53C1122.23 175.883 1122.01 176.315 1122.01 176.824C1122.01 177.393 1122.31 177.824 1122.92 178.118C1123.53 178.412 1124.54 178.707 1125.95 179.001C1127.13 179.256 1128.09 179.53 1128.83 179.824C1129.6 180.118 1130.2 180.442 1130.63 180.795C1131.08 181.148 1131.39 181.55 1131.57 182C1131.74 182.432 1131.83 182.922 1131.83 183.471C1131.83 184.079 1131.69 184.647 1131.39 185.177C1131.1 185.706 1130.67 186.177 1130.1 186.588C1129.55 186.981 1128.86 187.284 1128.04 187.5C1127.23 187.735 1126.3 187.853 1125.24 187.853Z" fill="white"/>
<path d="M1142.7 187.853C1141.76 187.853 1140.86 187.686 1140 187.353C1139.13 187.02 1138.37 186.53 1137.7 185.883C1137.04 185.236 1136.51 184.451 1136.11 183.53C1135.72 182.589 1135.53 181.52 1135.53 180.324C1135.53 179.128 1135.72 178.06 1136.11 177.118C1136.51 176.177 1137.04 175.383 1137.7 174.736C1138.37 174.089 1139.13 173.599 1140 173.266C1140.86 172.932 1141.76 172.766 1142.7 172.766C1143.64 172.766 1144.55 172.932 1145.41 173.266C1146.27 173.599 1147.04 174.089 1147.7 174.736C1148.37 175.383 1148.9 176.177 1149.29 177.118C1149.68 178.06 1149.88 179.128 1149.88 180.324C1149.88 181.52 1149.68 182.589 1149.29 183.53C1148.9 184.451 1148.37 185.236 1147.7 185.883C1147.04 186.53 1146.27 187.02 1145.41 187.353C1144.55 187.686 1143.64 187.853 1142.7 187.853ZM1142.7 185.471C1144 185.471 1145.02 185 1145.76 184.059C1146.51 183.118 1146.88 181.873 1146.88 180.324C1146.88 178.775 1146.51 177.53 1145.76 176.589C1145.02 175.648 1144 175.177 1142.7 175.177C1141.41 175.177 1140.39 175.648 1139.64 176.589C1138.9 177.53 1138.53 178.775 1138.53 180.324C1138.53 181.873 1138.9 183.118 1139.64 184.059C1140.39 185 1141.41 185.471 1142.7 185.471Z" fill="white"/>
<path d="M1161.66 187.853C1160.54 187.853 1159.49 187.686 1158.51 187.353C1157.55 187.02 1156.72 186.53 1156.01 185.883C1155.31 185.236 1154.75 184.451 1154.34 183.53C1153.95 182.589 1153.75 181.52 1153.75 180.324C1153.75 179.128 1153.97 178.06 1154.4 177.118C1154.83 176.177 1155.42 175.383 1156.16 174.736C1156.91 174.089 1157.76 173.599 1158.72 173.266C1159.7 172.932 1160.74 172.766 1161.84 172.766C1163.01 172.766 1164.04 172.972 1164.93 173.383C1165.81 173.775 1166.54 174.256 1167.13 174.824L1165.72 176.677C1165.15 176.207 1164.56 175.844 1163.95 175.589C1163.35 175.315 1162.69 175.177 1161.98 175.177C1161.22 175.177 1160.51 175.305 1159.87 175.56C1159.22 175.795 1158.66 176.138 1158.19 176.589C1157.74 177.04 1157.39 177.589 1157.13 178.236C1156.88 178.863 1156.75 179.559 1156.75 180.324C1156.75 181.089 1156.87 181.795 1157.1 182.442C1157.36 183.069 1157.71 183.608 1158.16 184.059C1158.63 184.51 1159.18 184.863 1159.81 185.118C1160.44 185.353 1161.13 185.471 1161.9 185.471C1162.78 185.471 1163.56 185.304 1164.25 184.971C1164.95 184.638 1165.59 184.236 1166.16 183.765L1167.43 185.647C1166.6 186.353 1165.7 186.902 1164.72 187.294C1163.74 187.667 1162.72 187.853 1161.66 187.853Z" fill="white"/>
<path d="M1178.15 187.5L1178.15 175.471L1171.71 175.471L1171.71 173.119L1181.06 173.119L1181.06 187.5L1178.15 187.5ZM1179.35 170.325C1178.73 170.325 1178.21 170.138 1177.8 169.766C1177.38 169.374 1177.18 168.864 1177.18 168.237C1177.18 167.609 1177.38 167.109 1177.8 166.737C1178.21 166.345 1178.73 166.148 1179.35 166.148C1179.98 166.148 1180.5 166.345 1180.91 166.737C1181.32 167.109 1181.53 167.609 1181.53 168.237C1181.53 168.864 1181.32 169.374 1180.91 169.766C1180.5 170.138 1179.98 170.325 1179.35 170.325Z" fill="white"/>
<path d="M1193.87 187.853C1193.19 187.853 1192.54 187.755 1191.93 187.559C1191.34 187.363 1190.83 187.088 1190.4 186.736C1189.97 186.363 1189.63 185.922 1189.37 185.412C1189.14 184.902 1189.02 184.334 1189.02 183.706C1189.02 182.902 1189.2 182.197 1189.58 181.589C1189.97 180.981 1190.57 180.461 1191.37 180.03C1192.19 179.599 1193.24 179.246 1194.52 178.971C1195.81 178.697 1197.36 178.491 1199.17 178.354C1199.13 177.471 1198.83 176.716 1198.28 176.089C1197.75 175.462 1196.85 175.148 1195.58 175.148C1194.69 175.148 1193.83 175.315 1192.99 175.648C1192.17 175.981 1191.4 176.354 1190.7 176.765L1189.61 174.795C1190 174.56 1190.44 174.324 1190.93 174.089C1191.42 173.834 1191.94 173.609 1192.49 173.413C1193.06 173.217 1193.64 173.06 1194.22 172.942C1194.83 172.825 1195.45 172.766 1196.08 172.766C1198.08 172.766 1199.58 173.305 1200.58 174.383C1201.58 175.462 1202.08 176.952 1202.08 178.854L1202.08 187.5L1199.69 187.5L1199.46 185.647L1199.37 185.647C1198.61 186.236 1197.74 186.755 1196.78 187.206C1195.84 187.637 1194.87 187.853 1193.87 187.853ZM1194.69 185.53C1195.46 185.53 1196.2 185.363 1196.93 185.03C1197.68 184.696 1198.42 184.226 1199.17 183.618L1199.17 180.206C1197.75 180.324 1196.58 180.481 1195.64 180.677C1194.69 180.853 1193.94 181.089 1193.37 181.383C1192.82 181.657 1192.43 181.971 1192.19 182.324C1191.96 182.677 1191.84 183.069 1191.84 183.5C1191.84 184.226 1192.12 184.745 1192.67 185.059C1193.23 185.373 1193.91 185.53 1194.69 185.53Z" fill="white"/>
<path d="M1216.3 187.853C1214.69 187.853 1213.47 187.392 1212.62 186.471C1211.78 185.549 1211.36 184.216 1211.36 182.471L1211.36 168.972L1206.42 168.972L1206.42 166.648L1214.27 166.648L1214.27 182.648C1214.27 183.647 1214.52 184.373 1215.01 184.824C1215.52 185.255 1216.17 185.471 1216.98 185.471C1217.72 185.471 1218.58 185.265 1219.56 184.853L1220.27 187.03C1219.58 187.304 1218.95 187.51 1218.36 187.647C1217.79 187.784 1217.1 187.853 1216.3 187.853Z" fill="white"/>
<path d="M1248.25 194C1246.19 194 1244.57 193.666 1243.39 193C1242.24 192.333 1241.66 191.363 1241.66 190.088C1241.66 188.873 1242.43 187.833 1243.98 186.971L1243.98 186.853C1243.59 186.637 1243.25 186.343 1242.95 185.971C1242.66 185.579 1242.51 185.079 1242.51 184.471C1242.51 184 1242.66 183.53 1242.95 183.059C1243.27 182.569 1243.69 182.138 1244.22 181.765L1244.22 181.648C1243.71 181.275 1243.28 180.785 1242.92 180.177C1242.59 179.55 1242.42 178.805 1242.42 177.942C1242.42 177.138 1242.58 176.422 1242.89 175.795C1243.21 175.148 1243.63 174.599 1244.16 174.148C1244.69 173.697 1245.29 173.354 1245.98 173.119C1246.69 172.883 1247.43 172.766 1248.22 172.766C1249.02 172.766 1249.75 172.883 1250.39 173.119L1256.3 173.119L1256.3 175.413L1252.8 175.413C1253.08 175.726 1253.32 176.118 1253.54 176.589C1253.76 177.04 1253.86 177.52 1253.86 178.03C1253.86 178.814 1253.72 179.51 1253.42 180.118C1253.13 180.726 1252.73 181.246 1252.22 181.677C1251.71 182.089 1251.11 182.402 1250.42 182.618C1249.74 182.834 1249 182.942 1248.22 182.942C1247.86 182.942 1247.48 182.902 1247.07 182.824C1246.68 182.746 1246.28 182.628 1245.89 182.471C1245.23 182.902 1244.89 183.402 1244.89 183.971C1244.89 184.971 1245.84 185.471 1247.75 185.471L1250.8 185.471C1252.69 185.471 1254.09 185.736 1255.01 186.265C1255.93 186.794 1256.39 187.677 1256.39 188.912C1256.39 189.618 1256.2 190.275 1255.8 190.882C1255.43 191.51 1254.89 192.049 1254.19 192.5C1253.48 192.97 1252.62 193.333 1251.6 193.588C1250.6 193.863 1249.48 194 1248.25 194ZM1248.22 181.059C1249.04 181.059 1249.75 180.785 1250.33 180.236C1250.92 179.687 1251.22 178.922 1251.22 177.942C1251.22 177.001 1250.92 176.246 1250.33 175.677C1249.75 175.109 1249.04 174.824 1248.22 174.824C1247.39 174.824 1246.68 175.109 1246.07 175.677C1245.48 176.246 1245.19 177.001 1245.19 177.942C1245.19 178.922 1245.48 179.687 1246.07 180.236C1246.68 180.785 1247.39 181.059 1248.22 181.059ZM1248.54 191.971C1249.3 191.971 1249.99 191.892 1250.6 191.735C1251.23 191.598 1251.76 191.412 1252.19 191.176C1252.62 190.941 1252.95 190.667 1253.19 190.353C1253.42 190.059 1253.54 189.745 1253.54 189.412C1253.54 188.784 1253.28 188.363 1252.77 188.147C1252.26 187.932 1251.5 187.824 1250.48 187.824L1247.92 187.824C1247.47 187.824 1247.07 187.804 1246.72 187.765C1246.36 187.745 1246.04 187.686 1245.75 187.588C1245.14 187.922 1244.71 188.265 1244.45 188.618C1244.22 188.99 1244.1 189.363 1244.1 189.735C1244.1 190.422 1244.48 190.961 1245.25 191.353C1246.01 191.765 1247.11 191.971 1248.54 191.971Z" fill="white"/>
<path d="M1266.14 187.853C1265.2 187.853 1264.3 187.686 1263.44 187.353C1262.58 187.02 1261.81 186.53 1261.15 185.883C1260.48 185.236 1259.95 184.451 1259.56 183.53C1259.16 182.589 1258.97 181.52 1258.97 180.324C1258.97 179.128 1259.16 178.06 1259.56 177.118C1259.95 176.177 1260.48 175.383 1261.15 174.736C1261.81 174.089 1262.58 173.599 1263.44 173.266C1264.3 172.932 1265.2 172.766 1266.14 172.766C1267.09 172.766 1267.99 172.932 1268.85 173.266C1269.71 173.599 1270.48 174.089 1271.14 174.736C1271.81 175.383 1272.34 176.177 1272.73 177.118C1273.12 178.06 1273.32 179.128 1273.32 180.324C1273.32 181.52 1273.12 182.589 1272.73 183.53C1272.34 184.451 1271.81 185.236 1271.14 185.883C1270.48 186.53 1269.71 187.02 1268.85 187.353C1267.99 187.686 1267.09 187.853 1266.14 187.853ZM1266.14 185.471C1267.44 185.471 1268.46 185 1269.2 184.059C1269.95 183.118 1270.32 181.873 1270.32 180.324C1270.32 178.775 1269.95 177.53 1269.2 176.589C1268.46 175.648 1267.44 175.177 1266.14 175.177C1264.85 175.177 1263.83 175.648 1263.09 176.589C1262.34 177.53 1261.97 178.775 1261.97 180.324C1261.97 181.873 1262.34 183.118 1263.09 184.059C1263.83 185 1264.85 185.471 1266.14 185.471Z" fill="white"/>
<path d="M1283.78 187.853C1282.84 187.853 1281.94 187.686 1281.07 187.353C1280.21 187.02 1279.45 186.53 1278.78 185.883C1278.11 185.236 1277.58 184.451 1277.19 183.53C1276.8 182.589 1276.6 181.52 1276.6 180.324C1276.6 179.128 1276.8 178.06 1277.19 177.118C1277.58 176.177 1278.11 175.383 1278.78 174.736C1279.45 174.089 1280.21 173.599 1281.07 173.266C1281.94 172.932 1282.84 172.766 1283.78 172.766C1284.72 172.766 1285.62 172.932 1286.49 173.266C1287.35 173.599 1288.11 174.089 1288.78 174.736C1289.45 175.383 1289.98 176.177 1290.37 177.118C1290.76 178.06 1290.96 179.128 1290.96 180.324C1290.96 181.52 1290.76 182.589 1290.37 183.53C1289.98 184.451 1289.45 185.236 1288.78 185.883C1288.11 186.53 1287.35 187.02 1286.49 187.353C1285.62 187.686 1284.72 187.853 1283.78 187.853ZM1283.78 185.471C1285.07 185.471 1286.09 185 1286.84 184.059C1287.58 183.118 1287.96 181.873 1287.96 180.324C1287.96 178.775 1287.58 177.53 1286.84 176.589C1286.09 175.648 1285.07 175.177 1283.78 175.177C1282.49 175.177 1281.47 175.648 1280.72 176.589C1279.98 177.53 1279.6 178.775 1279.6 180.324C1279.6 181.873 1279.98 183.118 1280.72 184.059C1281.47 185 1282.49 185.471 1283.78 185.471Z" fill="white"/>
<path d="M1300.44 187.853C1299.5 187.853 1298.65 187.686 1297.88 187.353C1297.14 187.02 1296.49 186.53 1295.94 185.883C1295.39 185.236 1294.97 184.451 1294.68 183.53C1294.38 182.589 1294.24 181.52 1294.24 180.324C1294.24 179.148 1294.41 178.099 1294.77 177.177C1295.14 176.236 1295.62 175.442 1296.21 174.795C1296.82 174.148 1297.5 173.648 1298.27 173.295C1299.05 172.942 1299.86 172.766 1300.68 172.766C1301.52 172.766 1302.27 172.923 1302.91 173.236C1303.58 173.55 1304.21 173.991 1304.8 174.56L1304.88 174.56L1304.74 172.001L1304.74 166.648L1307.65 166.648L1307.65 187.5L1305.27 187.5L1305.03 185.736L1304.94 185.736C1304.37 186.304 1303.7 186.804 1302.91 187.235C1302.13 187.647 1301.31 187.853 1300.44 187.853ZM1301.12 185.441C1302.41 185.441 1303.62 184.794 1304.74 183.5L1304.74 176.677C1304.17 176.128 1303.6 175.746 1303.03 175.53C1302.46 175.315 1301.89 175.207 1301.33 175.207C1300.76 175.207 1300.23 175.324 1299.74 175.56C1299.25 175.795 1298.82 176.138 1298.44 176.589C1298.07 177.02 1297.78 177.55 1297.56 178.177C1297.35 178.805 1297.24 179.51 1297.24 180.295C1297.24 181.961 1297.57 183.236 1298.24 184.118C1298.92 185 1299.88 185.441 1301.12 185.441Z" fill="white"/>
<path d="M1311.99 191.794L1311.99 189.412L1326.11 189.412L1326.11 191.794L1311.99 191.794Z" fill="white"/>
<g opacity="0.5">
<circle cx="-21.6707" cy="90.3923" r="59.3923" fill="white"/>
<ellipse cx="59.2542" cy="98.1683" rx="46.9954" ry="46.4319" fill="white"/>
<circle cx="114.133" cy="118.904" r="30.8795" fill="white"/>
<rect x="-132" y="107.635" width="306.09" height="49.8129" rx="24.9065" fill="white"/>
</g>
<path d="M688.479 5.23418C690.551 19.9144 681.836 43.9806 667.195 46.0532C652.553 48.1259 637.52 27.4321 635.449 12.7559C634.483 5.7201 636.337 -1.41273 640.606 -7.08065C644.876 -12.7486 651.211 -16.4896 658.226 -17.4846C665.241 -18.4796 672.364 -16.6474 678.034 -12.3893C683.704 -8.13114 687.46 -1.79408 688.479 5.23418Z" fill="#F95A5A"/>
<path d="M666.328 46.9917C671.396 74.6433 676.457 102.296 681.511 129.95L666.328 46.9917Z" fill="#FFE36C"/>
<path d="M666.328 46.9917C671.396 74.6433 676.457 102.296 681.511 129.95" stroke="white" stroke-width="3" stroke-miterlimit="10"/>
<path d="M667.429 42.7877L668.65 50.1117C668.711 50.4842 668.67 50.8662 668.531 51.2171C668.392 51.568 668.161 51.8746 667.862 52.1043C667.564 52.3339 667.208 52.4781 666.834 52.5213C666.46 52.5646 666.082 52.5054 665.738 52.3499L663.742 51.4432C663.452 51.3115 663.196 51.1145 662.993 50.8676C662.791 50.6207 662.648 50.3304 662.576 50.0193C662.503 49.7081 662.503 49.3844 662.576 49.0733C662.648 48.7621 662.791 48.4717 662.993 48.2247L667.429 42.7877Z" fill="#F95A5A"/>
<path d="M642.017 9.76191C641.727 6.51799 642.356 3.25799 643.832 0.35621" stroke="white" stroke-width="4" stroke-linecap="round" stroke-linejoin="round"/>
<path opacity="0.1" d="M688.699 5.20335C690.771 19.8835 682.059 43.9452 667.414 46.0185C662.414 46.7301 657.36 44.7823 652.802 41.318C662.387 37.9231 670.505 31.3083 675.778 22.5961C681.051 13.8839 683.154 3.6112 681.73 -6.47858C681.56 -7.69215 681.343 -8.89358 681.074 -10.0658C685.215 -5.95008 687.893 -0.585881 688.699 5.20335Z" fill="black"/>
<path d="M677.55 131.074C677.55 131.074 676.001 124.957 679.38 123.383C682.758 121.808 683.316 128.175 683.316 128.175L684.033 131.905L679.049 136.352C679.049 136.352 677.842 132.825 677.55 131.074Z" fill="#EFD565"/>
<path d="M699.66 160.252L708.359 166.174C708.829 166.494 709.467 166.371 709.786 165.901L710.162 165.346C710.48 164.876 710.358 164.236 709.889 163.916L701.189 157.994C700.72 157.675 700.082 157.797 699.763 158.267L699.387 158.822C699.069 159.292 699.191 159.932 699.66 160.252Z" fill="#FFBB4D"/>
<path d="M675.601 155.405L685.837 155.284C686.405 155.277 686.859 154.811 686.852 154.242L686.844 153.572C686.837 153.003 686.372 152.548 685.805 152.555L675.568 152.676C675.001 152.683 674.547 153.149 674.554 153.718L674.562 154.388C674.568 154.957 675.034 155.412 675.601 155.405Z" fill="#FFBB4D"/>
<path d="M715.952 118.284C711.154 114.903 705.507 112.935 699.651 112.603L699.6 112.612C697.033 112.465 694.473 113 692.177 114.163C689.882 115.325 687.934 117.075 686.53 119.234C683.847 123.348 677.71 137.495 676.221 141.805C676.221 141.805 672.589 150.54 693.178 157.671C713.767 164.802 716.227 155.688 716.227 155.688C716.227 155.688 718.378 149.472 719.144 146.722C720.212 142.918 721.588 137.218 722.106 131.623C722.341 129.054 721.895 126.468 720.815 124.126C719.735 121.784 718.057 119.769 715.952 118.284Z" fill="#FFE36C"/>
<path d="M691.711 126.866C692.987 126.643 693.84 125.426 693.618 124.147C693.396 122.868 692.181 122.013 690.906 122.236C689.63 122.458 688.776 123.676 688.999 124.954C689.221 126.233 690.435 127.089 691.711 126.866Z" fill="black"/>
<path d="M709.49 133.043C710.765 132.82 711.619 131.603 711.397 130.324C711.174 129.045 709.96 128.189 708.685 128.412C707.409 128.635 706.555 129.852 706.778 131.131C707 132.41 708.214 133.266 709.49 133.043Z" fill="black"/>
<path d="M689.362 151.887C689.427 151.911 689.496 151.921 689.565 151.918C689.633 151.914 689.701 151.896 689.763 151.866L692.742 150.41C692.857 150.342 692.943 150.234 692.982 150.106C693.021 149.978 693.01 149.84 692.952 149.719C692.893 149.599 692.792 149.505 692.668 149.457C692.543 149.408 692.405 149.408 692.281 149.457L689.302 150.914C689.176 150.975 689.08 151.084 689.034 151.216C688.988 151.349 688.997 151.494 689.057 151.621C689.088 151.683 689.13 151.739 689.183 151.785C689.235 151.831 689.296 151.866 689.362 151.887Z" fill="#FFBB4D"/>
<path d="M691.584 152.668C691.715 152.711 691.858 152.702 691.983 152.643C692.046 152.613 692.102 152.57 692.148 152.519C692.194 152.467 692.23 152.406 692.253 152.34C692.275 152.275 692.285 152.205 692.281 152.136C692.276 152.066 692.258 151.998 692.228 151.936L690.779 148.949C690.752 148.881 690.712 148.819 690.66 148.768C690.609 148.716 690.547 148.676 690.479 148.649C690.411 148.623 690.338 148.61 690.266 148.613C690.193 148.616 690.121 148.634 690.056 148.666C689.99 148.698 689.932 148.743 689.885 148.799C689.837 148.854 689.802 148.919 689.78 148.989C689.759 149.059 689.752 149.132 689.761 149.205C689.769 149.277 689.793 149.347 689.829 149.41L691.278 152.397C691.34 152.525 691.45 152.622 691.584 152.668Z" fill="#FFBB4D"/>
<path d="M710.622 141.626C712.599 141.281 713.922 139.394 713.578 137.412C713.233 135.43 711.351 134.103 709.373 134.449C707.396 134.794 706.073 136.681 706.418 138.663C706.762 140.645 708.645 141.972 710.622 141.626Z" fill="#FFA052"/>
<path d="M686.86 133.368C688.838 133.022 690.161 131.135 689.816 129.153C689.472 127.171 687.589 125.845 685.612 126.19C683.635 126.536 682.312 128.423 682.656 130.405C683.001 132.387 684.883 133.713 686.86 133.368Z" fill="#FFA052"/>
<path d="M694.715 132.681L700.207 134.593C700.961 134.85 701.787 134.796 702.502 134.443C703.217 134.09 703.763 133.468 704.021 132.712C704.557 131.148 700.9 128.709 699.34 128.167C697.78 127.63 693.398 127.274 692.858 128.834C692.727 129.209 692.672 129.606 692.695 130.002C692.718 130.398 692.818 130.786 692.991 131.144C693.163 131.501 693.404 131.821 693.7 132.085C693.996 132.348 694.341 132.551 694.715 132.681Z" fill="#FFBB4D"/>
<path d="M708.839 114.535C708.839 114.535 709.703 111.351 708.485 108.647C708.455 108.584 708.408 108.53 708.349 108.492C708.29 108.455 708.222 108.434 708.152 108.433C708.082 108.432 708.013 108.451 707.953 108.488C707.893 108.524 707.845 108.577 707.813 108.639C707.111 110.028 706.179 111.287 705.055 112.362C704.737 112.613 704.369 112.795 703.975 112.893C703.582 112.991 703.173 113.004 702.774 112.93" fill="#FFE36C"/>
<path d="M705.289 113.464C707.178 112.91 708.926 111.955 710.414 110.665C710.467 110.618 710.531 110.586 710.601 110.574C710.67 110.562 710.742 110.57 710.807 110.598C710.872 110.625 710.928 110.67 710.968 110.728C711.008 110.787 711.031 110.855 711.033 110.926C710.992 111.812 710.834 112.689 710.566 113.535C710.45 113.942 710.478 114.377 710.646 114.765C710.814 115.154 711.111 115.472 711.486 115.666" fill="#FFE36C"/>
<path d="M713.208 164.221C714.631 165.758 714.75 167.977 713.471 169.169L716.053 171.958L734.621 154.667L732.035 151.879C730.756 153.074 728.558 152.79 727.131 151.253C725.704 149.717 725.589 147.497 726.868 146.306L724.286 143.517L705.718 160.807L708.304 163.596C709.583 162.404 711.782 162.684 713.208 164.221Z" fill="#E66560"/>
<path d="M721.574 146.688C721.574 146.688 724.827 152.085 722.052 154.575C719.277 157.065 716.901 151.137 716.901 151.137L715.132 147.773L718.612 142.066C718.612 142.066 720.798 145.106 721.574 146.688Z" fill="#FFE36C"/>
<path d="M680.638 127.079C679.573 129.125 678.06 130.902 676.213 132.279C674.472 133.608 673.653 133.82 672.979 133.755C671.812 133.644 670.42 132.773 670.265 131.512C670.111 130.251 671.161 128.901 672.251 128.735C674.402 128.416 678.057 132.661 677.686 136.87C677.378 140.374 674.29 143.709 672.037 143.438C671.182 143.332 670.167 142.675 670.041 141.839C669.916 141.002 670.764 139.91 671.681 139.649C673.786 139.046 677.449 142.265 678.172 146.031C678.794 149.28 677.041 151.956 676.508 152.725" stroke="white" stroke-width="3" stroke-linecap="round" stroke-linejoin="round"/>
</g>
<defs>
<filter id="filter0_d_2440_8812" x="902.369" y="57" width="444.432" height="110.064" filterUnits="userSpaceOnUse" color-interpolation-filters="sRGB">
<feFlood flood-opacity="0" result="BackgroundImageFix"/>
<feColorMatrix in="SourceAlpha" type="matrix" values="0 0 0 0 0 0 0 0 0 0 0 0 0 0 0 0 0 0 127 0" result="hardAlpha"/>
<feOffset dy="10"/>
<feGaussianBlur stdDeviation="12.5"/>
<feColorMatrix type="matrix" values="0 0 0 0 0 0 0 0 0 0 0 0 0 0 0 0 0 0 0.1 0"/>
<feBlend mode="normal" in2="BackgroundImageFix" result="effect1_dropShadow_2440_8812"/>
<feBlend mode="normal" in="SourceGraphic" in2="effect1_dropShadow_2440_8812" result="shape"/>
</filter>
<linearGradient id="paint0_linear_2440_8812" x1="193.922" y1="-1.45835e-05" x2="275.277" y2="456.895" gradientUnits="userSpaceOnUse">
<stop stop-color="#C5EDDB"/>
<stop offset="1" stop-color="#5BCDE8"/>
</linearGradient>
<linearGradient id="paint1_linear_2440_8812" x1="1659.89" y1="142.278" x2="2429.98" y2="814.297" gradientUnits="userSpaceOnUse">
<stop offset="0.0752592" stop-color="#FFE36C"/>
<stop offset="0.34375" stop-color="#E0EA71"/>
<stop offset="0.512785" stop-color="#CCEE74"/>
<stop offset="0.945102" stop-color="#6DD1E1"/>
</linearGradient>
<clipPath id="clip0_2440_8812">
<rect width="2252" height="492" fill="white"/>
</clipPath>
</defs>
</svg>
