<svg width="69" height="130" viewBox="0 0 69 130" fill="none" xmlns="http://www.w3.org/2000/svg">
<path d="M37.0788 17.5675C38.4156 27.0374 32.7933 42.5621 23.3485 43.8991C13.9036 45.2361 4.20606 31.8869 2.86977 22.4195C2.24654 17.8809 3.4429 13.2796 6.19687 9.62338C8.95084 5.9671 13.038 3.5538 17.5632 2.91196C22.0885 2.27011 26.6831 3.45202 30.3408 6.19888C33.9986 8.94573 36.4215 13.0337 37.0788 17.5675V17.5675Z" fill="#F95A5A"/>
<path d="M22.7891 44.5044C26.0583 62.3419 29.3231 80.1803 32.5833 98.0194Z" fill="#FFE36C"/>
<path d="M22.7891 44.5044C26.0583 62.3419 29.3231 80.1803 32.5833 98.0194" stroke="white" stroke-miterlimit="10"/>
<path d="M23.5026 41.7927L24.2904 46.5173C24.3296 46.7576 24.303 47.004 24.2135 47.2304C24.1241 47.4567 23.975 47.6545 23.7823 47.8027C23.5895 47.9508 23.3603 48.0438 23.119 48.0717C22.8778 48.0996 22.6334 48.0614 22.4121 47.9611L21.1245 47.3762C20.9372 47.2912 20.7719 47.1642 20.6414 47.0049C20.5109 46.8456 20.4187 46.6584 20.3719 46.4577C20.3252 46.257 20.3251 46.0482 20.3718 45.8474C20.4184 45.6467 20.5105 45.4594 20.6409 45.3L23.5026 41.7927Z" fill="#F95A5A"/>
<path d="M7.10574 20.4883C6.91899 18.3957 7.32474 16.2927 8.27639 14.4208" stroke="white" stroke-width="2" stroke-linecap="round" stroke-linejoin="round"/>
<path opacity="0.1" d="M37.2167 17.5477C38.5534 27.0176 32.9333 42.5393 23.4859 43.8768C20.2609 44.3358 17.0007 43.0793 14.0605 40.8446C20.2434 38.6546 25.48 34.3875 28.8814 28.7674C32.2828 23.1473 33.6395 16.5206 32.7212 10.0119C32.6111 9.22901 32.4711 8.45399 32.2979 7.69784C34.969 10.3528 36.697 13.8131 37.2167 17.5477Z" fill="black"/>
<path d="M30.0282 98.7447C30.0282 98.7447 29.0292 94.7991 31.2087 93.7833C33.3882 92.7676 33.748 96.8745 33.748 96.8745L34.2108 99.2809L30.9957 102.15C30.9957 102.15 30.2168 99.8744 30.0282 98.7447Z" fill="#EFD565"/>
<path d="M44.2932 117.567L49.9051 121.387C50.2078 121.593 50.6198 121.514 50.8253 121.211L51.0676 120.853C51.2732 120.55 51.1944 120.137 50.8918 119.931L45.2799 116.11C44.9772 115.904 44.5652 115.983 44.3597 116.286L44.1173 116.644C43.9118 116.948 43.9905 117.361 44.2932 117.567Z" fill="#FFBB4D"/>
<path d="M28.7712 114.44L35.3747 114.362C35.7405 114.357 36.0336 114.056 36.0293 113.69L36.0241 113.257C36.0198 112.891 35.7197 112.597 35.3539 112.601L28.7504 112.68C28.3846 112.684 28.0915 112.985 28.0959 113.352L28.101 113.784C28.1053 114.151 28.4054 114.444 28.7712 114.44Z" fill="#FFBB4D"/>
<path d="M54.8012 90.4948C51.706 88.3133 48.0634 87.0438 44.2857 86.8301L44.2529 86.8358C42.5968 86.7409 40.945 87.0859 39.4645 87.836C37.9841 88.586 36.7273 89.7145 35.8214 91.1074C34.0909 93.7613 30.1316 102.887 29.1713 105.667C29.1713 105.667 26.8281 111.302 40.1099 115.902C53.3917 120.502 54.9783 114.623 54.9783 114.623C54.9783 114.623 56.366 110.613 56.8602 108.839C57.5491 106.386 58.4369 102.709 58.771 99.0996C58.9224 97.4421 58.635 95.7738 57.9381 94.2631C57.2411 92.7524 56.1591 91.4526 54.8012 90.4948V90.4948Z" fill="#FFE36C"/>
<path d="M39.1626 96.0306C39.9855 95.8868 40.5362 95.1016 40.3928 94.2767C40.2493 93.4519 39.466 92.8998 38.6432 93.0436C37.8204 93.1874 37.2696 93.9726 37.413 94.7974C37.5565 95.6223 38.3398 96.1744 39.1626 96.0306Z" fill="black"/>
<path d="M50.6343 100.015C51.4571 99.8709 52.0079 99.0857 51.8645 98.2608C51.721 97.436 50.9377 96.8839 50.1149 97.0277C49.292 97.1715 48.7413 97.9567 48.8847 98.7816C49.0282 99.6064 49.8115 100.158 50.6343 100.015Z" fill="black"/>
<path d="M37.6514 112.171C37.6932 112.186 37.7376 112.193 37.782 112.19C37.8264 112.188 37.8698 112.177 37.9097 112.157L39.8314 111.218C39.9058 111.174 39.9612 111.104 39.9863 111.022C40.0115 110.939 40.0045 110.85 39.967 110.772C39.9294 110.695 39.864 110.634 39.7837 110.603C39.7035 110.571 39.6144 110.572 39.5343 110.603L37.6126 111.543C37.5315 111.582 37.4694 111.653 37.4398 111.738C37.4102 111.824 37.4156 111.917 37.4547 111.999C37.4743 112.039 37.5018 112.075 37.5356 112.105C37.5694 112.134 37.6088 112.157 37.6514 112.171V112.171Z" fill="#FFBB4D"/>
<path d="M39.0802 112.675C39.1651 112.703 39.2574 112.697 39.338 112.658C39.3784 112.639 39.4146 112.612 39.4444 112.578C39.4742 112.545 39.4971 112.506 39.5118 112.463C39.5265 112.421 39.5327 112.376 39.5299 112.331C39.5272 112.287 39.5156 112.243 39.4959 112.202L38.5613 110.276C38.5441 110.232 38.518 110.192 38.4847 110.159C38.4513 110.125 38.4115 110.099 38.3677 110.082C38.3239 110.065 38.2771 110.057 38.2301 110.059C38.1831 110.061 38.137 110.073 38.0947 110.093C38.0524 110.114 38.0148 110.143 37.9842 110.179C37.9537 110.214 37.9308 110.256 37.9171 110.301C37.9034 110.346 37.8991 110.394 37.9045 110.441C37.9099 110.487 37.9249 110.533 37.9485 110.573L38.8831 112.5C38.9231 112.582 38.994 112.645 39.0802 112.675Z" fill="#FFBB4D"/>
<path d="M51.3676 105.551C52.643 105.329 53.4967 104.111 53.2744 102.833C53.052 101.554 51.8378 100.698 50.5623 100.921C49.2869 101.144 48.4332 102.361 48.6555 103.64C48.8779 104.919 50.0921 105.774 51.3676 105.551Z" fill="#FFA052"/>
<path d="M36.0365 100.224C37.312 100.001 38.1657 98.7842 37.9433 97.5057C37.721 96.2271 36.5067 95.3713 35.2313 95.5942C33.9558 95.8171 33.1021 97.0343 33.3245 98.3128C33.5468 99.5914 34.761 100.447 36.0365 100.224Z" fill="#FFA052"/>
<path d="M41.1051 99.7815L44.6479 101.015C45.1347 101.18 45.6672 101.145 46.1285 100.918C46.5897 100.69 46.9421 100.289 47.1083 99.801V99.801C47.4541 98.7921 45.0954 97.2187 44.0886 96.8695C43.0822 96.5228 40.256 96.293 39.9072 97.2997C39.8232 97.5415 39.7875 97.7975 39.8022 98.0532C39.8169 98.3088 39.8818 98.559 39.993 98.7895C40.1043 99.02 40.2597 99.2262 40.4505 99.3964C40.6414 99.5666 40.8638 99.6975 41.1051 99.7815Z" fill="#FFBB4D"/>
<path d="M50.2154 88.0761C50.2154 88.0761 50.773 86.0217 49.9875 84.2779C49.9682 84.237 49.9377 84.2023 49.8997 84.1779C49.8617 84.1534 49.8175 84.1402 49.7724 84.1397C49.7272 84.1391 49.6828 84.1513 49.6442 84.1748C49.6056 84.1983 49.5743 84.2322 49.554 84.2726C49.1012 85.1686 48.4994 85.9806 47.7744 86.6738C47.5693 86.8363 47.3319 86.9531 47.0782 87.0163C46.8245 87.0796 46.5602 87.0879 46.303 87.0406" fill="#FFE36C"/>
<path d="M47.9246 87.385C49.1429 87.0273 50.2704 86.4115 51.2308 85.5792C51.2644 85.5485 51.3061 85.5281 51.351 85.5204C51.3958 85.5126 51.4419 85.5179 51.4839 85.5356C51.5258 85.5532 51.5619 85.5825 51.5878 85.62C51.6137 85.6575 51.6284 85.7016 51.6301 85.7472C51.603 86.319 51.5017 86.8848 51.3285 87.4302C51.2536 87.6929 51.2718 87.9734 51.3801 88.2241C51.4883 88.4748 51.6798 88.6802 51.9221 88.8053" fill="#FFE36C"/>
<path d="M53.0361 120.127C53.954 121.119 54.0309 122.551 53.2054 123.319L54.871 125.118L66.8492 113.964L65.1811 112.166C64.356 112.937 62.9376 112.754 62.0172 111.762C61.0967 110.771 61.0224 109.339 61.8478 108.57L60.1822 106.771L48.2041 117.925L49.8722 119.724C50.6976 118.955 52.1156 119.136 53.0361 120.127Z" fill="#E66560"/>
<path d="M58.4321 108.817C58.4321 108.817 60.5311 112.299 58.7409 113.905C56.9508 115.511 55.4179 111.687 55.4179 111.687L54.2769 109.517L56.5218 105.835C56.5218 105.835 57.9315 107.797 58.4321 108.817Z" fill="#FFE36C"/>
<path d="M32.0215 96.1675C31.3345 97.487 30.3587 98.6338 29.1671 99.522C28.0443 100.379 27.5155 100.516 27.0809 100.474C26.3281 100.402 25.4303 99.8406 25.3305 99.0272C25.2308 98.2138 25.9082 97.3429 26.6115 97.2357C27.9987 97.0298 30.3568 99.7687 30.1174 102.483C29.9189 104.744 27.9264 106.895 26.473 106.72C25.9216 106.652 25.2667 106.228 25.1858 105.689C25.105 105.149 25.6523 104.445 26.2433 104.276C27.6014 103.887 29.9643 105.964 30.431 108.393C30.832 110.489 29.7013 112.215 29.3576 112.711" stroke="white" stroke-linecap="round" stroke-linejoin="round"/>
</svg>
