<svg width="511" height="683" viewBox="0 0 511 683" fill="none" xmlns="http://www.w3.org/2000/svg">
<circle r="115" transform="matrix(-1 -1.23365e-09 -6.65959e-09 1 499.996 517)" fill="white"/>
<circle r="46" transform="matrix(-1 -1.23365e-09 -6.65959e-09 1 512.996 429)" fill="white"/>
<ellipse rx="95.6518" ry="94.7344" transform="matrix(-1 -1.23365e-09 -6.65959e-09 1 325.176 554.629)" fill="white"/>
<ellipse rx="62.8504" ry="63.003" transform="matrix(-1 -1.23365e-09 -6.65959e-09 1 210.261 580.711)" fill="white"/>
<rect width="626" height="110" rx="55" transform="matrix(-1 -1.23365e-09 -6.65959e-09 1 713.996 593)" fill="white"/>
<path d="M430.985 390.925L431.106 391.378C429.909 395.055 426.437 397.678 421.985 398.564C415.705 399.809 409.857 397.12 408.588 390.883C407.318 384.646 411.929 381.289 418.208 380.04C422.662 379.157 426.617 378.895 429.16 381.83C429.095 381.837 429.032 381.851 428.969 381.862C430.032 384.264 430.716 383.108 431.242 385.754C431.768 388.401 431.384 389.909 430.985 390.925Z" fill="#F95A5A"/>
<path d="M410.392 386.298C411.282 384.993 412.526 383.964 413.979 383.329" stroke="white" stroke-linecap="round" stroke-linejoin="round"/>
<path d="M422.327 372.466C422.408 372.43 422.497 372.414 422.585 372.418C422.674 372.422 422.761 372.446 422.838 372.489C422.916 372.532 422.983 372.592 423.033 372.665C423.083 372.738 423.116 372.821 423.128 372.909L423.333 374.404C423.516 375.753 423.252 377.124 422.58 378.309C421.908 379.494 420.865 380.43 419.609 380.973V380.973C419.366 381.078 419.101 381.126 418.836 381.112C418.571 381.098 418.313 381.023 418.081 380.893C417.85 380.764 417.652 380.582 417.503 380.364C417.354 380.146 417.259 379.896 417.223 379.635C417.046 378.296 417.31 376.937 417.974 375.761C418.639 374.585 419.669 373.654 420.912 373.106L422.327 372.466Z" fill="#009056" stroke="#009056" stroke-miterlimit="10" stroke-linecap="round"/>
<path d="M447.207 392.594L447.225 393.062C445.242 396.387 441.274 398.188 436.732 398.082C430.327 397.928 425.214 394.031 425.355 387.673C425.496 381.314 430.74 379.045 437.144 379.196C441.687 379.306 445.606 379.912 447.438 383.327C447.373 383.321 447.309 383.321 447.244 383.317C447.751 385.891 448.674 384.913 448.602 387.608C448.529 390.304 447.821 391.69 447.207 392.594Z" fill="#F95A5A"/>
<path d="M428.156 386.259C428.872 384.852 429.974 383.676 431.335 382.863" stroke="white" stroke-linecap="round" stroke-linejoin="round"/>
<path d="M442.82 372.717C442.907 372.7 442.997 372.703 443.083 372.727C443.169 372.75 443.248 372.792 443.314 372.851C443.38 372.91 443.432 372.983 443.465 373.065C443.498 373.147 443.511 373.235 443.504 373.323L443.373 374.826C443.253 376.181 442.692 377.461 441.774 378.47C440.856 379.479 439.631 380.164 438.284 380.421V380.421C438.024 380.47 437.755 380.459 437.499 380.387C437.244 380.316 437.008 380.187 436.811 380.01C436.614 379.833 436.461 379.613 436.364 379.368C436.267 379.122 436.228 378.858 436.252 378.596C436.375 377.252 436.933 375.984 437.842 374.982C438.751 373.98 439.963 373.296 441.297 373.033L442.82 372.717Z" fill="#009056" stroke="#009056" stroke-miterlimit="10" stroke-linecap="round"/>
<path d="M436.897 370.708C436.959 370.644 437.034 370.596 437.117 370.566C437.201 370.536 437.29 370.526 437.379 370.536C437.467 370.546 437.552 370.577 437.626 370.625C437.7 370.674 437.762 370.739 437.807 370.815L438.57 372.121C439.257 373.301 439.539 374.669 439.373 376.02C439.207 377.371 438.602 378.63 437.65 379.608V379.608C437.466 379.797 437.239 379.941 436.989 380.028C436.739 380.115 436.472 380.144 436.208 380.111C435.945 380.078 435.692 379.985 435.471 379.84C435.25 379.694 435.065 379.499 434.933 379.271C434.255 378.099 433.977 376.742 434.14 375.402C434.303 374.062 434.897 372.811 435.835 371.835L436.897 370.708Z" fill="#009056" stroke="#009056" stroke-miterlimit="10" stroke-linecap="round"/>
<path d="M463.102 397.505L462.978 397.957C460.08 400.548 455.749 401.099 451.449 399.66C445.386 397.627 441.69 392.401 443.75 386.371C445.81 380.341 451.499 379.718 457.562 381.748C461.862 383.191 465.416 384.923 466.13 388.724C466.069 388.699 466.008 388.68 465.948 388.658C465.651 391.265 466.829 390.602 465.943 393.155C465.058 395.707 463.962 396.823 463.102 397.505Z" fill="#F95A5A"/>
<path d="M446.301 385.661C446.935 384.213 447.966 382.97 449.277 382.076" stroke="white" stroke-linecap="round" stroke-linejoin="round"/>
<path d="M464.935 377.226C465.023 377.236 465.108 377.265 465.183 377.313C465.257 377.36 465.32 377.424 465.365 377.5C465.411 377.575 465.438 377.661 465.444 377.748C465.451 377.836 465.437 377.925 465.403 378.006L464.823 379.403C464.298 380.662 463.376 381.718 462.194 382.411C461.013 383.105 459.637 383.398 458.275 383.247V383.247C458.012 383.217 457.759 383.127 457.537 382.983C457.314 382.84 457.129 382.647 456.994 382.42C456.86 382.193 456.781 381.938 456.762 381.675C456.744 381.413 456.788 381.149 456.889 380.905C457.414 379.658 458.33 378.612 459.501 377.923C460.671 377.234 462.034 376.938 463.386 377.079L464.935 377.226Z" fill="#009056" stroke="#009056" stroke-miterlimit="10" stroke-linecap="round"/>
<rect width="60.4997" height="41.9328" rx="4" transform="matrix(1.00298 0.00239887 -0.000304431 0.997001 408.04 389.893)" fill="#FFBB4D"/>
<path d="M305.622 323.137L341.841 432.027" stroke="white" stroke-width="3" stroke-miterlimit="10"/>
<path d="M447.372 289.569L464.925 402.865" stroke="white" stroke-width="3" stroke-miterlimit="10"/>
<path d="M367.698 361.477C366.828 361.18 366.027 360.713 365.342 360.103C364.657 359.493 364.103 358.753 363.712 357.927C363.321 357.101 363.101 356.206 363.066 355.294C363.031 354.383 363.181 353.474 363.508 352.623C366.022 346.082 370.652 337.349 377.074 338.862C384.854 340.68 381.629 351.615 378.693 358.544C378.018 360.135 376.757 361.411 375.167 362.112C373.577 362.814 371.777 362.889 370.13 362.323L367.698 361.477Z" fill="#F6CBCA"/>
<path d="M324.02 428.467C324.02 428.467 312.599 423.339 314.34 416.189C316.081 409.039 326.661 416.009 326.661 416.009L333.349 419.494L334.079 432.654C334.079 432.654 327.075 430.168 324.02 428.467Z" fill="#EEEEEE"/>
<path d="M315.956 407.047C316.584 410.252 319.137 412.453 321.648 411.955L322.786 417.765L286.349 424.985L285.211 419.172C287.717 418.675 289.247 415.664 288.622 412.459C287.997 409.254 285.442 407.053 282.93 407.551L281.792 401.738L318.229 394.521L319.367 400.334C316.861 400.829 315.321 403.84 315.956 407.047Z" fill="#E66560"/>
<path d="M326.667 382.849C326.667 382.849 303.117 380.423 301.957 390.595C300.616 402.289 326.474 398.128 326.474 398.128L326.667 382.849Z" fill="#F6CBCA"/>
<path d="M307.628 389.161C306.268 390.014 306.183 390.739 306.163 391.079C306.089 391.341 306.089 391.618 306.163 391.88C306.238 392.143 306.384 392.379 306.586 392.564C308.048 393.946 313.884 395.316 322.371 394.486L322.451 386.778C317.343 386.658 310.812 387.174 307.642 389.155L307.628 389.161ZM305.392 385.629C312.203 381.361 326.697 382.855 326.697 382.855L326.529 398.156C326.529 398.156 300.633 402.294 302.013 390.623C302.148 389.587 302.527 388.597 303.118 387.734C303.709 386.87 304.497 386.157 305.417 385.65L305.392 385.629Z" fill="black"/>
<path d="M318.739 382.553C315.694 381.284 312.872 379.542 310.378 377.393C310.056 377.118 309.825 376.755 309.714 376.348C309.603 375.942 309.618 375.513 309.757 375.116C309.896 374.719 310.153 374.373 310.494 374.123C310.834 373.873 311.243 373.732 311.666 373.716C314.897 373.633 319.256 373.768 322.896 374.741C329.597 376.533 318.739 382.553 318.739 382.553Z" fill="#F4C25D"/>
<path d="M365.475 448.324C368.438 447.374 371.333 446.225 374.139 444.887C378.446 442.864 382.617 440.569 386.627 438.016C390.141 435.84 393.534 433.478 396.793 430.942C421.018 412.013 412.158 400.026 412.158 400.026C412.158 400.026 405.159 389.071 401.844 384.496C397.258 378.188 390.109 369.045 382.082 361.367C378.384 357.842 373.815 355.346 368.837 354.132C363.859 352.918 358.649 353.03 353.735 354.455C346.599 356.515 339.895 359.823 333.937 364.224V364.224C330.583 366.699 327.488 369.503 324.699 372.593L324.626 372.676C321.216 376.455 318.874 381.062 317.836 386.032C316.797 391.001 317.1 396.158 318.713 400.98C320.026 404.548 321.532 408.045 323.224 411.454C328.806 423.178 337.449 439.108 340.995 444.642C340.967 444.667 346.316 454.336 365.475 448.324Z" fill="white"/>
<path d="M374.127 444.91C378.434 442.886 382.606 440.591 386.616 438.039C390.13 435.863 393.523 433.501 396.782 430.965C421.006 412.036 412.146 400.049 412.146 400.049C412.146 400.049 405.147 389.094 401.833 384.518C401.833 384.518 380.914 394.412 386.047 411.244C386.509 412.69 386.772 414.19 386.83 415.704C387.205 428.066 369.984 428.795 374.041 444.55C374.062 444.671 374.09 444.792 374.127 444.91V444.91Z" fill="black"/>
<path d="M323.214 411.481C328.886 402.591 320.757 391.359 330.767 385.079C342.692 377.584 333.941 364.238 333.941 364.238C330.587 366.714 327.492 369.518 324.703 372.608L324.63 372.691C321.22 376.47 318.878 381.077 317.84 386.046C316.801 391.016 317.104 396.172 318.717 400.994C320.025 404.567 321.527 408.068 323.214 411.481V411.481Z" fill="black"/>
<path d="M356.465 437.15L361.053 444.341C362.138 446.045 363.669 447.426 365.482 448.336V448.336C371.213 446.533 378.189 443.326 386.635 438.028C390.148 435.852 393.542 433.49 396.801 430.954L388.088 417.31C387.723 416.732 387.304 416.191 386.836 415.693C385.03 413.761 382.601 412.513 379.97 412.167C377.339 411.821 374.671 412.397 372.426 413.795L359.968 421.612C357.431 423.212 355.638 425.745 354.981 428.657C354.325 431.569 354.859 434.622 356.465 437.15V437.15Z" fill="#F6CBCA"/>
<path d="M332.609 404.852C335.182 405.01 337.393 403.069 337.548 400.517C337.702 397.964 335.74 395.766 333.167 395.608C330.594 395.45 328.383 397.391 328.229 399.944C328.075 402.496 330.036 404.694 332.609 404.852Z" fill="black"/>
<path d="M364.228 385.027C366.802 385.185 369.013 383.244 369.167 380.691C369.321 378.138 367.36 375.941 364.786 375.782C362.213 375.624 360.002 377.565 359.848 380.118C359.694 382.671 361.655 384.868 364.228 385.027Z" fill="black"/>
<path d="M342.062 408.843C339.04 404.111 339.637 396.013 348.721 390.319C357.805 384.625 365.289 387.656 368.31 392.387C371.331 397.119 368.742 401.787 359.659 407.455C350.577 413.122 345.081 413.608 342.062 408.843Z" fill="#F6CBCA"/>
<path d="M357.681 398.59C358.428 398.121 358.511 396.921 357.866 395.91C357.22 394.899 356.091 394.459 355.343 394.928C354.595 395.397 354.513 396.597 355.158 397.608C355.804 398.619 356.933 399.059 357.681 398.59Z" fill="black"/>
<path d="M349.775 403.548C350.523 403.079 350.606 401.879 349.96 400.868C349.315 399.857 348.185 399.418 347.438 399.886C346.69 400.355 346.607 401.555 347.253 402.566C347.898 403.577 349.028 404.017 349.775 403.548Z" fill="black"/>
<path d="M364.876 355.437C364.876 355.437 365.434 349.097 363.946 343.79C363.837 343.382 363.605 343.017 363.282 342.742C362.96 342.467 362.56 342.295 362.138 342.249C361.715 342.204 361.288 342.286 360.915 342.486C360.541 342.686 360.237 342.994 360.043 343.369C358.589 346.226 357.26 348.34 356.586 352.014C355.347 358.787 364.876 355.437 364.876 355.437Z" fill="#F4C25D"/>
<path d="M374.252 343.339C372.035 344.722 369.557 348.654 367.453 354.115C367.324 354.445 367.263 354.799 367.275 355.154C367.287 355.509 367.372 355.857 367.523 356.179C367.674 356.501 367.89 356.79 368.156 357.027C368.423 357.265 368.735 357.447 369.074 357.562L371.521 358.382C371.899 358.512 372.3 358.557 372.697 358.512C373.094 358.467 373.475 358.333 373.812 358.121C374.271 357.836 374.629 357.416 374.836 356.919C377.929 349.611 378.162 345.307 377.349 343.683C377.228 343.455 377.046 343.102 376.128 342.885C375.804 342.813 375.467 342.814 375.143 342.886C374.819 342.959 374.515 343.102 374.254 343.305L374.252 343.339ZM372.003 339.779C372.739 339.28 373.571 338.938 374.448 338.774C375.324 338.61 376.225 338.628 377.095 338.827C384.875 340.645 381.651 351.58 378.715 358.51C378.042 360.103 376.782 361.38 375.191 362.082C373.6 362.784 371.798 362.857 370.152 362.288L367.697 361.467C366.828 361.171 366.026 360.704 365.342 360.094C364.657 359.484 364.102 358.744 363.712 357.918C363.321 357.092 363.101 356.196 363.066 355.285C363.031 354.374 363.181 353.465 363.507 352.613C365.3 347.97 368.186 342.189 371.981 339.805L372.003 339.779Z" fill="white"/>
<path d="M406.574 382.138C406.574 382.138 417.832 387.604 415.879 394.694C413.926 401.784 403.56 394.505 403.56 394.505L393.824 389.314L396.64 377.657C396.64 377.657 403.57 380.366 406.574 382.138Z" fill="white"/>
<path d="M375.723 389.896L380.609 386.832C381.957 385.987 382.357 384.216 381.502 382.877L379.583 379.871C378.728 378.532 376.942 378.132 375.595 378.977L370.708 382.041C369.36 382.886 368.961 384.657 369.816 385.996L371.735 389.002C372.59 390.341 374.375 390.742 375.723 389.896Z" fill="#F7D3D2"/>
<path d="M331.906 417.366L336.792 414.301C338.14 413.456 338.539 411.686 337.685 410.347L335.765 407.34C334.911 406.001 333.125 405.601 331.777 406.446L326.891 409.51C325.543 410.356 325.143 412.126 325.998 413.465L327.917 416.472C328.772 417.811 330.558 418.211 331.906 417.366Z" fill="#F7D3D2"/>
<path d="M377.899 306.052L405.72 416.922" stroke="white" stroke-width="3" stroke-miterlimit="10"/>
<path d="M567.091 5.53231C575.064 38.2688 576.434 72.233 571.122 105.469C565.809 138.705 553.919 170.555 536.137 199.186C533.544 203.38 530.829 207.496 527.991 211.534C523.264 218.272 518.211 224.784 512.831 231.07C504.754 240.505 496.669 249.946 488.818 259.57L451.76 301.809L303.699 336.781L251.307 315.669C239.899 310.595 228.37 305.786 216.841 300.984C209.153 297.792 201.663 294.241 194.371 290.331C189.999 288 185.699 285.547 181.47 282.97C152.51 265.383 127.331 242.292 107.382 215.03C87.4333 187.767 73.1088 156.87 65.2334 124.118C31.9448 -13.3402 117.112 -151.26 255.472 -184.167C393.713 -217.042 533.853 -131.739 567.091 5.53231Z" fill="url(#paint0_linear_1879_7270)"/>
<path d="M567.091 5.53231C575.064 38.2688 576.434 72.233 571.122 105.469C565.809 138.705 553.919 170.555 536.137 199.186C533.544 203.38 530.829 207.496 527.991 211.534C523.264 218.272 518.211 224.784 512.831 231.07C504.754 240.505 496.669 249.946 488.818 259.57L451.76 301.809L303.699 336.781L251.307 315.669C239.899 310.595 228.37 305.786 216.841 300.984C209.153 297.792 201.663 294.241 194.371 290.331C189.999 288 185.699 285.547 181.47 282.97C152.51 265.383 127.331 242.292 107.382 215.03C87.4333 187.767 73.1088 156.87 65.2334 124.118C31.9448 -13.3402 117.112 -151.26 255.472 -184.167C393.713 -217.042 533.853 -131.739 567.091 5.53231Z" fill="#136E90"/>
<path opacity="0.1" d="M567.103 5.52817C575.078 38.2656 576.449 72.2312 571.136 105.468C565.823 138.705 553.932 170.557 536.148 199.188C533.556 203.382 530.84 207.498 528.002 211.536C523.285 218.275 518.231 224.788 512.843 231.073C504.772 240.509 496.682 249.942 488.835 259.58L451.772 301.811L303.71 336.784L251.318 315.678C248.502 314.43 245.692 313.188 242.869 311.945C416.18 243.667 516.963 57.6638 472.093 -127.746C471.002 -132.269 469.83 -136.754 468.576 -141.203C517.929 -105.428 552.859 -53.4086 567.103 5.52817V5.52817Z" fill="black"/>
<path d="M330.09 434.146L472.815 400.443L486.832 458.376C487.955 463.017 487.174 467.906 484.662 471.969C482.15 476.031 478.113 478.933 473.437 480.037L365.968 505.415C361.293 506.519 356.363 505.734 352.264 503.234C348.164 500.733 345.23 496.721 344.107 492.08L330.09 434.146Z" fill="#005271"/>
<path opacity="0.1" d="M472.852 400.408L486.361 456.337C486.98 458.896 487.086 461.551 486.672 464.148C486.257 466.746 485.331 469.236 483.946 471.476C482.56 473.717 480.743 475.664 478.598 477.206C476.453 478.748 474.022 479.855 471.443 480.463L398.214 497.758C413.968 487.058 427.297 473.216 437.352 457.114C447.407 441.011 453.969 423.001 456.619 404.229L472.852 400.408Z" fill="black"/>
<g opacity="0.2">
<path d="M325.311 29.8415L275.895 40.2949L283.945 77.3976L333.362 66.9442L325.311 29.8415Z" fill="black"/>
<path d="M236.037 55.7849L227.596 17.5277L164.489 115.101L187.831 130.346L236.037 55.7849ZM414.739 -7.62479C402.127 -36.3457 374.597 -53.9331 371.474 -55.8644L303.623 -99.9925L278.835 -61.6745L277.114 -58.9543L285.556 -20.7085L311.929 -61.5345L350.52 -36.4427L356.41 -32.6207L356.829 -32.362C356.909 -32.3503 359.402 -30.7549 363.067 -27.9665C370.549 -22.2281 382.834 -11.0853 389.227 3.36332C398.694 24.9487 406.749 50.7391 388.624 88.1628L397.324 127.688C399.255 125.138 400.417 123.358 400.839 122.711C418.519 95.9149 427.168 70.8386 427.376 45.9322C427.525 24.3838 421.094 6.76026 414.739 -7.62479ZM272.645 146.504L271.707 146.274L271.271 146.211C268.532 145.454 265.861 144.473 263.285 143.277C260.897 142.243 257.939 140.858 254.37 139.013C248.927 136.22 242.125 132.392 233.661 127.125L214.57 114.661L199.511 137.952L218.484 150.341L218.739 150.517C247.896 168.656 261.707 172.662 266.659 173.537C282.629 177.475 299.195 178.411 315.499 176.295C322.989 175.273 330.361 173.541 337.514 171.122L339.228 170.525L333.199 143.127C317.338 149.444 297.156 152.412 272.645 146.504Z" fill="black"/>
<path d="M266.416 -42.4978L302.356 120.764L266.269 128.51L238.222 1.09171L241.053 -3.28877L242.578 -5.63128L251.087 -18.8052L256.867 -27.7347L258.744 -30.641L264.524 -39.5705L266.416 -42.4978Z" fill="black"/>
<path d="M350.083 -22.2193L385.907 140.712L385.483 141.126C384.104 142.549 382.535 143.992 380.905 145.448C380.377 145.94 379.822 146.451 379.263 146.914C377.802 148.202 376.256 149.485 374.625 150.764C373.131 151.961 371.568 153.149 369.936 154.326C369.047 154.963 368.146 155.597 367.219 156.251C366.035 157.064 364.792 157.881 363.514 158.692C362.52 159.325 361.493 159.941 360.442 160.565C358.371 161.81 356.197 163.013 353.92 164.173L352.253 165.009L312.798 -14.2074L350.083 -22.2193Z" fill="black"/>
</g>
<path fill-rule="evenodd" clip-rule="evenodd" d="M105.563 -19.962C108.085 -18.828 109.215 -15.8642 108.087 -13.3422C93.9386 18.3091 89.244 53.0235 94.5189 86.818C94.9455 89.551 93.0791 92.108 90.3503 92.5292C87.6214 92.9505 85.0634 91.0765 84.6368 88.3435C79.0592 52.6095 84.0305 15.9409 98.9563 -17.449C100.084 -19.9709 103.042 -21.0961 105.563 -19.962Z" fill="white"/>
<ellipse rx="5.53009" ry="5.53331" transform="matrix(0.99971 -0.000128065 0.00225467 1.00029 93.247 106.387)" fill="white"/>
<g opacity="0.85">
<ellipse rx="120.884" ry="121.177" transform="matrix(-1 -1.23365e-09 -6.65959e-09 1 526.878 472.177)" fill="white"/>
<ellipse rx="76.021" ry="75.249" transform="matrix(-1 -1.23365e-09 -6.65959e-09 1 385.014 543.249)" fill="white"/>
<rect width="722" height="118" rx="59" transform="matrix(-1 -1.23365e-09 -6.65959e-09 1 762.996 627)" fill="white" fill-opacity="0.5"/>
</g>
<defs>
<linearGradient id="paint0_linear_1879_7270" x1="110.068" y1="-34.7555" x2="506.292" y2="309.674" gradientUnits="userSpaceOnUse">
<stop offset="0.0752592" stop-color="#FFE36C"/>
<stop offset="0.34375" stop-color="#E0EA71"/>
<stop offset="0.512785" stop-color="#CCEE74"/>
<stop offset="0.945102" stop-color="#6DD1E1"/>
</linearGradient>
</defs>
</svg>
