<svg width="487" height="574" viewBox="0 0 487 574" fill="none" xmlns="http://www.w3.org/2000/svg">
<path d="M347.42 467.116L347.518 467.461C346.553 470.264 343.758 472.263 340.173 472.938C335.117 473.888 330.408 471.838 329.386 467.084C328.363 462.33 332.076 459.771 337.132 458.819C340.718 458.146 343.903 457.946 345.95 460.183C345.898 460.189 345.848 460.199 345.796 460.208C346.653 462.039 347.203 461.157 347.627 463.175C348.05 465.192 347.741 466.341 347.42 467.116Z" fill="#F95A5A"/>
<path d="M330.851 463.588C331.568 462.593 332.57 461.809 333.74 461.325" stroke="white" stroke-linecap="round" stroke-linejoin="round"/>
<path d="M340.464 453.039C340.529 453.012 340.6 452.999 340.672 453.003C340.743 453.006 340.813 453.024 340.875 453.057C340.938 453.09 340.992 453.136 341.032 453.191C341.073 453.247 341.099 453.31 341.109 453.377L341.273 454.516C341.421 455.545 341.208 456.59 340.667 457.493C340.126 458.397 339.287 459.109 338.275 459.524V459.524C338.079 459.604 337.866 459.64 337.653 459.629C337.439 459.619 337.231 459.562 337.045 459.463C336.859 459.364 336.699 459.226 336.58 459.059C336.46 458.893 336.383 458.703 336.354 458.504C336.212 457.483 336.424 456.448 336.959 455.551C337.494 454.654 338.324 453.944 339.324 453.527L340.464 453.039Z" fill="#009056" stroke="#009056" stroke-miterlimit="10" stroke-linecap="round"/>
<path d="M360.476 468.396L360.491 468.752C358.894 471.287 355.699 472.659 352.042 472.578C346.884 472.461 342.768 469.491 342.881 464.644C342.995 459.798 347.217 458.068 352.374 458.183C356.032 458.266 359.187 458.728 360.663 461.332C360.61 461.327 360.558 461.327 360.506 461.324C360.914 463.286 361.658 462.54 361.6 464.595C361.541 466.649 360.971 467.706 360.476 468.396Z" fill="#F95A5A"/>
<path d="M345.124 463.564C345.701 462.492 346.589 461.595 347.685 460.976" stroke="white" stroke-linecap="round" stroke-linejoin="round"/>
<path d="M356.918 453.244C356.988 453.231 357.061 453.233 357.13 453.251C357.199 453.269 357.263 453.301 357.316 453.346C357.37 453.391 357.411 453.447 357.438 453.509C357.464 453.572 357.475 453.639 357.469 453.706L357.363 454.851C357.267 455.885 356.815 456.86 356.076 457.629C355.337 458.399 354.35 458.921 353.266 459.116V459.116C353.056 459.154 352.84 459.145 352.634 459.091C352.428 459.036 352.238 458.938 352.08 458.803C351.921 458.668 351.798 458.5 351.72 458.313C351.642 458.126 351.611 457.925 351.63 457.725C351.729 456.701 352.178 455.734 352.91 454.97C353.642 454.206 354.618 453.685 355.692 453.485L356.918 453.244Z" fill="#009056" stroke="#009056" stroke-miterlimit="10" stroke-linecap="round"/>
<path d="M352.16 451.708C352.21 451.659 352.27 451.622 352.337 451.599C352.405 451.576 352.477 451.569 352.548 451.577C352.619 451.584 352.687 451.608 352.747 451.645C352.807 451.682 352.857 451.731 352.893 451.789L353.507 452.785C354.06 453.684 354.287 454.727 354.153 455.757C354.02 456.786 353.533 457.746 352.766 458.492V458.492C352.618 458.636 352.436 458.745 352.234 458.812C352.033 458.878 351.817 458.9 351.605 458.875C351.393 458.85 351.19 458.779 351.012 458.668C350.833 458.557 350.685 458.409 350.578 458.234C350.033 457.341 349.809 456.307 349.94 455.285C350.071 454.264 350.55 453.311 351.305 452.567L352.16 451.708Z" fill="#009056" stroke="#009056" stroke-miterlimit="10" stroke-linecap="round"/>
<path d="M373.264 472.126L373.164 472.471C370.83 474.446 367.343 474.866 363.881 473.769C358.999 472.219 356.022 468.235 357.681 463.639C359.34 459.043 363.921 458.568 368.803 460.116C372.265 461.215 375.127 462.536 375.702 465.433C375.653 465.414 375.604 465.399 375.555 465.382C375.316 467.37 376.264 466.865 375.551 468.81C374.838 470.756 373.956 471.606 373.264 472.126Z" fill="#F95A5A"/>
<path d="M359.736 463.103C360.247 461.999 361.077 461.052 362.133 460.37" stroke="white" stroke-linecap="round" stroke-linejoin="round"/>
<path d="M374.743 456.673C374.814 456.68 374.882 456.703 374.942 456.739C375.003 456.775 375.053 456.824 375.09 456.882C375.126 456.939 375.148 457.004 375.153 457.071C375.159 457.138 375.147 457.206 375.12 457.268L374.653 458.332C374.231 459.292 373.488 460.097 372.536 460.626C371.585 461.154 370.477 461.378 369.381 461.262V461.262C369.169 461.24 368.965 461.171 368.786 461.062C368.607 460.952 368.458 460.805 368.349 460.632C368.241 460.459 368.177 460.265 368.163 460.065C368.148 459.864 368.183 459.663 368.265 459.478C368.687 458.527 369.425 457.73 370.368 457.204C371.31 456.679 372.407 456.453 373.496 456.561L374.743 456.673Z" fill="#009056" stroke="#009056" stroke-miterlimit="10" stroke-linecap="round"/>
<rect width="47.7237" height="32.6867" rx="4" transform="matrix(1.0238 0.00231805 -0.000314472 0.974932 328.95 466.328)" fill="#FFBB4D"/>
<path d="M246.484 415.447L275.648 498.449" stroke="white" stroke-width="3" stroke-miterlimit="10"/>
<path d="M360.607 389.863L374.741 476.223" stroke="white" stroke-width="3" stroke-miterlimit="10"/>
<path d="M296.461 444.676C295.761 444.45 295.116 444.094 294.565 443.63C294.013 443.165 293.567 442.601 293.252 441.971C292.937 441.341 292.76 440.659 292.732 439.964C292.704 439.269 292.825 438.577 293.088 437.927C295.112 432.942 298.841 426.285 304.011 427.439C310.276 428.824 307.679 437.159 305.315 442.441C304.771 443.654 303.756 444.626 302.476 445.161C301.196 445.696 299.746 445.753 298.42 445.321L296.461 444.676Z" fill="#F6CBCA"/>
<path d="M261.281 495.735C261.281 495.735 252.085 491.826 253.487 486.376C254.889 480.926 263.408 486.239 263.408 486.239L268.793 488.895L269.381 498.927C269.381 498.927 263.742 497.032 261.281 495.735Z" fill="#EEEEEE"/>
<path d="M254.795 479.416C255.301 481.859 257.356 483.537 259.379 483.157L260.295 487.586L230.956 493.089L230.039 488.658C232.057 488.279 233.289 485.984 232.786 483.541C232.283 481.098 230.225 479.42 228.203 479.8L227.286 475.369L256.626 469.868L257.542 474.299C255.524 474.676 254.284 476.971 254.795 479.416Z" fill="#E66560"/>
<path d="M263.407 460.97C263.407 460.97 244.445 459.12 243.511 466.874C242.431 475.788 263.252 472.616 263.252 472.616L263.407 460.97Z" fill="#F6CBCA"/>
<path d="M248.09 465.783C246.994 466.434 246.927 466.986 246.91 467.245C246.85 467.445 246.851 467.656 246.911 467.856C246.971 468.056 247.089 468.237 247.251 468.378C248.428 469.431 253.128 470.475 259.961 469.842L260.026 463.967C255.912 463.876 250.654 464.269 248.101 465.779L248.09 465.783ZM246.289 463.091C251.773 459.838 263.444 460.977 263.444 460.977L263.309 472.64C263.309 472.64 242.458 475.794 243.568 466.898C243.678 466.108 243.982 465.354 244.459 464.695C244.935 464.037 245.569 463.493 246.31 463.107L246.289 463.091Z" fill="black"/>
<path d="M257.031 460.742C254.579 459.775 252.306 458.447 250.298 456.808C250.039 456.599 249.853 456.322 249.763 456.012C249.674 455.703 249.687 455.375 249.799 455.073C249.911 454.77 250.117 454.507 250.391 454.316C250.665 454.126 250.995 454.018 251.336 454.006C253.937 453.943 257.447 454.045 260.377 454.788C265.774 456.153 257.031 460.742 257.031 460.742Z" fill="#F4C25D"/>
<path d="M294.667 510.881C297.053 510.156 299.384 509.281 301.643 508.261C305.111 506.718 308.47 504.969 311.699 503.023C314.528 501.364 317.261 499.564 319.885 497.631C339.39 483.202 332.256 474.066 332.256 474.066C332.256 474.066 326.62 465.715 323.952 462.227C320.259 457.42 314.502 450.45 308.039 444.598C305.061 441.911 301.382 440.008 297.374 439.083C293.366 438.158 289.171 438.243 285.214 439.329C279.468 440.899 274.07 443.421 269.273 446.775V446.775C266.572 448.662 264.08 450.8 261.834 453.155L261.776 453.218C259.03 456.098 257.144 459.61 256.308 463.398C255.472 467.186 255.715 471.117 257.014 474.793C258.072 477.513 259.284 480.178 260.646 482.776C265.141 491.713 272.1 503.856 274.956 508.074C274.933 508.093 279.24 515.463 294.667 510.881Z" fill="white"/>
<path d="M301.626 508.277C305.094 506.735 308.453 504.986 311.682 503.04C314.511 501.381 317.244 499.581 319.868 497.648C339.373 483.219 332.239 474.082 332.239 474.082C332.239 474.082 326.604 465.732 323.935 462.244C323.935 462.244 307.091 469.786 311.224 482.616C311.596 483.718 311.808 484.861 311.855 486.016C312.156 495.438 298.29 495.994 301.557 508.003C301.574 508.096 301.597 508.187 301.626 508.277V508.277Z" fill="black"/>
<path d="M260.647 482.792C265.215 476.015 258.669 467.454 266.729 462.667C276.332 456.954 269.285 446.781 269.285 446.781C266.584 448.668 264.092 450.806 261.847 453.161L261.788 453.224C259.042 456.104 257.156 459.616 256.32 463.404C255.484 467.192 255.728 471.123 257.027 474.798C258.08 477.522 259.289 480.19 260.647 482.792V482.792Z" fill="black"/>
<path d="M287.404 502.359L291.097 507.84C291.971 509.139 293.204 510.192 294.664 510.885V510.885C299.278 509.511 304.895 507.067 311.696 503.028C314.525 501.369 317.257 499.569 319.881 497.636L312.866 487.236C312.572 486.796 312.235 486.383 311.858 486.003C310.403 484.53 308.448 483.58 306.33 483.316C304.211 483.052 302.063 483.491 300.255 484.557L290.224 490.515C288.181 491.734 286.737 493.665 286.209 495.885C285.68 498.104 286.11 500.432 287.404 502.359V502.359Z" fill="#F6CBCA"/>
<path d="M268.209 477.733C270.281 477.854 272.061 476.374 272.185 474.428C272.309 472.483 270.73 470.807 268.658 470.687C266.586 470.566 264.806 472.046 264.682 473.991C264.558 475.937 266.137 477.612 268.209 477.733Z" fill="black"/>
<path d="M293.661 462.63C295.733 462.751 297.513 461.271 297.637 459.325C297.761 457.38 296.182 455.704 294.11 455.584C292.038 455.463 290.258 456.943 290.134 458.888C290.01 460.834 291.589 462.509 293.661 462.63Z" fill="black"/>
<path d="M275.816 480.777C273.383 477.17 273.864 470.998 281.178 466.657C288.492 462.317 294.518 464.627 296.951 468.234C299.384 471.841 297.299 475.399 289.986 479.719C282.673 484.039 278.247 484.409 275.816 480.777Z" fill="#F6CBCA"/>
<path d="M288.387 472.967C288.989 472.61 289.056 471.695 288.536 470.925C288.016 470.154 287.107 469.819 286.505 470.176C285.903 470.534 285.836 471.448 286.356 472.219C286.876 472.99 287.785 473.325 288.387 472.967Z" fill="black"/>
<path d="M282.024 476.747C282.626 476.39 282.693 475.475 282.173 474.704C281.653 473.934 280.744 473.599 280.142 473.956C279.54 474.313 279.473 475.228 279.993 475.999C280.513 476.769 281.422 477.104 282.024 476.747Z" fill="black"/>
<path d="M294.193 440.081C294.193 440.081 294.642 435.249 293.444 431.204C293.356 430.893 293.169 430.614 292.909 430.405C292.649 430.195 292.328 430.064 291.988 430.029C291.647 429.994 291.304 430.057 291.003 430.21C290.702 430.362 290.457 430.597 290.301 430.883C289.13 433.06 288.06 434.672 287.517 437.473C286.52 442.635 294.193 440.081 294.193 440.081Z" fill="#F4C25D"/>
<path d="M301.717 430.847C299.933 431.901 297.938 434.898 296.243 439.06C296.139 439.313 296.09 439.582 296.1 439.852C296.11 440.123 296.178 440.389 296.3 440.634C296.421 440.88 296.595 441.1 296.81 441.281C297.024 441.462 297.275 441.6 297.548 441.688L299.519 442.313C299.823 442.413 300.146 442.447 300.466 442.412C300.785 442.378 301.092 442.276 301.363 442.114C301.733 441.897 302.022 441.577 302.188 441.198C304.679 435.627 304.866 432.347 304.211 431.109C304.114 430.935 303.968 430.666 303.229 430.501C302.967 430.446 302.696 430.446 302.435 430.502C302.174 430.557 301.93 430.666 301.719 430.821L301.717 430.847ZM299.907 428.133C300.499 427.753 301.17 427.492 301.875 427.367C302.581 427.242 303.307 427.256 304.007 427.408C310.272 428.793 307.675 437.129 305.311 442.411C304.769 443.625 303.755 444.599 302.474 445.134C301.193 445.669 299.742 445.725 298.416 445.29L296.44 444.665C295.74 444.439 295.094 444.083 294.543 443.618C293.992 443.153 293.545 442.589 293.231 441.959C292.916 441.33 292.739 440.647 292.711 439.953C292.683 439.258 292.803 438.565 293.066 437.916C294.509 434.377 296.833 429.97 299.889 428.153L299.907 428.133Z" fill="white"/>
<path d="M327.757 460.423C327.757 460.423 336.822 464.589 335.249 469.994C333.677 475.398 325.33 469.85 325.33 469.85L317.491 465.892L319.758 457.007C319.758 457.007 325.338 459.072 327.757 460.423Z" fill="white"/>
<path d="M302.904 466.345L306.839 464.009C307.924 463.365 308.246 462.015 307.557 460.995L306.012 458.703C305.324 457.682 303.886 457.377 302.801 458.021L298.866 460.357C297.781 461.001 297.459 462.351 298.147 463.372L299.693 465.663C300.381 466.684 301.819 466.989 302.904 466.345Z" fill="#F7D3D2"/>
<path d="M267.638 487.279L271.573 484.943C272.658 484.299 272.98 482.949 272.292 481.928L270.746 479.637C270.058 478.616 268.62 478.311 267.535 478.955L263.601 481.291C262.515 481.935 262.194 483.285 262.882 484.306L264.427 486.597C265.116 487.618 266.553 487.923 267.638 487.279Z" fill="#F7D3D2"/>
<path d="M304.677 402.42L327.078 486.93" stroke="white" stroke-width="3" stroke-miterlimit="10"/>
<path d="M457.007 173.351C463.427 198.305 464.53 224.194 460.253 249.528C455.975 274.862 446.401 299.14 432.082 320.963C429.995 324.16 427.809 327.297 425.523 330.376C421.718 335.512 417.649 340.476 413.317 345.267C406.813 352.459 400.303 359.655 393.981 366.991L364.142 399.188L244.923 425.845L202.737 409.753C193.552 405.885 184.268 402.22 174.985 398.559C168.795 396.126 162.764 393.419 156.892 390.439C153.372 388.662 149.909 386.792 146.504 384.828C123.186 371.422 102.911 353.821 86.8486 333.04C70.7858 312.259 59.2517 288.708 52.9104 263.743C26.1064 158.966 94.683 53.8367 206.091 28.7535C317.403 3.69465 430.244 68.717 457.007 173.351Z" fill="url(#paint0_linear_2111_8000)"/>
<path d="M457.007 173.351C463.427 198.305 464.53 224.194 460.253 249.528C455.975 274.862 446.401 299.14 432.082 320.963C429.995 324.16 427.809 327.297 425.523 330.376C421.718 335.512 417.649 340.476 413.317 345.267C406.813 352.459 400.303 359.655 393.981 366.991L364.142 399.188L244.923 425.845L202.737 409.753C193.552 405.885 184.268 402.22 174.985 398.559C168.795 396.126 162.764 393.419 156.892 390.439C153.372 388.662 149.909 386.792 146.504 384.828C123.186 371.422 102.911 353.821 86.8486 333.04C70.7858 312.259 59.2517 288.708 52.9104 263.743C26.1064 158.966 94.683 53.8367 206.091 28.7535C317.403 3.69465 430.244 68.717 457.007 173.351Z" fill="#136E90"/>
<path opacity="0.1" d="M457.012 173.347C463.434 198.301 464.538 224.191 460.26 249.526C455.982 274.861 446.407 299.14 432.087 320.964C430 324.161 427.814 327.298 425.528 330.376C421.73 335.513 417.661 340.477 413.322 345.268C406.823 352.46 400.309 359.651 393.991 366.998L364.147 399.188L244.928 425.846L202.742 409.759C200.474 408.806 198.212 407.86 195.939 406.912C335.489 354.868 416.64 213.087 380.51 71.7589C379.631 68.3119 378.687 64.8928 377.678 61.5017C417.417 88.7707 445.543 128.423 457.012 173.347V173.347Z" fill="black"/>
<path d="M266.185 500.065L381.107 474.375L392.393 518.535C393.298 522.072 392.669 525.799 390.647 528.895C388.624 531.992 385.373 534.204 381.608 535.045L295.074 554.39C291.31 555.231 287.34 554.633 284.039 552.727C280.738 550.821 278.375 547.762 277.471 544.225L266.185 500.065Z" fill="#005271"/>
<path opacity="0.1" d="M381.137 474.351L392.014 516.982C392.513 518.933 392.598 520.956 392.265 522.936C391.931 524.916 391.185 526.814 390.07 528.522C388.954 530.23 387.491 531.714 385.764 532.889C384.037 534.065 382.079 534.908 380.003 535.372L321.038 548.555C333.723 540.399 344.456 529.848 352.552 517.574C360.649 505.3 365.932 491.572 368.066 477.263L381.137 474.351Z" fill="black"/>
<g opacity="0.2">
<path d="M262.342 191.879L222.552 199.847L229.034 228.129L268.824 220.161L262.342 191.879Z" fill="black"/>
<path d="M190.443 211.65L183.647 182.488L132.832 256.863L151.628 268.484L190.443 211.65ZM334.334 163.316C324.179 141.423 302.012 128.017 299.497 126.545L244.863 92.9087L224.904 122.117L223.518 124.19L230.316 153.343L251.552 122.223L282.625 141.349L287.368 144.263L287.705 144.46C287.769 144.469 289.777 145.685 292.728 147.81C298.753 152.184 308.644 160.678 313.792 171.692C321.415 188.145 327.901 207.804 313.307 236.33L320.312 266.458C321.866 264.514 322.802 263.157 323.142 262.664C337.378 242.239 344.342 223.124 344.51 204.14C344.63 187.714 339.452 174.281 334.334 163.316ZM219.92 280.8L219.165 280.625L218.814 280.576C216.609 280 214.458 279.252 212.383 278.341C210.46 277.552 208.079 276.497 205.205 275.09C200.822 272.961 195.345 270.043 188.53 266.029L173.158 256.528L161.032 274.282L176.31 283.725L176.515 283.859C199.992 297.686 211.113 300.739 215.1 301.406C227.959 304.408 241.298 305.121 254.426 303.508C260.457 302.729 266.393 301.409 272.153 299.565L273.533 299.11L268.679 278.226C255.907 283.041 239.657 285.304 219.92 280.8Z" fill="black"/>
<path d="M214.91 136.739L243.849 261.185L214.792 267.089L192.209 169.965L194.488 166.626L195.716 164.84L202.567 154.799L207.221 147.992L208.733 145.777L213.387 138.97L214.91 136.739Z" fill="black"/>
<path d="M282.273 152.195L311.119 276.389L310.778 276.704C309.667 277.789 308.404 278.889 307.092 279.999C306.666 280.374 306.219 280.763 305.769 281.117C304.593 282.098 303.348 283.076 302.035 284.051C300.832 284.963 299.573 285.869 298.259 286.766C297.543 287.251 296.818 287.735 296.072 288.233C295.118 288.853 294.117 289.476 293.088 290.094C292.288 290.576 291.461 291.046 290.614 291.522C288.947 292.47 287.197 293.387 285.363 294.272L284.02 294.909L252.251 158.302L282.273 152.195Z" fill="black"/>
</g>
<path fill-rule="evenodd" clip-rule="evenodd" d="M85.3718 153.916C87.4021 154.78 88.3121 157.039 87.4043 158.962C76.0118 183.088 72.2316 209.549 76.479 235.308C76.8225 237.392 75.3197 239.341 73.1224 239.662C70.9251 239.983 68.8654 238.554 68.5219 236.471C64.0308 209.233 68.0337 181.283 80.052 155.831C80.9598 153.909 83.3416 153.051 85.3718 153.916Z" fill="white"/>
<ellipse rx="4.44577" ry="4.22532" transform="matrix(1.0013 -0.000121426 0.00237747 0.998502 75.4782 250.227)" fill="white"/>
<defs>
<linearGradient id="paint0_linear_2111_8000" x1="89.0113" y1="142.642" x2="392.895" y2="421.688" gradientUnits="userSpaceOnUse">
<stop offset="0.0752592" stop-color="#FFE36C"/>
<stop offset="0.34375" stop-color="#E0EA71"/>
<stop offset="0.512785" stop-color="#CCEE74"/>
<stop offset="0.945102" stop-color="#6DD1E1"/>
</linearGradient>
</defs>
</svg>
