<svg width="18" height="20" viewBox="0 0 18 20" fill="none" xmlns="http://www.w3.org/2000/svg">
<path d="M6.93992 8.39001C6.36992 8.39001 5.91992 8.89001 5.91992 9.50001C5.91992 10.11 6.37992 10.61 6.93992 10.61C7.50992 10.61 7.95992 10.11 7.95992 9.50001C7.96992 8.89001 7.50992 8.39001 6.93992 8.39001ZM10.5899 8.39001C10.0199 8.39001 9.56992 8.89001 9.56992 9.50001C9.56992 10.11 10.0299 10.61 10.5899 10.61C11.1599 10.61 11.6099 10.11 11.6099 9.50001C11.6099 8.89001 11.1599 8.39001 10.5899 8.39001Z" fill="#136E90"/>
<path d="M15.45 0H2.05C0.92 0 0 0.92 0 2.06V15.58C0 16.72 0.92 17.64 2.05 17.64H13.39L12.86 15.79L14.14 16.98L15.35 18.1L17.5 20V2.06C17.5 0.92 16.58 0 15.45 0ZM11.59 13.06C11.59 13.06 11.23 12.63 10.93 12.25C12.24 11.88 12.74 11.06 12.74 11.06C12.33 11.33 11.94 11.52 11.59 11.65C11.09 11.86 10.61 12 10.14 12.08C9.18 12.26 8.3 12.21 7.55 12.07C6.98 11.96 6.49 11.8 6.08 11.64C5.85 11.55 5.6 11.44 5.35 11.3C5.32 11.28 5.29 11.27 5.26 11.25C5.24 11.24 5.23 11.23 5.22 11.22C5.04 11.12 4.94 11.05 4.94 11.05C4.94 11.05 5.42 11.85 6.69 12.23C6.39 12.61 6.02 13.06 6.02 13.06C3.81 12.99 2.97 11.54 2.97 11.54C2.97 8.32 4.41 5.71 4.41 5.71C5.85 4.63 7.22 4.66 7.22 4.66L7.32 4.78C5.52 5.3 4.69 6.09 4.69 6.09C4.69 6.09 4.91 5.97 5.28 5.8C6.35 5.33 7.2 5.2 7.55 5.17C7.61 5.16 7.66 5.15 7.72 5.15C8.33 5.07 9.02 5.05 9.74 5.13C10.69 5.24 11.71 5.52 12.75 6.09C12.75 6.09 11.96 5.34 10.26 4.82L10.4 4.66C10.4 4.66 11.77 4.63 13.21 5.71C13.21 5.71 14.65 8.32 14.65 11.54C14.65 11.54 13.8 12.99 11.59 13.06V13.06Z" fill="#136E90"/>
</svg>
