<svg width="19" height="21" viewBox="0 0 19 21" fill="none" xmlns="http://www.w3.org/2000/svg">
<path d="M7.73973 8.89001C7.16973 8.89001 6.71973 9.39001 6.71973 10C6.71973 10.61 7.17973 11.11 7.73973 11.11C8.30973 11.11 8.75973 10.61 8.75973 10C8.76973 9.39001 8.30973 8.89001 7.73973 8.89001ZM11.3897 8.89001C10.8197 8.89001 10.3697 9.39001 10.3697 10C10.3697 10.61 10.8297 11.11 11.3897 11.11C11.9597 11.11 12.4097 10.61 12.4097 10C12.4097 9.39001 11.9597 8.89001 11.3897 8.89001Z" fill="white"/>
<path d="M16.2498 0.5H2.8498C1.7198 0.5 0.799805 1.42 0.799805 2.56V16.08C0.799805 17.22 1.7198 18.14 2.8498 18.14H14.1898L13.6598 16.29L14.9398 17.48L16.1498 18.6L18.2998 20.5V2.56C18.2998 1.42 17.3798 0.5 16.2498 0.5ZM12.3898 13.56C12.3898 13.56 12.0298 13.13 11.7298 12.75C13.0398 12.38 13.5398 11.56 13.5398 11.56C13.1298 11.83 12.7398 12.02 12.3898 12.15C11.8898 12.36 11.4098 12.5 10.9398 12.58C9.9798 12.76 9.0998 12.71 8.3498 12.57C7.7798 12.46 7.28981 12.3 6.87981 12.14C6.64981 12.05 6.3998 11.94 6.1498 11.8C6.1198 11.78 6.0898 11.77 6.0598 11.75C6.0398 11.74 6.0298 11.73 6.0198 11.72C5.8398 11.62 5.7398 11.55 5.7398 11.55C5.7398 11.55 6.2198 12.35 7.4898 12.73C7.1898 13.11 6.8198 13.56 6.8198 13.56C4.6098 13.49 3.7698 12.04 3.7698 12.04C3.7698 8.82 5.2098 6.21 5.2098 6.21C6.6498 5.13 8.0198 5.16 8.0198 5.16L8.1198 5.28C6.3198 5.8 5.4898 6.59 5.4898 6.59C5.4898 6.59 5.70981 6.47 6.07981 6.3C7.14981 5.83 7.9998 5.7 8.3498 5.67C8.4098 5.66 8.4598 5.65 8.5198 5.65C9.1298 5.57 9.8198 5.55 10.5398 5.63C11.4898 5.74 12.5098 6.02 13.5498 6.59C13.5498 6.59 12.7598 5.84 11.0598 5.32L11.1998 5.16C11.1998 5.16 12.5698 5.13 14.0098 6.21C14.0098 6.21 15.4498 8.82 15.4498 12.04C15.4498 12.04 14.5998 13.49 12.3898 13.56V13.56Z" fill="white"/>
</svg>
