<svg width="17" height="17" viewBox="0 0 17 17" fill="none" xmlns="http://www.w3.org/2000/svg">
<path d="M1.53235 11.5972C1.25856 11.5972 0.99591 11.7059 0.802412 11.8996C0.608905 12.0931 0.5 12.3557 0.5 12.6295V13.6617C0.5 14.483 0.826351 15.2706 1.40708 15.8513C1.9878 16.4321 2.77548 16.7584 3.59689 16.7584H13.4031C14.2245 16.7584 15.0122 16.4322 15.5929 15.8513C16.1736 15.2706 16.5 14.4831 16.5 13.6617V12.6295C16.5 12.2607 16.3033 11.9199 15.9837 11.7354C15.6644 11.5511 15.2709 11.5511 14.9516 11.7354C14.6323 11.9199 14.4355 12.2607 14.4355 12.6295V13.6617C14.4355 13.9354 14.3268 14.1979 14.1331 14.3916C13.9396 14.5851 13.677 14.6938 13.4032 14.6938H3.59696C3.32316 14.6938 3.06052 14.5851 2.86702 14.3916C2.67333 14.1979 2.56461 13.9355 2.56461 13.6617V12.6295C2.56461 12.3557 2.45588 12.0931 2.26237 11.8996C2.06869 11.7059 1.80624 11.5972 1.53244 11.5972H1.53235Z" fill="white"/>
<path d="M8.50261 0.241709C8.22882 0.241709 7.96636 0.350434 7.77267 0.543941C7.57917 0.737628 7.47044 1.00008 7.47044 1.27388V8.84513L5.922 7.29669C5.74937 7.11596 5.51914 7.00094 5.27091 6.97178C5.0225 6.94261 4.77193 7.00094 4.56203 7.13684C4.3102 7.31109 4.14873 7.58812 4.12137 7.89323C4.09383 8.19816 4.20327 8.49967 4.42 8.71602L6.90769 11.1985C7.33143 11.621 7.90545 11.8582 8.50383 11.8582C9.1022 11.8582 9.6762 11.621 10.1 11.1985L12.5902 8.71602C12.8069 8.49965 12.9164 8.19815 12.889 7.89323C12.8616 7.58812 12.7002 7.31108 12.4483 7.13684C12.2385 7.00094 11.9877 6.94261 11.7395 6.97178C11.4912 7.00094 11.2608 7.11596 11.0884 7.29669L9.53993 8.84513V1.27388C9.53993 0.999189 9.43048 0.735827 9.23571 0.542144C9.04112 0.348458 8.77724 0.240271 8.50255 0.241713L8.50261 0.241709Z" fill="white"/>
</svg>
