<svg width="38" height="38" viewBox="0 0 38 38" fill="none" xmlns="http://www.w3.org/2000/svg">
<g filter="url(#filter0_d_1854_7142)">
<path d="M34 15C34 6.71572 27.2843 0 19 0C10.7157 0 4 6.71572 4 15C4 22.4868 9.48525 28.6925 16.6562 29.8178V19.3359H12.8477V15H16.6562V11.6953C16.6562 7.93594 18.8957 5.85938 22.322 5.85938C23.9626 5.85938 25.6797 6.15234 25.6797 6.15234V9.84375H23.7883C21.925 9.84375 21.3438 11.0001 21.3438 12.1875V15H25.5039L24.8389 19.3359H21.3438V29.8178C28.5147 28.6925 34 22.4868 34 15Z" fill="white"/>
<path d="M24.8389 19.3359L25.5039 15H21.3438V12.1875C21.3438 11.0013 21.925 9.84375 23.7883 9.84375H25.6797V6.15234C25.6797 6.15234 23.9632 5.85938 22.322 5.85938C18.8957 5.85938 16.6562 7.93594 16.6562 11.6953V15H12.8477V19.3359H16.6562V29.8178C18.2093 30.0607 19.7907 30.0607 21.3438 29.8178V19.3359H24.8389Z" fill="#173A52"/>
</g>
<defs>
<filter id="filter0_d_1854_7142" x="0" y="0" width="38" height="38" filterUnits="userSpaceOnUse" color-interpolation-filters="sRGB">
<feFlood flood-opacity="0" result="BackgroundImageFix"/>
<feColorMatrix in="SourceAlpha" type="matrix" values="0 0 0 0 0 0 0 0 0 0 0 0 0 0 0 0 0 0 127 0" result="hardAlpha"/>
<feOffset dy="4"/>
<feGaussianBlur stdDeviation="2"/>
<feComposite in2="hardAlpha" operator="out"/>
<feColorMatrix type="matrix" values="0 0 0 0 0 0 0 0 0 0 0 0 0 0 0 0 0 0 0.25 0"/>
<feBlend mode="normal" in2="BackgroundImageFix" result="effect1_dropShadow_1854_7142"/>
<feBlend mode="normal" in="SourceGraphic" in2="effect1_dropShadow_1854_7142" result="shape"/>
</filter>
</defs>
</svg>
