<svg width="585" height="372" viewBox="0 0 585 372" fill="none" xmlns="http://www.w3.org/2000/svg">
<g opacity="0.85">
<path d="M410.998 451.313C456.428 445.894 488.628 403.588 482.919 356.821C477.209 310.054 435.753 276.535 390.323 281.954C344.893 287.373 312.693 329.678 318.402 376.445C324.111 423.212 365.568 456.731 410.998 451.313Z" fill="white"/>
<path d="M497.775 429.661C519.314 427.092 534.581 407.034 531.874 384.86C529.168 362.686 509.512 346.793 487.972 349.363C466.432 351.932 451.165 371.99 453.872 394.164C456.579 416.338 476.235 432.23 497.775 429.661Z" fill="white"/>
<path d="M117.172 396.732C133.53 399.099 148.661 387.719 150.968 371.314C153.275 354.908 141.884 339.69 125.526 337.323C109.168 334.956 94.0372 346.336 91.7304 362.742C89.4236 379.147 100.814 394.365 117.172 396.732Z" fill="white"/>
<path d="M92.033 349.74C108.078 352.062 122.969 340.543 125.293 324.011C127.618 307.48 116.495 292.196 100.451 289.875C84.4061 287.553 69.515 299.072 67.1905 315.603C64.866 332.135 75.9884 347.418 92.033 349.74Z" fill="white"/>
<path d="M41.808 237.182C53.5292 238.878 64.4077 230.463 66.1059 218.386C67.804 206.31 59.6787 195.144 47.9575 193.448C36.2363 191.752 25.3578 200.167 23.6596 212.244C21.9615 224.321 30.0868 235.486 41.808 237.182Z" fill="white"/>
<path d="M24.8246 251.032C35.7614 252.614 45.9119 244.762 47.4964 233.494C49.0809 222.225 41.4994 211.807 30.5626 210.224C19.6258 208.642 9.47528 216.494 7.89079 227.762C6.3063 239.031 13.8878 249.449 24.8246 251.032Z" fill="white"/>
<path d="M-1.5189 224.669C25.2563 228.544 50.1065 209.321 53.9856 181.733C57.8647 154.146 39.3038 128.641 12.5286 124.767C-14.2466 120.892 -39.0968 140.115 -42.9759 167.703C-46.855 195.29 -28.2941 220.795 -1.5189 224.669Z" fill="white"/>
<path d="M3.45304 284.162C10.0398 285.115 16.153 280.386 17.1072 273.6C18.0615 266.813 13.4955 260.539 6.90875 259.586C0.322021 258.633 -5.79116 263.362 -6.74543 270.148C-7.6997 276.935 -3.13369 283.209 3.45304 284.162Z" fill="white"/>
<path d="M41.8398 294.52C48.4265 295.473 54.5397 290.744 55.4939 283.958C56.4482 277.171 51.8822 270.897 45.2955 269.944C38.7087 268.991 32.5956 273.72 31.6413 280.506C30.687 287.293 35.253 293.567 41.8398 294.52Z" fill="white"/>
<path d="M76.9867 247.506C90.7377 249.496 103.431 240.117 105.337 226.556C107.244 212.996 97.6425 200.391 83.8915 198.401C70.1405 196.411 57.4475 205.791 55.5408 219.351C53.6341 232.911 63.2358 245.516 76.9867 247.506Z" fill="white"/>
<path d="M159.661 376.137C183.247 379.55 205.137 362.617 208.554 338.315C211.971 314.014 195.621 291.547 172.035 288.134C148.449 284.721 126.559 301.654 123.142 325.956C119.725 350.257 136.075 372.724 159.661 376.137Z" fill="white"/>
<path d="M103.141 414.775C134.365 419.293 163.344 396.876 167.867 364.705C172.391 332.534 150.746 302.791 119.522 298.273C88.2983 293.754 59.3192 316.172 54.7956 348.343C50.2719 380.514 71.9168 410.257 103.141 414.775Z" fill="white"/>
<path d="M292.815 410.247C320.38 406.959 339.918 381.289 336.454 352.912C332.99 324.536 307.835 304.197 280.27 307.485C252.705 310.773 233.167 336.443 236.631 364.819C240.095 393.196 265.25 413.535 292.815 410.247Z" fill="white"/>
<path d="M115.657 540.392C161.099 546.967 203.275 514.342 209.858 467.521C216.442 420.699 184.94 377.413 139.498 370.837C94.0553 364.261 51.8797 396.886 45.2961 443.708C38.7125 490.529 70.214 533.816 115.657 540.392Z" fill="white"/>
<path d="M215.859 403.079C235.041 400.79 248.638 382.927 246.227 363.18C243.816 343.434 226.312 329.28 207.129 331.568C187.947 333.856 174.351 351.719 176.761 371.466C179.172 391.213 196.677 405.367 215.859 403.079Z" fill="white"/>
<path d="M182.701 478.261C214.221 474.501 236.562 445.149 232.601 412.701C228.64 380.254 199.877 356.998 168.357 360.757C136.837 364.517 114.496 393.869 118.457 426.317C122.419 458.764 151.182 482.02 182.701 478.261Z" fill="white"/>
<path d="M117.066 309.828C134.118 312.296 149.891 300.433 152.296 283.331C154.7 266.23 142.826 250.366 125.774 247.899C108.723 245.431 92.9501 257.294 90.5454 274.396C88.1408 291.497 100.015 307.361 117.066 309.828Z" fill="white"/>
<path d="M80.9523 323.703C95.7475 325.844 109.433 315.551 111.519 300.713C113.606 285.875 103.303 272.11 88.5079 269.969C73.7127 267.828 60.0274 278.122 57.9409 292.96C55.8545 307.798 66.1571 321.562 80.9523 323.703Z" fill="white"/>
<path d="M41.0109 322.497C66.5252 326.189 90.1255 308.438 93.7235 282.85C97.3215 257.261 79.5549 233.525 54.0405 229.833C28.5262 226.141 4.92599 243.891 1.32797 269.48C-2.27006 295.068 15.4966 318.805 41.0109 322.497Z" fill="white"/>
<path d="M-8.47374 340.815C17.0406 344.507 42.1349 316.131 47.5759 277.436C53.0169 238.74 36.7443 204.378 11.23 200.686C-14.2843 196.994 -39.3786 225.37 -44.8196 264.066C-50.2607 302.761 -33.9881 337.123 -8.47374 340.815Z" fill="white"/>
<path d="M37.4354 420.511C69.7937 425.194 99.7246 402.682 104.288 370.229C108.851 337.777 86.3185 307.673 53.9601 302.991C21.6017 298.308 -8.32907 320.82 -12.8922 353.273C-17.4554 385.725 5.07703 415.829 37.4354 420.511Z" fill="white"/>
</g>
<path d="M251.575 125.39L217.35 200.842C216.576 202.544 215.179 203.863 213.466 204.51C211.754 205.157 209.864 205.078 208.213 204.292L170.775 186.418C169.958 186.028 169.224 185.475 168.615 184.792C168.006 184.109 167.535 183.308 167.227 182.436C166.92 181.564 166.783 180.637 166.823 179.709C166.864 178.78 167.082 177.868 167.464 177.025L201.69 101.573C208.146 87.3786 232.139 64.3748 245.91 70.9566C259.68 77.5383 258.003 111.178 251.575 125.39Z" fill="#173A52"/>
<path d="M174.54 188.218L204.679 202.608L206.436 209.519C206.539 209.923 206.527 210.349 206.403 210.748C206.279 211.146 206.047 211.5 205.736 211.769C205.424 212.038 205.045 212.21 204.642 212.266C204.24 212.322 203.831 212.258 203.463 212.084L168.255 195.276C167.888 195.1 167.578 194.82 167.36 194.468C167.143 194.117 167.027 193.708 167.027 193.291C167.026 192.873 167.142 192.463 167.359 192.109C167.576 191.755 167.886 191.472 168.253 191.292L174.54 188.218Z" fill="#173A52"/>
<path d="M190.919 96.4352L156.694 171.881C156.312 172.725 155.773 173.484 155.107 174.114C154.441 174.745 153.662 175.234 152.813 175.555C151.964 175.876 151.064 176.022 150.162 175.985C149.26 175.947 148.375 175.727 147.557 175.337L110.125 157.464C108.474 156.676 107.197 155.244 106.576 153.483C105.954 151.721 106.037 149.775 106.808 148.071L141.034 72.6187C147.49 58.4239 171.483 35.4202 185.254 42.0019C199.024 48.5837 197.35 82.199 190.919 96.4352Z" fill="#173A52"/>
<path d="M113.886 159.262L144.044 173.649L145.806 180.567C145.906 180.972 145.893 181.397 145.768 181.795C145.643 182.193 145.411 182.546 145.099 182.814C144.787 183.083 144.408 183.255 144.006 183.311C143.604 183.367 143.195 183.304 142.827 183.131L107.601 166.321C107.234 166.145 106.923 165.864 106.706 165.513C106.488 165.161 106.373 164.753 106.372 164.335C106.372 163.917 106.487 163.508 106.704 163.154C106.921 162.8 107.231 162.516 107.598 162.336L113.886 159.262Z" fill="#173A52"/>
<path d="M160.761 60.199C164.663 54.988 169.906 51.008 175.891 48.7155" stroke="white" stroke-width="3" stroke-linecap="round" stroke-linejoin="round"/>
<path d="M235.069 194.689L257.249 205.28L252.073 216.688C251.609 217.711 250.771 218.504 249.742 218.892C248.713 219.281 247.578 219.233 246.587 218.76L231.876 211.735C230.885 211.262 230.118 210.402 229.746 209.344C229.373 208.286 229.424 207.117 229.888 206.095L235.063 194.686L235.069 194.689Z" fill="#4B9B3A"/>
<path d="M292.792 179.282C292.792 179.282 294.73 201.267 282.521 204.902C270.312 208.538 271.842 186.211 271.842 186.211L271.424 172.912L290.575 160.201C290.575 160.201 292.754 173.112 292.792 179.282Z" fill="#4B9B3A"/>
<path d="M332.016 211.772C332.075 218.36 336.951 223.84 342.889 223.991L342.997 235.932L256.856 233.736L256.749 221.789C262.675 221.938 267.449 216.704 267.396 210.118C267.344 203.531 262.461 198.05 256.523 197.899L256.417 185.953L342.557 188.154L342.663 200.101C336.738 199.947 331.94 205.177 332.016 211.772Z" fill="#E66560"/>
<path d="M168.773 102.238C168.773 102.238 117.209 163.374 206.779 199.741C282.871 230.634 290.491 160.34 290.491 160.34C295.569 158.575 300.171 155.591 303.916 151.637C307.662 147.683 310.443 142.872 312.03 137.602C313.617 132.331 313.964 126.753 313.043 121.328C312.122 115.903 309.959 110.787 306.732 106.404L306.741 106.342C308.124 104.686 309.284 102.846 310.19 100.872C312.498 95.7806 313.049 90.0377 311.752 84.5959C310.454 79.1542 307.387 74.3412 303.058 70.9557C298.729 67.5703 293.4 65.8161 287.954 65.9844C282.509 66.1528 277.275 68.2334 273.122 71.8811L271.974 71.3431L251.408 61.5275L250.692 61.1843C250.797 55.1726 248.753 49.3403 244.949 44.7961C241.146 40.2518 235.847 37.3123 230.06 36.5364C224.273 35.7605 218.402 37.2023 213.563 40.5877C208.723 43.973 205.253 49.066 203.811 54.8984L203.763 54.8915C198.003 54.2823 192.182 55.2122 186.86 57.5915C181.538 59.9708 176.895 63.7192 173.379 68.4754C169.862 73.2315 167.592 78.835 166.786 84.7454C165.979 90.6558 166.665 96.6738 168.775 102.219L168.773 102.238Z" fill="#49B236"/>
<path d="M156.72 157.281L177.468 167.188L172.179 178.846C171.745 179.802 170.961 180.544 169.999 180.907C169.036 181.27 167.975 181.226 167.048 180.783L153.286 174.212C152.358 173.769 151.642 172.964 151.293 171.975C150.944 170.986 150.992 169.892 151.426 168.936L156.715 157.278L156.72 157.281Z" fill="#49B236"/>
<path d="M259.803 174.238L244.726 207.496C234.497 208.058 222.005 205.916 206.789 199.737C190.038 192.951 178.231 185.285 170.087 177.324L187.209 139.577C189.403 134.768 193.354 131.041 198.198 129.213C203.042 127.384 208.383 127.603 213.053 129.821L250.457 147.677C255.111 149.921 258.706 153.973 260.456 158.95C262.207 163.926 261.973 169.422 259.803 174.238Z" fill="#9CD43D"/>
<path d="M283.355 108.278C287.723 108.911 291.777 105.775 292.409 101.274C293.042 96.7736 290.014 92.6128 285.646 91.9808C281.278 91.3487 277.224 94.4847 276.591 98.9852C275.959 103.486 278.987 107.646 283.355 108.278Z" fill="black"/>
<path d="M225.314 80.5718C229.682 81.2039 233.735 78.0679 234.368 73.5674C235.001 69.0669 231.973 64.9062 227.605 64.2741C223.237 63.642 219.183 66.778 218.55 71.2785C217.918 75.779 220.946 79.9397 225.314 80.5718Z" fill="black"/>
<path d="M245.401 90.5828L262.332 98.6621C263.154 99.053 263.865 99.6512 264.402 100.401C264.938 101.152 265.282 102.03 265.401 102.954C265.52 103.879 265.411 104.821 265.084 105.693C264.757 106.565 264.222 107.339 263.529 107.944C260.001 110.976 254.549 113.245 247.044 109.662C239.539 106.08 237.721 100.339 237.714 95.6041C237.72 94.6721 237.954 93.7558 238.394 92.9394C238.834 92.123 239.466 91.433 240.232 90.9328C240.998 90.4326 241.873 90.1383 242.776 90.0772C243.679 90.016 244.582 90.1899 245.401 90.5828V90.5828Z" fill="white"/>
<path d="M305.862 134.657C308.993 127.755 305.816 119.432 298.767 116.066C291.718 112.7 283.466 115.566 280.335 122.467C277.204 129.368 280.38 137.691 287.43 141.057C294.479 144.423 302.731 141.558 305.862 134.657Z" fill="#9CD43D"/>
<path d="M216.079 91.7884C219.21 84.8873 216.033 76.5642 208.984 73.1982C201.935 69.8322 193.682 72.6979 190.552 79.599C187.421 86.5001 190.597 94.8232 197.646 98.1892C204.696 101.555 212.948 98.6895 216.079 91.7884Z" fill="#9CD43D"/>
<path d="M217.78 188.814C217.565 188.713 217.373 188.568 217.213 188.389C217.053 188.21 216.93 188 216.85 187.771L212.988 176.818C212.899 176.378 212.968 175.919 213.18 175.526C213.393 175.132 213.736 174.83 214.146 174.674C214.556 174.519 215.006 174.52 215.414 174.678C215.822 174.836 216.161 175.141 216.368 175.535L220.235 186.496C220.347 186.839 220.359 187.209 220.27 187.56C220.182 187.911 219.996 188.229 219.736 188.474C219.476 188.719 219.153 188.882 218.806 188.942C218.459 189.003 218.102 188.958 217.78 188.814V188.814Z" fill="#49B236"/>
<path d="M210.539 185.352C210.224 185.192 209.961 184.94 209.782 184.629C209.604 184.317 209.517 183.958 209.533 183.596C209.549 183.234 209.667 182.884 209.872 182.588C210.077 182.293 210.361 182.065 210.689 181.932L221.35 177.908C221.58 177.778 221.834 177.701 222.095 177.682C222.356 177.662 222.618 177.701 222.863 177.796C223.107 177.89 223.329 178.038 223.513 178.229C223.697 178.42 223.838 178.65 223.927 178.903C224.016 179.156 224.051 179.426 224.03 179.695C224.008 179.964 223.93 180.224 223.802 180.46C223.673 180.695 223.497 180.899 223.285 181.059C223.074 181.218 222.831 181.328 222.575 181.382L211.919 185.413C211.468 185.58 210.972 185.558 210.539 185.352V185.352Z" fill="#49B236"/>
<path d="M138.989 181.308L111.354 168.113L69.0841 261.288L96.7184 274.484L138.989 181.308Z" fill="#F6FCF9"/>
<path d="M199.52 210.211L171.886 197.015L110.928 331.383L138.562 344.578L199.52 210.211Z" fill="#F6FCF9"/>
<path d="M156.194 150.425L297.479 163.186" stroke="#015271" stroke-width="13" stroke-miterlimit="10" stroke-linecap="round"/>
<path d="M170.456 104.234L223.756 151.582L277.057 198.929" stroke="#015271" stroke-width="13" stroke-miterlimit="10" stroke-linecap="round"/>
<path d="M144.837 115.753C144.837 115.753 133.112 97.3195 142.265 88.2238C151.418 79.1282 160.252 99.5385 160.252 99.5385L166.678 111.052L155.513 131.5C155.513 131.5 147.659 121.179 144.837 115.753Z" fill="#49B236"/>
</svg>
