<svg width="132" height="213" viewBox="0 0 132 213" fill="none" xmlns="http://www.w3.org/2000/svg">
<path fill-rule="evenodd" clip-rule="evenodd" d="M91.0377 27.1754L6.58345 208.288L0 205.218L84.4543 24.1055L91.0377 27.1754Z" fill="white" fill-opacity="0.75"/>
<path fill-rule="evenodd" clip-rule="evenodd" d="M102.628 31.577L18.1733 212.69L11.5898 209.62L96.0441 28.5071L102.628 31.577Z" fill="white" fill-opacity="0.75"/>
<path d="M110.319 19.3163L103.957 33.3079C103.813 33.6235 103.554 33.8681 103.235 33.9881C102.917 34.108 102.566 34.0935 102.259 33.9476L95.2996 30.6332C95.1477 30.5608 95.0112 30.4584 94.8981 30.3317C94.7849 30.205 94.6973 30.0566 94.6401 29.8948C94.583 29.7331 94.5574 29.5612 94.565 29.3891C94.5726 29.2169 94.6131 29.0478 94.6842 28.8914L101.046 14.8999C102.246 12.2676 106.706 8.00187 109.266 9.22238C111.826 10.4429 111.514 16.681 110.319 19.3163Z" fill="#173A52"/>
<path d="M95.9978 30.9648L101.6 33.6334L101.927 34.9149C101.946 34.9898 101.944 35.0688 101.921 35.1427C101.898 35.2165 101.855 35.2822 101.797 35.3321C101.739 35.3819 101.668 35.4139 101.593 35.4242C101.519 35.4345 101.443 35.4228 101.374 35.3904L94.8295 32.2737C94.7613 32.2411 94.7036 32.1891 94.6632 32.1239C94.6227 32.0587 94.6012 31.9829 94.6012 31.9055C94.6011 31.828 94.6225 31.7521 94.6629 31.6864C94.7032 31.6208 94.7609 31.5683 94.8291 31.5349L95.9978 30.9648Z" fill="#173A52"/>
<path d="M99.0396 13.9449L92.6777 27.9354C92.6067 28.0919 92.5065 28.2326 92.3827 28.3495C92.2589 28.4664 92.114 28.5572 91.9562 28.6168C91.7985 28.6763 91.631 28.7033 91.4634 28.6964C91.2958 28.6894 91.1312 28.6486 90.9792 28.5762L84.0211 25.2619C83.7142 25.1158 83.4769 24.8503 83.3613 24.5236C83.2457 24.197 83.2612 23.8361 83.4045 23.5201L89.7666 9.52848C90.9667 6.89623 95.4268 2.63048 97.9865 3.85099C100.546 5.07149 100.235 11.305 99.0396 13.9449Z" fill="#173A52"/>
<path d="M84.7185 25.5967L90.3246 28.2646L90.6521 29.5474C90.6707 29.6224 90.6683 29.7013 90.645 29.775C90.6217 29.8488 90.5786 29.9144 90.5207 29.9641C90.4627 30.0139 90.3922 30.0458 90.3175 30.0562C90.2428 30.0665 90.1668 30.0549 90.0984 30.0227L83.5503 26.9056C83.482 26.8729 83.4243 26.8209 83.3839 26.7557C83.3434 26.6905 83.3219 26.6148 83.3219 26.5373C83.3218 26.4599 83.3432 26.3839 83.3836 26.3183C83.4239 26.2526 83.4816 26.2001 83.5498 26.1667L84.7185 25.5967Z" fill="#173A52"/>
<path d="M93.4349 7.22684C94.1601 6.26051 95.1348 5.52249 96.2473 5.09737" stroke="white" stroke-linecap="round" stroke-linejoin="round"/>
<path d="M107.242 32.166L111.365 34.13L110.403 36.2455C110.317 36.4352 110.161 36.5822 109.97 36.6542C109.778 36.7262 109.568 36.7174 109.383 36.6296L106.649 35.327C106.464 35.2392 106.322 35.0797 106.253 34.8836C106.183 34.6874 106.193 34.4707 106.279 34.2811L107.241 32.1655L107.242 32.166Z" fill="#4B9B3A"/>
<path d="M117.978 29.3106C117.978 29.3106 118.338 33.3873 116.069 34.0615C113.799 34.7357 114.083 30.5954 114.083 30.5954L114.006 28.1294L117.566 25.7723C117.566 25.7723 117.971 28.1664 117.978 29.3106Z" fill="#4B9B3A"/>
<path d="M125.271 35.3326C125.281 36.5541 126.188 37.5704 127.292 37.5983L127.312 39.8127L111.299 39.4054L111.279 37.1901C112.381 37.2177 113.268 36.2471 113.259 35.0258C113.249 33.8044 112.341 32.788 111.237 32.76L111.218 30.5447L127.23 30.9529L127.25 33.1683C126.148 33.1397 125.256 34.1096 125.271 35.3326Z" fill="#E66560"/>
<path d="M94.9223 15.0202C94.9223 15.0202 85.3371 26.3571 101.987 33.1009C116.132 38.8296 117.548 25.7945 117.548 25.7945C118.492 25.4671 119.348 24.914 120.044 24.1808C120.74 23.4475 121.257 22.5554 121.552 21.578C121.847 20.6006 121.912 19.5662 121.74 18.5602C121.569 17.5542 121.167 16.6056 120.567 15.7928L120.569 15.7813C120.826 15.4742 121.042 15.1329 121.21 14.7669C121.639 13.8228 121.741 12.7579 121.5 11.7488C121.259 10.7397 120.689 9.84716 119.884 9.21937C119.08 8.59158 118.089 8.2663 117.077 8.29751C116.064 8.32873 115.092 8.71456 114.319 9.39097L114.106 9.29121L110.283 7.47104L110.15 7.40739C110.17 6.2926 109.79 5.21108 109.083 4.3684C108.375 3.52573 107.39 2.98064 106.315 2.83676C105.239 2.69288 104.148 2.96024 103.248 3.58801C102.349 4.21579 101.703 5.16021 101.435 6.24176L101.427 6.24047C100.356 6.12751 99.2737 6.29995 98.2844 6.74116C97.2951 7.18237 96.432 7.87746 95.7784 8.75943C95.1248 9.6414 94.7028 10.6805 94.5529 11.7765C94.403 12.8725 94.5304 13.9885 94.9227 15.0168L94.9223 15.0202Z" fill="#49B236"/>
<path d="M92.6807 25.2278L96.5374 27.0649L95.5544 29.2267C95.4737 29.4041 95.3279 29.5416 95.149 29.6089C94.9701 29.6763 94.7728 29.668 94.6005 29.586L92.0422 28.3673C91.8699 28.2853 91.7367 28.1361 91.6719 27.9526C91.607 27.7691 91.6159 27.5664 91.6966 27.389L92.6797 25.2273L92.6807 25.2278Z" fill="#49B236"/>
<path d="M111.844 28.3752L109.042 34.5425C107.14 34.6467 104.818 34.2495 101.99 33.1036C98.8759 31.8452 96.6811 30.4237 95.1673 28.9474L98.3501 21.9478C98.7579 21.056 99.4924 20.3649 100.393 20.0258C101.293 19.6868 102.286 19.7273 103.154 20.1386L110.107 23.4498C110.972 23.8659 111.64 24.6174 111.966 25.5402C112.291 26.463 112.248 27.4821 111.844 28.3752Z" fill="#9CD43D"/>
<path d="M116.22 16.1421C117.032 16.2593 117.785 15.6778 117.903 14.8433C118.021 14.0087 117.458 13.2372 116.646 13.1199C115.834 13.0027 115.08 13.5843 114.963 14.4188C114.845 15.2534 115.408 16.0249 116.22 16.1421Z" fill="black"/>
<path d="M105.436 11.0047C106.248 11.1219 107.001 10.5404 107.119 9.70582C107.237 8.87126 106.674 8.0997 105.862 7.98249C105.05 7.86528 104.296 8.44681 104.179 9.28136C104.061 10.1159 104.624 10.8875 105.436 11.0047Z" fill="black"/>
<path d="M109.166 12.8622L112.314 14.3604C112.466 14.4329 112.599 14.5439 112.698 14.683C112.798 14.8221 112.862 14.9849 112.884 15.1564C112.906 15.3279 112.886 15.5026 112.825 15.6643C112.764 15.826 112.665 15.9695 112.536 16.0817C111.88 16.644 110.867 17.0646 109.472 16.4003C108.077 15.736 107.739 14.6714 107.738 13.7934C107.739 13.6205 107.782 13.4506 107.864 13.2992C107.946 13.1479 108.063 13.0199 108.206 12.9271C108.348 12.8344 108.511 12.7798 108.678 12.7685C108.846 12.7571 109.014 12.7894 109.166 12.8622V12.8622Z" fill="white"/>
<path d="M120.412 21.0336C120.994 19.7539 120.404 18.2104 119.093 17.5863C117.783 16.9621 116.249 17.4935 115.667 18.7732C115.085 20.0529 115.676 21.5963 116.986 22.2205C118.296 22.8447 119.83 22.3133 120.412 21.0336Z" fill="#9CD43D"/>
<path d="M103.721 13.0848C104.303 11.8051 103.712 10.2617 102.402 9.63753C101.092 9.01334 99.5576 9.54476 98.9756 10.8245C98.3937 12.1042 98.9841 13.6476 100.294 14.2718C101.605 14.896 103.139 14.3646 103.721 13.0848Z" fill="#9CD43D"/>
<path d="M104.03 31.0763C103.991 31.0575 103.955 31.0308 103.925 30.9976C103.895 30.9644 103.872 30.9254 103.858 30.883L103.14 28.8518C103.123 28.7702 103.136 28.6852 103.175 28.6122C103.215 28.5392 103.279 28.4832 103.355 28.4543C103.431 28.4254 103.515 28.4257 103.591 28.455C103.667 28.4843 103.729 28.5408 103.768 28.614L104.487 30.6465C104.508 30.7102 104.51 30.7787 104.493 30.8438C104.477 30.9089 104.442 30.9678 104.394 31.0133C104.346 31.0588 104.286 31.089 104.221 31.1001C104.157 31.1113 104.09 31.103 104.03 31.0763V31.0763Z" fill="#49B236"/>
<path d="M102.687 30.435C102.628 30.4053 102.579 30.3587 102.546 30.3009C102.513 30.2431 102.497 30.1766 102.5 30.1094C102.503 30.0423 102.525 29.9773 102.563 29.9225C102.601 29.8677 102.654 29.8254 102.715 29.8008L104.696 29.0547C104.739 29.0306 104.786 29.0163 104.835 29.0127C104.883 29.0091 104.932 29.0163 104.978 29.0338C105.023 29.0513 105.064 29.0788 105.098 29.1142C105.133 29.1496 105.159 29.1923 105.175 29.2392C105.192 29.2861 105.198 29.3362 105.194 29.386C105.19 29.4358 105.176 29.4842 105.152 29.5278C105.128 29.5715 105.096 29.6094 105.056 29.6389C105.017 29.6684 104.972 29.6889 104.924 29.6989L102.943 30.4463C102.859 30.4774 102.767 30.4733 102.687 30.435V30.435Z" fill="#49B236"/>
<path fill-rule="evenodd" clip-rule="evenodd" d="M119.62 26.3943C119.584 26.8132 119.215 27.1223 118.796 27.0845L92.533 24.7183C92.1143 24.6806 91.8044 24.3104 91.8408 23.8915C91.8771 23.4726 92.2459 23.1635 92.6646 23.2013L118.928 25.5675C119.346 25.6052 119.656 25.9754 119.62 26.3943Z" fill="#015271"/>
<path fill-rule="evenodd" clip-rule="evenodd" d="M94.6792 14.8856C94.9572 14.571 95.438 14.5424 95.7531 14.8217L115.569 32.3817C115.884 32.661 115.914 33.1424 115.636 33.4569C115.358 33.7714 114.877 33.8 114.562 33.5208L94.7464 15.9607C94.4313 15.6814 94.4012 15.2001 94.6792 14.8856Z" fill="#015271"/>
<path d="M90.4884 17.5236C90.4884 17.5236 88.3089 14.1055 90.0103 12.4188C91.7118 10.7321 93.3539 14.5169 93.3539 14.5169L94.5485 16.6521L92.473 20.4438C92.473 20.4438 91.013 18.5298 90.4884 17.5236Z" fill="#49B236"/>
</svg>
