<svg width="1159" height="683" viewBox="0 0 1159 683" fill="none" xmlns="http://www.w3.org/2000/svg">
<path opacity="0.65" d="M0 0C0 0 416.859 108.662 507.491 146.225C596.454 183.086 520.887 222.569 470.359 222.569C419.831 222.569 129.304 198.94 0.761999 161.98L0 0Z" fill="url(#paint0_linear_2376_8467)"/>
<path opacity="0.65" d="M194.756 0C194.756 0 540.12 115.858 735.142 143.298C930.165 170.738 1033.93 195.891 993.478 236.289C953.026 276.687 426.611 198.178 390.044 333.853C353.478 469.529 1013.96 348.503 1097 537.451V686H0V0H194.756Z" fill="url(#paint1_linear_2376_8467)"/>
<defs>
<linearGradient id="paint0_linear_2376_8467" x1="69.3876" y1="224.36" x2="399.813" y2="20.2017" gradientUnits="userSpaceOnUse">
<stop stop-color="#E1F7D5"/>
<stop offset="1" stop-color="#B0EBE9"/>
</linearGradient>
<linearGradient id="paint1_linear_2376_8467" x1="50.561" y1="650.923" x2="844.092" y2="160.744" gradientUnits="userSpaceOnUse">
<stop stop-color="#FCFCD1"/>
<stop offset="1" stop-color="#56DAEA"/>
</linearGradient>
</defs>
</svg>
