<svg width="487" height="788" viewBox="0 0 487 788" fill="none" xmlns="http://www.w3.org/2000/svg">
<rect width="327" height="687" transform="translate(90 101)" fill="url(#paint0_linear_2111_7923)"/>
<mask id="mask0_2111_7923" style="mask-type:alpha" maskUnits="userSpaceOnUse" x="90" y="101" width="327" height="687">
<rect x="90" y="101" width="327" height="687" fill="#C4C4C4"/>
</mask>
<g mask="url(#mask0_2111_7923)">
<path opacity="0.65" d="M-480 101C-480 101 251.571 291.714 410.627 357.639C566.754 422.334 434.137 491.631 345.462 491.631C256.787 491.631 -253.077 450.16 -478.663 385.291L-480 101Z" fill="url(#paint1_linear_2111_7923)"/>
<path opacity="0.65" d="M-138.246 101C-138.246 101 467.795 304.342 810.017 352.502C1152.24 400.662 1334.33 444.809 1263.34 515.711C1192.36 586.613 268.611 448.822 204.444 686.947C140.278 925.071 1299.29 712.659 1445 1044.28V1305H-480V101H-138.246Z" fill="url(#paint2_linear_2111_7923)"/>
<path d="M230.421 604.794C243.528 603.234 252.817 591.059 251.17 577.599C249.523 564.139 237.563 554.492 224.456 556.052C211.35 557.612 202.06 569.787 203.707 583.247C205.354 596.706 217.314 606.353 230.421 604.794Z" fill="white"/>
<path d="M275.342 595.244C292.087 593.252 303.955 577.697 301.85 560.501C299.746 543.306 284.466 530.981 267.722 532.974C250.977 534.966 239.109 550.521 241.213 567.717C243.318 584.912 258.598 597.237 275.342 595.244Z" fill="white"/>
<path d="M319.154 602.203C337.019 600.077 349.682 583.481 347.437 565.134C345.192 546.787 328.889 533.637 311.023 535.763C293.158 537.889 280.495 554.485 282.74 572.832C284.985 591.179 301.288 604.329 319.154 602.203Z" fill="white"/>
<path d="M327.769 557.02C349.437 554.442 364.795 534.313 362.072 512.061C359.349 489.81 339.576 473.861 317.908 476.439C296.24 479.018 280.882 499.147 283.605 521.398C286.328 543.65 306.101 559.598 327.769 557.02Z" fill="white"/>
<path d="M150.653 581.036C164.03 579.445 173.511 567.018 171.83 553.281C170.149 539.544 157.942 529.698 144.565 531.29C131.189 532.882 121.707 545.308 123.389 559.045C125.07 572.782 137.276 582.628 150.653 581.036Z" fill="white"/>
<path d="M187.89 598.917C198.984 597.597 206.847 587.291 205.453 575.898C204.059 564.505 193.935 556.339 182.841 557.659C171.747 558.979 163.883 569.285 165.277 580.678C166.672 592.071 176.795 600.237 187.89 598.917Z" fill="white"/>
<path d="M156.768 600.894C172.598 599.01 184.301 588.248 182.907 576.855C181.513 565.462 167.55 557.753 151.719 559.636C135.889 561.52 124.187 572.283 125.581 583.676C126.975 595.069 140.938 602.778 156.768 600.894Z" fill="white"/>
<path d="M69.1912 558.234C90.6471 555.681 105.855 535.749 103.158 513.715C100.462 491.681 80.8826 475.889 59.4266 478.442C37.9707 480.995 22.763 500.927 25.4594 522.961C28.1558 544.995 47.7352 560.787 69.1912 558.234Z" fill="white"/>
<path d="M78.664 623.498C113.087 619.402 138.807 598.219 136.111 576.185C133.415 554.151 103.323 539.61 68.8995 543.706C34.476 547.802 8.75618 568.984 11.4526 591.018C14.149 613.052 44.2406 627.594 78.664 623.498Z" fill="white"/>
<path d="M110.398 672.219C159.526 666.373 196.232 636.142 192.384 604.695C188.536 573.249 145.59 552.496 96.4621 558.342C47.334 564.188 10.6274 594.419 14.4756 625.865C18.3239 657.311 61.2696 678.064 110.398 672.219Z" fill="white"/>
<path d="M111.108 575.358C123.486 573.885 132.26 562.386 130.704 549.674C129.149 536.962 117.853 527.851 105.474 529.324C93.0961 530.797 84.3226 542.296 85.8782 555.008C87.4338 567.72 98.7295 576.831 111.108 575.358Z" fill="white"/>
<path d="M135 577.96C141.256 577.216 145.69 571.405 144.904 564.98C144.117 558.556 138.409 553.952 132.153 554.696C125.897 555.441 121.463 561.252 122.25 567.676C123.036 574.1 128.744 578.705 135 577.96Z" fill="white"/>
<g opacity="0.5">
<path d="M183.993 574.528C193.391 573.41 200.078 564.887 198.929 555.492C197.779 546.097 189.228 539.388 179.829 540.506C170.431 541.625 163.744 550.147 164.893 559.542C166.043 568.937 174.594 575.646 183.993 574.528Z" fill="white"/>
<path d="M84.5035 559.755C106.803 557.101 122.608 536.386 119.806 513.486C117.004 490.586 96.6546 474.173 74.3552 476.826C52.0558 479.48 36.2503 500.195 39.0527 523.095C41.8551 545.995 62.2041 562.408 84.5035 559.755Z" fill="white"/>
<path d="M218.553 628.986C240.853 626.332 256.658 605.617 253.856 582.717C251.053 559.817 230.704 543.403 208.405 546.057C186.106 548.71 170.3 569.426 173.103 592.326C175.905 615.226 196.254 631.639 218.553 628.986Z" fill="white"/>
<path d="M250.241 571.354C258.561 570.365 264.457 562.636 263.412 554.093C262.366 545.549 254.775 539.426 246.455 540.416C238.136 541.406 232.239 549.134 233.285 557.677C234.33 566.221 241.922 572.344 250.241 571.354Z" fill="white"/>
<path d="M89.4785 620.003C123.902 615.907 149.622 594.724 146.925 572.69C144.229 550.656 114.137 536.114 79.7139 540.211C45.2905 544.307 19.5706 565.489 22.267 587.523C24.9634 609.557 55.055 624.099 89.4785 620.003Z" fill="white"/>
<path d="M129.499 581.946C144.961 580.106 155.92 565.742 153.977 549.863C152.034 533.984 137.924 522.604 122.462 524.443C106.999 526.283 96.0401 540.647 97.9832 556.526C99.9264 572.405 114.036 583.785 129.499 581.946Z" fill="white"/>
<path d="M145.815 574.453C152.07 573.708 156.504 567.897 155.718 561.473C154.932 555.049 149.223 550.444 142.968 551.189C136.712 551.933 132.278 557.744 133.064 564.169C133.85 570.593 139.559 575.197 145.815 574.453Z" fill="white"/>
</g>
<path d="M175.641 395.937C176.169 399.677 173.949 405.807 170.22 406.335C166.49 406.863 162.661 401.592 162.133 397.853C161.887 396.061 162.359 394.244 163.447 392.8C164.534 391.357 166.148 390.404 167.935 390.15C169.722 389.897 171.536 390.364 172.981 391.448C174.425 392.533 175.382 394.147 175.641 395.937Z" fill="#F95A5A"/>
<path d="M169.998 406.573C171.289 413.617 172.578 420.661 173.865 427.705L169.998 406.573Z" fill="#FFE36C"/>
<path d="M169.998 406.573C171.289 413.617 172.578 420.661 173.865 427.705" stroke="white" stroke-width="0.5" stroke-miterlimit="10"/>
<path d="M170.28 405.502L170.591 407.368C170.607 407.463 170.596 407.56 170.561 407.65C170.525 407.739 170.467 407.817 170.39 407.876C170.314 407.934 170.224 407.971 170.129 407.982C170.033 407.993 169.937 407.978 169.849 407.938L169.341 407.707C169.267 407.674 169.202 407.623 169.15 407.561C169.099 407.498 169.062 407.424 169.044 407.345C169.025 407.265 169.025 407.183 169.044 407.104C169.062 407.024 169.099 406.95 169.15 406.887L170.28 405.502Z" fill="#F95A5A"/>
<path d="M163.806 397.09C163.732 396.264 163.892 395.433 164.268 394.694" stroke="white" stroke-linecap="round" stroke-linejoin="round"/>
<path opacity="0.1" d="M175.698 395.93C176.226 399.669 174.007 405.798 170.276 406.326C169.003 406.508 167.715 406.011 166.554 405.129C168.996 404.264 171.064 402.579 172.407 400.36C173.75 398.141 174.285 395.524 173.923 392.954C173.879 392.645 173.824 392.339 173.756 392.04C174.81 393.089 175.493 394.455 175.698 395.93Z" fill="black"/>
<path d="M172.858 427.989C172.858 427.989 172.463 426.431 173.324 426.03C174.185 425.629 174.327 427.25 174.327 427.25L174.509 428.201L173.24 429.333C173.24 429.333 172.932 428.435 172.858 427.989Z" fill="#EFD565"/>
<path d="M178.49 435.421L180.706 436.93C180.826 437.011 180.989 436.98 181.07 436.86L181.166 436.719C181.247 436.599 181.216 436.436 181.096 436.354L178.88 434.846C178.761 434.765 178.598 434.796 178.517 434.916L178.421 435.057C178.34 435.177 178.371 435.34 178.49 435.421Z" fill="#FFBB4D"/>
<path d="M172.361 434.186L174.969 434.155C175.113 434.154 175.229 434.035 175.227 433.89L175.225 433.719C175.224 433.575 175.105 433.459 174.961 433.46L172.353 433.491C172.209 433.493 172.093 433.612 172.095 433.757L172.097 433.927C172.098 434.072 172.217 434.188 172.361 434.186Z" fill="#FFBB4D"/>
<path d="M182.64 424.731C181.418 423.87 179.979 423.368 178.488 423.284L178.475 423.286C177.821 423.249 177.169 423.385 176.584 423.681C175.999 423.977 175.503 424.423 175.145 424.973C174.462 426.021 172.899 429.624 172.519 430.722C172.519 430.722 171.594 432.947 176.839 434.764C182.083 436.58 182.71 434.259 182.71 434.259C182.71 434.259 183.258 432.675 183.453 431.975C183.725 431.006 184.076 429.554 184.208 428.129C184.267 427.474 184.154 426.815 183.879 426.219C183.603 425.622 183.176 425.109 182.64 424.731Z" fill="#FFE36C"/>
<path d="M176.465 426.917C176.79 426.86 177.008 426.55 176.951 426.224C176.894 425.899 176.585 425.681 176.26 425.737C175.935 425.794 175.718 426.104 175.774 426.43C175.831 426.756 176.14 426.974 176.465 426.917Z" fill="black"/>
<path d="M180.994 428.49C181.319 428.433 181.536 428.123 181.479 427.798C181.423 427.472 181.113 427.254 180.788 427.311C180.464 427.368 180.246 427.678 180.303 428.003C180.359 428.329 180.669 428.547 180.994 428.49Z" fill="black"/>
<path d="M175.867 433.29C175.883 433.296 175.901 433.298 175.918 433.297C175.936 433.296 175.953 433.292 175.969 433.284L176.728 432.913C176.757 432.896 176.779 432.868 176.789 432.836C176.799 432.803 176.796 432.768 176.781 432.737C176.766 432.707 176.74 432.683 176.709 432.67C176.677 432.658 176.642 432.658 176.61 432.671L175.851 433.041C175.819 433.057 175.795 433.085 175.783 433.119C175.772 433.152 175.774 433.189 175.789 433.222C175.797 433.238 175.808 433.252 175.821 433.263C175.834 433.275 175.85 433.284 175.867 433.29Z" fill="#FFBB4D"/>
<path d="M176.434 433.49C176.467 433.501 176.504 433.498 176.535 433.483C176.551 433.476 176.566 433.465 176.577 433.452C176.589 433.438 176.598 433.423 176.604 433.406C176.61 433.389 176.612 433.372 176.611 433.354C176.61 433.336 176.606 433.319 176.598 433.303L176.229 432.542C176.222 432.525 176.212 432.509 176.198 432.496C176.185 432.483 176.17 432.473 176.152 432.466C176.135 432.459 176.116 432.456 176.098 432.457C176.079 432.458 176.061 432.462 176.044 432.47C176.028 432.478 176.013 432.49 176.001 432.504C175.989 432.518 175.98 432.535 175.974 432.552C175.969 432.57 175.967 432.589 175.969 432.607C175.971 432.626 175.977 432.644 175.987 432.66L176.356 433.421C176.372 433.453 176.4 433.478 176.434 433.49Z" fill="#FFBB4D"/>
<path d="M181.282 430.676C181.785 430.588 182.122 430.107 182.035 429.602C181.947 429.097 181.467 428.759 180.964 428.847C180.46 428.935 180.123 429.416 180.211 429.921C180.299 430.426 180.778 430.764 181.282 430.676Z" fill="#FFA052"/>
<path d="M175.23 428.573C175.734 428.485 176.071 428.005 175.983 427.5C175.895 426.995 175.416 426.657 174.912 426.745C174.408 426.833 174.071 427.314 174.159 427.819C174.247 428.324 174.726 428.661 175.23 428.573Z" fill="#FFA052"/>
<path d="M177.231 428.397L178.63 428.884C178.822 428.949 179.032 428.936 179.215 428.846C179.397 428.756 179.536 428.597 179.601 428.405C179.738 428.006 178.807 427.385 178.409 427.247C178.012 427.11 176.896 427.02 176.758 427.417C176.725 427.513 176.711 427.614 176.716 427.715C176.722 427.816 176.748 427.914 176.792 428.005C176.836 428.096 176.897 428.178 176.972 428.245C177.048 428.312 177.136 428.364 177.231 428.397Z" fill="#FFBB4D"/>
<path d="M180.829 423.775C180.829 423.775 181.049 422.964 180.739 422.275C180.731 422.259 180.719 422.246 180.704 422.236C180.689 422.226 180.672 422.221 180.654 422.221C180.636 422.221 180.619 422.225 180.603 422.235C180.588 422.244 180.576 422.257 180.568 422.273C180.389 422.627 180.151 422.948 179.865 423.221C179.784 423.286 179.69 423.332 179.59 423.357C179.49 423.382 179.386 423.385 179.284 423.366" fill="#FFE36C"/>
<path d="M179.924 423.502C180.405 423.361 180.851 423.118 181.23 422.789C181.243 422.777 181.259 422.769 181.277 422.766C181.295 422.763 181.313 422.765 181.33 422.772C181.346 422.779 181.36 422.791 181.371 422.805C181.381 422.82 181.387 422.838 181.387 422.856C181.377 423.081 181.337 423.305 181.268 423.52C181.239 423.624 181.246 423.735 181.289 423.834C181.331 423.933 181.407 424.014 181.503 424.063" fill="#FFE36C"/>
<path d="M181.942 436.432C182.304 436.824 182.334 437.389 182.008 437.692L182.666 438.403L187.396 433.998L186.737 433.288C186.411 433.593 185.851 433.52 185.488 433.129C185.124 432.737 185.095 432.172 185.421 431.868L184.763 431.158L180.034 435.562L180.692 436.273C181.018 435.969 181.578 436.04 181.942 436.432Z" fill="#E66560"/>
<path d="M184.072 431.965C184.072 431.965 184.901 433.34 184.194 433.974C183.487 434.609 182.882 433.099 182.882 433.099L182.431 432.242L183.318 430.788C183.318 430.788 183.874 431.562 184.072 431.965Z" fill="#FFE36C"/>
<path d="M173.645 426.971C173.374 427.492 172.988 427.945 172.518 428.296C172.074 428.634 171.866 428.688 171.694 428.672C171.397 428.643 171.042 428.421 171.003 428.1C170.963 427.779 171.231 427.435 171.509 427.393C172.056 427.312 172.988 428.393 172.893 429.465C172.815 430.358 172.028 431.207 171.454 431.138C171.236 431.111 170.978 430.944 170.946 430.731C170.914 430.518 171.13 430.239 171.363 430.173C171.899 430.019 172.832 430.839 173.017 431.799C173.175 432.626 172.729 433.308 172.593 433.504" stroke="white" stroke-width="0.5" stroke-linecap="round" stroke-linejoin="round"/>
<rect x="83" y="694" width="338" height="97" fill="white"/>
</g>
<path fill-rule="evenodd" clip-rule="evenodd" d="M144.038 483.175L59.5835 664.288L53 661.218L137.454 480.105L144.038 483.175Z" fill="white" fill-opacity="0.75"/>
<path fill-rule="evenodd" clip-rule="evenodd" d="M155.628 487.577L71.1733 668.69L64.5898 665.62L149.044 484.507L155.628 487.577Z" fill="white" fill-opacity="0.75"/>
<path d="M163.319 475.316L156.957 489.308C156.813 489.624 156.554 489.868 156.235 489.988C155.917 490.108 155.566 490.093 155.259 489.948L148.3 486.633C148.148 486.561 148.011 486.458 147.898 486.332C147.785 486.205 147.697 486.057 147.64 485.895C147.583 485.733 147.557 485.561 147.565 485.389C147.573 485.217 147.613 485.048 147.684 484.891L154.046 470.9C155.246 468.268 159.706 464.002 162.266 465.222C164.826 466.443 164.514 472.681 163.319 475.316Z" fill="#173A52"/>
<path d="M148.998 486.965L154.6 489.633L154.927 490.915C154.946 490.99 154.944 491.069 154.921 491.143C154.898 491.217 154.855 491.282 154.797 491.332C154.739 491.382 154.668 491.414 154.593 491.424C154.519 491.435 154.443 491.423 154.374 491.39L147.83 488.274C147.761 488.241 147.704 488.189 147.663 488.124C147.623 488.059 147.601 487.983 147.601 487.905C147.601 487.828 147.623 487.752 147.663 487.686C147.703 487.621 147.761 487.568 147.829 487.535L148.998 486.965Z" fill="#173A52"/>
<path d="M152.04 469.945L145.678 483.935C145.607 484.092 145.506 484.233 145.383 484.35C145.259 484.466 145.114 484.557 144.956 484.617C144.798 484.676 144.631 484.703 144.463 484.696C144.296 484.689 144.131 484.649 143.979 484.576L137.021 481.262C136.714 481.116 136.477 480.85 136.361 480.524C136.246 480.197 136.261 479.836 136.405 479.52L142.767 465.528C143.967 462.896 148.427 458.63 150.987 459.851C153.546 461.071 153.235 467.305 152.04 469.945Z" fill="#173A52"/>
<path d="M137.719 481.597L143.325 484.265L143.652 485.547C143.671 485.622 143.668 485.701 143.645 485.775C143.622 485.849 143.579 485.914 143.521 485.964C143.463 486.014 143.392 486.046 143.318 486.056C143.243 486.067 143.167 486.055 143.098 486.023L136.55 482.906C136.482 482.873 136.424 482.821 136.384 482.756C136.343 482.691 136.322 482.615 136.322 482.537C136.322 482.46 136.343 482.384 136.384 482.318C136.424 482.253 136.482 482.2 136.55 482.167L137.719 481.597Z" fill="#173A52"/>
<path d="M146.435 463.227C147.16 462.261 148.135 461.522 149.247 461.097" stroke="white" stroke-linecap="round" stroke-linejoin="round"/>
<path d="M160.242 488.166L164.365 490.13L163.403 492.246C163.317 492.435 163.161 492.582 162.97 492.654C162.778 492.726 162.568 492.717 162.383 492.63L159.649 491.327C159.464 491.239 159.322 491.08 159.253 490.884C159.183 490.687 159.193 490.471 159.279 490.281L160.241 488.166L160.242 488.166Z" fill="#4B9B3A"/>
<path d="M170.978 485.311C170.978 485.311 171.338 489.387 169.069 490.061C166.799 490.736 167.083 486.595 167.083 486.595L167.006 484.129L170.566 481.772C170.566 481.772 170.971 484.166 170.978 485.311Z" fill="#4B9B3A"/>
<path d="M178.271 491.333C178.281 492.554 179.188 493.57 180.292 493.598L180.312 495.813L164.299 495.405L164.279 493.19C165.381 493.218 166.268 492.247 166.259 491.026C166.249 489.804 165.341 488.788 164.237 488.76L164.218 486.545L180.23 486.953L180.25 489.168C179.148 489.14 178.256 490.11 178.271 491.333Z" fill="#E66560"/>
<path d="M147.922 471.02C147.922 471.02 138.337 482.357 154.987 489.101C169.132 494.83 170.548 481.795 170.548 481.795C171.492 481.467 172.348 480.914 173.044 480.181C173.74 479.448 174.257 478.555 174.552 477.578C174.847 476.601 174.912 475.566 174.74 474.56C174.569 473.554 174.167 472.606 173.567 471.793L173.569 471.781C173.826 471.474 174.042 471.133 174.21 470.767C174.639 469.823 174.741 468.758 174.5 467.749C174.259 466.74 173.689 465.847 172.884 465.219C172.08 464.592 171.089 464.266 170.077 464.298C169.064 464.329 168.092 464.715 167.319 465.391L167.106 465.291L163.283 463.471L163.15 463.407C163.17 462.293 162.79 461.211 162.083 460.368C161.375 459.526 160.39 458.981 159.315 458.837C158.239 458.693 157.148 458.96 156.248 459.588C155.349 460.216 154.703 461.16 154.435 462.242L154.427 462.24C153.356 462.128 152.274 462.3 151.284 462.741C150.295 463.182 149.432 463.877 148.778 464.759C148.125 465.641 147.703 466.68 147.553 467.776C147.403 468.872 147.53 469.988 147.923 471.017L147.922 471.02Z" fill="#49B236"/>
<path d="M145.681 481.228L149.537 483.065L148.554 485.227C148.474 485.404 148.328 485.542 148.149 485.609C147.97 485.676 147.773 485.668 147.6 485.586L145.042 484.367C144.87 484.285 144.737 484.136 144.672 483.953C144.607 483.769 144.616 483.566 144.697 483.389L145.68 481.227L145.681 481.228Z" fill="#49B236"/>
<path d="M164.844 484.375L162.042 490.542C160.14 490.647 157.818 490.25 154.99 489.104C151.876 487.845 149.681 486.424 148.167 484.947L151.35 477.948C151.758 477.056 152.492 476.365 153.393 476.026C154.293 475.687 155.286 475.727 156.154 476.139L163.107 479.45C163.972 479.866 164.64 480.617 164.966 481.54C165.291 482.463 165.248 483.482 164.844 484.375Z" fill="#9CD43D"/>
<path d="M169.22 472.142C170.032 472.259 170.785 471.678 170.903 470.843C171.021 470.009 170.458 469.237 169.646 469.12C168.834 469.003 168.08 469.584 167.963 470.419C167.845 471.253 168.408 472.025 169.22 472.142Z" fill="black"/>
<path d="M158.436 467.005C159.248 467.122 160.001 466.54 160.119 465.706C160.237 464.871 159.674 464.1 158.862 463.982C158.05 463.865 157.296 464.447 157.179 465.281C157.061 466.116 157.624 466.887 158.436 467.005Z" fill="black"/>
<path d="M162.166 468.862L165.314 470.36C165.466 470.433 165.599 470.544 165.698 470.683C165.798 470.822 165.862 470.985 165.884 471.156C165.906 471.328 165.886 471.503 165.825 471.664C165.764 471.826 165.665 471.97 165.536 472.082C164.88 472.644 163.867 473.065 162.472 472.4C161.077 471.736 160.739 470.671 160.738 469.793C160.739 469.621 160.782 469.451 160.864 469.299C160.946 469.148 161.063 469.02 161.206 468.927C161.348 468.834 161.511 468.78 161.678 468.768C161.846 468.757 162.014 468.789 162.166 468.862Z" fill="white"/>
<path d="M173.412 477.034C173.994 475.754 173.404 474.21 172.093 473.586C170.783 472.962 169.249 473.493 168.667 474.773C168.085 476.053 168.676 477.596 169.986 478.221C171.296 478.845 172.83 478.313 173.412 477.034Z" fill="#9CD43D"/>
<path d="M156.721 469.085C157.303 467.805 156.712 466.262 155.402 465.638C154.092 465.013 152.558 465.545 151.976 466.824C151.394 468.104 151.984 469.648 153.294 470.272C154.605 470.896 156.139 470.365 156.721 469.085Z" fill="#9CD43D"/>
<path d="M157.03 487.076C156.991 487.058 156.955 487.031 156.925 486.998C156.895 486.964 156.872 486.925 156.858 486.883L156.14 484.852C156.123 484.77 156.136 484.685 156.175 484.612C156.215 484.539 156.279 484.483 156.355 484.454C156.431 484.425 156.515 484.426 156.591 484.455C156.667 484.484 156.729 484.541 156.768 484.614L157.487 486.647C157.508 486.71 157.51 486.779 157.493 486.844C157.477 486.909 157.442 486.968 157.394 487.013C157.346 487.059 157.286 487.089 157.221 487.1C157.157 487.111 157.09 487.103 157.03 487.076Z" fill="#49B236"/>
<path d="M155.687 486.435C155.628 486.405 155.579 486.359 155.546 486.301C155.513 486.243 155.497 486.177 155.5 486.109C155.503 486.042 155.525 485.977 155.563 485.923C155.601 485.868 155.654 485.825 155.715 485.801L157.696 485.055C157.739 485.031 157.786 485.016 157.835 485.013C157.883 485.009 157.932 485.016 157.978 485.034C158.023 485.051 158.064 485.079 158.098 485.114C158.133 485.15 158.159 485.192 158.175 485.239C158.192 485.286 158.198 485.336 158.194 485.386C158.19 485.436 158.176 485.484 158.152 485.528C158.128 485.571 158.096 485.609 158.056 485.639C158.017 485.668 157.972 485.689 157.924 485.699L155.943 486.446C155.859 486.477 155.767 486.473 155.687 486.435Z" fill="#49B236"/>
<path fill-rule="evenodd" clip-rule="evenodd" d="M172.62 482.394C172.584 482.813 172.215 483.122 171.796 483.085L145.533 480.718C145.114 480.681 144.804 480.31 144.841 479.891C144.877 479.473 145.246 479.164 145.665 479.201L171.928 481.568C172.346 481.605 172.656 481.975 172.62 482.394Z" fill="#015271"/>
<path fill-rule="evenodd" clip-rule="evenodd" d="M147.679 470.886C147.957 470.571 148.438 470.542 148.753 470.822L168.569 488.382C168.884 488.661 168.914 489.142 168.636 489.457C168.358 489.771 167.877 489.8 167.562 489.521L147.746 471.961C147.431 471.681 147.401 471.2 147.679 470.886Z" fill="#015271"/>
<path d="M143.488 473.524C143.488 473.524 141.309 470.105 143.01 468.419C144.712 466.732 146.354 470.517 146.354 470.517L147.548 472.652L145.473 476.444C145.473 476.444 144.013 474.53 143.488 473.524Z" fill="#49B236"/>
<mask id="mask1_2111_7923" style="mask-type:alpha" maskUnits="userSpaceOnUse" x="90" y="101" width="327" height="687">
<rect x="90" y="101" width="327" height="687" fill="#C4C4C4"/>
</mask>
<g mask="url(#mask1_2111_7923)">
<ellipse rx="92.5982" ry="87.6585" transform="matrix(-1 -1.16784e-09 -7.03486e-09 1 402.995 563.214)" fill="white"/>
<ellipse rx="37.0393" ry="35.0634" transform="matrix(-1 -1.16784e-09 -7.03486e-09 1 413.467 496.135)" fill="white"/>
<ellipse rx="77.019" ry="72.2111" transform="matrix(-1 -1.16784e-09 -7.03486e-09 1 262.228 591.896)" fill="white"/>
<ellipse rx="50.6072" ry="48.0239" transform="matrix(-1 -1.16784e-09 -7.03486e-09 1 169.697 611.78)" fill="white"/>
<rect width="504.056" height="83.8472" rx="41.9236" transform="matrix(-1 -1.16784e-09 -7.03486e-09 1 575.309 621.143)" fill="white"/>
</g>
<path d="M347.42 467.116L347.518 467.461C346.553 470.264 343.758 472.263 340.173 472.938C335.117 473.888 330.408 471.838 329.386 467.084C328.363 462.33 332.076 459.771 337.132 458.819C340.718 458.146 343.903 457.946 345.95 460.183C345.898 460.189 345.848 460.199 345.796 460.208C346.653 462.039 347.203 461.157 347.627 463.175C348.05 465.192 347.741 466.341 347.42 467.116Z" fill="#F95A5A"/>
<path d="M330.851 463.588C331.568 462.593 332.57 461.809 333.74 461.325" stroke="white" stroke-linecap="round" stroke-linejoin="round"/>
<path d="M340.464 453.039C340.529 453.012 340.6 452.999 340.672 453.003C340.743 453.006 340.813 453.024 340.875 453.057C340.938 453.09 340.992 453.136 341.032 453.191C341.073 453.247 341.099 453.31 341.109 453.377L341.273 454.516C341.421 455.545 341.208 456.59 340.667 457.493C340.126 458.397 339.287 459.109 338.275 459.524C338.079 459.604 337.866 459.64 337.653 459.629C337.439 459.619 337.231 459.562 337.045 459.463C336.859 459.364 336.699 459.226 336.58 459.059C336.46 458.893 336.383 458.703 336.354 458.504C336.212 457.483 336.424 456.448 336.959 455.551C337.494 454.654 338.324 453.944 339.324 453.527L340.464 453.039Z" fill="#009056" stroke="#009056" stroke-miterlimit="10" stroke-linecap="round"/>
<path d="M360.476 468.396L360.491 468.752C358.894 471.287 355.699 472.659 352.042 472.578C346.884 472.461 342.768 469.491 342.881 464.644C342.995 459.798 347.217 458.068 352.374 458.183C356.032 458.266 359.187 458.728 360.663 461.332C360.61 461.327 360.558 461.327 360.506 461.324C360.914 463.286 361.658 462.54 361.6 464.595C361.541 466.649 360.971 467.706 360.476 468.396Z" fill="#F95A5A"/>
<path d="M345.124 463.564C345.701 462.492 346.589 461.595 347.685 460.976" stroke="white" stroke-linecap="round" stroke-linejoin="round"/>
<path d="M356.918 453.244C356.988 453.231 357.061 453.233 357.13 453.251C357.199 453.269 357.263 453.301 357.316 453.346C357.37 453.391 357.411 453.447 357.438 453.509C357.464 453.572 357.475 453.639 357.469 453.706L357.363 454.851C357.267 455.885 356.815 456.86 356.076 457.629C355.337 458.399 354.35 458.921 353.266 459.116C353.056 459.154 352.84 459.145 352.634 459.091C352.428 459.036 352.238 458.938 352.08 458.803C351.921 458.668 351.798 458.5 351.72 458.313C351.642 458.126 351.611 457.925 351.63 457.725C351.729 456.701 352.178 455.734 352.91 454.97C353.642 454.206 354.618 453.685 355.692 453.485L356.918 453.244Z" fill="#009056" stroke="#009056" stroke-miterlimit="10" stroke-linecap="round"/>
<path d="M352.16 451.708C352.21 451.659 352.27 451.622 352.337 451.599C352.405 451.576 352.477 451.569 352.548 451.577C352.619 451.584 352.687 451.608 352.747 451.645C352.807 451.682 352.857 451.731 352.893 451.789L353.507 452.785C354.06 453.684 354.287 454.727 354.153 455.757C354.02 456.786 353.533 457.746 352.766 458.492C352.618 458.636 352.436 458.745 352.234 458.812C352.033 458.878 351.817 458.9 351.605 458.875C351.393 458.85 351.19 458.779 351.012 458.668C350.833 458.557 350.685 458.409 350.578 458.234C350.033 457.341 349.809 456.307 349.94 455.285C350.071 454.264 350.55 453.311 351.305 452.567L352.16 451.708Z" fill="#009056" stroke="#009056" stroke-miterlimit="10" stroke-linecap="round"/>
<path d="M373.264 472.126L373.164 472.471C370.83 474.446 367.343 474.866 363.881 473.769C358.999 472.219 356.022 468.235 357.681 463.639C359.34 459.043 363.921 458.568 368.803 460.116C372.265 461.215 375.127 462.536 375.702 465.433C375.653 465.414 375.604 465.399 375.555 465.382C375.316 467.37 376.264 466.865 375.551 468.81C374.838 470.756 373.956 471.606 373.264 472.126Z" fill="#F95A5A"/>
<path d="M359.736 463.103C360.247 461.999 361.077 461.052 362.133 460.37" stroke="white" stroke-linecap="round" stroke-linejoin="round"/>
<path d="M374.743 456.673C374.814 456.68 374.882 456.703 374.942 456.739C375.003 456.775 375.053 456.824 375.09 456.882C375.126 456.939 375.148 457.004 375.153 457.071C375.159 457.138 375.147 457.206 375.12 457.268L374.653 458.332C374.231 459.292 373.488 460.097 372.536 460.626C371.585 461.154 370.477 461.378 369.381 461.262C369.169 461.24 368.965 461.171 368.786 461.062C368.607 460.952 368.458 460.805 368.349 460.632C368.241 460.459 368.177 460.265 368.163 460.065C368.148 459.864 368.183 459.663 368.265 459.478C368.687 458.527 369.425 457.73 370.368 457.204C371.31 456.679 372.407 456.453 373.496 456.561L374.743 456.673Z" fill="#009056" stroke="#009056" stroke-miterlimit="10" stroke-linecap="round"/>
<rect width="47.7237" height="32.6867" rx="4" transform="matrix(1.0238 0.00231805 -0.000314472 0.974932 328.95 466.328)" fill="#FFBB4D"/>
<path d="M246.484 415.447L275.648 498.449" stroke="white" stroke-width="3" stroke-miterlimit="10"/>
<path d="M360.607 389.863L374.741 476.223" stroke="white" stroke-width="3" stroke-miterlimit="10"/>
<path d="M296.461 444.676C295.761 444.45 295.116 444.094 294.565 443.63C294.013 443.165 293.567 442.601 293.252 441.971C292.937 441.341 292.76 440.659 292.732 439.964C292.704 439.269 292.825 438.577 293.088 437.927C295.112 432.942 298.841 426.285 304.011 427.439C310.276 428.824 307.679 437.159 305.315 442.441C304.771 443.654 303.756 444.626 302.476 445.161C301.196 445.696 299.746 445.753 298.42 445.321L296.461 444.676Z" fill="#F6CBCA"/>
<path d="M261.281 495.735C261.281 495.735 252.085 491.826 253.487 486.376C254.889 480.926 263.408 486.239 263.408 486.239L268.793 488.895L269.381 498.927C269.381 498.927 263.742 497.032 261.281 495.735Z" fill="#EEEEEE"/>
<path d="M254.795 479.416C255.301 481.859 257.356 483.537 259.379 483.157L260.295 487.586L230.956 493.089L230.039 488.658C232.057 488.279 233.289 485.984 232.786 483.541C232.283 481.098 230.225 479.42 228.203 479.8L227.286 475.369L256.626 469.868L257.542 474.299C255.524 474.676 254.284 476.971 254.795 479.416Z" fill="#E66560"/>
<path d="M263.407 460.97C263.407 460.97 244.445 459.12 243.511 466.874C242.431 475.788 263.252 472.616 263.252 472.616L263.407 460.97Z" fill="#F6CBCA"/>
<path d="M248.09 465.783C246.994 466.434 246.927 466.986 246.91 467.245C246.85 467.445 246.851 467.656 246.911 467.856C246.971 468.056 247.089 468.237 247.251 468.378C248.428 469.431 253.128 470.475 259.961 469.842L260.026 463.967C255.912 463.876 250.654 464.269 248.101 465.779L248.09 465.783ZM246.289 463.091C251.773 459.838 263.444 460.977 263.444 460.977L263.309 472.64C263.309 472.64 242.458 475.794 243.568 466.898C243.678 466.108 243.982 465.354 244.459 464.695C244.935 464.037 245.569 463.493 246.31 463.107L246.289 463.091Z" fill="black"/>
<path d="M257.031 460.742C254.579 459.775 252.306 458.447 250.298 456.808C250.039 456.599 249.853 456.322 249.763 456.012C249.674 455.703 249.687 455.375 249.799 455.073C249.911 454.77 250.117 454.507 250.391 454.316C250.665 454.126 250.995 454.018 251.336 454.006C253.937 453.943 257.447 454.045 260.377 454.788C265.774 456.153 257.031 460.742 257.031 460.742Z" fill="#F4C25D"/>
<path d="M294.667 510.881C297.053 510.156 299.384 509.281 301.643 508.261C305.111 506.718 308.47 504.969 311.699 503.023C314.528 501.364 317.261 499.564 319.885 497.631C339.39 483.202 332.256 474.066 332.256 474.066C332.256 474.066 326.62 465.715 323.952 462.227C320.259 457.42 314.502 450.45 308.039 444.598C305.061 441.911 301.382 440.008 297.374 439.083C293.366 438.158 289.171 438.243 285.214 439.329C279.468 440.899 274.07 443.421 269.273 446.775C266.572 448.662 264.08 450.8 261.834 453.155L261.776 453.218C259.03 456.098 257.144 459.61 256.308 463.398C255.472 467.186 255.715 471.117 257.014 474.793C258.072 477.513 259.284 480.178 260.646 482.776C265.141 491.713 272.1 503.856 274.956 508.074C274.933 508.093 279.24 515.463 294.667 510.881Z" fill="white"/>
<path d="M301.626 508.277C305.094 506.735 308.453 504.986 311.682 503.04C314.511 501.381 317.244 499.581 319.868 497.648C339.373 483.219 332.239 474.082 332.239 474.082C332.239 474.082 326.604 465.732 323.935 462.244C323.935 462.244 307.091 469.786 311.224 482.616C311.596 483.718 311.808 484.861 311.855 486.016C312.156 495.438 298.29 495.994 301.557 508.003C301.574 508.096 301.597 508.187 301.626 508.277Z" fill="black"/>
<path d="M260.647 482.792C265.215 476.015 258.669 467.454 266.729 462.667C276.332 456.954 269.285 446.781 269.285 446.781C266.584 448.668 264.092 450.806 261.847 453.161L261.788 453.224C259.042 456.104 257.156 459.616 256.32 463.404C255.484 467.192 255.728 471.123 257.027 474.798C258.08 477.522 259.289 480.19 260.647 482.792Z" fill="black"/>
<path d="M287.404 502.359L291.097 507.84C291.971 509.139 293.204 510.192 294.664 510.885C299.278 509.511 304.895 507.067 311.696 503.028C314.525 501.369 317.257 499.569 319.881 497.636L312.866 487.236C312.572 486.796 312.235 486.383 311.858 486.003C310.403 484.53 308.448 483.58 306.33 483.316C304.211 483.052 302.063 483.491 300.255 484.557L290.224 490.515C288.181 491.734 286.737 493.665 286.209 495.885C285.68 498.104 286.11 500.432 287.404 502.359Z" fill="#F6CBCA"/>
<path d="M268.209 477.733C270.281 477.854 272.061 476.374 272.185 474.428C272.309 472.483 270.73 470.807 268.658 470.687C266.586 470.566 264.806 472.046 264.682 473.991C264.558 475.937 266.137 477.612 268.209 477.733Z" fill="black"/>
<path d="M293.661 462.63C295.733 462.751 297.513 461.271 297.637 459.325C297.761 457.38 296.182 455.704 294.11 455.584C292.038 455.463 290.258 456.943 290.134 458.888C290.01 460.834 291.589 462.509 293.661 462.63Z" fill="black"/>
<path d="M275.816 480.777C273.383 477.17 273.864 470.998 281.178 466.657C288.492 462.317 294.518 464.627 296.951 468.234C299.384 471.841 297.299 475.399 289.986 479.719C282.673 484.039 278.247 484.409 275.816 480.777Z" fill="#F6CBCA"/>
<path d="M288.387 472.967C288.989 472.61 289.056 471.695 288.536 470.925C288.016 470.154 287.107 469.819 286.505 470.176C285.903 470.534 285.836 471.448 286.356 472.219C286.876 472.99 287.785 473.325 288.387 472.967Z" fill="black"/>
<path d="M282.024 476.747C282.626 476.39 282.693 475.475 282.173 474.704C281.653 473.934 280.744 473.599 280.142 473.956C279.54 474.313 279.473 475.228 279.993 475.999C280.513 476.769 281.422 477.104 282.024 476.747Z" fill="black"/>
<path d="M294.193 440.081C294.193 440.081 294.642 435.249 293.444 431.204C293.356 430.893 293.169 430.614 292.909 430.405C292.649 430.195 292.328 430.064 291.988 430.029C291.647 429.994 291.304 430.057 291.003 430.21C290.702 430.362 290.457 430.597 290.301 430.883C289.13 433.06 288.06 434.672 287.517 437.473C286.52 442.635 294.193 440.081 294.193 440.081Z" fill="#F4C25D"/>
<path d="M301.717 430.847C299.933 431.901 297.938 434.898 296.243 439.06C296.139 439.313 296.09 439.582 296.1 439.852C296.11 440.123 296.178 440.389 296.3 440.634C296.421 440.88 296.595 441.1 296.81 441.281C297.024 441.462 297.275 441.6 297.548 441.688L299.519 442.313C299.823 442.413 300.146 442.447 300.466 442.412C300.785 442.378 301.092 442.276 301.363 442.114C301.733 441.897 302.022 441.577 302.188 441.198C304.679 435.627 304.866 432.347 304.211 431.109C304.114 430.935 303.968 430.666 303.229 430.501C302.967 430.446 302.696 430.446 302.435 430.502C302.174 430.557 301.93 430.666 301.719 430.821L301.717 430.847ZM299.907 428.133C300.499 427.753 301.17 427.492 301.875 427.367C302.581 427.242 303.307 427.256 304.007 427.408C310.272 428.793 307.675 437.129 305.311 442.411C304.769 443.625 303.755 444.599 302.474 445.134C301.193 445.669 299.742 445.725 298.416 445.29L296.44 444.665C295.74 444.439 295.094 444.083 294.543 443.618C293.992 443.153 293.545 442.589 293.231 441.959C292.916 441.33 292.739 440.647 292.711 439.953C292.683 439.258 292.803 438.565 293.066 437.916C294.509 434.377 296.833 429.97 299.889 428.153L299.907 428.133Z" fill="white"/>
<path d="M327.757 460.423C327.757 460.423 336.822 464.589 335.249 469.994C333.677 475.398 325.33 469.85 325.33 469.85L317.491 465.892L319.758 457.007C319.758 457.007 325.338 459.072 327.757 460.423Z" fill="white"/>
<path d="M302.904 466.345L306.839 464.009C307.924 463.365 308.246 462.015 307.557 460.995L306.012 458.703C305.324 457.682 303.886 457.377 302.801 458.021L298.866 460.357C297.781 461.001 297.459 462.351 298.147 463.372L299.693 465.663C300.381 466.684 301.819 466.989 302.904 466.345Z" fill="#F7D3D2"/>
<path d="M267.638 487.279L271.573 484.943C272.658 484.299 272.98 482.949 272.292 481.928L270.746 479.637C270.058 478.616 268.62 478.311 267.535 478.955L263.601 481.291C262.515 481.935 262.194 483.285 262.882 484.306L264.427 486.597C265.116 487.618 266.553 487.923 267.638 487.279Z" fill="#F7D3D2"/>
<path d="M304.677 402.42L327.078 486.93" stroke="white" stroke-width="3" stroke-miterlimit="10"/>
<path d="M457.007 173.351C463.427 198.305 464.53 224.194 460.253 249.528C455.975 274.862 446.401 299.14 432.082 320.963C429.995 324.16 427.809 327.297 425.523 330.376C421.718 335.512 417.649 340.476 413.317 345.267C406.813 352.459 400.303 359.656 393.981 366.991L364.142 399.188L244.923 425.845L202.737 409.753C193.552 405.885 184.268 402.22 174.985 398.559C168.795 396.126 162.764 393.419 156.892 390.439C153.372 388.662 149.909 386.792 146.504 384.828C123.186 371.422 102.911 353.821 86.8486 333.04C70.7858 312.259 59.2517 288.708 52.9104 263.743C26.1064 158.966 94.683 53.8367 206.091 28.7535C317.403 3.69464 430.244 68.717 457.007 173.351Z" fill="url(#paint3_linear_2111_7923)"/>
<path d="M457.007 173.351C463.427 198.305 464.53 224.194 460.253 249.528C455.975 274.862 446.401 299.14 432.082 320.963C429.995 324.16 427.809 327.297 425.523 330.376C421.718 335.512 417.649 340.476 413.317 345.267C406.813 352.459 400.303 359.656 393.981 366.991L364.142 399.188L244.923 425.845L202.737 409.753C193.552 405.885 184.268 402.22 174.985 398.559C168.795 396.126 162.764 393.419 156.892 390.439C153.372 388.662 149.909 386.792 146.504 384.828C123.186 371.422 102.911 353.821 86.8486 333.04C70.7858 312.259 59.2517 288.708 52.9104 263.743C26.1064 158.966 94.683 53.8367 206.091 28.7535C317.403 3.69464 430.244 68.717 457.007 173.351Z" fill="#136E90"/>
<path opacity="0.1" d="M457.012 173.347C463.434 198.301 464.538 224.191 460.26 249.526C455.982 274.861 446.407 299.14 432.087 320.964C430 324.161 427.814 327.298 425.528 330.376C421.73 335.513 417.661 340.477 413.322 345.268C406.823 352.46 400.309 359.651 393.991 366.998L364.147 399.188L244.928 425.846L202.742 409.758C200.474 408.806 198.212 407.86 195.939 406.912C335.489 354.868 416.64 213.087 380.51 71.7589C379.631 68.3119 378.687 64.8928 377.678 61.5017C417.417 88.7707 445.543 128.423 457.012 173.347Z" fill="black"/>
<path d="M266.185 500.065L381.107 474.375L392.393 518.535C393.298 522.072 392.669 525.799 390.647 528.895C388.624 531.992 385.373 534.204 381.608 535.045L295.074 554.39C291.31 555.231 287.34 554.633 284.039 552.727C280.738 550.821 278.375 547.762 277.471 544.225L266.185 500.065Z" fill="#005271"/>
<path opacity="0.1" d="M381.137 474.351L392.014 516.982C392.513 518.933 392.598 520.956 392.265 522.936C391.931 524.916 391.185 526.814 390.07 528.522C388.954 530.23 387.491 531.714 385.764 532.889C384.037 534.065 382.079 534.908 380.003 535.372L321.038 548.555C333.723 540.399 344.456 529.848 352.552 517.574C360.649 505.3 365.932 491.572 368.066 477.263L381.137 474.351Z" fill="black"/>
<g opacity="0.2">
<path d="M262.342 191.879L222.552 199.847L229.034 228.129L268.824 220.161L262.342 191.879Z" fill="black"/>
<path d="M190.443 211.65L183.647 182.488L132.832 256.863L151.628 268.484L190.443 211.65ZM334.334 163.316C324.179 141.423 302.012 128.017 299.497 126.545L244.863 92.9087L224.904 122.117L223.518 124.19L230.316 153.343L251.552 122.223L282.625 141.349L287.368 144.263L287.705 144.46C287.769 144.469 289.777 145.685 292.728 147.81C298.753 152.184 308.644 160.678 313.792 171.692C321.415 188.145 327.901 207.804 313.307 236.33L320.312 266.458C321.866 264.514 322.802 263.157 323.142 262.664C337.378 242.239 344.342 223.124 344.51 204.14C344.63 187.714 339.452 174.281 334.334 163.316ZM219.92 280.8L219.165 280.625L218.814 280.576C216.609 280 214.458 279.252 212.383 278.341C210.46 277.552 208.079 276.497 205.205 275.09C200.822 272.961 195.345 270.043 188.53 266.029L173.158 256.528L161.032 274.282L176.31 283.725L176.515 283.859C199.992 297.686 211.113 300.739 215.1 301.406C227.959 304.408 241.298 305.121 254.426 303.508C260.457 302.729 266.393 301.409 272.153 299.565L273.533 299.11L268.679 278.226C255.907 283.041 239.657 285.304 219.92 280.8Z" fill="black"/>
<path d="M214.91 136.739L243.849 261.185L214.792 267.089L192.209 169.965L194.488 166.626L195.716 164.84L202.567 154.799L207.221 147.992L208.733 145.777L213.387 138.97L214.91 136.739Z" fill="black"/>
<path d="M282.273 152.195L311.119 276.389L310.778 276.704C309.667 277.789 308.404 278.889 307.092 279.999C306.666 280.374 306.219 280.763 305.769 281.116C304.593 282.098 303.348 283.076 302.035 284.051C300.832 284.963 299.573 285.869 298.259 286.766C297.543 287.251 296.818 287.735 296.072 288.233C295.118 288.853 294.117 289.476 293.088 290.094C292.288 290.576 291.461 291.046 290.614 291.522C288.947 292.47 287.197 293.387 285.363 294.272L284.02 294.909L252.251 158.302L282.273 152.195Z" fill="black"/>
</g>
<path fill-rule="evenodd" clip-rule="evenodd" d="M85.3718 153.916C87.4021 154.78 88.3121 157.039 87.4043 158.962C76.0118 183.088 72.2316 209.549 76.479 235.308C76.8225 237.392 75.3197 239.341 73.1224 239.662C70.9251 239.983 68.8654 238.554 68.5219 236.471C64.0308 209.233 68.0337 181.283 80.052 155.831C80.9598 153.909 83.3416 153.051 85.3718 153.916Z" fill="white"/>
<ellipse rx="4.44577" ry="4.22532" transform="matrix(1.0013 -0.000121426 0.00237747 0.998502 75.4782 250.227)" fill="white"/>
<g opacity="0.85">
<mask id="mask2_2111_7923" style="mask-type:alpha" maskUnits="userSpaceOnUse" x="90" y="101" width="327" height="687">
<rect x="90" y="101" width="327" height="687" fill="#C4C4C4"/>
</mask>
<g mask="url(#mask2_2111_7923)">
<ellipse rx="97.3358" ry="92.3671" transform="matrix(-1 -1.16784e-09 -7.03486e-09 1 424.646 529.05)" fill="white"/>
<ellipse rx="61.2122" ry="57.3584" transform="matrix(-1 -1.16784e-09 -7.03486e-09 1 310.407 583.219)" fill="white"/>
<ellipse rx="50.6072" ry="48.0239" transform="matrix(-1 -1.16784e-09 -7.03486e-09 1 211.355 636.521)" fill="white"/>
<rect width="581.355" height="89.9452" rx="44.9726" transform="matrix(-1 -1.16784e-09 -7.03486e-09 1 614.763 647.057)" fill="white" fill-opacity="0.5"/>
</g>
</g>
<defs>
<linearGradient id="paint0_linear_2111_7923" x1="40.5" y1="81.5" x2="268.337" y2="165.155" gradientUnits="userSpaceOnUse">
<stop stop-color="#D6EDC5"/>
<stop offset="1" stop-color="#5BCDE8"/>
</linearGradient>
<linearGradient id="paint1_linear_2111_7923" x1="-358.227" y1="494.775" x2="221.683" y2="136.498" gradientUnits="userSpaceOnUse">
<stop stop-color="#E1F7D5"/>
<stop offset="1" stop-color="#B0EBE9"/>
</linearGradient>
<linearGradient id="paint2_linear_2111_7923" x1="-391.276" y1="1243.44" x2="1001.34" y2="383.347" gradientUnits="userSpaceOnUse">
<stop stop-color="#FCFCD1"/>
<stop offset="1" stop-color="#56DAEA"/>
</linearGradient>
<linearGradient id="paint3_linear_2111_7923" x1="89.0113" y1="142.642" x2="392.895" y2="421.688" gradientUnits="userSpaceOnUse">
<stop offset="0.0752592" stop-color="#FFE36C"/>
<stop offset="0.34375" stop-color="#E0EA71"/>
<stop offset="0.512785" stop-color="#CCEE74"/>
<stop offset="0.945102" stop-color="#6DD1E1"/>
</linearGradient>
</defs>
</svg>
