<svg width="327" height="687" viewBox="0 0 327 687" fill="none" xmlns="http://www.w3.org/2000/svg">
<mask id="mask0_2235_8435" style="mask-type:alpha" maskUnits="userSpaceOnUse" x="0" y="0" width="327" height="687">
<rect width="327" height="687" fill="#C4C4C4"/>
</mask>
<g mask="url(#mask0_2235_8435)">
<ellipse rx="92.5982" ry="87.6585" transform="matrix(-1 -1.16784e-09 -7.03486e-09 1 312.995 462.214)" fill="white"/>
<ellipse rx="37.0393" ry="35.0634" transform="matrix(-1 -1.16784e-09 -7.03486e-09 1 323.467 395.135)" fill="white"/>
<ellipse rx="77.019" ry="72.2111" transform="matrix(-1 -1.16784e-09 -7.03486e-09 1 172.228 490.896)" fill="white"/>
<ellipse rx="50.6072" ry="48.0239" transform="matrix(-1 -1.16784e-09 -7.03486e-09 1 79.6975 510.78)" fill="white"/>
<rect width="504.056" height="83.8472" rx="41.9236" transform="matrix(-1 -1.16784e-09 -7.03486e-09 1 485.309 520.143)" fill="white"/>
</g>
<mask id="mask1_2235_8435" style="mask-type:alpha" maskUnits="userSpaceOnUse" x="0" y="0" width="327" height="687">
<rect width="327" height="687" fill="#C4C4C4"/>
</mask>
<g mask="url(#mask1_2235_8435)">
<path opacity="0.65" d="M-570 0C-570 0 161.571 190.714 320.627 256.639C476.754 321.334 344.137 390.631 255.462 390.631C166.787 390.631 -343.077 349.16 -568.663 284.291L-570 0Z" fill="url(#paint0_linear_2235_8435)"/>
<path opacity="0.65" d="M-228.246 0C-228.246 0 377.795 203.342 720.017 251.502C1062.24 299.662 1244.33 343.809 1173.34 414.711C1102.36 485.613 178.611 347.822 114.444 585.947C50.2778 824.071 1209.29 611.659 1355 943.28V1204H-570V0H-228.246Z" fill="url(#paint1_linear_2235_8435)"/>
<path d="M140.421 503.794C153.528 502.234 162.817 490.059 161.17 476.599C159.523 463.139 147.563 453.492 134.456 455.052C121.35 456.612 112.06 468.787 113.707 482.247C115.354 495.706 127.314 505.353 140.421 503.794Z" fill="white"/>
<path d="M185.342 494.244C202.087 492.252 213.955 476.697 211.85 459.501C209.746 442.306 194.466 429.981 177.722 431.974C160.977 433.966 149.109 449.521 151.213 466.717C153.318 483.912 168.598 496.237 185.342 494.244Z" fill="white"/>
<path d="M229.154 501.203C247.019 499.077 259.682 482.481 257.437 464.134C255.192 445.787 238.889 432.637 221.023 434.763C203.158 436.889 190.495 453.485 192.74 471.832C194.985 490.179 211.288 503.329 229.154 501.203Z" fill="white"/>
<path d="M237.769 456.02C259.437 453.442 274.795 433.313 272.072 411.061C269.349 388.81 249.576 372.861 227.908 375.439C206.24 378.018 190.882 398.147 193.605 420.398C196.328 442.65 216.101 458.598 237.769 456.02Z" fill="white"/>
<path d="M60.6529 480.036C74.0296 478.445 83.5107 466.018 81.8296 452.281C80.1486 438.544 67.9419 428.698 54.5653 430.29C41.1886 431.882 31.7075 444.308 33.3886 458.045C35.0696 471.782 47.2763 481.628 60.6529 480.036Z" fill="white"/>
<path d="M97.8895 497.917C108.984 496.597 116.847 486.291 115.453 474.898C114.059 463.505 103.935 455.339 92.8406 456.659C81.7465 457.979 73.8832 468.285 75.2774 479.678C76.6716 491.071 86.7954 499.237 97.8895 497.917Z" fill="white"/>
<path d="M66.7684 499.894C82.5984 498.01 94.301 487.248 92.9068 475.855C91.5126 464.462 77.5496 456.753 61.7195 458.636C45.8894 460.52 34.1869 471.283 35.5811 482.676C36.9753 494.069 50.9383 501.778 66.7684 499.894Z" fill="white"/>
<path d="M-20.8088 457.234C0.647141 454.681 15.8548 434.749 13.1584 412.715C10.462 390.681 -9.11739 374.889 -30.5734 377.442C-52.0293 379.995 -67.237 399.927 -64.5406 421.961C-61.8442 443.995 -42.2648 459.787 -20.8088 457.234Z" fill="white"/>
<path d="M-11.336 522.498C23.0875 518.402 48.8073 497.219 46.1109 475.185C43.4145 453.151 13.3229 438.61 -21.1005 442.706C-55.524 446.802 -81.2438 467.984 -78.5474 490.018C-75.851 512.052 -45.7594 526.594 -11.336 522.498Z" fill="white"/>
<path d="M20.3977 571.219C69.5258 565.373 106.232 535.142 102.384 503.695C98.536 472.249 55.5902 451.496 6.46208 457.342C-42.666 463.188 -79.3726 493.419 -75.5244 524.865C-71.6761 556.311 -28.7304 577.064 20.3977 571.219Z" fill="white"/>
<path d="M21.1078 474.358C33.4862 472.885 42.2597 461.386 40.7041 448.674C39.1485 435.962 27.8528 426.851 15.4745 428.324C3.09615 429.797 -5.67741 441.296 -4.12181 454.008C-2.56621 466.72 8.72948 475.831 21.1078 474.358Z" fill="white"/>
<path d="M45.0001 476.96C51.2558 476.216 55.6898 470.405 54.9036 463.98C54.1175 457.556 48.4089 452.952 42.1532 453.696C35.8974 454.441 31.4635 460.252 32.2496 466.676C33.0358 473.1 38.7444 477.705 45.0001 476.96Z" fill="white"/>
<g opacity="0.5">
<path d="M93.9925 473.528C103.391 472.41 110.078 463.887 108.929 454.492C107.779 445.097 99.2278 438.388 89.8292 439.506C80.4306 440.625 73.7435 449.147 74.8932 458.542C76.0429 467.937 84.594 474.646 93.9925 473.528Z" fill="white"/>
<path d="M-5.49645 458.755C16.803 456.101 32.6084 435.386 29.806 412.486C27.0036 389.586 6.65459 373.173 -15.6448 375.826C-37.9442 378.48 -53.7497 399.195 -50.9473 422.095C-48.1449 444.995 -27.7959 461.408 -5.49645 458.755Z" fill="white"/>
<path d="M128.553 527.986C150.853 525.332 166.658 504.617 163.856 481.717C161.053 458.817 140.704 442.403 118.405 445.057C96.1056 447.71 80.3001 468.426 83.1025 491.326C85.9049 514.226 106.254 530.639 128.553 527.986Z" fill="white"/>
<path d="M160.241 470.354C168.561 469.365 174.457 461.636 173.412 453.093C172.366 444.549 164.775 438.426 156.455 439.416C148.136 440.406 142.239 448.134 143.285 456.677C144.33 465.221 151.922 471.344 160.241 470.354Z" fill="white"/>
<path d="M-0.521535 519.003C33.9019 514.907 59.6218 493.724 56.9254 471.69C54.229 449.656 24.1374 435.114 -10.2861 439.211C-44.7095 443.307 -70.4294 464.489 -67.733 486.523C-65.0366 508.557 -34.945 523.099 -0.521535 519.003Z" fill="white"/>
<path d="M39.4985 480.946C54.9608 479.106 65.9202 464.742 63.977 448.863C62.0339 432.984 47.924 421.604 32.4617 423.443C16.9995 425.283 6.04009 439.647 7.98325 455.526C9.92641 471.405 24.0363 482.785 39.4985 480.946Z" fill="white"/>
<path d="M55.8146 473.453C62.0703 472.708 66.5043 466.897 65.7181 460.473C64.9319 454.049 59.2233 449.444 52.9676 450.189C46.7119 450.933 42.2779 456.744 43.0641 463.169C43.8503 469.593 49.5588 474.197 55.8146 473.453Z" fill="white"/>
</g>
<path d="M85.6413 294.937C86.1691 298.677 83.9491 304.807 80.2196 305.335C76.4901 305.863 72.6608 300.592 72.1332 296.853C71.8871 295.061 72.3595 293.244 73.447 291.8C74.5344 290.357 76.1483 289.404 77.9352 289.15C79.7221 288.897 81.5363 289.364 82.9807 290.448C84.425 291.533 85.3817 293.147 85.6413 294.937V294.937Z" fill="#F95A5A"/>
<path d="M79.998 305.573C81.289 312.617 82.5781 319.661 83.8655 326.705Z" fill="#FFE36C"/>
<path d="M79.998 305.573C81.289 312.617 82.5781 319.661 83.8655 326.705" stroke="white" stroke-width="0.5" stroke-miterlimit="10"/>
<path d="M80.28 304.502L80.5911 306.368C80.6066 306.463 80.5961 306.56 80.5608 306.65C80.5254 306.739 80.4666 306.817 80.3905 306.876C80.3144 306.934 80.2239 306.971 80.1286 306.982C80.0333 306.993 79.9368 306.978 79.8494 306.938L79.341 306.707C79.267 306.674 79.2017 306.623 79.1502 306.561C79.0987 306.498 79.0623 306.424 79.0438 306.345C79.0254 306.265 79.0253 306.183 79.0438 306.104C79.0622 306.024 79.0985 305.95 79.15 305.887L80.28 304.502Z" fill="#F95A5A"/>
<path d="M73.8058 296.09C73.732 295.264 73.8923 294.433 74.268 293.694" stroke="white" stroke-linecap="round" stroke-linejoin="round"/>
<path opacity="0.1" d="M85.698 294.93C86.2258 298.669 84.0066 304.798 80.2761 305.326C79.0026 305.508 77.7153 305.011 76.5543 304.129C78.9958 303.264 81.0635 301.579 82.4066 299.36C83.7497 297.141 84.2855 294.524 83.9228 291.954C83.8794 291.645 83.8241 291.339 83.7557 291.04C84.8104 292.089 85.4928 293.455 85.698 294.93Z" fill="black"/>
<path d="M82.8578 326.989C82.8578 326.989 82.4634 325.431 83.324 325.03C84.1846 324.629 84.3267 326.25 84.3267 326.25L84.5094 327.201L83.2398 328.333C83.2398 328.333 82.9323 327.435 82.8578 326.989Z" fill="#EFD565"/>
<path d="M88.4905 334.421L90.7065 335.93C90.826 336.011 90.9886 335.98 91.0698 335.86L91.1655 335.719C91.2467 335.599 91.2156 335.436 91.0961 335.354L88.8801 333.846C88.7606 333.765 88.5979 333.796 88.5167 333.916L88.421 334.057C88.3399 334.177 88.371 334.34 88.4905 334.421Z" fill="#FFBB4D"/>
<path d="M82.3614 333.186L84.9689 333.155C85.1134 333.154 85.2291 333.035 85.2274 332.89L85.2254 332.719C85.2236 332.575 85.1051 332.459 84.9607 332.46L82.3532 332.491C82.2087 332.493 82.093 332.612 82.0947 332.757L82.0967 332.927C82.0984 333.072 82.2169 333.188 82.3614 333.186Z" fill="#FFBB4D"/>
<path d="M92.6399 323.731C91.4177 322.87 89.9794 322.368 88.4877 322.284L88.4747 322.286C87.8208 322.249 87.1685 322.385 86.584 322.681C85.9994 322.977 85.5031 323.423 85.1454 323.973C84.4621 325.021 82.8987 328.624 82.5195 329.722C82.5195 329.722 81.5942 331.947 86.8388 333.764C92.0834 335.58 92.7099 333.259 92.7099 333.259C92.7099 333.259 93.2578 331.675 93.453 330.975C93.725 330.006 94.0756 328.554 94.2075 327.129C94.2673 326.474 94.1538 325.815 93.8786 325.219C93.6034 324.622 93.1761 324.109 92.6399 323.731V323.731Z" fill="#FFE36C"/>
<path d="M86.4653 325.917C86.7902 325.86 87.0077 325.55 86.951 325.224C86.8944 324.899 86.5851 324.681 86.2602 324.737C85.9353 324.794 85.7178 325.104 85.7744 325.43C85.8311 325.756 86.1404 325.974 86.4653 325.917Z" fill="black"/>
<path d="M90.9936 327.49C91.3185 327.433 91.536 327.123 91.4794 326.798C91.4227 326.472 91.1134 326.254 90.7885 326.311C90.4636 326.368 90.2461 326.678 90.3028 327.003C90.3594 327.329 90.6687 327.547 90.9936 327.49Z" fill="black"/>
<path d="M85.8668 332.29C85.8833 332.296 85.9008 332.298 85.9183 332.297C85.9359 332.296 85.953 332.292 85.9688 332.284L86.7276 331.913C86.757 331.896 86.7788 331.868 86.7888 331.836C86.7987 331.803 86.796 331.768 86.7811 331.737C86.7663 331.707 86.7405 331.683 86.7088 331.67C86.6771 331.658 86.6419 331.658 86.6103 331.671L85.8515 332.041C85.8194 332.057 85.7949 332.085 85.7832 332.119C85.7716 332.152 85.7737 332.189 85.7891 332.222C85.7969 332.238 85.8077 332.252 85.8211 332.263C85.8344 332.275 85.85 332.284 85.8668 332.29V332.29Z" fill="#FFBB4D"/>
<path d="M86.4336 332.49C86.4671 332.501 86.5035 332.498 86.5354 332.483C86.5513 332.476 86.5656 332.465 86.5774 332.452C86.5892 332.438 86.5982 332.423 86.604 332.406C86.6098 332.389 86.6122 332.372 86.6112 332.354C86.6101 332.336 86.6055 332.319 86.5977 332.303L86.2287 331.542C86.2219 331.525 86.2116 331.509 86.1984 331.496C86.1853 331.483 86.1695 331.473 86.1522 331.466C86.1349 331.459 86.1164 331.456 86.0979 331.457C86.0793 331.458 86.0611 331.462 86.0444 331.47C86.0277 331.478 86.0129 331.49 86.0008 331.504C85.9887 331.518 85.9797 331.535 85.9743 331.552C85.9689 331.57 85.9672 331.589 85.9693 331.607C85.9715 331.626 85.9774 331.644 85.9867 331.66L86.3557 332.421C86.3716 332.453 86.3996 332.478 86.4336 332.49Z" fill="#FFBB4D"/>
<path d="M91.2816 329.676C91.7853 329.588 92.1224 329.107 92.0346 328.602C91.9468 328.097 91.4673 327.759 90.9637 327.847C90.46 327.935 90.1229 328.416 90.2107 328.921C90.2985 329.426 90.778 329.764 91.2816 329.676Z" fill="#FFA052"/>
<path d="M85.2299 327.573C85.7335 327.485 86.0706 327.005 85.9828 326.5C85.895 325.995 85.4156 325.657 84.9119 325.745C84.4083 325.833 84.0712 326.314 84.159 326.819C84.2468 327.324 84.7262 327.661 85.2299 327.573Z" fill="#FFA052"/>
<path d="M87.2309 327.397L88.6299 327.884C88.8221 327.949 89.0324 327.936 89.2145 327.846C89.3967 327.756 89.5358 327.597 89.6014 327.405V327.405C89.738 327.006 88.8066 326.385 88.409 326.247C88.0116 326.11 86.8957 326.02 86.7579 326.417C86.7247 326.513 86.7106 326.614 86.7165 326.715C86.7223 326.816 86.7479 326.914 86.7918 327.005C86.8357 327.096 86.8971 327.178 86.9725 327.245C87.0478 327.312 87.1356 327.364 87.2309 327.397Z" fill="#FFBB4D"/>
<path d="M90.8289 322.775C90.8289 322.775 91.0491 321.964 90.739 321.275C90.7313 321.259 90.7193 321.246 90.7043 321.236C90.6893 321.226 90.6718 321.221 90.654 321.221C90.6362 321.221 90.6186 321.225 90.6034 321.235C90.5881 321.244 90.5758 321.257 90.5678 321.273C90.389 321.627 90.1513 321.948 89.8651 322.221C89.7841 322.286 89.6903 322.332 89.5902 322.357C89.49 322.382 89.3856 322.385 89.2841 322.366" fill="#FFE36C"/>
<path d="M89.9242 322.502C90.4053 322.361 90.8505 322.118 91.2297 321.789C91.243 321.777 91.2595 321.769 91.2772 321.766C91.2949 321.763 91.3131 321.765 91.3297 321.772C91.3462 321.779 91.3605 321.791 91.3707 321.805C91.3809 321.82 91.3867 321.838 91.3874 321.856C91.3767 322.081 91.3367 322.305 91.2683 322.52C91.2387 322.624 91.2459 322.735 91.2887 322.834C91.3314 322.933 91.407 323.014 91.5027 323.063" fill="#FFE36C"/>
<path d="M91.9416 335.432C92.304 335.824 92.3344 336.389 92.0084 336.692L92.6661 337.403L97.3959 332.998L96.7372 332.288C96.4115 332.593 95.8514 332.52 95.4879 332.129C95.1245 331.737 95.0951 331.172 95.421 330.868L94.7634 330.158L90.0335 334.562L90.6922 335.273C91.0182 334.969 91.5781 335.04 91.9416 335.432Z" fill="#E66560"/>
<path d="M94.0719 330.965C94.0719 330.965 94.9007 332.34 94.1939 332.974C93.487 333.609 92.8817 332.099 92.8817 332.099L92.4311 331.242L93.3176 329.788C93.3176 329.788 93.8742 330.562 94.0719 330.965Z" fill="#FFE36C"/>
<path d="M83.6448 325.971C83.3735 326.492 82.9882 326.945 82.5177 327.296C82.0744 327.634 81.8656 327.688 81.6939 327.672C81.3967 327.643 81.0422 327.421 81.0028 327.1C80.9634 326.779 81.2309 326.435 81.5086 326.393C82.0564 326.312 82.9875 327.393 82.893 328.465C82.8146 329.358 82.0278 330.207 81.4539 330.138C81.2362 330.111 80.9776 329.944 80.9456 329.731C80.9137 329.518 81.1298 329.239 81.3632 329.173C81.8995 329.019 82.8325 329.839 83.0168 330.799C83.1751 331.626 82.7287 332.308 82.5929 332.504" stroke="white" stroke-width="0.5" stroke-linecap="round" stroke-linejoin="round"/>
<rect x="-7" y="593" width="338" height="97" fill="white"/>
</g>
<g opacity="0.85">
<mask id="mask2_2235_8435" style="mask-type:alpha" maskUnits="userSpaceOnUse" x="0" y="0" width="327" height="687">
<rect width="327" height="687" fill="#C4C4C4"/>
</mask>
<g mask="url(#mask2_2235_8435)">
<ellipse rx="97.3358" ry="92.3671" transform="matrix(-1 -1.16784e-09 -7.03486e-09 1 334.646 428.05)" fill="white"/>
<ellipse rx="61.2122" ry="57.3584" transform="matrix(-1 -1.16784e-09 -7.03486e-09 1 220.407 482.219)" fill="white"/>
<ellipse rx="50.6072" ry="48.0239" transform="matrix(-1 -1.16784e-09 -7.03486e-09 1 121.355 535.521)" fill="white"/>
<rect width="581.355" height="89.9452" rx="44.9726" transform="matrix(-1 -1.16784e-09 -7.03486e-09 1 524.763 546.057)" fill="white" fill-opacity="0.5"/>
</g>
</g>
<defs>
<linearGradient id="paint0_linear_2235_8435" x1="-448.227" y1="393.775" x2="131.683" y2="35.4977" gradientUnits="userSpaceOnUse">
<stop stop-color="#E1F7D5"/>
<stop offset="1" stop-color="#B0EBE9"/>
</linearGradient>
<linearGradient id="paint1_linear_2235_8435" x1="-481.276" y1="1142.44" x2="911.339" y2="282.347" gradientUnits="userSpaceOnUse">
<stop stop-color="#FCFCD1"/>
<stop offset="1" stop-color="#56DAEA"/>
</linearGradient>
</defs>
</svg>
