<svg width="359" height="206" viewBox="0 0 359 206" fill="none" xmlns="http://www.w3.org/2000/svg">
<mask id="mask0_1983_7252" style="mask-type:alpha" maskUnits="userSpaceOnUse" x="0" y="0" width="359" height="206">
<rect width="359" height="206" fill="#C4C4C4"/>
</mask>
<g mask="url(#mask0_1983_7252)">
<g filter="url(#filter0_d_1983_7252)">
<path d="M2.62556 179.218L-28.0732 140.531L3.93194 115.135L34.9824 153.543L2.62556 179.218Z" fill="#C2E567" fill-opacity="0.1" shape-rendering="crispEdges"/>
</g>
<g filter="url(#filter1_d_1983_7252)">
<path fill-rule="evenodd" clip-rule="evenodd" d="M-28.7031 140.458L4.00228 114.506L35.6173 153.612L2.55384 179.849L-28.7031 140.458ZM-27.4416 140.603L2.69909 178.587L34.3493 153.472L3.86339 115.762L-27.4416 140.603Z" fill="#C2E567"/>
</g>
<path fill-rule="evenodd" clip-rule="evenodd" d="M102.688 -120.846L258.414 75.4057L257.711 75.9639L101.984 -120.288L102.688 -120.846Z" fill="#136E90"/>
<path fill-rule="evenodd" clip-rule="evenodd" d="M-49.2195 -25.5265L61.3617 -113.273L100.209 -108.801L245.561 74.3758L241.443 112.945L130.508 200.972L129.95 200.268L240.173 112.806L236.56 111.087L129.33 196.175L93.1906 192.014L93.2933 191.122L129.063 195.24L235.657 110.658L232.045 108.94L128.224 191.895L95.587 187.816L95.6984 186.925L127.96 190.957L231.143 108.511L228.432 107.222L127.75 187.686L97.6357 183.897L97.7478 183.006L127.486 186.748L227.53 106.793L224.818 105.503L126.649 183.401L99.622 180.611L99.7142 179.717L126.377 182.47L223.915 105.073L220.823 103.603L126.082 178.78L125.523 178.077L219.92 103.173L217.14 101.851L125.565 174.517L125.006 173.814L216.653 101.092L218.588 81.5561L87.6491 -83.4573L67.8335 -85.7388L-23.8159 -13.0145L-24.374 -13.7179L67.1983 -86.381L66.2957 -90.2501L-28.3652 -15.1361L-28.9234 -15.8395L66.0701 -91.2173L65.3932 -94.1192L-31.6529 -17.1125L-32.2111 -17.8159L65.1675 -95.0864L64.3778 -98.4719L-35.9232 -18.8825L-36.4814 -19.5859L64.1522 -99.4391L63.4752 -102.341L-39.5627 -20.5798L-40.1208 -21.2832L63.2496 -103.308L62.4592 -106.696L-44.1131 -22.7005L-44.669 -23.4058L62.2339 -107.662L61.2189 -112.014L-48.6613 -24.8231L-49.2195 -25.5265ZM62.0772 -112.287L99.2882 -108.003L97.3226 -104.02L63.0862 -107.962L62.0772 -112.287ZM63.3028 -107.033L96.9005 -103.164L95.1904 -99.6992L64.1175 -103.54L63.3028 -107.033ZM64.3348 -102.609L94.7695 -98.8464L93.5915 -96.4594L65.0192 -99.6749L64.3348 -102.609ZM65.2357 -98.7469L93.169 -95.6033L91.6584 -92.5422L91.6579 -92.5412L66.0343 -95.3235L65.2357 -98.7469ZM66.2505 -94.3968L91.2348 -91.6839L89.6966 -88.567L66.9382 -91.4486L66.2505 -94.3968ZM67.1558 -90.5159L89.2762 -87.7151L87.6225 -84.3643L68.0656 -86.6159L67.1558 -90.5159ZM88.4137 -83.9384L219.223 80.9118L222.791 79.991L90.0621 -87.2784L88.4137 -83.9384ZM90.5016 -88.1691L223.743 79.7455L227.311 78.8248L92.1499 -91.5092L90.5016 -88.1691ZM92.5895 -92.3999L228.262 78.5792L231.117 77.8426L93.9081 -95.0719L92.5895 -92.3999ZM94.3477 -95.9626L232.066 77.5937L234.718 76.8715L95.5409 -98.3804L94.3477 -95.9626ZM95.9803 -99.2709L235.66 76.6148L239.114 75.6742L97.6443 -102.643L95.9803 -99.2709ZM98.0839 -103.533L240.057 75.4176L244.32 74.2566L100.062 -107.541L98.0839 -103.533ZM244.578 75.1168L240.392 76.2569L236.978 110.292L240.637 112.032L244.578 75.1168ZM236.117 109.882L239.464 76.5096L235.944 77.4681L232.466 108.146L236.117 109.882ZM231.609 107.738L235.012 77.722L232.307 78.4587L228.856 106.429L231.609 107.738ZM228.002 106.023L231.372 78.7042L228.498 79.4457L225.245 104.711L228.002 106.023ZM224.392 104.306L227.562 79.6873L223.981 80.6115L221.248 102.81L224.392 104.306ZM220.393 102.404L223.046 80.8526L219.469 81.7758L217.559 101.056L220.393 102.404Z" fill="#136E90"/>
<path fill-rule="evenodd" clip-rule="evenodd" d="M-49.3148 -25.849L-23.6124 -13.633L-26.0245 7.31715L104.354 171.624L125.312 174.037L130.507 200.785L90.6049 196.191L-53.9107 14.0681L-49.3148 -25.849ZM103.579 172.092L-26.6654 7.9541L-30.0343 8.76462L101.919 175.057L103.579 172.092ZM102.231 176.339L125.328 178.829L129.392 199.753L91.5621 195.397L102.231 176.339ZM90.7764 194.963L-52.6544 14.2067L-48.3235 13.1647L92.6734 191.574L90.7764 194.963ZM93.1479 190.726L95.0439 187.339L-43.9914 12.1225L-47.3618 12.9334L93.1479 190.726ZM-47.6352 12.0756L-44.2263 11.2554L-40.3902 -20.613L-43.9604 -22.3099L-47.6352 12.0756ZM-44.8199 -22.7184L-48.5664 -24.499L-52.9239 13.3479L-48.5621 12.2985L-44.8199 -22.7184ZM-39.5348 -20.2064L-43.2949 11.0313L-39.8938 10.2131L-36.3256 -18.6812L-39.5348 -20.2064ZM-35.471 -18.275L-38.9613 9.98874L-35.5668 9.17207L-32.7074 -16.9615L-35.471 -18.275ZM-31.8488 -16.5534L-34.639 8.94887L-31.2345 8.12978L-28.6426 -15.0296L-31.8488 -16.5534ZM-27.7846 -14.6218L-30.3059 7.90638L-26.9019 7.08744L-24.5779 -13.0977L-27.7846 -14.6218ZM-30.9969 8.9962L-34.3681 9.80727L99.4361 179.493L101.445 175.904L-30.9969 8.9962ZM98.9614 180.341L-35.3293 10.0385L-38.6973 10.8488L97.6518 182.68L98.9614 180.341ZM97.1776 183.527L-39.6599 11.0804L-43.0288 11.8909L95.518 186.492L97.1776 183.527ZM125.149 177.907L102.708 175.487L104.363 172.529L124.556 174.854L125.149 177.907Z" fill="#136E90"/>
<path fill-rule="evenodd" clip-rule="evenodd" d="M302.477 50.7592L305.994 47.9684L306.552 48.6718L303.035 51.4626L302.477 50.7592Z" fill="#136E90"/>
<path fill-rule="evenodd" clip-rule="evenodd" d="M300.801 48.6498L304.318 45.859L304.876 46.5624L301.359 49.3532L300.801 48.6498ZM301.638 49.7049L305.155 46.9141L305.713 47.6175L302.196 50.4083L301.638 49.7049Z" fill="#136E90"/>
<g filter="url(#filter2_d_1983_7252)">
<path fill-rule="evenodd" clip-rule="evenodd" d="M31.9 -199.941L64.7542 -226.011L62.6906 -208.088L79.7624 -186.573L107.147 -183.42L129.717 -201.329L131.49 -216.729L156.723 -184.93L144.413 -175.162L321.071 47.4671L333.38 37.6993L358.613 69.4984L343.213 67.7253L320.29 85.9153L316.934 112.318L334.283 134.182L351.576 136.173L318.722 162.243L308.814 149.758L150.899 275.064L160.248 286.847L128.121 312.339L129.667 295.98L112.871 274.813L86.1166 271.733L63.1934 289.923L61.3624 304.523L35.9831 272.539L47.9411 263.051L-128.158 41.1246L-140.116 50.6134L-165.907 18.1108L-151.138 19.8113L-128.569 1.90227L-125.488 -24.852L-142.281 -46.0147L-158.312 -47.8604L-125.809 -73.6513L-116.041 -61.3416L42.2259 -186.928L31.9 -199.941ZM42.9293 -187.486L52.7771 -195.3L43.0093 -207.61L33.1615 -199.795L42.9293 -187.486ZM43.7127 -208.168L50.6897 -199.375L61.7986 -208.19L63.6142 -223.96L43.7127 -208.168ZM62.1507 -207.323L51.2478 -198.672L67.9926 -177.57L78.8955 -186.221L62.1507 -207.323ZM79.6597 -185.681L68.5508 -176.866L70.6678 -174.198L105.361 -170.204L106.783 -182.558L79.6597 -185.681ZM107.603 -181.825L106.253 -170.101L113.192 -169.302L115.86 -171.419L107.603 -181.825ZM116.563 -171.977L128.169 -181.187L119.518 -192.09L107.912 -182.88L116.563 -171.977ZM120.221 -192.648L128.873 -181.745L138.721 -189.559L130.069 -200.462L120.221 -192.648ZM130.609 -201.226L139.424 -190.118L146.81 -195.978L132.134 -214.473L130.609 -201.226ZM147.368 -195.275L135.762 -186.065L143.855 -175.866L155.461 -185.075L147.368 -195.275ZM135.058 -185.507L113.459 -168.368L70.1956 -173.349L53.3352 -194.597L-28.6121 -129.571L-24.4259 -124.295L47.6737 -181.507L72.1171 -150.702L107.072 -146.678L137.524 -170.842L314.74 52.4905L283.936 76.934L279.911 111.888L303.517 141.638L313.205 133.95L301.647 119.384L306.862 75.3636L328.461 58.2247L135.058 -185.507ZM329.164 57.6665L340.77 48.4569L333.235 38.9609L321.629 48.1705L329.164 57.6665ZM341.329 49.1603L333.943 55.021L343.152 66.6273L350.538 60.7666L341.329 49.1603ZM351.096 61.47L344.208 66.936L356.562 68.3584L351.096 61.47ZM342.449 67.1854L333.239 55.5791L310.73 73.4403L319.94 85.0465L342.449 67.1854ZM318.849 85.1165L310.027 73.9984L307.71 75.8369L306.764 83.8195L318.849 85.1165ZM306.659 84.7112L302.583 119.119L304.42 121.434L316.043 112.211L319.364 86.0749L306.659 84.7112ZM316.393 113.08L304.978 122.138L322.002 143.592L333.417 134.534L316.393 113.08ZM334.181 135.074L322.56 144.295L329.258 152.736L349.32 136.817L334.181 135.074ZM328.555 153.294L319.205 141.512L309.518 149.199L318.867 160.981L328.555 153.294ZM318.647 140.809L313.763 134.654L232.485 199.149L237.369 205.304L318.647 140.809ZM236.665 205.862L231.223 199.004L288.396 153.636L245.649 99.0449L247.769 83.439L248.659 83.5599L246.59 98.7899L289.1 153.078L302.814 142.196L278.977 112.155L283.086 76.4617L313.479 52.3453L147.984 -156.216L91.5656 -111.448L76.688 -113.16L65.9674 -126.671L-62.4051 -24.8068L-52.2394 -11.9956L-54.4562 4.42002L-107.776 47.3042L-107.778 47.306L-110.24 49.2596L54.9752 257.469L76.7809 240.166L72.5947 234.891L77.8703 230.704L74.2423 226.132L69.3184 230.039L68.7602 229.336L75.4426 224.033L79.6288 229.309L85.6078 224.565L90.3522 230.544L86.64 233.489L120.78 237.109L135.131 255.193L134.427 255.751L120.311 237.962L85.6362 234.286L55.5334 258.172L63.6267 268.372L79.2474 255.977L122.51 260.958L139.65 282.558L150.201 274.185L150.34 274.361L220.682 218.545L215.799 212.392L145.034 269.118L142.521 265.951L143.224 265.393L145.176 267.853L215.941 211.127L221.385 217.987L236.665 205.862ZM150.056 275.447L140.208 283.261L149.138 294.516L158.986 286.701L150.056 275.447ZM148.435 295.074L142.016 286.985L130.56 296.075L129.213 310.326L148.435 295.074ZM130.204 295.212L141.458 286.281L124.992 265.53L113.738 274.461L130.204 295.212ZM112.974 273.921L124.434 264.827L122.038 261.807L87.9757 257.886L86.4806 270.871L112.974 273.921ZM85.6612 270.137L87.0836 257.783L79.5142 256.911L76.8462 259.028L85.6612 270.137ZM76.1428 259.587L64.1848 269.075L73.3945 280.682L85.3525 271.193L76.1428 259.587ZM72.6911 281.24L63.4814 269.634L53.6337 277.448L62.8433 289.054L72.6911 281.24ZM62.1399 289.612L52.9303 278.006L45.8962 283.588L55.1058 295.194L62.1399 289.612ZM55.664 295.897L60.7374 302.291L62.1884 290.72L55.664 295.897ZM45.338 282.884L62.9233 268.93L-130.2 25.5501L-135.827 30.0153L49.2027 263.196L37.2447 272.685L45.338 282.884ZM-136.531 30.5735L-147.785 39.5041L-139.971 49.3518L-128.717 40.4212L-136.531 30.5735ZM-148.344 38.8006L-141.309 33.219L-151.241 20.7033L-163.856 19.2508L-148.344 38.8006ZM-150.374 20.3512L-140.606 32.6609L-118.449 15.0788L-128.216 2.76916L-150.374 20.3512ZM-127.118 2.70839L-117.745 14.5207L-115.079 12.4048L-114.196 4.2132L-114.343 4.17928L-127.118 2.70839ZM-114.099 3.31397L-110.459 -30.4677L-113.172 -33.8142L-124.39 -24.9128L-124.554 -25.1188L-127.646 1.7437L-114.19 3.29299L-114.099 3.31397ZM-113.738 -34.5118L-130.42 -55.0909L-141.414 -46.3668L-124.948 -25.6162L-113.738 -34.5118ZM-142.178 -46.9067L-130.985 -55.7885L-137.205 -63.4621L-156.055 -48.5045L-142.178 -46.9067ZM-136.502 -64.0203L-127.171 -52.5099L-116.745 -60.7835L-125.954 -72.3898L-136.502 -64.0203ZM-126.606 -51.8123L-109.527 -30.743L-114.226 12.8747L-129.497 24.9919L-121.682 34.8396L-91.2317 10.6768L-87.5556 -23.9983L-111.721 -54.4528L-40.3252 -111.106L-44.7905 -116.733L-126.606 -51.8123ZM-121.124 35.543L-110.798 48.5561L-108.688 46.8817L-119.014 33.8686L-121.124 35.543ZM-118.311 33.3104L-115.241 37.1792L-111.724 34.3884L-112.282 33.685L-111.578 33.1268L-114.09 29.9614L-118.311 33.3104ZM-113.387 29.4033L-110.875 32.5686L-110.523 32.2896L-113.035 29.1242L-113.387 29.4033ZM-112.332 28.566L-109.82 31.7314L-109.468 31.4523L-111.98 28.287L-112.332 28.566ZM-111.277 27.7288L-108.765 30.8942L-108.413 30.6151L-110.925 27.4497L-111.277 27.7288ZM-110.221 26.8916L-107.71 30.0569L-107.358 29.7778L-109.87 26.6125L-110.221 26.8916ZM-109.166 26.0543L-106.655 29.2197L-106.303 28.9406L-108.815 25.7753L-109.166 26.0543ZM-108.111 25.2171L-105.599 28.3824L-105.248 28.1034L-107.76 24.938L-108.111 25.2171ZM-107.056 24.3798L-104.544 27.5452L-103.138 26.4289L-105.649 23.2635L-107.056 24.3798ZM-104.946 22.7054L-102.434 25.8707L-101.731 25.3126L-104.242 22.1472L-104.946 22.7054ZM-103.539 21.589L-102.144 23.3476L-90.1857 13.8589L-85.9995 19.1344L-80.0205 14.3901L-75.4487 20.1516L-55.2982 3.94482L-53.1804 -11.7369L-65.3411 -27.0622L-64.6377 -27.6204L-62.9632 -25.5102L65.4092 -127.374L32.7568 -168.524L-24.5711 -123.034L-29.3155 -129.013L-44.0871 -117.291L-39.0637 -110.961L-95.3365 -66.308L-73.8473 -39.2267L-74.5508 -38.6685L-96.0399 -65.7498L-110.46 -54.3075L-86.6239 -24.2688L-90.3784 11.146L-103.539 21.589ZM33.4602 -169.082L77.1602 -114.01L91.2988 -112.382L130.192 -143.244L128.797 -145.003L117.191 -135.793L113.004 -141.069L106.674 -136.045L101.929 -142.024L102.633 -142.583L106.819 -137.307L107.171 -137.586L102.985 -142.862L103.688 -143.42L107.874 -138.144L108.226 -138.423L104.04 -143.699L104.743 -144.257L108.929 -138.982L109.281 -139.261L105.095 -144.536L105.798 -145.094L109.984 -139.819L110.336 -140.098L106.15 -145.373L106.708 -145.816L71.6449 -149.853L47.5284 -180.245L33.4602 -169.082ZM106.969 -145.786L111.039 -140.656L111.391 -140.935L107.484 -145.859L107.338 -145.743L106.969 -145.786ZM108.187 -146.417L112.095 -141.493L112.446 -141.772L108.539 -146.696L108.187 -146.417ZM109.243 -147.254L113.15 -142.33L113.501 -142.61L109.594 -147.533L109.243 -147.254ZM110.298 -148.092L114.205 -143.168L114.557 -143.447L110.649 -148.371L110.298 -148.092ZM111.353 -148.929L115.26 -144.005L115.612 -144.284L111.705 -149.208L111.353 -148.929ZM112.408 -149.766L116.315 -144.842L116.667 -145.121L112.76 -150.045L112.408 -149.766ZM113.463 -150.603L117.37 -145.679L117.546 -145.819L113.639 -150.743L113.463 -150.603ZM114.342 -151.301L118.249 -146.377L118.425 -146.517L114.518 -151.441L114.342 -151.301ZM115.222 -151.999L123.315 -141.799L128.239 -145.706L120.145 -155.906L115.222 -151.999ZM120.849 -156.464L127.826 -147.671L138.025 -155.765L134.397 -160.337L138.618 -163.686L135.269 -167.906L120.849 -156.464ZM135.972 -168.464L146.019 -155.803L147.426 -156.919L137.379 -169.581L135.972 -168.464ZM145.316 -155.245L142.525 -158.762L139.008 -155.971L139.287 -155.619L138.583 -155.061L141.095 -151.896L145.316 -155.245ZM140.392 -151.338L137.88 -154.503L137.528 -154.224L140.04 -151.059L140.392 -151.338ZM139.337 -150.501L136.825 -153.666L136.473 -153.387L138.985 -150.221L139.337 -150.501ZM138.282 -149.663L135.77 -152.829L135.418 -152.55L137.93 -149.384L138.282 -149.663ZM137.226 -148.826L134.715 -151.991L134.363 -151.712L136.875 -148.547L137.226 -148.826ZM136.171 -147.989L133.66 -151.154L133.308 -150.875L135.82 -147.71L136.171 -147.989ZM135.116 -147.152L132.604 -150.317L132.253 -150.038L134.765 -146.872L135.116 -147.152ZM134.061 -146.314L131.549 -149.48L130.143 -148.363L132.654 -145.198L134.061 -146.314ZM131.951 -144.64L129.439 -147.805L128.384 -146.968L130.896 -143.803L131.951 -144.64ZM138.45 -156.675L141.967 -159.465L141.688 -159.817L138.171 -157.026L138.45 -156.675ZM137.612 -157.73L141.129 -160.52L140.85 -160.872L137.333 -158.081L137.612 -157.73ZM136.775 -158.785L140.292 -161.576L140.013 -161.927L136.496 -159.136L136.775 -158.785ZM135.938 -159.84L139.455 -162.631L139.176 -162.982L135.659 -160.192L135.938 -159.84ZM122.612 -141.241L118.983 -145.813L118.808 -145.674L122.436 -141.102L122.612 -141.241ZM121.732 -140.543L118.104 -145.116L117.928 -144.976L121.556 -140.404L121.732 -140.543ZM120.853 -139.846L117.225 -144.418L116.873 -144.139L120.501 -139.567L120.853 -139.846ZM119.798 -139.008L116.17 -143.581L115.818 -143.302L119.446 -138.729L119.798 -139.008ZM118.743 -138.171L115.115 -142.743L114.763 -142.464L118.391 -137.892L118.743 -138.171ZM117.688 -137.334L114.06 -141.906L113.708 -141.627L117.336 -137.055L117.688 -137.334ZM-76.1485 20.7143L-80.1657 15.6516L-80.5174 15.9307L-76.4983 20.9957L-76.1485 20.7143ZM-77.1981 21.5585L-81.2208 16.4889L-81.5726 16.768L-77.5479 21.8399L-77.1981 21.5585ZM-78.2477 22.4027L-82.276 17.3261L-82.6277 17.6052L-78.5975 22.6841L-78.2477 22.4027ZM-79.997 23.8097L-84.0345 18.7215L-84.3862 19.0006L-80.3469 24.0911L-79.997 23.8097ZM-81.0466 24.6538L-85.0896 19.5588L-85.4413 19.8378L-81.3965 24.9352L-81.0466 24.6538ZM-82.0962 25.498L-86.1447 20.396L-86.4964 20.6751L-82.4461 25.7794L-82.0962 25.498ZM-83.1458 26.3422L-87.1998 21.2332L-87.5515 21.5123L-83.4957 26.6236L-83.1458 26.3422ZM-84.1955 27.1864L-88.255 22.0705L-88.6067 22.3496L-84.5453 27.4678L-84.1955 27.1864ZM-85.2451 28.0306L-89.3101 22.9077L-89.4859 23.0473L-85.42 28.1713L-85.2451 28.0306ZM-86.1197 28.7341L-90.1893 23.6054L-90.3652 23.745L-86.2947 28.8748L-86.1197 28.7341ZM-86.9944 29.4375L-91.0686 24.3031L-91.772 24.8613L-87.6941 30.0003L-86.9944 29.4375ZM-88.3939 30.5631L-94.8715 22.3998L-95.2559 25.7385L-96.148 25.6358L-95.9815 24.1894L-97.2426 25.1901L-93.6146 29.7623L-91.5043 28.0878L-90.9462 28.7912L-93.7598 31.0239L-98.5042 25.0449L-96.5925 23.5279L-98.001 23.3175L-97.8683 22.4294L-95.6296 22.7639L-94.9871 22.2541L-96.6616 20.1439L-101.585 24.051L-93.292 34.5026L-88.3939 30.5631ZM-93.9918 35.0654L-101.173 26.016L-111.372 34.1093L-107.465 39.0332L-111.334 42.103L-107.987 46.3212L-93.9918 35.0654ZM-111.892 41.3996L-108.726 38.8879L-109.006 38.5362L-112.171 41.0479L-111.892 41.3996ZM-112.729 40.3445L-109.564 37.8328L-109.843 37.4811L-113.008 39.9928L-112.729 40.3445ZM-113.566 39.2894L-110.401 36.7777L-110.68 36.426L-113.845 38.9377L-113.566 39.2894ZM-114.404 38.2343L-111.238 35.7226L-111.517 35.3709L-114.683 37.8826L-114.404 38.2343ZM-95.9582 19.5857L-92.3302 24.1579L-91.6268 23.5997L-95.2548 19.0275L-95.9582 19.5857ZM-94.5514 18.4694L-90.9233 23.0416L-90.7475 22.902L-94.3755 18.3298L-94.5514 18.4694ZM-93.6721 17.7717L-90.0441 22.3439L-89.8682 22.2043L-93.4963 17.6321L-93.6721 17.7717ZM-92.7929 17.074L-89.1648 21.6462L-88.8131 21.3671L-92.4412 16.7949L-92.7929 17.074ZM-91.7377 16.2367L-88.1097 20.8089L-87.758 20.5298L-91.386 15.9577L-91.7377 16.2367ZM-90.6826 15.3995L-87.0546 19.9717L-86.7029 19.6926L-90.3309 15.1204L-90.6826 15.3995ZM78.9254 229.867L75.2974 225.295L74.9457 225.574L78.5737 230.146L78.9254 229.867ZM79.1319 230.85L79.4836 230.57L83.1116 235.143L82.7599 235.422L79.1319 230.85ZM78.4285 231.408L73.8563 235.036L77.4843 239.608L82.0565 235.98L78.4285 231.408ZM83.815 234.585L80.187 230.012L85.4626 225.826L89.0906 230.398L83.815 234.585ZM120.62 -151.697L118.158 -149.743L117.599 -150.447L120.765 -152.958L125.788 -146.628L123.678 -144.953L124.576 -144.978L124.6 -144.08L121.839 -144.005L122.188 -147.042L123.08 -146.939L122.914 -145.493L124.527 -146.773L120.62 -151.697ZM-106.456 31.0364L-104.63 31.6253L-104.471 33.5369L-105.366 33.6111L-105.431 32.8339L-108.291 35.1032L-106.895 36.8617L-107.599 37.4199L-109.552 34.9579L-105.989 32.1305L-106.731 31.891L-106.456 31.0364ZM134.252 -159.075L136.485 -156.262L132.968 -153.471L133.865 -153.495L133.89 -152.598L131.128 -152.522L131.478 -155.56L132.37 -155.457L132.203 -154.011L135.223 -156.407L133.549 -158.517L134.252 -159.075Z" fill="#136E90"/>
</g>
<path fill-rule="evenodd" clip-rule="evenodd" d="M46.2637 244.321L45.2086 245.159L44.6504 244.455L100.717 199.966L116.226 201.752L126.946 215.262L256.374 112.561L256.932 113.264L127.504 215.965L159.878 256.763L159.174 257.321L115.753 202.601L100.984 200.901L46.9671 243.763L57.014 256.425L56.3105 256.983L46.2637 244.321ZM304.064 39.7558L248.494 83.8505L247.936 83.1471L303.505 39.0524L304.064 39.7558ZM68.6047 233.472L67.7071 233.496L67.6826 232.598L70.4442 232.523L70.0944 235.561L69.2024 235.458L69.3689 234.012L67.7561 235.291L71.3841 239.864L73.846 237.91L74.4042 238.613L71.2388 241.125L66.4945 235.146L68.6047 233.472Z" fill="#136E90"/>
<path fill-rule="evenodd" clip-rule="evenodd" d="M268.541 67.9429L269.244 67.3847L272.872 71.9569L284.479 62.7472L280.851 58.1751L281.554 57.6169L289.368 67.4647L294.644 63.2785L295.202 63.9819L282.892 73.7497L282.334 73.0463L288.665 68.0228L285.037 63.4506L272.727 73.2185L268.541 67.9429Z" fill="#136E90"/>
<path fill-rule="evenodd" clip-rule="evenodd" d="M270.299 66.5484L273.927 71.1206L273.224 71.6787L269.596 67.1066L270.299 66.5484ZM274.279 70.8415L270.651 66.2693L271.354 65.7112L274.982 70.2833L274.279 70.8415ZM272.409 64.8739L276.037 69.4461L275.334 70.0043L271.706 65.4321L272.409 64.8739ZM276.389 69.167L272.761 64.5948L273.464 64.0367L277.093 68.6089L276.389 69.167ZM274.52 63.1994L278.148 67.7716L277.444 68.3298L273.816 63.7576L274.52 63.1994ZM278.499 67.4925L274.871 62.9204L275.575 62.3622L279.203 66.9344L278.499 67.4925ZM276.63 61.525L280.258 66.0971L279.554 66.6553L275.926 62.0831L276.63 61.525ZM280.61 65.8181L276.982 61.2459L277.685 60.6877L281.313 65.2599L280.61 65.8181ZM278.74 59.8505L282.368 64.4227L281.665 64.9808L278.037 60.4086L278.74 59.8505ZM282.72 64.1436L279.092 59.5714L279.795 59.0132L283.423 63.5854L282.72 64.1436ZM282.804 60.6379L284.478 62.7482L283.775 63.3063L280.147 58.7342L280.85 58.176L282.246 59.9345L286.818 56.3065L291.841 62.6372L289.379 64.5908L290.277 64.5663L290.301 65.4639L287.54 65.5392L287.89 62.5018L288.782 62.6045L288.615 64.0508L290.58 62.4919L286.673 57.5681L282.804 60.6379ZM286.478 53.7107L287.181 53.1526L293.879 61.5935L304.078 53.5002L300.45 48.928L301.154 48.3698L305.34 53.6454L294.437 62.2969L297.228 65.814L296.524 66.3721L286.478 53.7107ZM300.305 50.1896L302.538 53.0032L298.669 56.0731L299.567 56.0486L299.591 56.9462L296.829 57.0216L297.179 53.9841L298.071 54.0868L297.905 55.5332L301.276 52.858L299.602 50.7477L300.305 50.1896ZM282.613 73.3989L283.316 72.8407L279.13 67.5652L278.427 68.1233L282.613 73.3989ZM283.668 72.5617L279.761 67.6378L280.464 67.0796L284.371 72.0035L283.668 72.5617ZM284.723 71.7244L280.816 66.8005L281.519 66.2424L285.427 71.1663L284.723 71.7244ZM285.778 70.8872L281.871 65.9633L282.575 65.4051L286.482 70.329L285.778 70.8872ZM286.833 70.0499L282.926 65.1261L283.63 64.5679L287.537 69.4918L286.833 70.0499ZM288.168 69.5644L283.981 64.2888L284.685 63.7307L288.871 69.0062L288.168 69.5644Z" fill="#136E90"/>
<path fill-rule="evenodd" clip-rule="evenodd" d="M306.83 49.0236L300.969 41.6378L301.673 41.0796L311.999 54.0927L311.295 54.6509L308.225 50.7821L304.708 53.5729L304.15 52.8695L307.667 50.0787L307.388 49.727L304.223 52.2387L303.665 51.5353L306.83 49.0236ZM297.93 65.2559L294.861 61.3871L295.564 60.829L298.634 64.6977L297.93 65.2559ZM300.041 63.5814L296.971 59.7127L297.674 59.1545L300.744 63.0233L300.041 63.5814ZM301.096 62.7442L298.026 58.8754L298.729 58.3173L301.799 62.186L301.096 62.7442ZM302.151 61.9069L299.081 58.0382L299.784 57.48L302.854 61.3488L302.151 61.9069ZM300.84 56.6428L303.909 60.5115L303.206 61.0697L300.136 57.2009L300.84 56.6428ZM304.261 60.2325L301.191 56.3637L301.895 55.8055L304.965 59.6743L304.261 60.2325ZM305.316 59.3952L302.246 55.5265L302.95 54.9683L306.02 58.8371L305.316 59.3952ZM306.371 58.558L303.301 54.6892L304.005 54.1311L307.075 57.9998L306.371 58.558Z" fill="#136E90"/>
<path fill-rule="evenodd" clip-rule="evenodd" d="M304.224 52.2382L303.872 52.5176L303.313 51.8134L303.666 51.5339L304.224 52.2382Z" fill="#136E90"/>
<path fill-rule="evenodd" clip-rule="evenodd" d="M90.6497 208.527L-64.7979 12.6276L-64.0944 12.0694L91.3531 207.969L90.6497 208.527Z" fill="#136E90"/>
<path d="M142.067 4.31257L135.908 0.68514L134.513 1.79157L136.638 8.62017L137.86 7.65049L137.474 6.48858L139.809 4.63625L140.853 5.27603L142.067 4.31257ZM138.739 3.91515L137.007 5.28886L135.975 2.20187L138.739 3.91515Z" fill="#156F8F"/>
<path d="M149.01 13.0626L142.851 9.43514L141.457 10.5416L143.582 17.3702L144.804 16.4005L144.418 15.2386L146.752 13.3862L147.796 14.026L149.01 13.0626ZM145.682 12.6652L143.951 14.0389L142.918 10.9519L145.682 12.6652Z" fill="#156F8F"/>
<path d="M155.953 21.8124L149.794 18.185L148.4 19.2914L150.525 26.12L151.747 25.1504L151.361 23.9885L153.695 22.1361L154.739 22.7759L155.953 21.8124ZM152.625 21.415L150.894 22.7887L149.862 19.7017L152.625 21.415Z" fill="#156F8F"/>
<path d="M162.897 30.5624L156.738 26.935L155.343 28.0414L157.468 34.87L158.69 33.9004L158.304 32.7385L160.639 30.8861L161.683 31.5259L162.897 30.5624ZM159.569 30.165L157.838 31.5387L156.805 28.4517L159.569 30.165Z" fill="#156F8F"/>
<path d="M147.043 121.076C147.679 121.149 148.388 120.98 149.109 120.409C150.121 119.605 150.2 118.699 149.655 118.012C148.995 117.179 148.059 117.619 147.329 117.969C146.815 118.212 146.437 118.383 146.237 118.13C146.058 117.905 146.124 117.595 146.484 117.31C146.85 117.019 147.358 116.827 147.885 116.867L147.865 115.929C147.222 115.881 146.583 116.094 145.987 116.567C145.103 117.268 144.965 118.203 145.461 118.828C146.126 119.666 147.048 119.21 147.773 118.864C148.287 118.621 148.689 118.458 148.912 118.74C149.082 118.953 149.033 119.331 148.594 119.68C148.077 120.09 147.483 120.186 146.999 120.12L147.043 121.076Z" fill="white"/>
<path d="M151.983 118.127C152.282 117.891 152.41 117.66 152.441 117.48L151.861 117.06C151.853 117.131 151.783 117.25 151.676 117.335C151.518 117.46 151.325 117.402 151.191 117.233L150.218 116.007L150.77 115.569L150.274 114.944L149.722 115.382L149.133 114.639L148.413 115.211L149.002 115.954L148.552 116.311L149.048 116.935L149.498 116.578L150.623 117.996C151.007 118.48 151.483 118.525 151.983 118.127Z" fill="white"/>
<path d="M155.266 115.412L153.873 113.657C153.252 112.875 152.487 113.078 151.868 113.569C151.441 113.908 151.12 114.383 151.02 114.939L151.67 115.203C151.731 114.806 151.916 114.485 152.209 114.253C152.569 113.967 152.948 113.959 153.167 114.235L153.466 114.612C153.112 114.536 152.702 114.678 152.342 114.963C151.909 115.307 151.58 115.944 152.084 116.58C152.566 117.188 153.311 117.074 153.744 116.73C154.099 116.449 154.317 116.065 154.328 115.698L154.551 115.98L155.266 115.412ZM154.033 115.327C154.04 115.578 153.878 115.836 153.647 116.019C153.366 116.242 153.019 116.279 152.818 116.025C152.613 115.767 152.723 115.432 153.004 115.208C153.235 115.025 153.522 114.925 153.766 114.989L154.033 115.327Z" fill="white"/>
<path d="M156.472 115.592C157.047 115.623 157.497 115.439 157.964 115.069C158.634 114.537 159.232 113.65 158.411 112.615L156.401 110.082L155.681 110.654L155.958 111.003C155.519 110.901 155.115 110.993 154.789 111.252C154.102 111.797 153.983 112.698 154.689 113.587C155.408 114.493 156.305 114.561 156.986 114.02C157.318 113.757 157.485 113.367 157.485 112.927L157.704 113.203C158.128 113.738 157.843 114.211 157.5 114.484C157.157 114.756 156.794 114.888 156.382 114.82L156.472 115.592ZM157.074 112.41C157.094 112.678 156.943 113.018 156.706 113.206C156.301 113.527 155.796 113.469 155.426 113.002C155.055 112.535 155.113 112.031 155.519 111.709C155.755 111.522 156.116 111.446 156.377 111.532L157.074 112.41Z" fill="white"/>
<path d="M158.012 111.015C158.704 111.887 159.77 111.948 160.598 111.292C161.02 110.957 161.344 110.498 161.418 110.026L160.737 109.815C160.697 110.122 160.479 110.46 160.225 110.661C159.764 111.027 159.261 110.959 158.943 110.651L160.963 109.048L160.838 108.891C160.133 108.002 159.099 107.832 158.289 108.475C157.462 109.131 157.387 110.227 158.012 111.015ZM158.74 109.043C159.212 108.668 159.665 108.868 159.887 109.114L158.548 110.176C158.367 109.879 158.295 109.396 158.74 109.043Z" fill="white"/>
<path d="M-0.817309 153.293L-2.05866 151.729L-0.241045 150.286L-0.785809 149.6L-2.60342 151.042L-3.25089 150.226L-1.39388 148.753L-1.93865 148.066L-4.59473 150.174L-1.61638 153.927L-0.817309 153.293Z" fill="#C2E567"/>
<path d="M2.89564 150.457C3.796 149.743 3.81825 148.661 3.20204 147.885C2.5903 147.114 1.5321 146.889 0.631738 147.604C-0.263001 148.314 -0.285247 149.395 0.326497 150.166C0.942705 150.943 2.0009 151.167 2.89564 150.457ZM2.39106 149.821C1.9465 150.174 1.40866 150.005 1.0693 149.577C0.734402 149.155 0.691759 148.593 1.13631 148.24C1.58087 147.887 2.12434 148.052 2.45924 148.474C2.7986 148.902 2.83561 149.468 2.39106 149.821Z" fill="#C2E567"/>
<path d="M6.12693 147.893C7.02729 147.178 7.04954 146.097 6.43333 145.32C5.82159 144.55 4.76339 144.325 3.86303 145.04C2.96829 145.75 2.94604 146.831 3.55779 147.602C4.174 148.379 5.23219 148.603 6.12693 147.893ZM5.62235 147.257C5.17779 147.61 4.63995 147.44 4.30059 147.013C3.96569 146.591 3.92305 146.029 4.36761 145.676C4.81216 145.323 5.35563 145.488 5.69053 145.91C6.02989 146.338 6.06691 146.904 5.62235 147.257Z" fill="#C2E567"/>
<path d="M10.6327 144.208L7.65433 140.454L6.93404 141.026L8.0325 142.41C7.59986 142.304 7.18436 142.404 6.8636 142.659C6.17145 143.208 6.08803 144.155 6.79355 145.044C7.51246 145.95 8.44097 146.057 9.1275 145.512C9.45388 145.253 9.63603 144.87 9.64 144.436L9.91238 144.779L10.6327 144.208ZM9.2158 143.901C9.23489 144.18 9.08436 144.51 8.84239 144.702C8.43722 145.023 7.90134 144.926 7.53072 144.459C7.15564 143.986 7.18248 143.442 7.58764 143.121C7.82962 142.929 8.18555 142.857 8.45224 142.939L9.2158 143.901Z" fill="#C2E567"/>
<path d="M38.4657 62.586L33.5647 64.1181L34.2881 65.0297L37.9965 63.7745L35.9358 67.1062L36.6592 68.0178L39.2605 63.5876L38.4657 62.586Z" fill="#FFC53D"/>
<path d="M36.0991 62.4003C36.9714 61.7082 37.0328 60.6415 36.3764 59.8143C36.0415 59.3922 35.5828 59.0684 35.1108 58.9936L34.8994 59.6749C35.2067 59.7154 35.5446 59.9333 35.7455 60.1865C36.1117 60.6479 36.0435 61.1514 35.736 61.4688L34.1329 59.4486L33.9754 59.5736C33.0862 60.2792 32.9161 61.3129 33.5591 62.1232C34.2155 62.9504 35.3113 63.0255 36.0991 62.4003ZM34.1275 61.6722C33.7524 61.1995 33.9527 60.7471 34.1982 60.5248L35.2609 61.8641C34.964 62.0446 34.4802 62.1168 34.1275 61.6722Z" fill="#FFC53D"/>
<path d="M32.8316 55.4857L30.9127 57.0084C30.3837 57.4281 30.2738 57.983 30.7472 58.5795C31.0999 59.0241 31.5772 59.1864 31.9238 59.1956L31.5693 59.4769L32.1364 60.1916L34.8544 58.0349L34.2873 57.3202L32.4584 58.7714C32.2015 58.7827 31.8698 58.6883 31.6465 58.4069C31.4054 58.1031 31.3785 57.8034 31.7555 57.5042L33.3987 56.2004L32.8316 55.4857Z" fill="#FFC53D"/>
<path d="M30.2145 52.1876L26.4611 55.1659L27.0327 55.8862L28.417 54.7877C28.3109 55.2204 28.4114 55.6359 28.6659 55.9566C29.2151 56.6488 30.1617 56.7322 31.0508 56.0267C31.9568 55.3078 32.0637 54.3793 31.5189 53.6927C31.2599 53.3663 30.877 53.1842 30.4428 53.1802L30.7861 52.9078L30.2145 52.1876ZM29.9082 53.6044C30.1865 53.5853 30.5169 53.7359 30.7089 53.9778C31.0304 54.383 30.9329 54.9189 30.4658 55.2895C29.9931 55.6646 29.4491 55.6377 29.1276 55.2326C28.9356 54.9906 28.8641 54.6347 28.9459 54.368L29.9082 53.6044Z" fill="#FFC53D"/>
<path d="M28.7195 50.1648C28.005 49.2644 26.9236 49.2422 26.147 49.8584C25.3761 50.4701 25.152 51.5283 25.8664 52.4287C26.5764 53.3234 27.6578 53.3457 28.4288 52.7339C29.2053 52.1177 29.4294 51.0595 28.7195 50.1648ZM28.0836 50.6694C28.4363 51.1139 28.267 51.6517 27.8394 51.9911C27.4173 52.326 26.8551 52.3686 26.5023 51.9241C26.1496 51.4795 26.3144 50.9361 26.7364 50.6012C27.1641 50.2618 27.7308 50.2248 28.0836 50.6694Z" fill="#FFC53D"/>
<path d="M26.521 47.5329L24.7259 48.9573C24.4577 48.9776 24.0782 48.7652 23.8907 48.5288C23.8282 48.45 23.7802 48.378 23.7513 48.3185L23.0535 48.8722C23.3214 49.2098 23.7807 49.3956 24.1744 49.3949L23.803 49.6896L24.3701 50.4043L27.0881 48.2476L26.521 47.5329Z" fill="#FFC53D"/>
<path d="M25.3121 46.7374C25.3488 46.2406 25.1447 45.6597 24.7696 45.187C24.1713 44.433 23.465 44.3057 22.9641 44.7031C22.2889 45.2389 22.6607 45.9618 22.9413 46.5003C23.1205 46.8533 23.2283 47.1162 23.0595 47.2502C22.9019 47.3752 22.6723 47.2823 22.4669 47.0234C22.2034 46.6914 22.0985 46.2703 22.1435 45.9687L21.4306 46.0758C21.4267 46.51 21.5594 47.0008 21.9255 47.4622C22.4926 48.1769 23.2092 48.2594 23.665 47.8977C24.3121 47.3842 23.9469 46.6927 23.6663 46.1542C23.4826 45.7956 23.3626 45.5057 23.5539 45.3539C23.7227 45.2199 23.9458 45.2814 24.1913 45.5909C24.4593 45.9285 24.5951 46.481 24.5656 46.8253L25.3121 46.7374Z" fill="#FFC53D"/>
<g opacity="0.75">
<path d="M265.609 102.367L258.907 93.9218L257.11 95.3485L261.45 100.818L253.197 98.453L251.349 99.9198L258.05 108.365L259.848 106.938L255.347 101.266L263.874 103.743L265.609 102.367Z" fill="white"/>
<path d="M275.643 94.4046L271.347 84.0506L269.322 85.6581L272.696 92.9263L266.258 88.0894L264.852 89.2046L268.087 96.5834L261.763 91.6561L259.75 93.2535L268.869 99.7797L270.781 98.2627L267.648 91.2983L273.731 95.9217L275.643 94.4046Z" fill="white"/>
</g>
<g filter="url(#filter3_d_1983_7252)">
<path d="M116.9 113.76L161.919 78.0379L191.501 115.319L146.483 151.041L116.9 113.76Z" fill="white" fill-opacity="0.1" shape-rendering="crispEdges"/>
</g>
<g filter="url(#filter4_d_1983_7252)">
<path fill-rule="evenodd" clip-rule="evenodd" d="M161.773 79.2995L118.162 113.905L146.628 149.779L190.24 115.173L161.773 79.2995ZM116.9 113.76L146.483 151.041L191.501 115.319L161.919 78.0379L116.9 113.76Z" fill="white"/>
</g>
<path fill-rule="evenodd" clip-rule="evenodd" d="M-1.73472 6.14637L-10.8791 13.4025L62.7981 106.253L71.9424 98.9966L-1.73472 6.14637ZM-12.1406 13.2572L62.6528 107.514L73.204 99.1418L-1.58947 4.8848L-12.1406 13.2572Z" fill="#9EE7E5"/>
<path fill-rule="evenodd" clip-rule="evenodd" d="M35.4697 -11.1043L15.8861 4.43537L19.6156 9.13544L39.1992 -6.40426L35.4697 -11.1043ZM15.1836 4.35449L19.5347 9.8379L39.9017 -6.32339L35.5505 -11.8068L15.1836 4.35449Z" fill="#156F8F"/>
<path fill-rule="evenodd" clip-rule="evenodd" d="M44.4833 0.254191L24.8997 15.7939L28.6293 20.494L48.2129 4.95426L44.4833 0.254191ZM24.1973 15.713L28.5484 21.1964L48.9153 5.03514L44.5642 -0.448275L24.1973 15.713Z" fill="#156F8F"/>
<path fill-rule="evenodd" clip-rule="evenodd" d="M53.496 11.6126L33.9124 27.1523L37.642 31.8524L57.2256 16.3127L53.496 11.6126ZM33.21 27.0714L37.5611 32.5548L57.928 16.3935L53.5769 10.9101L33.21 27.0714Z" fill="#156F8F"/>
<path fill-rule="evenodd" clip-rule="evenodd" d="M62.5087 22.9711L42.9251 38.5108L46.6547 43.2109L66.2383 27.6712L62.5087 22.9711ZM42.2227 38.4299L46.5738 43.9133L66.9407 27.7521L62.5896 22.2686L42.2227 38.4299Z" fill="#156F8F"/>
<path fill-rule="evenodd" clip-rule="evenodd" d="M71.5224 34.3296L51.9388 49.8693L55.6683 54.5694L75.2519 39.0297L71.5224 34.3296ZM51.2363 49.7885L55.5874 55.2719L75.9544 39.1106L71.6033 33.6272L51.2363 49.7885Z" fill="#156F8F"/>
<path fill-rule="evenodd" clip-rule="evenodd" d="M80.5351 45.6882L60.9515 61.2279L64.681 65.9279L84.2646 50.3882L80.5351 45.6882ZM60.249 61.147L64.6001 66.6304L84.9671 50.4691L80.616 44.9857L60.249 61.147Z" fill="#156F8F"/>
<path fill-rule="evenodd" clip-rule="evenodd" d="M89.5478 57.0465L69.9642 72.5862L73.6937 77.2863L93.2773 61.7466L89.5478 57.0465ZM69.2617 72.5054L73.6128 77.9888L93.9798 61.8275L89.6287 56.3441L69.2617 72.5054Z" fill="#156F8F"/>
<path fill-rule="evenodd" clip-rule="evenodd" d="M98.5615 68.4051L78.9779 83.9448L82.7074 88.6448L102.291 73.1051L98.5615 68.4051ZM78.2754 83.8639L82.6265 89.3473L102.993 73.186L98.6423 67.7026L78.2754 83.8639Z" fill="#156F8F"/>
<path fill-rule="evenodd" clip-rule="evenodd" d="M107.574 79.7636L87.9906 95.3033L91.7201 100.003L111.304 84.4637L107.574 79.7636ZM87.2881 95.2224L91.6392 100.706L112.006 84.5445L107.655 79.0611L87.2881 95.2224Z" fill="#156F8F"/>
<path fill-rule="evenodd" clip-rule="evenodd" d="M116.587 91.1221L97.0032 106.662L100.733 111.362L120.316 95.8222L116.587 91.1221ZM96.3008 106.581L100.652 112.064L121.019 95.9031L116.668 90.4196L96.3008 106.581Z" fill="#156F8F"/>
<path fill-rule="evenodd" clip-rule="evenodd" d="M125.601 102.481L106.017 118.02L109.746 122.72L129.33 107.181L125.601 102.481ZM105.314 117.939L109.666 123.423L130.033 107.261L125.681 101.778L105.314 117.939Z" fill="#156F8F"/>
<path fill-rule="evenodd" clip-rule="evenodd" d="M80.913 -10.143L61.3294 5.39667L65.0589 10.0967L84.6426 -5.44296L80.913 -10.143ZM60.627 5.3158L64.9781 10.7992L85.345 -5.36208L80.9939 -10.8455L60.627 5.3158Z" fill="#156F8F"/>
<path fill-rule="evenodd" clip-rule="evenodd" d="M89.9257 1.21549L70.3421 16.7552L74.0716 21.4553L93.6553 5.91556L89.9257 1.21549ZM69.6396 16.6743L73.9908 22.1577L94.3577 5.99644L90.0066 0.513029L69.6396 16.6743Z" fill="#156F8F"/>
<path fill-rule="evenodd" clip-rule="evenodd" d="M98.9394 12.574L79.3558 28.1137L83.0853 32.8138L102.669 17.2741L98.9394 12.574ZM78.6533 28.0328L83.0044 33.5162L103.371 17.355L99.0203 11.8715L78.6533 28.0328Z" fill="#156F8F"/>
<path fill-rule="evenodd" clip-rule="evenodd" d="M107.952 23.9325L88.3685 39.4722L92.098 44.1723L111.682 28.6326L107.952 23.9325ZM87.666 39.3914L92.0171 44.8748L112.384 28.7135L108.033 23.2301L87.666 39.3914Z" fill="#156F8F"/>
<path fill-rule="evenodd" clip-rule="evenodd" d="M116.965 35.2909L97.3812 50.8306L101.111 55.5307L120.694 39.991L116.965 35.2909ZM96.6787 50.7498L101.03 56.2332L121.397 40.0719L117.046 34.5885L96.6787 50.7498Z" fill="#156F8F"/>
<path fill-rule="evenodd" clip-rule="evenodd" d="M125.978 46.6495L106.395 62.1892L110.124 66.8892L129.708 51.3495L125.978 46.6495ZM105.692 62.1083L110.043 67.5917L130.41 51.4304L126.059 45.947L105.692 62.1083Z" fill="#156F8F"/>
<path fill-rule="evenodd" clip-rule="evenodd" d="M134.991 58.008L115.408 73.5477L119.137 78.2477L138.721 62.708L134.991 58.008ZM114.705 73.4668L119.056 78.9502L139.423 62.7889L135.072 57.3055L114.705 73.4668Z" fill="#156F8F"/>
<path fill-rule="evenodd" clip-rule="evenodd" d="M144.004 69.3665L124.42 84.9062L128.15 89.6063L147.733 74.0666L144.004 69.3665ZM123.718 84.8253L128.069 90.3087L148.436 74.1474L144.085 68.664L123.718 84.8253Z" fill="#156F8F"/>
<path fill-rule="evenodd" clip-rule="evenodd" d="M153.018 80.7249L133.434 96.2646L137.163 100.965L156.747 85.425L153.018 80.7249ZM132.731 96.1837L137.083 101.667L157.45 85.5058L153.098 80.0224L132.731 96.1837Z" fill="#156F8F"/>
<path fill-rule="evenodd" clip-rule="evenodd" d="M117.343 -20.54L97.7591 -5.0003L101.489 -0.300233L121.072 -15.8399L117.343 -20.54ZM97.0566 -5.08118L101.408 0.402234L121.775 -15.7591L117.424 -21.2425L97.0566 -5.08118Z" fill="#156F8F"/>
<path fill-rule="evenodd" clip-rule="evenodd" d="M126.356 -9.18148L106.773 6.35822L110.502 11.0583L130.086 -4.48141L126.356 -9.18148ZM106.07 6.27734L110.421 11.7608L130.788 -4.40053L126.437 -9.88394L106.07 6.27734Z" fill="#156F8F"/>
<path fill-rule="evenodd" clip-rule="evenodd" d="M135.369 2.17704L115.785 17.7167L119.515 22.4168L139.099 6.87711L135.369 2.17704ZM115.083 17.6359L119.434 23.1193L139.801 6.95799L135.45 1.47458L115.083 17.6359Z" fill="#156F8F"/>
<path fill-rule="evenodd" clip-rule="evenodd" d="M144.382 13.5354L124.798 29.0751L128.528 33.7752L148.111 18.2355L144.382 13.5354ZM124.096 28.9943L128.447 34.4777L148.814 18.3164L144.463 12.833L124.096 28.9943Z" fill="#156F8F"/>
<path fill-rule="evenodd" clip-rule="evenodd" d="M153.395 24.894L133.812 40.4337L137.541 45.1337L157.125 29.594L153.395 24.894ZM133.109 40.3528L137.46 45.8362L157.827 29.6749L153.476 24.1915L133.109 40.3528Z" fill="#156F8F"/>
<path fill-rule="evenodd" clip-rule="evenodd" d="M162.408 36.2525L142.825 51.7922L146.554 56.4922L166.138 40.9525L162.408 36.2525ZM142.122 51.7113L146.473 57.1947L166.84 41.0334L162.489 35.55L142.122 51.7113Z" fill="#156F8F"/>
<path fill-rule="evenodd" clip-rule="evenodd" d="M171.421 47.611L151.837 63.1507L155.567 67.8508L175.15 52.3111L171.421 47.611ZM151.135 63.0698L155.486 68.5532L175.853 52.3919L171.502 46.9085L151.135 63.0698Z" fill="#156F8F"/>
<path fill-rule="evenodd" clip-rule="evenodd" d="M180.435 58.9694L160.851 74.5091L164.58 79.2092L184.164 63.6695L180.435 58.9694ZM160.148 74.4282L164.5 79.9116L184.867 63.7503L180.515 58.2669L160.148 74.4282Z" fill="#156F8F"/>
<g filter="url(#filter5_d_1983_7252)">
<path d="M154.92 -66.5757L189.387 -93.9255L253.017 -13.7367L218.55 13.6131L154.92 -66.5757Z" fill="#FFC53D" fill-opacity="0.1" shape-rendering="crispEdges"/>
</g>
<g filter="url(#filter6_d_1983_7252)">
<path fill-rule="evenodd" clip-rule="evenodd" d="M189.242 -92.664L156.181 -66.4304L218.695 12.3516L251.756 -13.882L189.242 -92.664ZM154.92 -66.5757L218.55 13.6131L253.017 -13.7367L189.387 -93.9255L154.92 -66.5757Z" fill="#FFC53D"/>
</g>
<path d="M259.076 41.0643L257.544 36.1633L256.632 36.8867L257.887 40.5951L254.555 38.5344L253.644 39.2578L258.074 41.8591L259.076 41.0643Z" fill="#FFC53D"/>
<path d="M258.732 36.2563C258.969 36.0687 259.008 35.7256 258.821 35.4892C258.633 35.2529 258.29 35.2134 258.054 35.4009C257.823 35.584 257.778 35.9316 257.965 36.168C258.153 36.4043 258.502 36.4393 258.732 36.2563ZM261.566 39.088L259.41 36.37L258.695 36.9371L260.852 39.6551L261.566 39.088Z" fill="#FFC53D"/>
<path d="M264.863 36.4717L261.885 32.7183L261.165 33.2898L262.263 34.6741C261.831 34.5681 261.415 34.6685 261.094 34.923C260.402 35.4723 260.319 36.4188 261.024 37.3079C261.743 38.2139 262.672 38.3208 263.358 37.7761C263.685 37.5171 263.867 37.1341 263.871 36.7L264.143 37.0432L264.863 36.4717ZM263.447 36.1654C263.466 36.4437 263.315 36.774 263.073 36.9661C262.668 37.2876 262.132 37.1901 261.762 36.723C261.386 36.2503 261.413 35.7063 261.818 35.3848C262.06 35.1928 262.416 35.1213 262.683 35.2031L263.447 36.1654Z" fill="#FFC53D"/>
<path d="M264.317 34.6859C265.009 35.5582 266.076 35.6196 266.903 34.9632C267.325 34.6283 267.649 34.1696 267.724 33.6976L267.043 33.4862C267.002 33.7935 266.784 34.1314 266.531 34.3324C266.069 34.6985 265.566 34.6303 265.249 34.3228L267.269 32.7197L267.144 32.5622C266.438 31.6731 265.405 31.5029 264.594 32.1459C263.767 32.8023 263.692 33.8981 264.317 34.6859ZM265.045 32.7143C265.518 32.3392 265.97 32.5396 266.193 32.785L264.853 33.8478C264.673 33.5509 264.601 33.067 265.045 32.7143Z" fill="#FFC53D"/>
<path d="M269.997 32.5085C270.897 31.7941 270.919 30.7126 270.303 29.9361C269.691 29.1651 268.633 28.941 267.733 29.6555C266.838 30.3655 266.816 31.4469 267.428 32.2178C268.044 32.9944 269.102 33.2185 269.997 32.5085ZM269.492 31.8726C269.048 32.2254 268.51 32.0561 268.17 31.6284C267.835 31.2064 267.793 30.6441 268.237 30.2914C268.682 29.9386 269.225 30.1034 269.56 30.5255C269.9 30.9532 269.937 31.5199 269.492 31.8726Z" fill="#FFC53D"/>
<path d="M259.546 49.1005C260.484 50.2822 261.991 50.3331 263.089 49.4624C263.77 48.9221 264.081 48.2165 264.124 47.4852L262.986 46.0502L261.196 47.4702L261.741 48.1567L262.742 47.3619L263.104 47.8177C263.057 48.0935 262.865 48.4753 262.522 48.7477C261.841 49.288 260.93 49.1576 260.368 48.4486C259.805 47.7395 259.885 46.8232 260.566 46.2829C260.96 45.9704 261.446 45.9241 261.83 46.0501L262.208 45.1631C261.568 44.9462 260.78 44.9577 260.003 45.5739C258.906 46.4446 258.604 47.9131 259.546 49.1005Z" fill="#FFC53D"/>
<path d="M267.593 45.7691L266.2 44.0134C265.579 43.2312 264.814 43.4346 264.195 43.9257C263.767 44.2651 263.447 44.7395 263.347 45.2956L263.997 45.5596C264.058 45.1627 264.243 44.8414 264.536 44.6092C264.896 44.3234 265.275 44.316 265.494 44.5917L265.793 44.9687C265.439 44.8922 265.029 45.0341 264.669 45.3199C264.235 45.6637 263.906 46.3008 264.411 46.9367C264.893 47.5444 265.637 47.4307 266.071 47.0869C266.425 46.8056 266.643 46.4216 266.655 46.0548L266.878 46.3362L267.593 45.7691ZM266.36 45.6834C266.367 45.9347 266.204 46.1921 265.974 46.3752C265.692 46.5985 265.346 46.6352 265.145 46.382C264.939 46.1232 265.049 45.7881 265.331 45.5649C265.561 45.3818 265.849 45.282 266.092 45.3458L266.36 45.6834Z" fill="#FFC53D"/>
<path d="M272.393 41.9603L270.834 39.9964C270.392 39.4393 269.884 39.4115 269.383 39.8089C268.967 40.1393 268.803 40.6727 268.842 41.0453C268.495 40.8162 268.095 40.8314 267.695 41.1485C267.279 41.4789 267.124 42.0235 267.141 42.276L266.86 41.9215L266.145 42.4886L268.302 45.2066L269.016 44.6395L267.565 42.8106C267.551 42.5739 267.626 42.2398 267.873 42.0434C268.166 41.8112 268.421 41.9019 268.622 42.1552L269.984 43.8715L270.705 43.2999L269.249 41.4654C269.234 41.2387 269.308 40.9047 269.561 40.7038C269.854 40.4716 270.11 40.5623 270.31 40.8156L271.672 42.5319L272.393 41.9603Z" fill="#FFC53D"/>
<path d="M271.839 40.1807C272.531 41.053 273.597 41.1144 274.425 40.458C274.847 40.1231 275.17 39.6644 275.245 39.1924L274.564 38.981C274.524 39.2883 274.306 39.6262 274.052 39.8272C273.591 40.1933 273.087 40.1251 272.77 39.8176L274.79 38.2145L274.665 38.057C273.96 37.1679 272.926 36.9977 272.116 37.6407C271.288 38.2971 271.213 39.3929 271.839 40.1807ZM272.567 38.2091C273.039 37.834 273.492 38.0344 273.714 38.2798L272.375 39.3426C272.194 39.0457 272.122 38.5618 272.567 38.2091Z" fill="#FFC53D"/>
<path d="M275.686 38.769C276.183 38.8058 276.764 38.6017 277.237 38.2266C277.991 37.6282 278.118 36.9219 277.721 36.4211C277.185 35.7458 276.462 36.1177 275.924 36.3983C275.571 36.5775 275.308 36.6853 275.174 36.5164C275.049 36.3589 275.142 36.1293 275.4 35.9239C275.732 35.6604 276.154 35.5555 276.455 35.6005L276.348 34.8876C275.914 34.8836 275.423 35.0163 274.962 35.3825C274.247 35.9496 274.164 36.6661 274.526 37.122C275.04 37.7691 275.731 37.4038 276.27 37.1233C276.628 36.9396 276.918 36.8196 277.07 37.0109C277.204 37.1797 277.142 37.4027 276.833 37.6483C276.495 37.9162 275.943 38.052 275.598 38.0226L275.686 38.769Z" fill="#FFC53D"/>
<g filter="url(#filter7_d_1983_7252)">
<path d="M237.528 37.5288L271.995 10.179L294.88 39.0188L260.413 66.3686L237.528 37.5288Z" fill="#FFC53D" fill-opacity="0.1" shape-rendering="crispEdges"/>
</g>
<g filter="url(#filter8_d_1983_7252)">
<path fill-rule="evenodd" clip-rule="evenodd" d="M271.85 11.4405L238.79 37.6741L260.558 65.1071L293.618 38.8735L271.85 11.4405ZM237.528 37.5288L260.413 66.3686L294.88 39.0188L271.995 10.179L237.528 37.5288Z" fill="#FFC53D"/>
</g>
<g filter="url(#filter9_d_1983_7252)">
<path d="M35 220.017L70.1705 192.109L81.8919 206.88L46.7214 234.788L35 220.017Z" fill="#C2E567" fill-opacity="0.1" shape-rendering="crispEdges"/>
</g>
<g filter="url(#filter10_d_1983_7252)">
<path fill-rule="evenodd" clip-rule="evenodd" d="M70.0253 193.37L36.2616 220.162L46.8666 233.527L80.6303 206.735L70.0253 193.37ZM35 220.017L46.7214 234.788L81.8919 206.88L70.1705 192.109L35 220.017Z" fill="#C2E567"/>
</g>
<path d="M293.108 132.131C295.882 135.627 295.297 140.71 291.8 143.485C288.304 146.259 283.221 145.674 280.446 142.177C277.672 138.681 278.257 133.598 281.754 130.823C285.25 128.049 290.333 128.634 293.108 132.131Z" fill="#FFC53D" fill-opacity="0.25"/>
<path d="M290.798 138.548L288.412 132.796L287.49 133.527L289.452 137.863L285.612 135.017L284.958 135.536L286.856 139.922L283.073 137.032L282.151 137.763L287.218 141.389L288.097 140.691L286.258 136.511L289.919 139.246L290.798 138.548Z" fill="#FFC53D"/>
<path d="M281.944 118.063C284.718 121.559 284.133 126.642 280.636 129.417C277.14 132.191 272.057 131.606 269.282 128.11C266.508 124.613 267.093 119.53 270.589 116.755C274.086 113.981 279.169 114.566 281.944 118.063Z" fill="#FFC53D" fill-opacity="0.25"/>
<path d="M279.634 124.48L277.248 118.728L276.326 119.459L278.288 123.795L274.448 120.949L273.794 121.468L275.692 125.854L271.909 122.964L270.987 123.695L276.054 127.321L276.933 126.623L275.094 122.443L278.755 125.178L279.634 124.48Z" fill="#FFC53D"/>
<path d="M307.029 122.23C309.803 125.727 309.218 130.81 305.721 133.585C302.225 136.359 297.142 135.774 294.367 132.277C291.593 128.781 292.178 123.698 295.674 120.923C299.171 118.149 304.254 118.734 307.029 122.23Z" fill="#FFC53D" fill-opacity="0.25"/>
<path d="M304.719 128.648L302.333 122.896L301.411 123.627L303.373 127.962L299.533 125.117L298.879 125.636L300.777 130.022L296.994 127.132L296.072 127.863L301.139 131.489L302.018 130.791L300.179 126.61L303.84 129.346L304.719 128.648Z" fill="#FFC53D"/>
</g>
<defs>
<filter id="filter0_d_1983_7252" x="-63.0732" y="80.1346" width="133.056" height="134.084" filterUnits="userSpaceOnUse" color-interpolation-filters="sRGB">
<feFlood flood-opacity="0" result="BackgroundImageFix"/>
<feColorMatrix in="SourceAlpha" type="matrix" values="0 0 0 0 0 0 0 0 0 0 0 0 0 0 0 0 0 0 127 0" result="hardAlpha"/>
<feOffset/>
<feGaussianBlur stdDeviation="17.5"/>
<feComposite in2="hardAlpha" operator="out"/>
<feColorMatrix type="matrix" values="0 0 0 0 0.760784 0 0 0 0 0.898039 0 0 0 0 0.403922 0 0 0 0.1 0"/>
<feBlend mode="normal" in2="BackgroundImageFix" result="effect1_dropShadow_1983_7252"/>
<feBlend mode="normal" in="SourceGraphic" in2="effect1_dropShadow_1983_7252" result="shape"/>
</filter>
<filter id="filter1_d_1983_7252" x="-63.7031" y="79.5056" width="134.32" height="135.343" filterUnits="userSpaceOnUse" color-interpolation-filters="sRGB">
<feFlood flood-opacity="0" result="BackgroundImageFix"/>
<feColorMatrix in="SourceAlpha" type="matrix" values="0 0 0 0 0 0 0 0 0 0 0 0 0 0 0 0 0 0 127 0" result="hardAlpha"/>
<feOffset/>
<feGaussianBlur stdDeviation="17.5"/>
<feComposite in2="hardAlpha" operator="out"/>
<feColorMatrix type="matrix" values="0 0 0 0 0.760784 0 0 0 0 0.898039 0 0 0 0 0.403922 0 0 0 0.1 0"/>
<feBlend mode="normal" in2="BackgroundImageFix" result="effect1_dropShadow_1983_7252"/>
<feBlend mode="normal" in="SourceGraphic" in2="effect1_dropShadow_1983_7252" result="shape"/>
</filter>
<filter id="filter2_d_1983_7252" x="-200.907" y="-261.011" width="594.521" height="608.35" filterUnits="userSpaceOnUse" color-interpolation-filters="sRGB">
<feFlood flood-opacity="0" result="BackgroundImageFix"/>
<feColorMatrix in="SourceAlpha" type="matrix" values="0 0 0 0 0 0 0 0 0 0 0 0 0 0 0 0 0 0 127 0" result="hardAlpha"/>
<feOffset/>
<feGaussianBlur stdDeviation="17.5"/>
<feComposite in2="hardAlpha" operator="out"/>
<feColorMatrix type="matrix" values="0 0 0 0 0.0745098 0 0 0 0 0.431373 0 0 0 0 0.564706 0 0 0 1 0"/>
<feBlend mode="normal" in2="BackgroundImageFix" result="effect1_dropShadow_1983_7252"/>
<feBlend mode="normal" in="SourceGraphic" in2="effect1_dropShadow_1983_7252" result="shape"/>
</filter>
<filter id="filter3_d_1983_7252" x="81.9004" y="43.0378" width="144.601" height="143.003" filterUnits="userSpaceOnUse" color-interpolation-filters="sRGB">
<feFlood flood-opacity="0" result="BackgroundImageFix"/>
<feColorMatrix in="SourceAlpha" type="matrix" values="0 0 0 0 0 0 0 0 0 0 0 0 0 0 0 0 0 0 127 0" result="hardAlpha"/>
<feOffset/>
<feGaussianBlur stdDeviation="17.5"/>
<feComposite in2="hardAlpha" operator="out"/>
<feColorMatrix type="matrix" values="0 0 0 0 1 0 0 0 0 1 0 0 0 0 1 0 0 0 0.1 0"/>
<feBlend mode="normal" in2="BackgroundImageFix" result="effect1_dropShadow_1983_7252"/>
<feBlend mode="normal" in="SourceGraphic" in2="effect1_dropShadow_1983_7252" result="shape"/>
</filter>
<filter id="filter4_d_1983_7252" x="81.9004" y="43.0378" width="144.601" height="143.003" filterUnits="userSpaceOnUse" color-interpolation-filters="sRGB">
<feFlood flood-opacity="0" result="BackgroundImageFix"/>
<feColorMatrix in="SourceAlpha" type="matrix" values="0 0 0 0 0 0 0 0 0 0 0 0 0 0 0 0 0 0 127 0" result="hardAlpha"/>
<feOffset/>
<feGaussianBlur stdDeviation="17.5"/>
<feComposite in2="hardAlpha" operator="out"/>
<feColorMatrix type="matrix" values="0 0 0 0 1 0 0 0 0 1 0 0 0 0 1 0 0 0 0.1 0"/>
<feBlend mode="normal" in2="BackgroundImageFix" result="effect1_dropShadow_1983_7252"/>
<feBlend mode="normal" in="SourceGraphic" in2="effect1_dropShadow_1983_7252" result="shape"/>
</filter>
<filter id="filter5_d_1983_7252" x="119.92" y="-128.926" width="168.098" height="177.539" filterUnits="userSpaceOnUse" color-interpolation-filters="sRGB">
<feFlood flood-opacity="0" result="BackgroundImageFix"/>
<feColorMatrix in="SourceAlpha" type="matrix" values="0 0 0 0 0 0 0 0 0 0 0 0 0 0 0 0 0 0 127 0" result="hardAlpha"/>
<feOffset/>
<feGaussianBlur stdDeviation="17.5"/>
<feComposite in2="hardAlpha" operator="out"/>
<feColorMatrix type="matrix" values="0 0 0 0 1 0 0 0 0 0.772549 0 0 0 0 0.239216 0 0 0 0.1 0"/>
<feBlend mode="normal" in2="BackgroundImageFix" result="effect1_dropShadow_1983_7252"/>
<feBlend mode="normal" in="SourceGraphic" in2="effect1_dropShadow_1983_7252" result="shape"/>
</filter>
<filter id="filter6_d_1983_7252" x="119.92" y="-128.926" width="168.098" height="177.539" filterUnits="userSpaceOnUse" color-interpolation-filters="sRGB">
<feFlood flood-opacity="0" result="BackgroundImageFix"/>
<feColorMatrix in="SourceAlpha" type="matrix" values="0 0 0 0 0 0 0 0 0 0 0 0 0 0 0 0 0 0 127 0" result="hardAlpha"/>
<feOffset/>
<feGaussianBlur stdDeviation="17.5"/>
<feComposite in2="hardAlpha" operator="out"/>
<feColorMatrix type="matrix" values="0 0 0 0 1 0 0 0 0 0.772549 0 0 0 0 0.239216 0 0 0 0.1 0"/>
<feBlend mode="normal" in2="BackgroundImageFix" result="effect1_dropShadow_1983_7252"/>
<feBlend mode="normal" in="SourceGraphic" in2="effect1_dropShadow_1983_7252" result="shape"/>
</filter>
<filter id="filter7_d_1983_7252" x="202.528" y="-24.821" width="127.352" height="126.19" filterUnits="userSpaceOnUse" color-interpolation-filters="sRGB">
<feFlood flood-opacity="0" result="BackgroundImageFix"/>
<feColorMatrix in="SourceAlpha" type="matrix" values="0 0 0 0 0 0 0 0 0 0 0 0 0 0 0 0 0 0 127 0" result="hardAlpha"/>
<feOffset/>
<feGaussianBlur stdDeviation="17.5"/>
<feComposite in2="hardAlpha" operator="out"/>
<feColorMatrix type="matrix" values="0 0 0 0 1 0 0 0 0 0.772549 0 0 0 0 0.239216 0 0 0 0.1 0"/>
<feBlend mode="normal" in2="BackgroundImageFix" result="effect1_dropShadow_1983_7252"/>
<feBlend mode="normal" in="SourceGraphic" in2="effect1_dropShadow_1983_7252" result="shape"/>
</filter>
<filter id="filter8_d_1983_7252" x="202.528" y="-24.821" width="127.352" height="126.19" filterUnits="userSpaceOnUse" color-interpolation-filters="sRGB">
<feFlood flood-opacity="0" result="BackgroundImageFix"/>
<feColorMatrix in="SourceAlpha" type="matrix" values="0 0 0 0 0 0 0 0 0 0 0 0 0 0 0 0 0 0 127 0" result="hardAlpha"/>
<feOffset/>
<feGaussianBlur stdDeviation="17.5"/>
<feComposite in2="hardAlpha" operator="out"/>
<feColorMatrix type="matrix" values="0 0 0 0 1 0 0 0 0 0.772549 0 0 0 0 0.239216 0 0 0 0.1 0"/>
<feBlend mode="normal" in2="BackgroundImageFix" result="effect1_dropShadow_1983_7252"/>
<feBlend mode="normal" in="SourceGraphic" in2="effect1_dropShadow_1983_7252" result="shape"/>
</filter>
<filter id="filter9_d_1983_7252" x="0" y="157.109" width="116.892" height="112.68" filterUnits="userSpaceOnUse" color-interpolation-filters="sRGB">
<feFlood flood-opacity="0" result="BackgroundImageFix"/>
<feColorMatrix in="SourceAlpha" type="matrix" values="0 0 0 0 0 0 0 0 0 0 0 0 0 0 0 0 0 0 127 0" result="hardAlpha"/>
<feOffset/>
<feGaussianBlur stdDeviation="17.5"/>
<feComposite in2="hardAlpha" operator="out"/>
<feColorMatrix type="matrix" values="0 0 0 0 0.760784 0 0 0 0 0.898039 0 0 0 0 0.403922 0 0 0 0.1 0"/>
<feBlend mode="normal" in2="BackgroundImageFix" result="effect1_dropShadow_1983_7252"/>
<feBlend mode="normal" in="SourceGraphic" in2="effect1_dropShadow_1983_7252" result="shape"/>
</filter>
<filter id="filter10_d_1983_7252" x="0" y="157.109" width="116.892" height="112.68" filterUnits="userSpaceOnUse" color-interpolation-filters="sRGB">
<feFlood flood-opacity="0" result="BackgroundImageFix"/>
<feColorMatrix in="SourceAlpha" type="matrix" values="0 0 0 0 0 0 0 0 0 0 0 0 0 0 0 0 0 0 127 0" result="hardAlpha"/>
<feOffset/>
<feGaussianBlur stdDeviation="17.5"/>
<feComposite in2="hardAlpha" operator="out"/>
<feColorMatrix type="matrix" values="0 0 0 0 0.760784 0 0 0 0 0.898039 0 0 0 0 0.403922 0 0 0 0.1 0"/>
<feBlend mode="normal" in2="BackgroundImageFix" result="effect1_dropShadow_1983_7252"/>
<feBlend mode="normal" in="SourceGraphic" in2="effect1_dropShadow_1983_7252" result="shape"/>
</filter>
</defs>
</svg>
