<svg width="10" height="12" viewBox="0 0 10 12" fill="none" xmlns="http://www.w3.org/2000/svg">
<path fill-rule="evenodd" clip-rule="evenodd" d="M4.90909 12C4.90909 12 9.81818 8.72727 9.81818 4.90909C9.81818 3.60712 9.30098 2.35847 8.38034 1.43784C7.45971 0.517206 6.21106 0 4.90909 0C3.60712 0 2.35847 0.517206 1.43784 1.43784C0.517206 2.35847 0 3.60712 0 4.90909C0 8.72727 4.90909 12 4.90909 12ZM6.54313 4.91025C6.54313 5.81399 5.81051 6.54662 4.90677 6.54662C4.00303 6.54662 3.2704 5.81399 3.2704 4.91025C3.2704 4.00651 4.00303 3.27389 4.90677 3.27389C5.81051 3.27389 6.54313 4.00651 6.54313 4.91025Z" fill="white"/>
</svg>
