<svg width="24" height="24" viewBox="0 0 24 24" fill="none" xmlns="http://www.w3.org/2000/svg">
<path d="M12 0C5.38537 0 0 5.38537 0 12C0 18.6146 5.38537 24 12 24C18.6146 24 24 18.6146 24 12C24 5.38537 18.6146 0 12 0ZM12 22.2439C6.35122 22.2439 1.7561 17.6487 1.7561 12C1.7561 6.35132 6.35132 1.7561 12 1.7561C17.6487 1.7561 22.2439 6.35132 22.2439 12C22.2439 17.6487 17.6487 22.2439 12 22.2439ZM12 2.92683C6.99502 2.92683 2.92683 6.99512 2.92683 12C2.92683 17.0049 6.99512 21.0732 12 21.0732C17.0049 21.0732 21.0732 17.0049 21.0732 12C21.0732 6.99512 17.0049 2.92683 12 2.92683ZM15.2196 11.4146H14.8685C14.6343 12.5561 13.727 13.4634 12.5855 13.6976L12.5853 15.5121H14.3415C14.6635 15.5121 14.9268 15.7755 14.9268 16.0975C14.9268 16.4194 14.6635 16.6828 14.3415 16.6828L9.6585 16.683C9.33654 16.683 9.07319 16.4196 9.07319 16.0977C9.07319 15.7757 9.33655 15.5123 9.6585 15.5123H11.4147V13.6978C10.2732 13.4636 9.36597 12.5563 9.13178 11.4148L8.78041 11.4146C7.63895 11.4146 6.73169 10.5074 6.73169 9.36591C6.73169 8.22444 7.63895 7.31718 8.78041 7.31718H15.2194C16.3609 7.31718 17.2682 8.22444 17.2682 9.36591C17.2684 10.5074 16.3611 11.4146 15.2196 11.4146H15.2196ZM8.78059 8.48781H9.07336V10.244H8.78059C8.28306 10.244 7.90249 9.83426 7.90249 9.36591C7.9027 8.86817 8.28304 8.48781 8.78059 8.48781ZM16.0977 9.36591C16.0977 9.83425 15.7171 10.244 15.2196 10.244H14.9268V8.48781H15.2196C15.7173 8.48781 16.0977 8.86815 16.0977 9.36591ZM10.244 8.48781H13.7562V10.8293C13.7562 11.7952 12.9659 12.5855 11.9999 12.5855C11.0341 12.5855 10.2437 11.7952 10.2437 10.8293L10.244 8.48781Z" fill="#BCE15B"/>
</svg>
