<svg width="1112" height="976" viewBox="0 0 1112 976" fill="none" xmlns="http://www.w3.org/2000/svg">
<mask id="mask0_1787_7301" style="mask-type:alpha" maskUnits="userSpaceOnUse" x="0" y="0" width="1112" height="976">
<rect width="1112" height="976" fill="#C4C4C4"/>
</mask>
<g mask="url(#mask0_1787_7301)">
<path d="M497.876 451.795C497.876 451.795 520.05 477.904 507.303 493.495C494.557 509.086 476.66 479.652 476.66 479.652L464.22 463.245L477.949 429.823C485.011 436.758 491.664 444.094 497.876 451.795Z" fill="#EFD565"/>
<path d="M337.661 558.776L284.506 565.334C280.445 565.835 277.556 569.517 278.055 573.558C278.553 577.598 282.25 580.467 286.311 579.966L339.466 573.408C343.527 572.907 346.415 569.226 345.917 565.185C345.418 561.144 341.722 558.275 337.661 558.776Z" fill="#FFBB4D"/>
<path d="M488.719 540.139L437.075 546.511C433.014 547.012 430.126 550.694 430.624 554.734C431.123 558.775 434.819 561.644 438.88 561.143L490.525 554.771C494.586 554.27 497.474 550.589 496.975 546.548C496.477 542.508 492.781 539.638 488.719 540.139Z" fill="#FFBB4D"/>
<path d="M307.288 333.906C336.664 321.471 368.941 317.488 400.459 322.411L400.744 322.376C414.563 324.502 427.573 330.227 438.457 338.973C449.342 347.719 457.716 359.176 462.734 372.186C472.273 396.969 488.908 478.796 491.926 503.258C491.926 503.258 501.364 553.494 383.711 568.01C266.058 582.525 263.459 531.445 263.459 531.445C263.459 531.445 259.102 496.129 258.125 480.703C256.171 453.003 256.611 425.184 259.441 397.556C261.094 383.692 266.394 370.509 274.803 359.34C283.212 348.172 294.431 339.416 307.323 333.959L307.288 333.906Z" fill="#F2F2F2"/>
<path d="M307.288 333.906C336.664 321.471 368.941 317.488 400.459 322.411L400.744 322.376C414.563 324.502 427.573 330.227 438.457 338.973C449.342 347.719 457.716 359.176 462.734 372.186C472.273 396.969 488.908 478.796 491.926 503.258C491.926 503.258 501.364 553.494 383.711 568.01C266.058 582.525 263.459 531.445 263.459 531.445C263.459 531.445 259.102 496.129 258.125 480.703C256.171 453.003 256.611 425.184 259.441 397.556C261.094 383.692 266.394 370.509 274.803 359.34C283.212 348.172 294.431 339.416 307.323 333.959L307.288 333.906Z" fill="#FFE36C"/>
<path d="M432.901 407.625C439.89 406.763 444.859 400.416 443.999 393.449C443.14 386.482 436.777 381.533 429.788 382.395C422.799 383.258 417.831 389.604 418.69 396.571C419.55 403.538 425.912 408.487 432.901 407.625Z" fill="black"/>
<path d="M331.289 420.161C338.278 419.299 343.247 412.952 342.387 405.985C341.528 399.018 335.165 394.069 328.177 394.932C321.188 395.794 316.219 402.141 317.078 409.108C317.938 416.075 324.3 421.024 331.289 420.161Z" fill="black"/>
<path d="M243.077 489.337C243.077 489.337 227.942 520.049 244.128 532.099C260.314 544.149 270.48 511.166 270.48 511.166L278.5 492.207L257.002 463.13C251.856 471.59 247.206 480.341 243.077 489.337Z" fill="#FFE36C"/>
<path d="M410.662 541.812C410.287 541.861 409.906 541.835 409.542 541.736C409.177 541.638 408.835 541.469 408.536 541.238L394.276 530.018C393.742 529.532 393.412 528.863 393.351 528.144C393.291 527.426 393.504 526.711 393.95 526.142C394.395 525.573 395.039 525.193 395.753 525.077C396.466 524.961 397.198 525.117 397.801 525.516L412.072 536.591C412.372 536.822 412.622 537.11 412.81 537.438C412.997 537.767 413.118 538.129 413.164 538.504C413.21 538.879 413.182 539.259 413.08 539.624C412.978 539.988 412.804 540.328 412.57 540.625C412.348 540.941 412.065 541.209 411.737 541.413C411.409 541.617 411.043 541.753 410.662 541.812Z" fill="#FFBB4D"/>
<path d="M397.979 543.381C397.414 543.454 396.839 543.358 396.329 543.104C395.819 542.85 395.396 542.451 395.114 541.956C394.833 541.462 394.706 540.895 394.749 540.328C394.792 539.761 395.003 539.219 395.356 538.772L406.479 524.564C406.712 524.265 407.001 524.015 407.33 523.828C407.66 523.641 408.023 523.521 408.399 523.474C408.776 523.428 409.157 523.456 409.522 523.557C409.888 523.659 410.229 523.831 410.527 524.065C411.123 524.532 411.51 525.215 411.603 525.966C411.695 526.716 411.486 527.473 411.021 528.071L399.873 542.311C399.407 542.901 398.727 543.286 397.979 543.381Z" fill="#FFBB4D"/>
<path d="M318.988 464.713C329.818 463.377 337.517 453.542 336.185 442.746C334.853 431.95 324.994 424.282 314.165 425.618C303.335 426.954 295.635 436.789 296.967 447.585C298.299 458.38 308.158 466.049 318.988 464.713Z" fill="#FFA052"/>
<path d="M454.806 447.956C465.635 446.62 473.335 436.785 472.003 425.99C470.671 415.194 460.812 407.525 449.982 408.862C439.153 410.198 431.453 420.032 432.785 430.828C434.117 441.624 443.976 449.292 454.806 447.956Z" fill="#FFA052"/>
<path d="M403.902 434.071L372.551 437.939C368.255 438.454 363.931 437.253 360.524 434.598C357.117 431.942 354.903 428.05 354.368 423.77C353.274 414.906 375.514 406.134 384.434 405.033C393.327 403.936 417.032 407.04 418.125 415.904C418.646 420.19 417.442 424.509 414.776 427.914C412.111 431.319 408.2 433.533 403.902 434.071Z" fill="#FFBB4D"/>
<path d="M349.47 322.107C349.47 322.107 348.49 304.316 358.037 291.398C358.264 291.094 358.574 290.861 358.929 290.726C359.285 290.59 359.671 290.558 360.044 290.633C360.417 290.708 360.761 290.887 361.036 291.148C361.311 291.41 361.505 291.745 361.597 292.113C363.782 300.244 367.325 307.949 372.077 314.905C373.482 316.593 375.234 317.963 377.213 318.922C379.193 319.882 381.355 320.409 383.556 320.469" fill="#FFE36C"/>
<path d="M369.683 320.387C360.257 315.317 352.037 308.284 345.582 299.765C345.36 299.452 345.052 299.209 344.696 299.066C344.339 298.922 343.949 298.883 343.571 298.954C343.192 299.025 342.842 299.203 342.562 299.466C342.282 299.729 342.084 300.067 341.991 300.439C341.214 305.226 341.066 310.092 341.549 314.916C341.698 317.214 341.039 319.493 339.685 321.361C338.331 323.228 336.367 324.567 334.131 325.148" fill="#FFE36C"/>
<path d="M658.118 567.211C658.118 567.211 687.345 551.047 681.003 532.442C674.66 513.836 648.213 534.505 648.213 534.505L631.239 545.19L632.386 580.392C641.214 576.497 649.806 572.096 658.118 567.211Z" fill="#EFEFEF"/>
<path d="M577.717 612.391L614.195 622.582L612.44 628.863C611.099 633.662 607.892 637.727 603.524 640.164C599.155 642.602 593.984 643.212 589.146 641.86C584.309 640.509 580.203 637.307 577.73 632.958C575.257 628.61 574.621 623.471 575.962 618.673L577.717 612.391Z" fill="#EFEFEF"/>
<path d="M440.49 574.058L477.103 584.287L475.379 590.461C474.711 592.851 473.575 595.085 472.036 597.035C470.497 598.986 468.585 600.615 466.41 601.829C464.234 603.043 461.837 603.818 459.355 604.111C456.874 604.404 454.356 604.208 451.947 603.535C447.101 602.158 442.993 598.934 440.523 594.567C438.053 590.199 437.421 585.045 438.765 580.232L440.49 574.058Z" fill="black"/>
<path d="M624.668 434.282C624.668 434.282 683.046 410.25 693.971 435.469C706.538 464.417 637.065 473.34 637.065 473.34L624.668 434.282Z" fill="#FFCACA"/>
<path d="M678.336 436.11C682.476 437.267 683.343 439.072 683.636 439.906C684.03 440.528 684.245 441.244 684.256 441.978C684.267 442.711 684.075 443.432 683.7 444.062C681.06 448.707 667.184 456.609 644.835 460.899L638.66 441.232C651.644 437.046 668.757 433.434 678.417 436.133L678.336 436.11ZM681.417 425.396C660.661 419.597 624.731 434.389 624.731 434.389L637.156 473.454C637.156 473.454 706.737 464.562 694.061 435.584C692.898 433.032 691.151 430.782 688.961 429.015C686.77 427.247 684.196 426.01 681.444 425.403L681.417 425.396Z" fill="black"/>
<path d="M644.731 427.531C651.532 421.978 657.393 415.38 662.094 407.986C662.713 407.041 663.028 405.929 662.997 404.8C662.965 403.67 662.589 402.575 661.918 401.66C661.247 400.744 660.313 400.052 659.239 399.674C658.165 399.296 657.003 399.25 655.905 399.543C646.128 401.966 636.733 405.699 627.979 410.639C612.246 420.278 644.731 427.531 644.731 427.531Z" fill="#FFC145"/>
<path d="M576.644 631.372C568.316 631.172 560.009 630.417 551.778 629.113C539.176 627.172 526.707 624.442 514.445 620.941C503.759 618.006 493.234 614.515 482.914 610.483C406.092 580.34 419.457 542.836 419.457 542.836C419.457 542.836 428.779 509.47 433.687 495.243C442.305 469.616 453.146 444.789 466.086 421.038C472.792 409.213 482.53 399.368 494.314 392.498C506.099 385.628 519.514 381.976 533.203 381.911C553.119 381.802 572.908 385.233 591.636 392.042C602.152 395.856 612.261 400.706 621.81 406.52L622.081 406.596C633.764 413.703 643.364 423.739 649.912 435.69C656.459 447.641 659.722 461.083 659.37 474.658C658.782 484.862 657.638 495.023 655.942 505.099C650.855 539.388 641.179 586.662 636.454 603.573C636.477 603.493 630.351 632.312 576.644 631.372Z" fill="white"/>
<path d="M551.769 629.133C539.167 627.191 526.698 624.462 514.435 620.961C503.75 618.025 493.225 614.534 482.904 610.502C406.083 580.359 419.448 542.856 419.448 542.856C419.448 542.856 428.769 509.489 433.677 495.262C433.677 495.262 494.925 504.82 494.977 551.831C494.928 555.875 495.43 559.909 496.47 563.823C505.185 595.804 549.812 584.657 551.768 628.091C551.797 628.438 551.797 628.786 551.769 629.133Z" fill="black"/>
<path d="M655.932 505.092C634.465 486.593 646.47 451.661 615.946 443.134C579.495 432.951 591.515 392.119 591.515 392.119C602.031 395.933 612.14 400.783 621.69 406.597L621.96 406.673C633.643 413.78 643.243 423.816 649.791 435.767C656.338 447.718 659.601 461.16 659.249 474.736C658.695 484.909 657.588 495.042 655.932 505.092Z" fill="black"/>
<path d="M590.952 595.89L584.833 617.795C583.391 622.976 580.558 627.666 576.637 631.363C555.554 630.51 534.655 627.005 514.438 620.932C503.752 617.997 493.227 614.506 482.907 610.474L494.508 568.947C494.995 567.19 495.647 565.483 496.457 563.849C499.571 557.54 504.809 552.517 511.266 549.646C517.724 546.775 524.997 546.235 531.833 548.121L569.718 558.704C577.483 560.866 584.08 565.996 588.061 572.967C592.042 579.939 593.082 588.183 590.952 595.89Z" fill="#FFCACA"/>
<path d="M619.058 495.427C625.694 497.28 632.564 493.447 634.403 486.865C636.242 480.282 632.353 473.443 625.718 471.589C619.082 469.736 612.212 473.569 610.373 480.151C608.534 486.734 612.423 493.573 619.058 495.427Z" fill="black"/>
<path d="M522.582 468.478C529.218 470.332 536.088 466.498 537.927 459.916C539.766 453.333 535.877 446.495 529.242 444.641C522.606 442.787 515.736 446.62 513.897 453.203C512.058 459.785 515.947 466.624 522.582 468.478Z" fill="black"/>
<path d="M605.628 512.482C609.655 498.067 601.794 477.755 574.083 470.014C546.373 462.273 529.61 475.705 525.583 490.12C521.556 504.535 531.822 514.464 559.505 522.198C587.188 529.932 601.609 526.87 605.628 512.482Z" fill="#FFCACA"/>
<path d="M557.652 498.09C559.939 498.729 562.488 496.759 563.345 493.69C564.202 490.621 563.044 487.616 560.757 486.977C558.47 486.338 555.922 488.308 555.064 491.377C554.207 494.446 555.366 497.451 557.652 498.09Z" fill="black"/>
<path d="M581.768 504.829C584.054 505.468 586.603 503.498 587.46 500.429C588.317 497.36 587.159 494.355 584.872 493.716C582.586 493.077 580.037 495.047 579.18 498.116C578.322 501.185 579.481 504.19 581.768 504.829Z" fill="black"/>
<path d="M505.407 392.866C501.595 383.084 499.316 372.785 498.651 362.329C498.611 361.2 498.918 360.086 499.53 359.136C500.143 358.187 501.032 357.445 502.08 357.01C503.128 356.575 504.286 356.467 505.4 356.7C506.515 356.933 507.533 357.497 508.32 358.316C514.286 364.527 519.325 368.944 523.928 377.841C532.38 394.266 505.407 392.866 505.407 392.866Z" fill="#FFC145"/>
<path d="M502.908 410.447C504.895 409.027 506.573 407.223 507.842 405.143C509.11 403.063 509.944 400.749 510.294 398.339C510.643 395.929 510.501 393.472 509.876 391.113C509.251 388.755 508.155 386.543 506.654 384.61C495.122 369.813 476.433 350.875 461.14 359.567C442.671 370.121 459.454 395.674 472.384 411.209C475.354 414.786 479.578 417.113 484.199 417.716C488.821 418.319 493.492 417.153 497.266 414.456L502.908 410.447Z" fill="#FFCACA"/>
<path d="M471.954 368.9C478.719 370.79 488.123 379.003 497.762 391.39C498.343 392.137 498.766 392.992 499.007 393.904C499.248 394.817 499.301 395.767 499.164 396.699C499.026 397.63 498.7 398.524 498.206 399.326C497.712 400.128 497.059 400.822 496.287 401.367L490.699 405.391C489.827 406.016 488.822 406.434 487.761 406.614C486.7 406.794 485.61 406.731 484.575 406.429C483.179 406.048 481.935 405.245 481.016 404.132C467.365 387.731 463.417 376.904 464.266 372.193C464.454 371.522 464.569 370.483 466.754 369.242C467.524 368.805 468.384 368.546 469.269 368.483C470.155 368.42 471.045 368.555 471.873 368.878L471.954 368.9ZM474.873 358.14C472.601 357.42 470.205 357.175 467.837 357.42C465.469 357.665 463.18 358.395 461.114 359.563C442.646 370.118 459.429 395.671 472.359 411.206C475.332 414.777 479.556 417.099 484.175 417.702C488.795 418.305 493.465 417.144 497.24 414.453L502.828 410.429C504.815 409.008 506.493 407.204 507.762 405.125C509.031 403.045 509.865 400.731 510.214 398.321C510.564 395.911 510.422 393.453 509.796 391.095C509.171 388.736 508.075 386.525 506.575 384.591C498.382 374.026 486.536 361.399 474.873 358.14Z" fill="white"/>
<path d="M419.765 492.758C419.765 492.758 395.248 515.252 405.885 531.999C416.522 548.745 437.273 522.189 437.273 522.189L458.125 501.535L441.772 473.816C434.071 479.699 426.722 486.023 419.765 492.758Z" fill="white"/>
<path d="M548.589 607.618C548.232 607.52 547.898 607.354 547.606 607.128C547.313 606.902 547.068 606.622 546.885 606.302L538.218 590.859C537.918 590.221 537.871 589.496 538.086 588.828C538.301 588.16 538.762 587.598 539.378 587.254C539.993 586.911 540.717 586.811 541.406 586.975C542.094 587.14 542.696 587.555 543.091 588.14L551.796 603.449C551.979 603.77 552.098 604.123 552.144 604.488C552.19 604.854 552.162 605.224 552.063 605.579C551.965 605.933 551.796 606.264 551.567 606.553C551.338 606.842 551.054 607.082 550.731 607.261C550.416 607.459 550.065 607.592 549.697 607.654C549.329 607.715 548.952 607.703 548.589 607.618Z" fill="#FF8D8D"/>
<path d="M536.525 604.242C535.99 604.09 535.512 603.785 535.151 603.364C534.791 602.943 534.563 602.426 534.497 601.878C534.432 601.33 534.531 600.776 534.783 600.285C535.035 599.795 535.428 599.39 535.913 599.122L551.292 590.541C551.939 590.183 552.703 590.094 553.418 590.294C554.133 590.493 554.74 590.966 555.107 591.607C555.471 592.251 555.564 593.01 555.366 593.719C555.168 594.429 554.695 595.03 554.05 595.392L538.663 604C538.341 604.178 537.986 604.291 537.619 604.333C537.252 604.374 536.88 604.343 536.525 604.242Z" fill="#FF8D8D"/>
<path d="M506.73 464.046L501.074 462.466C494.408 460.604 487.509 464.449 485.664 471.053C483.819 477.658 487.727 484.522 494.392 486.384L500.048 487.964C506.713 489.826 513.613 485.981 515.458 479.377C517.303 472.772 513.395 465.908 506.73 464.046Z" fill="#FFD2D2"/>
<path d="M640.325 501.363L634.67 499.783C628.004 497.921 621.105 501.765 619.26 508.37C617.415 514.975 621.322 521.838 627.988 523.7L633.644 525.28C640.309 527.143 647.208 523.298 649.054 516.693C650.899 510.089 646.991 503.225 640.325 501.363Z" fill="#FFD2D2"/>
<path d="M370.058 464.923C370.058 464.923 400.902 474.663 398.562 493.531C396.222 512.398 367.121 497.85 367.121 497.85L348.932 490.979L343.088 457.361C352.217 459.36 361.222 461.884 370.058 464.923Z" fill="#EFEFEF"/>
<path d="M260.318 662.625L288.569 638.546L292.183 642.785C295.369 646.524 296.938 651.379 296.542 656.28C296.147 661.182 293.82 665.73 290.073 668.923C286.327 672.116 281.468 673.693 276.566 673.307C271.663 672.921 267.118 670.604 263.932 666.865L260.318 662.625Z" fill="white"/>
<path d="M376.39 563.703L403.981 540.185L407.876 544.754C410.988 548.406 412.52 553.147 412.133 557.934C411.747 562.721 409.475 567.163 405.816 570.282C402.157 573.4 397.412 574.94 392.623 574.563C387.835 574.186 383.397 571.923 380.284 568.272L376.39 563.703Z" fill="#EFEFEF"/>
<path d="M164.247 476.235C180.924 451.165 204.284 431.255 231.678 418.76L231.864 418.602C243.854 413.092 257.081 410.844 270.207 412.086C283.332 413.329 295.889 418.017 306.607 425.676C327.035 440.244 382.687 496.139 397.791 513.859C397.791 513.859 431.36 548.565 346.236 621.121C261.112 693.677 232.491 654.752 232.491 654.752C232.491 654.752 210.686 629.17 201.912 617.497C185.949 596.68 171.823 574.517 159.691 551.255C153.793 539.463 151.115 526.317 151.928 513.145C152.741 499.974 157.017 487.244 164.324 476.241L164.247 476.235Z" fill="#F2F2F2"/>
<path d="M164.247 476.235C180.924 451.165 204.284 431.255 231.678 418.76L231.864 418.602C243.854 413.092 257.081 410.844 270.207 412.086C283.332 413.329 295.889 418.017 306.607 425.676C327.035 440.244 382.687 496.139 397.791 513.859C397.791 513.859 431.36 548.565 346.236 621.121C261.112 693.677 232.491 654.752 232.491 654.752C232.491 654.752 210.686 629.17 201.912 617.497C185.949 596.68 171.823 574.517 159.691 551.255C153.793 539.463 151.115 526.317 151.928 513.145C152.741 499.974 157.017 487.244 164.324 476.241L164.247 476.235Z" fill="white"/>
<path d="M223.951 542.357L214.692 550.249C209.612 554.578 208.997 562.197 213.318 567.267L213.336 567.288C217.657 572.357 225.277 572.957 230.357 568.627L239.616 560.736C244.695 556.406 245.31 548.787 240.989 543.717L240.971 543.697C236.65 538.627 229.03 538.028 223.951 542.357Z" fill="#FFD2D2"/>
<path d="M321.454 459.254L312.195 467.146C307.116 471.475 306.501 479.095 310.822 484.164L310.839 484.185C315.16 489.254 322.781 489.854 327.86 485.525L337.119 477.633C342.198 473.303 342.813 465.684 338.492 460.615L338.475 460.594C334.154 455.525 326.533 454.925 321.454 459.254Z" fill="#FFD2D2"/>
<path d="M301.549 469.116C306.606 464.806 307.218 457.221 302.916 452.175C298.615 447.128 291.028 446.531 285.972 450.841C280.915 455.151 280.303 462.736 284.605 467.782C288.906 472.829 296.493 473.426 301.549 469.116Z" fill="black"/>
<path d="M228.033 531.781C233.09 527.471 233.702 519.886 229.4 514.839C225.099 509.793 217.512 509.195 212.456 513.505C207.399 517.815 206.787 525.4 211.089 530.447C215.39 535.494 222.976 536.091 228.033 531.781Z" fill="black"/>
<path d="M182.392 465.537C183.495 463.942 183.941 461.986 183.637 460.073C183.334 458.161 182.304 456.441 180.763 455.271C168.584 446.037 140.056 427.145 127.438 441.454C112.536 458.348 145.116 478.903 159.089 486.608C160.713 487.447 162.583 487.686 164.368 487.282C166.154 486.878 167.741 485.858 168.849 484.4L182.392 465.537Z" fill="#FFD2D2"/>
<path d="M172.144 490.721C169.918 492.626 167.167 493.813 164.256 494.125C161.344 494.437 158.408 493.861 155.834 492.47C139.693 483.558 119.932 469.772 117.224 454.314C116.694 451.218 116.89 448.041 117.796 445.03C118.702 442.02 120.293 439.26 122.445 436.966C134.159 423.641 156.371 428.232 184.909 449.851C187.882 452.082 189.857 455.394 190.408 459.072C190.959 462.75 190.042 466.499 187.854 469.513L174.394 488.306C173.742 489.197 172.986 490.007 172.144 490.721ZM133.306 445.155C133.007 445.374 132.725 445.615 132.46 445.875C131.669 446.647 131.075 447.597 130.729 448.647C130.384 449.696 130.297 450.813 130.476 451.902C131.787 459.454 143.997 470.438 162.345 480.561C162.515 480.61 162.695 480.617 162.869 480.58C163.043 480.544 163.205 480.465 163.341 480.351L176.781 461.576C176.894 461.42 176.944 461.227 176.92 461.036C176.896 460.845 176.801 460.671 176.653 460.548C161.543 449.087 141.307 438.335 133.388 445.085L133.306 445.155Z" fill="white"/>
<path d="M222.341 433.587C220.594 434.437 218.586 434.575 216.742 433.971C214.899 433.367 213.364 432.069 212.463 430.352C205.275 416.864 191.137 385.742 207.267 375.511C226.288 363.492 241.443 398.899 246.837 413.915C247.461 415.649 247.426 417.552 246.739 419.264C246.053 420.976 244.762 422.378 243.111 423.203L222.341 433.587Z" fill="#FFD2D2"/>
<path d="M248.938 427.396C248.049 428.156 247.068 428.801 246.018 429.317L225.351 439.613C222.029 441.303 218.177 441.62 214.629 440.497C211.08 439.373 208.118 436.899 206.383 433.607C189.578 401.987 188.602 379.331 203.576 369.873C206.177 368.111 209.152 366.977 212.266 366.562C215.379 366.148 218.545 366.463 221.512 367.484C236.366 372.589 246.865 394.305 253.09 411.633C254.082 414.368 254.216 417.342 253.475 420.158C252.733 422.974 251.15 425.499 248.938 427.396ZM209.897 381.968C201.958 388.735 209.336 410.339 218.34 427.253C218.433 427.413 218.584 427.532 218.761 427.585C218.939 427.638 219.13 427.622 219.297 427.539L239.985 417.226C240.151 417.144 240.281 417.004 240.352 416.833C240.422 416.662 240.428 416.47 240.367 416.296C233.261 396.556 224.33 382.777 217.097 380.307C216.051 379.942 214.93 379.841 213.835 380.013C212.739 380.184 211.702 380.623 210.815 381.291C210.492 381.492 210.185 381.719 209.897 381.968Z" fill="white"/>
<path d="M309.276 525.923L282.922 548.386C264.837 563.801 262.644 590.925 278.024 608.969C293.404 627.014 320.533 629.145 338.618 613.73L364.972 591.267C383.058 575.852 385.251 548.728 369.871 530.684C354.49 512.639 327.361 510.508 309.276 525.923Z" fill="#F4F4F4"/>
<path d="M185.02 615.703C185.02 615.703 183.808 648.012 202.396 652.183C220.984 656.353 217.04 623.996 217.04 623.996L216.648 604.559L186.925 587.745C185.749 597.021 185.113 606.356 185.02 615.703Z" fill="white"/>
<path d="M353.835 586.477C353.565 586.709 353.252 586.887 352.913 586.999C352.575 587.11 352.218 587.154 351.862 587.128L334.792 585.688C334.119 585.582 333.51 585.226 333.089 584.691C332.667 584.156 332.464 583.481 332.519 582.802C332.573 582.122 332.883 581.488 333.385 581.025C333.887 580.563 334.544 580.307 335.226 580.308L352.229 581.627C352.586 581.654 352.933 581.75 353.252 581.912C353.57 582.074 353.853 582.297 354.085 582.568C354.316 582.84 354.492 583.155 354.601 583.495C354.71 583.835 354.751 584.193 354.72 584.549C354.71 584.913 354.626 585.272 354.474 585.603C354.322 585.934 354.105 586.231 353.835 586.477Z" fill="#FFD2D2"/>
<path d="M344.617 594.336C344.347 594.569 344.033 594.746 343.695 594.858C343.356 594.969 342.999 595.013 342.644 594.987C342.288 594.96 341.94 594.863 341.622 594.702C341.303 594.54 341.02 594.317 340.788 594.045C340.557 593.774 340.381 593.459 340.272 593.119C340.163 592.779 340.123 592.42 340.153 592.064L341.523 575.084C341.55 574.728 341.648 574.38 341.81 574.062C341.972 573.743 342.196 573.46 342.468 573.227C342.741 572.995 343.056 572.82 343.396 572.71C343.737 572.6 344.095 572.559 344.451 572.588C345.164 572.647 345.824 572.984 346.288 573.528C346.751 574.072 346.98 574.777 346.925 575.49L345.552 592.508C345.491 593.216 345.156 593.872 344.617 594.336Z" fill="#FFD2D2"/>
<path d="M270.724 500.115L255.775 503.795C255.428 503.879 255.068 503.893 254.715 503.838C254.363 503.782 254.025 503.658 253.72 503.472C253.106 503.096 252.667 502.491 252.499 501.79C252.332 501.09 252.45 500.351 252.827 499.736C253.204 499.121 253.81 498.681 254.511 498.512L266.868 495.549L272.289 482.862C272.574 482.2 273.11 481.677 273.78 481.409C274.45 481.142 275.198 481.151 275.86 481.434C276.523 481.718 277.044 482.254 277.311 482.923C277.577 483.592 277.567 484.34 277.282 485.002L270.724 500.115Z" fill="#FFD2D2"/>
<path d="M274.821 517.343C272.735 519.2 270.043 520.231 267.252 520.242C266.534 520.241 265.846 519.955 265.34 519.448C264.833 518.94 264.55 518.251 264.552 517.533C264.553 516.815 264.841 516.127 265.35 515.62C265.859 515.113 266.548 514.828 267.266 514.828C268.756 514.783 270.178 514.191 271.26 513.165C271.848 512.774 272.344 512.259 272.713 511.656C273.082 511.053 273.315 510.378 273.395 509.676C273.475 508.975 273.401 508.265 273.178 507.595C272.955 506.926 272.589 506.314 272.104 505.801L266.701 499.462C266.236 498.917 266.007 498.208 266.065 497.492C266.122 496.777 266.462 496.113 267.009 495.647C267.556 495.181 268.265 494.95 268.981 495.007C269.697 495.063 270.36 495.401 270.825 495.947L276.246 502.307C277.363 503.692 278.157 505.309 278.571 507.04C279.011 508.934 278.891 510.916 278.225 512.745C277.559 514.574 276.377 516.172 274.821 517.343Z" fill="#FFD2D2"/>
<path d="M287.553 506.483C286.508 507.469 285.278 508.238 283.934 508.745C282.591 509.252 281.16 509.487 279.726 509.437C278.291 509.386 276.882 509.051 275.579 508.451C274.277 507.851 273.107 506.998 272.138 505.942C271.673 505.396 271.444 504.687 271.502 503.972C271.559 503.256 271.899 502.592 272.446 502.126C272.993 501.66 273.702 501.43 274.418 501.486C275.134 501.542 275.797 501.88 276.262 502.426C276.75 502.986 277.352 503.435 278.027 503.743C278.703 504.052 279.437 504.212 280.18 504.215C280.923 504.217 281.658 504.06 282.337 503.756C283.015 503.452 283.621 503.006 284.114 502.449C285.313 501.562 286.132 500.254 286.407 498.79C286.454 498.437 286.571 498.096 286.75 497.788C286.929 497.48 287.166 497.21 287.449 496.993C287.733 496.776 288.056 496.618 288.4 496.526C288.744 496.434 289.103 496.41 289.456 496.457C289.809 496.504 290.15 496.62 290.458 496.798C290.766 496.976 291.035 497.213 291.252 497.496C291.468 497.779 291.626 498.101 291.717 498.445C291.809 498.789 291.831 499.148 291.784 499.501C291.308 502.278 289.795 504.774 287.553 506.483Z" fill="#FFD2D2"/>
<path d="M462.356 706.782C450.872 706.782 441.57 697.382 441.57 685.778V678.757H483.142V685.778C483.142 697.382 473.84 706.782 462.356 706.782Z" fill="#4B9B3A"/>
<path d="M524.38 612.463C524.38 612.463 554.773 591.922 546.378 571.966C538.009 552.023 510.879 577.474 510.879 577.474L493.304 590.894L497.451 629.559C497.451 629.559 516.421 618.915 524.38 612.463Z" fill="#4B9B3A"/>
<path d="M274.812 587.148C274.812 587.148 238.149 716.448 401.48 706.816C540.293 698.606 502.884 587.119 502.884 587.119C513.851 576.589 520.712 561.706 520.712 545.199C520.712 523.035 508.367 503.773 490.222 494.083L490.165 493.996C491.084 490.544 491.658 487.005 491.658 483.262C491.658 460.663 473.542 442.329 451.148 442.329C434.784 442.329 420.716 452.134 414.342 466.233H412.246H373.689H372.34C365.937 452.134 351.898 442.329 335.562 442.329C313.197 442.329 295.052 460.663 295.052 483.262C295.052 485.728 295.34 488.165 295.77 490.515H295.684C273.175 498.29 257.012 519.844 257.012 545.199C257.012 561.706 263.845 576.589 274.812 587.148Z" fill="#49B236"/>
<path d="M314.242 706.788C303.505 706.788 294.805 697.998 294.805 687.148V678.793H333.679V687.148C333.679 697.998 324.98 706.788 314.242 706.788Z" fill="#49B236"/>
<path d="M451.599 514.308C444.115 514.308 438.048 508.178 438.048 500.616C438.048 493.053 444.115 486.923 451.599 486.923C459.083 486.923 465.15 493.053 465.15 500.616C465.15 508.178 459.083 514.308 451.599 514.308Z" fill="black"/>
<path d="M342.867 514.308C335.383 514.308 329.316 508.178 329.316 500.616C329.316 493.053 335.383 486.923 342.867 486.923C350.351 486.923 356.418 493.053 356.418 500.616C356.418 508.178 350.351 514.308 342.867 514.308Z" fill="black"/>
<path d="M259.887 615.425C259.887 615.425 243.724 648.381 260.921 661.493C278.118 674.606 288.97 639.01 288.97 639.01L297.555 618.616L274.759 587.168C274.73 587.139 263.591 605.851 259.887 615.425Z" fill="#49B236"/>
<path fill-rule="evenodd" clip-rule="evenodd" d="M465.575 691.229V630.184C465.604 611.849 450.761 596.851 432.616 596.851H362.535C344.391 596.851 329.576 611.849 329.576 630.155V699.435C347.672 705.584 371.205 708.633 401.718 706.834C429.485 705.192 450.201 699.417 465.575 691.229Z" fill="#9CD43D"/>
<path d="M484.642 560.157C471.434 560.157 460.727 549.896 460.727 537.238C460.727 524.581 471.434 514.32 484.642 514.32C497.85 514.32 508.558 524.581 508.558 537.238C508.558 549.896 497.85 560.157 484.642 560.157Z" fill="#9CD43D"/>
<path d="M316.482 560.157C303.274 560.157 292.567 549.896 292.567 537.238C292.567 524.581 303.274 514.32 316.482 514.32C329.69 514.32 340.397 524.581 340.397 537.238C340.397 549.896 329.69 560.157 316.482 560.157Z" fill="#9CD43D"/>
<path d="M397.203 665.566L410.811 679.317" stroke="#49B236" stroke-width="3" stroke-miterlimit="10" stroke-linecap="round"/>
<path d="M410.811 665.566L397.203 679.317" stroke="#49B236" stroke-width="3" stroke-miterlimit="10" stroke-linecap="round"/>
<circle r="14.9357" transform="matrix(-1 0 0 1 401.291 528.908)" fill="white"/>
<path fill-rule="evenodd" clip-rule="evenodd" d="M355.037 292.399C351.554 297.111 349.472 302.472 348.233 307.381C346.226 305.292 344.339 303.084 342.582 300.766C342.36 300.453 342.052 300.21 341.696 300.066C341.339 299.922 340.948 299.883 340.57 299.954C340.192 300.025 339.842 300.203 339.562 300.466C339.282 300.729 339.084 301.067 338.99 301.44C338.214 306.226 338.065 311.092 338.548 315.916C338.697 318.215 338.038 320.494 336.684 322.361C335.525 323.961 333.917 325.173 332.074 325.852C322.609 328.064 313.311 331.086 304.288 334.906L304.323 334.96C291.431 340.416 280.211 349.172 271.803 360.34C263.394 371.509 258.094 384.693 256.44 398.556C255.985 403.004 255.591 407.457 255.259 411.914C253.615 412.022 251.976 412.184 250.344 412.399C250.267 412.142 250.182 411.887 250.091 411.634C243.865 394.305 233.366 372.589 218.512 367.484C215.545 366.463 212.379 366.148 209.266 366.563C206.153 366.977 203.177 368.111 200.576 369.874C185.651 379.301 186.572 401.839 203.219 433.298C195.884 438.422 188.989 444.146 182.605 450.409C182.38 450.216 182.148 450.03 181.909 449.851C153.371 428.232 131.158 423.642 119.445 436.966C117.293 439.26 115.702 442.021 114.796 445.031C113.89 448.041 113.694 451.219 114.224 454.315C116.932 469.772 136.693 483.558 152.834 492.471C152.931 492.523 153.028 492.574 153.125 492.624C150.783 499.208 149.362 506.114 148.928 513.146C148.114 526.317 150.792 539.463 156.691 551.255C164.642 566.5 173.449 581.273 183.068 595.505C182.437 602.219 182.087 608.958 182.02 615.704C182.02 615.704 180.808 648.012 199.396 652.183C209.998 654.562 213.27 645.056 214.124 636.449C222.057 646.031 229.491 654.752 229.491 654.752C229.491 654.752 237.969 666.283 259.422 665.095L260.931 666.865C264.118 670.604 268.663 672.922 273.566 673.308C278.28 673.679 282.955 672.235 286.638 669.283C289.005 672.599 291.713 675.811 294.805 678.87V687.148C294.805 697.998 303.504 706.788 314.242 706.788C320.375 706.788 325.843 703.921 329.404 699.44C340.126 703.076 352.754 705.625 367.609 706.723C377.877 707.495 389.211 707.572 401.718 706.834C419.274 705.796 434.011 703.106 446.362 699.198C450.174 703.832 455.922 706.782 462.355 706.782C473.839 706.782 483.141 697.382 483.141 685.778V678.757H483.102C500.978 662.301 506.54 641.437 507.36 623.775C509.077 622.741 510.897 621.628 512.715 620.486C513.29 620.647 513.865 620.807 514.44 620.965C515.182 621.177 515.925 621.385 516.669 621.591C527.05 624.605 537.606 626.945 548.269 628.598C549.433 628.794 550.599 628.982 551.766 629.164C559.649 630.4 567.603 631.128 575.576 631.343C575.932 631.354 576.288 631.364 576.644 631.372L576.927 631.377C577.168 631.914 577.436 632.442 577.73 632.958C580.202 637.307 584.309 640.509 589.146 641.861C593.984 643.212 599.155 642.602 603.524 640.164C607.892 637.727 611.099 633.662 612.44 628.863L613.311 625.743C618.984 623.451 623.297 620.69 626.567 617.907C627.657 616.979 628.631 616.048 629.501 615.132C635.301 609.022 636.466 603.535 636.457 603.571C638.165 597.457 640.52 587.375 643.071 575.373C648.179 572.825 653.197 570.103 658.118 567.212C658.118 567.212 687.345 551.047 681.002 532.442C676.039 517.882 658.764 527.373 651.486 532.19C653.156 522.802 654.69 513.554 655.944 505.096C656.622 501.064 657.212 497.017 657.713 492.96C658.464 486.881 659.017 480.777 659.37 474.659C659.419 472.734 659.397 470.812 659.302 468.897C678.435 463.676 701.874 453.446 694.061 435.584C693.862 435.147 693.645 434.718 693.412 434.299C691.942 431.497 689.832 429.37 687.255 427.794C686.044 427.029 684.747 426.409 683.391 425.948C672.789 422.058 657.292 424.485 644.879 427.702C644.835 427.64 644.791 427.579 644.747 427.518C651.54 421.968 657.396 415.374 662.094 407.986C662.713 407.041 663.028 405.929 662.996 404.8C662.965 403.67 662.589 402.575 661.918 401.66C661.247 400.744 660.313 400.052 659.239 399.674C658.165 399.296 657.002 399.25 655.905 399.543C646.149 401.961 636.775 405.682 628.038 410.605C626.12 409.182 624.132 407.844 622.081 406.596L621.81 406.52C612.261 400.706 602.152 395.856 591.635 392.042C572.908 385.233 553.119 381.802 533.203 381.911C530.614 381.923 528.035 382.064 525.474 382.33C525.283 381.006 524.79 379.516 523.928 377.841C519.999 370.248 515.754 365.919 510.886 360.953L510.882 360.949C510.047 360.097 509.193 359.226 508.319 358.317C507.532 357.497 506.514 356.934 505.4 356.7C504.286 356.467 503.128 356.575 502.08 357.01C501.031 357.445 500.142 358.187 499.53 359.136C498.918 360.086 498.611 361.2 498.651 362.329C498.976 367.437 499.686 372.508 500.772 377.5C494.797 370.726 487.744 364.112 480.526 360.407C478.648 359.439 476.758 358.667 474.872 358.14C472.601 357.421 470.205 357.175 467.837 357.42C465.469 357.665 463.18 358.395 461.114 359.564C458.745 360.917 456.956 362.518 455.665 364.312C450.654 354.956 443.791 346.67 435.457 339.973C424.572 331.227 411.563 325.502 397.743 323.376L397.458 323.411C391.319 322.452 385.151 321.831 378.981 321.545L380.556 321.469C378.355 321.409 376.193 320.882 374.213 319.923C372.234 318.963 370.482 317.593 369.077 315.905C364.325 308.949 360.782 301.244 358.597 293.113C358.505 292.745 358.311 292.411 358.036 292.149C357.761 291.887 357.417 291.708 357.044 291.633C356.671 291.558 356.285 291.591 355.929 291.726C355.574 291.862 355.264 292.095 355.037 292.399ZM469.71 407.944C470.149 409.738 470.589 411.562 471.029 413.412C471.523 412.741 472.028 412.078 472.543 411.424C472.481 411.352 472.419 411.279 472.359 411.206C471.489 410.161 470.602 409.071 469.71 407.944Z" fill="url(#paint0_linear_1787_7301)"/>
<path d="M844 436.931L535.681 276L443 510.634L638.854 587L844 436.931Z" fill="url(#paint1_linear_1787_7301)"/>
<path d="M843.85 436H644.15C641.858 436 640 437.854 640 440.141V586.859C640 589.146 641.858 591 644.15 591H843.85C846.142 591 848 589.146 848 586.859V440.141C848 437.854 846.142 436 843.85 436Z" fill="#136E90"/>
<path d="M841.843 591H607.157C604.861 591 603 592.854 603 595.14V601.86C603 604.146 604.861 606 607.157 606H841.843C844.139 606 846 604.146 846 601.86V595.14C846 592.854 844.139 591 841.843 591Z" fill="#015271"/>
<g filter="url(#filter0_d_1787_7301)">
<path d="M737.471 514.782V507.756L723 522.476L726.409 526.029L737.471 514.782ZM770.387 510.439C769.555 506.715 767.642 503.232 764.826 500.316L754.905 490L749.227 495.78L748.815 496.196V503.221L754.869 497.056L760.512 502.917L761.37 503.818L761.429 503.879C761.429 503.879 761.805 504.254 762.322 504.891C763.947 506.826 765.07 509.039 765.614 511.381C766.413 515.521 766.789 520.35 762.299 526.232V533.49C762.722 533.115 762.992 532.852 763.086 532.751C766.823 529.245 769.405 524.943 770.563 520.289C771.2 517.024 771.14 513.686 770.387 510.439ZM740.292 532.083L740.14 532.012H740.057C739.62 531.765 739.203 531.491 738.811 531.192C738.447 530.919 737.988 530.564 737.448 530.109C736.625 529.41 735.614 528.479 734.368 527.234L731.57 524.339L728.125 527.851L730.9 530.747C735.19 535.029 737.401 536.254 738.212 536.598C740.727 537.878 743.534 538.676 746.441 538.936C747.76 539.043 749.09 539.016 750.402 538.855H750.72V533.794C747.118 534.372 743.395 533.761 740.292 532.083Z" fill="white"/>
<path d="M746.384 498.696L746.337 528.702L739.883 528.691L739.918 505.276L740.565 504.608L740.917 504.254L742.869 502.269L744.197 500.923L744.62 500.488L745.949 499.141L746.384 498.696Z" fill="white"/>
<path d="M759.89 505.427V535.361L759.796 535.422L758.856 536.009L758.515 536.202C758.221 536.374 757.903 536.536 757.574 536.698C757.245 536.86 756.963 537.001 756.646 537.143L756.105 537.376L755.388 537.67L754.788 537.882C754.388 538.014 753.977 538.145 753.542 538.267L753.225 538.348V505.416L759.89 505.427Z" fill="white"/>
<path d="M746.393 513.366L746.383 520.159L753.237 520.166L753.246 513.373L746.393 513.366Z" fill="white"/>
</g>
<path d="M135.522 428.906H-29.424C-34.1541 428.906 -38 425.071 -38 420.33V255.384C-38 250.653 -34.1648 246.808 -29.424 246.808H135.533C140.263 246.808 144.109 250.643 144.109 255.384V420.34C144.098 425.071 140.263 428.906 135.522 428.906Z" fill="#9BE1DA"/>
<path d="M57.5718 398.828C91.2501 398.828 118.552 371.526 118.552 337.848C118.552 304.17 91.2501 276.868 57.5718 276.868C23.8935 276.868 -3.4082 304.17 -3.4082 337.848C-3.4082 371.526 23.8935 398.828 57.5718 398.828Z" fill="#BEEBE7"/>
<rect x="50.9663" y="364.958" width="10.7319" height="11.5575" rx="5" fill="#564A59"/>
<rect x="47.6621" y="348.86" width="16.9234" height="23.5277" rx="5" fill="#847886"/>
<path fill-rule="evenodd" clip-rule="evenodd" d="M71.3283 342.461C77.0244 338.003 80.6854 331.065 80.6854 323.271C80.6854 309.821 69.7821 298.918 56.3322 298.918C42.8823 298.918 31.979 309.821 31.979 323.271C31.979 331.065 35.64 338.003 41.3362 342.461H41.2617C42.5 343.699 44.9766 347.125 44.9766 350.923V352.78C44.9766 354.225 45.9673 355.876 48.2787 355.876H55.9149H64.3766C66.6881 355.876 67.6788 354.225 67.6788 352.78V350.923C67.6788 347.125 70.1554 343.699 71.3937 342.461H71.3283Z" fill="#FFB93E"/>
<rect x="45.5962" y="358.355" width="21.4639" height="4.54043" rx="2.27021" fill="#C2B8C2"/>
<rect x="45.5962" y="364.958" width="21.4639" height="4.54043" rx="2.27021" fill="#C2B8C2"/>
<path d="M51.3872 309.57C48.5967 310.204 42.7875 313.375 41.8742 320.985" stroke="white" stroke-width="2" stroke-linecap="round" stroke-linejoin="round"/>
<path d="M168.741 247.482H3.7947C-0.935395 247.482 -4.78125 243.647 -4.78125 238.906V73.949C-4.78125 69.2189 -0.946048 65.373 3.7947 65.373H168.752C173.482 65.373 177.328 69.2082 177.328 73.949V238.906C177.317 243.636 173.482 247.482 168.741 247.482Z" fill="#092A41"/>
<path d="M33.9224 247.482H3.7947C-0.935395 247.482 -4.78125 243.647 -4.78125 238.906V73.949C-4.78125 69.2189 -0.946048 65.373 3.7947 65.373H33.9224V247.482Z" fill="#2A546B"/>
<path opacity="0.1" d="M156.972 131.145H57.9058C55.5301 131.145 53.5806 129.196 53.5806 126.82C53.5806 124.444 55.5301 122.495 57.9058 122.495H156.972C159.347 122.495 161.297 124.444 161.297 126.82C161.297 129.196 159.358 131.145 156.972 131.145Z" fill="white"/>
<path opacity="0.1" d="M156.972 114.717H57.9058C55.5301 114.717 53.5806 112.767 53.5806 110.392C53.5806 108.016 55.5301 106.066 57.9058 106.066H156.972C159.347 106.066 161.297 108.016 161.297 110.392C161.297 112.767 159.358 114.717 156.972 114.717Z" fill="white"/>
<path opacity="0.25" d="M74.6956 168.968H57.9058C55.5301 168.968 53.5806 167.018 53.5806 164.642C53.5806 162.267 55.5301 160.317 57.9058 160.317H74.6956C77.0713 160.317 79.0208 162.267 79.0208 164.642C79.0208 167.029 77.0713 168.968 74.6956 168.968Z" fill="white"/>
<path opacity="0.25" d="M149.747 168.968H107.421C105.045 168.968 103.096 167.018 103.096 164.642C103.096 162.267 105.045 160.317 107.421 160.317H149.747C152.123 160.317 154.072 162.267 154.072 164.642C154.072 167.029 152.123 168.968 149.747 168.968Z" fill="white"/>
<path d="M93.2876 168.968H89.005C86.6293 168.968 84.6797 167.018 84.6797 164.642C84.6797 162.267 86.6293 160.317 89.005 160.317H93.2876C95.6633 160.317 97.6129 162.267 97.6129 164.642C97.6235 167.029 95.674 168.968 93.2876 168.968Z" fill="#F5C659"/>
<path d="M106.332 150.058H102.049C99.6737 150.058 97.7241 148.108 97.7241 145.732C97.7241 143.357 99.6737 141.407 102.049 141.407H106.332C108.708 141.407 110.657 143.357 110.657 145.732C110.668 148.108 108.718 150.058 106.332 150.058Z" fill="#9165F5"/>
<path d="M74.6999 206.794H70.5025C68.1268 206.794 66.1772 204.845 66.1772 202.469C66.1772 200.093 68.1268 198.144 70.5025 198.144H74.6999C77.0756 198.144 79.0252 200.093 79.0252 202.469C79.0252 204.845 77.0756 206.794 74.6999 206.794Z" fill="#9165F5"/>
<path opacity="0.25" d="M137.007 150.058H120.121C117.745 150.058 115.796 148.108 115.796 145.732C115.796 143.357 117.745 141.407 120.121 141.407H137.007C139.382 141.407 141.332 143.357 141.332 145.732C141.343 148.108 139.393 150.058 137.007 150.058Z" fill="white"/>
<path opacity="0.1" d="M156.968 187.876H89.234C86.8583 187.876 84.9087 185.926 84.9087 183.55C84.9087 181.175 86.8583 179.225 89.234 179.225H156.968C159.344 179.225 161.293 181.175 161.293 183.55C161.293 185.937 159.354 187.876 156.968 187.876Z" fill="white"/>
<path d="M74.6999 187.876H70.5025C68.1268 187.876 66.1772 185.926 66.1772 183.55C66.1772 181.175 68.1268 179.225 70.5025 179.225H74.6999C77.0756 179.225 79.0252 181.175 79.0252 183.55C79.0252 185.937 77.0756 187.876 74.6999 187.876Z" fill="#B5CF69"/>
<path opacity="0.1" d="M156.963 206.794H89.005C86.6293 206.794 84.6797 204.845 84.6797 202.469C84.6797 200.093 86.6293 198.144 89.005 198.144H156.963C159.339 198.144 161.288 200.093 161.288 202.469C161.288 204.845 159.349 206.794 156.963 206.794Z" fill="white"/>
<path d="M87.771 150.058H70.7149C68.3392 150.058 66.3896 148.108 66.3896 145.732C66.3896 143.357 68.3392 141.407 70.7149 141.407H87.771C90.1467 141.407 92.0962 143.357 92.0962 145.732C92.1069 148.108 90.1573 150.058 87.771 150.058Z" fill="#E66560"/>
<path opacity="0.1" d="M20.2824 131.145H7.23201C4.8563 131.145 2.90674 129.196 2.90674 126.82C2.90674 124.444 4.8563 122.495 7.23201 122.495H20.2824C22.6581 122.495 24.6077 124.444 24.6077 126.82C24.6183 129.196 22.6687 131.145 20.2824 131.145Z" fill="white"/>
<path opacity="0.1" d="M20.2824 114.717H7.23201C4.8563 114.717 2.90674 112.767 2.90674 110.392C2.90674 108.016 4.8563 106.066 7.23201 106.066H20.2824C22.6581 106.066 24.6077 108.016 24.6077 110.392C24.6183 112.767 22.6687 114.717 20.2824 114.717Z" fill="white"/>
<path opacity="0.25" d="M15.9117 179.225H7.23982C4.86412 179.225 2.91455 181.175 2.91455 183.55C2.91455 185.926 4.86412 187.876 7.23982 187.876H15.9117C18.2874 187.876 20.2369 185.926 20.2369 183.55C20.2369 181.175 18.2874 179.225 15.9117 179.225Z" fill="white"/>
<path d="M23.4956 141.407H15.8145C13.4388 141.407 11.4893 143.357 11.4893 145.732C11.4893 148.108 13.4388 150.058 15.8145 150.058H23.4956C25.8713 150.058 27.8209 148.108 27.8209 145.732C27.8209 143.357 25.8713 141.407 23.4956 141.407Z" fill="#9165F5"/>
<path d="M23.4956 160.317H15.8145C13.4388 160.317 11.4893 162.267 11.4893 164.642C11.4893 167.018 13.4388 168.968 15.8145 168.968H23.4956C25.8713 168.968 27.8209 167.018 27.8209 164.642C27.8209 162.267 25.8713 160.317 23.4956 160.317Z" fill="#B5CF69"/>
<path d="M24.8188 198.135H15.9659C13.5902 198.135 11.6406 200.085 11.6406 202.461C11.6406 204.836 13.5902 206.786 15.9659 206.786H24.8188C27.1945 206.786 29.1441 204.836 29.1441 202.461C29.1441 200.085 27.2052 198.135 24.8188 198.135Z" fill="#E66560"/>
<path d="M15.9725 611H180.929C185.659 611 189.505 607.165 189.505 602.424V437.478C189.505 432.748 185.67 428.902 180.929 428.902H15.9725C11.2424 428.902 7.39648 432.737 7.39648 437.478V602.435C7.39648 607.165 11.2317 611 15.9725 611Z" fill="#092A41"/>
<path d="M150.795 611H180.923C185.653 611 189.499 607.165 189.499 602.424V437.478C189.499 432.748 185.663 428.902 180.923 428.902H150.795V611Z" fill="#2A546B"/>
<path opacity="0.1" d="M126.8 494.674H27.734C25.3583 494.674 23.4087 492.724 23.4087 490.349C23.4087 487.973 25.3583 486.023 27.734 486.023H126.8C129.175 486.023 131.125 487.973 131.125 490.349C131.125 492.724 129.175 494.674 126.8 494.674Z" fill="white"/>
<path opacity="0.1" d="M126.8 478.25H27.734C25.3583 478.25 23.4087 476.3 23.4087 473.925C23.4087 471.549 25.3583 469.599 27.734 469.599H126.8C129.175 469.599 131.125 471.549 131.125 473.925C131.125 476.3 129.175 478.25 126.8 478.25Z" fill="white"/>
<path opacity="0.25" d="M44.5237 532.497H27.734C25.3583 532.497 23.4087 530.547 23.4087 528.171C23.4087 525.796 25.3583 523.846 27.734 523.846H44.5237C46.8994 523.846 48.849 525.796 48.849 528.171C48.8596 530.547 46.91 532.497 44.5237 532.497Z" fill="white"/>
<path opacity="0.25" d="M119.588 532.497H77.2618C74.8861 532.497 72.9365 530.547 72.9365 528.171C72.9365 525.796 74.8861 523.846 77.2618 523.846H119.588C121.963 523.846 123.913 525.796 123.913 528.171C123.913 530.547 121.963 532.497 119.588 532.497Z" fill="white"/>
<path d="M63.1324 532.497H58.8497C56.474 532.497 54.5244 530.547 54.5244 528.171C54.5244 525.796 56.474 523.846 58.8497 523.846H63.1324C65.5081 523.846 67.4576 525.796 67.4576 528.171C67.4576 530.547 65.5081 532.497 63.1324 532.497Z" fill="#F5C659"/>
<path d="M76.1958 513.586H71.9132C69.5375 513.586 67.5879 511.637 67.5879 509.261C67.5879 506.885 69.5375 504.936 71.9132 504.936H76.1958C78.5715 504.936 80.5211 506.885 80.5211 509.261C80.5211 511.637 78.5822 513.586 76.1958 513.586Z" fill="#9165F5"/>
<path d="M44.5452 570.315H40.3477C37.972 570.315 36.0225 568.365 36.0225 565.989C36.0225 563.614 37.972 561.664 40.3477 561.664H44.5452C46.9209 561.664 48.8704 563.614 48.8704 565.989C48.8811 568.365 46.9315 570.315 44.5452 570.315Z" fill="#9165F5"/>
<path opacity="0.25" d="M106.86 513.586H89.9747C87.599 513.586 85.6494 511.637 85.6494 509.261C85.6494 506.885 87.599 504.936 89.9747 504.936H106.86C109.236 504.936 111.186 506.885 111.186 509.261C111.186 511.637 109.247 513.586 106.86 513.586Z" fill="white"/>
<path opacity="0.1" d="M126.813 551.404H59.0792C56.7035 551.404 54.7539 549.455 54.7539 547.079C54.7539 544.703 56.7035 542.754 59.0792 542.754H126.813C129.189 542.754 131.139 544.703 131.139 547.079C131.139 549.455 129.189 551.404 126.813 551.404Z" fill="white"/>
<path d="M44.5452 551.404H40.3477C37.972 551.404 36.0225 549.455 36.0225 547.079C36.0225 544.703 37.972 542.754 40.3477 542.754H44.5452C46.9209 542.754 48.8704 544.703 48.8704 547.079C48.8811 549.455 46.9315 551.404 44.5452 551.404Z" fill="#B5CF69"/>
<path opacity="0.1" d="M126.808 570.315H58.8497C56.474 570.315 54.5244 568.365 54.5244 565.989C54.5244 563.614 56.474 561.664 58.8497 561.664H126.808C129.183 561.664 131.133 563.614 131.133 565.989C131.133 568.365 129.183 570.315 126.808 570.315Z" fill="white"/>
<path d="M57.6011 513.586H40.545C38.1693 513.586 36.2197 511.637 36.2197 509.261C36.2197 506.885 38.1693 504.936 40.545 504.936H57.6011C59.9768 504.936 61.9263 506.885 61.9263 509.261C61.9263 511.637 59.9874 513.586 57.6011 513.586Z" fill="#E66560"/>
<path opacity="0.1" d="M164.414 494.674H177.464C179.84 494.674 181.789 492.724 181.789 490.349C181.789 487.973 179.84 486.023 177.464 486.023H164.414C162.038 486.023 160.088 487.973 160.088 490.349C160.088 492.724 162.027 494.674 164.414 494.674Z" fill="white"/>
<path opacity="0.1" d="M164.414 478.25H177.464C179.84 478.25 181.789 476.3 181.789 473.925C181.789 471.549 179.84 469.599 177.464 469.599H164.414C162.038 469.599 160.088 471.549 160.088 473.925C160.088 476.3 162.027 478.25 164.414 478.25Z" fill="white"/>
<path opacity="0.25" d="M168.802 542.741H177.474C179.849 542.741 181.799 544.691 181.799 547.067C181.799 549.442 179.849 551.392 177.474 551.392H168.802C166.426 551.392 164.477 549.442 164.477 547.067C164.477 544.691 166.426 542.741 168.802 542.741Z" fill="white"/>
<path d="M161.223 504.923H168.904C171.28 504.923 173.23 506.873 173.23 509.248C173.23 511.624 171.28 513.574 168.904 513.574H161.223C158.848 513.574 156.898 511.624 156.898 509.248C156.898 506.873 158.848 504.923 161.223 504.923Z" fill="#9165F5"/>
<path d="M161.223 523.837H168.904C171.28 523.837 173.23 525.787 173.23 528.163C173.23 530.538 171.28 532.488 168.904 532.488H161.223C158.848 532.488 156.898 530.538 156.898 528.163C156.898 525.787 158.848 523.837 161.223 523.837Z" fill="#B5CF69"/>
<path d="M159.903 561.656H168.756C171.132 561.656 173.082 563.605 173.082 565.981C173.082 568.357 171.132 570.306 168.756 570.306H159.903C157.528 570.306 155.578 568.357 155.578 565.981C155.578 563.605 157.528 561.656 159.903 561.656Z" fill="#E66560"/>
<path d="M-422 646C-422 623.909 -404.091 606 -382 606H1050C1072.09 606 1090 623.909 1090 646V979H-422V646Z" fill="#3891C2"/>
<path d="M-602 646C-602 623.909 -584.091 606 -562 606H871C893.091 606 911 623.909 911 646V979H-602V646Z" fill="#247DAE"/>
<path d="M274.093 246.465L288.462 241.038C286.122 234.842 298.931 225.283 293.877 211.902C289.467 200.227 276.855 197.807 266.617 201.674C256.648 205.439 249.904 213.938 249.446 224.68L264.519 227.094C264.721 222.195 266.43 217.753 271.369 215.887C275.949 214.157 278.795 215.443 279.982 218.586C282.967 226.489 270.124 235.958 274.093 246.465ZM290.232 267.461C294.902 265.697 297.305 260.377 295.541 255.707C293.778 251.037 288.457 248.634 283.787 250.398C279.117 252.161 276.714 257.482 278.478 262.152C280.242 266.822 285.562 269.225 290.232 267.461Z" fill="#9BE1DA"/>
<path d="M490.929 276.441L494.319 261.197L504.44 263.448L508.636 244.581L498.516 242.33L509.466 193.101L479.603 186.459L436.57 230.781L432.846 247.524L472.704 256.389L469.313 271.633L490.929 276.441ZM476.9 237.522L457.908 233.298L483.681 207.035L476.9 237.522ZM516.203 238.397C511.311 260.387 517.985 284.032 542.349 289.452C566.714 294.871 582.781 276.284 587.672 254.293C592.563 232.303 585.862 208.783 561.498 203.363C537.133 197.944 521.094 216.406 516.203 238.397ZM565.931 249.458C562.652 264.201 556.569 272.683 546.574 270.46C536.578 268.236 534.664 257.976 537.943 243.232C541.223 228.489 547.278 220.132 557.273 222.355C567.269 224.579 569.211 234.714 565.931 249.458ZM630.023 307.379L648.56 224.04L629.943 219.899L594.439 242.161L603.821 257.754L620.955 246.748L608.533 302.599L630.023 307.379Z" fill="#9BE1DA"/>
</g>
<defs>
<filter id="filter0_d_1787_7301" x="721" y="488" width="52" height="53" filterUnits="userSpaceOnUse" color-interpolation-filters="sRGB">
<feFlood flood-opacity="0" result="BackgroundImageFix"/>
<feColorMatrix in="SourceAlpha" type="matrix" values="0 0 0 0 0 0 0 0 0 0 0 0 0 0 0 0 0 0 127 0" result="hardAlpha"/>
<feOffset/>
<feGaussianBlur stdDeviation="1"/>
<feComposite in2="hardAlpha" operator="out"/>
<feColorMatrix type="matrix" values="0 0 0 0 1 0 0 0 0 1 0 0 0 0 1 0 0 0 0.4 0"/>
<feBlend mode="normal" in2="BackgroundImageFix" result="effect1_dropShadow_1787_7301"/>
<feBlend mode="normal" in="SourceGraphic" in2="effect1_dropShadow_1787_7301" result="shape"/>
</filter>
<linearGradient id="paint0_linear_1787_7301" x1="279.5" y1="341.5" x2="430.474" y2="680.858" gradientUnits="userSpaceOnUse">
<stop offset="0.25" stop-color="#96FFFF" stop-opacity="0"/>
<stop offset="1" stop-color="#96FFFF" stop-opacity="0.5"/>
</linearGradient>
<linearGradient id="paint1_linear_1787_7301" x1="575.658" y1="386.968" x2="697.403" y2="546.338" gradientUnits="userSpaceOnUse">
<stop offset="0.25" stop-color="#96FFFF" stop-opacity="0"/>
<stop offset="1" stop-color="#96FFFF" stop-opacity="0.5"/>
</linearGradient>
</defs>
</svg>
