<svg width="1154" height="654" viewBox="0 0 1154 654" fill="none" xmlns="http://www.w3.org/2000/svg">
<path d="M1033.02 353.41C1033.02 353.41 1013.47 366.255 1003.97 356.313C994.469 346.37 1015.91 336.703 1015.91 336.703L1028.07 329.643L1049.58 341.742C1044.29 345.948 1038.76 349.844 1033.02 353.41Z" fill="#EFD565"/>
<path d="M973.911 235.882L973.911 199.309C973.911 196.515 971.657 194.25 968.877 194.25C966.097 194.25 963.844 196.515 963.844 199.309L963.844 235.882C963.844 238.676 966.097 240.942 968.877 240.942C971.657 240.942 973.911 238.676 973.911 235.882Z" fill="#FFBB4D"/>
<path d="M973.911 339.817L973.911 304.284C973.911 301.489 971.657 299.224 968.877 299.224C966.097 299.224 963.844 301.489 963.844 304.284L963.844 339.817C963.844 342.611 966.097 344.877 968.877 344.877C971.657 344.877 973.911 342.611 973.911 339.817Z" fill="#FFBB4D"/>
<path d="M1128.85 234.1C1134.82 255.049 1134.82 277.257 1128.85 298.206L1128.85 298.402C1126.25 307.59 1121.29 315.928 1114.45 322.574C1107.61 329.219 1099.15 333.937 1089.91 336.25C1072.32 340.642 1015.47 345.074 998.638 345.074C998.638 345.074 963.803 347.271 963.803 266.32C963.803 185.369 998.638 187.879 998.638 187.879C998.638 187.879 1022.94 187.879 1033.47 188.507C1052.41 189.499 1071.23 192.123 1089.72 196.351C1098.97 198.631 1107.46 203.325 1114.33 209.958C1121.2 216.591 1126.19 224.926 1128.81 234.12L1128.85 234.1Z" fill="#F2F2F2"/>
<path d="M1128.85 234.1C1134.82 255.049 1134.82 277.257 1128.85 298.206L1128.85 298.402C1126.25 307.59 1121.29 315.928 1114.45 322.574C1107.61 329.219 1099.15 333.937 1089.91 336.25C1072.32 340.642 1015.47 345.074 998.638 345.074C998.638 345.074 963.803 347.271 963.803 266.32C963.803 185.369 998.638 187.879 998.638 187.879C998.638 187.879 1022.94 187.879 1033.47 188.507C1052.41 189.499 1071.23 192.123 1089.72 196.351C1098.97 198.631 1107.46 203.325 1114.33 209.958C1121.2 216.591 1126.19 224.926 1128.81 234.12L1128.85 234.1Z" fill="#FFE36C"/>
<path d="M1068.39 313.068C1068.39 317.877 1072.27 321.775 1077.07 321.775C1081.86 321.775 1085.75 317.877 1085.75 313.068C1085.75 308.259 1081.86 304.361 1077.07 304.361C1072.27 304.361 1068.39 308.259 1068.39 313.068Z" fill="black"/>
<path d="M1068.39 243.154C1068.39 247.963 1072.27 251.861 1077.07 251.861C1081.86 251.861 1085.75 247.963 1085.75 243.154C1085.75 238.346 1081.86 234.447 1077.07 234.447C1072.27 234.447 1068.39 238.346 1068.39 243.154Z" fill="black"/>
<path d="M1028.88 177.586C1028.88 177.586 1009.33 164.761 999.812 174.723C990.292 184.685 1011.8 194.333 1011.8 194.333L1023.97 201.354L1045.48 189.215C1040.17 185.02 1034.63 181.137 1028.88 177.586Z" fill="#FFE36C"/>
<path d="M979.304 286.776C979.302 286.518 979.352 286.262 979.449 286.023C979.546 285.784 979.69 285.567 979.871 285.383L988.668 276.657C989.042 276.336 989.523 276.168 990.015 276.187C990.507 276.206 990.973 276.41 991.321 276.76C991.67 277.109 991.874 277.577 991.893 278.071C991.912 278.564 991.744 279.047 991.424 279.422L982.725 288.168C982.543 288.352 982.327 288.498 982.089 288.597C981.851 288.697 981.595 288.748 981.337 288.748C981.079 288.748 980.823 288.697 980.585 288.597C980.347 288.498 980.131 288.352 979.949 288.168C979.754 287.991 979.596 287.777 979.485 287.538C979.374 287.299 979.312 287.039 979.304 286.776Z" fill="#FFBB4D"/>
<path d="M979.301 278.049C979.299 277.66 979.412 277.278 979.627 276.954C979.842 276.629 980.148 276.376 980.506 276.227C980.865 276.077 981.26 276.038 981.641 276.115C982.021 276.192 982.371 276.38 982.644 276.657L991.343 285.383C991.526 285.566 991.672 285.783 991.771 286.022C991.87 286.261 991.921 286.517 991.921 286.776C991.921 287.035 991.87 287.291 991.771 287.53C991.672 287.769 991.526 287.986 991.343 288.168C990.977 288.533 990.481 288.738 989.965 288.738C989.449 288.738 988.953 288.533 988.587 288.168L979.868 279.422C979.507 279.057 979.303 278.564 979.301 278.049Z" fill="#FFBB4D"/>
<path d="M1039.22 231.093C1039.22 238.544 1045.24 244.584 1052.67 244.584C1060.1 244.584 1066.12 238.544 1066.12 231.093C1066.12 223.641 1060.1 217.601 1052.67 217.601C1045.24 217.601 1039.22 223.641 1039.22 231.093Z" fill="#FFA052"/>
<path d="M1039.22 324.541C1039.22 331.992 1045.24 338.033 1052.67 338.033C1060.1 338.033 1066.12 331.992 1066.12 324.541C1066.12 317.089 1060.1 311.049 1052.67 311.049C1045.24 311.049 1039.22 317.089 1039.22 324.541Z" fill="#FFA052"/>
<path d="M1052.89 291.204L1052.89 269.633C1052.9 266.678 1054.07 263.848 1056.16 261.761C1058.24 259.674 1061.07 258.499 1064.01 258.494C1070.11 258.494 1074.2 274.3 1074.2 280.438C1074.2 286.556 1070.11 302.362 1064.01 302.362C1061.06 302.357 1058.24 301.18 1056.15 299.088C1054.07 296.997 1052.89 294.161 1052.89 291.204Z" fill="#FFBB4D"/>
<path d="M1133.32 263.675C1133.32 263.675 1145.46 264.499 1153.42 272.049C1153.6 272.229 1153.74 272.458 1153.8 272.71C1153.86 272.962 1153.85 273.227 1153.77 273.473C1153.69 273.72 1153.54 273.938 1153.34 274.102C1153.13 274.267 1152.89 274.371 1152.63 274.402C1146.94 275.203 1141.42 276.96 1136.31 279.599C1135.05 280.41 1133.98 281.482 1133.16 282.744C1132.34 284.005 1131.81 285.427 1131.58 286.913" fill="#FFE36C"/>
<path d="M1132.8 277.517C1137.02 271.553 1142.47 266.57 1148.79 262.908C1149.02 262.783 1149.21 262.595 1149.34 262.366C1149.46 262.136 1149.52 261.875 1149.51 261.612C1149.49 261.35 1149.4 261.098 1149.24 260.886C1149.09 260.674 1148.88 260.512 1148.63 260.417C1145.45 259.491 1142.17 258.983 1138.86 258.907C1137.29 258.816 1135.8 258.179 1134.64 257.105C1133.49 256.031 1132.75 254.588 1132.54 253.024" fill="#FFE36C"/>
<path d="M87.0349 234.38C87.0349 234.38 62.7181 226.48 64.6905 211.582C66.6629 196.684 89.5701 208.372 89.5701 208.372L103.903 213.921L108.303 240.532C101.1 238.893 93.9991 236.839 87.0349 234.38Z" fill="#EFEFEF"/>
<path d="M262.926 195.692L237.871 210.963L240.163 214.723C242.184 218.039 245.443 220.415 249.221 221.328C253 222.24 256.989 221.615 260.312 219.59C263.634 217.565 266.018 214.306 266.938 210.529C267.858 206.752 267.239 202.768 265.218 199.452L262.926 195.692Z" fill="white"/>
<path d="M159.995 258.439L135.525 273.354L137.995 277.406C139.969 280.645 143.151 282.965 146.841 283.856C150.532 284.748 154.428 284.138 157.673 282.16C160.917 280.182 163.245 276.999 164.144 273.31C165.043 269.622 164.438 265.73 162.464 262.491L159.995 258.439Z" fill="#EFEFEF"/>
<path d="M146.67 77.5469C123.729 83.8824 103.012 96.5101 86.8681 113.998L86.7035 114.098C79.6066 121.742 74.6542 131.12 72.3477 141.283C70.0411 151.446 70.4625 162.033 73.569 171.971C79.467 190.906 107.705 246.493 117.284 262.208C117.284 262.208 135.061 295.982 210.554 249.967C286.048 203.951 263.882 172.852 263.882 172.852C263.882 172.852 250.053 150.165 243.453 140.694C231.76 123.57 218.603 107.492 204.13 92.6411C196.73 85.3011 187.52 80.0456 177.428 77.4056C167.337 74.7656 156.722 74.8346 146.656 77.6057L146.67 77.5469Z" fill="#F2F2F2"/>
<path d="M146.67 77.5469C123.729 83.8824 103.012 96.5101 86.8681 113.998L86.7035 114.098C79.6066 121.742 74.6542 131.12 72.3477 141.283C70.0411 151.446 70.4625 162.033 73.569 171.971C79.467 190.906 107.705 246.493 117.284 262.208C117.284 262.208 135.061 295.982 210.554 249.967C286.048 203.951 263.882 172.852 263.882 172.852C263.882 172.852 250.053 150.165 243.453 140.694C231.76 123.57 218.603 107.492 204.13 92.6411C196.73 85.3011 187.52 80.0456 177.428 77.4056C167.337 74.7656 156.722 74.8346 146.656 77.6057L146.67 77.5469Z" fill="white"/>
<path d="M181.588 138.7L189.8 133.695C194.304 130.949 200.178 132.368 202.918 136.864L202.929 136.882C205.669 141.378 204.239 147.248 199.734 149.994L191.523 154.999C187.018 157.745 181.145 156.326 178.405 151.83L178.394 151.812C175.653 147.316 177.083 141.445 181.588 138.7Z" fill="#FFD2D2"/>
<path d="M95.1199 191.407L103.331 186.402C107.836 183.657 113.709 185.075 116.45 189.571L116.461 189.589C119.201 194.085 117.771 199.956 113.266 202.702L105.055 207.707C100.55 210.453 94.6768 209.034 91.9364 204.538L91.9253 204.52C89.1849 200.024 90.6152 194.153 95.1199 191.407Z" fill="#FFD2D2"/>
<path d="M107.438 178.894C102.954 181.628 97.1066 180.215 94.3785 175.74C91.6504 171.264 93.0742 165.42 97.5588 162.686C102.043 159.953 107.89 161.365 110.618 165.841C113.346 170.317 111.923 176.161 107.438 178.894Z" fill="black"/>
<path d="M172.639 139.155C168.154 141.888 162.307 140.476 159.579 136C156.851 131.524 158.275 125.68 162.759 122.947C167.244 120.213 173.091 121.626 175.819 126.102C178.547 130.577 177.123 136.422 172.639 139.155Z" fill="black"/>
<path d="M134.158 88.5324C132.689 88.9668 131.109 88.8187 129.748 88.1189C128.387 87.419 127.35 86.2213 126.852 84.7751C122.923 73.3509 115.777 47.2656 129.637 41.3213C146.001 34.301 153.395 63.8395 155.733 76.2335C155.962 77.6603 155.68 79.1232 154.936 80.3643C154.192 81.6055 153.034 82.5452 151.666 83.018L134.158 88.5324Z" fill="#FFD2D2"/>
<path d="M155.599 87.0522C157.579 85.8505 159.149 84.0782 160.102 81.9688C161.056 79.8595 161.347 77.5122 160.938 75.2363C158.23 60.916 152.754 42.6743 141.815 36.8254C139.621 35.6638 137.186 35.0267 134.702 34.9641C132.218 34.9014 129.752 35.415 127.498 36.4644C114.602 41.9721 112.567 59.7848 121.758 86.551C122.7 89.3343 124.699 91.6345 127.325 92.956C129.951 94.2774 132.993 94.5142 135.796 93.6154L153.23 88.1455C154.06 87.8756 154.855 87.5086 155.599 87.0522ZM130.968 46.6414C131.206 46.4712 131.457 46.3184 131.717 46.1844C132.492 45.7801 133.352 45.5687 134.226 45.5682C135.099 45.5677 135.959 45.7782 136.732 46.1818C142.08 49.0302 147.315 60.9099 150.388 77.1861C150.383 77.3262 150.344 77.4629 150.273 77.5844C150.203 77.7058 150.104 77.8081 149.985 77.8824L132.569 83.3411C132.424 83.3876 132.267 83.3773 132.129 83.3123C131.992 83.2473 131.884 83.1325 131.829 82.9912C126.951 68.8162 123.872 50.9665 130.894 46.686L130.968 46.6414Z" fill="white"/>
<path d="M100.307 110.645C101.376 109.543 101.975 108.07 101.977 106.536C101.978 105.003 101.382 103.53 100.315 102.429C91.9613 93.7027 72.0797 75.4052 60.4159 84.9929C46.6959 96.3097 69.5439 116.429 79.4891 124.186C80.6367 125.082 82.0745 125.526 83.5296 125.432C84.9847 125.339 86.3559 124.715 87.3829 123.68L100.307 110.645Z" fill="#FFD2D2"/>
<path d="M89.0935 129.091C89.8834 128.61 90.61 128.033 91.2563 127.372L104.089 114.393C106.178 112.316 107.367 109.502 107.399 106.56C107.431 103.618 106.304 100.783 104.261 98.6672C84.6635 78.2438 67.8912 71.9197 57.0934 80.8294C55.1278 82.348 53.5422 84.3025 52.4624 86.5379C51.3826 88.7734 50.8382 91.2284 50.8722 93.7086C51.0399 106.123 64.756 119.367 76.232 128.318C78.0408 129.738 80.2407 130.573 82.5386 130.711C84.8364 130.849 87.123 130.284 89.0935 129.091ZM64.6154 88.5612C71.6563 84.2695 86.059 95.142 96.5376 106.078C96.6349 106.188 96.6869 106.33 96.683 106.477C96.6792 106.623 96.6197 106.763 96.5167 106.867L83.6659 119.857C83.5635 119.962 83.4263 120.025 83.2803 120.036C83.1343 120.046 82.9895 120.003 82.8733 119.914C69.8036 109.706 61.6614 99.5991 61.5914 93.5586C61.5756 92.6828 61.7762 91.8163 62.1756 91.0358C62.5749 90.2553 63.1605 89.5849 63.8806 89.0841C64.1115 88.8909 64.3572 88.716 64.6154 88.5612Z" fill="white"/>
<path d="M148.189 198.717L171.561 184.471C187.6 174.695 208.51 179.742 218.264 195.745C228.018 211.748 222.923 232.646 206.884 242.422L183.512 256.668C167.472 266.445 146.563 261.397 136.809 245.394C127.054 229.391 132.149 208.493 148.189 198.717Z" fill="#F4F4F4"/>
<path d="M253.205 130.99C253.205 130.99 257.3 105.764 243.124 100.683C228.949 95.6027 228.894 121.369 228.894 121.369L227.311 136.654L248.99 152.736C250.815 145.574 252.222 138.313 253.205 130.99Z" fill="white"/>
<path d="M182.663 247.123C182.905 246.977 183.115 246.786 183.283 246.559C183.45 246.333 183.571 246.075 183.639 245.802L186.771 232.628C186.858 232.096 186.741 231.552 186.443 231.103C186.145 230.654 185.689 230.335 185.165 230.208C184.641 230.082 184.088 230.158 183.617 230.42C183.146 230.683 182.791 231.114 182.624 231.626L179.418 244.72C179.35 244.994 179.337 245.279 179.38 245.558C179.422 245.837 179.52 246.105 179.667 246.346C179.814 246.587 180.007 246.796 180.235 246.962C180.464 247.128 180.723 247.247 180.998 247.312C181.274 247.394 181.563 247.419 181.85 247.387C182.136 247.354 182.412 247.265 182.663 247.123Z" fill="#FFD2D2"/>
<path d="M190.84 242.14C191.082 241.995 191.292 241.803 191.459 241.577C191.627 241.35 191.748 241.093 191.816 240.819C191.884 240.545 191.897 240.26 191.854 239.981C191.811 239.702 191.714 239.435 191.567 239.194C191.42 238.953 191.227 238.743 190.998 238.577C190.77 238.412 190.511 238.293 190.236 238.227L177.147 235.066C176.873 234.998 176.588 234.986 176.308 235.029C176.029 235.072 175.761 235.17 175.519 235.317C175.278 235.464 175.068 235.658 174.902 235.886C174.735 236.115 174.616 236.374 174.55 236.648C174.418 237.198 174.509 237.777 174.803 238.259C175.096 238.742 175.57 239.088 176.119 239.222L189.237 242.391C189.783 242.521 190.359 242.43 190.84 242.14Z" fill="#FFD2D2"/>
<path d="M138.323 163.397L144.777 153.08C144.925 152.84 145.025 152.573 145.07 152.295C145.116 152.016 145.106 151.732 145.041 151.457C144.91 150.903 144.564 150.424 144.08 150.126C143.595 149.827 143.011 149.733 142.456 149.864C141.901 149.996 141.421 150.342 141.121 150.827L135.846 159.375L124.982 160.314C124.414 160.365 123.889 160.639 123.523 161.076C123.156 161.513 122.978 162.077 123.028 162.644C123.078 163.211 123.351 163.735 123.788 164.101C124.224 164.466 124.789 164.643 125.357 164.592L138.323 163.397Z" fill="#FFD2D2"/>
<path d="M150.25 170.726C152.159 169.618 153.598 167.851 154.294 165.757C154.471 165.218 154.426 164.631 154.17 164.125C153.913 163.62 153.466 163.237 152.927 163.061C152.387 162.885 151.8 162.931 151.293 163.188C150.787 163.445 150.403 163.893 150.226 164.432C149.824 165.539 149.029 166.461 147.991 167.021C147.552 167.366 147.043 167.611 146.499 167.739C145.956 167.868 145.391 167.876 144.844 167.763C144.298 167.65 143.783 167.419 143.335 167.087C142.887 166.754 142.518 166.328 142.253 165.837L138.826 160.215C138.531 159.731 138.056 159.384 137.504 159.251C136.953 159.118 136.37 159.209 135.885 159.505C135.4 159.8 135.052 160.276 134.918 160.828C134.783 161.379 134.874 161.961 135.169 162.445L138.607 168.085C139.371 169.265 140.389 170.261 141.587 170.999C142.901 171.797 144.419 172.196 145.957 172.147C147.495 172.099 148.986 171.605 150.25 170.726Z" fill="#FFD2D2"/>
<path d="M138.953 177.606C139.951 177.065 140.832 176.331 141.544 175.447C142.256 174.563 142.786 173.547 143.102 172.458C143.418 171.368 143.515 170.227 143.386 169.101C143.257 167.974 142.905 166.885 142.35 165.897C142.055 165.413 141.58 165.066 141.028 164.933C140.476 164.8 139.894 164.891 139.409 165.186C138.924 165.482 138.576 165.958 138.442 166.509C138.307 167.061 138.398 167.642 138.693 168.126C138.993 168.631 139.181 169.193 139.246 169.777C139.311 170.36 139.25 170.951 139.069 171.51C138.887 172.068 138.588 172.582 138.192 173.016C137.796 173.451 137.312 173.796 136.772 174.029C135.81 174.709 134.626 175.002 133.458 174.847C133.181 174.795 132.897 174.799 132.621 174.857C132.346 174.915 132.084 175.027 131.852 175.186C131.619 175.346 131.42 175.549 131.266 175.785C131.112 176.021 131.006 176.284 130.954 176.561C130.902 176.838 130.905 177.122 130.963 177.397C131.02 177.672 131.132 177.934 131.291 178.166C131.45 178.398 131.653 178.596 131.889 178.75C132.125 178.903 132.388 179.009 132.665 179.06C134.868 179.388 137.115 178.868 138.953 177.606Z" fill="#FFD2D2"/>
<path d="M348.487 476.755V423.22H387.013V335.162H348.487V143.037H208.396L86.8169 345.669V423.22H247.422V476.755H348.487ZM247.422 335.162H184.381L247.422 230.094V335.162Z" fill="#136E90"/>
<path d="M404.895 310.146C404.895 400.705 453.427 482.759 552.992 482.759C652.557 482.759 701.089 400.705 701.089 310.146C701.089 219.587 652.557 138.034 552.992 138.034C453.427 138.034 404.895 219.587 404.895 310.146ZM599.522 310.146C599.522 366.683 585.013 393.701 552.992 393.701C520.971 393.701 506.462 366.683 506.462 310.146C506.462 253.609 520.971 227.092 552.992 227.092C585.013 227.092 599.522 253.609 599.522 310.146Z" fill="#136E90"/>
<path d="M980.736 476.755V423.22H1019.26V335.162H980.736V143.037H840.644L719.065 345.669V423.22H879.67V476.755H980.736ZM879.67 335.162H816.629L879.67 230.094V335.162Z" fill="#136E90"/>
<path d="M603.807 306.917L612.648 280.521L617.256 282.065C620.922 283.293 623.973 285.861 625.736 289.204C627.5 292.548 627.832 296.393 626.66 299.893C625.487 303.393 622.906 306.262 619.485 307.869C616.063 309.476 612.081 309.689 608.415 308.461L603.807 306.917Z" fill="#4B9B3A"/>
<path d="M576.452 237.005C576.452 237.005 573.222 212.67 558.232 211.378C543.241 210.087 550.516 234.074 550.516 234.074L553.353 248.645L578.638 258.255C578.342 251.148 577.612 244.053 576.452 237.005Z" fill="#4B9B3A"/>
<path d="M508.003 392.564C508.003 392.564 585.312 444.323 613.68 338.529C637.789 248.617 556.493 247.792 556.493 247.792C553.737 242.218 549.661 237.319 544.602 233.501C539.544 229.683 533.648 227.055 527.402 225.836C521.157 224.616 514.741 224.839 508.686 226.486C502.631 228.133 497.11 231.158 492.58 235.309C486.631 231.398 479.431 229.754 472.42 230.705C465.408 231.656 459.101 235.131 454.758 240.437C450.415 245.744 448.355 252.49 448.991 259.329C449.626 266.168 452.91 272.597 458.186 277.331L449.241 304.037C442.835 304.604 436.883 307.272 432.377 311.599C427.87 315.926 425.08 321.651 424.469 327.822C423.858 333.994 425.463 340.24 429.018 345.522C432.573 350.805 437.864 354.806 444.011 356.861C445.618 357.381 447.267 357.76 448.937 357.994C449.078 364.612 450.987 371.132 454.48 376.922C457.973 382.713 462.932 387.579 468.878 391.05C474.824 394.521 481.556 396.481 488.424 396.74C495.291 396.998 502.063 395.547 508.084 392.526L508.003 392.564Z" fill="#49B236"/>
<path d="M572.604 400.077L580.868 375.406L586.369 377.248C589.799 378.397 592.652 380.799 594.302 383.927C595.951 387.054 596.262 390.651 595.165 393.925C594.065 397.194 591.65 399.872 588.451 401.371C585.253 402.87 581.532 403.067 578.106 401.92L572.604 400.077Z" fill="#49B236"/>
<path d="M576.84 281.117L616.994 294.566C619.148 306.065 618.517 320.554 613.692 338.531C608.399 358.312 601.385 372.582 593.495 382.721L547.922 367.457C542.117 365.496 537.29 361.421 534.496 356.123C531.701 350.825 531.166 344.735 533.008 339.183L547.938 294.608C549.833 289.092 553.931 284.582 559.343 282.055C564.755 279.529 571.043 279.192 576.84 281.117Z" fill="#9CD43D"/>
<path d="M497.68 264.305C499.271 259.553 496.526 254.349 491.548 252.681C486.571 251.014 481.245 253.515 479.653 258.268C478.061 263.02 480.806 268.224 485.784 269.891C490.762 271.559 496.088 269.058 497.68 264.305Z" fill="black"/>
<path d="M474.566 333.32C476.158 328.568 473.413 323.363 468.435 321.696C463.457 320.029 458.131 322.53 456.539 327.282C454.948 332.035 457.693 337.239 462.67 338.906C467.648 340.573 472.974 338.072 474.566 333.32Z" fill="black"/>
<path d="M523.231 408.413C523.231 408.413 541.078 426.31 553.559 418.571C566.04 410.831 545.256 395.636 545.256 395.636L533.907 385.369L508.176 392.356C512.878 397.974 517.905 403.335 523.231 408.413Z" fill="#49B236"/>
<path d="M483.511 306.761L490.249 286.644C490.575 285.669 491.152 284.795 491.927 284.103C492.703 283.411 493.652 282.923 494.688 282.684C495.724 282.445 496.812 282.462 497.854 282.735C498.896 283.007 499.857 283.525 500.649 284.243C504.637 287.906 508.014 293.866 505.028 302.781C502.043 311.696 495.764 314.399 490.367 314.941C489.302 315.036 488.223 314.872 487.227 314.462C486.232 314.052 485.352 313.41 484.67 312.595C483.987 311.781 483.523 310.819 483.321 309.8C483.118 308.78 483.184 307.735 483.511 306.761Z" fill="white"/>
<path d="M534.875 253.42C537.682 245.04 533.205 235.984 524.875 233.194C516.545 230.404 507.516 234.936 504.709 243.317C501.902 251.698 506.379 260.753 514.709 263.543C523.04 266.333 532.068 261.801 534.875 253.42Z" fill="#9CD43D"/>
<path d="M499.126 360.166C501.933 351.785 497.456 342.729 489.126 339.939C480.796 337.149 471.767 341.681 468.96 350.062C466.153 358.443 470.63 367.499 478.96 370.289C487.291 373.079 496.319 368.547 499.126 360.166Z" fill="#9CD43D"/>
<path d="M599.621 327.221C599.449 327.729 599.074 328.145 598.578 328.381L586.548 333.965C586.053 334.152 585.498 334.151 584.994 333.961C584.489 333.771 584.072 333.406 583.826 332.94C583.58 332.474 583.523 331.94 583.667 331.446C583.811 330.951 584.144 330.533 584.601 330.273L596.53 324.655C596.779 324.537 597.052 324.468 597.332 324.452C597.613 324.437 597.895 324.475 598.163 324.565C598.431 324.655 598.679 324.794 598.894 324.975C599.108 325.157 599.284 325.376 599.412 325.621C599.557 325.863 599.65 326.13 599.686 326.405C599.721 326.68 599.7 326.958 599.621 327.221Z" fill="#49B236"/>
<path d="M596.728 335.843C596.644 336.099 596.508 336.335 596.328 336.537C596.148 336.739 595.927 336.904 595.678 337.022C595.429 337.141 595.156 337.21 594.876 337.225C594.595 337.241 594.313 337.202 594.045 337.113C593.777 337.023 593.529 336.883 593.314 336.702C593.1 336.521 592.924 336.302 592.796 336.057L586.657 324.387C586.449 323.905 586.435 323.37 586.618 322.889C586.801 322.408 587.168 322.016 587.645 321.792C588.122 321.568 588.674 321.528 589.192 321.68C589.709 321.833 590.153 322.166 590.435 322.613L596.594 334.29C596.848 334.776 596.896 335.334 596.728 335.843Z" fill="#49B236"/>
<path d="M630.586 466.463C630.586 466.463 628.416 440.233 643.389 436.263C658.362 432.293 656.363 458.668 656.363 458.668L656.772 474.468L633.186 489.096C631.883 481.605 631.015 474.048 630.586 466.463Z" fill="#EFEFEF"/>
<path d="M636.088 538.929L613.467 519.46L610.114 523.356C607.553 526.332 606.289 530.211 606.599 534.141C606.909 538.07 608.769 541.729 611.769 544.31C614.769 546.892 618.663 548.186 622.595 547.907C626.527 547.629 630.175 545.801 632.736 542.825L636.088 538.929Z" fill="#EFEFEF"/>
<path d="M721.186 612.172L698.481 592.631L695.186 596.46C693.91 597.942 692.941 599.663 692.334 601.524C691.728 603.386 691.495 605.351 691.649 607.308C691.804 609.266 692.343 611.177 693.235 612.932C694.127 614.687 695.355 616.252 696.85 617.538C699.87 620.115 703.779 621.399 707.723 621.111C711.666 620.823 715.322 618.985 717.891 616.001L721.186 612.172Z" fill="black"/>
<path d="M732.376 430.317C732.376 430.317 722.627 381.533 701.316 385.388C676.841 389.795 701.345 439.253 701.345 439.253L732.376 430.317Z" fill="#FFCACA"/>
<path d="M707.727 395.921C705.159 393.711 703.597 393.931 702.922 394.104C702.342 394.117 701.778 394.29 701.292 394.603C700.807 394.916 700.418 395.357 700.168 395.878C698.276 399.639 699.157 412.191 706.109 428.722L721.704 424.178C718.776 413.834 713.667 401.034 707.676 395.878L707.727 395.921ZM713.407 389.219C726.278 400.297 732.278 430.322 732.278 430.322L701.23 439.244C701.23 439.244 676.659 389.728 701.201 385.379C703.383 385.027 705.621 385.189 707.738 385.853C709.854 386.518 711.79 387.665 713.39 389.205L713.407 389.219Z" fill="black"/>
<path d="M728.037 414.21C728.707 407.324 730.472 400.598 733.267 394.284C733.617 393.465 734.208 392.773 734.962 392.3C735.717 391.827 736.599 391.595 737.493 391.635C738.386 391.675 739.248 391.985 739.966 392.524C740.683 393.063 741.221 393.806 741.508 394.654C744.191 402.124 745.848 409.916 746.434 417.815C746.986 432.345 728.037 414.21 728.037 414.21Z" fill="#FFC145"/>
<path d="M624.11 547.926C627.88 553.3 632.004 558.418 636.456 563.246C643.235 570.662 650.474 577.647 658.128 584.158C664.721 589.883 671.609 595.26 678.763 600.266C732.097 637.474 750.851 612.323 750.851 612.323C750.851 612.323 768.66 591.631 775.845 582.196C788.885 565.347 800.43 547.39 810.351 528.526C815.176 518.961 817.377 508.274 816.733 497.544C816.09 486.814 812.623 476.421 806.684 467.415C798.054 454.307 787.157 442.829 774.509 433.523C767.413 428.293 759.815 423.783 751.83 420.061L751.662 419.916C741.896 415.36 731.12 413.45 720.422 414.378C709.724 415.306 699.483 419.04 690.734 425.202C684.3 430.046 678.136 435.236 672.27 440.751C652.006 459.069 625.233 486.07 616.207 496.558C616.25 496.508 600.027 513.117 624.11 547.926Z" fill="white"/>
<path d="M636.447 563.261C643.227 570.677 650.465 577.662 658.119 584.173C664.713 589.898 671.601 595.275 678.754 600.281C732.088 637.489 750.842 612.338 750.842 612.338C750.842 612.338 768.651 591.646 775.836 582.211C775.836 582.211 742.807 546.222 711.955 566.728C709.325 568.527 706.46 569.96 703.439 570.989C678.658 579.248 666.469 545.112 637.131 562.806C636.891 562.939 636.662 563.091 636.447 563.261Z" fill="black"/>
<path d="M672.279 440.754C693.789 446.749 711.452 423.613 730.381 439.904C752.986 459.359 774.511 433.636 774.511 433.636C767.415 428.406 759.817 423.896 751.832 420.174L751.664 420.029C741.898 415.473 731.122 413.563 720.424 414.491C709.726 415.419 699.485 419.153 690.737 425.315C684.307 430.123 678.146 435.277 672.279 440.754Z" fill="black"/>
<path d="M641.126 523.04L629.436 536.624C626.668 539.833 624.83 543.74 624.118 547.927C633.89 561.38 645.321 573.554 658.136 584.159C664.73 589.884 671.618 595.261 678.772 600.267L700.936 574.515C701.875 573.428 702.71 572.254 703.427 571.008C706.204 566.21 707.21 560.581 706.271 555.091C705.332 549.602 702.508 544.596 698.285 540.938L674.791 520.718C669.98 516.57 663.734 514.485 657.422 514.92C651.111 515.356 645.25 518.276 641.126 523.04Z" fill="#FFCACA"/>
<path d="M694.729 460.712C690.613 457.17 690.126 450.99 693.639 446.908C697.152 442.826 703.336 442.388 707.451 445.929C711.566 449.471 712.054 455.651 708.541 459.733C705.027 463.815 698.844 464.253 694.729 460.712Z" fill="black"/>
<path d="M754.555 512.205C750.44 508.663 749.952 502.483 753.465 498.401C756.979 494.319 763.163 493.881 767.278 497.422C771.393 500.964 771.881 507.144 768.367 511.226C764.854 515.308 758.67 515.746 754.555 512.205Z" fill="black"/>
<path d="M689.412 476.972C697.106 468.032 713.861 464.313 731.045 479.102C748.229 493.892 746.745 510.754 739.052 519.694C731.358 528.633 720.361 526.239 703.193 511.464C686.026 496.689 681.733 485.894 689.412 476.972Z" fill="#FFCACA"/>
<path d="M719.813 502.145C718.395 500.925 718.573 498.392 720.211 496.489C721.849 494.586 724.326 494.033 725.744 495.253C727.162 496.474 726.984 499.006 725.346 500.909C723.708 502.812 721.231 503.365 719.813 502.145Z" fill="black"/>
<path d="M704.856 489.275C703.438 488.055 703.616 485.523 705.254 483.619C706.892 481.716 709.369 481.163 710.787 482.383C712.205 483.604 712.027 486.136 710.389 488.039C708.751 489.942 706.274 490.496 704.856 489.275Z" fill="black"/>
<path d="M811.645 490.431C819.726 488.657 827.475 485.651 834.623 481.518C835.381 481.051 835.977 480.363 836.332 479.547C836.688 478.73 836.785 477.823 836.613 476.946C836.44 476.068 836.005 475.261 835.365 474.633C834.725 474.004 833.911 473.583 833.029 473.424C826.35 472.225 821.252 470.851 813.406 471.72C798.942 473.354 811.645 490.431 811.645 490.431Z" fill="#FFC145"/>
<path d="M801.207 499.751C801.271 497.827 801.72 495.939 802.53 494.198C803.34 492.457 804.492 490.899 805.92 489.617C807.348 488.335 809.022 487.354 810.841 486.734C812.661 486.113 814.59 485.866 816.514 486.005C831.257 487.102 851.842 491.084 852.824 504.911C853.972 521.634 829.882 521.793 814.044 520.101C810.401 519.717 807.03 517.963 804.615 515.196C802.2 512.429 800.923 508.856 801.043 505.203L801.207 499.751Z" fill="#FFCACA"/>
<path d="M841.978 501.897C837.783 498.286 828.288 495.708 815.954 494.799C815.21 494.745 814.464 494.841 813.76 495.081C813.057 495.322 812.41 495.702 811.86 496.2C811.309 496.697 810.865 497.301 810.555 497.976C810.245 498.65 810.075 499.382 810.055 500.126L809.858 505.548C809.829 506.393 809.994 507.235 810.339 508.01C810.685 508.784 811.203 509.471 811.853 510.018C812.713 510.768 813.783 511.233 814.914 511.349C831.635 513.134 840.459 510.993 843.178 508.377C843.536 507.961 844.167 507.432 844.027 505.457C843.976 504.761 843.77 504.084 843.425 503.475C843.079 502.867 842.602 502.343 842.028 501.94L841.978 501.897ZM847.759 495.282C849.224 496.457 850.431 497.921 851.306 499.581C852.18 501.241 852.701 503.061 852.838 504.926C853.986 521.649 829.895 521.808 814.058 520.117C810.417 519.727 807.048 517.972 804.635 515.206C802.221 512.44 800.942 508.87 801.057 505.218L801.254 499.796C801.318 497.872 801.767 495.983 802.577 494.243C803.387 492.502 804.54 490.944 805.967 489.662C807.395 488.379 809.069 487.399 810.889 486.778C812.708 486.158 814.638 485.91 816.561 486.049C827.069 486.806 840.526 489.057 847.759 495.282Z" fill="white"/>
<path d="M783.558 590.24C783.558 590.24 779.518 616.147 763.889 616.488C748.259 616.83 756.607 591.618 756.607 591.618L761.04 568.919L786.363 567.532C785.871 575.153 784.934 582.735 783.558 590.24Z" fill="white"/>
<path d="M651.946 555.946C652.166 556.137 652.421 556.283 652.696 556.377C652.972 556.47 653.263 556.508 653.553 556.488L667.468 555.424C668.017 555.343 668.513 555.057 668.857 554.624C669.201 554.191 669.368 553.642 669.325 553.089C669.281 552.535 669.03 552.017 668.621 551.637C668.213 551.257 667.677 551.044 667.122 551.041L653.278 552.022C652.988 552.041 652.705 552.118 652.445 552.247C652.185 552.377 651.954 552.556 651.765 552.776C651.576 552.996 651.432 553.251 651.343 553.527C651.253 553.804 651.22 554.095 651.244 554.385C651.252 554.678 651.318 554.967 651.438 555.235C651.559 555.503 651.731 555.744 651.946 555.946Z" fill="#FF8D8D"/>
<path d="M659.431 562.382C659.764 562.666 660.173 562.846 660.607 562.899C661.041 562.952 661.479 562.875 661.867 562.679C662.255 562.482 662.575 562.175 662.787 561.795C662.998 561.416 663.092 560.981 663.056 560.547L661.963 546.712C661.916 546.131 661.64 545.591 661.197 545.209C660.754 544.828 660.179 544.636 659.597 544.675C659.016 544.718 658.478 544.989 658.099 545.429C657.721 545.869 657.533 546.442 657.577 547.022L658.655 560.874C658.679 561.163 658.76 561.445 658.893 561.704C659.026 561.963 659.209 562.193 659.431 562.382Z" fill="#FF8D8D"/>
<path d="M764.388 520.664L767.895 523.683C772.029 527.241 772.522 533.445 768.997 537.541C765.472 541.636 759.264 542.073 755.13 538.515L751.623 535.497C747.489 531.939 746.996 525.735 750.521 521.639C754.046 517.543 760.254 517.107 764.388 520.664Z" fill="#FFD2D2"/>
<path d="M681.543 449.359L685.051 452.378C689.184 455.935 689.678 462.14 686.152 466.236C682.627 470.331 676.419 470.768 672.285 467.21L668.778 464.192C664.644 460.634 664.151 454.43 667.676 450.334C671.201 446.238 677.41 445.802 681.543 449.359Z" fill="#FFD2D2"/>
<path d="M601.109 312.596C599.467 349.675 588.026 378.498 559.929 409.377L601.665 436.086C642.665 411.365 671.639 360.692 673.626 315.807C675.614 270.923 651.233 217.887 612.578 189.639L568.67 211.996C593.903 245.796 602.764 275.239 601.109 312.596Z" fill="#136E90"/>
</svg>
