<svg width="1440" height="144" viewBox="0 0 1440 144" fill="none" xmlns="http://www.w3.org/2000/svg">
<mask id="mask0_1564_4759" style="mask-type:alpha" maskUnits="userSpaceOnUse" x="0" y="0" width="1440" height="144">
<rect width="1440" height="144" fill="#C4C4C4"/>
</mask>
<g mask="url(#mask0_1564_4759)">
<rect x="-0.00268555" y="-206.001" width="1509" height="406" fill="white"/>
<path opacity="0.16" d="M136.177 -173.999C136.177 -173.999 418.446 -80.0956 577.843 -57.8568C737.239 -35.618 822.048 -15.2266 788.981 17.5374C755.914 50.3014 325.672 -13.3743 295.785 96.5865C265.899 206.547 805.723 108.485 873.593 261.605V382.001H-23.0027V-173.999H136.177Z" fill="white"/>
<g opacity="0.8">
<path opacity="0.8" d="M1462.87 -152.001H-0.00268555V217.775H1462.87V-152.001Z" fill="#45D5D9"/>
<path opacity="0.5" d="M787.472 10.666H731.877V241.062H787.472V10.666Z" fill="#173A52"/>
<path opacity="0.5" d="M827.721 -71.952H691.627C679.876 -71.952 670.35 -62.4261 670.35 -50.6753V-10.6098C670.35 1.14103 679.876 10.6669 691.627 10.6669H827.721C839.472 10.6669 848.998 1.14103 848.998 -10.6098V-50.6753C848.998 -62.4261 839.472 -71.952 827.721 -71.952Z" fill="#037D52"/>
<path opacity="0.5" d="M644.119 143.092H588.524V241.063H644.119V143.092Z" fill="#173A52"/>
<path opacity="0.5" d="M684.368 60.4725H548.274C536.523 60.4725 526.997 69.9985 526.997 81.7493V121.815C526.997 133.566 536.523 143.091 548.274 143.091H684.368C696.119 143.091 705.645 133.566 705.645 121.815V81.7493C705.645 69.9985 696.119 60.4725 684.368 60.4725Z" fill="#037D52"/>
<path opacity="0.5" d="M1031.52 -39.334H1087.12V191.062H1031.52V-39.334Z" fill="#173A52"/>
<path opacity="0.5" d="M1174.88 93.0917H1230.47V191.063H1174.88V93.0917Z" fill="#173A52"/>
<path opacity="0.5" d="M1134.63 10.4725H1270.72C1282.47 10.4725 1292 19.9985 1292 31.7493V71.8148C1292 83.5656 1282.47 93.0915 1270.72 93.0915H1134.63C1122.88 93.0915 1113.35 83.5656 1113.35 71.8148V31.7493C1113.35 19.9985 1122.88 10.4725 1134.63 10.4725Z" fill="#037D52"/>
<path opacity="0.5" d="M550.472 -29.334H494.877V201.062H550.472V-29.334Z" fill="#173A52"/>
<path opacity="0.5" d="M407.119 103.092H351.524V201.063H407.119V103.092Z" fill="#173A52"/>
<path opacity="0.5" d="M447.368 20.4725H311.274C299.523 20.4725 289.997 29.9985 289.997 41.7493V81.8148C289.997 93.5656 299.523 103.091 311.274 103.091H447.368C459.119 103.091 468.645 93.5656 468.645 81.8148V41.7493C468.645 29.9985 459.119 20.4725 447.368 20.4725Z" fill="#037D52"/>
</g>
<path d="M582.997 -38.0009H438.997V527.999H582.997V-38.0009Z" fill="#173A52"/>
<path d="M427.104 95.2066C427.104 95.2066 419.637 88.3529 422.803 83.2606C425.97 78.1683 432.327 86.2315 432.327 86.2315L436.578 90.6156L433.762 100.998C433.762 100.998 429.021 97.2866 427.104 95.2066Z" fill="#EEEEEE"/>
<path d="M453.302 123.327L446.77 124.968C446.161 125.121 445.517 125.026 444.979 124.704C444.44 124.382 444.052 123.859 443.899 123.25L442.594 118.056L453.715 115.263L455.019 120.457C455.172 121.065 455.077 121.709 454.755 122.248C454.433 122.786 453.91 123.174 453.302 123.327Z" fill="#EEEEEE"/>
<path d="M495.147 112.819L488.581 114.469C487.969 114.623 487.321 114.527 486.779 114.203C486.238 113.879 485.847 113.353 485.693 112.741L484.392 107.56L495.573 104.751L496.875 109.932C497.029 110.544 496.933 111.192 496.609 111.734C496.285 112.275 495.759 112.666 495.147 112.819Z" fill="black"/>
<path d="M440.831 60.5309C440.831 60.5309 423.338 52.7073 419.84 60.2967C415.82 69.0163 436.788 72.3395 436.788 72.3395L440.831 60.5309Z" fill="#F6CBCA"/>
<path d="M424.557 60.6061C423.295 60.9237 423.046 61.4604 422.926 61.7184C422.618 62.3896 422.725 62.6993 422.882 62.9783C423.648 64.4139 427.793 66.9503 434.527 68.4443L436.565 62.5033C432.663 61.1217 427.51 59.8705 424.566 60.6112L424.557 60.6061ZM423.735 57.3098C430.062 55.718 440.832 60.5358 440.832 60.5358L436.789 72.3444C436.789 72.3444 415.821 69.0212 419.841 60.3016C420.595 58.6644 421.996 57.7473 423.735 57.3098Z" fill="black"/>
<path d="M434.804 58.2998C432.786 56.5492 431.06 54.4874 429.692 52.1924C429.514 51.8989 429.429 51.5586 429.448 51.2159C429.466 50.8732 429.588 50.544 429.796 50.2714C430.005 49.9989 430.291 49.7956 430.617 49.6881C430.943 49.5807 431.294 49.5741 431.623 49.6691C434.129 50.4213 437.45 51.6267 440.002 53.2972C444.699 56.3749 434.804 58.2998 434.804 58.2998Z" fill="#F4C25D"/>
<path d="M453.902 121.035C456.427 121.052 458.949 120.901 461.453 120.583C465.283 120.099 469.079 119.374 472.817 118.411C476.073 117.607 479.286 116.634 482.44 115.495C505.918 106.942 502.156 95.4145 502.156 95.4145C502.156 95.4145 499.577 85.1632 498.2 80.7833C496.293 74.7274 493.133 65.8491 488.921 57.8832C486.979 54.2198 484.104 51.134 480.587 48.9376C477.071 46.7411 473.036 45.5119 468.892 45.3742C462.877 45.1703 456.875 46.042 451.167 47.9483L451.15 47.9525C447.936 49.0189 444.838 50.4045 441.902 52.0887L441.827 52.1364C438.235 54.2007 435.253 57.1772 433.181 60.7646C431.109 64.352 430.022 68.423 430.03 72.5655C430.127 75.6632 430.391 78.7534 430.821 81.8228C432.105 92.3203 434.684 106.816 435.99 112.007C435.994 112.024 437.636 120.864 453.902 121.035Z" fill="white"/>
<path d="M461.459 120.582C465.288 120.098 469.084 119.373 472.822 118.41C476.079 117.606 479.291 116.633 482.446 115.494C505.923 106.941 502.162 95.4135 502.162 95.4135C502.162 95.4135 499.583 85.1622 498.206 80.7823C498.206 80.7823 479.589 83.1679 479.225 97.4999C479.213 98.7351 479.035 99.963 478.696 101.151C475.822 110.827 462.396 107.061 461.478 120.269C461.463 120.373 461.456 120.477 461.459 120.582Z" fill="black"/>
<path d="M430.83 81.8318C437.466 76.3769 434.09 65.6203 443.393 63.2835C454.505 60.4878 451.17 47.9369 451.17 47.9369L451.153 47.9412C447.94 49.0075 444.842 50.3931 441.905 52.0773L441.83 52.1251C438.239 54.1893 435.256 57.1658 433.185 60.7532C431.113 64.3406 430.026 68.4116 430.033 72.5542C430.132 75.6588 430.398 78.7558 430.83 81.8318Z" fill="black"/>
<path d="M449.823 110.119L451.516 116.851C451.919 118.436 452.744 119.882 453.904 121.034C458.773 121.083 464.954 120.364 472.814 118.39C476.07 117.586 479.282 116.613 482.437 115.473L479.224 102.704C479.089 102.164 478.904 101.639 478.671 101.135C477.775 99.1837 476.227 97.6065 474.292 96.6753C472.358 95.744 470.159 95.5173 468.076 96.0341L456.504 98.9454C454.137 99.5428 452.104 101.055 450.852 103.15C449.599 105.245 449.229 107.751 449.823 110.119Z" fill="#F6CBCA"/>
<path d="M442.075 79.2275C444.097 78.7187 445.324 76.6666 444.815 74.644C444.307 72.6215 442.255 71.3944 440.232 71.9032C438.209 72.4121 436.982 74.4642 437.491 76.4867C438 78.5093 440.052 79.7364 442.075 79.2275Z" fill="black"/>
<path d="M471.487 71.8416C473.51 71.3328 474.737 69.2807 474.228 67.2582C473.719 65.2356 471.667 64.0085 469.645 64.5174C467.622 65.0262 466.395 67.0783 466.904 69.1009C467.413 71.1234 469.465 72.3505 471.487 71.8416Z" fill="black"/>
<path d="M446.013 84.5393C444.9 80.1148 447.433 73.9875 455.875 71.8674C464.316 69.7472 469.301 73.983 470.415 78.4109C471.529 82.8389 468.346 85.7785 459.904 87.8986C451.463 90.0188 447.126 88.9638 446.013 84.5393Z" fill="#F6CBCA"/>
<path d="M460.64 80.5741C461.335 80.3991 461.706 79.4908 461.468 78.5453C461.23 77.5998 460.474 76.9752 459.778 77.1502C459.083 77.3252 458.712 78.2335 458.95 79.179C459.188 80.1245 459.944 80.7491 460.64 80.5741Z" fill="black"/>
<path d="M453.307 82.4143C454.002 82.2393 454.373 81.331 454.135 80.3856C453.898 79.4401 453.141 78.8154 452.445 78.9904C451.75 79.1654 451.379 80.0737 451.617 81.0192C451.855 81.9647 452.611 82.5893 453.307 82.4143Z" fill="black"/>
<path d="M477.87 54.3159C477.279 53.8659 476.784 53.3015 476.415 52.6563C476.046 52.0112 475.811 51.2984 475.723 50.5605C475.636 49.8226 475.697 49.0745 475.904 48.3609C476.112 47.6472 476.46 46.9825 476.93 46.4064C480.523 41.9885 486.348 36.3755 490.879 39.1658C496.395 42.5478 491.12 50.1934 487.092 54.8222C486.167 55.8864 484.871 56.5587 483.468 56.7026C482.066 56.8465 480.661 56.4512 479.539 55.597L477.87 54.3159Z" fill="#F6CBCA"/>
<path d="M502.434 80.1279C502.434 80.1279 509.694 87.204 506.377 92.2037C503.061 97.2035 496.95 88.9518 496.95 88.9518L490.789 82.4715L495.934 74.1562C495.934 74.1562 500.582 77.9848 502.434 80.1279Z" fill="white"/>
<path d="M462.582 114.038C462.69 114.013 462.793 113.965 462.882 113.899C462.972 113.833 463.047 113.75 463.104 113.654L465.845 109.056C465.902 108.96 465.94 108.854 465.957 108.743C465.973 108.633 465.968 108.521 465.941 108.412C465.914 108.304 465.865 108.202 465.799 108.112C465.733 108.023 465.649 107.947 465.553 107.89C465.458 107.832 465.352 107.794 465.241 107.778C465.131 107.761 465.018 107.767 464.91 107.794C464.802 107.821 464.7 107.869 464.61 107.935C464.52 108.002 464.445 108.085 464.387 108.181L461.636 112.782C461.579 112.877 461.541 112.983 461.524 113.094C461.508 113.204 461.513 113.316 461.54 113.425C461.568 113.533 461.616 113.635 461.683 113.724C461.749 113.813 461.833 113.889 461.929 113.946C462.026 114.005 462.134 114.044 462.246 114.059C462.358 114.075 462.473 114.068 462.582 114.038Z" fill="#EF928F"/>
<path d="M466.26 113.115C466.422 113.073 466.569 112.984 466.681 112.859C466.793 112.734 466.866 112.579 466.89 112.413C466.914 112.247 466.889 112.078 466.817 111.926C466.746 111.774 466.631 111.647 466.487 111.56L461.89 108.808C461.697 108.708 461.474 108.686 461.265 108.745C461.056 108.805 460.878 108.942 460.767 109.128C460.655 109.314 460.619 109.536 460.665 109.748C460.712 109.96 460.837 110.147 461.017 110.269L465.614 113.021C465.808 113.136 466.04 113.17 466.26 113.115Z" fill="#EF928F"/>
<path d="M477.316 78.2157L480.72 77.3606C482.288 76.9667 483.239 75.3765 482.845 73.8087L482.425 72.1341C482.031 70.5663 480.441 69.6146 478.873 70.0085L475.469 70.8635C473.901 71.2574 472.95 72.8476 473.344 74.4154L473.764 76.0901C474.158 77.6579 475.748 78.6095 477.316 78.2157Z" fill="#F7D3D2"/>
<path d="M436.547 88.5554L439.951 87.6991C441.518 87.3047 442.469 85.7141 442.075 84.1465L441.654 82.472C441.259 80.9043 439.669 79.9532 438.101 80.3476L434.698 81.2039C433.13 81.5983 432.179 83.1889 432.573 84.7565L432.994 86.431C433.389 87.9987 434.979 88.9498 436.547 88.5554Z" fill="#F7D3D2"/>
<g opacity="0.75">
<path d="M451.329 36.9967C462.042 34.3014 470.287 30.364 469.743 28.2024C469.199 26.0408 460.073 26.4735 449.36 29.1689C438.646 31.8642 430.402 35.8015 430.946 37.9631C431.49 40.1247 440.616 39.692 451.329 36.9967Z" fill="#F2F2FA"/>
<path opacity="0.1" d="M469.752 28.2012C470.295 30.3613 462.051 34.3003 451.341 36.9947L450.356 33.0808L469.752 28.2012Z" fill="#6DD1E1"/>
<path opacity="0.1" d="M449.357 29.1695L450.342 33.0835L430.946 37.9631C430.399 35.7994 438.644 31.8647 449.357 29.1695Z" fill="black"/>
</g>
<path d="M462.65 28.0405L449.751 33.5961L463.743 32.3863C466.36 31.9649 470.252 30.2157 469.832 28.5441C469.411 26.8724 465.155 27.1733 462.65 28.0405Z" fill="white"/>
<path d="M437.238 34.4338L451.458 33.1667L438.331 38.7796C435.783 39.6577 431.458 39.976 431.037 38.3044C430.616 36.6327 434.578 34.8661 437.238 34.4338Z" fill="white"/>
<path d="M451.675 38.3588L450.39 33.2535" stroke="#12314B" stroke-width="5" stroke-miterlimit="10" stroke-linecap="round"/>
<path d="M452.011 38.2747C438.397 41.6997 437.362 50.5356 438.416 54.723L471.77 46.3316C470.717 42.144 465.624 34.8498 452.011 38.2747Z" fill="#F95A5A"/>
<path d="M477.255 48.935C477.255 48.935 479.311 44.1619 479.522 39.6792C479.542 39.3357 479.457 38.9943 479.279 38.7C479.101 38.4056 478.837 38.1722 478.524 38.0305C478.21 37.8887 477.861 37.8453 477.523 37.9059C477.184 37.9666 476.872 38.1284 476.627 38.3701C474.775 40.2149 473.216 41.5153 471.758 44.191C469.073 49.126 477.255 48.935 477.255 48.935Z" fill="#F4C25D"/>
<path d="M487.555 41.9188C485.496 42.4369 482.586 44.8552 479.569 48.5564C479.388 48.7772 479.253 49.0326 479.174 49.3071C479.094 49.5816 479.071 49.8694 479.106 50.1531C479.139 50.4399 479.229 50.717 479.372 50.9679C479.515 51.2187 479.707 51.438 479.937 51.6125L481.607 52.8859C482.04 53.2174 482.584 53.3712 483.127 53.316C483.669 53.2608 484.171 53.0007 484.529 52.5888C488.779 47.7051 490.058 44.4338 489.838 42.9981C489.807 42.7854 489.756 42.4688 489.105 42.068C488.873 41.9313 488.614 41.847 488.346 41.8212C488.079 41.7954 487.808 41.8288 487.555 41.9188ZM486.725 38.6208C487.418 38.4207 488.146 38.3658 488.861 38.4598C489.577 38.5538 490.265 38.7946 490.883 39.1671C496.399 42.5491 491.124 50.1947 487.096 54.8235C486.17 55.8877 484.875 56.56 483.472 56.7039C482.069 56.8478 480.664 56.4525 479.542 55.5983L477.877 54.3274C477.285 53.8774 476.79 53.313 476.422 52.6678C476.053 52.0227 475.818 51.3099 475.73 50.572C475.642 49.8341 475.704 49.086 475.911 48.3724C476.118 47.6587 476.467 46.9941 476.936 46.4179C479.499 43.2689 483.18 39.5199 486.728 38.6311L486.725 38.6208Z" fill="white"/>
<path d="M269.928 -172.001H39.9973V661.5H269.928V-172.001Z" fill="#173A52"/>
<path d="M206.06 24.9991H104.017C86.6996 24.9991 72.6614 39.0374 72.6614 56.3544V146.447C72.6614 163.764 86.6996 177.802 104.017 177.802H206.06C223.377 177.802 237.416 163.764 237.416 146.447V56.3544C237.416 39.0374 223.377 24.9991 206.06 24.9991Z" fill="#0E2535"/>
<path d="M93.6945 145.82C93.6945 145.82 82.2601 185.736 133.206 182.757C176.505 180.224 164.833 145.808 164.833 145.808C166.893 143.859 168.458 141.446 169.399 138.77C170.34 136.095 170.629 133.234 170.244 130.424C169.858 127.614 168.808 124.937 167.181 122.614C165.553 120.291 163.396 118.39 160.887 117.067L160.868 117.04C161.699 113.982 161.35 110.723 159.89 107.911C158.43 105.098 155.965 102.938 152.986 101.859C150.006 100.78 146.73 100.861 143.807 102.086C140.885 103.311 138.53 105.591 137.211 108.472H124.114C122.914 105.846 120.852 103.711 118.269 102.422C115.687 101.132 112.74 100.767 109.921 101.386C107.102 102.005 104.58 103.571 102.775 105.824C100.97 108.076 99.9914 110.879 100.002 113.766C100.011 114.515 100.085 115.262 100.223 115.999H100.2C97.2972 116.993 94.6995 118.719 92.6582 121.009C90.6168 123.3 89.2007 126.079 88.5467 129.077C87.8927 132.075 88.0229 135.191 88.9246 138.124C89.8264 141.057 91.4692 143.707 93.6945 145.82Z" fill="#66AF49"/>
<path d="M148.844 123.337C151.18 123.337 153.073 121.444 153.073 119.108C153.073 116.772 151.18 114.878 148.844 114.878C146.508 114.878 144.614 116.772 144.614 119.108C144.614 121.444 146.508 123.337 148.844 123.337Z" fill="black"/>
<path d="M114.923 123.337C117.259 123.337 119.153 121.444 119.153 119.108C119.153 116.772 117.259 114.878 114.923 114.878C112.587 114.878 110.693 116.772 110.693 119.108C110.693 121.444 112.587 123.337 114.923 123.337Z" fill="black"/>
<path d="M127.989 123.354H137.882C138.362 123.353 138.835 123.472 139.256 123.702C139.678 123.932 140.035 124.264 140.294 124.669C140.553 125.073 140.706 125.536 140.738 126.015C140.771 126.494 140.682 126.973 140.48 127.409C139.447 129.603 137.319 131.872 132.938 131.872C128.556 131.872 126.424 129.603 125.391 127.409C125.189 126.973 125.1 126.494 125.133 126.015C125.166 125.536 125.319 125.073 125.578 124.669C125.837 124.264 126.193 123.932 126.615 123.702C127.037 123.472 127.509 123.353 127.989 123.354Z" fill="white"/>
<path d="M159.167 137.492C163.288 137.492 166.628 134.324 166.628 130.416C166.628 126.507 163.288 123.339 159.167 123.339C155.047 123.339 151.706 126.507 151.706 130.416C151.706 134.324 155.047 137.492 159.167 137.492Z" fill="#A7D157"/>
<path d="M106.696 137.492C110.816 137.492 114.157 134.324 114.157 130.416C114.157 126.507 110.816 123.339 106.696 123.339C102.575 123.339 99.2346 126.507 99.2346 130.416C99.2346 134.324 102.575 137.492 106.696 137.492Z" fill="#A7D157"/>
<path fill-rule="evenodd" clip-rule="evenodd" d="M161.011 116.458C160.968 116.653 160.92 116.847 160.868 117.04L160.887 117.067C163.396 118.39 165.554 120.291 167.181 122.614C168.808 124.937 169.858 127.614 170.244 130.424C170.629 133.234 170.34 136.095 169.399 138.77C168.464 141.429 166.913 143.828 164.872 145.772C165.23 146.284 168.781 151.395 170.075 154.116C170.075 154.116 175.796 163.923 170.723 168.327C168.113 170.594 165.751 168.852 164.074 166.627C162.902 169.256 161.165 171.824 158.645 174.115H158.684V180.116C158.684 180.817 158.405 181.49 157.909 181.986C157.413 182.482 156.74 182.761 156.039 182.761H148.368C147.666 182.761 146.994 182.482 146.498 181.986C146.164 181.652 145.929 181.239 145.811 180.79C143.105 181.544 140.054 182.121 136.619 182.48C136.3 182.514 135.978 182.545 135.653 182.575C134.858 182.647 134.042 182.708 133.206 182.757C130.372 182.922 127.731 182.955 125.27 182.87C120.088 182.69 115.704 181.985 111.993 180.894C111.885 181.322 111.662 181.718 111.344 182.036C110.88 182.5 110.251 182.761 109.595 182.761H102.414C101.757 182.761 101.128 182.5 100.664 182.036C100.2 181.572 99.9394 180.943 99.9394 180.286V174.165C97.7633 172.042 96.1946 169.678 95.0798 167.248C93.5314 169.244 91.4166 170.607 88.9457 168.649C83.6829 164.477 88.9457 154.425 88.9457 154.425C90.0085 151.898 92.8365 147.324 93.5904 146.12C93.6413 145.918 93.6719 145.811 93.6719 145.811C91.4456 143.699 89.8019 141.048 88.8996 138.114C87.9973 135.181 87.8669 132.064 88.5209 129.066C89.175 126.067 90.5914 123.288 92.6334 120.997C94.6753 118.706 97.2737 116.98 100.178 115.986C100.044 115.248 99.9709 114.5 99.96 113.749C99.9573 110.866 100.942 108.068 102.749 105.822C104.024 104.238 105.654 102.995 107.492 102.184C108.268 101.838 109.081 101.57 109.921 101.386C112.74 100.767 115.687 101.132 118.269 102.422C120.852 103.711 122.914 105.846 124.114 108.472H137.177C138.366 105.837 140.424 103.69 143.006 102.389C145.594 101.085 148.552 100.711 151.384 101.329C154.215 101.947 156.748 103.521 158.557 105.785C160.366 108.049 161.341 110.867 161.319 113.765C161.316 114.672 161.213 115.575 161.011 116.458Z" fill="url(#paint0_linear_1564_4759)"/>
<path d="M222.329 124.734L125.424 73.6593L96.2942 148.124L157.851 172.36L222.329 124.734Z" fill="url(#paint1_linear_1564_4759)"/>
<path d="M222.151 124.682H159.161C158.438 124.682 157.852 125.268 157.852 125.991V172.362C157.852 173.085 158.438 173.671 159.161 173.671H222.151C222.874 173.671 223.46 173.085 223.46 172.362V125.991C223.46 125.268 222.874 124.682 222.151 124.682Z" fill="#136E90"/>
<g filter="url(#filter0_d_1564_4759)">
<path d="M188.642 149.576V147.348L183.958 152.015L185.062 153.142L188.642 149.576ZM199.296 148.199C199.027 147.018 198.408 145.913 197.496 144.989L194.285 141.718L192.447 143.551L192.314 143.682V145.91L194.273 143.955L196.1 145.814L196.378 146.099L196.397 146.119C196.397 146.119 196.518 146.237 196.686 146.44C197.212 147.053 197.575 147.755 197.751 148.497C198.01 149.81 198.132 151.341 196.678 153.206V155.507C196.815 155.389 196.903 155.305 196.933 155.273C198.143 154.161 198.978 152.797 199.353 151.322C199.559 150.286 199.54 149.228 199.296 148.199ZM189.555 155.061L189.506 155.039H189.479C189.338 154.96 189.203 154.874 189.076 154.779C188.958 154.692 188.81 154.58 188.635 154.435C188.368 154.214 188.041 153.919 187.638 153.524L186.732 152.606L185.617 153.72L186.515 154.638C187.904 155.995 188.619 156.384 188.882 156.493C189.696 156.899 190.605 157.152 191.545 157.234C191.972 157.268 192.403 157.26 192.828 157.209H192.93V155.604C191.765 155.787 190.56 155.594 189.555 155.061Z" fill="white"/>
<path d="M191.527 144.475L191.512 153.989L189.423 153.986L189.434 146.561L189.644 146.35L189.758 146.237L190.389 145.608L190.819 145.181L190.956 145.043L191.386 144.616L191.527 144.475Z" fill="white"/>
<path d="M195.898 146.609V156.101L195.868 156.12L195.564 156.306L195.453 156.367C195.358 156.422 195.255 156.473 195.149 156.525C195.042 156.576 194.951 156.621 194.848 156.666L194.673 156.74L194.441 156.833L194.247 156.9C194.118 156.942 193.985 156.984 193.844 157.022L193.741 157.048V146.606L195.898 146.609Z" fill="white"/>
<path d="M191.53 149.127L191.527 151.28L193.745 151.283L193.748 149.129L191.53 149.127Z" fill="white"/>
</g>
<path d="M1017.06 181.883L1017.06 132.689C1017.06 125.647 1019.85 118.892 1024.83 113.912C1029.81 108.931 1036.56 106.132 1043.61 106.129L1064.1 106.129L1064.1 93.3123C1064.1 89.8242 1064.78 86.3701 1066.12 83.1475C1067.45 79.9249 1069.41 76.9968 1071.88 74.5304C1074.34 72.0641 1077.27 70.1077 1080.49 68.7731C1083.72 67.4385 1087.17 66.7518 1090.66 66.7522L1134.05 66.7522L1134.05 47.5623C1134.05 44.0741 1134.74 40.62 1136.07 37.3972C1137.4 34.1744 1139.36 31.2461 1141.83 28.7795C1144.29 26.3128 1147.22 24.3561 1150.44 23.0212C1153.67 21.6862 1157.12 20.9991 1160.61 20.9991L1409.36 20.9991C1416.13 20.9987 1422.64 23.5828 1427.57 28.2237C1432.5 32.8646 1435.47 39.2119 1435.87 45.969L1484.23 45.969L1484.23 181.883L1017.06 181.883Z" fill="#275C40"/>
<path d="M1017 187.999L1017 132.689C1017 129.201 1017.68 125.747 1019.02 122.524C1020.35 119.302 1022.31 116.374 1024.78 113.907C1027.24 111.441 1030.17 109.485 1033.4 108.15C1036.62 106.815 1040.07 106.129 1043.56 106.129L1064.03 106.129L1064.03 93.3124C1064.03 89.8242 1064.71 86.3702 1066.05 83.1476C1067.38 79.9249 1069.34 76.9968 1071.81 74.5305C1074.27 72.0641 1077.2 70.1077 1080.42 68.7732C1083.65 67.4386 1087.1 66.7519 1090.59 66.7523L1134 66.7523L1134 47.5623C1134 44.0741 1134.69 40.62 1136.02 37.3972C1137.36 34.1745 1139.31 31.2461 1141.78 28.7795C1144.24 26.3128 1147.17 24.3562 1150.4 23.0212C1153.62 21.6862 1157.07 20.9991 1160.56 20.9991L1195.31 20.9991C1191.2 20.9991 1187.13 21.8087 1183.34 23.3816C1179.54 24.9544 1176.09 27.2598 1173.18 30.1661C1170.28 33.0723 1167.97 36.5225 1166.4 40.3197C1164.83 44.1168 1164.02 48.1865 1164.02 52.2964L1164.02 74.9053L1112.89 74.9053C1108.78 74.9049 1104.71 75.714 1100.91 77.2863C1097.11 78.8586 1093.66 81.1634 1090.76 84.069C1087.85 86.9747 1085.55 90.4243 1083.97 94.2209C1082.4 98.0175 1081.59 102.087 1081.59 106.196L1081.59 121.298L1063.59 121.298C1059.48 121.296 1055.41 122.104 1051.62 123.676C1047.82 125.248 1044.37 127.553 1041.46 130.459C1038.55 133.365 1036.25 136.816 1034.67 140.613C1033.1 144.411 1032.29 148.481 1032.29 152.592L1032.29 187.999L1017 187.999Z" fill="#367B55"/>
<path d="M1281.7 71.6318C1281.5 71.6327 1281.31 71.5884 1281.13 71.5024C1280.96 71.4164 1280.81 71.291 1280.69 71.1361C1280.57 70.9812 1280.49 70.8009 1280.45 70.6094C1280.41 70.4179 1280.42 70.2204 1280.47 70.0324L1281.36 66.8091C1282.17 63.9023 1283.91 61.3383 1286.3 59.5052C1288.7 57.6721 1291.63 56.6697 1294.65 56.6499L1294.66 56.6499C1295.24 56.6463 1295.82 56.7783 1296.34 57.0356C1296.87 57.2928 1297.33 57.6682 1297.68 58.1321C1298.03 58.5961 1298.28 59.136 1298.39 59.7093C1298.5 60.2827 1298.47 60.8737 1298.31 61.4359C1297.51 64.326 1295.79 66.8771 1293.41 68.7069C1291.03 70.5368 1288.13 71.5469 1285.12 71.5859L1281.7 71.6318Z" fill="#367B55"/>
<path d="M1317.15 81.0083C1317.02 81.1507 1316.85 81.26 1316.67 81.3275C1316.49 81.3951 1316.29 81.4189 1316.1 81.3973C1315.9 81.3756 1315.72 81.309 1315.55 81.2027C1315.39 81.0964 1315.25 80.9534 1315.15 80.785L1313.46 77.9012C1311.93 75.2976 1311.29 72.2679 1311.64 69.2702C1311.99 66.2726 1313.31 63.47 1315.39 61.2862C1315.79 60.8641 1316.29 60.5414 1316.84 60.3437C1317.39 60.1459 1317.97 60.0784 1318.55 60.1467C1319.13 60.2149 1319.69 60.4169 1320.18 60.7367C1320.67 61.0565 1321.07 61.4855 1321.37 61.9896C1322.88 64.5775 1323.52 67.5861 1323.18 70.5655C1322.84 73.5449 1321.55 76.3351 1319.49 78.5189L1317.15 81.0083Z" fill="#367B55" stroke="#367B55" stroke-miterlimit="10" stroke-linecap="round"/>
<path d="M1388.1 110.691C1385.28 109.613 1382.89 107.647 1381.29 105.089C1379.69 102.531 1378.97 99.5215 1379.23 96.516C1379.28 95.9341 1379.47 95.3721 1379.77 94.8742C1380.08 94.3762 1380.5 93.956 1380.99 93.6465C1381.49 93.337 1382.05 93.1467 1382.63 93.0906C1383.21 93.0345 1383.8 93.1142 1384.34 93.3233C1386.96 94.3285 1389.22 96.1045 1390.81 98.4171C1392.4 100.73 1393.25 103.47 1393.26 106.278C1393.26 106.654 1393.24 107.027 1393.21 107.409L1392.94 110.825C1392.92 111.02 1392.86 111.209 1392.76 111.377C1392.66 111.544 1392.52 111.686 1392.35 111.79C1392.19 111.895 1392 111.959 1391.8 111.979C1391.61 111.998 1391.41 111.972 1391.23 111.902L1388.1 110.691Z" fill="#367B55" stroke="#367B55" stroke-miterlimit="10" stroke-linecap="round"/>
<path d="M1409.68 78.0003C1409.84 77.8918 1409.97 77.7469 1410.07 77.5771C1410.17 77.4072 1410.23 77.2171 1410.24 77.0216C1410.25 76.8262 1410.21 76.6308 1410.14 76.4509C1410.06 76.271 1409.94 76.1115 1409.79 75.985L1407.24 73.8198C1404.94 71.867 1402.07 70.7172 1399.05 70.5445C1396.04 70.3718 1393.05 71.1855 1390.54 72.8626C1390.06 73.1868 1389.65 73.6195 1389.36 74.1265C1389.08 74.6335 1388.91 75.2009 1388.87 75.784C1388.84 76.3671 1388.94 76.9499 1389.18 77.4863C1389.41 78.0227 1389.76 78.4981 1390.2 78.8749C1392.49 80.8144 1395.35 81.9602 1398.34 82.1404C1401.34 82.3207 1404.31 81.5259 1406.82 79.8749L1409.68 78.0003Z" fill="#367B55"/>
<path d="M1254.25 123.743C1254.44 123.786 1254.64 123.784 1254.83 123.738C1255.02 123.691 1255.19 123.601 1255.34 123.474C1255.49 123.347 1255.61 123.187 1255.68 123.007C1255.76 122.827 1255.79 122.632 1255.78 122.437L1255.56 119.098C1255.37 116.087 1254.19 113.222 1252.22 110.936C1250.25 108.65 1247.59 107.068 1244.64 106.428C1244.07 106.305 1243.48 106.316 1242.92 106.46C1242.35 106.605 1241.83 106.879 1241.39 107.26C1240.94 107.642 1240.6 108.121 1240.37 108.659C1240.15 109.198 1240.05 109.781 1240.09 110.364C1240.29 113.357 1241.45 116.207 1243.4 118.486C1245.35 120.764 1247.99 122.35 1250.92 123.006L1254.25 123.743Z" fill="#367B55" stroke="#367B55" stroke-miterlimit="10" stroke-linecap="round"/>
<path d="M1239.94 141.363C1241.06 138.561 1241.24 135.469 1240.45 132.556C1239.66 129.644 1237.94 127.069 1235.55 125.222C1235.09 124.865 1234.55 124.619 1233.97 124.505C1233.4 124.391 1232.81 124.412 1232.25 124.566C1231.68 124.719 1231.16 125.002 1230.73 125.39C1230.29 125.779 1229.95 126.264 1229.74 126.806C1228.62 129.592 1228.44 132.665 1229.22 135.563C1230 138.46 1231.7 141.027 1234.06 142.877L1236.76 144.996C1236.91 145.117 1237.09 145.2 1237.28 145.24C1237.47 145.279 1237.67 145.273 1237.86 145.222C1238.05 145.171 1238.23 145.077 1238.37 144.947C1238.52 144.817 1238.63 144.655 1238.71 144.473L1239.94 141.363Z" fill="#367B55" stroke="#367B55" stroke-miterlimit="10" stroke-linecap="round"/>
<path d="M1190.05 110.69C1192.87 109.612 1195.26 107.646 1196.86 105.088C1198.46 102.531 1199.19 99.5213 1198.92 96.5159C1198.87 95.9341 1198.69 95.3721 1198.38 94.8741C1198.08 94.3762 1197.66 93.9558 1197.17 93.6463C1196.67 93.3367 1196.11 93.1464 1195.53 93.0903C1194.95 93.0343 1194.36 93.114 1193.82 93.3231C1191.19 94.3283 1188.94 96.1043 1187.35 98.417C1185.76 100.73 1184.9 103.47 1184.9 106.277C1184.9 106.654 1184.92 107.027 1184.95 107.409L1185.22 110.825C1185.24 111.02 1185.3 111.209 1185.4 111.377C1185.5 111.544 1185.64 111.686 1185.8 111.79C1185.97 111.895 1186.16 111.959 1186.35 111.978C1186.55 111.998 1186.75 111.971 1186.93 111.901L1190.05 110.69Z" fill="#367B55" stroke="#367B55" stroke-miterlimit="10" stroke-linecap="round"/>
<path d="M612.199 149.998H558.494C556.992 150.02 555.501 149.741 554.107 149.179C552.713 148.616 551.444 147.781 550.375 146.721C549.305 145.661 548.455 144.398 547.876 143.005C547.296 141.612 546.997 140.117 546.997 138.607C546.997 137.097 547.296 135.602 547.876 134.209C548.455 132.816 549.305 131.552 550.375 130.493C551.444 129.433 552.713 128.597 554.107 128.034C555.501 127.472 556.992 127.193 558.494 127.215H612.199C620.945 127.215 628.335 121.709 628.335 115.183V98.2261C628.378 95.2336 629.591 92.3784 631.711 90.2776C633.832 88.1768 636.689 86.9991 639.666 86.9991C642.643 86.9991 645.5 88.1768 647.621 90.2776C649.741 92.3784 650.954 95.2336 650.997 98.2261V115.183C650.997 124.698 646.604 133.901 638.949 140.427C631.715 146.597 622.217 149.998 612.199 149.998Z" fill="#173A52"/>
<path d="M713.212 39.3979H616.198C605.52 39.3979 596.864 48.0539 596.864 58.7314V82.8139C596.864 93.4914 605.52 102.147 616.198 102.147H713.212C723.89 102.147 732.546 93.4914 732.546 82.8139V58.7314C732.546 48.0539 723.89 39.3979 713.212 39.3979Z" fill="#275C40"/>
<path d="M732.553 58.7243V82.8067C732.56 87.3869 730.933 91.8193 727.965 95.3077V65.5567C727.965 60.4292 725.928 55.5116 722.302 51.8859C718.676 48.2602 713.759 46.2232 708.631 46.2232H601.462C603.275 44.0817 605.534 42.3616 608.08 41.1827C610.626 40.0039 613.399 39.3948 616.205 39.398H713.22C718.346 39.3986 723.262 41.4347 726.887 45.0588C730.513 48.6828 732.551 53.5981 732.553 58.7243Z" fill="#367B55"/>
<path d="M708.239 82.0347C708.366 82.1197 708.472 82.2331 708.549 82.3661C708.625 82.4992 708.669 82.6481 708.678 82.8011C708.687 82.9542 708.66 83.1072 708.6 83.2481C708.539 83.389 708.447 83.5139 708.33 83.6129L706.335 85.3085C704.533 86.8373 702.283 87.7375 699.924 87.8728C697.565 88.008 695.226 87.371 693.261 86.0581C692.881 85.8042 692.565 85.4653 692.338 85.0683C692.111 84.6713 691.979 84.2269 691.953 83.7703C691.928 83.3137 692.008 82.8573 692.189 82.4372C692.37 82.0172 692.646 81.6449 692.996 81.3498C694.788 79.831 697.024 78.9338 699.37 78.7926C701.715 78.6514 704.043 79.2739 706.004 80.5667L708.239 82.0347Z" fill="#367B55"/>
<path d="M697.429 59.8021C697.578 59.7683 697.733 59.7696 697.881 59.8061C698.029 59.8426 698.167 59.9131 698.283 60.0122C698.4 60.1112 698.491 60.236 698.551 60.3767C698.61 60.5173 698.636 60.6699 698.627 60.8223L698.456 63.4375C698.303 65.7956 697.385 68.0396 695.843 69.8298C694.3 71.62 692.217 72.859 689.907 73.3593C689.46 73.4552 688.997 73.4461 688.554 73.3326C688.112 73.2192 687.701 73.0045 687.356 72.7055C687.01 72.4065 686.738 72.0313 686.562 71.6095C686.386 71.1877 686.311 70.7308 686.341 70.2747C686.496 67.9303 687.405 65.6989 688.934 63.9146C690.463 62.1304 692.528 60.8892 694.821 60.3769L697.429 59.8021Z" fill="#367B55" stroke="#367B55" stroke-miterlimit="10" stroke-linecap="round"/>
<path d="M624.148 62.52C626.354 63.3641 628.226 64.9042 629.479 66.9071C630.732 68.9099 631.299 71.2665 631.093 73.6201C631.054 74.0765 630.91 74.5177 630.672 74.9088C630.434 75.3 630.108 75.6305 629.72 75.8741C629.332 76.1177 628.893 76.2679 628.437 76.3127C627.981 76.3575 627.521 76.2957 627.093 76.1323C625.041 75.345 623.275 73.9541 622.03 72.1431C620.784 70.3321 620.116 68.1859 620.115 65.9877C620.115 65.6956 620.129 65.401 620.151 65.1017L620.364 62.4266C620.376 62.2739 620.424 62.1263 620.504 61.9954C620.583 61.8644 620.692 61.7537 620.822 61.6719C620.951 61.5902 621.098 61.5397 621.251 61.5244C621.403 61.509 621.557 61.5293 621.7 61.5836L624.148 62.52Z" fill="#367B55" stroke="#367B55" stroke-miterlimit="10" stroke-linecap="round"/>
<path d="M610.564 29.0559C610.564 29.0559 610.402 37.2061 615.208 41.1357C620.014 45.0653 627.97 43.2861 627.97 43.2861C627.97 43.2861 628.208 35.0439 623.401 31.1143C618.595 27.1848 610.564 29.0559 610.564 29.0559Z" fill="#367B55"/>
<path d="M638.928 31.1813C638.928 31.1813 633.628 30.2004 630.548 32.9145C627.469 35.6286 627.775 41.01 627.775 41.01C627.775 41.01 633.127 42.0498 636.207 39.3357C639.287 36.6216 638.928 31.1813 638.928 31.1813Z" fill="#367B55"/>
<path d="M732.553 58.7243V82.8067C732.56 87.3869 730.933 91.8193 727.965 95.3077V65.5567C727.965 60.4292 725.928 55.5116 722.302 51.8859C718.676 48.2602 713.759 46.2232 708.631 46.2232H601.462C603.275 44.0817 605.534 42.3616 608.08 41.1827C610.626 40.0039 613.399 39.3948 616.205 39.398H713.22C718.346 39.3986 723.262 41.4347 726.887 45.0588C730.513 48.6828 732.551 53.5981 732.553 58.7243Z" fill="#367B55"/>
<path d="M708.239 82.0347C708.366 82.1197 708.472 82.2331 708.549 82.3661C708.625 82.4992 708.669 82.6481 708.678 82.8011C708.687 82.9542 708.66 83.1072 708.6 83.2481C708.539 83.389 708.447 83.5139 708.33 83.6129L706.335 85.3085C704.533 86.8373 702.283 87.7375 699.924 87.8728C697.565 88.008 695.226 87.371 693.261 86.0581C692.881 85.8042 692.565 85.4653 692.338 85.0683C692.111 84.6713 691.979 84.2269 691.953 83.7703C691.928 83.3137 692.008 82.8573 692.189 82.4372C692.37 82.0172 692.646 81.6449 692.996 81.3498C694.788 79.831 697.024 78.9338 699.37 78.7926C701.715 78.6514 704.043 79.2739 706.004 80.5667L708.239 82.0347Z" fill="#367B55"/>
<path d="M697.429 59.8021C697.578 59.7683 697.733 59.7696 697.881 59.8061C698.029 59.8426 698.167 59.9131 698.283 60.0122C698.4 60.1112 698.491 60.236 698.551 60.3767C698.61 60.5173 698.636 60.6699 698.627 60.8223L698.456 63.4375C698.303 65.7956 697.385 68.0396 695.843 69.8298C694.3 71.62 692.217 72.859 689.907 73.3593C689.46 73.4552 688.997 73.4461 688.554 73.3326C688.112 73.2192 687.701 73.0045 687.356 72.7055C687.01 72.4065 686.738 72.0313 686.562 71.6095C686.386 71.1877 686.311 70.7308 686.341 70.2747C686.496 67.9303 687.405 65.6989 688.934 63.9146C690.463 62.1304 692.528 60.8892 694.821 60.3769L697.429 59.8021Z" fill="#367B55" stroke="#367B55" stroke-miterlimit="10" stroke-linecap="round"/>
<path d="M624.148 62.52C626.354 63.3641 628.226 64.9042 629.479 66.9071C630.732 68.9099 631.299 71.2665 631.093 73.6201C631.054 74.0765 630.91 74.5177 630.672 74.9088C630.434 75.3 630.108 75.6305 629.72 75.8741C629.332 76.1177 628.893 76.2679 628.437 76.3127C627.981 76.3575 627.521 76.2957 627.093 76.1323C625.041 75.345 623.275 73.9541 622.03 72.1431C620.784 70.3321 620.116 68.1859 620.115 65.9877C620.115 65.6956 620.129 65.401 620.151 65.1017L620.364 62.4266C620.376 62.2739 620.424 62.1263 620.504 61.9954C620.583 61.8644 620.692 61.7537 620.822 61.6719C620.951 61.5902 621.098 61.5397 621.251 61.5244C621.403 61.509 621.557 61.5293 621.7 61.5836L624.148 62.52Z" fill="#367B55" stroke="#367B55" stroke-miterlimit="10" stroke-linecap="round"/>
<path d="M610.564 29.0559C610.564 29.0559 610.402 37.2061 615.208 41.1357C620.014 45.0653 627.97 43.2861 627.97 43.2861C627.97 43.2861 628.208 35.0439 623.401 31.1143C618.595 27.1848 610.564 29.0559 610.564 29.0559Z" fill="#367B55"/>
<path d="M638.928 31.1813C638.928 31.1813 633.628 30.2004 630.548 32.9145C627.469 35.6286 627.775 41.01 627.775 41.01C627.775 41.01 633.127 42.0498 636.207 39.3357C639.287 36.6216 638.928 31.1813 638.928 31.1813Z" fill="#367B55"/>
<path d="M366.342 124.398H269.327C258.65 124.398 249.994 133.054 249.994 143.731V167.814C249.994 178.491 258.65 187.147 269.327 187.147H366.342C377.019 187.147 385.675 178.491 385.675 167.814V143.731C385.675 133.054 377.019 124.398 366.342 124.398Z" fill="#275C40"/>
<path d="M385.683 143.724V167.807C385.689 172.387 384.062 176.819 381.094 180.308V150.557C381.094 145.429 379.057 140.512 375.431 136.886C371.806 133.26 366.888 131.223 361.761 131.223H254.592C256.405 129.082 258.663 127.362 261.209 126.183C263.756 125.004 266.528 124.395 269.334 124.398H366.349C371.475 124.399 376.391 126.435 380.017 130.059C383.642 133.683 385.68 138.598 385.683 143.724Z" fill="#367B55"/>
<path d="M263.694 114.056C263.694 114.056 263.531 122.206 268.337 126.136C273.144 130.065 281.099 128.286 281.099 128.286C281.099 128.286 281.337 120.044 276.531 116.114C271.724 112.185 263.694 114.056 263.694 114.056Z" fill="#367B55"/>
<path d="M292.057 116.181C292.057 116.181 286.757 115.2 283.678 117.914C280.598 120.629 280.905 126.01 280.905 126.01C280.905 126.01 286.257 127.05 289.337 124.336C292.416 121.622 292.057 116.181 292.057 116.181Z" fill="#367B55"/>
<path d="M949.997 -37.0009H833.997V418.999H949.997V-37.0009Z" fill="#173A52"/>
<path d="M973.033 114.998H930.172C928.974 115.016 927.784 114.791 926.671 114.335C925.559 113.88 924.546 113.203 923.693 112.345C922.839 111.487 922.161 110.465 921.698 109.337C921.235 108.209 920.997 106.999 920.997 105.777C920.997 104.554 921.235 103.344 921.698 102.216C922.161 101.089 922.839 100.066 923.693 99.2081C924.546 98.35 925.559 97.6736 926.671 97.2181C927.784 96.7627 928.974 96.5373 930.172 96.555H973.033C980.014 96.555 985.911 92.0977 985.911 86.8143V73.0876C985.946 70.6651 986.914 68.3538 988.606 66.6531C990.298 64.9525 992.578 63.9991 994.954 63.9991C997.33 63.9991 999.61 64.9525 1001.3 66.6531C1002.99 68.3538 1003.96 70.6651 1004 73.0876V86.8143C1004 94.5173 1000.49 101.967 994.382 107.25C988.609 112.245 981.028 114.998 973.033 114.998Z" fill="#173A52"/>
<path d="M1054.45 25.707H976.454C967.87 25.707 960.911 32.6658 960.911 41.25V60.6108C960.911 69.1949 967.87 76.1537 976.454 76.1537H1054.45C1063.03 76.1537 1069.99 69.1949 1069.99 60.6108V41.25C1069.99 32.6658 1063.03 25.707 1054.45 25.707Z" fill="#275C40"/>
<path d="M1070 41.2442V60.605C1070 64.2872 1068.7 67.8506 1066.31 70.6551V46.7371C1066.31 42.6148 1064.67 38.6614 1061.76 35.7466C1058.84 32.8317 1054.89 31.1942 1050.77 31.1942H964.61C966.068 29.4725 967.884 28.0896 969.931 27.1419C971.978 26.1942 974.207 25.7045 976.462 25.707H1054.46C1058.58 25.7076 1062.53 27.3445 1065.44 30.258C1068.36 33.1715 1070 37.1231 1070 41.2442Z" fill="#367B55"/>
<path d="M1050.45 59.9845C1050.55 60.0527 1050.64 60.144 1050.7 60.2509C1050.76 60.3578 1050.8 60.4775 1050.8 60.6006C1050.81 60.7236 1050.79 60.8466 1050.74 60.9599C1050.69 61.0732 1050.62 61.1736 1050.52 61.2532L1048.92 62.6163C1047.47 63.8454 1045.66 64.5692 1043.77 64.6779C1041.87 64.7866 1039.99 64.2745 1038.41 63.219C1038.1 63.0149 1037.85 62.7425 1037.67 62.4233C1037.48 62.1041 1037.38 61.7468 1037.36 61.3797C1037.34 61.0126 1037.4 60.6458 1037.55 60.3081C1037.69 59.9703 1037.92 59.671 1038.2 59.4338C1039.64 58.2128 1041.43 57.4915 1043.32 57.378C1045.21 57.2645 1047.08 57.7649 1048.65 58.8042L1050.45 59.9845Z" fill="#367B55"/>
<path d="M1041.76 42.1117C1041.88 42.0845 1042 42.0856 1042.12 42.1149C1042.24 42.1442 1042.35 42.2009 1042.44 42.2805C1042.54 42.3602 1042.61 42.4605 1042.66 42.5736C1042.71 42.6866 1042.73 42.8093 1042.72 42.9318L1042.58 45.0343C1042.46 46.9301 1041.72 48.7341 1040.48 50.1733C1039.24 51.6125 1037.57 52.6086 1035.71 53.0108C1035.35 53.0879 1034.98 53.0806 1034.62 52.9894C1034.27 52.8981 1033.94 52.7256 1033.66 52.4852C1033.38 52.2448 1033.16 51.9431 1033.02 51.604C1032.88 51.2649 1032.82 50.8976 1032.84 50.531C1032.97 48.6462 1033.7 46.8523 1034.93 45.4179C1036.16 43.9834 1037.82 42.9856 1039.66 42.5737L1041.76 42.1117Z" fill="#367B55" stroke="#367B55" stroke-miterlimit="10" stroke-linecap="round"/>
<path d="M982.845 44.2955C984.619 44.9741 986.123 46.2123 987.131 47.8224C988.138 49.4326 988.594 51.3271 988.428 53.2193C988.397 53.5862 988.281 53.9409 988.09 54.2554C987.898 54.5699 987.636 54.8355 987.324 55.0314C987.013 55.2273 986.66 55.348 986.293 55.384C985.927 55.42 985.557 55.3703 985.213 55.2389C983.563 54.606 982.144 53.4878 981.142 52.0319C980.14 50.5759 979.604 48.8505 979.603 47.0833C979.603 46.8485 979.614 46.6117 979.631 46.371L979.803 44.2204C979.813 44.0977 979.852 43.979 979.915 43.8737C979.979 43.7684 980.067 43.6794 980.171 43.6137C980.275 43.548 980.393 43.5074 980.516 43.4951C980.638 43.4828 980.762 43.4991 980.877 43.5427L982.845 44.2955Z" fill="#367B55" stroke="#367B55" stroke-miterlimit="10" stroke-linecap="round"/>
<path d="M971.929 17.3925C971.929 17.3925 971.798 23.9449 975.662 27.104C979.526 30.2631 985.922 28.8328 985.922 28.8328C985.922 28.8328 986.113 22.2066 982.249 19.0474C978.385 15.8883 971.929 17.3925 971.929 17.3925Z" fill="#367B55"/>
<path d="M994.729 19.1005C994.729 19.1005 990.468 18.3119 987.992 20.4939C985.516 22.6759 985.763 27.0021 985.763 27.0021C985.763 27.0021 990.066 27.8381 992.542 25.6561C995.017 23.4742 994.729 19.1005 994.729 19.1005Z" fill="#367B55"/>
<path d="M834.877 91.0363C834.877 91.0363 830.766 97.283 833.946 100.372C837.125 103.46 840.224 96.5202 840.224 96.5202L842.478 92.618L838.608 85.6964C838.608 85.6964 835.874 89.1985 834.877 91.0363Z" fill="#EEEEEE"/>
<path d="M882.297 113.244H877.354C876.87 113.244 876.405 113.051 876.062 112.708C875.72 112.366 875.527 111.901 875.527 111.417V107.653H884.137V111.417C884.137 111.658 884.09 111.896 883.997 112.119C883.904 112.341 883.768 112.543 883.597 112.713C883.426 112.883 883.223 113.017 883 113.108C882.777 113.199 882.538 113.245 882.297 113.244Z" fill="white"/>
<path d="M847.021 113.244H842.195C841.961 113.244 841.729 113.197 841.513 113.108C841.296 113.018 841.099 112.887 840.934 112.721C840.768 112.555 840.637 112.359 840.547 112.142C840.457 111.926 840.411 111.694 840.411 111.459V107.65H848.802V111.459C848.802 111.932 848.615 112.386 848.281 112.72C847.946 113.055 847.493 113.243 847.021 113.244Z" fill="#EEEEEE"/>
<path d="M873.052 60.2772C866.35 58.3521 859.243 58.3428 852.536 60.2506L852.477 60.2666C849.536 61.1 846.868 62.6949 844.741 64.89C842.615 67.0851 841.105 69.8026 840.365 72.768C838.957 78.4333 837.543 96.6587 837.543 102.063C837.543 102.063 836.841 113.246 862.74 113.246C888.64 113.246 887.863 102.063 887.863 102.063C887.863 102.063 887.863 94.2662 887.663 90.8814C887.397 86.2057 886.719 79.2815 885.137 72.8267C884.404 69.8587 882.9 67.1367 880.778 64.9357C878.656 62.7346 875.991 61.1323 873.052 60.2906V60.2772Z" fill="#F1F1F1"/>
<path d="M873.052 60.2772C866.35 58.3521 859.243 58.3428 852.536 60.2506L852.477 60.2666C849.536 61.1 846.868 62.6949 844.741 64.89C842.615 67.0851 841.105 69.8026 840.365 72.768C838.957 78.4333 837.543 96.6587 837.543 102.063C837.543 102.063 836.841 113.246 862.74 113.246C888.64 113.246 887.863 102.063 887.863 102.063C887.863 102.063 887.863 94.2662 887.663 90.8814C887.397 86.2057 886.719 79.2815 885.137 72.8267C884.404 69.8587 882.9 67.1367 880.778 64.9357C878.656 62.7346 875.991 61.1323 873.052 60.2906V60.2772Z" fill="white"/>
<path d="M871.823 86.5414H875.912C877.106 86.5414 878.075 85.5729 878.075 84.3782V83.1033C878.075 81.9086 877.106 80.9401 875.912 80.9401H871.823C870.628 80.9401 869.66 81.9086 869.66 83.1033V84.3782C869.66 85.5729 870.628 86.5414 871.823 86.5414Z" fill="#F7D3D2"/>
<path d="M842.159 86.5414H846.247C847.442 86.5414 848.411 85.5729 848.411 84.3782V83.1033C848.411 81.9086 847.442 80.9401 846.247 80.9401H842.159C840.964 80.9401 839.995 81.9086 839.995 83.1033V84.3782C839.995 85.5729 840.964 86.5414 842.159 86.5414Z" fill="#F7D3D2"/>
<path d="M847.78 79.6877C849.32 79.6877 850.568 78.4398 850.568 76.9005C850.568 75.3611 849.32 74.1132 847.78 74.1132C846.241 74.1132 844.993 75.3611 844.993 76.9005C844.993 78.4398 846.241 79.6877 847.78 79.6877Z" fill="black"/>
<path d="M870.148 79.6877C871.687 79.6877 872.935 78.4398 872.935 76.9005C872.935 75.3611 871.687 74.1132 870.148 74.1132C868.608 74.1132 867.36 75.3611 867.36 76.9005C867.36 78.4398 868.608 79.6877 870.148 79.6877Z" fill="black"/>
<path d="M868.254 61.1143C867.814 61.0058 867.434 60.7304 867.195 60.3464C866.955 59.9624 866.875 59.5001 866.971 59.0578C867.731 55.5904 869.905 47.9674 874.292 48.5942C879.456 49.333 876.799 57.8656 875.498 61.3277C875.34 61.7218 875.046 62.0468 874.671 62.2447C874.295 62.4426 873.861 62.5005 873.447 62.4079L868.254 61.1143Z" fill="#F7D3D2"/>
<path d="M873.838 64.0256C874.512 64.0249 875.171 63.821 875.728 63.4404C876.286 63.0597 876.715 62.5201 876.961 61.8918C878.471 57.8909 879.895 52.4524 878.028 49.3317C877.657 48.7054 877.147 48.1736 876.536 47.7783C875.925 47.383 875.23 47.135 874.507 47.0538C870.437 46.467 867.215 50.6173 865.438 58.7338C865.251 59.5754 865.4 60.457 865.856 61.1893C866.311 61.9215 867.036 62.4458 867.874 62.6493L873.067 63.9403C873.319 64.0001 873.578 64.0287 873.838 64.0256ZM873.814 50.1292C873.898 50.1302 873.983 50.1365 874.067 50.1479C874.851 50.2599 875.158 50.6173 875.334 50.9187C876.241 52.4497 875.739 56.2266 874.024 60.7876C874.002 60.821 873.972 60.8485 873.937 60.8675C873.901 60.8866 873.862 60.8967 873.822 60.8969L868.629 59.606C868.585 59.5958 868.548 59.5693 868.523 59.5321C868.499 59.4948 868.49 59.4497 868.498 59.4059C869.453 55.0556 871.402 50.1292 873.814 50.1292Z" fill="white"/>
<path d="M856.407 61.4858C856.847 61.3773 857.226 61.1017 857.465 60.7176C857.705 60.3336 857.784 59.8713 857.688 59.4293C856.928 55.9618 854.754 48.3388 850.366 48.9656C845.205 49.7045 847.859 58.237 849.163 61.6991C849.315 62.0971 849.608 62.4254 849.986 62.622C850.364 62.8186 850.801 62.8698 851.214 62.766L856.407 61.4858Z" fill="#F7D3D2"/>
<path d="M850.796 64.3975C851.066 64.3983 851.335 64.3661 851.596 64.3015L856.789 63.0079C857.628 62.8049 858.353 62.2808 858.808 61.5484C859.264 60.816 859.413 59.9339 859.225 59.0923C857.44 50.9785 854.221 46.8229 850.156 47.4124C849.433 47.4936 848.738 47.7416 848.126 48.1368C847.515 48.5321 847.004 49.0638 846.633 49.6902C844.787 52.8109 846.198 58.2441 847.699 62.2504C847.936 62.8805 848.36 63.4235 848.913 63.8071C849.466 64.1907 850.123 64.3967 850.796 64.3975ZM850.847 50.4984C853.247 50.4984 855.205 55.4249 856.16 59.7645C856.168 59.8079 856.159 59.8527 856.136 59.8899C856.112 59.927 856.075 59.9537 856.032 59.9645L850.839 61.2555C850.797 61.2666 850.753 61.2615 850.715 61.2412C850.676 61.2209 850.647 61.1869 850.633 61.1461C848.921 56.5958 848.42 52.8189 849.324 51.2773C849.503 50.9785 849.807 50.6184 850.593 50.5064C850.678 50.4984 850.762 50.4957 850.847 50.4984Z" fill="white"/>
<path d="M849.231 110.801H868.704C871.044 110.801 872.94 108.905 872.94 106.566V95.1123C872.94 92.773 871.044 90.8767 868.704 90.8767H849.231C846.891 90.8767 844.995 92.773 844.995 95.1123V106.566C844.995 108.905 846.891 110.801 849.231 110.801Z" fill="#F3F3F3"/>
<path d="M891.135 92.3696C891.135 92.3696 895.235 98.6269 892.047 101.705C888.86 104.783 885.777 97.8561 885.777 97.8561L883.531 93.9512L887.414 87.0377C887.414 87.0377 890.143 90.5318 891.135 92.3696Z" fill="white"/>
<path d="M856.201 108.28C856.283 108.28 856.365 108.264 856.441 108.233C856.517 108.201 856.586 108.155 856.644 108.096L859.439 105.301C859.557 105.183 859.623 105.024 859.623 104.857C859.623 104.69 859.557 104.531 859.439 104.413C859.321 104.295 859.161 104.229 858.995 104.229C858.828 104.229 858.669 104.295 858.551 104.413L855.755 107.208C855.67 107.297 855.612 107.408 855.59 107.529C855.567 107.65 855.58 107.775 855.627 107.888C855.675 108.002 855.754 108.099 855.856 108.167C855.958 108.236 856.078 108.274 856.201 108.275V108.28Z" fill="#F7D3D2"/>
<path d="M858.993 108.282C859.115 108.28 859.235 108.242 859.336 108.173C859.438 108.104 859.517 108.007 859.564 107.894C859.611 107.78 859.624 107.656 859.601 107.535C859.578 107.414 859.521 107.303 859.435 107.215L856.64 104.42C856.522 104.302 856.362 104.236 856.196 104.236C856.029 104.236 855.87 104.302 855.752 104.42C855.634 104.537 855.568 104.697 855.568 104.864C855.568 105.03 855.634 105.19 855.752 105.308L858.547 108.103C858.606 108.161 858.676 108.206 858.752 108.237C858.828 108.267 858.91 108.283 858.993 108.282Z" fill="#F7D3D2"/>
<path d="M857.875 80.5192L861.06 78.8976C861.133 78.8601 861.199 78.8085 861.252 78.7458C861.305 78.6831 861.346 78.6105 861.371 78.5321C861.397 78.4537 861.406 78.3711 861.4 78.2889C861.393 78.2068 861.371 78.1268 861.333 78.0534C861.296 77.98 861.244 77.9147 861.181 77.8613C861.119 77.8078 861.046 77.7672 860.968 77.7418C860.889 77.7165 860.807 77.7067 860.725 77.7133C860.642 77.7198 860.562 77.7425 860.489 77.78L857.867 79.1136L855.005 77.692C854.931 77.6552 854.851 77.6333 854.769 77.6275C854.687 77.6218 854.604 77.6322 854.526 77.6584C854.448 77.6845 854.376 77.7258 854.314 77.7798C854.251 77.8339 854.2 77.8996 854.164 77.9734C854.127 78.0471 854.105 78.1273 854.099 78.2095C854.093 78.2917 854.104 78.3742 854.13 78.4524C854.156 78.5305 854.197 78.6028 854.252 78.665C854.306 78.7272 854.371 78.7781 854.445 78.8149L857.875 80.5192Z" fill="#F7D3D2"/>
<path d="M859.733 84.1763C860.377 84.1958 861.006 83.9785 861.501 83.5655C861.564 83.5117 861.615 83.4462 861.652 83.3726C861.69 83.299 861.712 83.2188 861.718 83.1365C861.724 83.0543 861.714 82.9716 861.688 82.8933C861.663 82.815 861.622 82.7425 861.568 82.6799C861.514 82.6174 861.449 82.5661 861.375 82.5289C861.301 82.4917 861.221 82.4694 861.139 82.4632C861.057 82.457 860.974 82.4671 860.896 82.4928C860.817 82.5186 860.745 82.5595 860.682 82.6133C860.415 82.8305 860.077 82.9408 859.733 82.9227C858.599 82.9227 858.495 82.0238 858.49 81.7491V79.818C858.49 79.6517 858.424 79.4923 858.306 79.3747C858.189 79.2572 858.029 79.1912 857.863 79.1912C857.697 79.1912 857.537 79.2572 857.42 79.3747C857.302 79.4923 857.236 79.6517 857.236 79.818V81.7517C857.248 82.166 857.352 82.5724 857.54 82.9414C857.954 83.7389 858.733 84.1763 859.733 84.1763Z" fill="#F7D3D2"/>
<path d="M855.864 84.1795C857.763 84.1795 858.478 82.7365 858.494 81.7789C858.497 81.6124 858.433 81.4516 858.318 81.3316C858.202 81.2116 858.044 81.1423 857.878 81.1388C857.713 81.1387 857.555 81.2021 857.436 81.316C857.317 81.4298 857.247 81.5852 857.24 81.7496C857.24 82.0163 857.099 82.9365 855.864 82.9365C855.519 82.9595 855.179 82.853 854.909 82.6378C854.848 82.5826 854.776 82.5401 854.699 82.5125C854.621 82.4849 854.539 82.4729 854.457 82.4771C854.375 82.4813 854.294 82.5017 854.22 82.537C854.145 82.5724 854.079 82.622 854.023 82.6832C853.968 82.7443 853.926 82.8157 853.898 82.8932C853.87 82.9708 853.858 83.0531 853.863 83.1353C853.867 83.2176 853.887 83.2981 853.923 83.3725C853.958 83.4469 854.008 83.5135 854.069 83.5687C854.568 83.9928 855.21 84.2112 855.864 84.1795Z" fill="#F7D3D2"/>
<path fill-rule="evenodd" clip-rule="evenodd" d="M876.953 61.8918C876.946 61.9075 876.94 61.9232 876.934 61.9388C878.341 62.7493 879.633 63.7566 880.77 64.9357C882.892 67.1368 884.396 69.8587 885.129 72.8267C886.324 77.7028 887.003 82.8467 887.378 87.0869L887.406 87.0377C887.406 87.0377 890.135 90.5318 891.127 92.3696C891.127 92.3696 895.227 98.627 892.039 101.705C890.51 103.181 889.005 102.356 887.853 101.097C887.855 101.7 887.855 102.063 887.855 102.063C887.855 102.063 888.085 105.37 884.129 108.388V111.417C884.129 111.658 884.081 111.896 883.988 112.119C883.896 112.341 883.76 112.543 883.589 112.713C883.418 112.883 883.215 113.017 882.992 113.108C882.768 113.199 882.529 113.245 882.288 113.244H877.346C876.861 113.244 876.397 113.051 876.054 112.708C875.856 112.51 875.707 112.271 875.618 112.01C872.301 112.768 868.087 113.246 862.732 113.246C856.786 113.246 852.243 112.657 848.77 111.749C848.71 112.114 848.538 112.455 848.272 112.72C847.938 113.055 847.485 113.243 847.012 113.244H842.187C841.953 113.244 841.721 113.197 841.504 113.108C841.288 113.018 841.091 112.887 840.926 112.721C840.76 112.555 840.628 112.359 840.539 112.142C840.449 111.926 840.403 111.694 840.403 111.459V107.65H840.417C837.359 104.856 837.535 102.063 837.535 102.063C837.535 101.576 837.546 100.986 837.568 100.31C836.506 101.227 835.228 101.626 833.937 100.372C830.758 97.283 834.868 91.0363 834.868 91.0363C835.82 89.2831 838.352 86.015 838.583 85.7181C839.089 80.4004 839.723 75.315 840.357 72.7681C841.097 69.8026 842.606 67.0851 844.733 64.89C845.647 63.9465 846.661 63.114 847.754 62.4051C847.732 62.3541 847.711 62.3025 847.691 62.2504C846.19 58.2441 844.779 52.8109 846.624 49.6902C846.995 49.0638 847.507 48.5321 848.118 48.1368C848.73 47.7415 849.424 47.4936 850.148 47.4124C854.197 46.8253 857.406 50.9453 859.195 58.9952C861.256 58.7986 863.33 58.7739 865.394 58.9211C865.404 58.8585 865.416 58.796 865.43 58.7338C867.206 50.6173 870.428 46.467 874.499 47.0538C875.222 47.135 875.916 47.383 876.527 47.7783C877.138 48.1736 877.649 48.7054 878.019 49.3317C879.887 52.4524 878.462 57.8909 876.953 61.8918Z" fill="url(#paint2_linear_1564_4759)"/>
<path d="M795.992 69.8148L835.083 59.5618L874.174 49.3088L909.782 89.8512L840.146 102.555L795.992 69.8148Z" fill="url(#paint3_linear_1564_4759)"/>
<path d="M796.972 103.242H840.23C840.726 103.242 841.129 102.839 841.129 102.343V70.4984C841.129 70.002 840.726 69.5995 840.23 69.5995H796.972C796.476 69.5995 796.074 70.002 796.074 70.4984V102.343C796.074 102.839 796.476 103.242 796.972 103.242Z" fill="#136E90"/>
<path d="M797.399 106.494H848.149C848.645 106.494 849.048 106.092 849.048 105.596V104.137C849.048 103.64 848.645 103.238 848.149 103.238H797.399C796.903 103.238 796.5 103.64 796.5 104.137V105.596C796.5 106.092 796.903 106.494 797.399 106.494Z" fill="#015271"/>
<g filter="url(#filter1_d_1564_4759)">
<path d="M814.897 87.1711V85.6408L811.68 88.8469L812.436 89.6231L814.897 87.1711ZM822.221 86.2251C822.038 85.4133 821.612 84.6543 820.983 84.0201L818.776 81.7732L817.512 83.0367L817.424 83.1271V84.6574L818.771 83.3145L820.026 84.5934L820.217 84.7875V84.8007C820.289 84.871 820.356 84.9446 820.418 85.0212C820.779 85.4428 821.028 85.9248 821.148 86.4346C821.326 87.3365 821.41 88.3883 820.411 89.6694V91.2526C820.473 91.201 820.531 91.1465 820.586 91.0894C821.416 90.3259 821.988 89.3884 822.241 88.375C822.391 87.6634 822.384 86.9346 822.221 86.2251ZM815.525 90.9417L815.491 90.924H815.475C815.375 90.8723 815.281 90.8125 815.195 90.7454C815.114 90.6859 815.012 90.6087 814.892 90.5095C814.711 90.3574 814.484 90.1545 814.206 89.8833L813.589 89.246L812.82 90.009L813.437 90.6396C814.392 91.5745 814.884 91.8413 815.064 91.9141C815.624 92.1927 816.249 92.3665 816.895 92.4235C817.187 92.4499 817.482 92.4484 817.774 92.4191H817.845V91.3165C817.043 91.4408 816.215 91.307 815.525 90.9417Z" fill="white"/>
<path d="M816.879 83.6673L816.871 90.203L815.435 90.2008L815.44 85.1005L815.586 84.9572L815.662 84.88L816.096 84.4457L816.392 84.1524L816.489 84.0576L816.879 83.6673Z" fill="white"/>
<path d="M819.883 85.1426V91.665L819.865 91.676C819.797 91.7179 819.729 91.762 819.653 91.8039L819.58 91.8458L819.37 91.9561L819.161 92.0531L819.043 92.1038L818.881 92.1655L818.748 92.2119C818.659 92.2427 818.567 92.2692 818.471 92.2956L818.4 92.3133V85.1404L819.883 85.1426Z" fill="white"/>
<path d="M816.891 86.8658L816.889 88.3454L818.414 88.347L818.416 86.8674L816.891 86.8658Z" fill="white"/>
</g>
<path d="M900.463 105.938H776.409C764.517 105.938 754.876 115.578 754.876 127.47V154.292C754.876 166.185 764.517 175.825 776.409 175.825H900.463C912.355 175.825 921.996 166.185 921.996 154.292V127.47C921.996 115.578 912.355 105.938 900.463 105.938Z" fill="#275C40"/>
<path d="M922.001 127.462V154.284C922.008 159.386 920.196 164.322 916.891 168.208V135.072C916.891 129.361 914.622 123.884 910.584 119.846C906.546 115.808 901.069 113.539 895.358 113.539H759.994C762.013 111.154 764.529 109.238 767.365 107.925C770.201 106.613 773.289 105.934 776.414 105.938H900.468C906.177 105.938 911.653 108.206 915.691 112.242C919.728 116.279 921.998 121.753 922.001 127.462Z" fill="#367B55"/>
<path d="M786.133 94.4193C786.133 94.4193 785.951 103.497 791.305 107.873C796.658 112.25 805.518 110.268 805.518 110.268C805.518 110.268 805.783 101.089 800.43 96.7119C795.077 92.3353 786.133 94.4193 786.133 94.4193Z" fill="#367B55"/>
<path d="M817.722 96.7876C817.722 96.7876 811.819 95.695 808.389 98.7179C804.959 101.741 805.301 107.734 805.301 107.734C805.301 107.734 811.262 108.892 814.692 105.87C818.122 102.847 817.722 96.7876 817.722 96.7876Z" fill="#367B55"/>
<path d="M882.89 128.664C883.056 128.626 883.229 128.628 883.394 128.668C883.559 128.709 883.712 128.788 883.842 128.898C883.971 129.008 884.073 129.147 884.14 129.304C884.206 129.461 884.235 129.631 884.224 129.8L884.035 132.713C883.864 135.339 882.842 137.839 881.124 139.832C879.406 141.826 877.085 143.206 874.513 143.763C874.015 143.87 873.499 143.86 873.006 143.734C872.513 143.607 872.056 143.368 871.671 143.035C871.286 142.702 870.983 142.284 870.787 141.815C870.591 141.345 870.507 140.836 870.541 140.328C870.713 137.717 871.726 135.232 873.429 133.244C875.132 131.257 877.432 129.875 879.986 129.304L882.89 128.664Z" fill="#367B55" stroke="#367B55" stroke-miterlimit="10" stroke-linecap="round"/>
<path d="M801.275 131.69C803.733 132.631 805.817 134.346 807.213 136.577C808.608 138.807 809.239 141.432 809.01 144.053C808.967 144.562 808.807 145.053 808.541 145.489C808.276 145.924 807.913 146.292 807.481 146.564C807.049 146.835 806.56 147.002 806.052 147.052C805.544 147.102 805.032 147.033 804.556 146.851C802.27 145.974 800.303 144.425 798.916 142.408C797.528 140.391 796.785 138.001 796.783 135.553C796.783 135.227 796.799 134.899 796.823 134.566L797.061 131.586C797.075 131.416 797.128 131.252 797.217 131.106C797.305 130.96 797.426 130.837 797.571 130.746C797.715 130.655 797.878 130.599 798.048 130.582C798.218 130.565 798.389 130.587 798.549 130.648L801.275 131.69Z" fill="#367B55" stroke="#367B55" stroke-miterlimit="10" stroke-linecap="round"/>
<path d="M418.176 -69.8835V-20.69C418.176 -13.6474 415.379 -6.89311 410.4 -1.91238C405.421 3.06834 398.667 5.8677 391.625 5.87013H371.135V18.6869C371.135 22.1751 370.448 25.6291 369.113 28.8517C367.778 32.0743 365.821 35.0024 363.355 37.4688C360.888 39.9352 357.96 41.8915 354.737 43.2261C351.514 44.5607 348.06 45.2474 344.572 45.247H301.183V64.437C301.183 67.9251 300.496 71.3792 299.162 74.602C297.827 77.8248 295.871 80.7531 293.404 83.2198C290.938 85.6864 288.01 87.6431 284.787 88.9781C281.565 90.313 278.111 91.0001 274.623 91.0001H25.8732C19.104 91.0006 12.59 88.4164 7.66211 83.7755C2.7342 79.1347 -0.235783 72.7873 -0.641075 66.0303H-48.9998V-69.8835H418.176Z" fill="#275C40"/>
<path d="M418.234 -75.9999V-20.69C418.234 -17.2018 417.547 -13.7478 416.212 -10.5252C414.877 -7.30255 412.92 -4.37446 410.454 -1.90808C407.987 0.558289 405.059 2.51463 401.836 3.84922C398.613 5.18382 395.159 5.87052 391.671 5.87012H371.206V18.6869C371.206 22.175 370.519 25.6291 369.184 28.8517C367.849 32.0743 365.892 35.0024 363.425 37.4688C360.959 39.9352 358.03 41.8915 354.808 43.2261C351.585 44.5607 348.131 45.2474 344.643 45.247H301.232V64.4369C301.232 67.9251 300.546 71.3792 299.211 74.602C297.877 77.8248 295.92 80.7531 293.454 83.2198C290.987 85.6864 288.059 87.6431 284.837 88.9781C281.614 90.313 278.16 91.0001 274.672 91.0001H239.919C244.029 91.0001 248.098 90.1906 251.895 88.6177C255.692 87.0448 259.142 84.7394 262.048 81.8332C264.954 78.9269 267.259 75.4767 268.832 71.6796C270.404 67.8825 271.213 63.8128 271.213 59.7029V37.0939H322.346C326.455 37.0943 330.525 36.2853 334.322 34.713C338.118 33.1407 341.569 30.8359 344.475 27.9303C347.381 25.0246 349.686 21.575 351.259 17.7784C352.832 13.9817 353.642 9.91245 353.643 5.80284V-9.29836H371.637C375.748 -9.29675 379.818 -10.105 383.616 -11.677C387.415 -13.2489 390.866 -15.5538 393.773 -18.4599C396.68 -21.366 398.987 -24.8163 400.56 -28.6139C402.133 -32.4115 402.943 -36.4819 402.943 -40.5925V-75.9999H418.234Z" fill="#367B55"/>
<path d="M153.535 40.3674C153.73 40.3665 153.923 40.4108 154.098 40.4968C154.273 40.5828 154.425 40.7082 154.544 40.8632C154.662 41.0181 154.743 41.1984 154.781 41.3899C154.818 41.5814 154.81 41.7789 154.758 41.9669L153.868 45.1902C153.059 48.0969 151.325 50.661 148.929 52.4941C146.532 54.3272 143.604 55.3295 140.587 55.3494H140.571C139.988 55.3529 139.411 55.2209 138.887 54.9637C138.363 54.7065 137.906 54.3311 137.551 53.8671C137.197 53.4031 136.955 52.8632 136.845 52.2899C136.735 51.7166 136.76 51.1256 136.917 50.5633C137.723 47.6733 139.444 45.1222 141.822 43.2923C144.2 41.4625 147.107 40.4524 150.107 40.4133L153.535 40.3674Z" fill="#367B55"/>
<path d="M118.08 30.991C118.213 30.8486 118.378 30.7393 118.561 30.6717C118.744 30.6042 118.94 30.5803 119.134 30.602C119.328 30.6237 119.514 30.6903 119.678 30.7966C119.841 30.9029 119.978 31.0459 120.077 31.2142L121.774 34.0981C123.3 36.7016 123.937 39.7314 123.588 42.729C123.239 45.7267 121.924 48.5293 119.841 50.7131C119.438 51.1352 118.943 51.4578 118.394 51.6556C117.845 51.8534 117.257 51.9208 116.678 51.8526C116.098 51.7844 115.543 51.5824 115.055 51.2626C114.566 50.9427 114.159 50.5138 113.866 50.0097C112.351 47.4217 111.715 44.4132 112.053 41.4338C112.39 38.4544 113.683 35.6642 115.737 33.4803L118.08 30.991Z" fill="#367B55" stroke="#367B55" stroke-miterlimit="10" stroke-linecap="round"/>
<path d="M47.1309 1.30872C49.949 2.38622 52.3393 4.35275 53.9396 6.91047C55.5398 9.46818 56.263 12.4777 55.9996 15.4833C55.9484 16.0651 55.7628 16.6272 55.4574 17.1251C55.1521 17.6231 54.7353 18.0433 54.2399 18.3528C53.7446 18.6623 53.1841 18.8526 52.6027 18.9087C52.0213 18.9648 51.4348 18.8851 50.8894 18.676C48.2682 17.6708 46.0133 15.8948 44.4219 13.5822C42.8304 11.2696 41.9773 8.52893 41.9749 5.72164C41.9749 5.34549 41.9963 4.9724 42.0238 4.59013L42.2929 1.17416C42.3089 0.978832 42.3702 0.789915 42.4719 0.622359C42.5736 0.454802 42.7128 0.313206 42.8787 0.208773C43.0445 0.104339 43.2324 0.0399316 43.4274 0.0206523C43.6225 0.00137296 43.8193 0.0277476 44.0024 0.0976896L47.1309 1.30872Z" fill="#367B55" stroke="#367B55" stroke-miterlimit="10" stroke-linecap="round"/>
<path d="M25.5556 33.999C25.3926 34.1075 25.2571 34.2523 25.1597 34.4222C25.0623 34.592 25.0058 34.7822 24.9945 34.9776C24.9833 35.1731 25.0176 35.3685 25.0948 35.5484C25.172 35.7283 25.2899 35.8878 25.4394 36.0143L27.9868 38.1795C30.2883 40.1323 33.1634 41.2821 36.1768 41.4548C39.1902 41.6275 42.1778 40.8137 44.6874 39.1367C45.1732 38.8125 45.5769 38.3798 45.8668 37.8728C46.1567 37.3658 46.3247 36.7983 46.3576 36.2152C46.3905 35.6321 46.2874 35.0494 46.0565 34.513C45.8255 33.9765 45.4731 33.5012 45.0269 33.1243C42.7379 31.1848 39.8822 30.0391 36.8874 29.8588C33.8926 29.6786 30.9201 30.4734 28.4149 32.1243L25.5556 33.999Z" fill="#367B55"/>
<path d="M180.983 -11.7437C180.792 -11.787 180.594 -11.7852 180.405 -11.7385C180.215 -11.6917 180.039 -11.6014 179.891 -11.4745C179.742 -11.3477 179.625 -11.1879 179.549 -11.0079C179.473 -10.8279 179.441 -10.6327 179.454 -10.4379L179.668 -7.09835C179.866 -4.08726 181.039 -1.22247 183.009 1.06325C184.979 3.34897 187.64 4.93144 190.588 5.5716C191.159 5.69465 191.75 5.6835 192.316 5.53904C192.881 5.39457 193.405 5.12073 193.847 4.73911C194.288 4.35749 194.635 3.87852 194.86 3.33997C195.085 2.80142 195.181 2.21801 195.142 1.63575C194.944 -1.35818 193.782 -4.20754 191.83 -6.48633C189.878 -8.76512 187.241 -10.3509 184.313 -11.0067L180.983 -11.7437Z" fill="#367B55" stroke="#367B55" stroke-miterlimit="10" stroke-linecap="round"/>
<path d="M245.177 1.30872C242.36 2.38665 239.97 4.35327 238.369 6.91087C236.769 9.46848 236.046 12.4778 236.309 15.4833C236.359 16.065 236.545 16.627 236.85 17.125C237.155 17.623 237.571 18.0433 238.066 18.3529C238.561 18.6624 239.122 18.8527 239.703 18.9088C240.284 18.9649 240.871 18.8852 241.416 18.676C244.037 17.6708 246.292 15.8948 247.883 13.5822C249.475 11.2696 250.328 8.52893 250.33 5.72165C250.33 5.34549 250.309 4.9724 250.281 4.59013L250.012 1.17416C249.996 0.978832 249.935 0.789915 249.833 0.622359C249.732 0.454803 249.592 0.313206 249.426 0.208773C249.261 0.104339 249.073 0.0399316 248.878 0.0206523C248.683 0.00137296 248.486 0.0277476 248.303 0.0976896L245.177 1.30872Z" fill="#367B55" stroke="#367B55" stroke-miterlimit="10" stroke-linecap="round"/>
</g>
<defs>
<filter id="filter0_d_1564_4759" x="181.958" y="139.718" width="19.5359" height="19.5367" filterUnits="userSpaceOnUse" color-interpolation-filters="sRGB">
<feFlood flood-opacity="0" result="BackgroundImageFix"/>
<feColorMatrix in="SourceAlpha" type="matrix" values="0 0 0 0 0 0 0 0 0 0 0 0 0 0 0 0 0 0 127 0" result="hardAlpha"/>
<feOffset/>
<feGaussianBlur stdDeviation="1"/>
<feComposite in2="hardAlpha" operator="out"/>
<feColorMatrix type="matrix" values="0 0 0 0 1 0 0 0 0 1 0 0 0 0 1 0 0 0 0.4 0"/>
<feBlend mode="normal" in2="BackgroundImageFix" result="effect1_dropShadow_1564_4759"/>
<feBlend mode="normal" in="SourceGraphic" in2="effect1_dropShadow_1564_4759" result="shape"/>
</filter>
<filter id="filter1_d_1564_4759" x="809.68" y="79.7732" width="14.6689" height="14.6691" filterUnits="userSpaceOnUse" color-interpolation-filters="sRGB">
<feFlood flood-opacity="0" result="BackgroundImageFix"/>
<feColorMatrix in="SourceAlpha" type="matrix" values="0 0 0 0 0 0 0 0 0 0 0 0 0 0 0 0 0 0 127 0" result="hardAlpha"/>
<feOffset/>
<feGaussianBlur stdDeviation="1"/>
<feComposite in2="hardAlpha" operator="out"/>
<feColorMatrix type="matrix" values="0 0 0 0 1 0 0 0 0 1 0 0 0 0 1 0 0 0 0.4 0"/>
<feBlend mode="normal" in2="BackgroundImageFix" result="effect1_dropShadow_1564_4759"/>
<feBlend mode="normal" in="SourceGraphic" in2="effect1_dropShadow_1564_4759" result="shape"/>
</filter>
<linearGradient id="paint0_linear_1564_4759" x1="159.236" y1="172.504" x2="121.173" y2="120.07" gradientUnits="userSpaceOnUse">
<stop stop-color="#A0FFE6"/>
<stop offset="1" stop-color="#66AF49" stop-opacity="0"/>
</linearGradient>
<linearGradient id="paint1_linear_1564_4759" x1="137.989" y1="108.877" x2="176.724" y2="159.093" gradientUnits="userSpaceOnUse">
<stop offset="0.25" stop-color="#96FFFF" stop-opacity="0"/>
<stop offset="1" stop-color="#96FFFF" stop-opacity="0.5"/>
</linearGradient>
<linearGradient id="paint2_linear_1564_4759" x1="840.695" y1="105.325" x2="862.968" y2="72.3838" gradientUnits="userSpaceOnUse">
<stop stop-color="#A0FFE6"/>
<stop offset="1" stop-color="white" stop-opacity="0"/>
</linearGradient>
<linearGradient id="paint3_linear_1564_4759" x1="853.786" y1="58.959" x2="827.186" y2="93.444" gradientUnits="userSpaceOnUse">
<stop offset="0.25" stop-color="white" stop-opacity="0"/>
<stop offset="1" stop-color="#96FFFF" stop-opacity="0.5"/>
</linearGradient>
</defs>
</svg>
