<svg width="1440" height="144" viewBox="0 0 1440 144" fill="none" xmlns="http://www.w3.org/2000/svg">
<mask id="mask0_1475_10996" style="mask-type:alpha" maskUnits="userSpaceOnUse" x="0" y="0" width="1440" height="144">
<rect width="1440" height="144" fill="#C4C4C4"/>
</mask>
<g mask="url(#mask0_1475_10996)">
<rect x="-0.00292969" y="-206.001" width="1509" height="406" fill="white"/>
<g opacity="0.8">
<g opacity="0.8">
<path opacity="0.8" d="M1462.88 -152H0V217.775H1462.88V-152Z" fill="#45D5D9"/>
</g>
</g>
<path opacity="0.16" d="M136.177 -174C136.177 -174 418.446 -80.0962 577.843 -57.8574C737.239 -35.6186 822.048 -15.2272 788.981 17.5368C755.914 50.3008 325.672 -13.3749 295.785 96.5859C265.898 206.547 805.723 108.484 873.593 261.604V382H-23.0029V-174H136.177Z" fill="white"/>
<g opacity="0.5">
<circle r="96.1239" transform="matrix(-1 -1.23066e-09 -6.67576e-09 1 896.832 84.1244)" fill="white"/>
<circle r="49.9771" transform="matrix(-1 -1.23066e-09 -6.67576e-09 1 986.379 102.545)" fill="white"/>
<ellipse rx="76.0601" ry="75.1481" transform="matrix(-1 -1.23066e-09 -6.67576e-09 1 765.865 96.7101)" fill="white"/>
<circle r="49.9771" transform="matrix(-1 -1.23066e-09 -6.67576e-09 1 677.033 130.272)" fill="white"/>
<rect width="495.394" height="80.62" rx="40.31" transform="matrix(-1 -1.23066e-09 -6.67576e-09 1 1075.39 112.027)" fill="white"/>
</g>
<g opacity="0.5">
<circle r="96.1239" transform="matrix(-1 -1.23066e-09 -6.67576e-09 1 -55.4159 86.1244)" fill="white"/>
<circle r="49.9771" transform="matrix(-1 -1.23066e-09 -6.67576e-09 1 34.1308 104.545)" fill="white"/>
<rect width="495.394" height="80.62" rx="40.31" transform="matrix(-1 -1.23066e-09 -6.67576e-09 1 123.143 114.027)" fill="white"/>
</g>
<g opacity="0.8">
<circle r="70.3683" transform="matrix(-1 -1.23066e-09 -6.67576e-09 1 942.951 109.369)" fill="white"/>
<circle r="36.5862" transform="matrix(-1 -1.23066e-09 -6.67576e-09 1 1008.49 122.852)" fill="white"/>
<ellipse rx="55.6804" ry="55.0128" transform="matrix(-1 -1.23066e-09 -6.67576e-09 1 847.065 118.582)" fill="white"/>
<circle r="36.5862" transform="matrix(-1 -1.23066e-09 -6.67576e-09 1 782.032 143.151)" fill="white"/>
<rect width="362.657" height="59.0186" rx="29.5093" transform="matrix(-1 -1.23066e-09 -6.67576e-09 1 1073.66 129.797)" fill="white"/>
</g>
<g style="mix-blend-mode:soft-light" opacity="0.32">
<path d="M28.1935 498.001C28.1935 498.001 275.015 360.693 414.394 328.175C553.773 295.657 627.931 265.84 599.017 217.931C570.103 170.023 193.891 263.131 167.758 102.343C141.624 -58.4446 613.657 84.9453 673.003 -138.952L673.003 -314.999L-110.997 -314.999L-110.997 498.001L28.1935 498.001Z" fill="white" fill-opacity="0.75"/>
</g>
<path d="M405.743 50.3932C399.851 44.5014 392.428 40.3764 384.313 38.485L384.24 38.485C380.683 37.6533 376.969 37.7752 373.474 38.8385C369.979 39.9019 366.827 41.8689 364.336 44.5409C359.581 49.6298 347.548 67.8822 344.416 73.5366C344.416 73.5366 337.206 84.8453 364.285 99.8238C391.364 114.802 397.024 102.679 397.024 102.679C397.024 102.679 401.548 94.5257 403.289 90.8729C405.709 85.8235 409.023 78.2014 411.109 70.5171C412.063 66.9871 412.069 63.2681 411.127 59.735C410.185 56.2019 408.328 52.9797 405.743 50.3932V50.3932Z" fill="#F2F2F2"/>
<path d="M352.896 -63.9785C353.258 -24.138 353.611 15.7026 353.953 55.5432Z" fill="#FFE36C"/>
<path d="M352.896 -63.9785C353.258 -24.138 353.611 15.7026 353.953 55.5432" stroke="white" stroke-width="2" stroke-miterlimit="10"/>
<path d="M348.862 58.884C348.862 58.884 348.183 49.9671 353.295 48.593C358.407 47.219 357.637 56.2434 357.637 56.2434L357.734 61.6264L349.676 66.6192C349.676 66.6192 348.845 61.4002 348.862 58.884Z" fill="#EFD565"/>
<path d="M372.702 105L383.436 115.391C384.015 115.951 384.938 115.936 385.499 115.357L386.159 114.675C386.72 114.096 386.705 113.172 386.126 112.612L375.392 102.221C374.813 101.661 373.89 101.676 373.33 102.255L372.669 102.937C372.108 103.516 372.123 104.44 372.702 105Z" fill="#FFBB4D"/>
<path d="M340.189 92.3673L354.544 94.695C355.34 94.8239 356.089 94.2837 356.218 93.4884L356.37 92.5507C356.499 91.7554 355.959 91.0062 355.163 90.8773L340.808 88.5496C340.012 88.4206 339.263 88.9608 339.134 89.7561L338.982 90.6938C338.853 91.4891 339.393 92.2384 340.189 92.3673Z" fill="#FFBB4D"/>
<path d="M405.734 50.3924C399.843 44.5006 392.419 40.3756 384.304 38.4843L384.231 38.4843C380.674 37.6525 376.96 37.7745 373.465 38.8378C369.971 39.9012 366.818 41.8682 364.327 44.5401C359.572 49.6291 347.54 67.8814 344.407 73.5358C344.407 73.5358 337.198 84.8446 364.276 99.8231C391.355 114.802 397.015 102.679 397.015 102.679C397.015 102.679 401.539 94.5249 403.28 90.8722C405.701 85.8228 409.014 78.2007 411.101 70.5164C412.054 66.9864 412.06 63.2674 411.118 59.7343C410.176 56.2012 408.319 52.9789 405.734 50.3924V50.3924Z" fill="#FFE36C"/>
<path d="M369.681 56.4624C371.52 56.4624 373.011 54.9713 373.011 53.132C373.011 51.2926 371.52 49.8015 369.681 49.8015C367.841 49.8015 366.35 51.2926 366.35 53.132C366.35 54.9713 367.841 56.4624 369.681 56.4624Z" fill="black"/>
<path d="M393.068 69.4219C394.908 69.4219 396.399 67.9308 396.399 66.0914C396.399 64.2521 394.908 62.761 393.068 62.761C391.229 62.761 389.738 64.2521 389.738 66.0914C389.738 67.9308 391.229 69.4219 393.068 69.4219Z" fill="black"/>
<path d="M360.313 90.8009C360.397 90.8499 360.491 90.8811 360.588 90.8928C360.686 90.9044 360.784 90.8963 360.878 90.8687L365.402 89.5626C365.58 89.4968 365.726 89.3662 365.812 89.1971C365.897 89.0279 365.916 88.8326 365.864 88.6503C365.812 88.468 365.692 88.3121 365.53 88.2139C365.368 88.1157 365.175 88.0824 364.989 88.1207L360.465 89.4269C360.274 89.4821 360.113 89.6106 360.017 89.7844C359.92 89.9581 359.897 90.163 359.951 90.3542C359.978 90.4492 360.024 90.5376 360.086 90.6144C360.148 90.6911 360.225 90.7546 360.313 90.8009V90.8009Z" fill="#FFBB4D"/>
<path d="M363.222 92.4434C363.395 92.5362 363.598 92.5585 363.787 92.5056C363.882 92.4789 363.971 92.4336 364.048 92.3725C364.126 92.3113 364.19 92.2354 364.238 92.1492C364.286 92.0629 364.316 91.9681 364.327 91.8701C364.338 91.7721 364.329 91.6729 364.302 91.5782L363.001 87.0547C362.98 86.9533 362.939 86.8573 362.879 86.7728C362.819 86.6882 362.743 86.6169 362.654 86.5633C362.566 86.5096 362.467 86.4749 362.364 86.4612C362.262 86.4475 362.157 86.4551 362.058 86.4836C361.958 86.5121 361.866 86.5609 361.786 86.6268C361.706 86.6927 361.641 86.7745 361.594 86.8668C361.547 86.9592 361.52 87.0602 361.514 87.1636C361.508 87.2669 361.523 87.3704 361.559 87.4675L362.86 91.991C362.916 92.1838 363.046 92.3465 363.222 92.4434Z" fill="#FFBB4D"/>
<path d="M392.577 81.6762C395.429 81.6762 397.74 79.3649 397.74 76.5138C397.74 73.6626 395.429 71.3513 392.577 71.3513C389.726 71.3513 387.415 73.6626 387.415 76.5138C387.415 79.3649 389.726 81.6762 392.577 81.6762Z" fill="#FFA052"/>
<path d="M361.313 64.3562C364.164 64.3562 366.476 62.0449 366.476 59.1937C366.476 56.3426 364.164 54.0313 361.313 54.0313C358.462 54.0313 356.151 56.3426 356.151 59.1937C356.151 62.0449 358.462 64.3562 361.313 64.3562Z" fill="#FFA052"/>
<path d="M372.499 65.3069L379.72 69.3158C380.714 69.8582 381.882 69.9842 382.968 69.6662C384.055 69.3482 384.971 68.6121 385.515 67.6195V67.6195C386.646 65.567 382.123 61.2696 380.07 60.1331C378.018 59.0022 371.973 57.4359 370.837 59.4828C370.563 59.9743 370.389 60.5149 370.325 61.0737C370.26 61.6325 370.306 62.1985 370.461 62.7394C370.615 63.2803 370.875 63.7855 371.224 64.226C371.574 64.6665 372.007 65.0338 372.499 65.3069Z" fill="#FFBB4D"/>
<path d="M396.661 43.4253C396.661 43.4253 398.646 39.1902 397.6 35.119C397.573 35.0231 397.52 34.9367 397.447 34.8694C397.374 34.8021 397.283 34.7568 397.185 34.7385C397.087 34.7203 396.986 34.7298 396.894 34.7661C396.801 34.8024 396.72 34.8639 396.661 34.9437C395.341 36.7114 393.729 38.2412 391.894 39.4672C391.388 39.7414 390.829 39.9044 390.255 39.9453C389.68 39.9863 389.104 39.9042 388.564 39.7047" fill="#FFE36C"/>
<path d="M391.944 41.0449C394.722 40.7317 397.401 39.8254 399.798 38.3873C399.883 38.3336 399.981 38.3052 400.081 38.3054C400.181 38.3056 400.279 38.3345 400.364 38.3885C400.448 38.4426 400.515 38.5196 400.557 38.6106C400.599 38.7015 400.615 38.8026 400.601 38.9019C400.327 40.1291 399.893 41.3152 399.312 42.4302C399.05 42.9703 398.984 43.5844 399.124 44.1679C399.264 44.7514 399.603 45.2683 400.081 45.6306" fill="#FFE36C"/>
<path d="M390.706 113.856C392.323 116.35 391.95 119.476 389.869 120.828L392.804 125.351L422.998 105.742L420.058 101.218C417.977 102.575 414.969 101.643 413.346 99.1489C411.723 96.6554 412.102 93.5285 414.183 92.1771L411.248 87.6536L381.054 107.263L383.994 111.786C386.075 110.435 389.083 111.362 390.706 113.856Z" fill="#E66560" stroke="#45D5D9" stroke-width="0.25" stroke-miterlimit="10"/>
<path d="M406.693 91.4237C406.693 91.4237 409.933 99.7527 405.444 102.552C400.954 105.35 399.071 96.4957 399.071 96.4957L397.415 91.3672L403.674 84.2483C403.674 84.2483 405.992 89.0263 406.693 91.4237Z" fill="#FFE36C"/>
<path d="M354.141 54.0479C352.153 56.6438 349.603 58.7565 346.683 60.2281C343.924 61.6587 342.725 61.7548 341.798 61.5003C340.192 61.0593 338.456 59.5043 338.546 57.7062C338.637 55.9081 340.435 54.2797 342.001 54.3136C345.089 54.3928 349.171 61.212 347.627 66.9964C346.344 71.8139 341.21 75.7155 338.122 74.7881C336.952 74.4319 335.691 73.2671 335.719 72.0684C335.747 70.8697 337.201 69.5522 338.546 69.4108C341.639 69.0829 345.982 74.4715 346.078 79.9054C346.157 84.5929 343.053 87.9007 342.12 88.8449" stroke="white" stroke-width="2" stroke-linecap="round" stroke-linejoin="round"/>
<path d="M1443.68 2.98077C1452.01 37.4653 1453.38 73.2421 1447.7 108.251C1442.01 143.259 1429.4 176.808 1410.58 206.964C1407.83 211.381 1404.96 215.717 1401.96 219.97C1396.96 227.067 1391.61 233.926 1385.92 240.547C1377.38 250.485 1368.83 260.428 1360.53 270.565L1321.35 315.052L1165.12 351.871L1109.92 329.625C1097.9 324.279 1085.76 319.212 1073.61 314.152C1065.51 310.788 1057.62 307.046 1049.94 302.927C1045.33 300.471 1040.8 297.886 1036.35 295.172C1005.85 276.642 979.352 252.316 958.379 223.596C937.406 194.875 922.373 162.327 914.145 127.827C879.366 -16.9711 969.51 -162.24 1115.5 -196.884C1261.37 -231.494 1408.96 -141.62 1443.68 2.98077Z" fill="url(#paint0_linear_1475_10996)"/>
<path d="M1443.68 2.98077C1452.01 37.4653 1453.38 73.2421 1447.7 108.251C1442.01 143.259 1429.4 176.808 1410.58 206.964C1407.83 211.381 1404.96 215.717 1401.96 219.97C1396.96 227.067 1391.61 233.926 1385.92 240.547C1377.38 250.485 1368.83 260.428 1360.53 270.565L1321.35 315.052L1165.12 351.871L1109.92 329.625C1097.9 324.279 1085.76 319.212 1073.61 314.152C1065.51 310.788 1057.62 307.046 1049.94 302.927C1045.33 300.471 1040.8 297.886 1036.35 295.172C1005.85 276.642 979.352 252.316 958.379 223.596C937.406 194.875 922.373 162.327 914.145 127.827C879.366 -16.9711 969.51 -162.24 1115.5 -196.884C1261.37 -231.494 1408.96 -141.62 1443.68 2.98077Z" fill="#136E90"/>
<path opacity="0.1" d="M1443.69 2.98216C1452.02 37.4677 1453.38 73.246 1447.7 108.256C1442.02 143.266 1429.4 176.816 1410.58 206.973C1407.84 211.39 1404.96 215.725 1401.96 219.978C1396.97 227.076 1391.63 233.935 1385.93 240.555C1377.39 250.494 1368.84 260.43 1360.54 270.581L1321.35 315.061L1165.13 351.879L1109.92 329.641C1106.96 328.325 1104 327.017 1101.02 325.707C1283.96 253.809 1390.69 57.8932 1343.81 -137.417C1342.67 -142.181 1341.44 -146.906 1340.13 -151.592C1392.09 -113.902 1428.8 -59.1016 1443.69 2.98216V2.98216Z" fill="black"/>
<g opacity="0.2">
<path d="M1188.64 28.5545L1136.5 39.5591L1144.91 78.6428L1197.04 67.6382L1188.64 28.5545Z" fill="black"/>
<path d="M1094.42 55.8641L1085.61 15.5642L1018.83 118.336L1043.41 134.397L1094.42 55.8641ZM1283.03 -10.9052C1269.8 -41.1605 1240.81 -59.6901 1237.52 -61.7249L1166.07 -108.217L1139.84 -67.8575L1138.01 -64.9925L1146.83 -24.7046L1174.74 -67.7056L1215.37 -41.2696L1221.58 -37.2428L1222.02 -36.9704C1222.1 -36.958 1224.73 -35.2771 1228.59 -32.3394C1236.46 -26.2938 1249.39 -14.5547 1256.1 0.66579C1266.03 23.4043 1274.47 50.572 1255.26 89.9904L1264.34 131.626C1266.39 128.94 1267.62 127.065 1268.06 126.384C1286.77 98.1602 1295.95 71.7469 1296.23 45.5114C1296.44 22.8131 1289.7 4.2483 1283.03 -10.9052ZM1132.81 151.43L1131.82 151.187L1131.37 151.12C1128.48 150.322 1125.66 149.289 1122.95 148.029C1120.43 146.939 1117.32 145.48 1113.56 143.536C1107.82 140.593 1100.66 136.56 1091.75 131.011L1071.64 117.879L1055.71 142.411L1075.69 155.463L1075.95 155.649C1106.66 174.76 1121.22 178.982 1126.44 179.904C1143.27 184.055 1160.74 185.042 1177.94 182.815C1185.84 181.74 1193.62 179.917 1201.16 177.37L1202.97 176.741L1196.68 147.881C1179.94 154.532 1158.65 157.656 1132.81 151.43Z" fill="black"/>
<path d="M1126.72 -47.6701L1164.23 124.308L1126.16 132.463L1096.88 -1.75824L1099.88 -6.3721L1101.49 -8.83941L1110.49 -22.7152L1116.61 -32.1204L1118.6 -35.1816L1124.71 -44.5868L1126.72 -47.6701Z" fill="black"/>
<path d="M1214.88 -26.2847L1252.28 145.346L1251.83 145.782C1250.37 147.281 1248.71 148.8 1246.99 150.334C1246.43 150.852 1245.85 151.39 1245.26 151.878C1243.71 153.235 1242.08 154.586 1240.36 155.932C1238.78 157.194 1237.13 158.445 1235.4 159.685C1234.46 160.355 1233.51 161.023 1232.53 161.712C1231.28 162.568 1229.97 163.428 1228.62 164.283C1227.57 164.949 1226.49 165.598 1225.38 166.255C1223.19 167.566 1220.89 168.833 1218.49 170.055L1216.73 170.935L1175.55 -17.8503L1214.88 -26.2847Z" fill="black"/>
</g>
<path d="M939.888 89.3559C934.249 52.7357 939.43 15.1403 954.838 -19.1138" stroke="white" stroke-width="10" stroke-linecap="round" stroke-linejoin="round"/>
<circle cx="943.729" cy="109.153" r="5.83029" fill="white"/>
<g clip-path="url(#clip0_1475_10996)">
<path d="M732.528 65.5096L720.294 105.541C720.017 106.444 719.4 107.199 718.576 107.64C717.753 108.081 716.792 108.173 715.903 107.894L695.753 101.552C695.313 101.414 694.905 101.189 694.551 100.89C694.196 100.591 693.904 100.223 693.689 99.8091C693.475 99.3948 693.343 98.9416 693.301 98.4753C693.259 98.0089 693.308 97.5386 693.445 97.0912L705.679 57.0597C707.989 49.5274 718.58 36.3873 725.992 38.7235C733.404 41.0598 734.823 57.9709 732.528 65.5096Z" fill="#173A52"/>
<path d="M697.78 102.191L714.002 107.297L715.357 110.626C715.436 110.821 715.459 111.034 715.423 111.242C715.387 111.449 715.294 111.642 715.154 111.798C715.015 111.953 714.834 112.066 714.635 112.121C714.435 112.177 714.223 112.173 714.026 112.111L695.076 106.149C694.878 106.086 694.702 105.968 694.568 105.807C694.435 105.646 694.349 105.45 694.32 105.242C694.292 105.033 694.323 104.821 694.409 104.629C694.495 104.438 694.632 104.275 694.806 104.16L697.78 102.191Z" fill="#173A52"/>
<path d="M699.883 55.2369L687.65 95.2653C687.513 95.713 687.291 96.1291 686.997 96.4898C686.702 96.8505 686.341 97.1488 685.933 97.3676C685.525 97.5864 685.079 97.7213 684.62 97.7648C684.162 97.8083 683.699 97.7595 683.259 97.621L663.112 91.2796C662.223 91 661.481 90.3731 661.047 89.5366C660.614 88.7002 660.525 87.7225 660.8 86.8185L673.034 46.787C675.344 39.2546 685.936 26.1146 693.348 28.4508C700.76 30.7871 702.178 47.6856 699.883 55.2369Z" fill="#173A52"/>
<path d="M665.136 91.9181L681.368 97.0209L682.726 100.353C682.803 100.548 682.825 100.762 682.789 100.969C682.752 101.176 682.659 101.369 682.519 101.524C682.379 101.679 682.199 101.792 682 101.847C681.8 101.903 681.589 101.9 681.391 101.839L662.432 95.8757C662.234 95.8131 662.058 95.6946 661.924 95.534C661.791 95.3735 661.705 95.1775 661.676 94.969C661.648 94.7605 661.679 94.548 661.765 94.3563C661.851 94.1647 661.988 94.0018 662.162 93.8866L665.136 91.9181Z" fill="#173A52"/>
<path d="M682.18 39.2255C683.803 36.3547 686.188 34.006 689.062 32.4486" stroke="white" stroke-width="3" stroke-linecap="round" stroke-linejoin="round"/>
<path d="M728.848 101.247L740.786 105.005L738.935 111.058C738.77 111.6 738.399 112.054 737.904 112.319C737.41 112.584 736.832 112.638 736.299 112.47L728.381 109.978C727.847 109.81 727.402 109.433 727.142 108.931C726.882 108.428 726.829 107.841 726.995 107.299L728.845 101.246L728.848 101.247Z" fill="#4B9B3A"/>
<path d="M757.02 89.5732C757.02 89.5732 759.482 100.416 753.549 103.073C747.616 105.73 746.885 94.4774 746.885 94.4774L745.777 87.8668L754.611 80.1997C754.611 80.1997 756.585 86.495 757.02 89.5732Z" fill="#4B9B3A"/>
<path d="M779.045 105.052C779.515 108.85 782.349 111.623 785.365 111.233L786.217 118.119L742.472 123.766L741.62 116.877C744.629 116.488 746.695 113.082 746.229 109.284C745.762 105.486 742.924 102.713 739.909 103.103L739.056 96.2137L782.801 90.5698L783.654 97.4587C780.644 97.8452 778.566 101.25 779.045 105.052Z" fill="#E66560"/>
<path d="M689.066 59.6619C689.066 59.6619 667.093 93.7419 714.871 105.721C755.459 115.896 754.577 80.2749 754.577 80.2749C757.028 79.0432 759.155 77.2364 760.784 75.0039C762.413 72.7715 763.496 70.1775 763.944 67.4366C764.392 64.6957 764.192 61.8866 763.36 59.2416C762.528 56.5967 761.088 54.1918 759.16 52.226L759.161 52.1946C759.749 51.2722 760.212 50.2734 760.537 49.2254C761.362 46.5244 761.254 43.6191 760.23 40.9917C759.207 38.3643 757.33 36.1729 754.912 34.7813C752.493 33.3896 749.678 32.8814 746.934 33.3411C744.189 33.8007 741.681 35.2005 739.825 37.3082L739.208 37.1188L728.139 33.6367L727.753 33.5148C727.401 30.5061 725.974 27.7352 723.743 25.7287C721.512 23.7223 718.632 22.6202 715.652 22.632C712.671 22.6437 709.797 23.7685 707.576 25.7926C705.356 27.8166 703.943 30.5987 703.606 33.6101L703.581 33.61C700.626 33.7031 697.742 34.569 695.209 36.124C692.677 37.679 690.58 39.8707 689.121 42.4878C687.662 45.1049 686.891 48.0592 686.881 51.0657C686.872 54.0722 687.624 57.0295 689.066 59.6525L689.066 59.6619Z" fill="#49B236"/>
<path d="M686.676 87.9746L697.843 91.4898L695.953 97.6748C695.798 98.1823 695.451 98.6066 694.988 98.8544C694.526 99.1022 693.986 99.1532 693.487 98.9961L686.079 96.6644C685.58 96.5073 685.163 96.1551 684.92 95.6852C684.677 95.2153 684.628 94.6662 684.783 94.1587L686.673 87.9736L686.676 87.9746Z" fill="#49B236"/>
<path d="M739.986 89.3299L734.598 106.975C729.459 107.961 722.993 107.753 714.877 105.718C705.942 103.485 699.451 100.472 694.793 97.0589L700.914 77.0322C701.7 74.4797 703.448 72.3466 705.776 71.0996C708.104 69.8526 710.821 69.5933 713.334 70.3784L733.466 76.7134C735.972 77.5129 738.064 79.2882 739.286 81.6519C740.507 84.0156 740.759 86.7757 739.986 89.3299Z" fill="#9CD43D"/>
<path d="M747.456 54.7742C749.709 54.7885 751.549 52.9432 751.566 50.6526C751.583 48.362 749.77 46.4935 747.517 46.4792C745.264 46.4649 743.424 48.3103 743.407 50.6009C743.391 52.8915 745.203 54.76 747.456 54.7742Z" fill="black"/>
<path d="M716.219 44.9444C718.472 44.9587 720.312 43.1134 720.329 40.8228C720.346 38.5322 718.533 36.6637 716.28 36.6494C714.027 36.6351 712.187 38.4804 712.17 40.771C712.153 43.0616 713.966 44.9301 716.219 44.9444Z" fill="black"/>
<path d="M727.058 48.5571L736.17 51.423C736.612 51.5615 737.013 51.811 737.335 52.1486C737.657 52.4861 737.89 52.9008 738.013 53.3543C738.135 53.8078 738.144 54.2856 738.037 54.7436C737.93 55.2015 737.711 55.6249 737.401 55.9747C735.82 57.7319 733.214 59.2405 729.175 57.9696C725.136 56.6988 723.829 53.9579 723.506 51.5942C723.447 51.1285 723.503 50.6549 723.671 50.217C723.838 49.779 724.112 49.3909 724.465 49.0883C724.819 48.7858 725.242 48.5785 725.695 48.4857C726.148 48.3928 726.617 48.4174 727.058 48.5571V48.5571Z" fill="white"/>
<path d="M760.626 66.3914C761.745 62.73 759.576 58.7936 755.782 57.5993C751.988 56.405 748.005 58.405 746.886 62.0664C745.767 65.7279 747.936 69.6642 751.73 70.8585C755.524 72.0529 759.507 70.0529 760.626 66.3914Z" fill="#9CD43D"/>
<path d="M712.302 51.1817C713.421 47.5203 711.253 43.5839 707.459 42.3896C703.665 41.1953 699.682 43.1953 698.563 46.8567C697.443 50.5181 699.612 54.4545 703.406 55.6488C707.2 56.8431 711.183 54.8431 712.302 51.1817Z" fill="#9CD43D"/>
<path d="M719.701 99.5062C719.586 99.4705 719.479 99.4118 719.386 99.3335C719.293 99.2551 719.216 99.1588 719.16 99.05L716.468 93.8475C716.393 93.634 716.397 93.4003 716.478 93.1892C716.559 92.978 716.712 92.8035 716.909 92.6975C717.106 92.5915 717.334 92.5611 717.551 92.6119C717.769 92.6627 717.96 92.7913 718.092 92.9742L720.788 98.1798C720.867 98.3434 720.898 98.5271 720.877 98.7085C720.856 98.8899 720.783 99.0612 720.668 99.2016C720.553 99.3421 720.401 99.4456 720.229 99.4997C720.058 99.5538 719.874 99.556 719.701 99.5062V99.5062Z" fill="#49B236"/>
<path d="M715.804 98.277C715.634 98.2187 715.484 98.1115 715.373 97.9682C715.261 97.8249 715.193 97.6517 715.177 97.4698C715.161 97.2879 715.197 97.1049 715.281 96.9432C715.365 96.7816 715.493 96.6481 715.65 96.5591L720.774 93.8149C720.881 93.7342 721.005 93.6781 721.135 93.6505C721.266 93.6228 721.401 93.6241 721.532 93.6544C721.662 93.6847 721.784 93.7432 721.89 93.826C721.996 93.9088 722.083 94.0138 722.145 94.1339C722.207 94.2541 722.243 94.3865 722.25 94.5221C722.257 94.6577 722.235 94.7934 722.186 94.9197C722.137 95.0461 722.062 95.1602 721.965 95.2543C721.869 95.3484 721.754 95.4202 721.627 95.4649L716.507 98.2122C716.29 98.327 716.038 98.3503 715.804 98.277V98.277Z" fill="#49B236"/>
<g opacity="0.85">
<path d="M679.327 101.194L664.453 96.5117L649.343 145.947L664.216 150.629L679.327 101.194Z" fill="white"/>
<path d="M711.906 111.449L697.032 106.767L681.922 156.202L696.795 160.884L711.906 111.449Z" fill="white"/>
<path d="M711.326 160.328C719.602 160.381 726.361 153.602 726.423 145.188C726.485 136.775 719.827 129.911 711.551 129.859C703.275 129.806 696.516 136.585 696.454 144.998C696.392 153.412 703.051 160.276 711.326 160.328Z" fill="white"/>
<path d="M678.87 152.029C687.146 152.081 693.905 145.303 693.967 136.889C694.029 128.475 687.371 121.612 679.095 121.559C670.819 121.507 664.06 128.285 663.998 136.699C663.936 145.113 670.595 151.976 678.87 152.029Z" fill="white"/>
<path d="M652.753 136.879C661.029 136.932 667.788 130.153 667.85 121.739C667.912 113.326 661.254 106.462 652.978 106.41C644.702 106.357 637.943 113.136 637.881 121.549C637.819 129.963 644.477 136.827 652.753 136.879Z" fill="white"/>
<path d="M628.518 142.32C636.794 142.372 643.553 135.594 643.615 127.18C643.677 118.766 637.019 111.903 628.743 111.85C620.467 111.798 613.708 118.576 613.646 126.99C613.584 135.404 620.243 142.267 628.518 142.32Z" fill="white"/>
<path d="M655.263 165.435C667.692 165.514 677.842 155.335 677.935 142.699C678.028 130.063 668.029 119.756 655.601 119.677C643.173 119.599 633.022 129.778 632.929 142.414C632.836 155.049 642.835 165.356 655.263 165.435Z" fill="white"/>
<path d="M688.554 176.995C700.982 177.074 711.132 166.894 711.225 154.259C711.319 141.623 701.319 131.316 688.891 131.237C676.463 131.158 666.312 141.338 666.219 153.973C666.126 166.609 676.125 176.916 688.554 176.995Z" fill="white"/>
</g>
<path fill-rule="evenodd" clip-rule="evenodd" d="M757.805 81.3648C757.862 82.5946 756.901 83.6386 755.659 83.6966L683.302 87.0711C682.059 87.1291 681.005 86.1791 680.948 84.9492C680.89 83.7193 681.851 82.6754 683.094 82.6174L755.451 79.2429C756.693 79.1849 757.747 80.1349 757.805 81.3648Z" fill="#015271"/>
<path fill-rule="evenodd" clip-rule="evenodd" d="M685.429 59.5597C686.121 58.5361 687.52 58.2609 688.554 58.945L748.881 98.8705C749.915 99.5547 750.192 100.939 749.499 101.963C748.807 102.986 747.408 103.262 746.374 102.577L686.047 62.652C685.013 61.9678 684.736 60.5834 685.429 59.5597Z" fill="#015271"/>
<path d="M677.869 68.0404C677.869 68.0404 670.694 59.646 674.713 54.4735C678.731 49.301 684.577 58.8819 684.577 58.8819L688.606 64.1872L684.334 75.1661C684.334 75.1661 679.663 70.5548 677.869 68.0404Z" fill="#49B236"/>
<path d="M730.204 156.179C736.295 156.217 741.269 151.229 741.315 145.036C741.36 138.844 736.46 133.792 730.369 133.754C724.278 133.715 719.304 138.704 719.258 144.896C719.213 151.089 724.113 156.14 730.204 156.179Z" fill="white"/>
<path d="M617.576 174.688C631.814 174.778 643.443 163.116 643.55 148.641C643.656 134.165 632.201 122.357 617.962 122.266C603.724 122.176 592.096 133.838 591.989 148.314C591.882 162.79 603.338 174.598 617.576 174.688Z" fill="white"/>
<path d="M644.036 171.035C657.871 171.123 669.17 159.805 669.274 145.756C669.378 131.707 658.246 120.247 644.411 120.16C630.576 120.072 619.277 131.39 619.173 145.439C619.07 159.488 630.201 170.948 644.036 171.035Z" fill="white"/>
<path d="M640.087 174.32C651.384 174.392 660.61 165.14 660.694 153.655C660.779 142.17 651.69 132.801 640.394 132.73C629.097 132.658 619.871 141.91 619.787 153.395C619.702 164.88 628.791 174.249 640.087 174.32Z" fill="white"/>
<path d="M673.661 166.624C683.541 166.686 691.604 159.566 691.669 150.721C691.734 141.875 683.778 134.654 673.897 134.591C664.017 134.529 655.954 141.649 655.889 150.494C655.824 159.339 663.781 166.561 673.661 166.624Z" fill="white"/>
<path d="M664.801 150.745C671.363 150.787 676.722 145.413 676.771 138.741C676.82 132.07 671.541 126.629 664.979 126.587C658.418 126.545 653.059 131.92 653.01 138.591C652.96 145.262 658.24 150.704 664.801 150.745Z" fill="white"/>
<path d="M683.628 142.29C688.959 142.324 693.312 138.075 693.351 132.799C693.39 127.523 689.1 123.219 683.769 123.185C678.438 123.152 674.085 127.401 674.046 132.677C674.007 137.952 678.297 142.256 683.628 142.29Z" fill="white"/>
<path d="M691.85 159.731C697.965 159.77 702.958 154.896 703.003 148.844C703.047 142.792 698.126 137.855 692.011 137.816C685.896 137.778 680.903 142.652 680.858 148.704C680.814 154.755 685.735 159.692 691.85 159.731Z" fill="white"/>
<path d="M661.55 168.462C671.417 168.524 679.474 160.659 679.546 150.894C679.618 141.129 671.678 133.162 661.81 133.1C651.943 133.037 643.885 140.902 643.813 150.667C643.742 160.432 651.682 168.399 661.55 168.462Z" fill="white"/>
<path d="M706.463 156.159C716.374 156.222 724.468 148.105 724.542 138.029C724.617 127.953 716.643 119.734 706.732 119.671C696.822 119.608 688.727 127.726 688.653 137.802C688.579 147.878 696.553 156.097 706.463 156.159Z" fill="white"/>
</g>
<path d="M180.828 178.597C154.96 162.817 146.973 128.692 162.989 102.376C179.005 76.0591 212.958 67.5171 238.826 83.2965C264.694 99.0759 272.681 133.201 256.665 159.518C240.649 185.834 206.696 194.376 180.828 178.597Z" fill="white"/>
<path d="M114.539 171.932C96.9482 161.202 91.5064 138.013 102.385 120.139C113.263 102.264 136.341 96.4729 153.932 107.203C171.523 117.934 176.965 141.123 166.087 158.997C155.209 176.871 132.13 182.663 114.539 171.932Z" fill="white"/>
<path d="M139.595 195.419C128.059 188.382 124.498 173.164 131.64 161.428C138.782 149.692 153.924 145.883 165.459 152.92C176.995 159.957 180.557 175.175 173.415 186.911C166.272 198.646 151.131 202.456 139.595 195.419Z" fill="white"/>
<path d="M32.378 191.689C14.4274 180.739 7.80898 158.827 17.5954 142.746C27.3818 126.666 49.8672 122.506 67.8178 133.456C85.7684 144.406 92.3868 166.319 82.6004 182.399C72.814 198.48 50.3287 202.639 32.378 191.689Z" fill="white"/>
<path d="M66.1803 172.874C54.2592 165.602 50.5786 149.876 57.9594 137.748C65.3403 125.62 80.9875 121.684 92.9086 128.955C104.83 136.227 108.51 151.954 101.13 164.082C93.7487 176.21 78.1014 180.146 66.1803 172.874Z" fill="white"/>
<path d="M41.5877 136.493C31.9025 130.585 28.7828 118.021 34.6196 108.43C40.4564 98.8392 53.0395 95.8537 62.7247 101.762C72.4098 107.67 75.5296 120.234 69.6927 129.825C63.8559 139.416 51.2728 142.401 41.5877 136.493Z" fill="white"/>
<path d="M7.16729 158.848C-3.94258 152.071 -7.52121 137.659 -0.82578 126.657C5.86965 115.656 20.3037 112.231 31.4136 119.008C42.5235 125.785 46.1021 140.197 39.4066 151.199C32.7112 162.201 18.2772 165.625 7.16729 158.848Z" fill="white"/>
<path d="M52.2304 208.576C34.3034 197.64 28.5288 174.384 39.3327 156.631C50.1366 138.879 73.4276 133.353 91.3546 144.288C109.282 155.224 115.056 178.48 104.252 196.232C93.4485 213.985 70.1575 219.511 52.2304 208.576Z" fill="white"/>
<path d="M-15.2752 136.02C-33.2807 125.036 -38.8399 101.283 -27.692 82.9655C-16.544 64.6477 7.08946 58.702 25.0949 69.6854C43.1004 80.6687 48.6596 104.422 37.5117 122.74C26.3638 141.058 2.73031 147.003 -15.2752 136.02Z" fill="white"/>
<path d="M574.14 182.724C543.865 183.974 518.267 160.035 516.964 129.256C515.662 98.4766 539.15 72.5122 569.425 71.2628C599.699 70.0133 625.298 93.9521 626.6 124.731C627.902 155.511 604.415 181.475 574.14 182.724Z" fill="white"/>
<path d="M515.318 214.007C494.73 214.857 477.324 198.598 476.439 177.693C475.555 156.787 491.528 139.151 512.115 138.301C532.703 137.452 550.11 153.71 550.994 174.616C551.879 195.522 535.906 213.158 515.318 214.007Z" fill="white"/>
<path d="M202.168 159.968C187.879 151.251 182.544 133.916 190.253 121.249C197.962 108.582 215.795 105.38 230.085 114.097C244.374 122.814 249.709 140.148 242 152.815C234.291 165.482 216.458 168.685 202.168 159.968Z" fill="white"/>
<path d="M493.488 208.508C471.679 195.205 464.956 166.418 478.471 144.21C491.986 122.002 520.622 114.784 542.431 128.087C564.239 141.391 570.963 170.178 557.447 192.386C543.932 214.594 515.296 221.812 493.488 208.508Z" fill="white"/>
<path d="M257.7 194.209C234.449 180.026 225.768 151.82 238.312 131.209C250.855 110.598 279.872 105.387 303.124 119.571C326.375 133.754 335.056 161.96 322.512 182.571C309.969 203.182 280.951 208.393 257.7 194.209Z" fill="white"/>
</g>
<defs>
<linearGradient id="paint0_linear_1475_10996" x1="961.805" y1="-39.5186" x2="1378.31" y2="323.947" gradientUnits="userSpaceOnUse">
<stop offset="0.0752592" stop-color="#FFE36C"/>
<stop offset="0.34375" stop-color="#E0EA71"/>
<stop offset="0.512785" stop-color="#CCEE74"/>
<stop offset="0.945102" stop-color="#6DD1E1"/>
</linearGradient>
<clipPath id="clip0_1475_10996">
<rect width="183.776" height="174.692" fill="white" transform="matrix(0.999973 0.00633935 -0.00737193 0.999966 603.177 22.002)"/>
</clipPath>
</defs>
</svg>
