<svg width="1440" height="952" viewBox="0 0 1440 952" fill="none" xmlns="http://www.w3.org/2000/svg">
<mask id="mask0_1787_7571" style="mask-type:alpha" maskUnits="userSpaceOnUse" x="0" y="0" width="1440" height="952">
<rect width="1440" height="952" fill="#C4C4C4"/>
</mask>
<g mask="url(#mask0_1787_7571)">
<g opacity="0.8">
<g opacity="0.8">
<path opacity="0.8" d="M1446.75 -91.1138L-9.45215 -91.1138L-9.45216 1081.4L1446.75 1081.4L1446.75 -91.1138Z" fill="#45D5D9"/>
</g>
</g>
<g opacity="0.5">
<circle r="367.496" transform="matrix(-1 -1.23066e-09 -6.67576e-09 1 1202.26 458.398)" fill="white"/>
<circle r="191.07" transform="matrix(-1 -1.23066e-09 -6.67576e-09 1 1544.61 528.831)" fill="white"/>
<ellipse rx="290.789" ry="287.302" transform="matrix(-1 -1.23066e-09 -6.67576e-09 1 701.65 506.494)" fill="white"/>
<circle r="191.07" transform="matrix(-1 -1.23066e-09 -6.67576e-09 1 362.025 634.834)" fill="white"/>
<rect width="1893.96" height="308.222" rx="100" transform="matrix(-1 -1.23066e-09 -6.67576e-09 1 1884.96 565.084)" fill="white"/>
</g>
<path opacity="0.16" d="M80.1305 -64C80.1305 -64 638.941 121.78 954.5 165.777C1270.06 209.775 1437.96 250.118 1372.49 314.939C1307.03 379.76 455.274 253.783 396.108 471.331C336.941 688.879 1405.64 494.871 1540 797.806L1540 1036L-235 1036L-235 -64L80.1305 -64Z" fill="white"/>
<g style="mix-blend-mode:soft-light" opacity="0.32">
<path d="M-43.4605 1246C-43.4605 1246 445.145 974.255 721.059 909.898C996.973 845.542 1143.78 786.531 1086.54 691.716C1029.3 596.901 284.553 781.171 232.819 462.957C181.086 144.743 1115.52 428.525 1233 -14.5874L1233 -363L-319 -363L-319 1246L-43.4605 1246Z" fill="white" fill-opacity="0.75"/>
</g>
<path d="M1561.68 990.747C1611.4 971.213 1635.64 914.387 1615.83 863.824C1596.02 813.261 1539.66 788.107 1489.95 807.641C1440.24 827.176 1416 884.001 1435.8 934.564C1455.61 985.128 1511.97 1010.28 1561.68 990.747Z" fill="white"/>
<path d="M550.148 1027.67C648.378 989.07 696.279 876.786 657.138 776.875C617.997 676.964 506.636 627.261 408.407 665.86C310.177 704.459 262.276 816.744 301.416 916.655C340.557 1016.57 451.918 1066.27 550.148 1027.67Z" fill="white"/>
<path d="M359.602 1127.7C457.832 1089.1 505.733 976.816 466.592 876.905C427.452 776.994 316.091 727.291 217.861 765.89C119.631 804.489 71.7301 916.774 110.871 1016.69C150.012 1116.6 261.372 1166.3 359.602 1127.7Z" fill="white"/>
<path d="M815.903 1121.46C894.929 1090.41 933.497 1000.16 902.046 919.873C870.595 839.591 781.035 799.683 702.009 830.736C622.982 861.79 584.414 952.045 615.866 1032.33C647.317 1112.61 736.876 1152.52 815.903 1121.46Z" fill="white"/>
<path d="M1135.35 1260.04C1215.99 1228.36 1258.43 1144.12 1230.14 1071.89C1201.84 999.665 1113.53 966.803 1032.89 998.491C952.244 1030.18 909.808 1114.42 938.103 1186.64C966.398 1258.87 1054.71 1291.73 1135.35 1260.04Z" fill="white"/>
<path d="M1011.52 1159.66C1065.08 1138.61 1091.19 1077.39 1069.85 1022.92C1048.51 968.449 987.798 941.351 934.243 962.395C880.688 983.44 854.572 1044.66 875.912 1099.13C897.251 1153.6 957.965 1180.7 1011.52 1159.66Z" fill="white"/>
<path d="M1137.2 1029.46C1180.71 1012.36 1202.3 963.581 1185.42 920.504C1168.55 877.427 1119.6 856.367 1076.09 873.464C1032.58 890.561 1010.98 939.342 1027.86 982.419C1044.74 1025.5 1093.69 1046.56 1137.2 1029.46Z" fill="white"/>
<path d="M1261.02 1144.66C1310.93 1125.05 1335.7 1069.09 1316.34 1019.68C1296.98 970.266 1240.83 946.108 1190.92 965.72C1141.01 985.332 1116.24 1041.29 1135.6 1090.7C1154.96 1140.12 1211.11 1164.27 1261.02 1144.66Z" fill="white"/>
<path d="M1368.34 1067.95C1449.23 1036.16 1488.67 943.702 1456.44 861.428C1424.21 779.154 1332.51 738.226 1251.62 770.011C1170.73 801.796 1131.28 894.259 1163.52 976.533C1195.75 1058.81 1287.45 1099.74 1368.34 1067.95Z" fill="white"/>
<path d="M159.893 117.891C161.945 132.387 153.318 156.15 138.826 158.196C124.334 160.243 109.454 139.81 107.403 125.318C106.447 118.371 108.283 111.328 112.508 105.731C116.734 100.135 123.005 96.4408 129.949 95.4584C136.892 94.4759 143.942 96.2851 149.555 100.49C155.167 104.694 158.885 110.951 159.893 117.891Z" fill="#F95A5A"/>
<path d="M137.967 159.13C142.984 186.433 147.993 213.738 152.996 241.044L137.967 159.13Z" fill="#FFE36C"/>
<path d="M137.967 159.13C142.984 186.433 147.993 213.738 152.996 241.044" stroke="white" stroke-width="2" stroke-miterlimit="10"/>
<path d="M139.064 154.965L140.273 162.197C140.333 162.565 140.292 162.942 140.155 163.289C140.018 163.635 139.789 163.938 139.493 164.165C139.198 164.391 138.846 164.534 138.476 164.577C138.105 164.619 137.731 164.561 137.391 164.407L135.415 163.512C135.128 163.382 134.874 163.187 134.674 162.944C134.474 162.7 134.332 162.413 134.261 162.106C134.189 161.799 134.189 161.479 134.26 161.172C134.332 160.865 134.473 160.578 134.673 160.334L139.064 154.965Z" fill="#F95A5A"/>
<path d="M113.907 122.364C113.621 119.161 114.243 115.942 115.704 113.076" stroke="white" stroke-width="5" stroke-linecap="round" stroke-linejoin="round"/>
<path opacity="0.1" d="M160.109 117.864C162.16 132.359 153.536 156.118 139.04 158.165C134.092 158.868 129.089 156.944 124.578 153.524C134.065 150.172 142.1 143.64 147.319 135.038C152.538 126.435 154.62 116.292 153.211 106.329C153.042 105.131 152.827 103.944 152.561 102.787C156.66 106.851 159.311 112.147 160.109 117.864Z" fill="black"/>
<path d="M149.083 242.163C149.083 242.163 147.55 236.124 150.894 234.569C154.239 233.014 154.791 239.301 154.791 239.301L155.501 242.984L150.568 247.375C150.568 247.375 149.373 243.892 149.083 242.163Z" fill="#EFD565"/>
<path d="M170.969 270.964L179.58 276.812C180.044 277.127 180.676 277.006 180.992 276.542L181.363 275.994C181.679 275.53 181.558 274.898 181.094 274.582L172.483 268.735C172.018 268.419 171.386 268.54 171.071 269.004L170.699 269.552C170.384 270.016 170.504 270.648 170.969 270.964Z" fill="#FFBB4D"/>
<path d="M147.139 266.184L157.271 266.064C157.833 266.057 158.282 265.597 158.276 265.036L158.268 264.374C158.261 263.812 157.801 263.363 157.24 263.369L147.107 263.49C146.546 263.496 146.096 263.957 146.103 264.518L146.111 265.18C146.117 265.741 146.578 266.191 147.139 266.184Z" fill="#FFBB4D"/>
<path d="M187.102 229.528C182.353 226.189 176.764 224.246 170.967 223.919L170.917 223.927C168.376 223.782 165.841 224.31 163.57 225.458C161.298 226.606 159.37 228.334 157.98 230.466C155.325 234.528 149.25 248.496 147.776 252.752C147.776 252.752 144.181 261.378 164.56 268.419C184.94 275.46 187.374 266.461 187.374 266.461C187.374 266.461 189.503 260.323 190.262 257.607C191.319 253.852 192.681 248.224 193.194 242.699C193.426 240.162 192.985 237.609 191.915 235.296C190.846 232.984 189.186 230.994 187.102 229.528Z" fill="#FFE36C"/>
<path d="M163.085 238.01C164.347 237.79 165.192 236.588 164.972 235.325C164.752 234.063 163.55 233.218 162.288 233.438C161.025 233.658 160.18 234.86 160.4 236.122C160.62 237.385 161.822 238.23 163.085 238.01Z" fill="black"/>
<path d="M180.687 244.106C181.95 243.886 182.795 242.684 182.574 241.421C182.354 240.159 181.152 239.314 179.89 239.534C178.627 239.754 177.782 240.956 178.002 242.218C178.223 243.481 179.424 244.326 180.687 244.106Z" fill="black"/>
<path d="M160.765 262.701C160.829 262.724 160.897 262.734 160.966 262.731C161.034 262.727 161.1 262.71 161.162 262.68L164.11 261.242C164.224 261.175 164.309 261.068 164.348 260.942C164.386 260.815 164.376 260.679 164.318 260.56C164.261 260.441 164.16 260.349 164.037 260.301C163.914 260.253 163.777 260.253 163.654 260.301L160.706 261.739C160.581 261.8 160.486 261.908 160.441 262.038C160.395 262.169 160.403 262.313 160.463 262.437C160.493 262.499 160.536 262.555 160.588 262.6C160.639 262.645 160.7 262.679 160.765 262.701Z" fill="#FFBB4D"/>
<path d="M162.958 263.479C163.088 263.522 163.23 263.513 163.353 263.454C163.415 263.425 163.471 263.383 163.517 263.332C163.562 263.281 163.598 263.221 163.62 263.156C163.643 263.091 163.652 263.022 163.648 262.954C163.644 262.885 163.626 262.818 163.596 262.756L162.162 259.807C162.135 259.74 162.095 259.679 162.044 259.628C161.993 259.577 161.932 259.537 161.865 259.511C161.797 259.485 161.726 259.473 161.653 259.476C161.581 259.479 161.511 259.496 161.446 259.528C161.381 259.559 161.323 259.604 161.276 259.659C161.229 259.713 161.194 259.777 161.173 259.846C161.152 259.915 161.145 259.988 161.154 260.06C161.162 260.131 161.185 260.2 161.221 260.263L162.655 263.212C162.717 263.338 162.826 263.434 162.958 263.479Z" fill="#FFBB4D"/>
<path d="M181.818 252.576C183.775 252.235 185.085 250.372 184.744 248.415C184.402 246.458 182.539 245.148 180.582 245.489C178.625 245.83 177.315 247.694 177.656 249.651C177.998 251.608 179.861 252.918 181.818 252.576Z" fill="#FFA052"/>
<path d="M158.29 244.428C160.247 244.087 161.557 242.224 161.216 240.267C160.875 238.31 159.012 237 157.055 237.341C155.098 237.682 153.788 239.545 154.129 241.502C154.47 243.459 156.333 244.769 158.29 244.428Z" fill="#FFA052"/>
<path d="M166.076 243.742L171.512 245.63C172.259 245.883 173.076 245.83 173.784 245.482C174.492 245.133 175.032 244.518 175.287 243.772C175.818 242.228 172.199 239.819 170.654 239.285C169.11 238.754 164.773 238.402 164.238 239.943C164.109 240.314 164.054 240.705 164.077 241.097C164.1 241.488 164.199 241.871 164.37 242.224C164.54 242.577 164.779 242.892 165.072 243.153C165.365 243.413 165.706 243.614 166.076 243.742Z" fill="#FFBB4D"/>
<path d="M180.046 225.832C180.046 225.832 180.901 222.687 179.696 220.018C179.666 219.955 179.62 219.902 179.561 219.865C179.503 219.827 179.435 219.807 179.366 219.806C179.296 219.806 179.228 219.824 179.169 219.86C179.11 219.896 179.062 219.948 179.031 220.01C178.336 221.381 177.412 222.624 176.3 223.685C175.985 223.934 175.621 224.113 175.232 224.21C174.843 224.306 174.437 224.319 174.042 224.247" fill="#FFE36C"/>
<path d="M176.528 224.763C178.397 224.216 180.127 223.273 181.601 221.999C181.653 221.952 181.717 221.921 181.785 221.909C181.854 221.897 181.925 221.905 181.989 221.932C182.054 221.959 182.109 222.004 182.149 222.062C182.188 222.119 182.211 222.187 182.214 222.256C182.172 223.132 182.017 223.998 181.751 224.832C181.636 225.235 181.664 225.664 181.83 226.048C181.996 226.431 182.29 226.746 182.662 226.937" fill="#FFE36C"/>
<path d="M184.384 274.888C185.792 276.406 185.91 278.597 184.644 279.774L187.199 282.528L205.578 265.454L203.019 262.701C201.753 263.882 199.577 263.601 198.164 262.084C196.752 260.567 196.638 258.375 197.904 257.198L195.349 254.444L176.97 271.518L179.529 274.271C180.796 273.094 182.971 273.371 184.384 274.888Z" fill="#E66560" stroke="#45D5D9" stroke-width="0.25" stroke-miterlimit="10"/>
<path d="M192.671 257.578C192.671 257.578 195.892 262.907 193.145 265.366C190.398 267.824 188.046 261.972 188.046 261.972L186.295 258.65L189.74 253.014C189.74 253.014 191.903 256.016 192.671 257.578Z" fill="#FFE36C"/>
<path d="M152.137 238.211C151.083 240.231 149.585 241.986 147.757 243.346C146.034 244.658 145.223 244.867 144.556 244.804C143.401 244.693 142.023 243.833 141.87 242.588C141.717 241.343 142.757 240.01 143.836 239.846C145.964 239.531 149.583 243.723 149.215 247.879C148.911 251.339 145.853 254.631 143.623 254.364C142.777 254.26 141.772 253.611 141.648 252.785C141.524 251.959 142.364 250.88 143.271 250.622C145.355 250.027 148.98 253.206 149.696 256.925C150.312 260.133 148.577 262.775 148.049 263.535" stroke="white" stroke-width="2" stroke-linecap="round" stroke-linejoin="round"/>
</g>
</svg>
