<svg width="142" height="268" viewBox="0 0 142 268" fill="none" xmlns="http://www.w3.org/2000/svg">
<path d="M76.4566 37.0332C79.213 56.5129 67.62 88.4474 48.1446 91.1976C28.6692 93.9478 8.67291 66.4885 5.91746 47.014C4.63237 37.678 7.09927 28.2132 12.778 20.6922C18.4567 13.1712 26.8843 8.20705 36.2154 6.88676C45.5465 5.56647 55.0206 7.99768 62.5629 13.648C70.1053 19.2983 75.1012 27.7072 76.4566 37.0332Z" fill="#F95A5A"/>
<path d="M46.9929 92.4508C53.7341 129.143 60.4661 165.836 67.1887 202.532L46.9929 92.4508Z" fill="#FFE36C"/>
<path d="M46.9929 92.4508C53.7341 129.143 60.4661 165.836 67.1887 202.532" stroke="white" stroke-width="2" stroke-miterlimit="10"/>
<path d="M48.4606 86.8569L50.085 96.5754C50.1658 97.0696 50.111 97.5766 49.9265 98.0422C49.742 98.5078 49.4347 98.9146 49.0372 99.2194C48.6398 99.5242 48.1672 99.7154 47.6696 99.7728C47.1721 99.8302 46.6683 99.7516 46.2119 99.5454L43.5569 98.3422C43.1706 98.1674 42.8298 97.906 42.5607 97.5784C42.2916 97.2507 42.1015 96.8656 42.0051 96.4527C41.9087 96.0399 41.9086 95.6103 42.0048 95.1974C42.101 94.7845 42.2908 94.3992 42.5597 94.0715L48.4606 86.8569Z" fill="#F95A5A"/>
<path d="M14.66 43.0437C14.275 38.7393 15.1116 34.4134 17.0739 30.563" stroke="white" stroke-width="5" stroke-linecap="round" stroke-linejoin="round"/>
<path opacity="0.1" d="M76.7473 36.9961C79.5037 56.4758 67.915 88.4041 48.4344 91.1552C41.7844 92.0995 35.062 89.5148 28.9991 84.918C41.7484 80.4132 52.5462 71.6357 59.5599 60.0752C66.5736 48.5147 69.3711 34.8834 67.4776 21.4949C67.2506 19.8845 66.9619 18.2903 66.6048 16.7349C72.1126 22.1962 75.6757 29.3141 76.7473 36.9961Z" fill="black"/>
<path d="M61.9311 204.038C61.9311 204.038 59.8713 195.922 64.3655 193.832C68.8596 191.743 69.6014 200.191 69.6014 200.191L70.5557 205.141L63.9261 211.042C63.9261 211.042 62.3201 206.362 61.9311 204.038Z" fill="#EFD565"/>
<path d="M91.3463 242.741L102.918 250.6C103.542 251.024 104.392 250.861 104.816 250.237L105.315 249.501C105.739 248.877 105.577 248.028 104.953 247.604L93.3808 239.745C92.7567 239.322 91.9072 239.484 91.4834 240.108L90.9837 240.844C90.5598 241.468 90.7222 242.317 91.3463 242.741Z" fill="#FFBB4D"/>
<path d="M59.3224 236.319L72.9388 236.158C73.6932 236.149 74.2974 235.53 74.2885 234.775L74.278 233.886C74.269 233.132 73.6503 232.527 72.8959 232.536L59.2795 232.698C58.5251 232.707 57.9209 233.325 57.9298 234.08L57.9403 234.969C57.9493 235.724 58.5681 236.328 59.3224 236.319Z" fill="#FFBB4D"/>
<path d="M113.029 187.056C106.647 182.569 99.136 179.958 91.3465 179.518L91.2787 179.53C87.8638 179.334 84.4579 180.044 81.4052 181.587C78.3524 183.13 75.761 185.451 73.8929 188.316C70.3248 193.775 62.1607 212.547 60.1804 218.266C60.1804 218.266 55.3488 229.857 82.7359 239.319C110.123 248.782 113.395 236.689 113.395 236.689C113.395 236.689 116.256 228.44 117.275 224.791C118.696 219.744 120.526 212.18 121.215 204.756C121.527 201.347 120.935 197.915 119.498 194.808C118.06 191.7 115.829 189.026 113.029 187.056Z" fill="#FFE36C"/>
<path d="M80.7472 198.455C82.4439 198.159 83.5796 196.544 83.2838 194.848C82.988 193.151 81.3728 192.015 79.6761 192.311C77.9794 192.607 76.8438 194.222 77.1396 195.919C77.4353 197.615 79.0506 198.751 80.7472 198.455Z" fill="black"/>
<path d="M104.401 206.647C106.098 206.351 107.234 204.736 106.938 203.039C106.642 201.343 105.027 200.207 103.33 200.503C101.633 200.799 100.498 202.414 100.794 204.11C101.089 205.807 102.705 206.943 104.401 206.647Z" fill="black"/>
<path d="M77.6285 231.636C77.7146 231.667 77.8061 231.681 77.8977 231.676C77.9892 231.671 78.0788 231.648 78.161 231.608L82.1236 229.675C82.2771 229.586 82.3912 229.442 82.443 229.272C82.4949 229.102 82.4806 228.919 82.4032 228.759C82.3257 228.6 82.1907 228.475 82.0253 228.411C81.8598 228.346 81.6761 228.346 81.511 228.412L77.5484 230.344C77.3812 230.426 77.2531 230.57 77.1921 230.746C77.1311 230.922 77.1422 231.114 77.2229 231.282C77.2632 231.365 77.32 231.439 77.3897 231.5C77.4594 231.561 77.5406 231.607 77.6285 231.636Z" fill="#FFBB4D"/>
<path d="M80.5818 232.682C80.7567 232.74 80.9471 232.728 81.1134 232.648C81.1967 232.608 81.2712 232.552 81.3327 232.484C81.3942 232.415 81.4415 232.334 81.4717 232.247C81.502 232.16 81.5147 232.068 81.5091 231.975C81.5034 231.883 81.4796 231.793 81.4389 231.71L79.5118 227.747C79.4763 227.657 79.4224 227.575 79.3537 227.506C79.285 227.438 79.203 227.384 79.1126 227.349C79.0223 227.314 78.9257 227.298 78.8288 227.302C78.7319 227.306 78.6369 227.329 78.5497 227.372C78.4625 227.414 78.3849 227.474 78.3219 227.547C78.2588 227.621 78.2117 227.707 78.1834 227.8C78.1551 227.892 78.1462 227.99 78.1574 228.086C78.1685 228.183 78.1995 228.276 78.2482 228.359L80.1752 232.323C80.2579 232.492 80.4041 232.621 80.5818 232.682Z" fill="#FFBB4D"/>
<path d="M105.924 218.032C108.554 217.573 110.315 215.069 109.856 212.439C109.398 209.809 106.894 208.049 104.264 208.507C101.634 208.966 99.8736 211.47 100.332 214.1C100.791 216.73 103.294 218.49 105.924 218.032Z" fill="#FFA052"/>
<path d="M74.3018 207.081C76.9317 206.623 78.6921 204.119 78.2336 201.489C77.7751 198.859 75.2714 197.099 72.6414 197.557C70.0114 198.016 68.2511 200.519 68.7096 203.149C69.168 205.779 71.6718 207.54 74.3018 207.081Z" fill="#FFA052"/>
<path d="M84.772 206.158L92.0772 208.695C93.0811 209.035 94.1791 208.964 95.1302 208.496C96.0814 208.028 96.808 207.201 97.1506 206.198C97.8637 204.123 93 200.886 90.9239 200.168C88.8487 199.455 83.0212 198.982 82.302 201.053C82.1287 201.55 82.0551 202.077 82.0854 202.603C82.1158 203.129 82.2495 203.643 82.4789 204.117C82.7083 204.592 83.0289 205.016 83.4223 205.366C83.8158 205.716 84.2744 205.985 84.772 206.158Z" fill="#FFBB4D"/>
<path d="M103.54 182.09C103.54 182.09 104.69 177.865 103.07 174.278C103.03 174.193 102.967 174.122 102.889 174.072C102.811 174.022 102.72 173.994 102.626 173.993C102.533 173.992 102.442 174.017 102.362 174.065C102.282 174.114 102.218 174.184 102.176 174.267C101.242 176.11 100.001 177.78 98.5066 179.206C98.0836 179.54 97.5942 179.78 97.071 179.911C96.5479 180.041 96.003 180.058 95.4727 179.961" fill="#FFE36C"/>
<path d="M98.8192 180.654C101.331 179.918 103.656 178.652 105.637 176.94C105.706 176.877 105.792 176.835 105.884 176.819C105.977 176.803 106.072 176.814 106.158 176.85C106.245 176.886 106.319 176.946 106.373 177.024C106.426 177.101 106.456 177.191 106.46 177.285C106.404 178.461 106.195 179.625 105.838 180.747C105.684 181.287 105.721 181.865 105.944 182.38C106.168 182.896 106.563 183.318 107.062 183.576" fill="#FFE36C"/>
<path d="M109.375 248.014C111.267 250.054 111.426 252.998 109.724 254.579L113.158 258.28L137.857 235.336L134.418 231.636C132.717 233.223 129.792 232.846 127.894 230.807C125.996 228.767 125.843 225.822 127.545 224.241L124.11 220.54L99.4112 243.484L102.851 247.184C104.553 245.603 107.477 245.974 109.375 248.014Z" fill="#E66560" stroke="#45D5D9" stroke-width="0.25" stroke-miterlimit="10"/>
<path d="M120.512 224.753C120.512 224.753 124.84 231.915 121.149 235.219C117.457 238.523 114.297 230.658 114.297 230.658L111.944 226.193L116.573 218.62C116.573 218.62 119.48 222.655 120.512 224.753Z" fill="#FFE36C"/>
<path d="M66.0379 198.727C64.6212 201.441 62.6091 203.8 60.1521 205.627C57.8369 207.39 56.7466 207.672 55.8503 207.586C54.2981 207.437 52.4468 206.282 52.2411 204.609C52.0354 202.936 53.4321 201.145 54.8824 200.924C57.7429 200.501 62.6053 206.134 62.1116 211.718C61.7023 216.369 57.5937 220.793 54.5968 220.434C53.4598 220.294 52.1094 219.422 51.9427 218.312C51.776 217.202 52.9046 215.753 54.1233 215.406C56.9236 214.606 61.7958 218.878 62.7583 223.875C63.5851 228.186 61.2536 231.737 60.5448 232.758" stroke="white" stroke-width="2" stroke-linecap="round" stroke-linejoin="round"/>
</svg>
