<svg width="584" height="599" viewBox="0 0 584 599" fill="none" xmlns="http://www.w3.org/2000/svg">
<path d="M432.412 583.774C487.764 577.188 526.997 525.768 520.041 468.924C513.085 412.08 462.574 371.339 407.221 377.925C351.869 384.512 312.636 435.932 319.592 492.776C326.548 549.619 377.059 590.361 432.412 583.774Z" fill="white"/>
<path d="M139.897 195.21L106.227 179.172L54.7238 292.423L88.3938 308.462L139.897 195.21Z" fill="white"/>
<path d="M213.646 230.343L179.976 214.304L105.704 377.623L139.374 393.661L213.646 230.343Z" fill="white"/>
<path d="M5.93029 511.373C25.4793 514.195 43.6228 500.194 46.455 480.101C49.2872 460.008 35.7355 441.431 16.1866 438.609C-3.36238 435.787 -21.5059 449.789 -24.3381 469.882C-27.1703 489.975 -13.6187 508.551 5.93029 511.373Z" fill="white"/>
<path d="M113.325 453.348C133.256 456.225 151.691 442.393 154.502 422.453C157.313 402.512 143.434 384.015 123.503 381.138C103.572 378.261 85.1368 392.093 82.3262 412.034C79.5155 431.974 93.3942 450.471 113.325 453.348Z" fill="white"/>
<path d="M82.6888 396.231C102.238 399.053 120.381 385.052 123.213 364.959C126.046 344.865 112.494 326.289 92.9451 323.467C73.3961 320.645 55.2526 334.646 52.4204 354.739C49.5882 374.832 63.1398 393.409 82.6888 396.231Z" fill="white"/>
<path d="M21.5002 259.422C35.7815 261.484 49.036 251.256 51.105 236.577C53.174 221.898 43.2741 208.327 28.9928 206.266C14.7115 204.204 1.457 214.432 -0.612029 229.111C-2.68106 243.79 7.21892 257.361 21.5002 259.422Z" fill="white"/>
<path d="M0.800152 276.256C14.1257 278.18 26.4932 268.636 28.4238 254.939C30.3543 241.243 21.1169 228.58 7.79134 226.656C-5.53419 224.733 -17.9017 234.277 -19.8323 247.973C-21.7628 261.67 -12.5254 274.332 0.800152 276.256Z" fill="white"/>
<path d="M-31.2917 244.213C1.33154 248.922 31.6093 225.557 36.3357 192.026C41.062 158.494 18.4472 127.494 -14.176 122.784C-46.7993 118.075 -77.0771 141.44 -81.8034 174.972C-86.5298 208.503 -63.9149 239.503 -31.2917 244.213Z" fill="white"/>
<path d="M21.5404 329.113C29.5658 330.272 37.0142 324.524 38.1769 316.275C39.3396 308.026 33.7763 300.4 25.7509 299.241C17.7256 298.083 10.2772 303.831 9.11448 312.08C7.95179 320.328 13.5151 327.955 21.5404 329.113Z" fill="white"/>
<path d="M64.3594 271.97C81.1138 274.389 96.5791 262.988 98.9023 246.506C101.225 230.025 89.5266 214.703 72.7722 212.284C56.0179 209.866 40.5525 221.266 38.2294 237.748C35.9062 254.23 47.605 269.551 64.3594 271.97Z" fill="white"/>
<path d="M165.09 428.318C193.828 432.466 220.499 411.884 224.663 382.346C228.826 352.809 208.905 325.501 180.167 321.353C151.43 317.204 124.759 337.786 120.595 367.324C116.432 396.861 136.353 424.169 165.09 428.318Z" fill="white"/>
<path d="M96.2232 475.28C134.267 480.772 169.575 453.524 175.087 414.422C180.599 375.319 154.226 339.168 116.183 333.676C78.139 328.184 42.8305 355.431 37.3188 394.534C31.8072 433.637 58.1796 469.788 96.2232 475.28Z" fill="white"/>
<path d="M74.258 864.961C184.111 880.819 286.066 802.142 301.981 689.231C317.896 576.319 241.745 471.931 131.892 456.074C22.0391 440.216 -79.916 518.893 -95.8311 631.804C-111.746 744.716 -35.5948 849.104 74.258 864.961Z" fill="white"/>
<path d="M160.144 650.446C191.095 654.914 219.822 632.747 224.306 600.933C228.79 569.12 207.334 539.708 176.382 535.24C145.431 530.772 116.704 552.94 112.22 584.753C107.736 616.566 129.192 645.978 160.144 650.446Z" fill="white"/>
<path d="M270.609 627.436C298.267 631.428 323.937 611.619 327.944 583.191C331.951 554.763 312.778 528.481 285.12 524.488C257.462 520.496 231.792 540.305 227.785 568.733C223.778 597.161 242.951 623.443 270.609 627.436Z" fill="white"/>
<path d="M327.329 469.773C360.915 465.776 384.72 434.576 380.5 400.085C376.279 365.594 345.63 340.874 312.044 344.87C278.458 348.867 254.653 380.067 258.873 414.558C263.094 449.049 293.743 473.769 327.329 469.773Z" fill="white"/>
<path d="M111.475 627.961C166.843 635.953 218.23 596.298 226.252 539.389C234.273 482.48 195.891 429.866 140.524 421.874C85.1558 413.881 33.7685 453.536 25.747 510.445C17.7254 567.355 56.1072 619.968 111.475 627.961Z" fill="white"/>
<path d="M233.562 461.062C256.934 458.281 273.5 436.57 270.563 412.568C267.626 388.566 246.298 371.363 222.926 374.145C199.554 376.926 182.988 398.637 185.925 422.639C188.862 446.641 210.19 463.844 233.562 461.062Z" fill="white"/>
<path d="M320.496 642.018C339.675 644.786 357.475 631.05 360.253 611.338C363.032 591.625 349.737 573.4 330.558 570.632C311.379 567.863 293.58 581.599 290.801 601.312C288.022 621.025 301.317 639.249 320.496 642.018Z" fill="white"/>
<path d="M212.264 708.802C239.922 712.795 265.592 692.986 269.599 664.558C273.606 636.13 254.433 609.848 226.775 605.855C199.117 601.862 173.447 621.671 169.44 650.099C165.433 678.528 184.606 704.81 212.264 708.802Z" fill="white"/>
<path d="M407.741 768.788C450.508 774.961 490.201 744.331 496.397 700.372C502.593 656.414 472.946 615.774 430.179 609.6C387.411 603.427 347.718 634.057 341.522 678.015C335.326 721.974 364.973 762.614 407.741 768.788Z" fill="white"/>
<path d="M262.16 656.602C281.339 659.37 299.139 645.634 301.918 625.922C304.696 606.209 291.401 587.984 272.222 585.216C253.044 582.447 235.244 596.183 232.465 615.896C229.687 635.609 242.982 653.833 262.16 656.602Z" fill="white"/>
<path d="M193.163 552.443C231.567 547.873 258.788 512.197 253.961 472.758C249.135 433.32 214.09 405.053 175.686 409.622C137.281 414.192 110.061 449.868 114.887 489.307C119.714 528.746 154.759 557.013 193.163 552.443Z" fill="white"/>
<path d="M109.617 337.038C127.644 339.641 144.318 327.13 146.86 309.094C149.402 291.059 136.85 274.329 118.823 271.727C100.796 269.125 84.1218 281.636 81.5797 299.671C79.0376 317.706 91.5903 334.436 109.617 337.038Z" fill="white"/>
<path d="M69.1898 364.585C87.2165 367.187 103.891 354.677 106.433 336.641C108.975 318.606 96.4223 301.876 78.3956 299.274C60.3689 296.671 43.6946 309.182 41.1524 327.218C38.6103 345.253 51.1631 361.983 69.1898 364.585Z" fill="white"/>
<path d="M20.5329 363.118C51.6199 367.606 80.3747 346.031 84.7586 314.929C89.1425 283.827 67.4954 254.976 36.4083 250.488C5.32135 246.001 -23.4335 267.576 -27.8174 298.678C-32.2012 329.78 -10.5541 358.63 20.5329 363.118Z" fill="white"/>
<path d="M16.1731 482.251C55.5989 487.943 92.067 460.58 97.6269 421.135C103.187 381.691 75.7328 345.101 36.307 339.41C-3.11887 333.718 -39.587 361.081 -45.1468 400.525C-50.7066 439.97 -23.2528 476.56 16.1731 482.251Z" fill="white"/>
<path d="M277.07 127.244L235.369 218.953C234.427 221.022 232.725 222.625 230.638 223.411C228.551 224.198 226.249 224.102 224.238 223.146L178.622 201.421C177.626 200.947 176.732 200.276 175.99 199.445C175.249 198.615 174.674 197.642 174.3 196.582C173.925 195.522 173.758 194.395 173.807 193.267C173.857 192.138 174.122 191.03 174.588 190.005L216.289 98.2962C224.155 81.043 253.389 53.0828 270.167 61.0827C286.945 69.0826 284.902 109.971 277.07 127.244Z" fill="#173A52"/>
<path d="M183.208 203.609L219.93 221.1L222.071 229.5C222.195 229.991 222.181 230.509 222.03 230.993C221.879 231.477 221.597 231.908 221.217 232.235C220.837 232.561 220.375 232.771 219.885 232.839C219.395 232.906 218.897 232.829 218.449 232.617L175.55 212.188C175.103 211.974 174.725 211.634 174.46 211.206C174.195 210.779 174.054 210.283 174.054 209.775C174.053 209.267 174.194 208.769 174.458 208.339C174.722 207.909 175.1 207.564 175.547 207.346L183.208 203.609Z" fill="#173A52"/>
<path d="M203.163 92.0508L161.463 183.752C160.998 184.778 160.341 185.7 159.529 186.467C158.718 187.233 157.768 187.828 156.734 188.218C155.7 188.609 154.603 188.786 153.504 188.74C152.405 188.695 151.327 188.427 150.33 187.953L104.722 166.229C102.711 165.271 101.156 163.531 100.398 161.39C99.64 159.249 99.742 156.883 100.681 154.812L142.382 63.1028C150.248 45.8495 179.482 17.8893 196.26 25.8892C213.038 33.8891 210.999 74.7472 203.163 92.0508Z" fill="#173A52"/>
<path d="M109.313 168.414L146.058 185.901L148.205 194.309C148.327 194.801 148.311 195.318 148.159 195.801C148.006 196.285 147.723 196.714 147.343 197.04C146.963 197.367 146.502 197.576 146.012 197.644C145.522 197.712 145.024 197.636 144.576 197.425L101.655 176.993C101.208 176.779 100.83 176.438 100.565 176.011C100.3 175.584 100.159 175.087 100.159 174.579C100.158 174.072 100.299 173.574 100.563 173.144C100.827 172.713 101.205 172.369 101.652 172.15L109.313 168.414Z" fill="#173A52"/>
<path d="M166.427 48.0086C171.18 41.6748 177.569 36.8373 184.861 34.0509" stroke="white" stroke-width="3" stroke-linecap="round" stroke-linejoin="round"/>
<path d="M256.961 211.473L283.985 224.346L277.679 238.213C277.114 239.455 276.092 240.419 274.839 240.891C273.585 241.363 272.203 241.305 270.995 240.73L253.07 232.192C251.863 231.616 250.929 230.571 250.475 229.285C250.021 228 250.083 226.579 250.648 225.336L256.954 211.47L256.961 211.473Z" fill="#4B9B3A"/>
<path d="M327.291 192.748C327.291 192.748 329.653 219.469 314.777 223.888C299.901 228.307 301.766 201.169 301.766 201.169L301.256 185.006L324.589 169.556C324.589 169.556 327.245 185.248 327.291 192.748Z" fill="#4B9B3A"/>
<path d="M375.084 232.239C375.155 240.246 381.097 246.907 388.331 247.09L388.462 261.604L283.507 258.935L283.377 244.414C290.598 244.595 296.414 238.234 296.35 230.228C296.286 222.223 290.337 215.56 283.102 215.377L282.972 200.857L387.926 203.532L388.056 218.053C380.837 217.866 374.991 224.223 375.084 232.239Z" fill="#E66560"/>
<path d="M176.183 99.103C176.183 99.103 113.357 173.411 222.491 217.614C315.202 255.163 324.487 169.724 324.487 169.724C330.673 167.578 336.28 163.952 340.844 159.147C345.407 154.341 348.796 148.493 350.73 142.087C352.663 135.68 353.086 128.9 351.964 122.306C350.842 115.712 348.206 109.495 344.275 104.167L344.286 104.092C345.971 102.079 347.384 99.842 348.488 97.4426C351.3 91.2548 351.971 84.2744 350.391 77.6603C348.81 71.0461 345.072 65.1959 339.798 61.0811C334.524 56.9662 328.03 54.8341 321.396 55.0387C314.761 55.2433 308.384 57.7723 303.324 62.2058L301.925 61.5519L276.867 49.6215L275.994 49.2043C276.123 41.8973 273.633 34.8084 268.998 29.285C264.363 23.7616 257.907 20.1888 250.857 19.2458C243.806 18.3027 236.653 20.0551 230.756 24.1699C224.86 28.2847 220.631 34.475 218.875 41.5641L218.816 41.5557C211.798 40.8152 204.705 41.9455 198.221 44.8374C191.736 47.7294 186.079 52.2854 181.795 58.0663C177.511 63.8473 174.744 70.658 173.762 77.8419C172.78 85.0257 173.615 92.3404 176.186 99.0805L176.183 99.103Z" fill="#49B236"/>
<path d="M161.498 166.006L186.777 178.047L180.334 192.217C179.805 193.379 178.849 194.281 177.677 194.722C176.504 195.164 175.211 195.11 174.081 194.572L157.313 186.584C156.184 186.046 155.31 185.068 154.886 183.866C154.461 182.663 154.519 181.334 155.048 180.172L161.491 166.002L161.498 166.006Z" fill="#49B236"/>
<path d="M287.099 186.618L268.728 227.041C256.265 227.725 241.045 225.121 222.506 217.611C202.095 209.362 187.71 200.045 177.788 190.368L198.649 144.489C201.322 138.643 206.137 134.114 212.038 131.891C217.94 129.669 224.448 129.934 230.138 132.63L275.712 154.333C281.382 157.061 285.761 161.987 287.895 168.035C290.028 174.084 289.742 180.764 287.099 186.618Z" fill="#9CD43D"/>
<path d="M315.786 106.445C321.108 107.213 326.047 103.402 326.818 97.9316C327.59 92.4614 323.9 87.4042 318.578 86.6359C313.256 85.8677 308.317 89.6793 307.546 95.1495C306.775 100.62 310.464 105.677 315.786 106.445Z" fill="black"/>
<path d="M245.075 72.7686C250.397 73.5369 255.336 69.7253 256.107 64.2551C256.878 58.7849 253.189 53.7277 247.867 52.9594C242.545 52.1912 237.605 56.0028 236.834 61.473C236.063 66.9432 239.753 72.0004 245.075 72.7686Z" fill="black"/>
<path d="M269.552 84.9369L290.181 94.7569C291.182 95.2321 292.049 95.9591 292.703 96.871C293.356 97.7828 293.775 98.85 293.92 99.9741C294.066 101.098 293.933 102.243 293.534 103.303C293.136 104.363 292.484 105.304 291.639 106.039C287.341 109.725 280.698 112.482 271.554 108.127C262.409 103.773 260.195 96.7954 260.186 91.04C260.194 89.9073 260.479 88.7935 261.015 87.8012C261.551 86.809 262.321 85.9702 263.254 85.3622C264.187 84.7542 265.253 84.3966 266.354 84.3223C267.454 84.2479 268.554 84.4593 269.552 84.9369Z" fill="white"/>
<path d="M343.215 138.508C347.029 130.12 343.159 120.004 334.57 115.913C325.981 111.821 315.927 115.304 312.112 123.692C308.297 132.08 312.168 142.197 320.756 146.288C329.345 150.379 339.4 146.896 343.215 138.508Z" fill="#9CD43D"/>
<path d="M233.823 86.4016C237.638 78.0136 233.767 67.8972 225.179 63.806C216.59 59.7147 206.535 63.1979 202.72 71.5859C198.906 79.9739 202.776 90.0903 211.365 94.1816C219.954 98.2728 230.008 94.7896 233.823 86.4016Z" fill="#9CD43D"/>
<path d="M235.894 204.332C235.632 204.209 235.397 204.034 235.202 203.816C235.008 203.599 234.857 203.343 234.76 203.065L230.054 189.751C229.947 189.217 230.03 188.659 230.289 188.181C230.548 187.703 230.966 187.335 231.465 187.146C231.965 186.957 232.514 186.959 233.011 187.151C233.508 187.343 233.921 187.713 234.173 188.193L238.885 201.515C239.021 201.932 239.035 202.382 238.928 202.808C238.82 203.235 238.594 203.621 238.277 203.919C237.96 204.217 237.566 204.415 237.143 204.489C236.72 204.562 236.286 204.508 235.894 204.332Z" fill="#49B236"/>
<path d="M227.076 200.124C226.692 199.929 226.372 199.624 226.155 199.245C225.937 198.866 225.832 198.43 225.851 197.99C225.87 197.55 226.014 197.124 226.264 196.765C226.514 196.406 226.86 196.129 227.26 195.967L240.249 191.077C240.529 190.919 240.839 190.825 241.157 190.801C241.475 190.778 241.794 190.825 242.092 190.94C242.39 191.055 242.66 191.235 242.884 191.467C243.108 191.699 243.28 191.979 243.389 192.286C243.497 192.594 243.54 192.922 243.514 193.248C243.487 193.575 243.393 193.892 243.236 194.178C243.08 194.464 242.865 194.712 242.607 194.906C242.349 195.099 242.054 195.234 241.741 195.299L228.758 200.198C228.209 200.402 227.605 200.375 227.076 200.124Z" fill="#49B236"/>
<path d="M160.862 157.669L333.005 173.179" stroke="#015271" stroke-width="13" stroke-miterlimit="10" stroke-linecap="round"/>
<path d="M178.23 101.525L243.172 159.075L308.114 216.624" stroke="#015271" stroke-width="13" stroke-miterlimit="10" stroke-linecap="round"/>
<path d="M146.836 115.566C146.836 115.566 132.617 93.2655 143.717 82.2612C154.818 71.257 165.532 95.9501 165.532 95.9501L173.325 109.88L159.784 134.618C159.784 134.618 150.259 122.131 146.836 115.566Z" fill="#49B236"/>
</svg>
