<svg width="1409" height="651" viewBox="0 0 1409 651" fill="none" xmlns="http://www.w3.org/2000/svg">
<path d="M1530.68 709.748C1580.4 690.213 1604.64 633.388 1584.83 582.824C1565.02 532.261 1508.66 507.107 1458.95 526.642C1409.24 546.176 1385 603.001 1404.81 653.565C1424.61 704.128 1480.97 729.282 1530.68 709.748Z" fill="white"/>
<path d="M519.149 746.67C617.379 708.071 665.28 595.786 626.139 495.875C586.998 395.964 475.638 346.261 377.408 384.86C279.178 423.459 231.277 535.744 270.417 635.655C309.558 735.566 420.919 785.269 519.149 746.67Z" fill="white"/>
<path d="M328.603 846.7C426.833 808.101 474.734 695.816 435.593 595.905C396.453 495.994 285.092 446.291 186.862 484.89C88.6322 523.49 40.7311 635.774 79.8718 735.685C119.013 835.596 230.373 885.299 328.603 846.7Z" fill="white"/>
<path d="M784.904 840.465C863.93 809.411 902.498 719.156 871.047 638.874C839.596 558.591 750.036 518.683 671.009 549.737C591.983 580.79 553.415 671.045 584.866 751.328C616.317 831.61 705.877 871.518 784.904 840.465Z" fill="white"/>
<path d="M980.522 878.656C1034.08 857.611 1060.19 796.393 1038.85 741.921C1017.51 687.45 956.799 660.351 903.244 681.396C849.689 702.44 823.573 763.658 844.913 818.13C866.252 872.602 926.966 899.7 980.522 878.656Z" fill="white"/>
<path d="M1106.2 748.459C1149.71 731.362 1171.3 682.581 1154.43 639.504C1137.55 596.427 1088.6 575.367 1045.09 592.464C1001.58 609.562 979.985 658.342 996.861 701.419C1013.74 744.496 1062.69 765.557 1106.2 748.459Z" fill="white"/>
<path d="M1230.02 863.662C1279.93 844.05 1304.7 788.094 1285.34 738.68C1265.98 689.267 1209.83 665.108 1159.92 684.72C1110.01 704.333 1085.24 760.289 1104.6 809.703C1123.96 859.116 1180.11 883.275 1230.02 863.662Z" fill="white"/>
<path d="M1337.34 786.95C1418.23 755.165 1457.67 662.702 1425.44 580.428C1393.21 498.155 1301.51 457.226 1220.62 489.011C1139.73 520.796 1100.29 613.259 1132.52 695.533C1164.75 777.806 1256.45 818.735 1337.34 786.95Z" fill="white"/>
</svg>
