<svg width="687" height="579" viewBox="0 0 687 579" fill="none" xmlns="http://www.w3.org/2000/svg">
<path d="M358.792 442.915L358.717 443.294C356.491 445.588 352.957 446.276 349.326 445.321C344.205 443.97 340.835 439.857 342.157 434.771C343.479 429.685 348.127 428.865 353.248 430.213C356.88 431.171 359.916 432.409 360.74 435.507C360.688 435.489 360.637 435.477 360.586 435.462C360.504 437.629 361.432 437.019 360.862 439.172C360.291 441.326 359.458 442.305 358.792 442.915Z" fill="#F95A5A"/>
<path d="M345.158 432.018C346.294 431.373 347.592 431.06 348.904 431.116" stroke="white" stroke-linecap="round" stroke-linejoin="round"/>
<path d="M359.037 426.077C359.11 426.08 359.182 426.1 359.246 426.135C359.311 426.17 359.367 426.22 359.409 426.279C359.451 426.339 359.478 426.408 359.489 426.48C359.5 426.553 359.494 426.626 359.471 426.695L359.08 427.879C358.726 428.946 358.032 429.867 357.102 430.503C356.172 431.139 355.057 431.455 353.925 431.403C353.706 431.393 353.492 431.332 353.3 431.226C353.108 431.119 352.943 430.97 352.819 430.79C352.694 430.61 352.613 430.404 352.581 430.188C352.55 429.972 352.569 429.753 352.638 429.546C352.993 428.489 353.682 427.577 354.604 426.945C355.525 426.313 356.63 425.995 357.752 426.039L359.037 426.077Z" fill="#009056" stroke="#009056" stroke-miterlimit="10" stroke-linecap="round"/>
<path d="M370.242 450.039L370.085 450.392C367.403 452.14 363.798 452.039 360.461 450.315C355.755 447.881 353.37 443.139 355.785 438.473C358.2 433.808 362.923 434.024 367.63 436.456C370.967 438.182 373.66 440.051 373.781 443.248C373.735 443.22 373.687 443.197 373.64 443.171C373.082 445.264 374.124 444.872 373.091 446.845C372.057 448.819 371.027 449.591 370.242 450.039Z" fill="#F95A5A"/>
<path d="M358.375 438.431C359.418 437.647 360.665 437.174 361.972 437.064" stroke="white" stroke-linecap="round" stroke-linejoin="round"/>
<path d="M374.192 433.701C374.263 433.72 374.328 433.754 374.384 433.803C374.439 433.851 374.482 433.911 374.51 433.979C374.538 434.047 374.55 434.12 374.545 434.192C374.539 434.265 374.517 434.335 374.48 434.398L373.836 435.465C373.255 436.427 372.373 437.173 371.324 437.589C370.274 438.005 369.115 438.069 368.021 437.772C367.809 437.714 367.614 437.608 367.449 437.463C367.285 437.317 367.157 437.136 367.075 436.934C366.993 436.731 366.959 436.512 366.976 436.295C366.993 436.078 367.06 435.868 367.173 435.682C367.753 434.73 368.628 433.992 369.668 433.578C370.708 433.163 371.857 433.095 372.945 433.383L374.192 433.701Z" fill="#009056" stroke="#009056" stroke-miterlimit="10" stroke-linecap="round"/>
<path d="M370.51 430.065C370.578 430.04 370.652 430.031 370.725 430.039C370.798 430.048 370.868 430.072 370.93 430.112C370.992 430.152 371.043 430.205 371.081 430.268C371.119 430.331 371.141 430.401 371.147 430.474L371.239 431.719C371.321 432.843 371.034 433.96 370.42 434.902C369.806 435.844 368.898 436.559 367.835 436.94C367.63 437.013 367.409 437.038 367.191 437.012C366.974 436.986 366.765 436.91 366.581 436.791C366.397 436.671 366.243 436.51 366.131 436.322C366.02 436.134 365.953 435.923 365.938 435.705C365.86 434.59 366.147 433.483 366.754 432.548C367.362 431.613 368.259 430.901 369.31 430.517L370.51 430.065Z" fill="#009056" stroke="#009056" stroke-miterlimit="10" stroke-linecap="round"/>
<path d="M380.282 459.432L380.025 459.722C376.929 460.594 373.509 459.434 370.836 456.809C367.067 453.105 366.218 447.89 369.941 444.163C373.663 440.436 378.119 442.035 381.888 445.737C384.561 448.364 386.573 450.937 385.723 454.015C385.687 453.974 385.649 453.938 385.612 453.9C384.444 455.726 385.56 455.661 383.974 457.234C382.389 458.806 381.169 459.237 380.282 459.432Z" fill="#F95A5A"/>
<path d="M372.07 444.575C373.068 443.73 374.286 443.182 375.585 442.993" stroke="white" stroke-linecap="round" stroke-linejoin="round"/>
<path d="M389.005 445.06C389.067 445.099 389.119 445.151 389.158 445.214C389.196 445.276 389.219 445.346 389.225 445.419C389.232 445.491 389.221 445.564 389.194 445.632C389.167 445.699 389.124 445.76 389.07 445.808L388.131 446.634C387.283 447.378 386.214 447.827 385.084 447.913C383.953 448 382.824 447.719 381.867 447.113C381.681 446.996 381.526 446.837 381.413 446.651C381.3 446.464 381.232 446.254 381.215 446.037C381.197 445.819 381.231 445.602 381.313 445.4C381.395 445.198 381.523 445.019 381.687 444.875C382.53 444.14 383.591 443.696 384.712 443.608C385.833 443.521 386.953 443.795 387.907 444.39L389.005 445.06Z" fill="#009056" stroke="#009056" stroke-miterlimit="10" stroke-linecap="round"/>
<rect width="50.0037" height="34.6532" rx="4" transform="matrix(0.90106 0.441675 -0.438635 0.894755 342.111 433.842)" fill="#FFBB4D"/>
<path d="M290.223 347.214L277.582 441.102" stroke="#173A52" stroke-width="3" stroke-miterlimit="10"/>
<path d="M407.787 373.67L379.67 464.066" stroke="#173A52" stroke-width="3" stroke-miterlimit="10"/>
<path d="M322.428 398.145C321.889 397.61 321.464 396.974 321.176 396.273C320.889 395.573 320.745 394.823 320.755 394.069C320.764 393.314 320.927 392.571 321.232 391.882C321.537 391.193 321.979 390.574 322.531 390.06C326.776 386.119 333.392 381.319 337.616 384.767C342.739 388.933 336.368 395.876 331.668 399.953C330.588 400.888 329.187 401.378 327.75 401.322C326.313 401.267 324.947 400.67 323.929 399.654L322.428 398.145Z" fill="#F6CBCA"/>
<path d="M265.563 432.011C265.563 432.011 258.936 424.071 262.828 419.398C266.72 414.725 272.053 423.727 272.053 423.727L275.758 428.734L271.52 438.761C271.52 438.761 267.216 434.38 265.563 432.011Z" fill="#EEEEEE"/>
<path d="M267.358 413.187C266.66 415.791 267.757 418.349 269.806 418.889L268.54 423.611L238.83 415.769L240.096 411.045C242.14 411.584 244.371 409.905 245.071 407.301C245.771 404.698 244.671 402.139 242.623 401.599L243.889 396.875L273.599 404.719L272.333 409.443C270.289 408.902 268.051 410.578 267.358 413.187Z" fill="#E66560"/>
<path d="M284.094 399.125C284.094 399.125 267.469 388.796 262.911 395.92C257.665 404.109 278.399 410.388 278.399 410.388L284.094 399.125Z" fill="#F6CBCA"/>
<path d="M267.661 396.897C266.339 397.037 266.013 397.544 265.875 397.789C265.724 397.956 265.624 398.162 265.584 398.384C265.544 398.605 265.567 398.834 265.649 399.044C266.234 400.599 270.075 403.729 276.686 406.187L279.546 400.499C275.792 398.559 270.75 396.576 267.674 396.897L267.661 396.897ZM267.282 393.467C273.895 392.768 284.128 399.126 284.128 399.126L278.444 410.415C278.444 410.415 257.689 404.105 262.955 395.947C263.432 395.228 264.073 394.631 264.827 394.205C265.58 393.778 266.425 393.534 267.293 393.492L267.282 393.467Z" fill="black"/>
<path d="M278.311 396.024C276.508 393.979 275.043 391.665 273.97 389.167C273.83 388.847 273.791 388.494 273.856 388.152C273.921 387.811 274.089 387.498 274.336 387.254C274.584 387.01 274.9 386.846 275.244 386.784C275.588 386.722 275.943 386.765 276.264 386.907C278.696 388.016 281.887 389.694 284.239 391.735C288.57 395.491 278.311 396.024 278.311 396.024Z" fill="#F4C25D"/>
<path d="M289.159 461.754C291.708 462.122 294.277 462.319 296.849 462.342C300.786 462.401 304.721 462.21 308.63 461.769C312.032 461.427 315.413 460.905 318.757 460.204C343.644 454.937 341.412 442.837 341.412 442.837C341.412 442.837 340.19 432.176 339.389 427.581C338.271 421.241 336.279 411.87 333.101 403.268C331.633 399.313 329.143 395.807 325.884 393.104C322.624 390.401 318.711 388.596 314.539 387.874C308.487 386.817 302.301 386.842 296.273 387.949C292.879 388.57 289.56 389.529 286.364 390.811L286.28 390.846C282.372 392.414 278.956 394.983 276.379 398.293C273.801 401.604 272.153 405.538 271.6 409.699C271.279 412.822 271.128 415.961 271.147 419.102C271.037 429.821 271.673 444.767 272.299 450.157C272.269 450.165 272.732 459.274 289.159 461.754Z" fill="white"/>
<path d="M296.838 462.348C300.775 462.407 304.71 462.216 308.618 461.775C312.021 461.433 315.402 460.91 318.746 460.21C343.632 454.942 341.401 442.842 341.401 442.842C341.401 442.842 340.179 432.181 339.377 427.587C339.377 427.587 320.232 427.349 317.931 441.693C317.749 442.933 317.4 444.141 316.893 445.285C312.679 454.591 299.613 448.894 296.905 462.049C296.876 462.147 296.853 462.247 296.838 462.348Z" fill="black"/>
<path d="M271.142 419.108C278.59 414.568 276.627 403.292 286.351 402.259C297.939 401.02 296.283 387.951 296.283 387.951C292.89 388.572 289.57 389.531 286.374 390.813L286.29 390.848C282.382 392.416 278.967 394.985 276.389 398.295C273.811 401.605 272.163 405.54 271.61 409.701C271.285 412.825 271.128 415.965 271.142 419.108Z" fill="black"/>
<path d="M286.529 450.19L287.326 457.186C287.514 458.843 288.15 460.422 289.167 461.753C294.082 462.491 300.434 462.64 308.637 461.769C312.04 461.427 315.421 460.904 318.765 460.204L317.245 446.927C317.184 446.367 317.069 445.813 316.902 445.274C316.261 443.186 314.909 441.382 313.079 440.172C311.249 438.962 309.056 438.423 306.879 438.648L294.778 439.933C292.311 440.201 290.057 441.43 288.511 443.353C286.965 445.275 286.252 447.733 286.529 450.19Z" fill="#F6CBCA"/>
<path d="M280.516 417.597C282.371 418.647 284.72 418.008 285.762 416.17C286.804 414.333 286.145 411.992 284.29 410.943C282.434 409.893 280.085 410.532 279.043 412.37C278.001 414.208 278.66 416.548 280.516 417.597Z" fill="black"/>
<path d="M311.248 414.343C313.103 415.392 315.452 414.753 316.494 412.915C317.536 411.078 316.877 408.737 315.021 407.688C313.166 406.638 310.817 407.277 309.775 409.115C308.733 410.953 309.392 413.293 311.248 414.343Z" fill="black"/>
<path d="M286.122 423.978C285.595 419.374 288.981 413.584 297.803 412.65C306.625 411.716 311.087 416.675 311.614 421.279C312.141 425.883 308.519 428.408 299.708 429.322C290.898 430.237 286.635 428.606 286.122 423.978Z" fill="#F6CBCA"/>
<path d="M301.436 422.034C302.162 421.957 302.659 421.097 302.547 420.113C302.434 419.129 301.754 418.394 301.028 418.471C300.302 418.548 299.805 419.408 299.917 420.392C300.029 421.376 300.709 422.111 301.436 422.034Z" fill="black"/>
<path d="M293.757 422.838C294.483 422.761 294.98 421.901 294.868 420.918C294.755 419.934 294.075 419.199 293.349 419.276C292.623 419.353 292.126 420.213 292.238 421.196C292.351 422.18 293.03 422.915 293.757 422.838Z" fill="black"/>
<path d="M322.493 392.632C322.493 392.632 325.211 388.132 326.033 383.656C326.1 383.314 326.06 382.959 325.92 382.638C325.78 382.317 325.546 382.045 325.248 381.858C324.951 381.671 324.603 381.578 324.253 381.591C323.902 381.604 323.565 381.722 323.284 381.93C321.165 383.522 319.409 384.609 317.573 387.09C314.191 391.665 322.493 392.632 322.493 392.632Z" fill="#F4C25D"/>
<path d="M333.827 387.047C331.677 387.27 328.406 389.289 324.857 392.577C324.641 392.776 324.468 393.016 324.348 393.284C324.228 393.551 324.164 393.841 324.159 394.134C324.155 394.428 324.21 394.72 324.322 394.993C324.434 395.265 324.6 395.513 324.81 395.721L326.331 397.216C326.564 397.45 326.847 397.628 327.158 397.738C327.47 397.848 327.801 397.887 328.129 397.852C328.574 397.807 328.993 397.625 329.327 397.331C334.282 393.031 336.019 389.923 336.004 388.424C335.997 388.211 335.991 387.884 335.387 387.39C335.172 387.219 334.921 387.097 334.654 387.034C334.387 386.971 334.109 386.967 333.841 387.023L333.827 387.047ZM333.449 383.592C334.177 383.488 334.92 383.536 335.631 383.732C336.342 383.928 337.006 384.268 337.58 384.73C342.703 388.896 336.333 395.84 331.633 399.916C330.553 400.854 329.152 401.345 327.715 401.29C326.277 401.234 324.911 400.636 323.894 399.617L322.368 398.12C321.829 397.585 321.403 396.948 321.115 396.248C320.828 395.547 320.685 394.798 320.694 394.043C320.704 393.289 320.866 392.545 321.171 391.856C321.476 391.168 321.918 390.548 322.47 390.035C325.489 387.24 329.736 383.997 333.423 383.603L333.449 383.592Z" fill="white"/>
<path d="M343.751 427.527C343.751 427.527 350.134 435.66 346.105 440.211C342.077 444.763 337.016 435.609 337.016 435.609L331.665 428.232L337.994 420.606C337.994 420.606 342.161 425.125 343.751 427.527Z" fill="white"/>
<path d="M317.997 422.114L322.743 421.611C324.052 421.472 324.992 420.303 324.843 419.001L324.509 416.075C324.36 414.773 323.178 413.829 321.869 413.968L317.123 414.471C315.814 414.61 314.873 415.778 315.022 417.081L315.357 420.006C315.506 421.309 316.688 422.253 317.997 422.114Z" fill="#F7D3D2"/>
<path d="M275.462 426.62L280.208 426.117C281.517 425.978 282.457 424.809 282.308 423.507L281.974 420.581C281.825 419.279 280.643 418.335 279.334 418.474L274.588 418.977C273.279 419.116 272.338 420.284 272.487 421.587L272.822 424.512C272.971 425.815 274.153 426.759 275.462 426.62Z" fill="#F7D3D2"/>
<path d="M350.142 360.718L330.539 453.033" stroke="#173A52" stroke-width="3" stroke-miterlimit="10"/>
<path d="M599.994 206.338C594.027 233.509 582.704 259.198 566.679 281.927C550.653 304.656 530.241 323.975 506.619 338.771C503.168 340.943 499.654 343.012 496.077 344.98C490.115 348.266 483.992 351.266 477.708 353.981C468.276 358.054 458.835 362.128 449.501 366.423L406.605 384.332L283.83 356.647L252.553 322.011C245.917 314.115 239.093 306.373 232.267 298.635C227.712 293.482 223.434 288.135 219.434 282.594C217.031 279.282 214.725 275.904 212.518 272.462C197.38 248.927 187.052 222.68 182.128 195.232C177.204 167.784 177.782 139.678 183.827 112.531C209.026 -1.48636 322.452 -72.9431 437.265 -47.2392C551.979 -21.5546 625.163 92.4774 599.994 206.338Z" fill="url(#paint0_linear_1475_12016)"/>
<path d="M599.994 206.338C594.027 233.509 582.704 259.198 566.679 281.927C550.653 304.656 530.241 323.975 506.619 338.771C503.168 340.943 499.654 343.012 496.077 344.98C490.115 348.266 483.992 351.266 477.708 353.981C468.276 358.054 458.835 362.128 449.501 366.423L406.605 384.332L283.83 356.647L252.553 322.011C245.917 314.115 239.093 306.373 232.267 298.635C227.712 293.482 223.434 288.135 219.434 282.594C217.031 279.282 214.725 275.904 212.518 272.462C197.38 248.927 187.052 222.68 182.128 195.232C177.204 167.784 177.782 139.678 183.827 112.531C209.026 -1.48636 322.452 -72.9431 437.265 -47.2392C551.979 -21.5546 625.163 92.4774 599.994 206.338Z" fill="#136E90"/>
<path opacity="0.1" d="M600.007 206.342C594.04 233.514 582.718 259.204 566.692 281.934C550.665 304.664 530.252 323.983 506.628 338.779C503.177 340.951 499.663 343.021 496.086 344.988C490.13 348.278 484.008 351.279 477.718 353.989C468.29 358.065 458.848 362.132 449.513 366.439L406.615 384.341L283.84 356.655L252.56 322.024C250.921 320.078 249.283 318.139 247.636 316.194C401.283 328.321 543.789 226.854 577.802 73.0721C578.634 69.3225 579.392 65.5707 580.077 61.8168C603.767 106.228 610.832 157.466 600.007 206.342Z" fill="black"/>
<path d="M268.057 438.431L386.404 465.125L375.774 513.175C374.922 517.024 372.566 520.368 369.222 522.471C365.879 524.575 361.823 525.265 357.946 524.391L268.833 504.291C264.956 503.416 261.577 501.049 259.438 497.709C257.298 494.369 256.575 490.33 257.427 486.481L268.057 438.431Z" fill="#043B54"/>
<path opacity="0.1" d="M386.432 465.106L376.153 511.485C375.683 513.607 374.797 515.614 373.546 517.391C372.294 519.168 370.7 520.68 368.856 521.84C367.013 523 364.954 523.786 362.799 524.153C360.644 524.519 358.435 524.46 356.297 523.978L295.574 510.283C311.174 508.052 326.112 502.612 339.438 494.31C352.764 486.008 364.185 475.025 372.976 462.061L386.432 465.106Z" fill="black"/>
<g opacity="0.2">
<path d="M411.439 136.803L370.904 126.659L363.408 157.096L403.942 167.24L411.439 136.803Z" fill="black"/>
<path d="M335.632 123.697L343.258 92.2626L260.891 141.781L272.704 161.544L335.632 123.697ZM491.518 141.387C492.578 115.515 478.503 92.4985 476.883 89.9347L442.477 32.627L410.127 52.0719L407.859 53.4662L400.239 84.8932L434.678 64.162L454.249 96.7516L457.239 101.72L457.456 102.063C457.512 102.101 458.786 104.188 460.497 107.583C463.974 114.55 469.057 127.264 468.56 140.297C467.755 159.737 464.372 181.785 437.3 202.98L429.406 235.449C431.768 234.257 433.278 233.357 433.827 233.031C456.707 219.558 472.248 204.09 481.453 185.69C489.393 169.761 491.016 154.359 491.518 141.387ZM329.883 204.248L329.27 203.738L328.969 203.533C327.208 201.98 325.578 200.285 324.098 198.465C322.698 196.833 321.002 194.734 319.02 192.073C315.988 188.029 312.323 182.726 307.944 175.754L298.281 159.594L278.623 171.416L288.226 187.478L288.352 187.701C303.436 211.716 312.248 219.69 315.611 222.132C326.052 230.838 338.027 237.532 350.916 241.867C356.855 243.822 362.965 245.207 369.162 246.004L370.653 246.182L376.126 223.676C362.04 222.617 345.958 217.509 329.883 204.248Z" fill="black"/>
<path d="M393.972 61.7985L361.369 195.916L331.727 188.592L357.175 83.9199L360.871 81.6959L362.856 80.5108L373.968 73.8207L381.509 69.2905L383.961 67.8147L391.502 63.2846L393.972 61.7985Z" fill="black"/>
<path d="M448.779 107.142L416.21 240.974L415.744 241.127C414.202 241.684 412.511 242.185 410.771 242.675C410.199 242.848 409.601 243.026 409.017 243.168C407.463 243.594 405.847 243.986 404.171 244.343C402.624 244.69 401.031 245.005 399.39 245.288C398.498 245.438 397.598 245.582 396.671 245.731C395.495 245.906 394.274 246.061 393.03 246.2C392.061 246.309 391.074 246.394 390.066 246.476C388.074 246.65 386.021 246.755 383.906 246.791L382.363 246.807L418.151 99.5811L448.779 107.142Z" fill="black"/>
</g>
<path fill-rule="evenodd" clip-rule="evenodd" d="M267.435 19.1877C269.493 21.6568 269.16 25.3269 266.691 27.385C244.919 45.5328 229.002 69.3073 220.742 95.97C219.79 99.0404 216.53 100.758 213.46 99.8071C210.389 98.8559 208.671 95.5957 209.623 92.5252C218.558 63.6836 235.764 38.01 259.238 18.4434C261.707 16.3853 265.377 16.7186 267.435 19.1877Z" fill="white"/>
<ellipse cx="211.776" cy="118.843" rx="7.31742" ry="7.31742" transform="rotate(25.9686 211.776 118.843)" fill="white"/>
<defs>
<linearGradient id="paint0_linear_1475_12016" x1="274.884" y1="10.9242" x2="443.709" y2="410.161" gradientUnits="userSpaceOnUse">
<stop offset="0.0752592" stop-color="#FFE36C"/>
<stop offset="0.34375" stop-color="#E0EA71"/>
<stop offset="0.512785" stop-color="#CCEE74"/>
<stop offset="0.945102" stop-color="#6DD1E1"/>
</linearGradient>
</defs>
</svg>
