<svg width="600" height="467" viewBox="0 0 600 467" fill="none" xmlns="http://www.w3.org/2000/svg">
<g clip-path="url(#clip0_1475_11217)">
<rect width="600" height="467" fill="url(#paint0_linear_1475_11217)"/>
<path d="M242.979 232.819C242.979 232.819 231.816 231.483 229.812 237.813C227.808 244.144 239.188 243.682 239.188 243.682L245.95 244.098L252.661 234.244C252.661 234.244 246.125 232.927 242.979 232.819Z" fill="#EAD576"/>
<path d="M237.686 297.018L246.819 315.319C247.066 315.814 247.668 316.015 248.163 315.768L250.721 314.492C251.216 314.245 251.417 313.643 251.17 313.148L242.037 294.847C241.79 294.352 241.188 294.151 240.693 294.398L238.135 295.674C237.64 295.921 237.439 296.523 237.686 297.018Z" fill="#F4BD61"/>
<path d="M215.362 252.291L224.271 270.143C224.518 270.639 225.12 270.84 225.615 270.593L228.173 269.316C228.668 269.069 228.869 268.467 228.622 267.972L219.713 250.12C219.466 249.624 218.864 249.423 218.369 249.67L215.811 250.947C215.316 251.194 215.115 251.796 215.362 252.291Z" fill="#F4BD61"/>
<path d="M309.991 263.531C308.082 253.223 303.324 243.655 296.257 235.912L296.195 235.842C293.1 232.446 289.164 229.927 284.783 228.54C280.403 227.152 275.734 226.946 271.248 227.942C262.704 229.853 237.217 240.18 229.946 243.808C229.946 243.808 214.434 250.372 231.818 285.211C249.203 320.05 263.721 311.498 263.721 311.498C263.721 311.498 274.208 306.266 278.628 303.73C284.734 300.234 293.601 294.676 301.221 288.217C304.726 285.24 307.382 281.39 308.922 277.056C310.462 272.723 310.831 268.06 309.991 263.538V263.531Z" fill="#F1F1F1"/>
<path d="M309.991 263.531C308.082 253.223 303.324 243.655 296.257 235.912L296.195 235.842C293.1 232.446 289.164 229.927 284.783 228.54C280.403 227.152 275.734 226.946 271.248 227.942C262.704 229.853 237.217 240.18 229.946 243.808C229.946 243.808 214.434 250.372 231.818 285.211C249.203 320.05 263.721 311.498 263.721 311.498C263.721 311.498 274.208 306.266 278.628 303.73C284.734 300.234 293.601 294.676 301.221 288.217C304.726 285.24 307.382 281.39 308.922 277.056C310.462 272.723 310.831 268.06 309.991 263.538V263.531Z" fill="#F9E37E"/>
<path d="M270.657 244.877C272.969 244.877 274.844 243.002 274.844 240.69C274.844 238.377 272.969 236.503 270.657 236.503C268.345 236.503 266.47 238.377 266.47 240.69C266.47 243.002 268.345 244.877 270.657 244.877Z" fill="black"/>
<path d="M285.666 274.976C287.978 274.976 289.853 273.102 289.853 270.789C289.853 268.477 287.978 266.602 285.666 266.602C283.354 266.602 281.479 268.477 281.479 270.789C281.479 273.102 283.354 274.976 285.666 274.976Z" fill="black"/>
<path d="M278.96 309.396C278.96 309.396 273.297 319.106 267.025 316.884C260.752 314.663 267.992 305.866 267.992 305.866L271.74 300.222L283.648 300.805C283.648 300.805 280.766 306.825 278.96 309.396Z" fill="#F9E37E"/>
<path d="M234.088 273.076C234.143 273.187 234.219 273.285 234.313 273.367C234.406 273.448 234.514 273.51 234.632 273.55L240.271 275.433C240.391 275.482 240.519 275.505 240.647 275.502C240.776 275.499 240.903 275.469 241.02 275.415C241.137 275.361 241.242 275.284 241.328 275.188C241.414 275.092 241.479 274.98 241.52 274.858C241.561 274.736 241.576 274.607 241.565 274.478C241.554 274.35 241.517 274.225 241.456 274.112C241.395 273.998 241.312 273.898 241.211 273.818C241.11 273.738 240.994 273.68 240.869 273.647L235.253 271.763C235.076 271.703 234.886 271.697 234.706 271.745C234.526 271.794 234.364 271.895 234.241 272.036C234.119 272.177 234.041 272.351 234.018 272.536C233.995 272.721 234.027 272.909 234.111 273.076H234.088Z" fill="#F4BD61"/>
<path d="M235.967 276.837C236.052 277.003 236.183 277.14 236.345 277.231C236.507 277.323 236.693 277.364 236.878 277.351C237.064 277.338 237.241 277.27 237.388 277.157C237.536 277.043 237.647 276.889 237.707 276.713L239.591 271.077C239.67 270.84 239.652 270.581 239.54 270.357C239.428 270.133 239.232 269.962 238.994 269.883C238.757 269.804 238.498 269.822 238.274 269.934C238.05 270.046 237.879 270.242 237.8 270.479L235.916 276.115C235.837 276.353 235.855 276.613 235.967 276.837Z" fill="#F4BD61"/>
<path d="M277.735 287.727C281.322 287.727 284.229 284.819 284.229 281.233C284.229 277.646 281.322 274.739 277.735 274.739C274.149 274.739 271.241 277.646 271.241 281.233C271.241 284.819 274.149 287.727 277.735 287.727Z" fill="#F1A361"/>
<path d="M257.671 247.509C261.258 247.509 264.165 244.602 264.165 241.015C264.165 237.429 261.258 234.521 257.671 234.521C254.085 234.521 251.177 237.429 251.177 241.015C251.177 244.602 254.085 247.509 257.671 247.509Z" fill="#F1A361"/>
<path d="M264.917 255.317L269.551 264.615C270.188 265.885 271.303 266.851 272.651 267.302C273.999 267.752 275.47 267.651 276.744 267.019C279.385 265.703 277.75 258.024 276.433 255.367C275.116 252.726 269.962 246.803 267.321 248.12C266.05 248.757 265.083 249.873 264.632 251.222C264.182 252.571 264.284 254.043 264.917 255.317Z" fill="#F4BD61"/>
<path d="M305.542 249.857C305.542 249.857 310.591 246.882 312.425 241.919C312.464 241.801 312.471 241.674 312.442 241.553C312.414 241.431 312.352 241.32 312.264 241.232C312.176 241.144 312.065 241.083 311.944 241.054C311.823 241.026 311.696 241.032 311.578 241.072C308.952 241.959 306.193 242.393 303.422 242.354C302.089 242.354 300.571 241.317 299.798 240.229" fill="#F9E37E"/>
<path d="M302.368 243.99C305.473 245.645 308.897 246.615 312.408 246.833C312.534 246.838 312.655 246.879 312.758 246.951C312.861 247.022 312.942 247.122 312.99 247.238C313.039 247.353 313.053 247.481 313.032 247.604C313.011 247.728 312.955 247.843 312.87 247.936C311.711 249.012 310.418 249.932 309.021 250.674C308.365 251.047 307.858 251.636 307.588 252.341C307.318 253.046 307.302 253.823 307.542 254.539" fill="#F9E37E"/>
<path d="M254.675 -14.6428H24.7441V818.858H254.675V-14.6428Z" fill="#173A52"/>
<path d="M190.805 189.709H88.7616C71.4445 189.709 57.4062 203.747 57.4062 221.064V311.157C57.4062 328.474 71.4445 342.512 88.7616 342.512H190.805C208.122 342.512 222.16 328.474 222.16 311.157V221.064C222.16 203.747 208.122 189.709 190.805 189.709Z" fill="#0E2535"/>
<path d="M130.468 338.825H143.429V344.825C143.429 345.527 143.15 346.2 142.654 346.696C142.158 347.192 141.485 347.47 140.784 347.47H133.113C132.411 347.47 131.739 347.192 131.242 346.696C130.746 346.2 130.468 345.527 130.468 344.825V338.825Z" fill="#609847"/>
<path d="M154.819 318.825C154.819 318.825 160.54 328.632 155.468 333.037C150.395 337.441 146.263 326.71 146.263 326.71L143.156 320.612L149.588 310.44C149.588 310.44 153.456 315.959 154.819 318.825Z" fill="#609847"/>
<path d="M78.4397 310.53C78.4397 310.53 67.0052 350.445 117.951 347.466C161.25 344.934 149.578 310.518 149.578 310.518C151.638 308.568 153.203 306.156 154.144 303.48C155.085 300.805 155.374 297.944 154.989 295.134C154.603 292.324 153.553 289.647 151.926 287.324C150.299 285.001 148.141 283.099 145.632 281.777L145.613 281.75C146.444 278.692 146.095 275.433 144.635 272.621C143.175 269.808 140.71 267.648 137.731 266.569C134.751 265.49 131.475 265.571 128.552 266.796C125.63 268.021 123.275 270.3 121.956 273.182H108.859C107.659 270.556 105.597 268.421 103.014 267.132C100.432 265.842 97.4854 265.477 94.6661 266.096C91.8468 266.715 89.3247 268.281 87.5199 270.533C85.7151 272.786 84.7365 275.589 84.7472 278.475C84.7557 279.225 84.8298 279.972 84.9686 280.709H84.9453C82.0423 281.703 79.4447 283.428 77.4033 285.719C75.3619 288.01 73.9459 290.789 73.2918 293.787C72.6378 296.785 72.768 299.9 73.6697 302.833C74.5715 305.766 76.2144 308.417 78.4397 310.53Z" fill="#66AF49"/>
<path d="M84.688 338.825H96.8137V344.996C96.8137 345.653 96.5531 346.282 96.0891 346.746C95.6251 347.21 94.9958 347.47 94.3396 347.47H87.1582C86.502 347.47 85.8727 347.21 85.4087 346.746C84.9447 346.282 84.6841 345.653 84.6841 344.996V338.825H84.688Z" fill="#66AF49"/>
<path d="M137.87 323.809V342.646C133.081 345.178 126.606 346.961 117.957 347.466C108.433 348.025 101.093 347.077 95.4297 345.19V323.828C95.4369 321.103 96.5227 318.491 98.45 316.563C100.377 314.636 102.989 313.55 105.714 313.543H127.597C130.317 313.554 132.922 314.639 134.846 316.562C136.77 318.484 137.857 321.089 137.87 323.809Z" fill="#A7D157"/>
<path d="M133.589 288.047C135.925 288.047 137.818 286.154 137.818 283.818C137.818 281.482 135.925 279.588 133.589 279.588C131.253 279.588 129.359 281.482 129.359 283.818C129.359 286.154 131.253 288.047 133.589 288.047Z" fill="black"/>
<path d="M99.6676 288.047C102.004 288.047 103.897 286.154 103.897 283.818C103.897 281.482 102.004 279.588 99.6676 279.588C97.3317 279.588 95.438 281.482 95.438 283.818C95.438 286.154 97.3317 288.047 99.6676 288.047Z" fill="black"/>
<path d="M73.6906 319.135C73.6906 319.135 68.4278 329.187 73.6906 333.358C78.9534 337.53 82.6004 326.635 82.6004 326.635L85.4124 320.401L78.5222 310.532C78.5222 310.532 74.9218 316.207 73.6906 319.135Z" fill="#66AF49"/>
<path d="M112.734 288.064H122.626C123.107 288.063 123.579 288.182 124.001 288.412C124.422 288.642 124.779 288.974 125.038 289.378C125.297 289.783 125.45 290.246 125.483 290.725C125.515 291.204 125.427 291.683 125.225 292.119C124.192 294.313 122.063 296.582 117.682 296.582C113.301 296.582 111.169 294.313 110.136 292.119C109.934 291.683 109.845 291.204 109.878 290.725C109.91 290.246 110.063 289.783 110.322 289.378C110.581 288.974 110.938 288.642 111.36 288.412C111.781 288.182 112.254 288.063 112.734 288.064Z" fill="white"/>
<path d="M143.912 302.202C148.032 302.202 151.373 299.034 151.373 295.125C151.373 291.217 148.032 288.049 143.912 288.049C139.791 288.049 136.451 291.217 136.451 295.125C136.451 299.034 139.791 302.202 143.912 302.202Z" fill="#A7D157"/>
<path d="M91.4406 302.202C95.5613 302.202 98.9017 299.034 98.9017 295.125C98.9017 291.217 95.5613 288.049 91.4406 288.049C87.3199 288.049 83.9795 291.217 83.9795 295.125C83.9795 299.034 87.3199 302.202 91.4406 302.202Z" fill="#A7D157"/>
<path d="M120.881 339.934C120.755 339.935 120.631 339.91 120.515 339.862C120.399 339.814 120.294 339.744 120.205 339.655L115.952 335.41C115.789 335.228 115.702 334.992 115.708 334.748C115.715 334.504 115.814 334.273 115.987 334.1C116.159 333.928 116.391 333.828 116.634 333.822C116.878 333.815 117.115 333.903 117.296 334.066L121.541 338.307C121.673 338.441 121.763 338.61 121.799 338.795C121.836 338.979 121.817 339.17 121.745 339.344C121.673 339.517 121.552 339.666 121.396 339.771C121.24 339.876 121.057 339.933 120.869 339.934H120.881Z" fill="#66AF49"/>
<path d="M116.625 339.934C116.5 339.934 116.377 339.91 116.261 339.862C116.146 339.814 116.041 339.743 115.954 339.654C115.865 339.566 115.795 339.46 115.747 339.345C115.699 339.229 115.674 339.105 115.674 338.98C115.674 338.855 115.699 338.731 115.747 338.615C115.795 338.5 115.865 338.395 115.954 338.306L120.214 334.065C120.392 333.886 120.634 333.786 120.887 333.785C121.012 333.785 121.136 333.809 121.251 333.857C121.367 333.905 121.472 333.975 121.56 334.063C121.649 334.151 121.719 334.256 121.767 334.371C121.815 334.487 121.84 334.61 121.84 334.735C121.84 334.86 121.815 334.984 121.768 335.1C121.72 335.215 121.65 335.32 121.562 335.409L117.317 339.654C117.227 339.745 117.119 339.817 117 339.865C116.881 339.913 116.754 339.936 116.625 339.934Z" fill="#66AF49"/>
<path fill-rule="evenodd" clip-rule="evenodd" d="M145.756 281.168C145.713 281.363 145.665 281.557 145.613 281.75L145.632 281.777C148.141 283.099 150.298 285.001 151.926 287.324C153.553 289.647 154.603 292.324 154.989 295.134C155.374 297.944 155.085 300.805 154.144 303.48C153.209 306.139 151.657 308.538 149.617 310.482C149.975 310.994 153.525 316.105 154.819 318.825C154.819 318.825 160.541 328.632 155.468 333.037C152.858 335.303 150.496 333.561 148.819 331.336C147.647 333.966 145.91 336.534 143.39 338.825H143.429V344.825C143.429 345.527 143.15 346.2 142.654 346.696C142.158 347.192 141.485 347.47 140.784 347.47H133.113C132.411 347.47 131.739 347.192 131.243 346.696C130.909 346.362 130.674 345.949 130.555 345.5C127.849 346.254 124.799 346.831 121.364 347.19C121.045 347.224 120.723 347.255 120.398 347.285C119.602 347.357 118.787 347.418 117.951 347.466C115.117 347.632 112.476 347.665 110.015 347.58C104.833 347.4 100.448 346.695 96.7383 345.604C96.6297 346.032 96.4072 346.428 96.0893 346.746C95.6253 347.21 94.996 347.47 94.3399 347.47H87.1584C86.5022 347.47 85.8729 347.21 85.409 346.746C84.945 346.282 84.6843 345.652 84.6843 344.996V338.875C82.5081 336.751 80.9395 334.388 79.8246 331.957C78.2763 333.954 76.1615 335.317 73.6906 333.358C68.4278 329.187 73.6906 319.135 73.6906 319.135C74.7533 316.607 77.5813 312.034 78.3353 310.829C78.3862 310.628 78.4167 310.521 78.4167 310.521C76.1905 308.409 74.5468 305.758 73.6445 302.824C72.7422 299.891 72.6117 296.774 73.2658 293.776C73.9199 290.777 75.3363 287.998 77.3783 285.707C79.4202 283.415 82.0186 281.69 84.9224 280.696C84.7885 279.958 84.7157 279.209 84.7049 278.459C84.7022 275.576 85.6865 272.778 87.4941 270.532C88.7688 268.947 90.3987 267.705 92.2369 266.894C93.0128 266.548 93.8262 266.28 94.666 266.096C97.4853 265.477 100.432 265.842 103.014 267.132C105.597 268.421 107.659 270.556 108.859 273.182H121.922C123.111 270.547 125.169 268.399 127.751 267.099C130.339 265.795 133.297 265.421 136.129 266.039C138.96 266.657 141.493 268.231 143.302 270.495C145.111 272.759 146.086 275.576 146.064 278.475C146.061 279.382 145.958 280.285 145.756 281.168Z" fill="url(#paint1_linear_1475_11217)"/>
<path d="M63.0109 335.367L62.7889 335.41C65.8442 338.848 70.8522 340.062 76.0902 338.922C83.4756 337.309 88.5108 331.617 86.8983 324.228C85.2858 316.839 78.693 315.363 71.3076 316.972C66.0696 318.116 61.6678 319.7 60.3231 324.096C60.3972 324.074 60.4713 324.06 60.5453 324.042C63.6632 323.359 65.5746 325.392 66.2729 328.522C66.9712 331.652 66.1288 334.684 63.0109 335.367Z" fill="#F95A5A"/>
<path d="M84.4237 324.359C83.8732 322.566 82.8286 320.964 81.4097 319.738" stroke="white" stroke-width="4" stroke-linecap="round" stroke-linejoin="round"/>
<path d="M63.6747 311.966C63.5698 311.966 63.4663 311.99 63.3723 312.036C63.2783 312.082 63.1963 312.15 63.1329 312.233C63.0694 312.317 63.0263 312.414 63.0068 312.517C62.9873 312.62 62.9921 312.726 63.0207 312.827L63.515 314.551C63.9627 316.106 64.9045 317.474 66.1981 318.446C67.4918 319.419 69.0668 319.944 70.6854 319.943C70.9986 319.942 71.3073 319.868 71.5873 319.728C71.8672 319.587 72.1108 319.384 72.2987 319.133C72.4867 318.883 72.6139 318.592 72.6703 318.284C72.7268 317.976 72.711 317.659 72.6241 317.358C72.1747 315.817 71.2395 314.462 69.9579 313.496C68.6762 312.529 67.1167 312.003 65.5116 311.994L63.6747 311.966Z" fill="#009056" stroke="#009056" stroke-miterlimit="10" stroke-linecap="round"/>
<path d="M207.074 289.443L110.169 238.369L81.0391 312.834L142.596 337.07L207.074 289.443Z" fill="url(#paint2_linear_1475_11217)"/>
<path d="M206.896 289.392H143.906C143.183 289.392 142.597 289.978 142.597 290.701V337.072C142.597 337.795 143.183 338.381 143.906 338.381H206.896C207.619 338.381 208.205 337.795 208.205 337.072V290.701C208.205 289.978 207.619 289.392 206.896 289.392Z" fill="#136E90"/>
<path d="M206.253 338.38H132.352C131.629 338.38 131.043 338.966 131.043 339.689V341.813C131.043 342.536 131.629 343.122 132.352 343.122H206.253C206.976 343.122 207.562 342.536 207.562 341.813V339.689C207.562 338.966 206.976 338.38 206.253 338.38Z" fill="#015271"/>
<g filter="url(#filter0_d_1475_11217)">
<path d="M173.387 314.286V312.058L168.704 316.725L169.807 317.852L173.387 314.286ZM184.041 312.909C183.772 311.728 183.153 310.623 182.241 309.699L179.03 306.428L177.192 308.261L177.059 308.392V310.62L179.019 308.665L180.845 310.524L181.123 310.809L181.142 310.828C181.142 310.828 181.263 310.947 181.431 311.149C181.957 311.763 182.32 312.465 182.496 313.207C182.755 314.52 182.877 316.051 181.423 317.916V320.217C181.56 320.099 181.648 320.015 181.678 319.983C182.888 318.871 183.723 317.507 184.098 316.032C184.304 314.996 184.285 313.938 184.041 312.909ZM174.301 319.771L174.251 319.749H174.224C174.083 319.67 173.948 319.584 173.821 319.489C173.703 319.402 173.555 319.29 173.38 319.145C173.113 318.924 172.786 318.629 172.383 318.234L171.477 317.316L170.363 318.43L171.26 319.348C172.649 320.705 173.365 321.094 173.627 321.203C174.441 321.609 175.35 321.862 176.29 321.944C176.718 321.978 177.148 321.969 177.573 321.919H177.675V320.314C176.51 320.497 175.305 320.303 174.301 319.771Z" fill="white"/>
<path d="M176.272 309.185L176.257 318.699L174.168 318.696L174.179 311.271L174.389 311.06L174.503 310.947L175.134 310.318L175.564 309.891L175.701 309.753L176.131 309.326L176.272 309.185Z" fill="white"/>
<path d="M180.644 311.319V320.811L180.613 320.83L180.309 321.016L180.198 321.077C180.103 321.132 180.001 321.183 179.894 321.235C179.788 321.286 179.696 321.331 179.593 321.376L179.418 321.45L179.186 321.543L178.992 321.61C178.863 321.652 178.73 321.694 178.589 321.732L178.486 321.758V311.316L180.644 311.319Z" fill="white"/>
<path d="M176.275 313.837L176.272 315.99L178.49 315.993L178.493 313.839L176.275 313.837Z" fill="white"/>
</g>
<path d="M487.243 -58.4785V3.99906C487.243 12.9434 483.691 21.5216 477.368 27.8473C471.044 34.173 462.467 37.7283 453.523 37.7314H427.5V54.0091C427.5 58.4392 426.628 62.8259 424.932 66.9188C423.237 71.0116 420.752 74.7304 417.619 77.8628C414.486 80.9952 410.767 83.4798 406.674 85.1748C402.581 86.8698 398.194 87.7419 393.764 87.7414H338.658V112.113C338.659 116.543 337.787 120.93 336.092 125.023C334.397 129.116 331.912 132.835 328.78 135.968C325.647 139.101 321.928 141.586 317.836 143.281C313.743 144.977 309.356 145.849 304.926 145.849H-10.9947C-19.5918 145.85 -27.8647 142.568 -34.1234 136.674C-40.382 130.78 -44.154 122.719 -44.6687 114.137H-106.086V-58.4785H487.243Z" fill="#275C40"/>
<path d="M487.318 -66.2461V3.99943C487.318 8.42954 486.446 12.8163 484.75 16.9091C483.055 21.002 480.57 24.7207 477.437 27.8531C474.304 30.9855 470.585 33.4701 466.492 35.1651C462.399 36.8601 458.012 37.7322 453.582 37.7317H427.59V54.0095C427.59 58.4396 426.718 62.8263 425.022 66.9191C423.327 71.012 420.842 74.7308 417.709 77.8632C414.576 80.9955 410.857 83.4802 406.764 85.1752C402.671 86.8701 398.284 87.7423 393.854 87.7417H338.721V112.114C338.722 116.544 337.85 120.931 336.155 125.024C334.46 129.117 331.975 132.836 328.843 135.969C325.71 139.101 321.992 141.586 317.899 143.282C313.806 144.977 309.419 145.85 304.989 145.85H260.852C266.071 145.85 271.24 144.822 276.062 142.824C280.884 140.827 285.266 137.899 288.957 134.208C292.647 130.516 295.575 126.135 297.572 121.312C299.569 116.49 300.597 111.321 300.596 106.101V77.3871H365.536C370.756 77.3876 375.924 76.3601 380.746 74.3632C385.568 72.3663 389.95 69.4391 393.641 65.7489C397.332 62.0586 400.26 57.6775 402.258 52.8556C404.256 48.0338 405.284 42.8656 405.285 37.6463V18.4672H428.138C433.359 18.4693 438.529 17.4427 443.352 15.4463C448.176 13.4499 452.56 10.5226 456.252 6.83177C459.944 3.14093 462.873 -1.24118 464.871 -6.06424C466.87 -10.8873 467.898 -16.0568 467.898 -21.2775V-66.2461H487.318Z" fill="#367B55"/>
<path d="M151.14 81.5457C151.388 81.5445 151.632 81.6008 151.855 81.71C152.077 81.8192 152.271 81.9785 152.421 82.1753C152.572 82.372 152.675 82.601 152.722 82.8442C152.769 83.0874 152.759 83.3382 152.693 83.577L151.563 87.6707C150.536 91.3624 148.334 94.6188 145.29 96.9469C142.246 99.275 138.527 100.548 134.695 100.573H134.676C133.934 100.578 133.202 100.41 132.536 100.083C131.871 99.7568 131.29 99.28 130.84 98.6907C130.39 98.1015 130.083 97.4158 129.943 96.6876C129.804 95.9595 129.835 95.2089 130.034 94.4948C131.058 90.8243 133.244 87.5844 136.264 85.2604C139.284 82.9364 142.976 81.6535 146.786 81.6039L151.14 81.5457Z" fill="#367B55"/>
<path d="M106.119 69.6386C106.288 69.4578 106.497 69.3189 106.73 69.2332C106.962 69.1474 107.212 69.1171 107.458 69.1446C107.704 69.1722 107.941 69.2568 108.148 69.3918C108.356 69.5267 108.53 69.7084 108.655 69.9222L110.811 73.5847C112.749 76.8914 113.558 80.7392 113.115 84.5464C112.672 88.3535 111.001 91.9129 108.356 94.6864C107.844 95.2225 107.215 95.6323 106.518 95.8835C105.82 96.1346 105.074 96.2203 104.338 96.1337C103.602 96.047 102.897 95.7905 102.277 95.3843C101.657 94.9781 101.14 94.4333 100.767 93.7931C98.8434 90.5063 98.0356 86.6853 98.4641 82.9013C98.8925 79.1174 100.534 75.5737 103.144 72.8002L106.119 69.6386Z" fill="#367B55" stroke="#367B55" stroke-miterlimit="10" stroke-linecap="round"/>
<path d="M16.0069 31.9406C19.586 33.309 22.6217 35.8066 24.6541 39.055C26.6865 42.3033 27.605 46.1256 27.2704 49.9428C27.2053 50.6817 26.9696 51.3955 26.5818 52.0279C26.194 52.6603 25.6647 53.1941 25.0356 53.5871C24.4064 53.9802 23.6946 54.2219 22.9562 54.2931C22.2178 54.3643 21.4729 54.2632 20.7803 53.9976C17.4513 52.721 14.5875 50.4654 12.5663 47.5283C10.5451 44.5912 9.46156 41.1105 9.4585 37.5451C9.4585 37.0674 9.48569 36.5935 9.52064 36.1081L9.86243 31.7697C9.8828 31.5216 9.96063 31.2816 10.0898 31.0688C10.2189 30.856 10.3958 30.6762 10.6064 30.5436C10.817 30.4109 11.0556 30.3291 11.3033 30.3047C11.551 30.2802 11.801 30.3137 12.0336 30.4025L16.0069 31.9406Z" fill="#367B55" stroke="#367B55" stroke-miterlimit="10" stroke-linecap="round"/>
<path d="M-11.3942 73.4577C-11.6011 73.5955 -11.7733 73.7795 -11.8969 73.9952C-12.0206 74.2109 -12.0924 74.4524 -12.1067 74.7007C-12.121 74.9489 -12.0774 75.197 -11.9794 75.4255C-11.8813 75.654 -11.7315 75.8566 -11.5418 76.0173L-8.30641 78.7671C-5.38341 81.2472 -1.73194 82.7075 2.09519 82.9269C5.92232 83.1462 9.71672 82.1127 12.904 79.9828C13.5209 79.5711 14.0337 79.0215 14.4018 78.3776C14.7699 77.7337 14.9833 77.013 15.0252 76.2724C15.067 75.5319 14.936 74.7918 14.6427 74.1105C14.3494 73.4292 13.9018 72.8255 13.3351 72.3469C10.428 69.8836 6.8011 68.4286 2.99764 68.1996C-0.805813 67.9706 -4.58108 68.9801 -7.76266 71.0768L-11.3942 73.4577Z" fill="#367B55"/>
<path d="M186.002 15.3619C185.76 15.3069 185.509 15.3092 185.268 15.3685C185.027 15.4279 184.804 15.5427 184.615 15.7038C184.426 15.8648 184.278 16.0678 184.182 16.2963C184.085 16.5249 184.044 16.7729 184.06 17.0204L184.332 21.2616C184.584 25.0858 186.073 28.7242 188.575 31.6272C191.078 34.5301 194.456 36.5399 198.202 37.3529C198.926 37.5092 199.677 37.4951 200.395 37.3116C201.113 37.1281 201.779 36.7803 202.34 36.2957C202.9 35.811 203.341 35.2027 203.626 34.5187C203.912 33.8347 204.035 33.0938 203.985 32.3543C203.733 28.5519 202.257 24.9331 199.778 22.0389C197.3 19.1448 193.95 17.1308 190.232 16.2979L186.002 15.3619Z" fill="#367B55" stroke="#367B55" stroke-miterlimit="10" stroke-linecap="round"/>
<path d="M204.171 -7.01488C202.746 -3.4557 202.52 0.470807 203.528 4.16986C204.535 7.86891 206.72 11.139 209.752 13.4847C210.339 13.9387 211.022 14.2503 211.75 14.3949C212.477 14.5396 213.228 14.5133 213.943 14.3183C214.659 14.1232 215.319 13.7647 215.873 13.2709C216.426 12.7771 216.857 12.1616 217.132 11.4728C218.549 7.93473 218.78 4.03231 217.789 0.351878C216.799 -3.32856 214.641 -6.58825 211.64 -8.93745L208.218 -11.629C208.022 -11.7826 207.793 -11.8884 207.549 -11.9383C207.306 -11.9881 207.053 -11.9804 206.813 -11.916C206.573 -11.8516 206.351 -11.7321 206.164 -11.567C205.978 -11.4019 205.833 -11.1958 205.74 -10.9649L204.171 -7.01488Z" fill="#367B55" stroke="#367B55" stroke-miterlimit="10" stroke-linecap="round"/>
<path d="M267.536 31.9406C263.957 33.3096 260.922 35.8072 258.889 39.0555C256.857 42.3037 255.938 46.1257 256.272 49.9428C256.337 50.6816 256.572 51.3954 256.959 52.0278C257.347 52.6602 257.876 53.1941 258.504 53.5872C259.133 53.9803 259.845 54.222 260.583 54.2933C261.321 54.3645 262.066 54.2633 262.758 53.9976C266.087 52.721 268.951 50.4654 270.972 47.5283C272.994 44.5912 274.077 41.1105 274.08 37.5451C274.08 37.0674 274.053 36.5935 274.018 36.1081L273.676 31.7697C273.656 31.5216 273.578 31.2816 273.449 31.0688C273.32 30.856 273.143 30.6762 272.932 30.5436C272.722 30.4109 272.483 30.3291 272.235 30.3047C271.988 30.2802 271.738 30.3137 271.505 30.4025L267.536 31.9406Z" fill="#367B55" stroke="#367B55" stroke-miterlimit="10" stroke-linecap="round"/>
<path d="M380.861 463.523H239.349C236.912 463.558 234.492 463.109 232.231 462.201C229.969 461.293 227.911 459.944 226.175 458.233C224.439 456.523 223.061 454.484 222.12 452.236C221.179 449.988 220.695 447.575 220.695 445.138C220.695 442.701 221.179 440.288 222.12 438.04C223.061 435.792 224.439 433.753 226.175 432.042C227.911 430.332 229.969 428.983 232.231 428.075C234.492 427.167 236.912 426.718 239.349 426.753H380.861C395.053 426.753 407.043 417.866 407.043 407.333V379.967C407.113 375.137 409.081 370.529 412.521 367.138C415.962 363.748 420.598 361.847 425.428 361.847C430.258 361.847 434.894 363.748 438.334 367.138C441.775 370.529 443.742 375.137 443.813 379.967V407.333C443.813 422.69 436.686 437.543 424.265 448.076C412.527 458.034 397.116 463.523 380.861 463.523Z" fill="#173A52"/>
<path d="M449.146 262.459C449.146 262.459 443.161 271.555 447.791 276.053C452.421 280.55 456.934 270.444 456.934 270.444L460.216 264.762L454.58 254.683C454.58 254.683 450.599 259.783 449.146 262.459Z" fill="#EEEEEE"/>
<path d="M518.201 294.795H511.004C510.299 294.795 509.622 294.515 509.123 294.016C508.624 293.517 508.344 292.84 508.344 292.135V286.654H520.881V292.135C520.881 292.486 520.812 292.833 520.677 293.157C520.542 293.481 520.344 293.775 520.095 294.023C519.846 294.27 519.551 294.466 519.225 294.598C518.9 294.731 518.552 294.798 518.201 294.795Z" fill="white"/>
<path d="M466.83 294.795H459.804C459.463 294.795 459.125 294.728 458.809 294.597C458.494 294.467 458.208 294.275 457.966 294.034C457.725 293.793 457.534 293.506 457.403 293.191C457.273 292.876 457.205 292.538 457.205 292.197V286.65H469.424V292.197C469.424 292.885 469.151 293.546 468.665 294.033C468.178 294.52 467.518 294.794 466.83 294.795Z" fill="#EEEEEE"/>
<path d="M504.733 217.668C494.974 214.864 484.624 214.851 474.857 217.629L474.772 217.652C470.49 218.866 466.604 221.188 463.508 224.385C460.411 227.581 458.212 231.538 457.135 235.856C455.084 244.106 453.026 270.645 453.026 278.514C453.026 278.514 452.004 294.799 489.718 294.799C527.431 294.799 526.301 278.514 526.301 278.514C526.301 278.514 526.301 267.161 526.009 262.232C525.621 255.424 524.634 245.341 522.331 235.942C521.263 231.62 519.073 227.656 515.984 224.451C512.894 221.246 509.013 218.913 504.733 217.687V217.668Z" fill="#F1F1F1"/>
<path d="M504.733 217.668C494.974 214.864 484.624 214.851 474.857 217.629L474.772 217.652C470.49 218.866 466.604 221.188 463.508 224.385C460.411 227.581 458.212 231.538 457.135 235.856C455.084 244.106 453.026 270.645 453.026 278.514C453.026 278.514 452.004 294.799 489.718 294.799C527.431 294.799 526.301 278.514 526.301 278.514C526.301 278.514 526.301 267.161 526.009 262.232C525.621 255.424 524.634 245.341 522.331 235.942C521.263 231.62 519.073 227.656 515.984 224.451C512.894 221.246 509.013 218.913 504.733 217.687V217.668Z" fill="white"/>
<path d="M502.949 255.912H508.903C510.643 255.912 512.053 254.502 512.053 252.762V250.906C512.053 249.166 510.643 247.756 508.903 247.756H502.949C501.21 247.756 499.799 249.166 499.799 250.906V252.762C499.799 254.502 501.21 255.912 502.949 255.912Z" fill="#F7D3D2"/>
<path d="M459.753 255.912H465.708C467.447 255.912 468.857 254.502 468.857 252.762V250.906C468.857 249.166 467.447 247.756 465.708 247.756H459.753C458.014 247.756 456.603 249.166 456.603 250.906V252.762C456.603 254.502 458.014 255.912 459.753 255.912Z" fill="#F7D3D2"/>
<path d="M467.939 245.932C470.18 245.932 471.997 244.115 471.997 241.874C471.997 239.632 470.18 237.815 467.939 237.815C465.697 237.815 463.88 239.632 463.88 241.874C463.88 244.115 465.697 245.932 467.939 245.932Z" fill="black"/>
<path d="M500.51 245.932C502.752 245.932 504.569 244.115 504.569 241.874C504.569 239.632 502.752 237.815 500.51 237.815C498.268 237.815 496.451 239.632 496.451 241.874C496.451 244.115 498.268 245.932 500.51 245.932Z" fill="black"/>
<path d="M497.749 218.886C497.109 218.728 496.556 218.327 496.208 217.768C495.859 217.209 495.742 216.536 495.881 215.892C496.988 210.842 500.153 199.742 506.543 200.655C514.062 201.731 510.194 214.156 508.298 219.197C508.068 219.771 507.641 220.244 507.094 220.532C506.547 220.82 505.915 220.905 505.311 220.77L497.749 218.886Z" fill="#F7D3D2"/>
<path d="M505.883 223.126C506.865 223.125 507.825 222.828 508.636 222.274C509.447 221.719 510.073 220.934 510.431 220.019C512.629 214.193 514.703 206.273 511.985 201.729C511.445 200.817 510.701 200.043 509.812 199.467C508.922 198.892 507.911 198.53 506.858 198.412C500.931 197.558 496.239 203.601 493.652 215.42C493.379 216.646 493.597 217.929 494.26 218.996C494.923 220.062 495.978 220.825 497.198 221.122L504.76 223.002C505.128 223.089 505.505 223.13 505.883 223.126ZM505.848 202.89C505.971 202.892 506.095 202.901 506.217 202.918C507.359 203.081 507.805 203.601 508.062 204.04C509.382 206.269 508.652 211.769 506.155 218.411C506.122 218.459 506.078 218.499 506.027 218.527C505.976 218.555 505.918 218.57 505.86 218.57L498.297 216.69C498.234 216.675 498.18 216.637 498.144 216.583C498.109 216.528 498.095 216.463 498.107 216.399C499.498 210.064 502.337 202.89 505.848 202.89Z" fill="white"/>
<path d="M480.495 219.428C481.135 219.27 481.688 218.869 482.036 218.309C482.384 217.75 482.5 217.077 482.36 216.433C481.253 211.384 478.087 200.284 471.698 201.197C464.183 202.272 468.047 214.697 469.947 219.739C470.168 220.318 470.595 220.796 471.145 221.083C471.695 221.369 472.332 221.443 472.933 221.292L480.495 219.428Z" fill="#F7D3D2"/>
<path d="M472.33 223.668C472.722 223.669 473.114 223.622 473.495 223.528L481.057 221.645C482.278 221.349 483.333 220.586 483.997 219.519C484.66 218.453 484.878 217.168 484.603 215.943C482.005 204.128 477.317 198.077 471.398 198.935C470.344 199.053 469.332 199.414 468.442 199.99C467.552 200.565 466.807 201.34 466.267 202.252C463.579 206.796 465.634 214.708 467.82 220.541C468.165 221.459 468.782 222.25 469.587 222.808C470.393 223.367 471.349 223.667 472.33 223.668ZM472.403 203.429C475.899 203.429 478.75 210.602 480.14 216.922C480.152 216.985 480.139 217.05 480.105 217.104C480.07 217.158 480.016 217.197 479.954 217.213L472.392 219.093C472.331 219.109 472.266 219.102 472.211 219.072C472.155 219.042 472.113 218.993 472.093 218.934C469.599 212.307 468.869 206.808 470.186 204.563C470.446 204.128 470.889 203.604 472.035 203.44C472.157 203.429 472.28 203.425 472.403 203.429Z" fill="white"/>
<path d="M470.05 291.239H498.407C501.813 291.239 504.575 288.477 504.575 285.071V268.393C504.575 264.987 501.813 262.225 498.407 262.225H470.05C466.644 262.225 463.882 264.987 463.882 268.393V285.071C463.882 288.477 466.644 291.239 470.05 291.239Z" fill="#F3F3F3"/>
<path d="M531.069 264.398C531.069 264.398 537.039 273.51 532.398 277.992C527.756 282.474 523.266 272.388 523.266 272.388L519.996 266.702L525.651 256.634C525.651 256.634 529.624 261.722 531.069 264.398Z" fill="white"/>
<path d="M480.199 287.568C480.319 287.568 480.438 287.545 480.548 287.499C480.659 287.453 480.759 287.385 480.844 287.3L484.914 283.23C485.086 283.058 485.182 282.826 485.182 282.583C485.182 282.341 485.086 282.108 484.914 281.937C484.743 281.765 484.51 281.669 484.268 281.669C484.025 281.669 483.792 281.765 483.621 281.937L479.551 286.007C479.426 286.136 479.342 286.298 479.309 286.474C479.276 286.65 479.295 286.832 479.364 286.997C479.433 287.162 479.549 287.304 479.697 287.404C479.846 287.504 480.02 287.559 480.199 287.561V287.568Z" fill="#F7D3D2"/>
<path d="M484.263 287.569C484.442 287.566 484.616 287.511 484.763 287.411C484.911 287.31 485.027 287.169 485.095 287.004C485.164 286.839 485.182 286.657 485.149 286.482C485.116 286.306 485.032 286.144 484.908 286.016L480.837 281.945C480.666 281.774 480.433 281.677 480.19 281.677C479.948 281.677 479.715 281.774 479.544 281.945C479.372 282.117 479.276 282.349 479.276 282.592C479.276 282.834 479.372 283.067 479.544 283.238L483.614 287.309C483.7 287.393 483.801 287.459 483.913 287.504C484.024 287.548 484.143 287.57 484.263 287.569Z" fill="#F7D3D2"/>
<path d="M482.636 247.143L487.273 244.781C487.38 244.727 487.475 244.652 487.553 244.56C487.631 244.469 487.69 244.363 487.727 244.249C487.764 244.135 487.778 244.015 487.769 243.895C487.759 243.775 487.726 243.659 487.671 243.552C487.617 243.445 487.542 243.35 487.45 243.272C487.359 243.194 487.253 243.135 487.139 243.098C487.025 243.061 486.905 243.047 486.785 243.057C486.666 243.066 486.549 243.099 486.442 243.154L482.624 245.096L478.457 243.026C478.349 242.972 478.232 242.94 478.113 242.932C477.993 242.924 477.873 242.939 477.759 242.977C477.645 243.015 477.54 243.075 477.45 243.154C477.359 243.232 477.285 243.328 477.231 243.436C477.178 243.543 477.146 243.66 477.137 243.779C477.129 243.899 477.144 244.019 477.182 244.133C477.22 244.247 477.281 244.352 477.359 244.443C477.438 244.533 477.534 244.607 477.641 244.661L482.636 247.143Z" fill="#F7D3D2"/>
<path d="M485.344 252.469C486.282 252.498 487.198 252.181 487.919 251.58C488.01 251.501 488.085 251.406 488.139 251.299C488.193 251.192 488.226 251.075 488.235 250.955C488.244 250.835 488.229 250.715 488.191 250.601C488.154 250.487 488.094 250.381 488.016 250.29C487.938 250.199 487.842 250.124 487.735 250.07C487.628 250.016 487.511 249.984 487.391 249.975C487.272 249.966 487.151 249.98 487.037 250.018C486.923 250.055 486.818 250.115 486.727 250.193C486.337 250.509 485.845 250.67 485.344 250.644C483.693 250.644 483.542 249.335 483.534 248.935V246.123C483.534 245.881 483.438 245.648 483.267 245.477C483.095 245.306 482.863 245.21 482.621 245.21C482.379 245.21 482.147 245.306 481.976 245.477C481.805 245.648 481.708 245.881 481.708 246.123V248.939C481.725 249.542 481.877 250.134 482.151 250.671C482.753 251.832 483.887 252.469 485.344 252.469Z" fill="#F7D3D2"/>
<path d="M479.707 252.472C482.472 252.472 483.513 250.371 483.536 248.977C483.54 248.734 483.448 248.5 483.28 248.325C483.112 248.15 482.882 248.05 482.639 248.044C482.399 248.044 482.169 248.137 481.996 248.302C481.823 248.468 481.721 248.694 481.711 248.934C481.711 249.322 481.505 250.662 479.707 250.662C479.205 250.696 478.709 250.541 478.316 250.227C478.227 250.147 478.123 250.085 478.01 250.045C477.897 250.005 477.778 249.987 477.658 249.993C477.538 249.999 477.421 250.029 477.312 250.08C477.204 250.132 477.107 250.204 477.027 250.293C476.946 250.382 476.884 250.486 476.844 250.599C476.804 250.712 476.787 250.832 476.793 250.952C476.799 251.071 476.828 251.189 476.88 251.297C476.931 251.405 477.004 251.502 477.093 251.583C477.82 252.2 478.754 252.518 479.707 252.472Z" fill="#F7D3D2"/>
<path fill-rule="evenodd" clip-rule="evenodd" d="M510.401 220.019L510.39 220.047L510.373 220.09C512.419 221.27 514.3 222.735 515.954 224.451C519.044 227.656 521.233 231.62 522.301 235.942C524.042 243.044 525.031 250.537 525.577 256.713L525.621 256.634C525.621 256.634 529.595 261.722 531.04 264.398C531.04 264.398 537.009 273.51 532.368 277.992C530.14 280.144 527.946 278.938 526.268 277.102C526.271 277.983 526.271 278.514 526.271 278.514C526.271 278.514 526.605 283.326 520.852 287.719V292.135C520.852 292.486 520.782 292.833 520.647 293.157C520.513 293.481 520.315 293.775 520.066 294.023C519.817 294.27 519.521 294.466 519.196 294.598C518.871 294.731 518.523 294.798 518.172 294.795H510.975C510.269 294.795 509.592 294.515 509.094 294.016C508.804 293.726 508.588 293.377 508.458 292.997C503.627 294.103 497.488 294.799 489.688 294.799C481.031 294.799 474.416 293.941 469.36 292.619C469.273 293.151 469.021 293.646 468.635 294.033C468.149 294.52 467.489 294.794 466.8 294.795H459.774C459.433 294.795 459.095 294.728 458.78 294.597C458.465 294.467 458.178 294.275 457.937 294.034C457.696 293.793 457.504 293.506 457.374 293.191C457.243 292.876 457.176 292.538 457.176 292.197V286.65H457.193C452.741 282.581 452.996 278.514 452.996 278.514C452.996 277.807 453.012 276.948 453.044 275.966C451.498 277.299 449.639 277.877 447.761 276.053C443.131 271.555 449.117 262.459 449.117 262.459C450.497 259.916 454.161 255.184 454.522 254.72C455.259 246.974 456.183 239.566 457.105 235.856C458.183 231.538 460.381 227.581 463.478 224.384C464.81 223.01 466.288 221.796 467.881 220.764C467.849 220.69 467.819 220.616 467.791 220.542C465.604 214.708 463.549 206.796 466.237 202.252C466.777 201.34 467.522 200.565 468.412 199.99C469.303 199.414 470.314 199.053 471.368 198.935C477.263 198.08 481.937 204.079 484.542 215.8C487.544 215.514 490.563 215.478 493.57 215.693C493.585 215.602 493.602 215.511 493.622 215.42C496.209 203.601 500.901 197.558 506.828 198.412C507.881 198.53 508.892 198.892 509.782 199.467C510.671 200.043 511.415 200.817 511.955 201.729C514.673 206.273 512.599 214.193 510.401 220.019Z" fill="url(#paint3_linear_1475_11217)"/>
<path d="M392.516 231.555L449.439 216.625L506.362 201.695L558.213 260.731L456.811 279.231L392.516 231.555Z" fill="url(#paint4_linear_1475_11217)"/>
<path d="M393.944 280.23H456.934C457.657 280.23 458.243 279.644 458.243 278.921V232.551C458.243 231.828 457.657 231.242 456.934 231.242H393.944C393.221 231.242 392.635 231.828 392.635 232.551V278.921C392.635 279.644 393.221 280.23 393.944 280.23Z" fill="#136E90"/>
<path d="M394.561 284.967H468.462C469.184 284.967 469.771 284.381 469.771 283.658V281.533C469.771 280.81 469.184 280.224 468.462 280.224H394.561C393.838 280.224 393.252 280.81 393.252 281.533V283.658C393.252 284.381 393.838 284.967 394.561 284.967Z" fill="#015271"/>
<g filter="url(#filter1_d_1475_11217)">
<path d="M420.041 256.83V254.602L415.356 259.271L416.457 260.401L420.041 256.83ZM430.706 255.453C430.439 254.271 429.819 253.166 428.904 252.242L425.69 248.97L423.85 250.81L423.72 250.942V253.17L425.682 251.215L427.51 253.077L427.788 253.359V253.379C427.893 253.481 427.991 253.588 428.081 253.7C428.606 254.314 428.969 255.016 429.144 255.758C429.403 257.071 429.525 258.603 428.07 260.468V262.774C428.16 262.699 428.245 262.619 428.325 262.536C429.534 261.424 430.367 260.059 430.736 258.584C430.954 257.547 430.944 256.486 430.706 255.453ZM420.955 262.321L420.906 262.295H420.883C420.737 262.22 420.601 262.133 420.475 262.035C420.357 261.949 420.209 261.836 420.034 261.692C419.771 261.47 419.439 261.175 419.036 260.78L418.137 259.852L417.017 260.963L417.916 261.881C419.306 263.243 420.022 263.631 420.285 263.737C421.1 264.143 422.01 264.396 422.951 264.479C423.377 264.517 423.806 264.515 424.231 264.472H424.334V262.867C423.166 263.048 421.961 262.853 420.955 262.321Z" fill="white"/>
<path d="M422.927 251.728L422.915 261.245L420.824 261.242L420.832 253.815L421.045 253.607L421.156 253.494L421.788 252.862L422.218 252.435L422.359 252.297L422.927 251.728Z" fill="white"/>
<path d="M427.302 253.877V263.374L427.275 263.39C427.176 263.451 427.077 263.516 426.967 263.577L426.86 263.638L426.555 263.798L426.251 263.939L426.079 264.013L425.843 264.103L425.649 264.171C425.519 264.216 425.386 264.254 425.245 264.293L425.142 264.318V253.873L427.302 253.877Z" fill="white"/>
<path d="M422.945 256.386L422.942 258.54L425.163 258.543L425.166 256.388L422.945 256.386Z" fill="white"/>
</g>
<path d="M544.636 284.157H363.993C346.675 284.157 332.637 298.195 332.637 315.512V354.569C332.637 371.886 346.675 385.925 363.993 385.925H544.636C561.953 385.925 575.991 371.886 575.991 354.569V315.512C575.991 298.195 561.953 284.157 544.636 284.157Z" fill="#275C40"/>
<path d="M575.999 315.5V354.558C576.009 361.986 573.371 369.174 568.557 374.832V326.581C568.557 318.265 565.254 310.29 559.373 304.41C553.493 298.53 545.518 295.226 537.202 295.226H340.09C343.031 291.753 346.693 288.963 350.823 287.051C354.952 285.139 359.449 284.152 364 284.157H544.644C552.957 284.158 560.93 287.46 566.81 293.338C572.69 299.215 575.995 307.187 575.999 315.5Z" fill="#367B55"/>
<path d="M378.154 267.385C378.154 267.385 377.89 280.603 385.685 286.977C393.48 293.35 406.382 290.464 406.382 290.464C406.382 290.464 406.768 277.097 398.973 270.724C391.178 264.351 378.154 267.385 378.154 267.385Z" fill="#367B55"/>
<path d="M424.153 270.834C424.153 270.834 415.558 269.243 410.563 273.644C405.568 278.046 406.066 286.774 406.066 286.774C406.066 286.774 414.746 288.46 419.74 284.058C424.735 279.657 424.153 270.834 424.153 270.834Z" fill="#367B55"/>
<path d="M536.588 353.305C536.795 353.443 536.967 353.627 537.09 353.843C537.214 354.059 537.286 354.3 537.3 354.548C537.315 354.797 537.271 355.045 537.173 355.273C537.075 355.502 536.925 355.704 536.735 355.865L533.5 358.615C530.578 361.094 526.928 362.554 523.102 362.774C519.276 362.993 515.483 361.96 512.297 359.83C511.68 359.419 511.168 358.869 510.799 358.225C510.431 357.581 510.218 356.861 510.176 356.12C510.134 355.38 510.265 354.639 510.558 353.958C510.852 353.277 511.299 352.673 511.866 352.195C514.773 349.731 518.4 348.276 522.204 348.047C526.007 347.818 529.782 348.828 532.964 350.924L536.588 353.305Z" fill="#367B55"/>
<path d="M519.05 317.248C519.292 317.193 519.543 317.196 519.783 317.255C520.024 317.314 520.247 317.428 520.436 317.589C520.624 317.75 520.773 317.952 520.869 318.18C520.966 318.408 521.008 318.656 520.992 318.903L520.716 323.144C520.467 326.969 518.979 330.608 516.477 333.511C513.976 336.415 510.596 338.424 506.851 339.236C506.126 339.391 505.375 339.376 504.657 339.192C503.939 339.008 503.273 338.66 502.713 338.175C502.152 337.69 501.712 337.082 501.426 336.398C501.141 335.714 501.018 334.973 501.067 334.233C501.318 330.431 502.793 326.812 505.273 323.918C507.752 321.024 511.102 319.011 514.82 318.18L519.05 317.248Z" fill="#367B55" stroke="#367B55" stroke-miterlimit="10" stroke-linecap="round"/>
<path d="M400.206 321.657C403.784 323.026 406.82 325.523 408.852 328.772C410.884 332.02 411.803 335.842 411.469 339.659C411.407 340.399 411.173 341.115 410.787 341.749C410.4 342.384 409.872 342.919 409.243 343.315C408.614 343.71 407.901 343.953 407.162 344.026C406.423 344.099 405.677 343.998 404.983 343.733C401.654 342.456 398.791 340.201 396.771 337.264C394.75 334.326 393.667 330.846 393.665 327.281C393.665 326.807 393.688 326.329 393.723 325.844L394.069 321.505C394.09 321.258 394.167 321.018 394.296 320.806C394.425 320.593 394.602 320.414 394.812 320.281C395.022 320.149 395.26 320.067 395.507 320.042C395.754 320.017 396.004 320.05 396.236 320.138L400.206 321.657Z" fill="#367B55" stroke="#367B55" stroke-miterlimit="10" stroke-linecap="round"/>
<path d="M349.894 180.612C349.894 180.612 344.325 172.143 348.638 167.977C352.951 163.812 357.149 173.182 357.149 173.182L360.202 178.471L354.938 187.852C354.938 187.852 351.245 183.097 349.894 180.612Z" fill="#EEEEEE"/>
<path d="M368.439 214.274L361.704 214.272C361.077 214.272 360.475 214.022 360.032 213.579C359.588 213.135 359.339 212.533 359.339 211.906L359.341 206.55L370.807 206.554L370.805 211.91C370.805 212.537 370.555 213.139 370.112 213.582C369.668 214.026 369.066 214.275 368.439 214.274Z" fill="#EEEEEE"/>
<path d="M411.583 214.294L404.813 214.291C404.182 214.291 403.577 214.04 403.131 213.594C402.685 213.148 402.434 212.542 402.434 211.911L402.436 206.57L413.965 206.574L413.963 211.915C413.963 212.546 413.712 213.151 413.266 213.597C412.819 214.044 412.214 214.294 411.583 214.294Z" fill="black"/>
<path d="M371.667 150.333C371.667 150.333 356.611 138.478 351.367 144.985C345.342 152.46 364.865 160.799 364.865 160.799L371.667 150.333Z" fill="#F6CBCA"/>
<path d="M355.867 146.436C354.565 146.436 354.193 146.895 354.014 147.116C353.55 147.692 353.578 148.018 353.663 148.327C354.056 149.907 357.457 153.377 363.623 156.469L367.048 151.205C363.602 148.913 358.909 146.443 355.874 146.443L355.867 146.436ZM355.874 143.038C362.398 143.038 371.667 150.338 371.667 150.338L364.865 160.804C364.865 160.804 345.342 152.465 351.367 144.99C352.498 143.586 354.08 143.038 355.874 143.038Z" fill="black"/>
<path d="M366.366 146.699C364.836 144.509 363.665 142.088 362.899 139.529C362.798 139.201 362.798 138.85 362.9 138.522C363.001 138.194 363.199 137.905 363.468 137.691C363.737 137.478 364.064 137.351 364.406 137.326C364.749 137.301 365.09 137.38 365.387 137.553C367.633 138.894 370.56 140.873 372.627 143.116C376.432 147.247 366.366 146.699 366.366 146.699Z" fill="#F4C25D"/>
<path d="M369.581 212.198C372.025 212.83 374.508 213.299 377.014 213.602C380.846 214.067 384.704 214.29 388.564 214.269C391.918 214.283 395.271 214.123 398.608 213.788C423.463 211.222 422.628 199.125 422.628 199.125C422.628 199.125 422.628 188.554 422.361 183.971C421.989 177.633 421.09 168.252 418.95 159.499C417.96 155.472 415.925 151.778 413.05 148.79C410.175 145.802 406.563 143.626 402.578 142.481C396.795 140.816 390.761 140.197 384.76 140.653H384.742C381.366 140.903 378.023 141.491 374.765 142.407L374.68 142.435C370.694 143.561 367.075 145.72 364.191 148.693C361.307 151.667 359.259 155.35 358.256 159.369C357.594 162.397 357.096 165.458 356.764 168.539C355.448 179.033 354.413 193.72 354.413 199.072C354.413 199.09 353.848 208.064 369.581 212.198Z" fill="white"/>
<path d="M377.02 213.602C380.852 214.067 384.709 214.29 388.569 214.269C391.924 214.284 395.276 214.123 398.614 213.788C423.468 211.223 422.633 199.125 422.633 199.125C422.633 199.125 422.633 188.555 422.366 183.971C422.366 183.971 403.731 181.742 399.881 195.553C399.568 196.747 399.096 197.895 398.477 198.964C393.328 207.646 381.227 200.719 377.114 213.304C377.075 213.4 377.043 213.5 377.02 213.602Z" fill="black"/>
<path d="M356.77 168.55C364.537 164.879 363.887 153.624 373.479 153.628C384.938 153.628 384.766 140.642 384.766 140.642H384.748C381.372 140.893 378.029 141.48 374.77 142.397L374.686 142.425C370.7 143.551 367.081 145.71 364.197 148.683C361.312 151.657 359.265 155.34 358.262 159.359C357.6 162.394 357.102 165.462 356.77 168.55Z" fill="black"/>
<path d="M368.288 200.616V207.558C368.292 209.193 368.739 210.797 369.583 212.198C374.293 213.433 380.463 214.244 388.566 214.247C391.92 214.262 395.273 214.101 398.61 213.766V200.599C398.611 200.043 398.559 199.488 398.456 198.942C398.064 196.832 396.947 194.924 395.298 193.549C393.65 192.174 391.573 191.418 389.426 191.411H377.494C375.053 191.413 372.712 192.383 370.986 194.109C369.26 195.835 368.29 198.175 368.288 200.616Z" fill="#F6CBCA"/>
<path d="M368.311 168.768C370.397 168.768 372.087 167.078 372.087 164.992C372.087 162.907 370.397 161.216 368.311 161.216C366.225 161.216 364.535 162.907 364.535 164.992C364.535 167.078 366.225 168.768 368.311 168.768Z" fill="black"/>
<path d="M398.637 168.782C400.722 168.782 402.413 167.091 402.413 165.006C402.413 162.92 400.722 161.229 398.637 161.229C396.551 161.229 394.86 162.92 394.86 165.006C394.86 167.091 396.551 168.782 398.637 168.782Z" fill="black"/>
<path d="M370.834 174.88C370.834 170.318 374.786 164.994 383.489 164.997C392.193 165.001 395.994 170.325 395.994 174.891C395.994 179.457 392.19 181.531 383.486 181.527C374.782 181.524 370.834 179.443 370.834 174.88Z" fill="#F6CBCA"/>
<path d="M385.987 174.604C386.704 174.604 387.285 173.813 387.285 172.838C387.285 171.863 386.704 171.073 385.987 171.073C385.269 171.073 384.688 171.863 384.688 172.838C384.688 173.813 385.269 174.604 385.987 174.604Z" fill="black"/>
<path d="M378.426 174.599C379.143 174.599 379.725 173.809 379.725 172.834C379.725 171.859 379.143 171.069 378.426 171.069C377.709 171.069 377.127 171.859 377.127 172.834C377.127 173.809 377.709 174.599 378.426 174.599Z" fill="black"/>
<path d="M409.103 153.343C408.639 152.762 408.297 152.094 408.097 151.379C407.896 150.663 407.842 149.914 407.937 149.177C408.032 148.44 408.274 147.73 408.649 147.088C409.024 146.447 409.525 145.887 410.12 145.443C414.683 142.035 421.702 138.013 425.415 141.825C429.939 146.45 422.958 152.578 417.922 156.084C416.765 156.89 415.345 157.226 413.949 157.023C412.554 156.821 411.288 156.095 410.408 154.992L409.103 153.343Z" fill="#F6CBCA"/>
<path d="M426.627 184.368C426.627 184.368 431.94 193.001 427.504 197.041C423.068 201.08 419.155 191.587 419.155 191.587L414.761 183.799L421.78 176.991C421.78 176.991 425.353 181.838 426.627 184.368Z" fill="white"/>
<path d="M379.705 207.531C379.817 207.532 379.927 207.511 380.03 207.469C380.133 207.427 380.227 207.364 380.305 207.285L384.085 203.495C384.164 203.416 384.227 203.322 384.27 203.219C384.313 203.116 384.335 203.006 384.335 202.894C384.335 202.782 384.313 202.672 384.271 202.569C384.228 202.465 384.166 202.372 384.087 202.293C384.008 202.214 383.914 202.151 383.811 202.108C383.708 202.065 383.598 202.043 383.486 202.043C383.375 202.043 383.264 202.064 383.161 202.107C383.058 202.15 382.964 202.212 382.885 202.291L379.095 206.081C379.015 206.16 378.953 206.253 378.91 206.356C378.867 206.459 378.845 206.57 378.845 206.681C378.845 206.793 378.867 206.903 378.91 207.006C378.953 207.109 379.015 207.203 379.095 207.281C379.174 207.362 379.269 207.426 379.374 207.469C379.479 207.512 379.592 207.533 379.705 207.531Z" fill="#EF928F"/>
<path d="M383.497 207.533C383.665 207.532 383.829 207.481 383.968 207.387C384.107 207.293 384.216 207.161 384.28 207.005C384.344 206.85 384.361 206.68 384.328 206.515C384.296 206.35 384.216 206.199 384.097 206.08L380.311 202.289C380.148 202.146 379.937 202.069 379.72 202.076C379.503 202.083 379.296 202.172 379.143 202.325C378.989 202.479 378.9 202.685 378.893 202.902C378.887 203.119 378.963 203.331 379.107 203.493L382.894 207.284C383.054 207.442 383.271 207.532 383.497 207.533Z" fill="#EF928F"/>
<path d="M402.734 176.385L406.243 176.386C407.86 176.387 409.171 175.077 409.171 173.46L409.172 171.734C409.173 170.117 407.863 168.806 406.246 168.806L402.737 168.805C401.12 168.804 399.809 170.114 399.809 171.731L399.808 173.457C399.807 175.074 401.117 176.385 402.734 176.385Z" fill="#F7D3D2"/>
<path d="M360.674 176.466H364.184C365.8 176.466 367.111 175.155 367.111 173.539V171.812C367.111 170.195 365.8 168.885 364.184 168.885H360.674C359.058 168.885 357.747 170.195 357.747 171.812V173.539C357.747 175.155 359.058 176.466 360.674 176.466Z" fill="#F7D3D2"/>
<g opacity="0.75">
<path d="M387.59 130.072C398.637 130.072 407.592 128.265 407.592 126.036C407.592 123.807 398.637 122 387.59 122C376.542 122 367.587 123.807 367.587 126.036C367.587 128.265 376.542 130.072 387.59 130.072Z" fill="#F2F2FA"/>
<path opacity="0.1" d="M407.602 126.037C407.602 128.264 398.645 130.073 387.602 130.073V126.037H407.602Z" fill="#6DD1E1"/>
<path opacity="0.1" d="M387.587 122V126.036H367.587C367.584 123.804 376.541 122 387.587 122Z" fill="black"/>
</g>
<path d="M400.754 124.148L386.89 126.389L400.754 128.63C403.395 128.859 407.596 128.113 407.596 126.389C407.596 124.665 403.395 123.918 400.754 124.148Z" fill="white"/>
<path d="M374.55 124.148L388.649 126.389L374.55 128.63C371.864 128.859 367.592 128.113 367.592 126.389C367.592 124.665 371.864 123.918 374.55 124.148Z" fill="white"/>
<path d="M387.592 131.477L387.592 126.213" stroke="#12314B" stroke-width="5" stroke-miterlimit="10" stroke-linecap="round"/>
<path d="M387.938 131.478C373.9 131.477 370.741 139.794 370.742 144.112H405.135C405.135 139.794 401.977 131.478 387.938 131.478Z" fill="#F95A5A"/>
<path d="M409.819 147.975C409.819 147.975 412.977 143.847 414.276 139.552C414.379 139.223 414.38 138.872 414.279 138.543C414.178 138.214 413.98 137.923 413.71 137.709C413.441 137.495 413.113 137.368 412.77 137.344C412.426 137.32 412.084 137.401 411.787 137.576C409.541 138.913 407.713 139.794 405.646 142.033C401.838 146.164 409.819 147.975 409.819 147.975Z" fill="#F4C25D"/>
<path d="M421.519 143.683C419.396 143.683 415.985 145.319 412.156 148.172C411.926 148.342 411.733 148.557 411.589 148.804C411.445 149.05 411.352 149.324 411.317 149.608C411.279 149.894 411.299 150.184 411.376 150.463C411.453 150.741 411.586 151 411.766 151.225L413.075 152.868C413.415 153.295 413.904 153.577 414.444 153.656C414.984 153.735 415.534 153.605 415.981 153.293C421.295 149.594 423.334 146.733 423.471 145.287C423.492 145.073 423.52 144.754 422.986 144.206C422.795 144.017 422.564 143.872 422.311 143.782C422.057 143.692 421.787 143.658 421.519 143.683ZM421.519 140.283C422.241 140.258 422.959 140.382 423.63 140.648C424.301 140.913 424.91 141.315 425.418 141.827C429.942 146.452 422.962 152.58 417.925 156.086C416.769 156.892 415.348 157.228 413.953 157.026C412.557 156.823 411.291 156.097 410.412 154.995L409.106 153.356C408.642 152.775 408.3 152.107 408.1 151.391C407.9 150.676 407.845 149.927 407.94 149.19C408.035 148.453 408.278 147.743 408.653 147.101C409.028 146.46 409.528 145.9 410.124 145.456C413.377 143.027 417.862 140.29 421.519 140.293V140.283Z" fill="white"/>
</g>
<defs>
<filter id="filter0_d_1475_11217" x="166.704" y="304.428" width="19.5356" height="19.5369" filterUnits="userSpaceOnUse" color-interpolation-filters="sRGB">
<feFlood flood-opacity="0" result="BackgroundImageFix"/>
<feColorMatrix in="SourceAlpha" type="matrix" values="0 0 0 0 0 0 0 0 0 0 0 0 0 0 0 0 0 0 127 0" result="hardAlpha"/>
<feOffset/>
<feGaussianBlur stdDeviation="1"/>
<feComposite in2="hardAlpha" operator="out"/>
<feColorMatrix type="matrix" values="0 0 0 0 1 0 0 0 0 1 0 0 0 0 1 0 0 0 0.4 0"/>
<feBlend mode="normal" in2="BackgroundImageFix" result="effect1_dropShadow_1475_11217"/>
<feBlend mode="normal" in="SourceGraphic" in2="effect1_dropShadow_1475_11217" result="shape"/>
</filter>
<filter id="filter1_d_1475_11217" x="413.356" y="246.97" width="19.5356" height="19.5359" filterUnits="userSpaceOnUse" color-interpolation-filters="sRGB">
<feFlood flood-opacity="0" result="BackgroundImageFix"/>
<feColorMatrix in="SourceAlpha" type="matrix" values="0 0 0 0 0 0 0 0 0 0 0 0 0 0 0 0 0 0 127 0" result="hardAlpha"/>
<feOffset/>
<feGaussianBlur stdDeviation="1"/>
<feComposite in2="hardAlpha" operator="out"/>
<feColorMatrix type="matrix" values="0 0 0 0 1 0 0 0 0 1 0 0 0 0 1 0 0 0 0.4 0"/>
<feBlend mode="normal" in2="BackgroundImageFix" result="effect1_dropShadow_1475_11217"/>
<feBlend mode="normal" in="SourceGraphic" in2="effect1_dropShadow_1475_11217" result="shape"/>
</filter>
<linearGradient id="paint0_linear_1475_11217" x1="210.214" y1="381.983" x2="415.098" y2="-56.0399" gradientUnits="userSpaceOnUse">
<stop stop-color="#2CD0EF"/>
<stop offset="0.436544" stop-color="#7CEAED"/>
<stop offset="1" stop-color="#BEEBE7"/>
</linearGradient>
<linearGradient id="paint1_linear_1475_11217" x1="143.981" y1="337.213" x2="105.918" y2="284.78" gradientUnits="userSpaceOnUse">
<stop stop-color="#A0FFE6"/>
<stop offset="1" stop-color="#66AF49" stop-opacity="0"/>
</linearGradient>
<linearGradient id="paint2_linear_1475_11217" x1="122.734" y1="273.587" x2="161.468" y2="323.803" gradientUnits="userSpaceOnUse">
<stop offset="0.25" stop-color="#96FFFF" stop-opacity="0"/>
<stop offset="1" stop-color="#96FFFF" stop-opacity="0.5"/>
</linearGradient>
<linearGradient id="paint3_linear_1475_11217" x1="457.602" y1="283.264" x2="490.034" y2="235.296" gradientUnits="userSpaceOnUse">
<stop stop-color="#A0FFE6"/>
<stop offset="1" stop-color="white" stop-opacity="0"/>
</linearGradient>
<linearGradient id="paint4_linear_1475_11217" x1="476.674" y1="215.747" x2="437.939" y2="265.963" gradientUnits="userSpaceOnUse">
<stop offset="0.25" stop-color="white" stop-opacity="0"/>
<stop offset="1" stop-color="#96FFFF" stop-opacity="0.5"/>
</linearGradient>
<clipPath id="clip0_1475_11217">
<rect width="600" height="467" fill="white"/>
</clipPath>
</defs>
</svg>
