<svg width="16" height="13" viewBox="0 0 16 13" fill="none" xmlns="http://www.w3.org/2000/svg">
<path d="M13.5447 1.49473C12.5249 1.03432 11.4313 0.6951 10.2879 0.500814C10.2671 0.497066 10.2463 0.506437 10.2356 0.525178C10.0949 0.771316 9.93917 1.09242 9.83006 1.3448C8.60027 1.16364 7.37678 1.16364 6.17221 1.3448C6.06311 1.0868 5.90165 0.771316 5.76039 0.525178C5.74966 0.507062 5.72885 0.497691 5.70804 0.500814C4.56528 0.694476 3.47171 1.0337 2.45129 1.49473C2.44246 1.49848 2.43489 1.50473 2.42985 1.51285C0.355595 4.56208 -0.212633 7.53634 0.0661201 10.4737C0.0673814 10.4881 0.07558 10.5019 0.086932 10.5106C1.45547 11.4995 2.78113 12.0999 4.08219 12.4978C4.103 12.5041 4.12507 12.4966 4.13832 12.4797C4.44608 12.0661 4.72042 11.6301 4.95566 11.1715C4.96953 11.1447 4.95629 11.1128 4.92791 11.1022C4.49275 10.9398 4.0784 10.7417 3.67983 10.5168C3.64829 10.4987 3.64577 10.4544 3.67478 10.4331C3.75866 10.3713 3.84254 10.3069 3.92263 10.242C3.93714 10.2301 3.95732 10.2276 3.97435 10.2351C6.59286 11.4114 9.4277 11.4114 12.0153 10.2351C12.0323 10.227 12.0525 10.2295 12.0677 10.2413C12.1478 10.3063 12.2316 10.3713 12.3161 10.4331C12.3451 10.4544 12.3433 10.4987 12.3117 10.5168C11.9131 10.7461 11.4988 10.9398 11.063 11.1016C11.0346 11.1122 11.022 11.1447 11.0359 11.1715C11.2762 11.6295 11.5505 12.0655 11.8526 12.4791C11.8652 12.4966 11.8879 12.5041 11.9087 12.4978C13.2161 12.0999 14.5418 11.4995 15.9103 10.5106C15.9223 10.5019 15.9298 10.4887 15.9311 10.4744C16.2647 7.07843 15.3723 4.12853 13.5655 1.51348C13.5611 1.50473 13.5535 1.49848 13.5447 1.49473ZM5.34667 8.68519C4.55834 8.68519 3.90876 7.97301 3.90876 7.09842C3.90876 6.22382 4.54573 5.51164 5.34667 5.51164C6.15392 5.51164 6.7972 6.23006 6.78458 7.09842C6.78458 7.97301 6.14761 8.68519 5.34667 8.68519ZM10.6632 8.68519C9.87484 8.68519 9.22526 7.97301 9.22526 7.09842C9.22526 6.22382 9.86223 5.51164 10.6632 5.51164C11.4704 5.51164 12.1137 6.23006 12.1011 7.09842C12.1011 7.97301 11.4704 8.68519 10.6632 8.68519Z" fill="#9EE7E5"/>
</svg>
