<svg width="353" height="183" viewBox="0 0 353 183" fill="none" xmlns="http://www.w3.org/2000/svg">
<g clip-path="url(#clip0_1917_7512)">
<path d="M246.221 184.152C246.221 184.152 256.175 201.179 247.35 208.826C238.525 216.473 231.335 197.841 231.335 197.841L225.929 187.254L237.119 169.593C237.119 169.593 243.85 179.175 246.221 184.152Z" fill="#609847"/>
<path d="M113.332 169.752C113.332 169.752 93.4378 239.055 182.076 233.883C257.409 229.486 237.102 169.732 237.102 169.732C240.686 166.347 243.409 162.158 245.046 157.512C246.683 152.867 247.186 147.899 246.515 143.021C245.844 138.143 244.017 133.494 241.186 129.461C238.355 125.428 234.602 122.126 230.237 119.83L230.203 119.783C231.65 114.474 231.042 108.816 228.502 103.933C225.961 99.05 221.673 95.2993 216.489 93.4258C211.305 91.5522 205.605 91.6929 200.52 93.8199C195.436 95.9469 191.339 99.9045 189.043 104.907H166.257C164.17 100.348 160.581 96.6412 156.088 94.4025C151.595 92.1639 146.469 91.5291 141.563 92.6038C136.658 93.6785 132.27 96.3979 129.13 100.309C125.99 104.22 124.287 109.087 124.306 114.098C124.321 115.399 124.45 116.697 124.691 117.976H124.651C119.6 119.701 115.08 122.698 111.529 126.675C107.977 130.653 105.513 135.477 104.375 140.682C103.238 145.887 103.464 151.297 105.033 156.389C106.602 161.482 109.46 166.084 113.332 169.752Z" fill="#66AF49"/>
<path d="M216.732 192.805V225.511C208.4 229.908 197.135 233.003 182.086 233.88C165.517 234.851 152.745 233.206 142.893 229.928V192.839C142.905 188.107 144.794 183.572 148.147 180.226C151.5 176.88 156.045 174.995 160.786 174.982H198.858C203.59 175.002 208.123 176.886 211.47 180.223C214.818 183.561 216.709 188.083 216.732 192.805V192.805Z" fill="#A7D157"/>
<path d="M209.284 130.715C213.348 130.715 216.643 127.427 216.643 123.371C216.643 119.315 213.348 116.027 209.284 116.027C205.22 116.027 201.925 119.315 201.925 123.371C201.925 127.427 205.22 130.715 209.284 130.715Z" fill="black"/>
<path d="M150.266 130.715C154.33 130.715 157.625 127.427 157.625 123.371C157.625 119.315 154.33 116.027 150.266 116.027C146.202 116.027 142.907 119.315 142.907 123.371C142.907 127.427 146.202 130.715 150.266 130.715Z" fill="black"/>
<path d="M98.8568 187.347C98.8568 187.347 82.3783 176.536 86.8663 165.759C91.3543 154.981 106.086 168.436 106.086 168.436L115.618 175.523L113.458 196.323C113.458 196.323 103.198 190.752 98.8568 187.347Z" fill="#66AF49"/>
<path d="M172.999 130.744H190.21C191.045 130.742 191.868 130.95 192.601 131.349C193.335 131.748 193.955 132.325 194.406 133.026C194.857 133.728 195.123 134.532 195.18 135.364C195.236 136.195 195.082 137.028 194.731 137.784C192.933 141.594 189.23 145.533 181.608 145.533C173.985 145.533 170.275 141.594 168.478 137.784C168.127 137.028 167.972 136.195 168.029 135.364C168.086 134.532 168.352 133.728 168.802 133.026C169.253 132.325 169.874 131.748 170.607 131.349C171.341 130.95 172.163 130.742 172.999 130.744V130.744Z" fill="white"/>
<path d="M227.245 155.292C234.414 155.292 240.226 149.791 240.226 143.005C240.226 136.22 234.414 130.719 227.245 130.719C220.076 130.719 214.264 136.22 214.264 143.005C214.264 149.791 220.076 155.292 227.245 155.292Z" fill="#A7D157"/>
<path d="M135.952 155.292C143.121 155.292 148.933 149.791 148.933 143.005C148.933 136.22 143.121 130.719 135.952 130.719C128.783 130.719 122.971 136.22 122.971 143.005C122.971 149.791 128.783 155.292 135.952 155.292Z" fill="#A7D157"/>
</g>
<defs>
<clipPath id="clip0_1917_7512">
<rect width="352.041" height="183" fill="white"/>
</clipPath>
</defs>
</svg>
