<svg width="758" height="924" viewBox="0 0 758 924" fill="none" xmlns="http://www.w3.org/2000/svg">
<path d="M606.42 583.124C661.772 576.538 701.005 525.117 694.049 468.274C687.093 411.43 636.582 370.688 581.229 377.275C525.877 383.861 486.644 435.282 493.6 492.125C500.556 548.969 551.067 589.711 606.42 583.124Z" fill="white"/>
<path d="M313.904 194.56L280.234 178.521L228.732 291.773L262.402 307.811L313.904 194.56Z" fill="white"/>
<path d="M387.654 229.693L353.984 213.654L279.712 376.972L313.382 393.011L387.654 229.693Z" fill="white"/>
<path d="M179.938 510.723C199.487 513.545 217.631 499.544 220.463 479.451C223.295 459.358 209.744 440.781 190.195 437.959C170.646 435.137 152.502 449.138 149.67 469.231C146.838 489.325 160.389 507.901 179.938 510.723Z" fill="white"/>
<path d="M287.333 452.698C307.264 455.575 325.699 441.742 328.51 421.802C331.321 401.862 317.442 383.365 297.511 380.488C277.58 377.61 259.145 391.443 256.334 411.383C253.524 431.323 267.402 449.821 287.333 452.698Z" fill="white"/>
<path d="M256.697 395.58C276.246 398.402 294.389 384.401 297.222 364.308C300.054 344.215 286.502 325.638 266.953 322.816C247.404 319.994 229.261 333.996 226.428 354.089C223.596 374.182 237.148 392.759 256.697 395.58Z" fill="white"/>
<path d="M195.508 258.772C209.79 260.834 223.044 250.605 225.113 235.926C227.182 221.248 217.282 207.677 203.001 205.615C188.72 203.554 175.465 213.782 173.396 228.461C171.327 243.14 181.227 256.71 195.508 258.772Z" fill="white"/>
<path d="M174.808 275.606C188.133 277.529 200.501 267.985 202.432 254.289C204.362 240.592 195.125 227.93 181.799 226.006C168.474 224.082 156.106 233.626 154.176 247.323C152.245 261.019 161.482 273.682 174.808 275.606Z" fill="white"/>
<path d="M142.716 243.562C175.339 248.272 205.617 224.907 210.344 191.375C215.07 157.844 192.455 126.843 159.832 122.134C127.209 117.425 96.9309 140.79 92.2045 174.321C87.4782 207.853 110.093 238.853 142.716 243.562Z" fill="white"/>
<path d="M148.773 315.873C156.798 317.032 164.247 311.284 165.41 303.035C166.572 294.786 161.009 287.16 152.984 286.002C144.958 284.843 137.51 290.591 136.347 298.84C135.184 307.089 140.748 314.715 148.773 315.873Z" fill="white"/>
<path d="M195.548 328.463C203.574 329.621 211.022 323.873 212.185 315.625C213.348 307.376 207.784 299.75 199.759 298.591C191.734 297.433 184.285 303.18 183.123 311.429C181.96 319.678 187.523 327.304 195.548 328.463Z" fill="white"/>
<path d="M238.367 271.32C255.122 273.738 270.587 262.338 272.91 245.856C275.233 229.374 263.535 214.053 246.78 211.634C230.026 209.215 214.56 220.616 212.237 237.098C209.914 253.579 221.613 268.901 238.367 271.32Z" fill="white"/>
<path d="M339.098 427.667C367.836 431.816 394.507 411.234 398.671 381.696C402.834 352.159 382.913 324.851 354.175 320.702C325.438 316.554 298.767 337.136 294.603 366.673C290.44 396.211 310.361 423.519 339.098 427.667Z" fill="white"/>
<path d="M270.231 474.629C308.275 480.121 343.583 452.874 349.095 413.771C354.607 374.668 328.234 338.517 290.191 333.025C252.147 327.534 216.839 354.781 211.327 393.884C205.815 432.986 232.188 469.138 270.231 474.629Z" fill="white"/>
<path d="M248.266 864.311C358.119 880.169 460.074 801.491 475.989 688.58C491.904 575.669 415.753 471.281 305.9 455.423C196.047 439.565 94.0921 518.243 78.1769 631.154C62.2618 744.065 138.413 848.453 248.266 864.311Z" fill="white"/>
<path d="M334.152 649.796C365.103 654.264 393.83 632.096 398.314 600.283C402.798 568.47 381.342 539.058 350.39 534.59C319.439 530.122 290.712 552.289 286.228 584.103C281.744 615.916 303.2 645.328 334.152 649.796Z" fill="white"/>
<path d="M444.617 626.785C472.275 630.778 497.945 610.969 501.952 582.541C505.959 554.113 486.786 527.83 459.128 523.838C431.47 519.845 405.8 539.654 401.793 568.082C397.786 596.511 416.959 622.793 444.617 626.785Z" fill="white"/>
<path d="M501.337 469.122C534.923 465.126 558.728 433.926 554.507 399.435C550.287 364.944 519.638 340.223 486.052 344.22C452.466 348.216 428.661 379.416 432.881 413.907C437.102 448.398 467.751 473.119 501.337 469.122Z" fill="white"/>
<path d="M285.483 627.31C340.851 635.303 392.238 595.648 400.26 538.739C408.281 481.829 369.899 429.216 314.532 421.223C259.164 413.231 207.776 452.885 199.755 509.795C191.733 566.704 230.115 619.318 285.483 627.31Z" fill="white"/>
<path d="M407.57 460.412C430.942 457.631 447.508 435.919 444.571 411.918C441.634 387.916 420.306 370.713 396.934 373.494C373.562 376.275 356.996 397.987 359.933 421.989C362.87 445.99 384.198 463.193 407.57 460.412Z" fill="white"/>
<path d="M494.504 641.367C513.683 644.136 531.483 630.4 534.261 610.687C537.04 590.975 523.745 572.75 504.566 569.982C485.387 567.213 467.587 580.949 464.809 600.662C462.03 620.374 475.325 638.599 494.504 641.367Z" fill="white"/>
<path d="M386.272 708.152C413.93 712.145 439.6 692.336 443.607 663.907C447.614 635.479 428.441 609.197 400.783 605.205C373.124 601.212 347.455 621.021 343.448 649.449C339.441 677.877 358.614 704.159 386.272 708.152Z" fill="white"/>
<path d="M482.997 731.95C510.655 735.942 536.324 716.133 540.331 687.705C544.338 659.277 525.165 632.995 497.507 629.002C469.849 625.01 444.18 644.819 440.172 673.247C436.165 701.675 455.338 727.957 482.997 731.95Z" fill="white"/>
<path d="M581.749 768.137C624.516 774.311 664.209 743.68 670.405 699.722C676.601 655.764 646.954 615.124 604.186 608.95C561.419 602.776 521.726 633.407 515.53 677.365C509.334 721.323 538.981 761.963 581.749 768.137Z" fill="white"/>
<path d="M436.168 655.951C455.347 658.72 473.147 644.984 475.926 625.271C478.704 605.559 465.409 587.334 446.23 584.565C427.052 581.797 409.252 595.533 406.473 615.246C403.695 634.958 416.99 653.183 436.168 655.951Z" fill="white"/>
<path d="M436.168 722.734C455.347 725.503 473.147 711.767 475.926 692.054C478.704 672.341 465.409 654.117 446.23 651.348C427.052 648.58 409.252 662.316 406.473 682.028C403.695 701.741 416.99 719.966 436.168 722.734Z" fill="white"/>
<path d="M367.171 551.792C405.575 547.223 432.796 511.547 427.969 472.108C423.143 432.669 388.098 404.402 349.694 408.972C311.289 413.542 284.069 449.218 288.896 488.657C293.722 528.095 328.767 556.362 367.171 551.792Z" fill="white"/>
<path d="M283.625 336.388C301.652 338.99 318.326 326.479 320.868 308.444C323.41 290.409 310.858 273.679 292.831 271.076C274.804 268.474 258.13 280.985 255.588 299.02C253.046 317.056 265.598 333.786 283.625 336.388Z" fill="white"/>
<path d="M243.198 363.935C261.224 366.537 277.899 354.026 280.441 335.991C282.983 317.956 270.43 301.226 252.404 298.623C234.377 296.021 217.703 308.532 215.16 326.567C212.618 344.603 225.171 361.333 243.198 363.935Z" fill="white"/>
<path d="M194.541 362.468C225.628 366.955 254.383 345.38 258.767 314.278C263.15 283.177 241.503 254.326 210.416 249.838C179.329 245.351 150.574 266.926 146.191 298.027C141.807 329.129 163.454 357.98 194.541 362.468Z" fill="white"/>
<path d="M190.181 481.601C229.607 487.292 266.075 459.93 271.635 420.485C277.195 381.04 249.741 344.451 210.315 338.759C170.889 333.068 134.421 360.43 128.861 399.875C123.301 439.32 150.755 475.91 190.181 481.601Z" fill="white"/>
<path d="M451.078 126.594L409.377 218.303C408.435 220.371 406.733 221.975 404.646 222.761C402.559 223.547 400.257 223.452 398.245 222.496L352.63 200.771C351.634 200.297 350.74 199.625 349.998 198.795C349.257 197.965 348.682 196.992 348.308 195.931C347.933 194.871 347.766 193.745 347.815 192.616C347.865 191.488 348.13 190.38 348.596 189.355L390.297 97.6459C398.163 80.3926 427.397 52.4324 444.175 60.4323C460.953 68.4322 458.91 109.32 451.078 126.594Z" fill="#173A52"/>
<path d="M357.216 202.959L393.938 220.45L396.079 228.85C396.203 229.341 396.189 229.859 396.038 230.343C395.887 230.827 395.605 231.258 395.225 231.584C394.845 231.911 394.383 232.121 393.893 232.188C393.403 232.256 392.905 232.179 392.457 231.967L349.558 211.538C349.111 211.324 348.733 210.983 348.468 210.556C348.203 210.129 348.062 209.632 348.062 209.124C348.061 208.617 348.201 208.119 348.466 207.689C348.73 207.258 349.108 206.914 349.555 206.695L357.216 202.959Z" fill="#173A52"/>
<path d="M377.171 91.4004L335.471 183.102C335.006 184.127 334.349 185.05 333.537 185.816C332.726 186.583 331.776 187.178 330.742 187.568C329.708 187.958 328.61 188.135 327.512 188.09C326.413 188.044 325.335 187.777 324.338 187.302L278.73 165.579C276.719 164.621 275.163 162.88 274.406 160.739C273.648 158.598 273.75 156.232 274.689 154.161L316.39 62.4524C324.256 45.1992 353.49 17.2389 370.268 25.2388C387.046 33.2387 385.007 74.0968 377.171 91.4004Z" fill="#173A52"/>
<path d="M283.321 167.763L320.066 185.25L322.213 193.659C322.335 194.15 322.319 194.667 322.166 195.151C322.014 195.634 321.731 196.064 321.351 196.39C320.971 196.716 320.51 196.925 320.02 196.993C319.53 197.061 319.032 196.985 318.583 196.774L275.663 176.343C275.216 176.129 274.838 175.788 274.573 175.361C274.308 174.933 274.167 174.437 274.166 173.929C274.166 173.421 274.306 172.923 274.571 172.493C274.835 172.063 275.213 171.719 275.66 171.5L283.321 167.763Z" fill="#173A52"/>
<path d="M340.435 47.3582C345.188 41.0244 351.577 36.1869 358.869 33.4005" stroke="white" stroke-width="3" stroke-linecap="round" stroke-linejoin="round"/>
<path d="M430.969 210.823L457.993 223.696L451.687 237.562C451.122 238.805 450.1 239.769 448.847 240.241C447.593 240.713 446.21 240.655 445.003 240.08L427.078 231.541C425.871 230.966 424.937 229.921 424.483 228.635C424.029 227.349 424.091 225.929 424.656 224.686L430.962 210.819L430.969 210.823Z" fill="#4B9B3A"/>
<path d="M501.3 192.098C501.3 192.098 503.661 218.819 488.785 223.238C473.909 227.657 475.774 200.519 475.774 200.519L475.264 184.355L498.598 168.906C498.598 168.906 501.253 184.598 501.3 192.098Z" fill="#4B9B3A"/>
<path d="M549.091 231.589C549.163 239.596 555.105 246.257 562.339 246.44L562.47 260.954L457.515 258.285L457.385 243.764C464.606 243.945 470.422 237.583 470.358 229.578C470.294 221.572 464.345 214.91 457.11 214.727L456.98 200.206L561.934 202.882L562.064 217.403C554.845 217.215 548.999 223.573 549.091 231.589Z" fill="#E66560"/>
<path d="M350.191 98.4526C350.191 98.4526 287.365 172.761 396.499 216.964C489.21 254.513 498.495 169.074 498.495 169.074C504.681 166.928 510.288 163.302 514.852 158.496C519.415 153.69 522.804 147.842 524.738 141.436C526.671 135.03 527.094 128.25 525.972 121.656C524.85 115.062 522.214 108.844 518.283 103.517L518.294 103.442C519.979 101.428 521.392 99.1916 522.496 96.7922C525.308 90.6044 525.979 83.6241 524.399 77.0099C522.818 70.3957 519.08 64.5456 513.806 60.4307C508.532 56.3158 502.039 54.1837 495.404 54.3883C488.769 54.5929 482.392 57.1219 477.332 61.5555L475.933 60.9015L450.876 48.9711L450.003 48.5539C450.131 41.2469 447.641 34.158 443.006 28.6346C438.371 23.1112 431.915 19.5384 424.865 18.5954C417.814 17.6523 410.661 19.4047 404.764 23.5195C398.868 27.6343 394.639 33.8246 392.883 40.9137L392.824 40.9053C385.806 40.1648 378.713 41.2951 372.229 44.187C365.744 47.079 360.087 51.635 355.803 57.416C351.519 63.1969 348.752 70.0076 347.77 77.1915C346.788 84.3753 347.623 91.69 350.194 98.4301L350.191 98.4526Z" fill="#49B236"/>
<path d="M335.506 165.355L360.785 177.397L354.342 191.566C353.813 192.729 352.857 193.63 351.685 194.072C350.512 194.513 349.219 194.459 348.089 193.921L331.321 185.934C330.192 185.396 329.318 184.418 328.893 183.215C328.469 182.013 328.527 180.684 329.056 179.521L335.499 165.352L335.506 165.355Z" fill="#49B236"/>
<path d="M461.107 185.967L442.736 226.391C430.273 227.074 415.053 224.471 396.514 216.96C376.103 208.712 361.718 199.394 351.795 189.718L372.657 143.838C375.33 137.993 380.144 133.463 386.046 131.241C391.947 129.018 398.456 129.284 404.146 131.98L449.72 153.683C455.39 156.411 459.769 161.336 461.903 167.385C464.036 173.433 463.75 180.113 461.107 185.967Z" fill="#9CD43D"/>
<path d="M489.794 105.795C495.116 106.563 500.055 102.751 500.827 97.2812C501.598 91.811 497.908 86.7538 492.586 85.9855C487.264 85.2173 482.325 89.0289 481.554 94.4991C480.783 99.9693 484.472 105.027 489.794 105.795Z" fill="black"/>
<path d="M419.083 72.1183C424.405 72.8865 429.344 69.0749 430.115 63.6047C430.886 58.1345 427.197 53.0773 421.875 52.309C416.553 51.5408 411.613 55.3524 410.842 60.8226C410.071 66.2928 413.761 71.35 419.083 72.1183Z" fill="black"/>
<path d="M443.56 84.2865L464.189 94.1065C465.19 94.5817 466.057 95.3088 466.711 96.2206C467.364 97.1324 467.783 98.1996 467.928 99.3237C468.074 100.448 467.941 101.593 467.542 102.653C467.144 103.713 466.492 104.654 465.647 105.389C461.349 109.074 454.706 111.831 445.562 107.477C436.417 103.123 434.203 96.145 434.194 90.3896C434.202 89.2569 434.487 88.1431 435.023 87.1508C435.559 86.1586 436.329 85.3198 437.262 84.7118C438.195 84.1039 439.261 83.7462 440.361 83.6719C441.462 83.5975 442.562 83.8089 443.56 84.2865Z" fill="white"/>
<path d="M517.222 137.858C521.037 129.47 517.167 119.353 508.578 115.262C499.989 111.171 489.934 114.654 486.12 123.042C482.305 131.43 486.175 141.546 494.764 145.638C503.353 149.729 513.408 146.246 517.222 137.858Z" fill="#9CD43D"/>
<path d="M407.831 85.7512C411.646 77.3633 407.775 67.2468 399.187 63.1556C390.598 59.0643 380.543 62.5475 376.728 70.9355C372.914 79.3235 376.784 89.4399 385.373 93.5312C393.961 97.6224 404.016 94.1392 407.831 85.7512Z" fill="#9CD43D"/>
<path d="M409.902 203.682C409.64 203.559 409.405 203.383 409.21 203.166C409.016 202.948 408.865 202.693 408.768 202.415L404.063 189.101C403.955 188.566 404.038 188.009 404.297 187.531C404.556 187.052 404.974 186.685 405.473 186.496C405.973 186.307 406.522 186.308 407.019 186.5C407.516 186.693 407.929 187.063 408.181 187.542L412.893 200.865C413.029 201.282 413.044 201.731 412.936 202.158C412.828 202.585 412.602 202.97 412.285 203.269C411.968 203.567 411.574 203.765 411.151 203.838C410.728 203.911 410.294 203.857 409.902 203.682Z" fill="#49B236"/>
<path d="M401.084 199.474C400.7 199.279 400.38 198.974 400.163 198.595C399.945 198.216 399.84 197.78 399.859 197.34C399.879 196.899 400.022 196.474 400.272 196.115C400.522 195.756 400.868 195.478 401.268 195.317L414.257 190.426C414.537 190.269 414.847 190.175 415.165 190.151C415.483 190.128 415.802 190.175 416.1 190.29C416.398 190.404 416.668 190.584 416.892 190.817C417.116 191.049 417.288 191.328 417.397 191.636C417.505 191.943 417.548 192.271 417.522 192.598C417.495 192.924 417.401 193.242 417.244 193.528C417.088 193.814 416.873 194.062 416.615 194.256C416.357 194.449 416.062 194.583 415.749 194.649L402.766 199.548C402.217 199.752 401.613 199.725 401.084 199.474Z" fill="#49B236"/>
<path d="M334.87 157.019L507.013 172.529" stroke="#015271" stroke-width="13" stroke-miterlimit="10" stroke-linecap="round"/>
<path d="M352.238 100.875L417.18 158.424L482.122 215.974" stroke="#015271" stroke-width="13" stroke-miterlimit="10" stroke-linecap="round"/>
<path d="M320.844 114.916C320.844 114.916 306.625 92.6151 317.725 81.6108C328.826 70.6066 339.54 95.2997 339.54 95.2997L347.333 109.23L333.792 133.968C333.792 133.968 324.267 121.481 320.844 114.916Z" fill="#49B236"/>
</svg>
