<svg width="600" height="467" viewBox="0 0 600 467" fill="none" xmlns="http://www.w3.org/2000/svg">
<g clip-path="url(#clip0_1475_11408)">
<rect width="600" height="467" fill="white"/>
<rect x="-37" y="-79" width="678" height="516" fill="white"/>
<g opacity="0.8">
<g opacity="0.8">
<path opacity="0.8" d="M603.601 -58.2832L-1.30469 -58.2832L-1.30469 428.778L603.601 428.778L603.601 -58.2832Z" fill="#45D5D9"/>
</g>
</g>
<path opacity="0.16" d="M35.8457 -46C35.8457 -46 267.87 30.8453 398.894 49.0443C529.917 67.2433 599.63 83.9305 572.449 110.743C545.268 137.555 191.61 85.4464 167.043 175.432C142.476 265.418 586.211 185.169 642 310.474L642 409L-95 409L-95 -46L35.8457 -46Z" fill="white"/>
<g style="mix-blend-mode:soft-light" opacity="0.32">
<path d="M-15.3103 497C-15.3103 497 188.065 384.181 302.911 357.462C417.757 330.744 478.862 306.245 455.037 266.881C431.212 227.517 121.221 304.019 99.6877 171.908C78.1543 39.7971 467.099 157.613 516 -26.3514L516 -171L-130 -171L-130 497L-15.3103 497Z" fill="white" fill-opacity="0.75"/>
</g>
<path d="M439.296 202.654L439.232 202.98C437.319 204.951 434.284 205.542 431.164 204.721C426.765 203.561 423.87 200.027 425.005 195.658C426.141 191.289 430.134 190.584 434.534 191.742C437.654 192.565 440.262 193.629 440.97 196.29C440.926 196.275 440.881 196.264 440.837 196.251C440.767 198.113 441.565 197.589 441.074 199.439C440.584 201.289 439.868 202.13 439.296 202.654Z" fill="#F95A5A"/>
<path d="M427.579 193.294C428.555 192.739 429.67 192.47 430.796 192.518" stroke="white" stroke-linecap="round" stroke-linejoin="round"/>
<path d="M439.5 188.192C439.563 188.194 439.624 188.211 439.68 188.241C439.735 188.271 439.783 188.314 439.819 188.365C439.855 188.417 439.879 188.476 439.888 188.538C439.898 188.6 439.892 188.663 439.873 188.723L439.537 189.739C439.233 190.656 438.636 191.447 437.837 191.993C437.038 192.54 436.08 192.811 435.108 192.767C434.92 192.758 434.736 192.706 434.571 192.615C434.406 192.523 434.265 192.395 434.158 192.24C434.05 192.086 433.981 191.909 433.954 191.723C433.927 191.538 433.943 191.349 434.002 191.172C434.307 190.263 434.9 189.48 435.691 188.937C436.483 188.394 437.432 188.121 438.396 188.159L439.5 188.192Z" fill="#009056" stroke="#009056" stroke-miterlimit="10" stroke-linecap="round"/>
<path d="M449.138 208.776L449.004 209.079C446.699 210.581 443.603 210.494 440.735 209.013C436.693 206.922 434.644 202.848 436.719 198.84C438.794 194.833 442.851 195.018 446.894 197.107C449.761 198.59 452.074 200.196 452.178 202.942C452.139 202.918 452.098 202.898 452.058 202.876C451.578 204.674 452.473 204.337 451.585 206.032C450.698 207.728 449.812 208.391 449.138 208.776Z" fill="#F95A5A"/>
<path d="M438.937 198.804C439.834 198.13 440.905 197.723 442.028 197.629" stroke="white" stroke-linecap="round" stroke-linejoin="round"/>
<path d="M452.529 194.74C452.59 194.756 452.647 194.786 452.694 194.828C452.742 194.869 452.779 194.921 452.803 194.979C452.827 195.037 452.837 195.1 452.833 195.163C452.828 195.225 452.809 195.285 452.777 195.339L452.224 196.256C451.725 197.082 450.967 197.723 450.066 198.08C449.164 198.438 448.168 198.493 447.228 198.238C447.046 198.188 446.878 198.097 446.737 197.972C446.596 197.847 446.486 197.691 446.416 197.517C446.345 197.343 446.316 197.156 446.33 196.969C446.345 196.783 446.403 196.602 446.5 196.442C446.998 195.624 447.75 194.99 448.644 194.634C449.537 194.279 450.524 194.22 451.458 194.468L452.529 194.74Z" fill="#009056" stroke="#009056" stroke-miterlimit="10" stroke-linecap="round"/>
<path d="M449.363 191.615C449.422 191.594 449.485 191.586 449.548 191.593C449.611 191.6 449.671 191.622 449.724 191.656C449.777 191.69 449.822 191.736 449.854 191.79C449.886 191.843 449.906 191.904 449.911 191.967L449.99 193.036C450.06 194.002 449.813 194.962 449.286 195.771C448.758 196.58 447.979 197.194 447.066 197.521C446.889 197.584 446.699 197.605 446.512 197.583C446.325 197.561 446.146 197.496 445.988 197.393C445.83 197.29 445.697 197.152 445.602 196.991C445.506 196.829 445.449 196.647 445.435 196.46C445.369 195.503 445.615 194.552 446.137 193.748C446.659 192.945 447.429 192.333 448.333 192.003L449.363 191.615Z" fill="#009056" stroke="#009056" stroke-miterlimit="10" stroke-linecap="round"/>
<path d="M457.763 216.845L457.542 217.094C454.882 217.844 451.945 216.847 449.648 214.592C446.41 211.41 445.681 206.93 448.879 203.728C452.077 200.527 455.904 201.9 459.143 205.08C461.439 207.337 463.168 209.547 462.437 212.192C462.406 212.157 462.373 212.126 462.342 212.093C461.338 213.662 462.297 213.606 460.935 214.957C459.573 216.308 458.525 216.678 457.763 216.845Z" fill="#F95A5A"/>
<path d="M450.71 204.081C451.567 203.355 452.614 202.884 453.73 202.722" stroke="white" stroke-linecap="round" stroke-linejoin="round"/>
<path d="M465.264 204.498C465.317 204.531 465.362 204.577 465.395 204.63C465.428 204.684 465.448 204.744 465.453 204.806C465.459 204.869 465.449 204.931 465.426 204.989C465.403 205.047 465.366 205.099 465.319 205.141L464.513 205.85C463.785 206.489 462.866 206.875 461.895 206.949C460.924 207.024 459.954 206.783 459.132 206.262C458.973 206.161 458.839 206.025 458.742 205.865C458.645 205.704 458.586 205.523 458.571 205.337C458.556 205.151 458.585 204.963 458.656 204.79C458.726 204.617 458.836 204.463 458.977 204.339C459.702 203.708 460.613 203.326 461.576 203.251C462.539 203.176 463.501 203.412 464.32 203.922L465.264 204.498Z" fill="#009056" stroke="#009056" stroke-miterlimit="10" stroke-linecap="round"/>
<rect width="42.9571" height="29.7698" rx="4" transform="matrix(0.90106 0.441675 -0.438635 0.894755 424.969 194.862)" fill="#FFBB4D"/>
<path d="M380.391 120.438L369.532 201.095" stroke="#173A52" stroke-width="3" stroke-miterlimit="10"/>
<path d="M481.387 143.167L457.232 220.824" stroke="#173A52" stroke-width="3" stroke-miterlimit="10"/>
<path d="M408.055 164.192C407.592 163.732 407.226 163.185 406.979 162.583C406.732 161.982 406.609 161.338 406.617 160.69C406.625 160.042 406.765 159.403 407.027 158.811C407.289 158.219 407.668 157.687 408.143 157.246C411.79 153.861 417.473 149.736 421.102 152.698C425.503 156.277 420.03 162.242 415.992 165.745C415.064 166.548 413.861 166.969 412.627 166.921C411.392 166.873 410.219 166.361 409.344 165.488L408.055 164.192Z" fill="#F6CBCA"/>
<path d="M359.207 193.284C359.207 193.284 353.514 186.463 356.858 182.448C360.202 178.433 364.783 186.167 364.783 186.167L367.966 190.469L364.325 199.082C364.325 199.082 360.628 195.319 359.207 193.284Z" fill="#EEEEEE"/>
<path d="M360.748 177.113C360.148 179.351 361.091 181.548 362.851 182.012L361.764 186.068L336.241 179.331L337.328 175.274C339.084 175.736 341.001 174.294 341.602 172.057C342.203 169.82 341.259 167.622 339.499 167.158L340.587 163.1L366.109 169.839L365.022 173.897C363.267 173.432 361.343 174.872 360.748 177.113Z" fill="#E66560"/>
<path d="M375.128 165.033C375.128 165.033 360.846 156.16 356.929 162.281C352.423 169.315 370.235 174.71 370.235 174.71L375.128 165.033Z" fill="#F6CBCA"/>
<path d="M361.013 163.118C359.878 163.239 359.598 163.674 359.479 163.884C359.349 164.028 359.263 164.205 359.229 164.395C359.195 164.586 359.214 164.782 359.285 164.963C359.788 166.298 363.087 168.987 368.766 171.099L371.223 166.212C367.998 164.546 363.667 162.843 361.024 163.119L361.013 163.118ZM360.687 160.171C366.369 159.571 375.16 165.033 375.16 165.033L370.276 174.732C370.276 174.732 352.446 169.311 356.971 162.302C357.381 161.684 357.931 161.172 358.578 160.805C359.226 160.439 359.951 160.229 360.697 160.193L360.687 160.171Z" fill="black"/>
<path d="M370.158 162.369C368.61 160.613 367.352 158.625 366.43 156.479C366.31 156.204 366.275 155.9 366.331 155.607C366.387 155.314 366.531 155.045 366.744 154.835C366.957 154.626 367.229 154.485 367.524 154.432C367.819 154.379 368.125 154.415 368.4 154.537C370.489 155.49 373.231 156.932 375.251 158.685C378.972 161.911 370.158 162.369 370.158 162.369Z" fill="#F4C25D"/>
<path d="M379.481 218.834C381.67 219.151 383.877 219.32 386.087 219.34C389.469 219.391 392.85 219.226 396.208 218.848C399.131 218.554 402.035 218.105 404.908 217.503C426.287 212.978 424.37 202.583 424.37 202.583C424.37 202.583 423.32 193.425 422.632 189.478C421.672 184.031 419.96 175.98 417.23 168.591C415.969 165.193 413.83 162.181 411.03 159.859C408.23 157.536 404.868 155.986 401.284 155.366C396.085 154.458 390.77 154.48 385.592 155.43C382.677 155.964 379.825 156.788 377.079 157.889L377.007 157.919C373.65 159.266 370.716 161.473 368.502 164.317C366.287 167.161 364.871 170.541 364.396 174.115C364.121 176.798 363.991 179.495 364.007 182.193C363.912 191.402 364.459 204.242 364.997 208.872C364.971 208.879 365.369 216.704 379.481 218.834Z" fill="white"/>
<path d="M386.08 219.345C389.462 219.396 392.843 219.232 396.201 218.853C399.124 218.559 402.028 218.111 404.901 217.509C426.28 212.984 424.364 202.588 424.364 202.588C424.364 202.588 423.314 193.43 422.625 189.483C422.625 189.483 406.177 189.279 404.201 201.602C404.045 202.666 403.745 203.704 403.309 204.687C399.69 212.681 388.465 207.787 386.138 219.089C386.113 219.173 386.094 219.259 386.08 219.345Z" fill="black"/>
<path d="M364.004 182.2C370.402 178.3 368.716 168.613 377.069 167.726C387.025 166.661 385.602 155.433 385.602 155.433C382.686 155.967 379.835 156.791 377.089 157.892L377.017 157.922C373.66 159.269 370.726 161.476 368.511 164.32C366.297 167.164 364.881 170.544 364.406 174.118C364.126 176.802 363.992 179.5 364.004 182.2Z" fill="black"/>
<path d="M377.219 208.902L377.903 214.912C378.065 216.336 378.612 217.692 379.485 218.836C383.708 219.47 389.164 219.598 396.212 218.849C399.135 218.555 402.039 218.107 404.912 217.505L403.607 206.099C403.554 205.618 403.455 205.142 403.312 204.679C402.761 202.886 401.6 201.335 400.028 200.296C398.456 199.257 396.572 198.793 394.702 198.986L384.306 200.091C382.186 200.321 380.25 201.377 378.922 203.028C377.594 204.68 376.981 206.792 377.219 208.902Z" fill="#F6CBCA"/>
<path d="M372.058 180.901C373.652 181.803 375.67 181.254 376.565 179.675C377.46 178.096 376.894 176.086 375.3 175.184C373.706 174.283 371.688 174.832 370.793 176.41C369.897 177.989 370.464 180 372.058 180.901Z" fill="black"/>
<path d="M398.454 178.105C400.048 179.007 402.066 178.458 402.961 176.879C403.856 175.301 403.29 173.29 401.696 172.389C400.102 171.487 398.084 172.036 397.189 173.615C396.293 175.193 396.86 177.204 398.454 178.105Z" fill="black"/>
<path d="M376.866 186.384C376.414 182.429 379.322 177.454 386.901 176.652C394.48 175.85 398.313 180.11 398.766 184.065C399.218 188.021 396.107 190.189 388.538 190.975C380.969 191.761 377.307 190.36 376.866 186.384Z" fill="#F6CBCA"/>
<path d="M390.026 184.712C390.65 184.646 391.078 183.907 390.981 183.062C390.884 182.217 390.3 181.585 389.676 181.651C389.053 181.718 388.625 182.456 388.722 183.302C388.818 184.147 389.402 184.778 390.026 184.712Z" fill="black"/>
<path d="M383.432 185.404C384.056 185.337 384.483 184.599 384.387 183.753C384.29 182.908 383.706 182.277 383.082 182.343C382.458 182.409 382.031 183.148 382.128 183.993C382.224 184.838 382.808 185.47 383.432 185.404Z" fill="black"/>
<path d="M408.119 159.454C408.119 159.454 410.454 155.588 411.16 151.743C411.218 151.449 411.184 151.144 411.064 150.869C410.944 150.593 410.742 150.359 410.487 150.199C410.231 150.038 409.933 149.958 409.631 149.969C409.33 149.98 409.04 150.082 408.799 150.261C406.979 151.628 405.47 152.562 403.893 154.694C400.988 158.624 408.119 159.454 408.119 159.454Z" fill="#F4C25D"/>
<path d="M417.86 154.656C416.013 154.848 413.203 156.582 410.154 159.407C409.969 159.578 409.82 159.784 409.717 160.014C409.613 160.244 409.558 160.492 409.555 160.745C409.551 160.997 409.598 161.248 409.694 161.482C409.79 161.716 409.933 161.929 410.113 162.108L411.421 163.392C411.621 163.593 411.864 163.746 412.131 163.841C412.398 163.935 412.683 163.969 412.965 163.939C413.347 163.9 413.707 163.744 413.994 163.491C418.251 159.797 419.743 157.127 419.73 155.839C419.724 155.656 419.719 155.375 419.2 154.951C419.015 154.804 418.8 154.7 418.57 154.645C418.341 154.59 418.102 154.587 417.872 154.635L417.86 154.656ZM417.535 151.688C418.161 151.599 418.799 151.64 419.41 151.808C420.021 151.976 420.591 152.268 421.084 152.666C425.485 156.245 420.013 162.21 415.975 165.712C415.048 166.518 413.844 166.94 412.609 166.892C411.374 166.844 410.2 166.33 409.327 165.455L408.015 164.168C407.552 163.709 407.187 163.162 406.94 162.56C406.693 161.959 406.57 161.315 406.578 160.667C406.586 160.018 406.725 159.38 406.987 158.788C407.25 158.196 407.629 157.664 408.103 157.223C410.697 154.822 414.345 152.036 417.513 151.697L417.535 151.688Z" fill="white"/>
<path d="M426.38 189.433C426.38 189.433 431.864 196.419 428.403 200.329C424.943 204.24 420.595 196.376 420.595 196.376L415.998 190.038L421.435 183.486C421.435 183.486 425.014 187.369 426.38 189.433Z" fill="white"/>
<path d="M404.253 184.782L408.331 184.349C409.455 184.23 410.263 183.226 410.135 182.107L409.848 179.594C409.72 178.475 408.704 177.664 407.58 177.783L403.503 178.216C402.378 178.335 401.57 179.339 401.698 180.458L401.985 182.971C402.113 184.09 403.129 184.901 404.253 184.782Z" fill="#F7D3D2"/>
<path d="M367.713 188.653L371.79 188.221C372.915 188.102 373.723 187.098 373.595 185.979L373.308 183.466C373.18 182.346 372.164 181.536 371.04 181.655L366.963 182.087C365.838 182.206 365.03 183.21 365.158 184.33L365.445 186.843C365.573 187.962 366.589 188.772 367.713 188.653Z" fill="#F7D3D2"/>
<path d="M431.865 132.041L415.025 211.347" stroke="#173A52" stroke-width="3" stroke-miterlimit="10"/>
<path d="M646.506 -0.584754C641.379 22.7569 631.652 44.8262 617.885 64.352C604.118 83.8778 586.583 100.474 566.289 113.186C563.324 115.051 560.305 116.829 557.232 118.519C552.111 121.343 546.851 123.92 541.453 126.252C533.349 129.751 525.239 133.251 517.221 136.941L480.37 152.326L374.896 128.542L348.027 98.7875C342.325 92.0043 336.464 85.3529 330.599 78.7053C326.686 74.2788 323.011 69.6854 319.575 64.9252C317.51 62.0795 315.53 59.178 313.633 56.2207C300.629 36.0023 291.756 13.4541 287.526 -10.1257C283.296 -33.7055 283.792 -57.8511 288.986 -81.1722C310.634 -179.122 408.076 -240.509 506.709 -218.427C605.257 -196.362 668.128 -98.3999 646.506 -0.584754Z" fill="url(#paint0_linear_1475_11408)"/>
<path d="M646.506 -0.584754C641.379 22.7569 631.652 44.8262 617.885 64.352C604.118 83.8778 586.583 100.474 566.289 113.186C563.324 115.051 560.305 116.829 557.232 118.519C552.111 121.343 546.851 123.92 541.453 126.252C533.349 129.751 525.239 133.251 517.221 136.941L480.37 152.326L374.896 128.542L348.027 98.7875C342.325 92.0043 336.464 85.3529 330.599 78.7053C326.686 74.2788 323.011 69.6854 319.575 64.9252C317.51 62.0795 315.53 59.178 313.633 56.2207C300.629 36.0023 291.756 13.4541 287.526 -10.1257C283.296 -33.7055 283.792 -57.8511 288.986 -81.1722C310.634 -179.122 408.076 -240.509 506.709 -218.427C605.257 -196.362 668.128 -98.3999 646.506 -0.584754Z" fill="#136E90"/>
<path opacity="0.1" d="M646.514 -0.5827C641.389 22.7601 631.662 44.8304 617.894 64.357C604.126 83.8836 586.59 100.48 566.295 113.192C563.33 115.057 560.312 116.835 557.239 118.525C552.122 121.352 546.862 123.929 541.459 126.258C533.359 129.76 525.248 133.253 517.228 136.954L480.376 152.332L374.902 128.548L348.031 98.7974C346.622 97.1254 345.215 95.4599 343.8 93.7893C475.795 104.207 598.219 17.0386 627.439 -115.072C628.154 -118.293 628.805 -121.516 629.393 -124.741C649.745 -86.5882 655.814 -42.5711 646.514 -0.5827Z" fill="black"/>
<path d="M361.35 198.801L463.019 221.733L453.887 263.011C453.156 266.318 451.131 269.191 448.259 270.998C445.387 272.804 441.902 273.398 438.572 272.646L362.017 255.379C358.686 254.628 355.783 252.594 353.945 249.725C352.108 246.855 351.486 243.386 352.218 240.079L361.35 198.801Z" fill="#005271"/>
<path opacity="0.1" d="M463.042 221.718L454.211 261.561C453.808 263.385 453.047 265.109 451.972 266.635C450.896 268.162 449.527 269.46 447.943 270.457C446.359 271.454 444.591 272.129 442.74 272.444C440.888 272.759 438.99 272.708 437.153 272.293L384.988 260.529C398.389 258.612 411.222 253.939 422.67 246.807C434.118 239.675 443.931 230.24 451.483 219.102L463.042 221.718Z" fill="black"/>
<g opacity="0.2">
<path d="M419.41 -71.5816L425.961 -98.5866L355.201 -56.0461L365.35 -39.0685L419.41 -71.5816ZM553.328 -56.3849C554.238 -78.6111 542.147 -98.384 540.755 -100.586L511.198 -149.818L483.406 -133.114L481.458 -131.916L474.912 -104.917L504.498 -122.727L521.311 -94.7302L523.879 -90.4621L524.066 -90.1671C524.114 -90.1346 525.208 -88.3421 526.678 -85.4249C529.665 -79.4403 534.032 -68.5173 533.605 -57.3211C532.913 -40.6205 530.007 -21.6797 506.75 -3.4718L499.969 24.4221C501.998 23.3977 503.295 22.6247 503.767 22.3443C523.422 10.7699 536.774 -2.51834 544.681 -18.3248C551.502 -32.0097 552.896 -45.2409 553.328 -56.3849ZM414.471 -2.38201L413.944 -2.82043L413.685 -2.99653C412.172 -4.33094 410.773 -5.7873 409.501 -7.35055C408.298 -8.75288 406.842 -10.5555 405.138 -12.842C402.534 -16.3157 399.385 -20.8712 395.624 -26.8609L387.322 -40.7434L370.434 -30.5875L378.684 -16.7896L378.792 -16.5977C391.751 4.03337 399.32 10.8832 402.21 12.9818C411.179 20.4602 421.467 26.2107 432.54 29.9354C437.642 31.6147 442.891 32.8047 448.214 33.4892L449.495 33.6424L454.197 14.3078C442.096 13.3977 428.28 9.00952 414.471 -2.38201Z" fill="black"/>
<path d="M516.607 -85.804L488.628 29.1674L488.228 29.2994C486.903 29.7774 485.45 30.2082 483.955 30.6292C483.464 30.778 482.95 30.931 482.448 31.0524C481.113 31.4185 479.726 31.7551 478.285 32.0622C476.957 32.3605 475.588 32.631 474.178 32.8736C473.412 33.0023 472.638 33.1264 471.842 33.2546C470.832 33.4045 469.783 33.5379 468.714 33.6575C467.882 33.7512 467.034 33.8243 466.168 33.8948C464.457 34.0438 462.693 34.1338 460.876 34.1649L459.55 34.1785L490.295 -92.2998L516.607 -85.804Z" fill="black"/>
</g>
<g opacity="0.95">
<g opacity="0.85">
<circle r="112.899" transform="matrix(-1 -1.23066e-09 -6.67576e-09 1 643.044 256.898)" fill="white"/>
<ellipse rx="89.3335" ry="88.2624" transform="matrix(-1 -1.23066e-09 -6.67576e-09 1 489.251 271.674)" fill="white"/>
<circle r="58.6988" transform="matrix(-1 -1.23066e-09 -6.67576e-09 1 384.914 311.101)" fill="white"/>
<rect width="581.846" height="94.6893" rx="47.3446" transform="matrix(-1 -1.23066e-09 -6.67576e-09 1 852.778 289.672)" fill="white"/>
</g>
<circle r="112.899" transform="matrix(-1 -1.23066e-09 -6.67576e-09 1 654.685 280.152)" fill="white"/>
<ellipse rx="89.3335" ry="88.2624" transform="matrix(-1 -1.23066e-09 -6.67576e-09 1 500.892 294.927)" fill="white"/>
<circle r="58.6988" transform="matrix(-1 -1.23066e-09 -6.67576e-09 1 396.555 334.355)" fill="white"/>
<rect width="581.846" height="94.6893" rx="47.3446" transform="matrix(-1 -1.23066e-09 -6.67576e-09 1 864.418 312.926)" fill="white"/>
</g>
<g clip-path="url(#clip1_1475_11408)">
<path d="M161.851 214.548L135.73 271.993C135.14 273.289 134.074 274.293 132.767 274.785C131.459 275.278 130.017 275.218 128.757 274.619L100.185 261.011C99.5609 260.714 99.0007 260.294 98.5362 259.773C98.0716 259.253 97.7117 258.644 97.477 257.98C97.2424 257.316 97.1376 256.61 97.1687 255.903C97.1997 255.196 97.366 254.502 97.658 253.86L123.779 196.415C128.706 185.608 147.018 168.094 157.527 173.105C168.037 178.116 166.757 203.728 161.851 214.548Z" fill="#173A52"/>
<path d="M103.059 262.381L126.062 273.337L127.402 278.599C127.48 278.907 127.471 279.231 127.377 279.534C127.282 279.837 127.105 280.107 126.868 280.312C126.63 280.516 126.34 280.648 126.033 280.69C125.726 280.732 125.414 280.684 125.133 280.551L98.2626 267.755C97.9824 267.621 97.7455 267.408 97.5795 267.14C97.4135 266.872 97.3253 266.561 97.325 266.243C97.3248 265.925 97.4127 265.613 97.5783 265.344C97.744 265.074 97.9806 264.859 98.2606 264.722L103.059 262.381Z" fill="#173A52"/>
<path d="M115.561 192.503L89.4407 249.943C89.1493 250.586 88.7376 251.164 88.2294 251.644C87.7211 252.124 87.1262 252.496 86.4786 252.741C85.831 252.985 85.1434 253.096 84.4551 253.068C83.7669 253.039 83.0914 252.872 82.4674 252.574L53.8992 238.967C52.6393 238.367 51.665 237.277 51.1903 235.936C50.7157 234.595 50.7795 233.113 51.3679 231.815L77.4886 174.37C82.4159 163.563 100.728 146.049 111.237 151.06C121.747 156.071 120.469 181.664 115.561 192.503Z" fill="#173A52"/>
<path d="M56.7695 240.336L79.7863 251.29L81.1311 256.557C81.2076 256.865 81.1975 257.189 81.1019 257.491C81.0064 257.794 80.8294 258.063 80.5914 258.268C80.3534 258.472 80.0642 258.603 79.7573 258.646C79.4504 258.688 79.1385 258.641 78.8576 258.508L51.9731 245.71C51.6929 245.576 51.456 245.363 51.29 245.095C51.124 244.827 51.0357 244.516 51.0355 244.198C51.0353 243.88 51.1231 243.568 51.2888 243.299C51.4544 243.03 51.6911 242.814 51.9711 242.677L56.7695 240.336Z" fill="#173A52"/>
<path d="M92.5449 164.915C95.5223 160.947 99.5242 157.917 104.092 156.172" stroke="white" stroke-width="3" stroke-linecap="round" stroke-linejoin="round"/>
<path d="M149.255 267.308L166.183 275.372L162.233 284.058C161.879 284.836 161.239 285.44 160.453 285.735C159.668 286.031 158.802 285.995 158.046 285.635L146.818 280.286C146.062 279.926 145.477 279.271 145.192 278.466C144.908 277.661 144.947 276.771 145.301 275.992L149.251 267.306L149.255 267.308Z" fill="#4B9B3A"/>
<path d="M193.31 255.578C193.31 255.578 194.789 272.316 185.471 275.084C176.153 277.852 177.321 260.853 177.321 260.853L177.002 250.729L191.618 241.051C191.618 241.051 193.281 250.881 193.31 255.578Z" fill="#4B9B3A"/>
<path d="M222.833 283.251C222.769 289.035 226.412 293.765 230.956 293.797L230.841 304.282L164.93 303.809L165.045 293.32C169.58 293.35 173.321 288.674 173.389 282.891C173.457 277.108 169.809 272.377 165.265 272.345L165.38 261.856L231.291 262.333L231.176 272.822C226.642 272.787 222.883 277.461 222.833 283.251Z" fill="#E66560"/>
<path d="M98.6564 196.921C98.6564 196.921 59.3028 243.466 127.663 271.155C185.736 294.675 191.551 241.157 191.551 241.157C195.427 239.813 198.939 237.542 201.797 234.531C204.656 231.521 206.778 227.858 207.99 223.845C209.201 219.832 209.466 215.585 208.763 211.455C208.06 207.325 206.409 203.43 203.947 200.093L203.953 200.046C205.009 198.785 205.894 197.384 206.586 195.881C208.347 192.005 208.767 187.632 207.777 183.489C206.787 179.346 204.446 175.682 201.142 173.104C197.839 170.527 193.771 169.191 189.615 169.32C185.459 169.448 181.465 171.032 178.295 173.809L177.419 173.399L161.724 165.926L161.177 165.665C161.257 161.088 159.697 156.648 156.794 153.188C153.891 149.728 149.847 147.49 145.431 146.899C141.014 146.309 136.534 147.406 132.84 149.984C129.147 152.561 126.498 156.439 125.398 160.879L125.361 160.874C120.965 160.41 116.522 161.118 112.46 162.93C108.398 164.741 104.855 167.595 102.172 171.216C99.4881 174.837 97.7551 179.103 97.1398 183.603C96.5244 188.103 97.0474 192.685 98.6584 196.907L98.6564 196.921Z" fill="#49B236"/>
<path d="M89.4573 238.828L105.292 246.37L101.256 255.246C100.924 255.974 100.326 256.539 99.5913 256.815C98.8568 257.092 98.0467 257.058 97.3392 256.721L86.8359 251.718C86.1284 251.381 85.5814 250.768 85.3153 250.015C85.0492 249.262 85.0857 248.429 85.4169 247.701L89.4531 238.826L89.4573 238.828Z" fill="#49B236"/>
<path d="M168.133 251.738L156.626 277.058C148.819 277.487 139.285 275.856 127.673 271.151C114.888 265.984 105.877 260.148 99.6617 254.087L112.729 225.349C114.404 221.687 117.419 218.85 121.116 217.458C124.812 216.066 128.889 216.232 132.453 217.921L161 231.515C164.552 233.224 167.295 236.309 168.631 240.098C169.967 243.887 169.788 248.071 168.133 251.738Z" fill="#9CD43D"/>
<path d="M186.104 201.52C189.438 202.001 192.532 199.613 193.015 196.187C193.498 192.761 191.187 189.593 187.853 189.112C184.52 188.63 181.426 191.018 180.943 194.444C180.46 197.871 182.771 201.039 186.104 201.52Z" fill="black"/>
<path d="M141.81 180.425C145.144 180.907 148.238 178.519 148.721 175.093C149.204 171.666 146.893 168.498 143.559 168.017C140.225 167.536 137.131 169.923 136.648 173.35C136.165 176.776 138.476 179.944 141.81 180.425Z" fill="black"/>
<path d="M157.139 188.047L170.061 194.198C170.688 194.496 171.231 194.951 171.641 195.522C172.05 196.094 172.312 196.762 172.403 197.466C172.494 198.17 172.411 198.888 172.162 199.551C171.912 200.215 171.504 200.805 170.975 201.265C168.282 203.574 164.121 205.301 158.393 202.573C152.665 199.846 151.278 195.475 151.273 191.87C151.277 191.161 151.456 190.463 151.792 189.841C152.128 189.22 152.61 188.694 153.194 188.314C153.779 187.933 154.446 187.709 155.136 187.662C155.825 187.616 156.514 187.748 157.139 188.047Z" fill="white"/>
<path d="M203.285 221.603C205.674 216.349 203.25 210.012 197.87 207.449C192.49 204.886 186.192 207.068 183.802 212.322C181.413 217.576 183.837 223.913 189.217 226.476C194.597 229.039 200.895 226.857 203.285 221.603Z" fill="#9CD43D"/>
<path d="M134.762 188.965C137.152 183.711 134.727 177.374 129.347 174.812C123.968 172.249 117.669 174.431 115.28 179.685C112.891 184.939 115.315 191.276 120.695 193.838C126.075 196.401 132.373 194.219 134.762 188.965Z" fill="#9CD43D"/>
<path d="M136.059 262.835C135.895 262.758 135.748 262.648 135.626 262.512C135.504 262.376 135.41 262.216 135.349 262.042L132.402 253.702C132.334 253.367 132.386 253.018 132.548 252.718C132.711 252.419 132.972 252.189 133.285 252.07C133.598 251.952 133.942 251.953 134.253 252.073C134.565 252.193 134.823 252.425 134.981 252.726L137.933 261.071C138.018 261.332 138.027 261.613 137.959 261.881C137.892 262.148 137.75 262.39 137.552 262.576C137.354 262.763 137.107 262.887 136.842 262.933C136.577 262.979 136.305 262.945 136.059 262.835Z" fill="#49B236"/>
<path d="M130.533 260.199C130.293 260.077 130.092 259.886 129.956 259.649C129.82 259.412 129.754 259.138 129.766 258.863C129.778 258.587 129.868 258.32 130.024 258.095C130.181 257.87 130.398 257.697 130.648 257.595L138.784 254.532C138.96 254.433 139.154 254.375 139.353 254.36C139.552 254.345 139.752 254.375 139.939 254.447C140.126 254.519 140.295 254.631 140.435 254.777C140.575 254.922 140.683 255.097 140.751 255.29C140.819 255.482 140.846 255.688 140.829 255.892C140.813 256.097 140.754 256.296 140.656 256.475C140.558 256.654 140.423 256.81 140.261 256.931C140.1 257.052 139.915 257.136 139.719 257.177L131.587 260.246C131.243 260.373 130.864 260.357 130.533 260.199Z" fill="#49B236"/>
<g opacity="0.85">
<path d="M75.9302 257.121L54.8398 247.075L22.5793 318.014L43.6696 328.06L75.9302 257.121Z" fill="white"/>
<path d="M122.126 279.127L101.036 269.081L68.7751 340.019L89.8655 350.066L122.126 279.127Z" fill="white"/>
<path d="M111.496 352.199C123.741 353.966 135.105 345.196 136.88 332.61C138.654 320.024 130.165 308.388 117.92 306.62C105.675 304.853 94.3099 313.623 92.5359 326.209C90.7618 338.795 99.2503 350.431 111.496 352.199Z" fill="white"/>
<path d="M65.0912 333.147C77.3364 334.915 88.7012 326.145 90.4752 313.559C92.2493 300.972 83.7608 289.336 71.5156 287.569C59.2704 285.801 47.9056 294.571 46.1316 307.157C44.3575 319.743 52.846 331.379 65.0912 333.147Z" fill="white"/>
<path d="M29.4423 305.132C41.6875 306.9 53.0523 298.13 54.8263 285.544C56.6004 272.958 48.1119 261.322 35.8667 259.554C23.6215 257.786 12.2567 266.556 10.4826 279.142C8.70858 291.729 17.1971 303.365 29.4423 305.132Z" fill="white"/>
<path d="M-7.53525 308.332C4.70993 310.1 16.0748 301.33 17.8488 288.744C19.6228 276.158 11.1343 264.522 -1.11086 262.754C-13.356 260.986 -24.7209 269.757 -26.4949 282.343C-28.269 294.929 -19.7804 306.565 -7.53525 308.332Z" fill="white"/>
<path d="M107.87 378.187C117.474 379.574 126.387 372.695 127.779 362.824C129.17 352.952 122.512 343.826 112.908 342.44C103.304 341.053 94.3906 347.932 92.9992 357.803C91.6078 367.675 98.2654 376.801 107.87 378.187Z" fill="white"/>
<path d="M-2.33311 340.82C2.69386 341.546 7.35942 337.946 8.08771 332.779C8.81601 327.612 5.33124 322.835 0.304275 322.109C-4.72269 321.384 -9.38825 324.984 -10.1165 330.151C-10.8448 335.318 -7.36007 340.095 -2.33311 340.82Z" fill="white"/>
<path d="M27.4506 348.403C45.8398 351.057 62.907 337.887 65.5712 318.986C68.2353 300.084 55.4877 282.61 37.0984 279.955C18.7092 277.301 1.64201 290.471 -1.02217 309.373C-3.68635 328.274 9.06132 345.748 27.4506 348.403Z" fill="white"/>
<path d="M74.4393 372.507C92.8286 375.162 109.896 361.991 112.56 343.09C115.224 324.189 102.476 306.714 84.0872 304.06C65.698 301.405 48.6308 314.576 45.9666 333.477C43.3024 352.378 56.0501 369.853 74.4393 372.507Z" fill="white"/>
</g>
<path d="M84.9325 233.431L192.761 243.146" stroke="#015271" stroke-width="13" stroke-miterlimit="10" stroke-linecap="round"/>
<path d="M95.8149 198.262L177.172 270.359" stroke="#015271" stroke-width="13" stroke-miterlimit="10" stroke-linecap="round"/>
<path d="M80.4004 207.181C80.4004 207.181 71.4523 193.147 78.4378 186.222C85.4233 179.297 92.1655 194.837 92.1655 194.837L97.0701 203.603L88.5488 219.17C88.5488 219.17 82.5543 211.312 80.4004 207.181Z" fill="#49B236"/>
</g>
</g>
<defs>
<linearGradient id="paint0_linear_1475_11408" x1="367.211" y1="-168.46" x2="512.244" y2="174.515" gradientUnits="userSpaceOnUse">
<stop offset="0.0752592" stop-color="#FFE36C"/>
<stop offset="0.34375" stop-color="#E0EA71"/>
<stop offset="0.512785" stop-color="#CCEE74"/>
<stop offset="0.945102" stop-color="#6DD1E1"/>
</linearGradient>
<clipPath id="clip0_1475_11408">
<rect width="600" height="467" fill="white"/>
</clipPath>
<clipPath id="clip1_1475_11408">
<rect width="274.734" height="263.889" fill="white" transform="matrix(0.989741 0.142874 -0.139573 0.990212 -21.0078 123)"/>
</clipPath>
</defs>
</svg>
