<svg width="353" height="183" viewBox="0 0 353 183" fill="none" xmlns="http://www.w3.org/2000/svg">
<g clip-path="url(#clip0_2172_8727)">
<path d="M283.78 169.752C283.78 169.752 299.594 193.82 287.353 205.517C275.112 217.214 263.209 190.811 263.209 190.811L254.518 175.841L269.414 149.366C274.593 155.88 279.389 162.687 283.78 169.752Z" fill="#EFD565"/>
<path d="M136.887 51.7631C162.678 44.4109 190.021 44.4109 215.813 51.7631L216.054 51.7631C227.367 54.9598 237.632 61.0762 245.814 69.4944C253.996 77.9126 259.804 88.3343 262.652 99.7067C268.06 121.368 273.517 191.358 273.517 212.08C273.517 212.08 276.221 254.97 176.555 254.97C76.8892 254.97 79.9796 212.08 79.9796 212.08C79.9796 212.08 79.9795 182.164 80.7521 169.191C81.973 145.876 85.2041 122.71 90.4096 99.9473C93.2165 88.5499 98.9959 78.0948 107.162 69.6414C115.328 61.188 125.591 55.0368 136.911 51.8112L136.887 51.7631Z" fill="#F2F2F2"/>
<path d="M136.887 51.7631C162.678 44.4109 190.021 44.4109 215.813 51.7631L216.054 51.7631C227.367 54.9598 237.632 61.0762 245.814 69.4944C253.996 77.9126 259.804 88.3343 262.652 99.7067C268.06 121.368 273.517 191.358 273.517 212.08C273.517 212.08 276.221 254.97 176.555 254.97C76.8892 254.97 79.9796 212.08 79.9796 212.08C79.9796 212.08 79.9795 182.164 80.7521 169.191C81.973 145.876 85.2041 122.71 90.4096 99.9473C93.2165 88.5499 98.9959 78.0948 107.162 69.6414C115.328 61.188 125.591 55.0368 136.911 51.8112L136.887 51.7631Z" fill="#FFE36C"/>
<path d="M234.111 126.207C240.031 126.207 244.831 121.422 244.831 115.52C244.831 109.619 240.031 104.834 234.111 104.834C228.19 104.834 223.391 109.619 223.391 115.52C223.391 121.422 228.19 126.207 234.111 126.207Z" fill="black"/>
<path d="M148.034 126.207C153.954 126.207 158.754 121.422 158.754 115.52C158.754 109.619 153.954 104.834 148.034 104.834C142.113 104.834 137.314 109.619 137.314 115.52C137.314 121.422 142.113 126.207 148.034 126.207Z" fill="black"/>
<path d="M63.9937 177.45C63.9937 177.45 38.0641 164.95 42.5421 148.586C47.02 132.222 70.8361 148.8 70.8361 148.8L85.9669 157.202L86.7892 187.593C78.9994 184.656 71.3881 181.269 63.9937 177.45Z" fill="#FFE36C"/>
<path d="M133.183 162.114C142.357 162.114 149.794 154.701 149.794 145.556C149.794 136.41 142.357 128.997 133.183 128.997C124.009 128.997 116.572 136.41 116.572 145.556C116.572 154.701 124.009 162.114 133.183 162.114Z" fill="#FFA052"/>
<path d="M248.236 162.114C257.41 162.114 264.847 154.701 264.847 145.556C264.847 136.41 257.41 128.997 248.236 128.997C239.062 128.997 231.625 136.41 231.625 145.556C231.625 154.701 239.062 162.114 248.236 162.114Z" fill="#FFA052"/>
<path d="M207.192 145.288L180.633 145.288C176.996 145.276 173.512 143.828 170.942 141.262C168.372 138.696 166.926 135.22 166.92 131.594C166.92 124.084 186.38 119.054 193.937 119.054C201.469 119.054 220.929 124.084 220.929 131.594C220.923 135.224 219.474 138.703 216.899 141.27C214.324 143.837 210.833 145.282 207.192 145.288Z" fill="#FFBB4D"/>
<path d="M173.299 46.2604C173.299 46.2604 174.313 31.3141 183.608 21.5184C183.829 21.2883 184.112 21.1256 184.422 21.0492C184.733 20.9727 185.059 20.9856 185.362 21.0865C185.666 21.1873 185.934 21.3718 186.136 21.6187C186.339 21.8656 186.467 22.1646 186.505 22.4811C187.491 29.4905 189.654 36.2845 192.903 42.578C193.903 44.1315 195.223 45.4546 196.776 46.459C198.329 47.4634 200.079 48.126 201.909 48.4024" fill="#FFE36C"/>
<path d="M190.342 46.9056C182.998 41.7055 176.864 34.9909 172.354 27.2179C172.201 26.9338 171.97 26.6995 171.687 26.5427C171.404 26.386 171.082 26.3135 170.759 26.3338C170.436 26.3541 170.126 26.4663 169.865 26.6571C169.605 26.848 169.404 27.1094 169.288 27.4104C168.147 31.3244 167.522 35.3697 167.429 39.4445C167.317 41.3776 166.532 43.2114 165.21 44.6302C163.888 46.049 162.112 46.9643 160.186 47.2185" fill="#FFE36C"/>
</g>
<defs>
<clipPath id="clip0_2172_8727">
<rect width="352.041" height="183" fill="white"/>
</clipPath>
</defs>
</svg>
