<svg width="170" height="105" viewBox="0 0 170 105" fill="none" xmlns="http://www.w3.org/2000/svg">
<g clip-path="url(#clip0_1739_8610)">
<path d="M143.104 78.855C143.104 78.855 153.831 64.9133 146.909 57.1446C139.987 49.3611 131.513 65.0397 131.513 65.0397L125.551 73.8011L133.42 90.7135C133.42 90.7135 140.444 82.9933 143.104 78.855Z" fill="#EFEFEF"/>
<path d="M108.85 23.3045C114.338 19.3931 124.974 12.8839 132.262 12.8839C134.741 12.8839 136.54 13.6367 137.78 15.1717C139.004 16.692 139.373 18.168 138.96 19.8359C137.44 25.917 125.963 33.1494 117.745 37.0165L108.85 23.3045Z" fill="#FFCACA"/>
<path d="M132.263 15.8361C134.521 15.8361 135.17 16.6331 135.479 17.0169C136.291 18.0206 136.232 18.5814 136.099 19.1128C135.42 21.8582 129.519 27.8802 118.824 33.2381L112.878 24.0869C118.868 20.1312 126.997 15.8361 132.263 15.8361ZM132.263 9.93207C120.948 9.93207 104.868 22.5962 104.868 22.5962L116.655 40.7657C116.655 40.7657 150.527 26.3157 140.068 13.3269C138.12 10.8915 135.376 9.93207 132.263 9.93207Z" fill="black"/>
<path d="M114.061 16.2929C114.061 16.2929 117.823 11.304 120.08 3.85024C120.862 1.26723 118.073 -0.961529 115.757 0.425913C111.863 2.74324 106.788 6.18232 103.203 10.0642C96.6082 17.2376 114.061 16.2929 114.061 16.2929Z" fill="#FFC145"/>
<path d="M51.257 9.31314C67.0129 4.78181 83.7277 4.76705 99.4983 9.25409L99.6459 9.29837C113.705 13.2983 124.593 24.5012 128.119 38.7003C131.423 52.0286 134.757 94.9065 134.757 107.615C134.757 107.615 136.41 133.917 75.5105 133.917C14.6113 133.917 16.4259 107.6 16.4259 107.6C16.4259 107.6 16.4259 89.2534 16.898 81.2978C17.5471 70.3015 19.1109 54.0212 22.8286 38.8332C25.012 29.9476 30.0722 22.2134 36.9912 16.6784C41.1514 13.3574 45.9756 10.8187 51.257 9.31314Z" fill="white"/>
<path d="M110.667 54.5797C114.284 54.5797 117.217 51.6456 117.217 48.0262C117.217 44.4069 114.284 41.4728 110.667 41.4728C107.049 41.4728 104.117 44.4069 104.117 48.0262C104.117 51.6456 107.049 54.5797 110.667 54.5797Z" fill="black"/>
<path d="M58.0712 54.5797C61.6888 54.5797 64.6214 51.6456 64.6214 48.0262C64.6214 44.4069 61.6888 41.4728 58.0712 41.4728C54.4536 41.4728 51.521 44.4069 51.521 48.0262C51.521 51.6456 54.4536 54.5797 58.0712 54.5797Z" fill="black"/>
<path d="M106.285 65.1926C106.285 57.2665 99.4399 48.0267 84.3332 48.0267C69.2264 48.0267 62.6467 57.2665 62.6467 65.1926C62.6467 73.1188 69.2412 76.7202 84.3332 76.7202C99.4252 76.7202 106.285 73.1188 106.285 65.1926Z" fill="#FFCACA"/>
<path d="M79.9969 64.6904C81.2435 64.6904 82.2541 63.3224 82.2541 61.635C82.2541 59.9476 81.2435 58.5797 79.9969 58.5797C78.7503 58.5797 77.7397 59.9476 77.7397 61.635C77.7397 63.3224 78.7503 64.6904 79.9969 64.6904Z" fill="black"/>
<path d="M93.1392 64.6904C94.3858 64.6904 95.3964 63.3224 95.3964 61.635C95.3964 59.9476 94.3858 58.5797 93.1392 58.5797C91.8926 58.5797 90.8821 59.9476 90.8821 61.635C90.8821 63.3224 91.8926 64.6904 93.1392 64.6904Z" fill="black"/>
<path d="M38.7024 18.4627C38.7024 18.4627 33.2291 11.304 30.972 3.85024C30.1901 1.26723 32.9783 -0.961529 35.2945 0.425913C39.1892 2.74324 42.361 4.27828 45.9459 8.17492C52.5404 15.3335 38.7024 18.4627 38.7024 18.4627Z" fill="#FFC145"/>
<path d="M30.1327 31.3176C28.7607 31.3176 27.4477 30.9044 26.3265 30.1221C17.6666 24.0852 12.4884 18.2403 12.0901 14.0779C11.9426 12.5134 12.4737 11.185 13.7572 9.87134C14.9374 8.66102 16.4569 8.07062 18.4043 8.07062C22.7711 8.07062 29.159 11.0521 36.4026 16.4543C37.8631 17.5465 38.7925 19.1259 39.0138 20.9414C39.2498 22.7568 38.7482 24.5428 37.6123 25.9598L35.3404 28.8084C34.0864 30.3878 32.1833 31.3176 30.1327 31.3176Z" fill="#FFCACA"/>
<path d="M18.4183 11.0082C22.1064 11.0082 28.0223 13.8421 34.661 18.8015C35.4724 19.4066 35.9887 20.2922 36.1215 21.2959C36.2543 22.3144 35.974 23.3033 35.3396 24.1003L33.0677 26.949C32.3596 27.8494 31.2974 28.3512 30.1467 28.3512C29.3795 28.3512 28.6566 28.1151 28.0223 27.687C18.8166 21.2664 15.276 16.2923 15.0399 13.7831C14.9956 13.4288 14.9366 12.868 15.8661 11.9233C16.3086 11.4658 16.9578 11.0082 18.4183 11.0082ZM18.4183 5.10419C15.8513 5.10419 13.5204 5.88647 11.6615 7.79051C3.81311 15.82 15.9103 26.4472 24.6439 32.5283C26.311 33.6943 28.2436 34.2552 30.1467 34.2552C32.9792 34.2552 35.7822 33.0006 37.6853 30.6243L39.9572 27.7756C43.3503 23.5247 42.5537 17.3107 38.2016 14.0635C32.5366 9.85691 24.7619 5.10419 18.4183 5.10419Z" fill="white"/>
<path d="M10.0117 76.752C10.0117 76.752 -2.45399 89.1565 3.38018 97.7741C9.21434 106.392 19.6761 91.9709 19.6761 91.9709L30.2478 80.628L21.167 66.2634C21.167 66.2634 13.1911 72.9943 10.0117 76.752Z" fill="white"/>
<path fill-rule="evenodd" clip-rule="evenodd" d="M95.8655 132.892C90.0768 133.613 83.4341 134.025 75.8112 134.025C14.9121 134.025 16.7267 107.708 16.7267 107.708C16.7267 107.708 16.7267 89.365 17.1986 81.4079L17.2005 81.4061C17.2005 81.4061 49.5236 77.5537 56.1918 101.524C59.5251 113.506 67.4221 115.15 75.475 116.827C83.5319 118.505 91.7448 120.215 95.6995 132.343C95.7601 132.529 95.8153 132.711 95.8655 132.892Z" fill="black"/>
<path fill-rule="evenodd" clip-rule="evenodd" d="M106.623 131.022C98.4843 133.129 87.8593 134.493 73.9899 134.493C67.4893 134.493 61.7034 134.193 56.5535 133.658L56.5535 110.404C56.5535 101.636 63.7233 94.4627 72.4864 94.4627L93.1992 94.4627C101.962 94.4627 109.132 101.636 109.132 110.404L109.132 122.462C109.132 125.606 108.21 128.545 106.623 131.022Z" fill="#FFCACA"/>
<path d="M49.4275 67.7309L46.3295 67.7309C42.715 67.7309 39.7498 64.7789 39.7498 61.148C39.7498 57.5318 42.7003 54.565 46.3295 54.565L49.4275 54.565C53.0419 54.565 56.0072 57.517 56.0072 61.148C56.0072 64.7789 53.0419 67.7309 49.4275 67.7309Z" fill="#FFD2D2"/>
<path d="M122.262 67.7309L119.164 67.7309C115.55 67.7309 112.584 64.7789 112.584 61.148C112.584 57.5318 115.535 54.565 119.164 54.565L122.262 54.565C125.877 54.565 128.842 57.517 128.842 61.148C128.842 64.7789 125.877 67.7309 122.262 67.7309Z" fill="#FFD2D2"/>
<path fill-rule="evenodd" clip-rule="evenodd" d="M83.1094 5.76923C83.1064 6.02053 82.897 28.3056 102.672 28.3056C112.108 28.3056 115.828 34.5872 119.737 41.1888C122.723 46.2312 125.819 51.4602 131.658 54.2195C130.834 47.5636 129.948 41.8795 129.063 38.3122C125.537 24.1131 114.65 12.9102 100.59 8.91027L100.443 8.86599C94.758 7.24855 88.9505 6.21606 83.1094 5.76923Z" fill="black"/>
</g>
<path d="M154.336 40.0527L164.728 34.0527" stroke="#136E90" stroke-width="4" stroke-linecap="round"/>
<path d="M156.188 46.0215L167.528 42.9828" stroke="#136E90" stroke-width="4" stroke-linecap="round"/>
<path d="M150 35.3027L158.302 27.0008" stroke="#136E90" stroke-width="4" stroke-linecap="round"/>
<defs>
<clipPath id="clip0_1739_8610">
<rect width="150" height="105" fill="white"/>
</clipPath>
</defs>
</svg>
